G04 CAM350 V10.0.1 (Build 309) Date:  Wed May 18 19:13:47 2016 *
G04 Database: I:\6_SmartCOM\MD_plus\MD PLUS MODULE OTDR V1\MD_Plus_Module_OTDR_V1-GERBERI\MD Plus Module OTDR V1 paste.cam *
G04 Layer 1: LPKF3.gbr *
%FSLAX25Y25*%
%MOIN*%
%SFA1.000B1.000*%

%MIA0B0*%
%IPPOS*%
%ADD11C,0.01000*%
%ADD17C,0.05906*%
%ADD18R,0.04449X0.06811*%
%ADD21R,0.03071X0.02874*%
%ADD23R,0.06417X0.10157*%
%ADD24R,0.06811X0.04449*%
%ADD25R,0.02874X0.03071*%
%ADD136C,0.00000*%
%ADD153R,0.03071X0.03268*%
%ADD154R,0.03268X0.03071*%
%ADD155R,0.06693X0.06693*%
%ADD156R,0.03268X0.01299*%
%ADD157R,0.01299X0.03268*%
%ADD158R,0.02283X0.04449*%
%ADD159R,0.03268X0.03465*%
%ADD161R,0.03465X0.03268*%
%ADD162R,0.11732X0.05433*%
%ADD163O,0.11732X0.05433*%
%ADD164R,0.03858X0.03858*%
%ADD165R,0.04843X0.07795*%
%ADD166R,0.09764X0.09764*%
%ADD167R,0.05118X0.04724*%
%ADD168R,0.04449X0.02283*%
%ADD169O,0.01693X0.02087*%
%ADD170R,0.01693X0.02087*%
%ADD171R,0.03465X0.04843*%
%ADD172R,0.02087X0.01693*%
%ADD173O,0.02087X0.01693*%
%ADD174R,0.10157X0.06417*%
%ADD175O,0.01102X0.06024*%
%ADD176R,0.01102X0.06024*%
%ADD177R,0.02283X0.07402*%
%ADD178O,0.02283X0.07402*%
%ADD179R,0.09764X0.08976*%
%ADD180R,0.02283X0.03268*%
%ADD181O,0.04843X0.02874*%
%ADD182R,0.04843X0.02874*%
%ADD183R,0.05827X0.12520*%
%ADD184R,0.04843X0.03465*%
%ADD186R,0.02087X0.07598*%
%ADD187O,0.02087X0.07598*%
%LNLPKF3.gbr*%
%LPD*%
G54D17*
X-149606Y448819D03*
X-637795Y-448819D03*
X149606Y448819D03*
X637795Y-448819D03*
G54D18*
X592618Y-313878D03*
X582185D03*
X564567Y-364370D03*
X554134D03*
X509547Y-414075D03*
X519980D03*
X216141Y-369882D03*
X226575D03*
X257874Y-330906D03*
X247441D03*
X257480Y-340945D03*
X247047D03*
X239665Y-330512D03*
X229232D03*
X239665Y-340945D03*
X229232D03*
X216240Y-350492D03*
X226673D03*
X216141Y-360039D03*
X226575D03*
X323228Y-339665D03*
X312795D03*
X323228Y-330315D03*
X312795D03*
X564567Y-383071D03*
X554134D03*
X564567Y-392618D03*
X554134D03*
G54D21*
X581496Y-327217D03*
Y-321705D03*
X492366Y-368307D03*
Y-373819D03*
X445472Y-316043D03*
Y-321555D03*
X436515Y-310433D03*
Y-304921D03*
X365846Y-304528D03*
Y-310039D03*
X502657Y-379035D03*
Y-373524D03*
X365846Y-294390D03*
Y-299902D03*
X370571Y-310039D03*
Y-304528D03*
X382972Y-327461D03*
Y-321949D03*
X497441Y-375886D03*
Y-370374D03*
X500886Y-306398D03*
Y-300886D03*
X209842Y-354724D03*
Y-360236D03*
X594390Y-303839D03*
Y-298327D03*
X228445Y-323425D03*
Y-317913D03*
X222539Y-300098D03*
Y-305610D03*
X268405Y-322343D03*
Y-316831D03*
X289271Y-343799D03*
Y-338287D03*
X382972Y-343701D03*
Y-338189D03*
X552559Y-321209D03*
Y-315697D03*
X370571Y-294390D03*
Y-299902D03*
X516830Y-370768D03*
Y-365256D03*
G54D23*
X576575Y-301969D03*
X585827D03*
X428937Y-319488D03*
X438189D03*
X305708Y-341043D03*
X296456D03*
G54D24*
X558169Y-298622D03*
Y-309055D03*
X548575Y-298622D03*
Y-309055D03*
X540748Y-336811D03*
Y-347244D03*
X538976Y-298622D03*
Y-309055D03*
X493307Y-297736D03*
Y-308169D03*
X251378Y-384843D03*
Y-374409D03*
X485433Y-400197D03*
Y-389764D03*
X260728Y-384941D03*
Y-374508D03*
X322145Y-305020D03*
Y-294587D03*
X330905Y-305020D03*
Y-294587D03*
X339862Y-305020D03*
Y-294587D03*
X348622Y-305020D03*
Y-294587D03*
X357086Y-305020D03*
Y-294587D03*
X589960Y-333024D03*
Y-322591D03*
X483858Y-297736D03*
Y-308169D03*
X554429Y-345866D03*
Y-356299D03*
X429035Y-299311D03*
Y-309744D03*
G54D25*
X536122Y-387500D03*
X541634D03*
X559055Y-400591D03*
X553543D03*
X442815Y-328445D03*
X437303D03*
X204232Y-342815D03*
X198720D03*
X216437Y-342717D03*
X221949D03*
X210728Y-298228D03*
X216240D03*
X205315Y-299508D03*
X199803D03*
X335334Y-347146D03*
X340846D03*
X373425Y-353937D03*
X367913D03*
X306004Y-293406D03*
X311515D03*
X299508Y-330512D03*
X305019D03*
X541043Y-352953D03*
X546555D03*
G54D153*
X395866Y-329921D03*
X401378D03*
X377559Y-332480D03*
X383071D03*
Y-348819D03*
X377559D03*
X405118Y-299902D03*
X399606D03*
X201771Y-316075D03*
X196260D03*
X201771Y-310598D03*
X196260D03*
X201771Y-305118D03*
X196260D03*
X204035Y-348524D03*
X198523D03*
X233563Y-349213D03*
X239075D03*
X196260Y-321555D03*
X201771D03*
X247736Y-348917D03*
X253248D03*
X306004Y-299016D03*
X311515D03*
X294882Y-293504D03*
X300393D03*
X540945Y-358465D03*
X546456D03*
X529921D03*
X535433D03*
G54D154*
X377657Y-327461D03*
Y-321949D03*
X201378Y-330315D03*
Y-335827D03*
X228445Y-312697D03*
Y-307185D03*
X203673Y-354823D03*
Y-360335D03*
X209941Y-348327D03*
Y-342815D03*
X268504Y-306004D03*
Y-311516D03*
X401378Y-341142D03*
Y-335630D03*
X377657Y-343799D03*
Y-338287D03*
X546850Y-321307D03*
Y-315795D03*
X552460Y-332232D03*
Y-326721D03*
X390748Y-341142D03*
Y-335630D03*
Y-330020D03*
Y-324508D03*
X396063Y-335630D03*
Y-341142D03*
G54D155*
X302952Y-313681D03*
X538878Y-373327D03*
G54D156*
X312106Y-308563D03*
Y-311122D03*
Y-313681D03*
Y-316240D03*
Y-318799D03*
X293799D03*
Y-316240D03*
Y-313681D03*
Y-311122D03*
Y-308563D03*
X576279Y-319343D03*
Y-321898D03*
Y-324457D03*
Y-327020D03*
Y-329575D03*
X557972D03*
Y-327020D03*
Y-324457D03*
Y-321898D03*
Y-319343D03*
X529724Y-368209D03*
Y-370768D03*
Y-373327D03*
Y-375886D03*
Y-378445D03*
X548031D03*
Y-375886D03*
Y-373327D03*
Y-370768D03*
Y-368209D03*
G54D157*
X308071Y-322835D03*
X305512D03*
X302952D03*
X300393D03*
X297834D03*
Y-304528D03*
X300393D03*
X302952D03*
X305512D03*
X308071D03*
X562008Y-315307D03*
X564567D03*
X567126D03*
X569685D03*
X572244D03*
Y-333610D03*
X569685D03*
X567126D03*
X564567D03*
X562008D03*
X543996Y-364173D03*
X541437D03*
X538878D03*
X536319D03*
X533760D03*
Y-382480D03*
X536319D03*
X538878D03*
X541437D03*
X543996D03*
G54D158*
X277952Y-315303D03*
X285433D03*
X281693Y-308413D03*
X277952Y-328642D03*
X285433D03*
X281693Y-321752D03*
X277952Y-301969D03*
X285433D03*
X281693Y-295079D03*
X401673Y-316831D03*
X405413Y-323721D03*
X397933D03*
G54D159*
X486023Y-366240D03*
Y-371358D03*
X427559Y-334449D03*
Y-329331D03*
X397342Y-309252D03*
Y-314370D03*
G54D161*
X475590Y-308563D03*
X470472D03*
X340649Y-351969D03*
X335531D03*
X362500Y-353937D03*
X357382D03*
X512992Y-380610D03*
X507874D03*
G54D162*
X238878Y-312992D03*
X258169D03*
Y-305906D03*
G54D163*
X238878D03*
G54D164*
X600787Y-298622D03*
Y-306496D03*
X281890Y-337303D03*
Y-345177D03*
X533563Y-405217D03*
Y-397343D03*
G54D165*
X257972Y-357480D03*
X243208D03*
G54D166*
X268405Y-349114D03*
Y-331398D03*
G54D167*
X214665Y-324409D03*
G54D168*
X353937Y-332185D03*
X347047Y-335925D03*
Y-328445D03*
X366634Y-332185D03*
X359744Y-335925D03*
Y-328445D03*
X359350Y-314272D03*
Y-321752D03*
X366240Y-318012D03*
X346653Y-314272D03*
Y-321752D03*
X353543Y-318012D03*
G54D155*
X567126Y-324457D03*
G54D169*
X347244Y-353051D03*
G54D170*
X349803D03*
X352362D03*
Y-345571D03*
X347244D03*
X349803D03*
G54D171*
X340354Y-322114D03*
X333267D03*
X340354Y-315354D03*
X333267D03*
X340354Y-335630D03*
X333267D03*
X340354Y-328870D03*
X333267D03*
G54D172*
X371358Y-346949D03*
Y-344390D03*
Y-349508D03*
X363878D03*
Y-346949D03*
G54D173*
Y-344390D03*
G54D174*
X543012Y-394882D03*
Y-404134D03*
G54D175*
X223622Y-313386D03*
G54D176*
X221063D03*
X218504D03*
X215945D03*
X213386D03*
X210827D03*
X208267D03*
X205708D03*
X223622Y-335433D03*
X221063D03*
X218504D03*
X215945D03*
X213386D03*
X210827D03*
X208267D03*
X205708D03*
G54D18*
X592618Y-172146D03*
X582185D03*
X564567Y-222638D03*
X554134D03*
X509547Y-272343D03*
X519980D03*
X216141Y-228150D03*
X226575D03*
X257874Y-189173D03*
X247441D03*
X257480Y-199213D03*
X247047D03*
X239665Y-188780D03*
X229232D03*
X239665Y-199213D03*
X229232D03*
X216240Y-208760D03*
X226673D03*
X216141Y-218307D03*
X226575D03*
X323228Y-197933D03*
X312795D03*
X323228Y-188583D03*
X312795D03*
X564567Y-241339D03*
X554134D03*
X564567Y-250886D03*
X554134D03*
G54D21*
X581496Y-185484D03*
Y-179972D03*
X492366Y-226575D03*
Y-232087D03*
X445472Y-174311D03*
Y-179823D03*
X436515Y-168701D03*
Y-163189D03*
X365846Y-162795D03*
Y-168307D03*
X502657Y-237303D03*
Y-231791D03*
X365846Y-152658D03*
Y-158169D03*
X370571Y-168307D03*
Y-162795D03*
X382972Y-185728D03*
Y-180217D03*
X497441Y-234154D03*
Y-228642D03*
X500886Y-164665D03*
Y-159154D03*
X209842Y-212992D03*
Y-218504D03*
X594390Y-162106D03*
Y-156595D03*
X228445Y-181693D03*
Y-176181D03*
X222539Y-158366D03*
Y-163878D03*
X268405Y-180610D03*
Y-175098D03*
X289271Y-202067D03*
Y-196555D03*
X382972Y-201969D03*
Y-196457D03*
X552559Y-179476D03*
Y-173965D03*
X370571Y-152658D03*
Y-158169D03*
X516830Y-229035D03*
Y-223524D03*
G54D23*
X576575Y-160236D03*
X585827D03*
X428937Y-177756D03*
X438189D03*
X305708Y-199311D03*
X296456D03*
G54D24*
X558169Y-156890D03*
Y-167323D03*
X548575Y-156890D03*
Y-167323D03*
X540748Y-195079D03*
Y-205512D03*
X538976Y-156890D03*
Y-167323D03*
X493307Y-156004D03*
Y-166437D03*
X251378Y-243110D03*
Y-232677D03*
X485433Y-258465D03*
Y-248032D03*
X260728Y-243209D03*
Y-232776D03*
X322145Y-163287D03*
Y-152854D03*
X330905Y-163287D03*
Y-152854D03*
X339862Y-163287D03*
Y-152854D03*
X348622Y-163287D03*
Y-152854D03*
X357086Y-163287D03*
Y-152854D03*
X589960Y-191291D03*
Y-180858D03*
X483858Y-156004D03*
Y-166437D03*
X554429Y-204134D03*
Y-214567D03*
X429035Y-157579D03*
Y-168012D03*
G54D25*
X536122Y-245768D03*
X541634D03*
X559055Y-258858D03*
X553543D03*
X442815Y-186713D03*
X437303D03*
X204232Y-201083D03*
X198720D03*
X216437Y-200984D03*
X221949D03*
X210728Y-156496D03*
X216240D03*
X205315Y-157776D03*
X199803D03*
X335334Y-205413D03*
X340846D03*
X373425Y-212205D03*
X367913D03*
X306004Y-151673D03*
X311515D03*
X299508Y-188780D03*
X305019D03*
X541043Y-211221D03*
X546555D03*
G54D153*
X395866Y-188189D03*
X401378D03*
X377559Y-190748D03*
X383071D03*
Y-207087D03*
X377559D03*
X405118Y-158169D03*
X399606D03*
X201771Y-174343D03*
X196260D03*
X201771Y-168866D03*
X196260D03*
X201771Y-163386D03*
X196260D03*
X204035Y-206791D03*
X198523D03*
X233563Y-207480D03*
X239075D03*
X196260Y-179823D03*
X201771D03*
X247736Y-207185D03*
X253248D03*
X306004Y-157283D03*
X311515D03*
X294882Y-151772D03*
X300393D03*
X540945Y-216732D03*
X546456D03*
X529921D03*
X535433D03*
G54D154*
X377657Y-185728D03*
Y-180217D03*
X201378Y-188583D03*
Y-194095D03*
X228445Y-170965D03*
Y-165453D03*
X203673Y-213091D03*
Y-218602D03*
X209941Y-206595D03*
Y-201083D03*
X268504Y-164272D03*
Y-169783D03*
X401378Y-199409D03*
Y-193898D03*
X377657Y-202067D03*
Y-196555D03*
X546850Y-179575D03*
Y-174063D03*
X552460Y-190500D03*
Y-184988D03*
X390748Y-199409D03*
Y-193898D03*
Y-188287D03*
Y-182776D03*
X396063Y-193898D03*
Y-199409D03*
G54D155*
X302952Y-171949D03*
X538878Y-231595D03*
G54D156*
X312106Y-166831D03*
Y-169390D03*
Y-171949D03*
Y-174508D03*
Y-177067D03*
X293799D03*
Y-174508D03*
Y-171949D03*
Y-169390D03*
Y-166831D03*
X576279Y-177610D03*
Y-180165D03*
Y-182724D03*
Y-185287D03*
Y-187843D03*
X557972D03*
Y-185287D03*
Y-182724D03*
Y-180165D03*
Y-177610D03*
X529724Y-226476D03*
Y-229035D03*
Y-231595D03*
Y-234154D03*
Y-236713D03*
X548031D03*
Y-234154D03*
Y-231595D03*
Y-229035D03*
Y-226476D03*
G54D157*
X308071Y-181102D03*
X305512D03*
X302952D03*
X300393D03*
X297834D03*
Y-162795D03*
X300393D03*
X302952D03*
X305512D03*
X308071D03*
X562008Y-173575D03*
X564567D03*
X567126D03*
X569685D03*
X572244D03*
Y-191878D03*
X569685D03*
X567126D03*
X564567D03*
X562008D03*
X543996Y-222441D03*
X541437D03*
X538878D03*
X536319D03*
X533760D03*
Y-240748D03*
X536319D03*
X538878D03*
X541437D03*
X543996D03*
G54D158*
X277952Y-173571D03*
X285433D03*
X281693Y-166681D03*
X277952Y-186909D03*
X285433D03*
X281693Y-180020D03*
X277952Y-160236D03*
X285433D03*
X281693Y-153346D03*
X401673Y-175098D03*
X405413Y-181988D03*
X397933D03*
G54D159*
X486023Y-224508D03*
Y-229626D03*
X427559Y-192717D03*
Y-187598D03*
X397342Y-167520D03*
Y-172638D03*
G54D161*
X475590Y-166831D03*
X470472D03*
X340649Y-210236D03*
X335531D03*
X362500Y-212205D03*
X357382D03*
X512992Y-238878D03*
X507874D03*
G54D162*
X238878Y-171260D03*
X258169D03*
Y-164173D03*
G54D163*
X238878D03*
G54D164*
X600787Y-156890D03*
Y-164764D03*
X281890Y-195571D03*
Y-203445D03*
X533563Y-263484D03*
Y-255610D03*
G54D165*
X257972Y-215748D03*
X243208D03*
G54D166*
X268405Y-207382D03*
Y-189665D03*
G54D167*
X214665Y-182677D03*
G54D168*
X353937Y-190453D03*
X347047Y-194193D03*
Y-186713D03*
X366634Y-190453D03*
X359744Y-194193D03*
Y-186713D03*
X359350Y-172539D03*
Y-180020D03*
X366240Y-176280D03*
X346653Y-172539D03*
Y-180020D03*
X353543Y-176280D03*
G54D155*
X567126Y-182724D03*
G54D169*
X347244Y-211319D03*
G54D170*
X349803D03*
X352362D03*
Y-203839D03*
X347244D03*
X349803D03*
G54D171*
X340354Y-180382D03*
X333267D03*
X340354Y-173622D03*
X333267D03*
X340354Y-193898D03*
X333267D03*
X340354Y-187138D03*
X333267D03*
G54D172*
X371358Y-205217D03*
Y-202658D03*
Y-207776D03*
X363878D03*
Y-205217D03*
G54D173*
Y-202658D03*
G54D174*
X543012Y-253150D03*
Y-262402D03*
G54D175*
X223622Y-171654D03*
G54D176*
X221063D03*
X218504D03*
X215945D03*
X213386D03*
X210827D03*
X208267D03*
X205708D03*
X223622Y-193701D03*
X221063D03*
X218504D03*
X215945D03*
X213386D03*
X210827D03*
X208267D03*
X205708D03*
G54D18*
X592618Y-30413D03*
X582185D03*
X564567Y-80906D03*
X554134D03*
X509547Y-130610D03*
X519980D03*
X216141Y-86417D03*
X226575D03*
X257874Y-47441D03*
X247441D03*
X257480Y-57480D03*
X247047D03*
X239665Y-47047D03*
X229232D03*
X239665Y-57480D03*
X229232D03*
X216240Y-67028D03*
X226673D03*
X216141Y-76575D03*
X226575D03*
X323228Y-56201D03*
X312795D03*
X323228Y-46850D03*
X312795D03*
X564567Y-99606D03*
X554134D03*
X564567Y-109154D03*
X554134D03*
G54D21*
X581496Y-43752D03*
Y-38240D03*
X492366Y-84843D03*
Y-90354D03*
X445472Y-32579D03*
Y-38091D03*
X436515Y-26969D03*
Y-21457D03*
X365846Y-21063D03*
Y-26575D03*
X502657Y-95571D03*
Y-90059D03*
X365846Y-10925D03*
Y-16437D03*
X370571Y-26575D03*
Y-21063D03*
X382972Y-43996D03*
Y-38484D03*
X497441Y-92421D03*
Y-86909D03*
X500886Y-22933D03*
Y-17421D03*
X209842Y-71260D03*
Y-76772D03*
X594390Y-20374D03*
Y-14862D03*
X228445Y-39961D03*
Y-34449D03*
X222539Y-16634D03*
Y-22146D03*
X268405Y-38878D03*
Y-33366D03*
X289271Y-60335D03*
Y-54823D03*
X382972Y-60236D03*
Y-54724D03*
X552559Y-37744D03*
Y-32232D03*
X370571Y-10925D03*
Y-16437D03*
X516830Y-87303D03*
Y-81791D03*
G54D23*
X576575Y-18504D03*
X585827D03*
X428937Y-36024D03*
X438189D03*
X305708Y-57579D03*
X296456D03*
G54D24*
X558169Y-15158D03*
Y-25591D03*
X548575Y-15158D03*
Y-25591D03*
X540748Y-53346D03*
Y-63780D03*
X538976Y-15158D03*
Y-25591D03*
X493307Y-14272D03*
Y-24705D03*
X251378Y-101378D03*
Y-90945D03*
X485433Y-116732D03*
Y-106299D03*
X260728Y-101476D03*
Y-91043D03*
X322145Y-21555D03*
Y-11122D03*
X330905Y-21555D03*
Y-11122D03*
X339862Y-21555D03*
Y-11122D03*
X348622Y-21555D03*
Y-11122D03*
X357086Y-21555D03*
Y-11122D03*
X589960Y-49559D03*
Y-39126D03*
X483858Y-14272D03*
Y-24705D03*
X554429Y-62402D03*
Y-72835D03*
X429035Y-15846D03*
Y-26280D03*
G54D25*
X536122Y-104035D03*
X541634D03*
X559055Y-117126D03*
X553543D03*
X442815Y-44980D03*
X437303D03*
X204232Y-59350D03*
X198720D03*
X216437Y-59252D03*
X221949D03*
X210728Y-14764D03*
X216240D03*
X205315Y-16043D03*
X199803D03*
X335334Y-63681D03*
X340846D03*
X373425Y-70472D03*
X367913D03*
X306004Y-9941D03*
X311515D03*
X299508Y-47047D03*
X305019D03*
X541043Y-69488D03*
X546555D03*
G54D153*
X395866Y-46457D03*
X401378D03*
X377559Y-49016D03*
X383071D03*
Y-65354D03*
X377559D03*
X405118Y-16437D03*
X399606D03*
X201771Y-32610D03*
X196260D03*
X201771Y-27134D03*
X196260D03*
X201771Y-21654D03*
X196260D03*
X204035Y-65059D03*
X198523D03*
X233563Y-65748D03*
X239075D03*
X196260Y-38091D03*
X201771D03*
X247736Y-65453D03*
X253248D03*
X306004Y-15551D03*
X311515D03*
X294882Y-10039D03*
X300393D03*
X540945Y-75000D03*
X546456D03*
X529921D03*
X535433D03*
G54D154*
X377657Y-43996D03*
Y-38484D03*
X201378Y-46850D03*
Y-52362D03*
X228445Y-29232D03*
Y-23721D03*
X203673Y-71358D03*
Y-76870D03*
X209941Y-64862D03*
Y-59350D03*
X268504Y-22539D03*
Y-28051D03*
X401378Y-57677D03*
Y-52165D03*
X377657Y-60335D03*
Y-54823D03*
X546850Y-37843D03*
Y-32331D03*
X552460Y-48768D03*
Y-43256D03*
X390748Y-57677D03*
Y-52165D03*
Y-46555D03*
Y-41043D03*
X396063Y-52165D03*
Y-57677D03*
G54D155*
X302952Y-30217D03*
X538878Y-89862D03*
G54D156*
X312106Y-25098D03*
Y-27658D03*
Y-30217D03*
Y-32776D03*
Y-35335D03*
X293799D03*
Y-32776D03*
Y-30217D03*
Y-27658D03*
Y-25098D03*
X576279Y-35878D03*
Y-38433D03*
Y-40992D03*
Y-43555D03*
Y-46110D03*
X557972D03*
Y-43555D03*
Y-40992D03*
Y-38433D03*
Y-35878D03*
X529724Y-84744D03*
Y-87303D03*
Y-89862D03*
Y-92421D03*
Y-94980D03*
X548031D03*
Y-92421D03*
Y-89862D03*
Y-87303D03*
Y-84744D03*
G54D157*
X308071Y-39370D03*
X305512D03*
X302952D03*
X300393D03*
X297834D03*
Y-21063D03*
X300393D03*
X302952D03*
X305512D03*
X308071D03*
X562008Y-31843D03*
X564567D03*
X567126D03*
X569685D03*
X572244D03*
Y-50146D03*
X569685D03*
X567126D03*
X564567D03*
X562008D03*
X543996Y-80709D03*
X541437D03*
X538878D03*
X536319D03*
X533760D03*
Y-99016D03*
X536319D03*
X538878D03*
X541437D03*
X543996D03*
G54D158*
X277952Y-31839D03*
X285433D03*
X281693Y-24949D03*
X277952Y-45177D03*
X285433D03*
X281693Y-38287D03*
X277952Y-18504D03*
X285433D03*
X281693Y-11614D03*
X401673Y-33366D03*
X405413Y-40256D03*
X397933D03*
G54D159*
X486023Y-82776D03*
Y-87894D03*
X427559Y-50984D03*
Y-45866D03*
X397342Y-25787D03*
Y-30906D03*
G54D161*
X475590Y-25098D03*
X470472D03*
X340649Y-68504D03*
X335531D03*
X362500Y-70472D03*
X357382D03*
X512992Y-97146D03*
X507874D03*
G54D162*
X238878Y-29528D03*
X258169D03*
Y-22441D03*
G54D163*
X238878D03*
G54D164*
X600787Y-15158D03*
Y-23032D03*
X281890Y-53839D03*
Y-61713D03*
X533563Y-121752D03*
Y-113878D03*
G54D165*
X257972Y-74016D03*
X243208D03*
G54D166*
X268405Y-65650D03*
Y-47933D03*
G54D167*
X214665Y-40945D03*
G54D168*
X353937Y-48721D03*
X347047Y-52461D03*
Y-44980D03*
X366634Y-48721D03*
X359744Y-52461D03*
Y-44980D03*
X359350Y-30807D03*
Y-38287D03*
X366240Y-34547D03*
X346653Y-30807D03*
Y-38287D03*
X353543Y-34547D03*
G54D155*
X567126Y-40992D03*
G54D169*
X347244Y-69587D03*
G54D170*
X349803D03*
X352362D03*
Y-62106D03*
X347244D03*
X349803D03*
G54D171*
X340354Y-38650D03*
X333267D03*
X340354Y-31890D03*
X333267D03*
X340354Y-52165D03*
X333267D03*
X340354Y-45406D03*
X333267D03*
G54D172*
X371358Y-63484D03*
Y-60925D03*
Y-66043D03*
X363878D03*
Y-63484D03*
G54D173*
Y-60925D03*
G54D174*
X543012Y-111417D03*
Y-120669D03*
G54D175*
X223622Y-29921D03*
G54D176*
X221063D03*
X218504D03*
X215945D03*
X213386D03*
X210827D03*
X208267D03*
X205708D03*
X223622Y-51969D03*
X221063D03*
X218504D03*
X215945D03*
X213386D03*
X210827D03*
X208267D03*
X205708D03*
G54D18*
X592618Y111319D03*
X582185D03*
X564567Y60827D03*
X554134D03*
X509547Y11122D03*
X519980D03*
X216141Y55315D03*
X226575D03*
X257874Y94291D03*
X247441D03*
X257480Y84252D03*
X247047D03*
X239665Y94685D03*
X229232D03*
X239665Y84252D03*
X229232D03*
X216240Y74705D03*
X226673D03*
X216141Y65157D03*
X226575D03*
X323228Y85531D03*
X312795D03*
X323228Y94882D03*
X312795D03*
X564567Y42126D03*
X554134D03*
X564567Y32579D03*
X554134D03*
G54D21*
X581496Y97980D03*
Y103492D03*
X492366Y56890D03*
Y51378D03*
X445472Y109154D03*
Y103642D03*
X436515Y114764D03*
Y120276D03*
X365846Y120669D03*
Y115157D03*
X502657Y46161D03*
Y51673D03*
X365846Y130807D03*
Y125295D03*
X370571Y115157D03*
Y120669D03*
X382972Y97736D03*
Y103248D03*
X497441Y49311D03*
Y54823D03*
X500886Y118799D03*
Y124311D03*
X209842Y70472D03*
Y64961D03*
X594390Y121358D03*
Y126870D03*
X228445Y101772D03*
Y107283D03*
X222539Y125098D03*
Y119587D03*
X268405Y102854D03*
Y108366D03*
X289271Y81398D03*
Y86909D03*
X382972Y81496D03*
Y87008D03*
X552559Y103988D03*
Y109500D03*
X370571Y130807D03*
Y125295D03*
X516830Y54429D03*
Y59941D03*
G54D23*
X576575Y123228D03*
X585827D03*
X428937Y105709D03*
X438189D03*
X305708Y84154D03*
X296456D03*
G54D24*
X558169Y126575D03*
Y116142D03*
X548575Y126575D03*
Y116142D03*
X540748Y88386D03*
Y77953D03*
X538976Y126575D03*
Y116142D03*
X493307Y127461D03*
Y117028D03*
X251378Y40354D03*
Y50787D03*
X485433Y25000D03*
Y35433D03*
X260728Y40256D03*
Y50689D03*
X322145Y120177D03*
Y130610D03*
X330905Y120177D03*
Y130610D03*
X339862Y120177D03*
Y130610D03*
X348622Y120177D03*
Y130610D03*
X357086Y120177D03*
Y130610D03*
X589960Y92173D03*
Y102606D03*
X483858Y127461D03*
Y117028D03*
X554429Y79331D03*
Y68898D03*
X429035Y125886D03*
Y115453D03*
G54D25*
X536122Y37697D03*
X541634D03*
X559055Y24606D03*
X553543D03*
X442815Y96752D03*
X437303D03*
X204232Y82382D03*
X198720D03*
X216437Y82480D03*
X221949D03*
X210728Y126968D03*
X216240D03*
X205315Y125689D03*
X199803D03*
X335334Y78051D03*
X340846D03*
X373425Y71260D03*
X367913D03*
X306004Y131791D03*
X311515D03*
X299508Y94685D03*
X305019D03*
X541043Y72244D03*
X546555D03*
G54D153*
X395866Y95276D03*
X401378D03*
X377559Y92717D03*
X383071D03*
Y76378D03*
X377559D03*
X405118Y125295D03*
X399606D03*
X201771Y109122D03*
X196260D03*
X201771Y114598D03*
X196260D03*
X201771Y120079D03*
X196260D03*
X204035Y76673D03*
X198523D03*
X233563Y75984D03*
X239075D03*
X196260Y103642D03*
X201771D03*
X247736Y76279D03*
X253248D03*
X306004Y126181D03*
X311515D03*
X294882Y131693D03*
X300393D03*
X540945Y66732D03*
X546456D03*
X529921D03*
X535433D03*
G54D154*
X377657Y97736D03*
Y103248D03*
X201378Y94882D03*
Y89370D03*
X228445Y112500D03*
Y118012D03*
X203673Y70374D03*
Y64862D03*
X209941Y76870D03*
Y82382D03*
X268504Y119193D03*
Y113681D03*
X401378Y84055D03*
Y89567D03*
X377657Y81398D03*
Y86909D03*
X546850Y103890D03*
Y109402D03*
X552460Y92965D03*
Y98476D03*
X390748Y84055D03*
Y89567D03*
Y95177D03*
Y100689D03*
X396063Y89567D03*
Y84055D03*
G54D155*
X302952Y111516D03*
X538878Y51870D03*
G54D156*
X312106Y116634D03*
Y114075D03*
Y111516D03*
Y108957D03*
Y106398D03*
X293799D03*
Y108957D03*
Y111516D03*
Y114075D03*
Y116634D03*
X576279Y105854D03*
Y103299D03*
Y100740D03*
Y98177D03*
Y95622D03*
X557972D03*
Y98177D03*
Y100740D03*
Y103299D03*
Y105854D03*
X529724Y56988D03*
Y54429D03*
Y51870D03*
Y49311D03*
Y46752D03*
X548031D03*
Y49311D03*
Y51870D03*
Y54429D03*
Y56988D03*
G54D157*
X308071Y102362D03*
X305512D03*
X302952D03*
X300393D03*
X297834D03*
Y120669D03*
X300393D03*
X302952D03*
X305512D03*
X308071D03*
X562008Y109890D03*
X564567D03*
X567126D03*
X569685D03*
X572244D03*
Y91587D03*
X569685D03*
X567126D03*
X564567D03*
X562008D03*
X543996Y61024D03*
X541437D03*
X538878D03*
X536319D03*
X533760D03*
Y42717D03*
X536319D03*
X538878D03*
X541437D03*
X543996D03*
G54D158*
X277952Y109894D03*
X285433D03*
X281693Y116783D03*
X277952Y96555D03*
X285433D03*
X281693Y103445D03*
X277952Y123228D03*
X285433D03*
X281693Y130118D03*
X401673Y108366D03*
X405413Y101476D03*
X397933D03*
G54D159*
X486023Y58957D03*
Y53839D03*
X427559Y90748D03*
Y95866D03*
X397342Y115945D03*
Y110827D03*
G54D161*
X475590Y116634D03*
X470472D03*
X340649Y73228D03*
X335531D03*
X362500Y71260D03*
X357382D03*
X512992Y44587D03*
X507874D03*
G54D162*
X238878Y112205D03*
X258169D03*
Y119291D03*
G54D163*
X238878D03*
G54D164*
X600787Y126575D03*
Y118701D03*
X281890Y87894D03*
Y80020D03*
X533563Y19980D03*
Y27854D03*
G54D165*
X257972Y67717D03*
X243208D03*
G54D166*
X268405Y76083D03*
Y93799D03*
G54D167*
X214665Y100787D03*
G54D168*
X353937Y93012D03*
X347047Y89272D03*
Y96752D03*
X366634Y93012D03*
X359744Y89272D03*
Y96752D03*
X359350Y110925D03*
Y103445D03*
X366240Y107185D03*
X346653Y110925D03*
Y103445D03*
X353543Y107185D03*
G54D155*
X567126Y100740D03*
G54D169*
X347244Y72146D03*
G54D170*
X349803D03*
X352362D03*
Y79626D03*
X347244D03*
X349803D03*
G54D171*
X340354Y103083D03*
X333267D03*
X340354Y109842D03*
X333267D03*
X340354Y89567D03*
X333267D03*
X340354Y96327D03*
X333267D03*
G54D172*
X371358Y78248D03*
Y80807D03*
Y75689D03*
X363878D03*
Y78248D03*
G54D173*
Y80807D03*
G54D174*
X543012Y30315D03*
Y21063D03*
G54D175*
X223622Y111811D03*
G54D176*
X221063D03*
X218504D03*
X215945D03*
X213386D03*
X210827D03*
X208267D03*
X205708D03*
X223622Y89764D03*
X221063D03*
X218504D03*
X215945D03*
X213386D03*
X210827D03*
X208267D03*
X205708D03*
G54D18*
X592618Y253051D03*
X582185D03*
X564567Y202559D03*
X554134D03*
X509547Y152854D03*
X519980D03*
X216141Y197047D03*
X226575D03*
X257874Y236024D03*
X247441D03*
X257480Y225984D03*
X247047D03*
X239665Y236417D03*
X229232D03*
X239665Y225984D03*
X229232D03*
X216240Y216437D03*
X226673D03*
X216141Y206890D03*
X226575D03*
X323228Y227264D03*
X312795D03*
X323228Y236614D03*
X312795D03*
X564567Y183858D03*
X554134D03*
X564567Y174311D03*
X554134D03*
G54D21*
X581496Y239713D03*
Y245224D03*
X492366Y198622D03*
Y193110D03*
X445472Y250886D03*
Y245374D03*
X436515Y256496D03*
Y262008D03*
X365846Y262402D03*
Y256890D03*
X502657Y187894D03*
Y193405D03*
X365846Y272539D03*
Y267028D03*
X370571Y256890D03*
Y262402D03*
X382972Y239468D03*
Y244980D03*
X497441Y191043D03*
Y196555D03*
X500886Y260531D03*
Y266043D03*
X209842Y212205D03*
Y206693D03*
X594390Y263091D03*
Y268602D03*
X228445Y243504D03*
Y249016D03*
X222539Y266831D03*
Y261319D03*
X268405Y244587D03*
Y250098D03*
X289271Y223130D03*
Y228642D03*
X382972Y223228D03*
Y228740D03*
X552559Y245720D03*
Y251232D03*
X370571Y272539D03*
Y267028D03*
X516830Y196161D03*
Y201673D03*
G54D23*
X576575Y264961D03*
X585827D03*
X428937Y247441D03*
X438189D03*
X305708Y225886D03*
X296456D03*
G54D24*
X558169Y268307D03*
Y257874D03*
X548575Y268307D03*
Y257874D03*
X540748Y230118D03*
Y219685D03*
X538976Y268307D03*
Y257874D03*
X493307Y269193D03*
Y258760D03*
X251378Y182087D03*
Y192520D03*
X485433Y166732D03*
Y177165D03*
X260728Y181988D03*
Y192421D03*
X322145Y261909D03*
Y272342D03*
X330905Y261909D03*
Y272342D03*
X339862Y261909D03*
Y272342D03*
X348622Y261909D03*
Y272342D03*
X357086Y261909D03*
Y272342D03*
X589960Y233905D03*
Y244339D03*
X483858Y269193D03*
Y258760D03*
X554429Y221063D03*
Y210630D03*
X429035Y267618D03*
Y257185D03*
G54D25*
X536122Y179429D03*
X541634D03*
X559055Y166339D03*
X553543D03*
X442815Y238484D03*
X437303D03*
X204232Y224114D03*
X198720D03*
X216437Y224213D03*
X221949D03*
X210728Y268701D03*
X216240D03*
X205315Y267421D03*
X199803D03*
X335334Y219783D03*
X340846D03*
X373425Y212992D03*
X367913D03*
X306004Y273524D03*
X311515D03*
X299508Y236417D03*
X305019D03*
X541043Y213976D03*
X546555D03*
G54D153*
X395866Y237008D03*
X401378D03*
X377559Y234449D03*
X383071D03*
Y218110D03*
X377559D03*
X405118Y267028D03*
X399606D03*
X201771Y250854D03*
X196260D03*
X201771Y256331D03*
X196260D03*
X201771Y261811D03*
X196260D03*
X204035Y218405D03*
X198523D03*
X233563Y217717D03*
X239075D03*
X196260Y245374D03*
X201771D03*
X247736Y218012D03*
X253248D03*
X306004Y267913D03*
X311515D03*
X294882Y273425D03*
X300393D03*
X540945Y208465D03*
X546456D03*
X529921D03*
X535433D03*
G54D154*
X377657Y239468D03*
Y244980D03*
X201378Y236614D03*
Y231102D03*
X228445Y254232D03*
Y259744D03*
X203673Y212106D03*
Y206594D03*
X209941Y218602D03*
Y224114D03*
X268504Y260925D03*
Y255413D03*
X401378Y225787D03*
Y231299D03*
X377657Y223130D03*
Y228642D03*
X546850Y245622D03*
Y251134D03*
X552460Y234697D03*
Y240209D03*
X390748Y225787D03*
Y231299D03*
Y236909D03*
Y242421D03*
X396063Y231299D03*
Y225787D03*
G54D155*
X302952Y253248D03*
X538878Y193602D03*
G54D156*
X312106Y258366D03*
Y255807D03*
Y253248D03*
Y250689D03*
Y248130D03*
X293799D03*
Y250689D03*
Y253248D03*
Y255807D03*
Y258366D03*
X576279Y247587D03*
Y245031D03*
Y242472D03*
Y239909D03*
Y237354D03*
X557972D03*
Y239909D03*
Y242472D03*
Y245031D03*
Y247587D03*
X529724Y198720D03*
Y196161D03*
Y193602D03*
Y191043D03*
Y188484D03*
X548031D03*
Y191043D03*
Y193602D03*
Y196161D03*
Y198720D03*
G54D157*
X308071Y244094D03*
X305512D03*
X302952D03*
X300393D03*
X297834D03*
Y262402D03*
X300393D03*
X302952D03*
X305512D03*
X308071D03*
X562008Y251622D03*
X564567D03*
X567126D03*
X569685D03*
X572244D03*
Y233319D03*
X569685D03*
X567126D03*
X564567D03*
X562008D03*
X543996Y202756D03*
X541437D03*
X538878D03*
X536319D03*
X533760D03*
Y184449D03*
X536319D03*
X538878D03*
X541437D03*
X543996D03*
G54D158*
X277952Y251626D03*
X285433D03*
X281693Y258516D03*
X277952Y238287D03*
X285433D03*
X281693Y245177D03*
X277952Y264961D03*
X285433D03*
X281693Y271850D03*
X401673Y250098D03*
X405413Y243209D03*
X397933D03*
G54D159*
X486023Y200689D03*
Y195571D03*
X427559Y232480D03*
Y237598D03*
X397342Y257677D03*
Y252559D03*
G54D161*
X475590Y258366D03*
X470472D03*
X340649Y214961D03*
X335531D03*
X362500Y212992D03*
X357382D03*
X512992Y186319D03*
X507874D03*
G54D162*
X238878Y253937D03*
X258169D03*
Y261024D03*
G54D163*
X238878D03*
G54D164*
X600787Y268307D03*
Y260433D03*
X281890Y229626D03*
Y221752D03*
X533563Y161713D03*
Y169587D03*
G54D165*
X257972Y209449D03*
X243208D03*
G54D166*
X268405Y217815D03*
Y235531D03*
G54D167*
X214665Y242520D03*
G54D168*
X353937Y234744D03*
X347047Y231004D03*
Y238484D03*
X366634Y234744D03*
X359744Y231004D03*
Y238484D03*
X359350Y252657D03*
Y245177D03*
X366240Y248917D03*
X346653Y252657D03*
Y245177D03*
X353543Y248917D03*
G54D155*
X567126Y242472D03*
G54D169*
X347244Y213878D03*
G54D170*
X349803D03*
X352362D03*
Y221358D03*
X347244D03*
X349803D03*
G54D171*
X340354Y244815D03*
X333267D03*
X340354Y251575D03*
X333267D03*
X340354Y231299D03*
X333267D03*
X340354Y238059D03*
X333267D03*
G54D172*
X371358Y219980D03*
Y222539D03*
Y217421D03*
X363878D03*
Y219980D03*
G54D173*
Y222539D03*
G54D174*
X543012Y172047D03*
Y162795D03*
G54D175*
X223622Y253543D03*
G54D176*
X221063D03*
X218504D03*
X215945D03*
X213386D03*
X210827D03*
X208267D03*
X205708D03*
X223622Y231496D03*
X221063D03*
X218504D03*
X215945D03*
X213386D03*
X210827D03*
X208267D03*
X205708D03*
G54D18*
X592618Y394783D03*
X582185D03*
X564567Y344291D03*
X554134D03*
X509547Y294587D03*
X519980D03*
X216141Y338779D03*
X226575D03*
X257874Y377756D03*
X247441D03*
X257480Y367717D03*
X247047D03*
X239665Y378150D03*
X229232D03*
X239665Y367717D03*
X229232D03*
X216240Y358169D03*
X226673D03*
X216141Y348622D03*
X226575D03*
X323228Y368996D03*
X312795D03*
X323228Y378346D03*
X312795D03*
X564567Y325591D03*
X554134D03*
X564567Y316043D03*
X554134D03*
G54D21*
X581496Y381445D03*
Y386957D03*
X492366Y340354D03*
Y334842D03*
X445472Y392618D03*
Y387106D03*
X436515Y398228D03*
Y403740D03*
X365846Y404134D03*
Y398622D03*
X502657Y329626D03*
Y335138D03*
X365846Y414272D03*
Y408760D03*
X370571Y398622D03*
Y404134D03*
X382972Y381201D03*
Y386713D03*
X497441Y332776D03*
Y338287D03*
X500886Y402264D03*
Y407776D03*
X209842Y353937D03*
Y348425D03*
X594390Y404823D03*
Y410335D03*
X228445Y385236D03*
Y390748D03*
X222539Y408563D03*
Y403051D03*
X268405Y386319D03*
Y391831D03*
X289271Y364862D03*
Y370374D03*
X382972Y364961D03*
Y370472D03*
X552559Y387453D03*
Y392965D03*
X370571Y414272D03*
Y408760D03*
X516830Y337894D03*
Y343405D03*
G54D23*
X576575Y406693D03*
X585827D03*
X428937Y389173D03*
X438189D03*
X305708Y367618D03*
X296456D03*
G54D24*
X558169Y410039D03*
Y399606D03*
X548575Y410039D03*
Y399606D03*
X540748Y371850D03*
Y361417D03*
X538976Y410039D03*
Y399606D03*
X493307Y410925D03*
Y400492D03*
X251378Y323819D03*
Y334252D03*
X485433Y308465D03*
Y318898D03*
X260728Y323720D03*
Y334154D03*
X322145Y403642D03*
Y414075D03*
X330905Y403642D03*
Y414075D03*
X339862Y403642D03*
Y414075D03*
X348622Y403642D03*
Y414075D03*
X357086Y403642D03*
Y414075D03*
X589960Y375638D03*
Y386071D03*
X483858Y410925D03*
Y400492D03*
X554429Y362795D03*
Y352362D03*
X429035Y409350D03*
Y398917D03*
G54D25*
X536122Y321161D03*
X541634D03*
X559055Y308071D03*
X553543D03*
X442815Y380217D03*
X437303D03*
X204232Y365846D03*
X198720D03*
X216437Y365945D03*
X221949D03*
X210728Y410433D03*
X216240D03*
X205315Y409154D03*
X199803D03*
X335334Y361516D03*
X340846D03*
X373425Y354724D03*
X367913D03*
X306004Y415256D03*
X311515D03*
X299508Y378150D03*
X305019D03*
X541043Y355709D03*
X546555D03*
G54D153*
X395866Y378740D03*
X401378D03*
X377559Y376181D03*
X383071D03*
Y359842D03*
X377559D03*
X405118Y408760D03*
X399606D03*
X201771Y392587D03*
X196260D03*
X201771Y398063D03*
X196260D03*
X201771Y403543D03*
X196260D03*
X204035Y360138D03*
X198523D03*
X233563Y359449D03*
X239075D03*
X196260Y387106D03*
X201771D03*
X247736Y359744D03*
X253248D03*
X306004Y409646D03*
X311515D03*
X294882Y415157D03*
X300393D03*
X540945Y350197D03*
X546456D03*
X529921D03*
X535433D03*
G54D154*
X377657Y381201D03*
Y386713D03*
X201378Y378346D03*
Y372835D03*
X228445Y395965D03*
Y401476D03*
X203673Y353839D03*
Y348327D03*
X209941Y360335D03*
Y365846D03*
X268504Y402657D03*
Y397146D03*
X401378Y367520D03*
Y373031D03*
X377657Y364862D03*
Y370374D03*
X546850Y387354D03*
Y392866D03*
X552460Y376429D03*
Y381941D03*
X390748Y367520D03*
Y373031D03*
Y378642D03*
Y384154D03*
X396063Y373031D03*
Y367520D03*
G54D155*
X302952Y394980D03*
X538878Y335335D03*
G54D156*
X312106Y400098D03*
Y397539D03*
Y394980D03*
Y392421D03*
Y389862D03*
X293799D03*
Y392421D03*
Y394980D03*
Y397539D03*
Y400098D03*
X576279Y389319D03*
Y386764D03*
Y384205D03*
Y381642D03*
Y379087D03*
X557972D03*
Y381642D03*
Y384205D03*
Y386764D03*
Y389319D03*
X529724Y340453D03*
Y337894D03*
Y335335D03*
Y332776D03*
Y330217D03*
X548031D03*
Y332776D03*
Y335335D03*
Y337894D03*
Y340453D03*
G54D157*
X308071Y385827D03*
X305512D03*
X302952D03*
X300393D03*
X297834D03*
Y404134D03*
X300393D03*
X302952D03*
X305512D03*
X308071D03*
X562008Y393354D03*
X564567D03*
X567126D03*
X569685D03*
X572244D03*
Y375051D03*
X569685D03*
X567126D03*
X564567D03*
X562008D03*
X543996Y344488D03*
X541437D03*
X538878D03*
X536319D03*
X533760D03*
Y326181D03*
X536319D03*
X538878D03*
X541437D03*
X543996D03*
G54D158*
X277952Y393358D03*
X285433D03*
X281693Y400248D03*
X277952Y380020D03*
X285433D03*
X281693Y386909D03*
X277952Y406693D03*
X285433D03*
X281693Y413583D03*
X401673Y391831D03*
X405413Y384941D03*
X397933D03*
G54D159*
X486023Y342421D03*
Y337303D03*
X427559Y374213D03*
Y379331D03*
X397342Y399409D03*
Y394291D03*
G54D161*
X475590Y400098D03*
X470472D03*
X340649Y356693D03*
X335531D03*
X362500Y354724D03*
X357382D03*
X512992Y328051D03*
X507874D03*
G54D162*
X238878Y395669D03*
X258169D03*
Y402756D03*
G54D163*
X238878D03*
G54D164*
X600787Y410039D03*
Y402165D03*
X281890Y371358D03*
Y363484D03*
X533563Y303445D03*
Y311319D03*
G54D165*
X257972Y351181D03*
X243208D03*
G54D166*
X268405Y359547D03*
Y377264D03*
G54D167*
X214665Y384252D03*
G54D168*
X353937Y376476D03*
X347047Y372736D03*
Y380217D03*
X366634Y376476D03*
X359744Y372736D03*
Y380217D03*
X359350Y394390D03*
Y386909D03*
X366240Y390650D03*
X346653Y394390D03*
Y386909D03*
X353543Y390650D03*
G54D155*
X567126Y384205D03*
G54D169*
X347244Y355610D03*
G54D170*
X349803D03*
X352362D03*
Y363091D03*
X347244D03*
X349803D03*
G54D171*
X340354Y386547D03*
X333267D03*
X340354Y393307D03*
X333267D03*
X340354Y373031D03*
X333267D03*
X340354Y379791D03*
X333267D03*
G54D172*
X371358Y361713D03*
Y364272D03*
Y359154D03*
X363878D03*
Y361713D03*
G54D173*
Y364272D03*
G54D174*
X543012Y313779D03*
Y304528D03*
G54D175*
X223622Y395276D03*
G54D176*
X221063D03*
X218504D03*
X215945D03*
X213386D03*
X210827D03*
X208267D03*
X205708D03*
X223622Y373228D03*
X221063D03*
X218504D03*
X215945D03*
X213386D03*
X210827D03*
X208267D03*
X205708D03*
G54D18*
X-214271Y-362992D03*
X-224704D03*
G54D21*
X-476476Y-337992D03*
Y-343504D03*
X-507578Y-357972D03*
Y-363484D03*
X-506594Y-323721D03*
Y-318209D03*
X-343208Y-385039D03*
Y-390551D03*
X-359449Y-380020D03*
Y-385532D03*
X-461023Y-343406D03*
Y-337894D03*
G54D23*
X-208956Y-382776D03*
X-218208D03*
G54D24*
X-233464Y-364173D03*
Y-374606D03*
G54D25*
X-471063Y-343406D03*
X-465551D03*
X-402559Y-387500D03*
X-408071D03*
X-411122Y-405315D03*
X-416634D03*
X-523622Y-318012D03*
X-518110D03*
X-471063Y-337894D03*
X-465551D03*
G54D153*
X-287893Y-340453D03*
X-293405D03*
X-287893Y-334496D03*
X-293405D03*
X-287893Y-328642D03*
X-293405D03*
X-326870Y-344980D03*
X-321358D03*
X-354035Y-351673D03*
X-348523D03*
X-354842Y-356595D03*
X-360354D03*
X-473031Y-332579D03*
X-478543D03*
Y-348819D03*
X-473031D03*
X-523425Y-323721D03*
X-517913D03*
X-567519Y-406004D03*
X-573031D03*
X-529626Y-334449D03*
X-524114D03*
X-501673Y-369685D03*
X-507185D03*
X-411220Y-381496D03*
X-405708D03*
X-397244Y-406004D03*
X-391732D03*
X-391571Y-379626D03*
X-397082D03*
X-513090Y-357972D03*
X-518602D03*
X-489370Y-358071D03*
X-494882D03*
G54D154*
X-417126Y-385925D03*
Y-380413D03*
X-483661Y-327658D03*
Y-333169D03*
X-482086Y-343406D03*
Y-337894D03*
X-483661Y-352658D03*
Y-358169D03*
X-488484Y-323819D03*
Y-318307D03*
X-494618D03*
Y-323819D03*
X-512204D03*
Y-318307D03*
X-471752Y-398425D03*
Y-403937D03*
X-465748Y-398425D03*
Y-403937D03*
X-482972Y-393701D03*
Y-388189D03*
X-524212Y-339567D03*
Y-345079D03*
X-483858Y-376870D03*
Y-371358D03*
X-455413Y-343406D03*
Y-337894D03*
G54D159*
X-354429Y-381595D03*
Y-386713D03*
X-349015Y-390354D03*
Y-385236D03*
X-501181Y-363287D03*
Y-358169D03*
X-500752Y-323622D03*
Y-318504D03*
G54D161*
X-416338Y-399902D03*
X-411220D03*
G54D165*
X-398622Y-398032D03*
X-383858D03*
X-383464Y-386221D03*
X-398228D03*
G54D172*
X-364862Y-386516D03*
Y-383957D03*
Y-389075D03*
X-372342D03*
Y-386516D03*
G54D173*
Y-383957D03*
G54D177*
X-488838Y-332185D03*
X-493838D03*
X-498838D03*
X-503838D03*
X-508838D03*
X-513838D03*
X-518838D03*
X-488838Y-350689D03*
X-493838D03*
X-498838D03*
X-503838D03*
X-508838D03*
X-513838D03*
X-332578Y-405709D03*
X-327578D03*
X-322578D03*
X-317578D03*
X-312578D03*
X-307578D03*
X-302578D03*
X-337578Y-387205D03*
X-332578D03*
X-327578D03*
X-322578D03*
X-317578D03*
X-312578D03*
X-307578D03*
X-302578D03*
G54D178*
X-518838Y-350689D03*
X-337578Y-405709D03*
G54D179*
X-230216Y-387598D03*
X-247145D03*
G54D180*
X-604921Y-333268D03*
G54D181*
X-607086Y-339665D03*
G54D182*
Y-326870D03*
G54D183*
X-243405Y-371752D03*
X-259941D03*
G54D184*
X-395078Y-324606D03*
Y-317520D03*
G54D186*
X-456870Y-403543D03*
X-451870D03*
X-446870D03*
X-441870D03*
X-436870D03*
X-431870D03*
X-426870D03*
X-421870D03*
X-456870Y-384646D03*
X-451870D03*
X-446870D03*
X-441870D03*
X-436870D03*
X-431870D03*
X-426870D03*
G54D187*
X-421870D03*
G54D18*
X-214271Y-221260D03*
X-224704D03*
G54D21*
X-476476Y-196260D03*
Y-201772D03*
X-507578Y-216240D03*
Y-221752D03*
X-506594Y-181988D03*
Y-176476D03*
X-343208Y-243307D03*
Y-248819D03*
X-359449Y-238287D03*
Y-243799D03*
X-461023Y-201673D03*
Y-196161D03*
G54D23*
X-208956Y-241043D03*
X-218208D03*
G54D24*
X-233464Y-222441D03*
Y-232874D03*
G54D25*
X-471063Y-201673D03*
X-465551D03*
X-402559Y-245768D03*
X-408071D03*
X-411122Y-263583D03*
X-416634D03*
X-523622Y-176280D03*
X-518110D03*
X-471063Y-196161D03*
X-465551D03*
G54D153*
X-287893Y-198721D03*
X-293405D03*
X-287893Y-192764D03*
X-293405D03*
X-287893Y-186909D03*
X-293405D03*
X-326870Y-203248D03*
X-321358D03*
X-354035Y-209941D03*
X-348523D03*
X-354842Y-214862D03*
X-360354D03*
X-473031Y-190846D03*
X-478543D03*
Y-207087D03*
X-473031D03*
X-523425Y-181988D03*
X-517913D03*
X-567519Y-264272D03*
X-573031D03*
X-529626Y-192717D03*
X-524114D03*
X-501673Y-227953D03*
X-507185D03*
X-411220Y-239764D03*
X-405708D03*
X-397244Y-264272D03*
X-391732D03*
X-391571Y-237894D03*
X-397082D03*
X-513090Y-216240D03*
X-518602D03*
X-489370Y-216339D03*
X-494882D03*
G54D154*
X-417126Y-244193D03*
Y-238681D03*
X-483661Y-185925D03*
Y-191437D03*
X-482086Y-201673D03*
Y-196161D03*
X-483661Y-210925D03*
Y-216437D03*
X-488484Y-182087D03*
Y-176575D03*
X-494618D03*
Y-182087D03*
X-512204D03*
Y-176575D03*
X-471752Y-256693D03*
Y-262205D03*
X-465748Y-256693D03*
Y-262205D03*
X-482972Y-251969D03*
Y-246457D03*
X-524212Y-197835D03*
Y-203346D03*
X-483858Y-235138D03*
Y-229626D03*
X-455413Y-201673D03*
Y-196161D03*
G54D159*
X-354429Y-239862D03*
Y-244980D03*
X-349015Y-248622D03*
Y-243504D03*
X-501181Y-221555D03*
Y-216437D03*
X-500752Y-181890D03*
Y-176772D03*
G54D161*
X-416338Y-258169D03*
X-411220D03*
G54D165*
X-398622Y-256299D03*
X-383858D03*
X-383464Y-244488D03*
X-398228D03*
G54D172*
X-364862Y-244783D03*
Y-242224D03*
Y-247343D03*
X-372342D03*
Y-244783D03*
G54D173*
Y-242224D03*
G54D177*
X-488838Y-190453D03*
X-493838D03*
X-498838D03*
X-503838D03*
X-508838D03*
X-513838D03*
X-518838D03*
X-488838Y-208957D03*
X-493838D03*
X-498838D03*
X-503838D03*
X-508838D03*
X-513838D03*
X-332578Y-263976D03*
X-327578D03*
X-322578D03*
X-317578D03*
X-312578D03*
X-307578D03*
X-302578D03*
X-337578Y-245472D03*
X-332578D03*
X-327578D03*
X-322578D03*
X-317578D03*
X-312578D03*
X-307578D03*
X-302578D03*
G54D178*
X-518838Y-208957D03*
X-337578Y-263976D03*
G54D179*
X-230216Y-245866D03*
X-247145D03*
G54D180*
X-604921Y-191535D03*
G54D181*
X-607086Y-197933D03*
G54D182*
Y-185138D03*
G54D183*
X-243405Y-230020D03*
X-259941D03*
G54D184*
X-395078Y-182874D03*
Y-175787D03*
G54D186*
X-456870Y-261811D03*
X-451870D03*
X-446870D03*
X-441870D03*
X-436870D03*
X-431870D03*
X-426870D03*
X-421870D03*
X-456870Y-242913D03*
X-451870D03*
X-446870D03*
X-441870D03*
X-436870D03*
X-431870D03*
X-426870D03*
G54D187*
X-421870D03*
G54D18*
X-214271Y-79528D03*
X-224704D03*
G54D21*
X-476476Y-54528D03*
Y-60039D03*
X-507578Y-74508D03*
Y-80020D03*
X-506594Y-40256D03*
Y-34744D03*
X-343208Y-101575D03*
Y-107087D03*
X-359449Y-96555D03*
Y-102067D03*
X-461023Y-59941D03*
Y-54429D03*
G54D23*
X-208956Y-99311D03*
X-218208D03*
G54D24*
X-233464Y-80709D03*
Y-91142D03*
G54D25*
X-471063Y-59941D03*
X-465551D03*
X-402559Y-104035D03*
X-408071D03*
X-411122Y-121850D03*
X-416634D03*
X-523622Y-34547D03*
X-518110D03*
X-471063Y-54429D03*
X-465551D03*
G54D153*
X-287893Y-56988D03*
X-293405D03*
X-287893Y-51032D03*
X-293405D03*
X-287893Y-45177D03*
X-293405D03*
X-326870Y-61516D03*
X-321358D03*
X-354035Y-68209D03*
X-348523D03*
X-354842Y-73130D03*
X-360354D03*
X-473031Y-49114D03*
X-478543D03*
Y-65354D03*
X-473031D03*
X-523425Y-40256D03*
X-517913D03*
X-567519Y-122539D03*
X-573031D03*
X-529626Y-50984D03*
X-524114D03*
X-501673Y-86221D03*
X-507185D03*
X-411220Y-98032D03*
X-405708D03*
X-397244Y-122539D03*
X-391732D03*
X-391571Y-96161D03*
X-397082D03*
X-513090Y-74508D03*
X-518602D03*
X-489370Y-74606D03*
X-494882D03*
G54D154*
X-417126Y-102461D03*
Y-96949D03*
X-483661Y-44193D03*
Y-49705D03*
X-482086Y-59941D03*
Y-54429D03*
X-483661Y-69193D03*
Y-74705D03*
X-488484Y-40354D03*
Y-34843D03*
X-494618D03*
Y-40354D03*
X-512204D03*
Y-34843D03*
X-471752Y-114961D03*
Y-120472D03*
X-465748Y-114961D03*
Y-120472D03*
X-482972Y-110236D03*
Y-104724D03*
X-524212Y-56102D03*
Y-61614D03*
X-483858Y-93406D03*
Y-87894D03*
X-455413Y-59941D03*
Y-54429D03*
G54D159*
X-354429Y-98130D03*
Y-103248D03*
X-349015Y-106890D03*
Y-101772D03*
X-501181Y-79823D03*
Y-74705D03*
X-500752Y-40158D03*
Y-35039D03*
G54D161*
X-416338Y-116437D03*
X-411220D03*
G54D165*
X-398622Y-114567D03*
X-383858D03*
X-383464Y-102756D03*
X-398228D03*
G54D172*
X-364862Y-103051D03*
Y-100492D03*
Y-105610D03*
X-372342D03*
Y-103051D03*
G54D173*
Y-100492D03*
G54D177*
X-488838Y-48721D03*
X-493838D03*
X-498838D03*
X-503838D03*
X-508838D03*
X-513838D03*
X-518838D03*
X-488838Y-67224D03*
X-493838D03*
X-498838D03*
X-503838D03*
X-508838D03*
X-513838D03*
X-332578Y-122244D03*
X-327578D03*
X-322578D03*
X-317578D03*
X-312578D03*
X-307578D03*
X-302578D03*
X-337578Y-103740D03*
X-332578D03*
X-327578D03*
X-322578D03*
X-317578D03*
X-312578D03*
X-307578D03*
X-302578D03*
G54D178*
X-518838Y-67224D03*
X-337578Y-122244D03*
G54D179*
X-230216Y-104134D03*
X-247145D03*
G54D180*
X-604921Y-49803D03*
G54D181*
X-607086Y-56201D03*
G54D182*
Y-43406D03*
G54D183*
X-243405Y-88287D03*
X-259941D03*
G54D184*
X-395078Y-41142D03*
Y-34055D03*
G54D186*
X-456870Y-120079D03*
X-451870D03*
X-446870D03*
X-441870D03*
X-436870D03*
X-431870D03*
X-426870D03*
X-421870D03*
X-456870Y-101181D03*
X-451870D03*
X-446870D03*
X-441870D03*
X-436870D03*
X-431870D03*
X-426870D03*
G54D187*
X-421870D03*
G54D18*
X-214271Y62205D03*
X-224704D03*
G54D21*
X-476476Y87205D03*
Y81693D03*
X-507578Y67224D03*
Y61713D03*
X-506594Y101476D03*
Y106988D03*
X-343208Y40157D03*
Y34646D03*
X-359449Y45177D03*
Y39665D03*
X-461023Y81791D03*
Y87303D03*
G54D23*
X-208956Y42421D03*
X-218208D03*
G54D24*
X-233464Y61024D03*
Y50591D03*
G54D25*
X-471063Y81791D03*
X-465551D03*
X-402559Y37697D03*
X-408071D03*
X-411122Y19882D03*
X-416634D03*
X-523622Y107185D03*
X-518110D03*
X-471063Y87303D03*
X-465551D03*
G54D153*
X-287893Y84744D03*
X-293405D03*
X-287893Y90701D03*
X-293405D03*
X-287893Y96555D03*
X-293405D03*
X-326870Y80217D03*
X-321358D03*
X-354035Y73524D03*
X-348523D03*
X-354842Y68602D03*
X-360354D03*
X-473031Y92618D03*
X-478543D03*
Y76378D03*
X-473031D03*
X-523425Y101476D03*
X-517913D03*
X-567519Y19193D03*
X-573031D03*
X-529626Y90748D03*
X-524114D03*
X-501673Y55512D03*
X-507185D03*
X-411220Y43701D03*
X-405708D03*
X-397244Y19193D03*
X-391732D03*
X-391571Y45571D03*
X-397082D03*
X-513090Y67224D03*
X-518602D03*
X-489370Y67126D03*
X-494882D03*
G54D154*
X-417126Y39272D03*
Y44783D03*
X-483661Y97539D03*
Y92028D03*
X-482086Y81791D03*
Y87303D03*
X-483661Y72539D03*
Y67028D03*
X-488484Y101378D03*
Y106890D03*
X-494618D03*
Y101378D03*
X-512204D03*
Y106890D03*
X-471752Y26772D03*
Y21260D03*
X-465748Y26772D03*
Y21260D03*
X-482972Y31496D03*
Y37008D03*
X-524212Y85630D03*
Y80118D03*
X-483858Y48327D03*
Y53839D03*
X-455413Y81791D03*
Y87303D03*
G54D159*
X-354429Y43602D03*
Y38484D03*
X-349015Y34842D03*
Y39961D03*
X-501181Y61909D03*
Y67028D03*
X-500752Y101575D03*
Y106693D03*
G54D161*
X-416338Y25295D03*
X-411220D03*
G54D165*
X-398622Y27165D03*
X-383858D03*
X-383464Y38976D03*
X-398228D03*
G54D172*
X-364862Y38681D03*
Y41240D03*
Y36122D03*
X-372342D03*
Y38681D03*
G54D173*
Y41240D03*
G54D177*
X-488838Y93012D03*
X-493838D03*
X-498838D03*
X-503838D03*
X-508838D03*
X-513838D03*
X-518838D03*
X-488838Y74508D03*
X-493838D03*
X-498838D03*
X-503838D03*
X-508838D03*
X-513838D03*
X-332578Y19488D03*
X-327578D03*
X-322578D03*
X-317578D03*
X-312578D03*
X-307578D03*
X-302578D03*
X-337578Y37992D03*
X-332578D03*
X-327578D03*
X-322578D03*
X-317578D03*
X-312578D03*
X-307578D03*
X-302578D03*
G54D178*
X-518838Y74508D03*
X-337578Y19488D03*
G54D179*
X-230216Y37598D03*
X-247145D03*
G54D180*
X-604921Y91929D03*
G54D181*
X-607086Y85531D03*
G54D182*
Y98327D03*
G54D183*
X-243405Y53445D03*
X-259941D03*
G54D184*
X-395078Y100591D03*
Y107677D03*
G54D186*
X-456870Y21654D03*
X-451870D03*
X-446870D03*
X-441870D03*
X-436870D03*
X-431870D03*
X-426870D03*
X-421870D03*
X-456870Y40551D03*
X-451870D03*
X-446870D03*
X-441870D03*
X-436870D03*
X-431870D03*
X-426870D03*
G54D187*
X-421870D03*
G54D18*
X-214271Y203937D03*
X-224704D03*
G54D21*
X-476476Y228937D03*
Y223425D03*
X-507578Y208957D03*
Y203445D03*
X-506594Y243209D03*
Y248720D03*
X-343208Y181890D03*
Y176378D03*
X-359449Y186909D03*
Y181398D03*
X-461023Y223524D03*
Y229035D03*
G54D23*
X-208956Y184154D03*
X-218208D03*
G54D24*
X-233464Y202756D03*
Y192323D03*
G54D25*
X-471063Y223524D03*
X-465551D03*
X-402559Y179429D03*
X-408071D03*
X-411122Y161614D03*
X-416634D03*
X-523622Y248917D03*
X-518110D03*
X-471063Y229035D03*
X-465551D03*
G54D153*
X-287893Y226476D03*
X-293405D03*
X-287893Y232433D03*
X-293405D03*
X-287893Y238287D03*
X-293405D03*
X-326870Y221949D03*
X-321358D03*
X-354035Y215256D03*
X-348523D03*
X-354842Y210335D03*
X-360354D03*
X-473031Y234350D03*
X-478543D03*
Y218110D03*
X-473031D03*
X-523425Y243209D03*
X-517913D03*
X-567519Y160925D03*
X-573031D03*
X-529626Y232480D03*
X-524114D03*
X-501673Y197244D03*
X-507185D03*
X-411220Y185433D03*
X-405708D03*
X-397244Y160925D03*
X-391732D03*
X-391571Y187303D03*
X-397082D03*
X-513090Y208957D03*
X-518602D03*
X-489370Y208858D03*
X-494882D03*
G54D154*
X-417126Y181004D03*
Y186516D03*
X-483661Y239272D03*
Y233760D03*
X-482086Y223524D03*
Y229035D03*
X-483661Y214272D03*
Y208760D03*
X-488484Y243110D03*
Y248622D03*
X-494618D03*
Y243110D03*
X-512204D03*
Y248622D03*
X-471752Y168504D03*
Y162992D03*
X-465748Y168504D03*
Y162992D03*
X-482972Y173228D03*
Y178740D03*
X-524212Y227362D03*
Y221850D03*
X-483858Y190059D03*
Y195571D03*
X-455413Y223524D03*
Y229035D03*
G54D159*
X-354429Y185335D03*
Y180217D03*
X-349015Y176575D03*
Y181693D03*
X-501181Y203642D03*
Y208760D03*
X-500752Y243307D03*
Y248425D03*
G54D161*
X-416338Y167028D03*
X-411220D03*
G54D165*
X-398622Y168898D03*
X-383858D03*
X-383464Y180709D03*
X-398228D03*
G54D172*
X-364862Y180413D03*
Y182972D03*
Y177854D03*
X-372342D03*
Y180413D03*
G54D173*
Y182972D03*
G54D177*
X-488838Y234744D03*
X-493838D03*
X-498838D03*
X-503838D03*
X-508838D03*
X-513838D03*
X-518838D03*
X-488838Y216240D03*
X-493838D03*
X-498838D03*
X-503838D03*
X-508838D03*
X-513838D03*
X-332578Y161220D03*
X-327578D03*
X-322578D03*
X-317578D03*
X-312578D03*
X-307578D03*
X-302578D03*
X-337578Y179724D03*
X-332578D03*
X-327578D03*
X-322578D03*
X-317578D03*
X-312578D03*
X-307578D03*
X-302578D03*
G54D178*
X-518838Y216240D03*
X-337578Y161220D03*
G54D179*
X-230216Y179331D03*
X-247145D03*
G54D180*
X-604921Y233661D03*
G54D181*
X-607086Y227264D03*
G54D182*
Y240059D03*
G54D183*
X-243405Y195177D03*
X-259941D03*
G54D184*
X-395078Y242323D03*
Y249409D03*
G54D186*
X-456870Y163386D03*
X-451870D03*
X-446870D03*
X-441870D03*
X-436870D03*
X-431870D03*
X-426870D03*
X-421870D03*
X-456870Y182283D03*
X-451870D03*
X-446870D03*
X-441870D03*
X-436870D03*
X-431870D03*
X-426870D03*
G54D187*
X-421870D03*
G54D18*
X-214271Y345669D03*
X-224704D03*
G54D21*
X-476476Y370669D03*
Y365157D03*
X-507578Y350689D03*
Y345177D03*
X-506594Y384941D03*
Y390453D03*
X-343208Y323622D03*
Y318110D03*
X-359449Y328642D03*
Y323130D03*
X-461023Y365256D03*
Y370768D03*
G54D23*
X-208956Y325886D03*
X-218208D03*
G54D24*
X-233464Y344488D03*
Y334055D03*
G54D25*
X-471063Y365256D03*
X-465551D03*
X-402559Y321161D03*
X-408071D03*
X-411122Y303346D03*
X-416634D03*
X-523622Y390650D03*
X-518110D03*
X-471063Y370768D03*
X-465551D03*
G54D153*
X-287893Y368209D03*
X-293405D03*
X-287893Y374165D03*
X-293405D03*
X-287893Y380020D03*
X-293405D03*
X-326870Y363681D03*
X-321358D03*
X-354035Y356988D03*
X-348523D03*
X-354842Y352067D03*
X-360354D03*
X-473031Y376083D03*
X-478543D03*
Y359842D03*
X-473031D03*
X-523425Y384941D03*
X-517913D03*
X-567519Y302657D03*
X-573031D03*
X-529626Y374213D03*
X-524114D03*
X-501673Y338976D03*
X-507185D03*
X-411220Y327165D03*
X-405708D03*
X-397244Y302657D03*
X-391732D03*
X-391571Y329035D03*
X-397082D03*
X-513090Y350689D03*
X-518602D03*
X-489370Y350591D03*
X-494882D03*
G54D154*
X-417126Y322736D03*
Y328248D03*
X-483661Y381004D03*
Y375492D03*
X-482086Y365256D03*
Y370768D03*
X-483661Y356004D03*
Y350492D03*
X-488484Y384842D03*
Y390354D03*
X-494618D03*
Y384842D03*
X-512204D03*
Y390354D03*
X-471752Y310236D03*
Y304724D03*
X-465748Y310236D03*
Y304724D03*
X-482972Y314961D03*
Y320472D03*
X-524212Y369094D03*
Y363583D03*
X-483858Y331791D03*
Y337303D03*
X-455413Y365256D03*
Y370768D03*
G54D159*
X-354429Y327067D03*
Y321949D03*
X-349015Y318307D03*
Y323425D03*
X-501181Y345374D03*
Y350492D03*
X-500752Y385039D03*
Y390157D03*
G54D161*
X-416338Y308760D03*
X-411220D03*
G54D165*
X-398622Y310630D03*
X-383858D03*
X-383464Y322441D03*
X-398228D03*
G54D172*
X-364862Y322146D03*
Y324705D03*
Y319587D03*
X-372342D03*
Y322146D03*
G54D173*
Y324705D03*
G54D177*
X-488838Y376476D03*
X-493838D03*
X-498838D03*
X-503838D03*
X-508838D03*
X-513838D03*
X-518838D03*
X-488838Y357972D03*
X-493838D03*
X-498838D03*
X-503838D03*
X-508838D03*
X-513838D03*
X-332578Y302953D03*
X-327578D03*
X-322578D03*
X-317578D03*
X-312578D03*
X-307578D03*
X-302578D03*
X-337578Y321457D03*
X-332578D03*
X-327578D03*
X-322578D03*
X-317578D03*
X-312578D03*
X-307578D03*
X-302578D03*
G54D178*
X-518838Y357972D03*
X-337578Y302953D03*
G54D179*
X-230216Y321063D03*
X-247145D03*
G54D180*
X-604921Y375394D03*
G54D181*
X-607086Y368996D03*
G54D182*
Y381791D03*
G54D183*
X-243405Y336909D03*
X-259941D03*
G54D184*
X-395078Y384055D03*
Y391142D03*
G54D186*
X-456870Y305118D03*
X-451870D03*
X-446870D03*
X-441870D03*
X-436870D03*
X-431870D03*
X-426870D03*
X-421870D03*
X-456870Y324016D03*
X-451870D03*
X-446870D03*
X-441870D03*
X-436870D03*
X-431870D03*
X-426870D03*
G54D187*
X-421870D03*
G54D136*
X129921Y-1078740D02*
G75*
G03X129921Y-1122047J-21654D01*
X188976D02*
G01X129921D01*
X188976D02*
G03X188976Y-1078740J21654D01*
X129921D02*
G01X188976D01*
X507874D02*
G03X507874Y-1122047J-21654D01*
X566929D02*
G01X507874D01*
X566929D02*
G03X566929Y-1078740J21654D01*
X507874D02*
G01X566929D01*
X-248032D02*
G03X-248032Y-1122047J-21654D01*
X-188977D02*
G01X-248032D01*
X-188977D02*
G03X-188977Y-1078740J21654D01*
X-248032D02*
G01X-188977D01*
X1122047Y188976D02*
G03X1078740Y188976I-21654D01*
Y129921D02*
G01Y188976D01*
Y129921D02*
G03X1122047Y129921I21654D01*
Y188976D02*
G01Y129921D01*
Y566929D02*
G03X1078740Y566929I-21654D01*
Y507874D02*
G01Y566929D01*
Y507874D02*
G03X1122047Y507874I21654D01*
Y566929D02*
G01Y507874D01*
Y-566929D02*
G03X1078740Y-566929I-21654D01*
Y-625984D02*
G01Y-566929D01*
Y-625984D02*
G03X1122047Y-625984I21654D01*
Y-566929D02*
G01Y-625984D01*
Y-188976D02*
G03X1078740Y-188976I-21654D01*
Y-248031D02*
G01Y-188976D01*
Y-248031D02*
G03X1122047Y-248031I21654D01*
Y-188976D02*
G01Y-248031D01*
X924212Y1100394D02*
G03X902559Y1100394I-10827D01*
Y1100394D02*
G03X924212Y1100394I10827D01*
X1111220Y913386D02*
G03X1089567Y913386I-10827D01*
Y913386D02*
G03X1111220Y913386I10827D01*
X924212Y-1100394D02*
G03X902559Y-1100394I-10827D01*
Y-1100394D02*
G03X924212Y-1100394I10827D01*
X1111220Y-913386D02*
G03X1089567Y-913386I-10827D01*
Y-913386D02*
G03X1111220Y-913386I10827D01*
X-902559Y-1100394D02*
G03X-924213Y-1100394I-10827D01*
Y-1100394D02*
G03X-902559Y-1100394I10827D01*
X-1089567Y-913386D02*
G03X-1111221Y-913386I-10827D01*
Y-913386D02*
G03X-1089567Y-913386I10827D01*
Y913386D02*
G03X-1111221Y913386I-10827D01*
Y913386D02*
G03X-1089567Y913386I10827D01*
X-902559Y1100394D02*
G03X-924213Y1100394I-10827D01*
Y1100394D02*
G03X-902559Y1100394I10827D01*
X-37402Y-1100394D02*
G03X-57087Y-1100394I-9843D01*
Y-1100394D02*
G03X-37402Y-1100394I9843D01*
X57086D02*
G03X37401Y-1100394I-9843D01*
Y-1100394D02*
G03X57086Y-1100394I9843D01*
X-1090552Y-47244D02*
G03X-1110237Y-47244I-9843D01*
Y-47244D02*
G03X-1090552Y-47244I9843D01*
Y47244D02*
G03X-1110237Y47244I-9843D01*
Y47244D02*
G03X-1090552Y47244I9843D01*
X-37402Y1100394D02*
G03X-57087Y1100394I-9843D01*
Y1100394D02*
G03X-37402Y1100394I9843D01*
X57086D02*
G03X37401Y1100394I-9843D01*
Y1100394D02*
G03X57086Y1100394I9843D01*
X1110236Y-47244D02*
G03X1090551Y-47244I-9843D01*
Y-47244D02*
G03X1110236Y-47244I9843D01*
Y47244D02*
G03X1090551Y47244I-9843D01*
Y47244D02*
G03X1110236Y47244I9843D01*
X-1046260Y-812008D02*
G01X-1057087D01*
X-1046260D02*
G03X-1046260Y-794291J8858D01*
X-1057087D02*
G01X-1046260D01*
X-1057087Y-812008D02*
G01Y-794291D01*
X-1046260Y-764764D02*
G01X-1057087D01*
X-1046260D02*
G03X-1046260Y-747048J8858D01*
X-1057087D02*
G01X-1046260D01*
X-1057087Y-764764D02*
G01Y-747048D01*
X-1046260Y-717520D02*
G01X-1057087D01*
X-1046260D02*
G03X-1046260Y-699803J8858D01*
X-1057087D02*
G01X-1046260D01*
X-1057087Y-717520D02*
G01Y-699803D01*
X-1046260Y-670276D02*
G01X-1057087D01*
X-1046260D02*
G03X-1046260Y-652559J8858D01*
X-1057087D02*
G01X-1046260D01*
X-1057087Y-670276D02*
G01Y-652559D01*
X-1046260Y-623031D02*
G01X-1057087D01*
X-1046260D02*
G03X-1046260Y-605315J8858D01*
X-1057087D02*
G01X-1046260D01*
X-1057087Y-623031D02*
G01Y-605315D01*
X-1046260Y-575788D02*
G01X-1057087D01*
X-1046260D02*
G03X-1046260Y-558071J8858D01*
X-1057087D02*
G01X-1046260D01*
X-1057087Y-575788D02*
G01Y-558071D01*
X-1046260Y-528543D02*
G01X-1057087D01*
X-1046260D02*
G03X-1046260Y-510827J8858D01*
X-1057087D02*
G01X-1046260D01*
X-1057087Y-528543D02*
G01Y-510827D01*
X-1046260Y-481299D02*
G01X-1057087D01*
X-1046260D02*
G03X-1046260Y-463583J8858D01*
X-1057087D02*
G01X-1046260D01*
X-1057087Y-481299D02*
G01Y-463583D01*
X-1046260Y-434055D02*
G01X-1057087D01*
X-1046260D02*
G03X-1046260Y-416339J8858D01*
X-1057087D02*
G01X-1046260D01*
X-1057087Y-434055D02*
G01Y-416339D01*
X-1046260Y-386811D02*
G01X-1057087D01*
X-1046260D02*
G03X-1046260Y-369095J8858D01*
X-1057087D02*
G01X-1046260D01*
X-1057087Y-386811D02*
G01Y-369095D01*
X-1046260Y-339567D02*
G01X-1057087D01*
X-1046260D02*
G03X-1046260Y-321850J8858D01*
X-1057087D02*
G01X-1046260D01*
X-1057087Y-339567D02*
G01Y-321850D01*
X-1046260Y-292323D02*
G01X-1057087D01*
X-1046260D02*
G03X-1046260Y-274607J8858D01*
X-1057087D02*
G01X-1046260D01*
X-1057087Y-292323D02*
G01Y-274607D01*
X-1046260Y-245079D02*
G01X-1057087D01*
X-1046260D02*
G03X-1046260Y-227362J8858D01*
X-1057087D02*
G01X-1046260D01*
X-1057087Y-245079D02*
G01Y-227362D01*
X-1046260Y-197835D02*
G01X-1057087D01*
X-1046260D02*
G03X-1046260Y-180118J8858D01*
X-1057087D02*
G01X-1046260D01*
X-1057087Y-197835D02*
G01Y-180118D01*
X-1046260Y-150591D02*
G01X-1057087D01*
X-1046260D02*
G03X-1046260Y-132874J8858D01*
X-1057087D02*
G01X-1046260D01*
X-1057087Y-150591D02*
G01Y-132874D01*
X-1046260Y-103346D02*
G01X-1057087D01*
X-1046260D02*
G03X-1046260Y-85630J8858D01*
X-1057087D02*
G01X-1046260D01*
X-1057087Y-103346D02*
G01Y-85630D01*
X-1046260Y-56102D02*
G01X-1057087D01*
X-1046260D02*
G03X-1046260Y-38386J8858D01*
X-1057087D02*
G01X-1046260D01*
X-1057087Y-56102D02*
G01Y-38386D01*
X-1046260Y-859252D02*
G01X-1057087D01*
X-1046260D02*
G03X-1046260Y-841536J8858D01*
X-1057087D02*
G01X-1046260D01*
X-1057087Y-859252D02*
G01Y-841536D01*
X-1046260Y794291D02*
G01X-1057087D01*
X-1046260D02*
G03X-1046260Y812008J8858D01*
X-1057087D02*
G01X-1046260D01*
X-1057087Y794291D02*
G01Y812008D01*
X-1046260Y747047D02*
G01X-1057087D01*
X-1046260D02*
G03X-1046260Y764764J8858D01*
X-1057087D02*
G01X-1046260D01*
X-1057087Y747047D02*
G01Y764764D01*
X-1046260Y699803D02*
G01X-1057087D01*
X-1046260D02*
G03X-1046260Y717520J8858D01*
X-1057087D02*
G01X-1046260D01*
X-1057087Y699803D02*
G01Y717520D01*
X-1046260Y652559D02*
G01X-1057087D01*
X-1046260D02*
G03X-1046260Y670276J8858D01*
X-1057087D02*
G01X-1046260D01*
X-1057087Y652559D02*
G01Y670276D01*
X-1046260Y605315D02*
G01X-1057087D01*
X-1046260D02*
G03X-1046260Y623031J8858D01*
X-1057087D02*
G01X-1046260D01*
X-1057087Y605315D02*
G01Y623031D01*
X-1046260Y558071D02*
G01X-1057087D01*
X-1046260D02*
G03X-1046260Y575787J8858D01*
X-1057087D02*
G01X-1046260D01*
X-1057087Y558071D02*
G01Y575787D01*
X-1046260Y510827D02*
G01X-1057087D01*
X-1046260D02*
G03X-1046260Y528543J8858D01*
X-1057087D02*
G01X-1046260D01*
X-1057087Y510827D02*
G01Y528543D01*
X-1046260Y463583D02*
G01X-1057087D01*
X-1046260D02*
G03X-1046260Y481299J8858D01*
X-1057087D02*
G01X-1046260D01*
X-1057087Y463583D02*
G01Y481299D01*
X-1046260Y416339D02*
G01X-1057087D01*
X-1046260D02*
G03X-1046260Y434055J8858D01*
X-1057087D02*
G01X-1046260D01*
X-1057087Y416339D02*
G01Y434055D01*
X-1046260Y369094D02*
G01X-1057087D01*
X-1046260D02*
G03X-1046260Y386811J8858D01*
X-1057087D02*
G01X-1046260D01*
X-1057087Y369094D02*
G01Y386811D01*
X-1046260Y321850D02*
G01X-1057087D01*
X-1046260D02*
G03X-1046260Y339567J8858D01*
X-1057087D02*
G01X-1046260D01*
X-1057087Y321850D02*
G01Y339567D01*
X-1046260Y274606D02*
G01X-1057087D01*
X-1046260D02*
G03X-1046260Y292323J8858D01*
X-1057087D02*
G01X-1046260D01*
X-1057087Y274606D02*
G01Y292323D01*
X-1046260Y227362D02*
G01X-1057087D01*
X-1046260D02*
G03X-1046260Y245079J8858D01*
X-1057087D02*
G01X-1046260D01*
X-1057087Y227362D02*
G01Y245079D01*
X-1046260Y180118D02*
G01X-1057087D01*
X-1046260D02*
G03X-1046260Y197835J8858D01*
X-1057087D02*
G01X-1046260D01*
X-1057087Y180118D02*
G01Y197835D01*
X-1046260Y132874D02*
G01X-1057087D01*
X-1046260D02*
G03X-1046260Y150591J8858D01*
X-1057087D02*
G01X-1046260D01*
X-1057087Y132874D02*
G01Y150591D01*
X-1046260Y85630D02*
G01X-1057087D01*
X-1046260D02*
G03X-1046260Y103346J8858D01*
X-1057087D02*
G01X-1046260D01*
X-1057087Y85630D02*
G01Y103346D01*
X-1046260Y38386D02*
G01X-1057087D01*
X-1046260D02*
G03X-1046260Y56102J8858D01*
X-1057087D02*
G01X-1046260D01*
X-1057087Y38386D02*
G01Y56102D01*
X-1046260Y841535D02*
G01X-1057087D01*
X-1046260D02*
G03X-1046260Y859252J8858D01*
X-1057087D02*
G01X-1046260D01*
X-1057087Y841535D02*
G01Y859252D01*
X1046259Y-794291D02*
G01X1057086D01*
X1046259D02*
G03X1046259Y-812008J-8858D01*
X1057086D02*
G01X1046259D01*
X1057086Y-794291D02*
G01Y-812008D01*
X1046259Y-747048D02*
G01X1057086D01*
X1046259D02*
G03X1046259Y-764764J-8858D01*
X1057086D02*
G01X1046259D01*
X1057086Y-747048D02*
G01Y-764764D01*
X1046259Y-699803D02*
G01X1057086D01*
X1046259D02*
G03X1046259Y-717520J-8858D01*
X1057086D02*
G01X1046259D01*
X1057086Y-699803D02*
G01Y-717520D01*
X1046259Y-652559D02*
G01X1057086D01*
X1046259D02*
G03X1046259Y-670276J-8858D01*
X1057086D02*
G01X1046259D01*
X1057086Y-652559D02*
G01Y-670276D01*
X1046259Y-605315D02*
G01X1057086D01*
X1046259D02*
G03X1046259Y-623031J-8858D01*
X1057086D02*
G01X1046259D01*
X1057086Y-605315D02*
G01Y-623031D01*
X1046259Y-558071D02*
G01X1057086D01*
X1046259D02*
G03X1046259Y-575788J-8858D01*
X1057086D02*
G01X1046259D01*
X1057086Y-558071D02*
G01Y-575788D01*
X1046259Y-510827D02*
G01X1057086D01*
X1046259D02*
G03X1046259Y-528543J-8858D01*
X1057086D02*
G01X1046259D01*
X1057086Y-510827D02*
G01Y-528543D01*
X1046259Y-463583D02*
G01X1057086D01*
X1046259D02*
G03X1046259Y-481299J-8858D01*
X1057086D02*
G01X1046259D01*
X1057086Y-463583D02*
G01Y-481299D01*
X1046259Y-416339D02*
G01X1057086D01*
X1046259D02*
G03X1046259Y-434055J-8858D01*
X1057086D02*
G01X1046259D01*
X1057086Y-416339D02*
G01Y-434055D01*
X1046259Y-369095D02*
G01X1057086D01*
X1046259D02*
G03X1046259Y-386811J-8858D01*
X1057086D02*
G01X1046259D01*
X1057086Y-369095D02*
G01Y-386811D01*
X1046259Y-321850D02*
G01X1057086D01*
X1046259D02*
G03X1046259Y-339567J-8858D01*
X1057086D02*
G01X1046259D01*
X1057086Y-321850D02*
G01Y-339567D01*
X1046259Y-274607D02*
G01X1057086D01*
X1046259D02*
G03X1046259Y-292323J-8858D01*
X1057086D02*
G01X1046259D01*
X1057086Y-274607D02*
G01Y-292323D01*
X1046259Y-227362D02*
G01X1057086D01*
X1046259D02*
G03X1046259Y-245079J-8858D01*
X1057086D02*
G01X1046259D01*
X1057086Y-227362D02*
G01Y-245079D01*
X1046259Y-180118D02*
G01X1057086D01*
X1046259D02*
G03X1046259Y-197835J-8858D01*
X1057086D02*
G01X1046259D01*
X1057086Y-180118D02*
G01Y-197835D01*
X1046259Y-132874D02*
G01X1057086D01*
X1046259D02*
G03X1046259Y-150591J-8858D01*
X1057086D02*
G01X1046259D01*
X1057086Y-132874D02*
G01Y-150591D01*
X1046259Y-85630D02*
G01X1057086D01*
X1046259D02*
G03X1046259Y-103346J-8858D01*
X1057086D02*
G01X1046259D01*
X1057086Y-85630D02*
G01Y-103346D01*
X1046259Y-38386D02*
G01X1057086D01*
X1046259D02*
G03X1046259Y-56102J-8858D01*
X1057086D02*
G01X1046259D01*
X1057086Y-38386D02*
G01Y-56102D01*
X1046259Y-841536D02*
G01X1057086D01*
X1046259D02*
G03X1046259Y-859252J-8858D01*
X1057086D02*
G01X1046259D01*
X1057086Y-841536D02*
G01Y-859252D01*
X1046259Y812008D02*
G01X1057086D01*
X1046259D02*
G03X1046259Y794291J-8858D01*
X1057086D02*
G01X1046259D01*
X1057086Y812008D02*
G01Y794291D01*
X1046259Y764764D02*
G01X1057086D01*
X1046259D02*
G03X1046259Y747047J-8858D01*
X1057086D02*
G01X1046259D01*
X1057086Y764764D02*
G01Y747047D01*
X1046259Y717520D02*
G01X1057086D01*
X1046259D02*
G03X1046259Y699803J-8858D01*
X1057086D02*
G01X1046259D01*
X1057086Y717520D02*
G01Y699803D01*
X1046259Y670276D02*
G01X1057086D01*
X1046259D02*
G03X1046259Y652559J-8858D01*
X1057086D02*
G01X1046259D01*
X1057086Y670276D02*
G01Y652559D01*
X1046259Y623031D02*
G01X1057086D01*
X1046259D02*
G03X1046259Y605315J-8858D01*
X1057086D02*
G01X1046259D01*
X1057086Y623031D02*
G01Y605315D01*
X1046259Y575787D02*
G01X1057086D01*
X1046259D02*
G03X1046259Y558071J-8858D01*
X1057086D02*
G01X1046259D01*
X1057086Y575787D02*
G01Y558071D01*
X1046259Y528543D02*
G01X1057086D01*
X1046259D02*
G03X1046259Y510827J-8858D01*
X1057086D02*
G01X1046259D01*
X1057086Y528543D02*
G01Y510827D01*
X1046259Y481299D02*
G01X1057086D01*
X1046259D02*
G03X1046259Y463583J-8858D01*
X1057086D02*
G01X1046259D01*
X1057086Y481299D02*
G01Y463583D01*
X1046259Y434055D02*
G01X1057086D01*
X1046259D02*
G03X1046259Y416339J-8858D01*
X1057086D02*
G01X1046259D01*
X1057086Y434055D02*
G01Y416339D01*
X1046259Y386811D02*
G01X1057086D01*
X1046259D02*
G03X1046259Y369094J-8858D01*
X1057086D02*
G01X1046259D01*
X1057086Y386811D02*
G01Y369094D01*
X1046259Y339567D02*
G01X1057086D01*
X1046259D02*
G03X1046259Y321850J-8858D01*
X1057086D02*
G01X1046259D01*
X1057086Y339567D02*
G01Y321850D01*
X1046259Y292323D02*
G01X1057086D01*
X1046259D02*
G03X1046259Y274606J-8858D01*
X1057086D02*
G01X1046259D01*
X1057086Y292323D02*
G01Y274606D01*
X1046259Y245079D02*
G01X1057086D01*
X1046259D02*
G03X1046259Y227362J-8858D01*
X1057086D02*
G01X1046259D01*
X1057086Y245079D02*
G01Y227362D01*
X1046259Y197835D02*
G01X1057086D01*
X1046259D02*
G03X1046259Y180118J-8858D01*
X1057086D02*
G01X1046259D01*
X1057086Y197835D02*
G01Y180118D01*
X1046259Y150591D02*
G01X1057086D01*
X1046259D02*
G03X1046259Y132874J-8858D01*
X1057086D02*
G01X1046259D01*
X1057086Y150591D02*
G01Y132874D01*
X1046259Y103346D02*
G01X1057086D01*
X1046259D02*
G03X1046259Y85630J-8858D01*
X1057086D02*
G01X1046259D01*
X1057086Y103346D02*
G01Y85630D01*
X1046259Y56102D02*
G01X1057086D01*
X1046259D02*
G03X1046259Y38386J-8858D01*
X1057086D02*
G01X1046259D01*
X1057086Y56102D02*
G01Y38386D01*
X1046259Y859252D02*
G01X1057086D01*
X1046259D02*
G03X1046259Y841535J-8858D01*
X1057086D02*
G01X1046259D01*
X1057086Y859252D02*
G01Y841535D01*
X812008Y-1046260D02*
G01Y-1057087D01*
Y-1046260D02*
G03X794291Y-1046260I-8858D01*
Y-1057087D02*
G01Y-1046260D01*
X812008Y-1057087D02*
G01X794291D01*
X764763Y-1046260D02*
G01Y-1057087D01*
Y-1046260D02*
G03X747047Y-1046260I-8858D01*
Y-1057087D02*
G01Y-1046260D01*
X764763Y-1057087D02*
G01X747047D01*
X717519Y-1046260D02*
G01Y-1057087D01*
Y-1046260D02*
G03X699803Y-1046260I-8858D01*
Y-1057087D02*
G01Y-1046260D01*
X717519Y-1057087D02*
G01X699803D01*
X670275Y-1046260D02*
G01Y-1057087D01*
Y-1046260D02*
G03X652559Y-1046260I-8858D01*
Y-1057087D02*
G01Y-1046260D01*
X670275Y-1057087D02*
G01X652559D01*
X623031Y-1046260D02*
G01Y-1057087D01*
Y-1046260D02*
G03X605315Y-1046260I-8858D01*
Y-1057087D02*
G01Y-1046260D01*
X623031Y-1057087D02*
G01X605315D01*
X575787Y-1046260D02*
G01Y-1057087D01*
Y-1046260D02*
G03X558070Y-1046260I-8858D01*
Y-1057087D02*
G01Y-1046260D01*
X575787Y-1057087D02*
G01X558070D01*
X528543Y-1046260D02*
G01Y-1057087D01*
Y-1046260D02*
G03X510826Y-1046260I-8858D01*
Y-1057087D02*
G01Y-1046260D01*
X528543Y-1057087D02*
G01X510826D01*
X481299Y-1046260D02*
G01Y-1057087D01*
Y-1046260D02*
G03X463582Y-1046260I-8858D01*
Y-1057087D02*
G01Y-1046260D01*
X481299Y-1057087D02*
G01X463582D01*
X434055Y-1046260D02*
G01Y-1057087D01*
Y-1046260D02*
G03X416338Y-1046260I-8858D01*
Y-1057087D02*
G01Y-1046260D01*
X434055Y-1057087D02*
G01X416338D01*
X386811Y-1046260D02*
G01Y-1057087D01*
Y-1046260D02*
G03X369094Y-1046260I-8858D01*
Y-1057087D02*
G01Y-1046260D01*
X386811Y-1057087D02*
G01X369094D01*
X339567Y-1046260D02*
G01Y-1057087D01*
Y-1046260D02*
G03X321850Y-1046260I-8858D01*
Y-1057087D02*
G01Y-1046260D01*
X339567Y-1057087D02*
G01X321850D01*
X292322Y-1046260D02*
G01Y-1057087D01*
Y-1046260D02*
G03X274606Y-1046260I-8858D01*
Y-1057087D02*
G01Y-1046260D01*
X292322Y-1057087D02*
G01X274606D01*
X245078Y-1046260D02*
G01Y-1057087D01*
Y-1046260D02*
G03X227362Y-1046260I-8858D01*
Y-1057087D02*
G01Y-1046260D01*
X245078Y-1057087D02*
G01X227362D01*
X197834Y-1046260D02*
G01Y-1057087D01*
Y-1046260D02*
G03X180118Y-1046260I-8858D01*
Y-1057087D02*
G01Y-1046260D01*
X197834Y-1057087D02*
G01X180118D01*
X150590Y-1046260D02*
G01Y-1057087D01*
Y-1046260D02*
G03X132874Y-1046260I-8858D01*
Y-1057087D02*
G01Y-1046260D01*
X150590Y-1057087D02*
G01X132874D01*
X103346Y-1046260D02*
G01Y-1057087D01*
Y-1046260D02*
G03X85630Y-1046260I-8858D01*
Y-1057087D02*
G01Y-1046260D01*
X103346Y-1057087D02*
G01X85630D01*
X56102Y-1046260D02*
G01Y-1057087D01*
Y-1046260D02*
G03X38385Y-1046260I-8858D01*
Y-1057087D02*
G01Y-1046260D01*
X56102Y-1057087D02*
G01X38385D01*
X859252Y-1046260D02*
G01Y-1057087D01*
Y-1046260D02*
G03X841535Y-1046260I-8858D01*
Y-1057087D02*
G01Y-1046260D01*
X859252Y-1057087D02*
G01X841535D01*
X-794292Y-1046260D02*
G01Y-1057087D01*
Y-1046260D02*
G03X-812008Y-1046260I-8858D01*
Y-1057087D02*
G01Y-1046260D01*
X-794292Y-1057087D02*
G01X-812008D01*
X-747048Y-1046260D02*
G01Y-1057087D01*
Y-1046260D02*
G03X-764764Y-1046260I-8858D01*
Y-1057087D02*
G01Y-1046260D01*
X-747048Y-1057087D02*
G01X-764764D01*
X-699804Y-1046260D02*
G01Y-1057087D01*
Y-1046260D02*
G03X-717520Y-1046260I-8858D01*
Y-1057087D02*
G01Y-1046260D01*
X-699804Y-1057087D02*
G01X-717520D01*
X-652559Y-1046260D02*
G01Y-1057087D01*
Y-1046260D02*
G03X-670276Y-1046260I-8858D01*
Y-1057087D02*
G01Y-1046260D01*
X-652559Y-1057087D02*
G01X-670276D01*
X-605315Y-1046260D02*
G01Y-1057087D01*
Y-1046260D02*
G03X-623032Y-1046260I-8858D01*
Y-1057087D02*
G01Y-1046260D01*
X-605315Y-1057087D02*
G01X-623032D01*
X-558071Y-1046260D02*
G01Y-1057087D01*
Y-1046260D02*
G03X-575788Y-1046260I-8858D01*
Y-1057087D02*
G01Y-1046260D01*
X-558071Y-1057087D02*
G01X-575788D01*
X-510827Y-1046260D02*
G01Y-1057087D01*
Y-1046260D02*
G03X-528544Y-1046260I-8858D01*
Y-1057087D02*
G01Y-1046260D01*
X-510827Y-1057087D02*
G01X-528544D01*
X-463583Y-1046260D02*
G01Y-1057087D01*
Y-1046260D02*
G03X-481300Y-1046260I-8858D01*
Y-1057087D02*
G01Y-1046260D01*
X-463583Y-1057087D02*
G01X-481300D01*
X-416339Y-1046260D02*
G01Y-1057087D01*
Y-1046260D02*
G03X-434056Y-1046260I-8858D01*
Y-1057087D02*
G01Y-1046260D01*
X-416339Y-1057087D02*
G01X-434056D01*
X-369095Y-1046260D02*
G01Y-1057087D01*
Y-1046260D02*
G03X-386811Y-1046260I-8858D01*
Y-1057087D02*
G01Y-1046260D01*
X-369095Y-1057087D02*
G01X-386811D01*
X-321851Y-1046260D02*
G01Y-1057087D01*
Y-1046260D02*
G03X-339567Y-1046260I-8858D01*
Y-1057087D02*
G01Y-1046260D01*
X-321851Y-1057087D02*
G01X-339567D01*
X-274607Y-1046260D02*
G01Y-1057087D01*
Y-1046260D02*
G03X-292323Y-1046260I-8858D01*
Y-1057087D02*
G01Y-1046260D01*
X-274607Y-1057087D02*
G01X-292323D01*
X-227363Y-1046260D02*
G01Y-1057087D01*
Y-1046260D02*
G03X-245079Y-1046260I-8858D01*
Y-1057087D02*
G01Y-1046260D01*
X-227363Y-1057087D02*
G01X-245079D01*
X-180119Y-1046260D02*
G01Y-1057087D01*
Y-1046260D02*
G03X-197835Y-1046260I-8858D01*
Y-1057087D02*
G01Y-1046260D01*
X-180119Y-1057087D02*
G01X-197835D01*
X-132874Y-1046260D02*
G01Y-1057087D01*
Y-1046260D02*
G03X-150591Y-1046260I-8858D01*
Y-1057087D02*
G01Y-1046260D01*
X-132874Y-1057087D02*
G01X-150591D01*
X-85630Y-1046260D02*
G01Y-1057087D01*
Y-1046260D02*
G03X-103347Y-1046260I-8858D01*
Y-1057087D02*
G01Y-1046260D01*
X-85630Y-1057087D02*
G01X-103347D01*
X-38386Y-1046260D02*
G01Y-1057087D01*
Y-1046260D02*
G03X-56103Y-1046260I-8858D01*
Y-1057087D02*
G01Y-1046260D01*
X-38386Y-1057087D02*
G01X-56103D01*
X-841536Y-1046260D02*
G01Y-1057087D01*
Y-1046260D02*
G03X-859252Y-1046260I-8858D01*
Y-1057087D02*
G01Y-1046260D01*
X-841536Y-1057087D02*
G01X-859252D01*
X794291Y1046260D02*
G01Y1057086D01*
Y1046260D02*
G03X812008Y1046260I8858D01*
Y1057086D02*
G01Y1046260D01*
X794291Y1057086D02*
G01X812008D01*
X747047Y1046260D02*
G01Y1057086D01*
Y1046260D02*
G03X764763Y1046260I8858D01*
Y1057086D02*
G01Y1046260D01*
X747047Y1057086D02*
G01X764763D01*
X699803Y1046260D02*
G01Y1057086D01*
Y1046260D02*
G03X717519Y1046260I8858D01*
Y1057086D02*
G01Y1046260D01*
X699803Y1057086D02*
G01X717519D01*
X652559Y1046260D02*
G01Y1057086D01*
Y1046260D02*
G03X670275Y1046260I8858D01*
Y1057086D02*
G01Y1046260D01*
X652559Y1057086D02*
G01X670275D01*
X605315Y1046260D02*
G01Y1057086D01*
Y1046260D02*
G03X623031Y1046260I8858D01*
Y1057086D02*
G01Y1046260D01*
X605315Y1057086D02*
G01X623031D01*
X558070Y1046260D02*
G01Y1057086D01*
Y1046260D02*
G03X575787Y1046260I8858D01*
Y1057086D02*
G01Y1046260D01*
X558070Y1057086D02*
G01X575787D01*
X510826Y1046260D02*
G01Y1057086D01*
Y1046260D02*
G03X528543Y1046260I8858D01*
Y1057086D02*
G01Y1046260D01*
X510826Y1057086D02*
G01X528543D01*
X463582Y1046260D02*
G01Y1057086D01*
Y1046260D02*
G03X481299Y1046260I8858D01*
Y1057086D02*
G01Y1046260D01*
X463582Y1057086D02*
G01X481299D01*
X416338Y1046260D02*
G01Y1057086D01*
Y1046260D02*
G03X434055Y1046260I8858D01*
Y1057086D02*
G01Y1046260D01*
X416338Y1057086D02*
G01X434055D01*
X369094Y1046260D02*
G01Y1057086D01*
Y1046260D02*
G03X386811Y1046260I8858D01*
Y1057086D02*
G01Y1046260D01*
X369094Y1057086D02*
G01X386811D01*
X321850Y1046260D02*
G01Y1057086D01*
Y1046260D02*
G03X339567Y1046260I8858D01*
Y1057086D02*
G01Y1046260D01*
X321850Y1057086D02*
G01X339567D01*
X274606Y1046260D02*
G01Y1057086D01*
Y1046260D02*
G03X292322Y1046260I8858D01*
Y1057086D02*
G01Y1046260D01*
X274606Y1057086D02*
G01X292322D01*
X227362Y1046260D02*
G01Y1057086D01*
Y1046260D02*
G03X245078Y1046260I8858D01*
Y1057086D02*
G01Y1046260D01*
X227362Y1057086D02*
G01X245078D01*
X180118Y1046260D02*
G01Y1057086D01*
Y1046260D02*
G03X197834Y1046260I8858D01*
Y1057086D02*
G01Y1046260D01*
X180118Y1057086D02*
G01X197834D01*
X132874Y1046260D02*
G01Y1057086D01*
Y1046260D02*
G03X150590Y1046260I8858D01*
Y1057086D02*
G01Y1046260D01*
X132874Y1057086D02*
G01X150590D01*
X85630Y1046260D02*
G01Y1057086D01*
Y1046260D02*
G03X103346Y1046260I8858D01*
Y1057086D02*
G01Y1046260D01*
X85630Y1057086D02*
G01X103346D01*
X38385Y1046260D02*
G01Y1057086D01*
Y1046260D02*
G03X56102Y1046260I8858D01*
Y1057086D02*
G01Y1046260D01*
X38385Y1057086D02*
G01X56102D01*
X841535Y1046260D02*
G01Y1057086D01*
Y1046260D02*
G03X859252Y1046260I8858D01*
Y1057086D02*
G01Y1046260D01*
X841535Y1057086D02*
G01X859252D01*
X-812008Y1046260D02*
G01Y1057086D01*
Y1046260D02*
G03X-794292Y1046260I8858D01*
Y1057086D02*
G01Y1046260D01*
X-812008Y1057086D02*
G01X-794292D01*
X-764764Y1046260D02*
G01Y1057086D01*
Y1046260D02*
G03X-747048Y1046260I8858D01*
Y1057086D02*
G01Y1046260D01*
X-764764Y1057086D02*
G01X-747048D01*
X-717520Y1046260D02*
G01Y1057086D01*
Y1046260D02*
G03X-699804Y1046260I8858D01*
Y1057086D02*
G01Y1046260D01*
X-717520Y1057086D02*
G01X-699804D01*
X-670276Y1046260D02*
G01Y1057086D01*
Y1046260D02*
G03X-652559Y1046260I8858D01*
Y1057086D02*
G01Y1046260D01*
X-670276Y1057086D02*
G01X-652559D01*
X-623032Y1046260D02*
G01Y1057086D01*
Y1046260D02*
G03X-605315Y1046260I8858D01*
Y1057086D02*
G01Y1046260D01*
X-623032Y1057086D02*
G01X-605315D01*
X-575788Y1046260D02*
G01Y1057086D01*
Y1046260D02*
G03X-558071Y1046260I8858D01*
Y1057086D02*
G01Y1046260D01*
X-575788Y1057086D02*
G01X-558071D01*
X-528544Y1046260D02*
G01Y1057086D01*
Y1046260D02*
G03X-510827Y1046260I8858D01*
Y1057086D02*
G01Y1046260D01*
X-528544Y1057086D02*
G01X-510827D01*
X-481300Y1046260D02*
G01Y1057086D01*
Y1046260D02*
G03X-463583Y1046260I8858D01*
Y1057086D02*
G01Y1046260D01*
X-481300Y1057086D02*
G01X-463583D01*
X-434056Y1046260D02*
G01Y1057086D01*
Y1046260D02*
G03X-416339Y1046260I8858D01*
Y1057086D02*
G01Y1046260D01*
X-434056Y1057086D02*
G01X-416339D01*
X-386811Y1046260D02*
G01Y1057086D01*
Y1046260D02*
G03X-369095Y1046260I8858D01*
Y1057086D02*
G01Y1046260D01*
X-386811Y1057086D02*
G01X-369095D01*
X-339567Y1046260D02*
G01Y1057086D01*
Y1046260D02*
G03X-321851Y1046260I8858D01*
Y1057086D02*
G01Y1046260D01*
X-339567Y1057086D02*
G01X-321851D01*
X-292323Y1046260D02*
G01Y1057086D01*
Y1046260D02*
G03X-274607Y1046260I8858D01*
Y1057086D02*
G01Y1046260D01*
X-292323Y1057086D02*
G01X-274607D01*
X-245079Y1046260D02*
G01Y1057086D01*
Y1046260D02*
G03X-227363Y1046260I8858D01*
Y1057086D02*
G01Y1046260D01*
X-245079Y1057086D02*
G01X-227363D01*
X-197835Y1046260D02*
G01Y1057086D01*
Y1046260D02*
G03X-180119Y1046260I8858D01*
Y1057086D02*
G01Y1046260D01*
X-197835Y1057086D02*
G01X-180119D01*
X-150591Y1046260D02*
G01Y1057086D01*
Y1046260D02*
G03X-132874Y1046260I8858D01*
Y1057086D02*
G01Y1046260D01*
X-150591Y1057086D02*
G01X-132874D01*
X-103347Y1046260D02*
G01Y1057086D01*
Y1046260D02*
G03X-85630Y1046260I8858D01*
Y1057086D02*
G01Y1046260D01*
X-103347Y1057086D02*
G01X-85630D01*
X-56103Y1046260D02*
G01Y1057086D01*
Y1046260D02*
G03X-38386Y1046260I8858D01*
Y1057086D02*
G01Y1046260D01*
X-56103Y1057086D02*
G01X-38386D01*
X-859252Y1046260D02*
G01Y1057086D01*
Y1046260D02*
G03X-841536Y1046260I8858D01*
Y1057086D02*
G01Y1046260D01*
X-859252Y1057086D02*
G01X-841536D01*
X-1046260Y-8858D02*
G01X-1057087D01*
X-1046260D02*
G03X-1046260Y8858J8858D01*
X-1057087D02*
G01X-1046260D01*
X-1057087Y-8858D02*
G01Y8858D01*
X1046259D02*
G01X1057086D01*
X1046259D02*
G03X1046259Y-8858J-8858D01*
X1057086D02*
G01X1046259D01*
X1057086Y8858D02*
G01Y-8858D01*
X8858Y-1046260D02*
G01Y-1057087D01*
Y-1046260D02*
G03X-8859Y-1046260I-8858D01*
Y-1057087D02*
G01Y-1046260D01*
X8858Y-1057087D02*
G01X-8859D01*
Y1046260D02*
G01Y1057086D01*
Y1046260D02*
G03X8858Y1046260I8858D01*
Y1057086D02*
G01Y1046260D01*
X-8859Y1057086D02*
G01X8858D01*
X349409Y-1100394D02*
G03X327756Y-1100394I-10827D01*
Y-1100394D02*
G03X349409Y-1100394I10827D01*
X687992D02*
G03X666338Y-1100394I-10827D01*
Y-1100394D02*
G03X687992Y-1100394I10827D01*
X-327756D02*
G03X-349410Y-1100394I-10827D01*
Y-1100394D02*
G03X-327756Y-1100394I10827D01*
X-666339D02*
G03X-687993Y-1100394I-10827D01*
Y-1100394D02*
G03X-666339Y-1100394I10827D01*
X349409Y1100394D02*
G03X327756Y1100394I-10827D01*
Y1100394D02*
G03X349409Y1100394I10827D01*
X687992D02*
G03X666338Y1100394I-10827D01*
Y1100394D02*
G03X687992Y1100394I10827D01*
X-327756D02*
G03X-349410Y1100394I-10827D01*
Y1100394D02*
G03X-327756Y1100394I10827D01*
X-666339D02*
G03X-687993Y1100394I-10827D01*
Y1100394D02*
G03X-666339Y1100394I10827D01*
X10826Y-1100394D02*
G03X-10827Y-1100394I-10827D01*
Y-1100394D02*
G03X10826Y-1100394I10827D01*
Y1100394D02*
G03X-10827Y1100394I-10827D01*
Y1100394D02*
G03X10826Y1100394I10827D01*
X1111220Y338583D02*
G03X1089567Y338583I-10827D01*
Y338583D02*
G03X1111220Y338583I10827D01*
Y677165D02*
G03X1089567Y677165I-10827D01*
Y677165D02*
G03X1111220Y677165I10827D01*
Y-338583D02*
G03X1089567Y-338583I-10827D01*
Y-338583D02*
G03X1111220Y-338583I10827D01*
Y-677165D02*
G03X1089567Y-677165I-10827D01*
Y-677165D02*
G03X1111220Y-677165I10827D01*
Y0D02*
G03X1089567Y0I-10827D01*
Y0D02*
G03X1111220Y0I10827D01*
X-1089567Y338583D02*
G03X-1111221Y338583I-10827D01*
Y338583D02*
G03X-1089567Y338583I10827D01*
Y677165D02*
G03X-1111221Y677165I-10827D01*
Y677165D02*
G03X-1089567Y677165I10827D01*
Y-338583D02*
G03X-1111221Y-338583I-10827D01*
Y-338583D02*
G03X-1089567Y-338583I10827D01*
Y-677165D02*
G03X-1111221Y-677165I-10827D01*
Y-677165D02*
G03X-1089567Y-677165I10827D01*
Y0D02*
G03X-1111221Y0I-10827D01*
Y0D02*
G03X-1089567Y0I10827D01*
X-566930Y1122047D02*
G03X-566930Y1078740J-21653D01*
X-188977Y1122047D02*
G03X-188977Y1078740J-21653D01*
X188976Y1122047D02*
G03X188976Y1078740J-21653D01*
X566929Y1122047D02*
G03X566929Y1078740J-21653D01*
X-1122048Y566929D02*
G03X-1078741Y566929I21654D01*
X-1122048Y188976D02*
G03X-1078741Y188976I21654D01*
X-1122048Y-188976D02*
G03X-1078741Y-188976I21654D01*
X-1122048Y-566929D02*
G03X-1078741Y-566929I21654D01*
X-625985Y-1078740D02*
G03X-625985Y-1122047J-21654D01*
X-566930D02*
G01X-625985D01*
X-566930D02*
G03X-566930Y-1078740J21654D01*
X-625985D02*
G01X-566930D01*
X-1078741Y-507874D02*
G01Y-566929D01*
Y-507874D02*
G03X-1122048Y-507874I-21654D01*
Y-566929D02*
G01Y-507874D01*
X-1078741Y-129921D02*
G01Y-188976D01*
Y-129921D02*
G03X-1122048Y-129921I-21654D01*
Y-188976D02*
G01Y-129921D01*
X-1078741Y248031D02*
G01Y188976D01*
Y248031D02*
G03X-1122048Y248031I-21654D01*
Y188976D02*
G01Y248031D01*
X-1078741Y625984D02*
G01Y566929D01*
Y625984D02*
G03X-1122048Y625984I-21654D01*
Y566929D02*
G01Y625984D01*
X625984Y1078740D02*
G01X566929D01*
X625984D02*
G03X625984Y1122047J21653D01*
X566929D02*
G01X625984D01*
X248031Y1078740D02*
G01X188976D01*
X248031D02*
G03X248031Y1122047J21653D01*
X188976D02*
G01X248031D01*
X-129922Y1078740D02*
G01X-188977D01*
X-129922D02*
G03X-129922Y1122047J21653D01*
X-188977D02*
G01X-129922D01*
X-507874Y1078740D02*
G01X-566930D01*
X-507874D02*
G03X-507874Y1122047J21653D01*
X-566930D02*
G01X-507874D01*
X-1092323Y110236D02*
G03X-1108465Y110236I-8071D01*
Y110236D02*
G03X-1092323Y110236I8071D01*
X-102166Y-1100394D02*
G03X-118307Y-1100394I-8071D01*
Y-1100394D02*
G03X-102166Y-1100394I8071D01*
X1108464Y-110236D02*
G03X1092322Y-110236I-8071D01*
Y-110236D02*
G03X1108464Y-110236I8071D01*
X118307Y1100394D02*
G03X102165Y1100394I-8071D01*
Y1100394D02*
G03X118307Y1100394I8071D01*
X-1002126Y-992126D02*
G01X-1001254Y-992164D01*
X-1000389Y-992278*
X-999538Y-992467*
X-998706Y-992729*
X-997900Y-993063*
X-997126Y-993466*
X-996390Y-993935*
X-995698Y-994465*
X-995055Y-995055*
X-994465Y-995698*
X-993935Y-996390*
X-993466Y-997126*
X-993063Y-997900*
X-992729Y-998706*
X-992467Y-999538*
X-992278Y-1000389*
X-992164Y-1001254*
X-992126Y-1002126*
Y-1125984*
X-984252Y-1133858*
X984252*
X992126Y-1125984*
Y-1002126*
X1002126Y-992126D02*
G03X992126Y-1002126J-10000D01*
X1002126Y-992126D02*
G01X1125984D01*
X1133858Y-984252*
Y984252*
X1125984Y992126*
X1002126*
X992126Y1002126D02*
G03X1002126Y992126I10000D01*
X992126Y1002126D02*
G01Y1125984D01*
X984252Y1133858*
X-984252*
X-992126Y1125984*
Y1002126*
X-1002126Y992126D02*
G03X-992126Y1002126J10000D01*
X-1002126Y992126D02*
G01X-1125984D01*
X-1133858Y984252*
Y-984252*
X-1125984Y-992126*
X-1002126*
G54D11*
G01X777756Y-229134D02*
X798425D01*
X777756D02*
X798425Y-221260D01*
X777756Y-213386D02*
X798425Y-221260D01*
X777756Y-213386D02*
X798425D01*
X777756Y-205512D02*
X798425D01*
X777756D02*
Y-198622D01*
X778740Y-195669D01*
X780709Y-193701D01*
X782677Y-192717D01*
X785630Y-191732D01*
X790551D01*
X793504Y-192717D01*
X795472Y-193701D01*
X797441Y-195669D01*
X798425Y-198622D01*
Y-205512D01*
X777756Y-169094D02*
X798425D01*
X777756D02*
Y-160236D01*
X778740Y-157283D01*
X779724Y-156299D01*
X781693Y-155315D01*
X784646D01*
X786614Y-156299D01*
X787598Y-157283D01*
X788583Y-160236D01*
Y-169094D01*
X777756Y-148425D02*
X798425D01*
X784646Y-140551D02*
X794488D01*
X797441Y-139567D01*
X798425Y-137598D01*
Y-134646D01*
X797441Y-132677D01*
X794488Y-129724D01*
X784646D02*
X798425D01*
X787598Y-112008D02*
X785630Y-112992D01*
X784646Y-115945D01*
Y-118898D01*
X785630Y-121850D01*
X787598Y-122835D01*
X789567Y-121850D01*
X790551Y-119882D01*
X791535Y-114961D01*
X792520Y-112992D01*
X794488Y-112008D01*
X795472D01*
X797441Y-112992D01*
X798425Y-115945D01*
Y-118898D01*
X797441Y-121850D01*
X795472Y-122835D01*
X777756Y-89370D02*
X798425D01*
X777756D02*
X798425Y-81496D01*
X777756Y-73622D02*
X798425Y-81496D01*
X777756Y-73622D02*
X798425D01*
X784646Y-61811D02*
X785630Y-63780D01*
X787598Y-65748D01*
X790551Y-66732D01*
X792520D01*
X795472Y-65748D01*
X797441Y-63780D01*
X798425Y-61811D01*
Y-58858D01*
X797441Y-56890D01*
X795472Y-54921D01*
X792520Y-53937D01*
X790551D01*
X787598Y-54921D01*
X785630Y-56890D01*
X784646Y-58858D01*
Y-61811D01*
X777756Y-36220D02*
X798425D01*
X787598D02*
X785630Y-38189D01*
X784646Y-40157D01*
Y-43110D01*
X785630Y-45079D01*
X787598Y-47047D01*
X790551Y-48031D01*
X792520D01*
X795472Y-47047D01*
X797441Y-45079D01*
X798425Y-43110D01*
Y-40157D01*
X797441Y-38189D01*
X795472Y-36220D01*
X784646Y-28346D02*
X794488D01*
X797441Y-27362D01*
X798425Y-25394D01*
Y-22441D01*
X797441Y-20472D01*
X794488Y-17520D01*
X784646D02*
X798425D01*
X777756Y-9646D02*
X798425D01*
X790551Y-2756D02*
Y9055D01*
X788583D01*
X786614Y8071D01*
X785630Y7087D01*
X784646Y5118D01*
Y2165D01*
X785630Y197D01*
X787598Y-1772D01*
X790551Y-2756D01*
X792520D01*
X795472Y-1772D01*
X797441Y197D01*
X798425Y2165D01*
Y5118D01*
X797441Y7087D01*
X795472Y9055D01*
X777756Y36614D02*
X778740Y34646D01*
X780709Y32677D01*
X782677Y31693D01*
X785630Y30709D01*
X790551D01*
X793504Y31693D01*
X795472Y32677D01*
X797441Y34646D01*
X798425Y36614D01*
Y40551D01*
X797441Y42520D01*
X795472Y44488D01*
X793504Y45472D01*
X790551Y46457D01*
X785630D01*
X782677Y45472D01*
X780709Y44488D01*
X778740Y42520D01*
X777756Y40551D01*
Y36614D01*
Y57283D02*
X798425D01*
X777756Y50394D02*
Y64173D01*
Y69094D02*
X798425D01*
X777756D02*
Y75984D01*
X778740Y78937D01*
X780709Y80906D01*
X782677Y81890D01*
X785630Y82874D01*
X790551D01*
X793504Y81890D01*
X795472Y80906D01*
X797441Y78937D01*
X798425Y75984D01*
Y69094D01*
X777756Y89764D02*
X798425D01*
X777756D02*
Y98622D01*
X778740Y101575D01*
X779724Y102559D01*
X781693Y103543D01*
X783661D01*
X785630Y102559D01*
X786614Y101575D01*
X787598Y98622D01*
Y89764D01*
Y96654D02*
X798425Y103543D01*
X777756Y123228D02*
X798425Y131102D01*
X777756Y138976D02*
X798425Y131102D01*
X781693Y145866D02*
X780709Y147835D01*
X777756Y150787D01*
X798425D01*
X777756Y180315D02*
X794488D01*
X797441Y181299D01*
X798425Y183268D01*
Y185236D01*
X784646Y177362D02*
Y184252D01*
Y195079D02*
X785630Y193110D01*
X787598Y191142D01*
X790551Y190157D01*
X792520D01*
X795472Y191142D01*
X797441Y193110D01*
X798425Y195079D01*
Y198031D01*
X797441Y200000D01*
X795472Y201969D01*
X792520Y202953D01*
X790551D01*
X787598Y201969D01*
X785630Y200000D01*
X784646Y198031D01*
Y195079D01*
Y209843D02*
X805315D01*
X787598D02*
X785630Y211811D01*
X784646Y213780D01*
Y216732D01*
X785630Y218701D01*
X787598Y220669D01*
X790551Y221654D01*
X792520D01*
X795472Y220669D01*
X797441Y218701D01*
X798425Y216732D01*
Y213780D01*
X797441Y211811D01*
X795472Y209843D01*
G01X-809252Y196850D02*
X-829921D01*
X-809252D02*
X-829921Y188976D01*
X-809252Y181102D02*
X-829921Y188976D01*
X-809252Y181102D02*
X-829921D01*
X-809252Y173228D02*
X-829921D01*
X-809252D02*
Y166339D01*
X-810236Y163386D01*
X-812205Y161417D01*
X-814173Y160433D01*
X-817126Y159449D01*
X-822047D01*
X-825000Y160433D01*
X-826969Y161417D01*
X-828937Y163386D01*
X-829921Y166339D01*
Y173228D01*
X-809252Y136811D02*
X-829921D01*
X-809252D02*
Y127953D01*
X-810236Y125000D01*
X-811220Y124016D01*
X-813189Y123031D01*
X-816142D01*
X-818110Y124016D01*
X-819094Y125000D01*
X-820079Y127953D01*
Y136811D01*
X-809252Y116142D02*
X-829921D01*
X-816142Y108268D02*
X-825984D01*
X-828937Y107283D01*
X-829921Y105315D01*
Y102362D01*
X-828937Y100394D01*
X-825984Y97441D01*
X-816142D02*
X-829921D01*
X-819094Y79724D02*
X-817126Y80709D01*
X-816142Y83661D01*
Y86614D01*
X-817126Y89567D01*
X-819094Y90551D01*
X-821063Y89567D01*
X-822047Y87598D01*
X-823032Y82677D01*
X-824016Y80709D01*
X-825984Y79724D01*
X-826969D01*
X-828937Y80709D01*
X-829921Y83661D01*
Y86614D01*
X-828937Y89567D01*
X-826969Y90551D01*
X-809252Y57087D02*
X-829921D01*
X-809252D02*
X-829921Y49213D01*
X-809252Y41339D02*
X-829921Y49213D01*
X-809252Y41339D02*
X-829921D01*
X-816142Y29528D02*
X-817126Y31496D01*
X-819094Y33465D01*
X-822047Y34449D01*
X-824016D01*
X-826969Y33465D01*
X-828937Y31496D01*
X-829921Y29528D01*
Y26575D01*
X-828937Y24606D01*
X-826969Y22638D01*
X-824016Y21654D01*
X-822047D01*
X-819094Y22638D01*
X-817126Y24606D01*
X-816142Y26575D01*
Y29528D01*
X-809252Y3937D02*
X-829921D01*
X-819094D02*
X-817126Y5906D01*
X-816142Y7874D01*
Y10827D01*
X-817126Y12795D01*
X-819094Y14764D01*
X-822047Y15748D01*
X-824016D01*
X-826969Y14764D01*
X-828937Y12795D01*
X-829921Y10827D01*
Y7874D01*
X-828937Y5906D01*
X-826969Y3937D01*
X-816142Y-3937D02*
X-825984D01*
X-828937Y-4921D01*
X-829921Y-6890D01*
Y-9843D01*
X-828937Y-11811D01*
X-825984Y-14764D01*
X-816142D02*
X-829921D01*
X-809252Y-22638D02*
X-829921D01*
X-822047Y-29528D02*
Y-41339D01*
X-820079D01*
X-818110Y-40354D01*
X-817126Y-39370D01*
X-816142Y-37402D01*
Y-34449D01*
X-817126Y-32480D01*
X-819094Y-30512D01*
X-822047Y-29528D01*
X-824016D01*
X-826969Y-30512D01*
X-828937Y-32480D01*
X-829921Y-34449D01*
Y-37402D01*
X-828937Y-39370D01*
X-826969Y-41339D01*
X-809252Y-68898D02*
X-810236Y-66929D01*
X-812205Y-64961D01*
X-814173Y-63976D01*
X-817126Y-62992D01*
X-822047D01*
X-825000Y-63976D01*
X-826969Y-64961D01*
X-828937Y-66929D01*
X-829921Y-68898D01*
Y-72835D01*
X-828937Y-74803D01*
X-826969Y-76772D01*
X-825000Y-77756D01*
X-822047Y-78740D01*
X-817126D01*
X-814173Y-77756D01*
X-812205Y-76772D01*
X-810236Y-74803D01*
X-809252Y-72835D01*
Y-68898D01*
Y-89567D02*
X-829921D01*
X-809252Y-82677D02*
Y-96457D01*
Y-101378D02*
X-829921D01*
X-809252D02*
Y-108268D01*
X-810236Y-111220D01*
X-812205Y-113189D01*
X-814173Y-114173D01*
X-817126Y-115157D01*
X-822047D01*
X-825000Y-114173D01*
X-826969Y-113189D01*
X-828937Y-111220D01*
X-829921Y-108268D01*
Y-101378D01*
X-809252Y-122047D02*
X-829921D01*
X-809252D02*
Y-130906D01*
X-810236Y-133858D01*
X-811220Y-134843D01*
X-813189Y-135827D01*
X-815157D01*
X-817126Y-134843D01*
X-818110Y-133858D01*
X-819094Y-130906D01*
Y-122047D01*
Y-128937D02*
X-829921Y-135827D01*
X-809252Y-155512D02*
X-829921Y-163386D01*
X-809252Y-171260D02*
X-829921Y-163386D01*
X-813189Y-178150D02*
X-812205Y-180118D01*
X-809252Y-183071D01*
X-829921D01*
X-809252Y-211614D02*
X-829921D01*
X-819094D02*
X-817126Y-213583D01*
X-816142Y-215551D01*
Y-218504D01*
X-817126Y-220472D01*
X-819094Y-222441D01*
X-822047Y-223425D01*
X-824016D01*
X-826969Y-222441D01*
X-828937Y-220472D01*
X-829921Y-218504D01*
Y-215551D01*
X-828937Y-213583D01*
X-826969Y-211614D01*
X-816142Y-234252D02*
X-817126Y-232283D01*
X-819094Y-230315D01*
X-822047Y-229331D01*
X-824016D01*
X-826969Y-230315D01*
X-828937Y-232283D01*
X-829921Y-234252D01*
Y-237205D01*
X-828937Y-239173D01*
X-826969Y-241142D01*
X-824016Y-242126D01*
X-822047D01*
X-819094Y-241142D01*
X-817126Y-239173D01*
X-816142Y-237205D01*
Y-234252D01*
X-809252Y-250000D02*
X-825984D01*
X-828937Y-250984D01*
X-829921Y-252953D01*
Y-254921D01*
X-816142Y-247047D02*
Y-253937D01*
M02*
