*
%LPD*%
%FSLAX24Y24*%
%MOIN*%
%AD*%
%ADD111C,0.009843*%
%ADD240R,0.01575X0.01575*%
%ADD241R,0.01969X0.02362*%
%ADD242R,0.02362X0.01969*%
%ADD255R,0.02362X0.03543*%
%ADD258R,0.062992X0.015748*%
%ADD259R,0.009843X0.025591*%
%ADD260R,0.009843X0.062992*%
%ADD261R,0.0315X0.07087*%
%ADD262R,0.03347X0.02559*%
%ADD263R,0.0374X0.02559*%
%ADD264R,0.051181X0.03937*%
%ADD265R,0.043307X0.066929*%
G54D240*
%SRX1Y1I0.0J0.0*%
G1X4622Y11160D3*
G1X4346Y11160D3*
G1X8016Y11160D3*
G1X8292Y11160D3*
G54D242*
G1X11754Y11097D3*
G1X11754Y10723D3*
G1X11354Y10723D3*
G1X11354Y11097D3*
G1X10954Y10723D3*
G1X10954Y11097D3*
G1X3104Y10523D3*
G1X3104Y10897D3*
G1X9104Y7473D3*
G1X9104Y7847D3*
G1X9704Y7473D3*
G1X9704Y7847D3*
G1X2604Y10523D3*
G1X2604Y10897D3*
G1X11204Y8747D3*
G1X11204Y8373D3*
G1X3454Y6173D3*
G1X3454Y6547D3*
G1X9704Y6673D3*
G1X9704Y7047D3*
G1X2604Y11697D3*
G1X2604Y11323D3*
G1X11604Y7997D3*
G1X11604Y7623D3*
G1X11204Y7997D3*
G1X11204Y7623D3*
G1X3104Y11323D3*
G1X3104Y11697D3*
G1X9704Y6197D3*
G1X9704Y5823D3*
G1X11204Y5597D3*
G1X11204Y5223D3*
G54D241*
G1X8717Y11160D3*
G1X9091Y11160D3*
G1X10141Y11460D3*
G1X9767Y11460D3*
G1X9767Y12310D3*
G1X10141Y12310D3*
G1X2641Y8460D3*
G1X2267Y8460D3*
G1X3067Y8460D3*
G1X3441Y8460D3*
G1X3441Y7360D3*
G1X3067Y7360D3*
G1X10141Y11910D3*
G1X9767Y11910D3*
G1X2267Y7360D3*
G1X2641Y7360D3*
G54D255*
G1X10609Y12310D3*
G1X11199Y12310D3*
G54D240*
G1X4004Y7282D3*
G1X4004Y7557D3*
G54D258*
G1X9354Y9910D3*
G54D259*
G1X9059Y10466D3*
G1X9256Y10466D3*
G1X9452Y10466D3*
G1X9649Y10466D3*
G1X9649Y9353D3*
G1X9452Y9353D3*
G1X9256Y9353D3*
G1X9059Y9353D3*
G54D260*
G1X4512Y5268D3*
G1X4709Y5268D3*
G1X4906Y5268D3*
G1X5102Y5268D3*
G1X5299Y5268D3*
G1X5496Y5268D3*
G1X5693Y5268D3*
G1X5890Y5268D3*
G1X6087Y5268D3*
G1X6283Y5268D3*
G1X6480Y5268D3*
G1X6677Y5268D3*
G1X6874Y5268D3*
G1X7071Y5268D3*
G1X7268Y5268D3*
G1X7465Y5268D3*
G1X7661Y5268D3*
G1X7858Y5268D3*
G1X8055Y5268D3*
G1X8252Y5268D3*
G1X8449Y5268D3*
G1X8646Y5268D3*
G1X8843Y5268D3*
G1X9039Y5268D3*
G1X9236Y5268D3*
G1X4512Y3851D3*
G1X4709Y3851D3*
G1X4906Y3851D3*
G1X5102Y3851D3*
G1X5299Y3851D3*
G1X5496Y3851D3*
G1X5693Y3851D3*
G1X5890Y3851D3*
G1X6087Y3851D3*
G1X6283Y3851D3*
G1X6480Y3851D3*
G1X6677Y3851D3*
G1X6874Y3851D3*
G1X7071Y3851D3*
G1X7268Y3851D3*
G1X7465Y3851D3*
G1X7661Y3851D3*
G1X7858Y3851D3*
G1X8055Y3851D3*
G1X8252Y3851D3*
G1X8449Y3851D3*
G1X8646Y3851D3*
G1X8843Y3851D3*
G1X9039Y3851D3*
G1X9236Y3851D3*
G54D261*
G1X9905Y4560D3*
G1X3843Y4560D3*
G54D262*
G1X2914Y6810D3*
G1X2304Y6810D3*
G1X2914Y6160D3*
G1X2304Y6160D3*
G54D263*
G1X11101Y10134D3*
G1X11101Y9386D3*
G1X12007Y9760D3*
G1X11101Y7034D3*
G1X11101Y6286D3*
G1X12007Y6660D3*
G54D264*
G1X3307Y9105D3*
G1X3307Y9814D3*
G1X2401Y9105D3*
G1X2401Y9814D3*
G54D265*
G1X8201Y11910D3*
G1X9107Y11910D3*
G54D111*
G1X7291Y10628D3*
G1X5126Y10628D3*
G1X6110Y10628D3*
G1X4929Y10628D3*
G1X6898Y10628D3*
G1X4732Y10628D3*
G1X6701Y10628D3*
G1X4536Y10628D3*
G1X8473Y10628D3*
G1X8473Y10431D3*
G1X8473Y10234D3*
G1X8473Y10037D3*
G1X8473Y9841D3*
G1X8473Y9644D3*
G1X8473Y9250D3*
G1X8473Y9053D3*
G1X8473Y8856D3*
G1X8473Y8660D3*
G1X8473Y8463D3*
G1X8473Y8266D3*
G1X8473Y8069D3*
G1X8473Y7872D3*
G1X8473Y7675D3*
G1X8473Y7478D3*
G1X8473Y7282D3*
G1X8473Y7085D3*
G1X8473Y6888D3*
G1X8473Y6691D3*
G1X8276Y10628D3*
G1X8276Y10431D3*
G1X8276Y10234D3*
G1X8276Y10037D3*
G1X8276Y9841D3*
G1X8276Y9644D3*
G1X8276Y9250D3*
G1X8276Y9053D3*
G1X8276Y8856D3*
G1X8276Y8660D3*
G1X8276Y8463D3*
G1X8276Y8266D3*
G1X8276Y8069D3*
G1X8276Y7872D3*
G1X8276Y7675D3*
G1X8276Y7478D3*
G1X8276Y7282D3*
G1X8276Y7085D3*
G1X8276Y6888D3*
G1X8276Y6691D3*
G1X8079Y10628D3*
G1X8079Y10431D3*
G1X8079Y6888D3*
G1X8079Y6691D3*
G1X7882Y10628D3*
G1X7882Y10431D3*
G1X7882Y10037D3*
G1X7882Y9841D3*
G1X7882Y9644D3*
G1X7882Y9447D3*
G1X7882Y9250D3*
G1X7882Y9053D3*
G1X7882Y8856D3*
G1X7882Y8660D3*
G1X7882Y8463D3*
G1X7882Y8266D3*
G1X7882Y8069D3*
G1X7882Y7872D3*
G1X7882Y7675D3*
G1X7882Y7478D3*
G1X7882Y7282D3*
G1X7882Y6888D3*
G1X7882Y6691D3*
G1X7685Y10628D3*
G1X7685Y10431D3*
G1X7685Y10037D3*
G1X7685Y9841D3*
G1X7685Y9644D3*
G1X7685Y9447D3*
G1X7685Y9250D3*
G1X7685Y9053D3*
G1X7685Y8856D3*
G1X7685Y8660D3*
G1X7685Y8463D3*
G1X7685Y8069D3*
G1X7685Y7872D3*
G1X7685Y7675D3*
G1X7685Y7478D3*
G1X7685Y7282D3*
G1X7685Y6888D3*
G1X7685Y6691D3*
G1X7488Y10628D3*
G1X7488Y10431D3*
G1X7488Y10037D3*
G1X7488Y9841D3*
G1X7488Y7478D3*
G1X7488Y7282D3*
G1X7488Y6888D3*
G1X7291Y10431D3*
G1X7291Y10037D3*
G1X7291Y9841D3*
G1X7291Y7478D3*
G1X7291Y7282D3*
G1X7291Y6888D3*
G1X7291Y6691D3*
G1X7095Y10431D3*
G1X7095Y10037D3*
G1X7095Y9841D3*
G1X7095Y7478D3*
G1X7095Y7282D3*
G1X7095Y6888D3*
G1X7095Y6691D3*
G1X6898Y10431D3*
G1X6898Y10037D3*
G1X6898Y9841D3*
G1X6898Y7478D3*
G1X6898Y7282D3*
G1X6898Y6888D3*
G1X6898Y6691D3*
G1X6701Y10431D3*
G1X6701Y10037D3*
G1X6701Y9841D3*
G1X6701Y7478D3*
G1X6701Y7282D3*
G1X6701Y6888D3*
G1X6701Y6691D3*
G1X6504Y10628D3*
G1X6504Y10431D3*
G1X6504Y10037D3*
G1X6504Y9841D3*
G1X6504Y7282D3*
G1X6504Y6888D3*
G1X6504Y6691D3*
G1X6307Y10628D3*
G1X6307Y10431D3*
G1X6307Y10037D3*
G1X6307Y9841D3*
G1X6307Y7478D3*
G1X6307Y7282D3*
G1X6307Y6888D3*
G1X6307Y6691D3*
G1X6110Y10431D3*
G1X6110Y10037D3*
G1X6110Y9841D3*
G1X6110Y7478D3*
G1X6110Y7282D3*
G1X6110Y6888D3*
G1X5913Y10628D3*
G1X5913Y10431D3*
G1X5913Y10037D3*
G1X5913Y9841D3*
G1X5913Y7478D3*
G1X5913Y7282D3*
G1X5913Y6888D3*
G1X5717Y10628D3*
G1X5717Y10431D3*
G1X5717Y10037D3*
G1X5717Y9841D3*
G1X5717Y7478D3*
G1X5717Y7282D3*
G1X5717Y6888D3*
G1X5717Y6691D3*
G1X5520Y10628D3*
G1X5520Y10431D3*
G1X5520Y10037D3*
G1X5520Y9841D3*
G1X5520Y7478D3*
G1X5520Y7282D3*
G1X5520Y6888D3*
G1X5520Y6691D3*
G1X5323Y10628D3*
G1X5323Y10431D3*
G1X5323Y10037D3*
G1X5323Y9841D3*
G1X5323Y9644D3*
G1X5323Y9447D3*
G1X5323Y9053D3*
G1X5323Y8856D3*
G1X5323Y8660D3*
G1X5323Y8463D3*
G1X5323Y8266D3*
G1X5323Y8069D3*
G1X5323Y7872D3*
G1X5323Y7675D3*
G1X5323Y7478D3*
G1X5323Y7282D3*
G1X5323Y6888D3*
G1X5323Y6691D3*
G1X5126Y10431D3*
G1X5126Y10037D3*
G1X5126Y9841D3*
G1X5126Y9644D3*
G1X5126Y9447D3*
G1X5126Y9250D3*
G1X5126Y9053D3*
G1X5126Y8856D3*
G1X5126Y8660D3*
G1X5126Y8463D3*
G1X5126Y8266D3*
G1X5126Y8069D3*
G1X5126Y7872D3*
G1X5126Y7675D3*
G1X5126Y7478D3*
G1X5126Y7282D3*
G1X5126Y6888D3*
G1X5126Y6691D3*
G1X4929Y10431D3*
G1X4929Y6888D3*
G1X4929Y6691D3*
G1X4732Y10431D3*
G1X4732Y10234D3*
G1X4732Y10037D3*
G1X4732Y9841D3*
G1X4732Y9644D3*
G1X4732Y9447D3*
G1X4732Y9250D3*
G1X4732Y9053D3*
G1X4732Y8856D3*
G1X4732Y8660D3*
G1X4732Y8463D3*
G1X4732Y8266D3*
G1X4732Y8069D3*
G1X4732Y7872D3*
G1X4732Y7675D3*
G1X4732Y7478D3*
G1X4732Y7282D3*
G1X4732Y7085D3*
G1X4732Y6888D3*
G1X4732Y6691D3*
G1X4536Y10431D3*
G1X4536Y10234D3*
G1X4536Y10037D3*
G1X4536Y9841D3*
G1X4536Y9644D3*
G1X4536Y9447D3*
G1X4536Y9250D3*
G1X4536Y9053D3*
G1X4536Y8856D3*
G1X4536Y8660D3*
G1X4536Y8463D3*
G1X4536Y8266D3*
G1X4536Y8069D3*
G1X4536Y7872D3*
G1X4536Y7675D3*
G1X4536Y7478D3*
G1X4536Y7282D3*
G1X4536Y7085D3*
G1X4536Y6888D3*
G1X4536Y6691D3*
G54D240*
G1X4622Y21947D3*
G1X4346Y21947D3*
G1X8016Y21947D3*
G1X8292Y21947D3*
G54D242*
G1X11754Y21884D3*
G1X11754Y21510D3*
G1X11354Y21510D3*
G1X11354Y21884D3*
G1X10954Y21510D3*
G1X10954Y21884D3*
G1X3104Y21310D3*
G1X3104Y21684D3*
G1X9104Y18260D3*
G1X9104Y18634D3*
G1X9704Y18260D3*
G1X9704Y18634D3*
G1X2604Y21310D3*
G1X2604Y21684D3*
G1X11204Y19534D3*
G1X11204Y19160D3*
G1X3454Y16960D3*
G1X3454Y17334D3*
G1X9704Y17460D3*
G1X9704Y17834D3*
G1X2604Y22484D3*
G1X2604Y22110D3*
G1X11604Y18784D3*
G1X11604Y18410D3*
G1X11204Y18784D3*
G1X11204Y18410D3*
G1X3104Y22110D3*
G1X3104Y22484D3*
G1X9704Y16984D3*
G1X9704Y16610D3*
G1X11204Y16384D3*
G1X11204Y16010D3*
G54D241*
G1X8717Y21947D3*
G1X9091Y21947D3*
G1X10141Y22247D3*
G1X9767Y22247D3*
G1X9767Y23097D3*
G1X10141Y23097D3*
G1X2641Y19247D3*
G1X2267Y19247D3*
G1X3067Y19247D3*
G1X3441Y19247D3*
G1X3441Y18147D3*
G1X3067Y18147D3*
G1X10141Y22697D3*
G1X9767Y22697D3*
G1X2267Y18147D3*
G1X2641Y18147D3*
G54D255*
G1X10609Y23097D3*
G1X11199Y23097D3*
G54D240*
G1X4004Y18069D3*
G1X4004Y18344D3*
G54D258*
G1X9354Y20697D3*
G54D259*
G1X9059Y21253D3*
G1X9256Y21253D3*
G1X9452Y21253D3*
G1X9649Y21253D3*
G1X9649Y20140D3*
G1X9452Y20140D3*
G1X9256Y20140D3*
G1X9059Y20140D3*
G54D260*
G1X4512Y16055D3*
G1X4709Y16055D3*
G1X4906Y16055D3*
G1X5102Y16055D3*
G1X5299Y16055D3*
G1X5496Y16055D3*
G1X5693Y16055D3*
G1X5890Y16055D3*
G1X6087Y16055D3*
G1X6283Y16055D3*
G1X6480Y16055D3*
G1X6677Y16055D3*
G1X6874Y16055D3*
G1X7071Y16055D3*
G1X7268Y16055D3*
G1X7465Y16055D3*
G1X7661Y16055D3*
G1X7858Y16055D3*
G1X8055Y16055D3*
G1X8252Y16055D3*
G1X8449Y16055D3*
G1X8646Y16055D3*
G1X8843Y16055D3*
G1X9039Y16055D3*
G1X9236Y16055D3*
G1X4512Y14638D3*
G1X4709Y14638D3*
G1X4906Y14638D3*
G1X5102Y14638D3*
G1X5299Y14638D3*
G1X5496Y14638D3*
G1X5693Y14638D3*
G1X5890Y14638D3*
G1X6087Y14638D3*
G1X6283Y14638D3*
G1X6480Y14638D3*
G1X6677Y14638D3*
G1X6874Y14638D3*
G1X7071Y14638D3*
G1X7268Y14638D3*
G1X7465Y14638D3*
G1X7661Y14638D3*
G1X7858Y14638D3*
G1X8055Y14638D3*
G1X8252Y14638D3*
G1X8449Y14638D3*
G1X8646Y14638D3*
G1X8843Y14638D3*
G1X9039Y14638D3*
G1X9236Y14638D3*
G54D261*
G1X9905Y15347D3*
G1X3843Y15347D3*
G54D262*
G1X2914Y17597D3*
G1X2304Y17597D3*
G1X2914Y16947D3*
G1X2304Y16947D3*
G54D263*
G1X11101Y20921D3*
G1X11101Y20173D3*
G1X12007Y20547D3*
G1X11101Y17821D3*
G1X11101Y17073D3*
G1X12007Y17447D3*
G54D264*
G1X3307Y19892D3*
G1X3307Y20601D3*
G1X2401Y19892D3*
G1X2401Y20601D3*
G54D265*
G1X8201Y22697D3*
G1X9107Y22697D3*
G54D111*
G1X7291Y21415D3*
G1X5126Y21415D3*
G1X6110Y21415D3*
G1X4929Y21415D3*
G1X6898Y21415D3*
G1X4732Y21415D3*
G1X6701Y21415D3*
G1X4536Y21415D3*
G1X8473Y21415D3*
G1X8473Y21218D3*
G1X8473Y21021D3*
G1X8473Y20824D3*
G1X8473Y20628D3*
G1X8473Y20431D3*
G1X8473Y20037D3*
G1X8473Y19840D3*
G1X8473Y19643D3*
G1X8473Y19447D3*
G1X8473Y19250D3*
G1X8473Y19053D3*
G1X8473Y18856D3*
G1X8473Y18659D3*
G1X8473Y18462D3*
G1X8473Y18265D3*
G1X8473Y18069D3*
G1X8473Y17872D3*
G1X8473Y17675D3*
G1X8473Y17478D3*
G1X8276Y21415D3*
G1X8276Y21218D3*
G1X8276Y21021D3*
G1X8276Y20824D3*
G1X8276Y20628D3*
G1X8276Y20431D3*
G1X8276Y20037D3*
G1X8276Y19840D3*
G1X8276Y19643D3*
G1X8276Y19447D3*
G1X8276Y19250D3*
G1X8276Y19053D3*
G1X8276Y18856D3*
G1X8276Y18659D3*
G1X8276Y18462D3*
G1X8276Y18265D3*
G1X8276Y18069D3*
G1X8276Y17872D3*
G1X8276Y17675D3*
G1X8276Y17478D3*
G1X8079Y21415D3*
G1X8079Y21218D3*
G1X8079Y17675D3*
G1X8079Y17478D3*
G1X7882Y21415D3*
G1X7882Y21218D3*
G1X7882Y20824D3*
G1X7882Y20628D3*
G1X7882Y20431D3*
G1X7882Y20234D3*
G1X7882Y20037D3*
G1X7882Y19840D3*
G1X7882Y19643D3*
G1X7882Y19447D3*
G1X7882Y19250D3*
G1X7882Y19053D3*
G1X7882Y18856D3*
G1X7882Y18659D3*
G1X7882Y18462D3*
G1X7882Y18265D3*
G1X7882Y18069D3*
G1X7882Y17675D3*
G1X7882Y17478D3*
G1X7685Y21415D3*
G1X7685Y21218D3*
G1X7685Y20824D3*
G1X7685Y20628D3*
G1X7685Y20431D3*
G1X7685Y20234D3*
G1X7685Y20037D3*
G1X7685Y19840D3*
G1X7685Y19643D3*
G1X7685Y19447D3*
G1X7685Y19250D3*
G1X7685Y18856D3*
G1X7685Y18659D3*
G1X7685Y18462D3*
G1X7685Y18265D3*
G1X7685Y18069D3*
G1X7685Y17675D3*
G1X7685Y17478D3*
G1X7488Y21415D3*
G1X7488Y21218D3*
G1X7488Y20824D3*
G1X7488Y20628D3*
G1X7488Y18265D3*
G1X7488Y18069D3*
G1X7488Y17675D3*
G1X7291Y21218D3*
G1X7291Y20824D3*
G1X7291Y20628D3*
G1X7291Y18265D3*
G1X7291Y18069D3*
G1X7291Y17675D3*
G1X7291Y17478D3*
G1X7095Y21218D3*
G1X7095Y20824D3*
G1X7095Y20628D3*
G1X7095Y18265D3*
G1X7095Y18069D3*
G1X7095Y17675D3*
G1X7095Y17478D3*
G1X6898Y21218D3*
G1X6898Y20824D3*
G1X6898Y20628D3*
G1X6898Y18265D3*
G1X6898Y18069D3*
G1X6898Y17675D3*
G1X6898Y17478D3*
G1X6701Y21218D3*
G1X6701Y20824D3*
G1X6701Y20628D3*
G1X6701Y18265D3*
G1X6701Y18069D3*
G1X6701Y17675D3*
G1X6701Y17478D3*
G1X6504Y21415D3*
G1X6504Y21218D3*
G1X6504Y20824D3*
G1X6504Y20628D3*
G1X6504Y18069D3*
G1X6504Y17675D3*
G1X6504Y17478D3*
G1X6307Y21415D3*
G1X6307Y21218D3*
G1X6307Y20824D3*
G1X6307Y20628D3*
G1X6307Y18265D3*
G1X6307Y18069D3*
G1X6307Y17675D3*
G1X6307Y17478D3*
G1X6110Y21218D3*
G1X6110Y20824D3*
G1X6110Y20628D3*
G1X6110Y18265D3*
G1X6110Y18069D3*
G1X6110Y17675D3*
G1X5913Y21415D3*
G1X5913Y21218D3*
G1X5913Y20824D3*
G1X5913Y20628D3*
G1X5913Y18265D3*
G1X5913Y18069D3*
G1X5913Y17675D3*
G1X5717Y21415D3*
G1X5717Y21218D3*
G1X5717Y20824D3*
G1X5717Y20628D3*
G1X5717Y18265D3*
G1X5717Y18069D3*
G1X5717Y17675D3*
G1X5717Y17478D3*
G1X5520Y21415D3*
G1X5520Y21218D3*
G1X5520Y20824D3*
G1X5520Y20628D3*
G1X5520Y18265D3*
G1X5520Y18069D3*
G1X5520Y17675D3*
G1X5520Y17478D3*
G1X5323Y21415D3*
G1X5323Y21218D3*
G1X5323Y20824D3*
G1X5323Y20628D3*
G1X5323Y20431D3*
G1X5323Y20234D3*
G1X5323Y19840D3*
G1X5323Y19643D3*
G1X5323Y19447D3*
G1X5323Y19250D3*
G1X5323Y19053D3*
G1X5323Y18856D3*
G1X5323Y18659D3*
G1X5323Y18462D3*
G1X5323Y18265D3*
G1X5323Y18069D3*
G1X5323Y17675D3*
G1X5323Y17478D3*
G1X5126Y21218D3*
G1X5126Y20824D3*
G1X5126Y20628D3*
G1X5126Y20431D3*
G1X5126Y20234D3*
G1X5126Y20037D3*
G1X5126Y19840D3*
G1X5126Y19643D3*
G1X5126Y19447D3*
G1X5126Y19250D3*
G1X5126Y19053D3*
G1X5126Y18856D3*
G1X5126Y18659D3*
G1X5126Y18462D3*
G1X5126Y18265D3*
G1X5126Y18069D3*
G1X5126Y17675D3*
G1X5126Y17478D3*
G1X4929Y21218D3*
G1X4929Y17675D3*
G1X4929Y17478D3*
G1X4732Y21218D3*
G1X4732Y21021D3*
G1X4732Y20824D3*
G1X4732Y20628D3*
G1X4732Y20431D3*
G1X4732Y20234D3*
G1X4732Y20037D3*
G1X4732Y19840D3*
G1X4732Y19643D3*
G1X4732Y19447D3*
G1X4732Y19250D3*
G1X4732Y19053D3*
G1X4732Y18856D3*
G1X4732Y18659D3*
G1X4732Y18462D3*
G1X4732Y18265D3*
G1X4732Y18069D3*
G1X4732Y17872D3*
G1X4732Y17675D3*
G1X4732Y17478D3*
G1X4536Y21218D3*
G1X4536Y21021D3*
G1X4536Y20824D3*
G1X4536Y20628D3*
G1X4536Y20431D3*
G1X4536Y20234D3*
G1X4536Y20037D3*
G1X4536Y19840D3*
G1X4536Y19643D3*
G1X4536Y19447D3*
G1X4536Y19250D3*
G1X4536Y19053D3*
G1X4536Y18856D3*
G1X4536Y18659D3*
G1X4536Y18462D3*
G1X4536Y18265D3*
G1X4536Y18069D3*
G1X4536Y17872D3*
G1X4536Y17675D3*
G1X4536Y17478D3*
G54D240*
G1X4622Y32734D3*
G1X4346Y32734D3*
G1X8016Y32734D3*
G1X8292Y32734D3*
G54D242*
G1X11754Y32671D3*
G1X11754Y32297D3*
G1X11354Y32297D3*
G1X11354Y32671D3*
G1X10954Y32297D3*
G1X10954Y32671D3*
G1X3104Y32097D3*
G1X3104Y32471D3*
G1X9104Y29047D3*
G1X9104Y29421D3*
G1X9704Y29047D3*
G1X9704Y29421D3*
G1X2604Y32097D3*
G1X2604Y32471D3*
G1X11204Y30321D3*
G1X11204Y29947D3*
G1X3454Y27747D3*
G1X3454Y28121D3*
G1X9704Y28247D3*
G1X9704Y28621D3*
G1X2604Y33271D3*
G1X2604Y32897D3*
G1X11604Y29571D3*
G1X11604Y29197D3*
G1X11204Y29571D3*
G1X11204Y29197D3*
G1X3104Y32897D3*
G1X3104Y33271D3*
G1X9704Y27771D3*
G1X9704Y27397D3*
G1X11204Y27171D3*
G1X11204Y26797D3*
G54D241*
G1X8717Y32734D3*
G1X9091Y32734D3*
G1X10141Y33034D3*
G1X9767Y33034D3*
G1X9767Y33884D3*
G1X10141Y33884D3*
G1X2641Y30034D3*
G1X2267Y30034D3*
G1X3067Y30034D3*
G1X3441Y30034D3*
G1X3441Y28934D3*
G1X3067Y28934D3*
G1X10141Y33484D3*
G1X9767Y33484D3*
G1X2267Y28934D3*
G1X2641Y28934D3*
G54D255*
G1X10609Y33884D3*
G1X11199Y33884D3*
G54D240*
G1X4004Y28856D3*
G1X4004Y29131D3*
G54D258*
G1X9354Y31484D3*
G54D259*
G1X9059Y32040D3*
G1X9256Y32040D3*
G1X9452Y32040D3*
G1X9649Y32040D3*
G1X9649Y30927D3*
G1X9452Y30927D3*
G1X9256Y30927D3*
G1X9059Y30927D3*
G54D260*
G1X4512Y26842D3*
G1X4709Y26842D3*
G1X4906Y26842D3*
G1X5102Y26842D3*
G1X5299Y26842D3*
G1X5496Y26842D3*
G1X5693Y26842D3*
G1X5890Y26842D3*
G1X6087Y26842D3*
G1X6283Y26842D3*
G1X6480Y26842D3*
G1X6677Y26842D3*
G1X6874Y26842D3*
G1X7071Y26842D3*
G1X7268Y26842D3*
G1X7465Y26842D3*
G1X7661Y26842D3*
G1X7858Y26842D3*
G1X8055Y26842D3*
G1X8252Y26842D3*
G1X8449Y26842D3*
G1X8646Y26842D3*
G1X8843Y26842D3*
G1X9039Y26842D3*
G1X9236Y26842D3*
G1X4512Y25425D3*
G1X4709Y25425D3*
G1X4906Y25425D3*
G1X5102Y25425D3*
G1X5299Y25425D3*
G1X5496Y25425D3*
G1X5693Y25425D3*
G1X5890Y25425D3*
G1X6087Y25425D3*
G1X6283Y25425D3*
G1X6480Y25425D3*
G1X6677Y25425D3*
G1X6874Y25425D3*
G1X7071Y25425D3*
G1X7268Y25425D3*
G1X7465Y25425D3*
G1X7661Y25425D3*
G1X7858Y25425D3*
G1X8055Y25425D3*
G1X8252Y25425D3*
G1X8449Y25425D3*
G1X8646Y25425D3*
G1X8843Y25425D3*
G1X9039Y25425D3*
G1X9236Y25425D3*
G54D261*
G1X9905Y26134D3*
G1X3843Y26134D3*
G54D262*
G1X2914Y28384D3*
G1X2304Y28384D3*
G1X2914Y27734D3*
G1X2304Y27734D3*
G54D263*
G1X11101Y31708D3*
G1X11101Y30960D3*
G1X12007Y31334D3*
G1X11101Y28608D3*
G1X11101Y27860D3*
G1X12007Y28234D3*
G54D264*
G1X3307Y30679D3*
G1X3307Y31388D3*
G1X2401Y30679D3*
G1X2401Y31388D3*
G54D265*
G1X8201Y33484D3*
G1X9107Y33484D3*
G54D111*
G1X7291Y32202D3*
G1X5126Y32202D3*
G1X6110Y32202D3*
G1X4929Y32202D3*
G1X6898Y32202D3*
G1X4732Y32202D3*
G1X6701Y32202D3*
G1X4536Y32202D3*
G1X8473Y32202D3*
G1X8473Y32005D3*
G1X8473Y31808D3*
G1X8473Y31611D3*
G1X8473Y31415D3*
G1X8473Y31218D3*
G1X8473Y30824D3*
G1X8473Y30627D3*
G1X8473Y30430D3*
G1X8473Y30234D3*
G1X8473Y30037D3*
G1X8473Y29840D3*
G1X8473Y29643D3*
G1X8473Y29446D3*
G1X8473Y29249D3*
G1X8473Y29052D3*
G1X8473Y28856D3*
G1X8473Y28659D3*
G1X8473Y28462D3*
G1X8473Y28265D3*
G1X8276Y32202D3*
G1X8276Y32005D3*
G1X8276Y31808D3*
G1X8276Y31611D3*
G1X8276Y31415D3*
G1X8276Y31218D3*
G1X8276Y30824D3*
G1X8276Y30627D3*
G1X8276Y30430D3*
G1X8276Y30234D3*
G1X8276Y30037D3*
G1X8276Y29840D3*
G1X8276Y29643D3*
G1X8276Y29446D3*
G1X8276Y29249D3*
G1X8276Y29052D3*
G1X8276Y28856D3*
G1X8276Y28659D3*
G1X8276Y28462D3*
G1X8276Y28265D3*
G1X8079Y32202D3*
G1X8079Y32005D3*
G1X8079Y28462D3*
G1X8079Y28265D3*
G1X7882Y32202D3*
G1X7882Y32005D3*
G1X7882Y31611D3*
G1X7882Y31415D3*
G1X7882Y31218D3*
G1X7882Y31021D3*
G1X7882Y30824D3*
G1X7882Y30627D3*
G1X7882Y30430D3*
G1X7882Y30234D3*
G1X7882Y30037D3*
G1X7882Y29840D3*
G1X7882Y29643D3*
G1X7882Y29446D3*
G1X7882Y29249D3*
G1X7882Y29052D3*
G1X7882Y28856D3*
G1X7882Y28462D3*
G1X7882Y28265D3*
G1X7685Y32202D3*
G1X7685Y32005D3*
G1X7685Y31611D3*
G1X7685Y31415D3*
G1X7685Y31218D3*
G1X7685Y31021D3*
G1X7685Y30824D3*
G1X7685Y30627D3*
G1X7685Y30430D3*
G1X7685Y30234D3*
G1X7685Y30037D3*
G1X7685Y29643D3*
G1X7685Y29446D3*
G1X7685Y29249D3*
G1X7685Y29052D3*
G1X7685Y28856D3*
G1X7685Y28462D3*
G1X7685Y28265D3*
G1X7488Y32202D3*
G1X7488Y32005D3*
G1X7488Y31611D3*
G1X7488Y31415D3*
G1X7488Y29052D3*
G1X7488Y28856D3*
G1X7488Y28462D3*
G1X7291Y32005D3*
G1X7291Y31611D3*
G1X7291Y31415D3*
G1X7291Y29052D3*
G1X7291Y28856D3*
G1X7291Y28462D3*
G1X7291Y28265D3*
G1X7095Y32005D3*
G1X7095Y31611D3*
G1X7095Y31415D3*
G1X7095Y29052D3*
G1X7095Y28856D3*
G1X7095Y28462D3*
G1X7095Y28265D3*
G1X6898Y32005D3*
G1X6898Y31611D3*
G1X6898Y31415D3*
G1X6898Y29052D3*
G1X6898Y28856D3*
G1X6898Y28462D3*
G1X6898Y28265D3*
G1X6701Y32005D3*
G1X6701Y31611D3*
G1X6701Y31415D3*
G1X6701Y29052D3*
G1X6701Y28856D3*
G1X6701Y28462D3*
G1X6701Y28265D3*
G1X6504Y32202D3*
G1X6504Y32005D3*
G1X6504Y31611D3*
G1X6504Y31415D3*
G1X6504Y28856D3*
G1X6504Y28462D3*
G1X6504Y28265D3*
G1X6307Y32202D3*
G1X6307Y32005D3*
G1X6307Y31611D3*
G1X6307Y31415D3*
G1X6307Y29052D3*
G1X6307Y28856D3*
G1X6307Y28462D3*
G1X6307Y28265D3*
G1X6110Y32005D3*
G1X6110Y31611D3*
G1X6110Y31415D3*
G1X6110Y29052D3*
G1X6110Y28856D3*
G1X6110Y28462D3*
G1X5913Y32202D3*
G1X5913Y32005D3*
G1X5913Y31611D3*
G1X5913Y31415D3*
G1X5913Y29052D3*
G1X5913Y28856D3*
G1X5913Y28462D3*
G1X5717Y32202D3*
G1X5717Y32005D3*
G1X5717Y31611D3*
G1X5717Y31415D3*
G1X5717Y29052D3*
G1X5717Y28856D3*
G1X5717Y28462D3*
G1X5717Y28265D3*
G1X5520Y32202D3*
G1X5520Y32005D3*
G1X5520Y31611D3*
G1X5520Y31415D3*
G1X5520Y29052D3*
G1X5520Y28856D3*
G1X5520Y28462D3*
G1X5520Y28265D3*
G1X5323Y32202D3*
G1X5323Y32005D3*
G1X5323Y31611D3*
G1X5323Y31415D3*
G1X5323Y31218D3*
G1X5323Y31021D3*
G1X5323Y30627D3*
G1X5323Y30430D3*
G1X5323Y30234D3*
G1X5323Y30037D3*
G1X5323Y29840D3*
G1X5323Y29643D3*
G1X5323Y29446D3*
G1X5323Y29249D3*
G1X5323Y29052D3*
G1X5323Y28856D3*
G1X5323Y28462D3*
G1X5323Y28265D3*
G1X5126Y32005D3*
G1X5126Y31611D3*
G1X5126Y31415D3*
G1X5126Y31218D3*
G1X5126Y31021D3*
G1X5126Y30824D3*
G1X5126Y30627D3*
G1X5126Y30430D3*
G1X5126Y30234D3*
G1X5126Y30037D3*
G1X5126Y29840D3*
G1X5126Y29643D3*
G1X5126Y29446D3*
G1X5126Y29249D3*
G1X5126Y29052D3*
G1X5126Y28856D3*
G1X5126Y28462D3*
G1X5126Y28265D3*
G1X4929Y32005D3*
G1X4929Y28462D3*
G1X4929Y28265D3*
G1X4732Y32005D3*
G1X4732Y31808D3*
G1X4732Y31611D3*
G1X4732Y31415D3*
G1X4732Y31218D3*
G1X4732Y31021D3*
G1X4732Y30824D3*
G1X4732Y30627D3*
G1X4732Y30430D3*
G1X4732Y30234D3*
G1X4732Y30037D3*
G1X4732Y29840D3*
G1X4732Y29643D3*
G1X4732Y29446D3*
G1X4732Y29249D3*
G1X4732Y29052D3*
G1X4732Y28856D3*
G1X4732Y28659D3*
G1X4732Y28462D3*
G1X4732Y28265D3*
G1X4536Y32005D3*
G1X4536Y31808D3*
G1X4536Y31611D3*
G1X4536Y31415D3*
G1X4536Y31218D3*
G1X4536Y31021D3*
G1X4536Y30824D3*
G1X4536Y30627D3*
G1X4536Y30430D3*
G1X4536Y30234D3*
G1X4536Y30037D3*
G1X4536Y29840D3*
G1X4536Y29643D3*
G1X4536Y29446D3*
G1X4536Y29249D3*
G1X4536Y29052D3*
G1X4536Y28856D3*
G1X4536Y28659D3*
G1X4536Y28462D3*
G1X4536Y28265D3*
G54D240*
G1X15804Y11160D3*
G1X15528Y11160D3*
G1X19198Y11160D3*
G1X19474Y11160D3*
G54D242*
G1X22936Y11097D3*
G1X22936Y10723D3*
G1X22536Y10723D3*
G1X22536Y11097D3*
G1X22136Y10723D3*
G1X22136Y11097D3*
G1X14286Y10523D3*
G1X14286Y10897D3*
G1X20286Y7473D3*
G1X20286Y7847D3*
G1X20886Y7473D3*
G1X20886Y7847D3*
G1X13786Y10523D3*
G1X13786Y10897D3*
G1X22386Y8747D3*
G1X22386Y8373D3*
G1X14636Y6173D3*
G1X14636Y6547D3*
G1X20886Y6673D3*
G1X20886Y7047D3*
G1X13786Y11697D3*
G1X13786Y11323D3*
G1X22786Y7997D3*
G1X22786Y7623D3*
G1X22386Y7997D3*
G1X22386Y7623D3*
G1X14286Y11323D3*
G1X14286Y11697D3*
G1X20886Y6197D3*
G1X20886Y5823D3*
G1X22386Y5597D3*
G1X22386Y5223D3*
G54D241*
G1X19899Y11160D3*
G1X20273Y11160D3*
G1X21323Y11460D3*
G1X20949Y11460D3*
G1X20949Y12310D3*
G1X21323Y12310D3*
G1X13823Y8460D3*
G1X13449Y8460D3*
G1X14249Y8460D3*
G1X14623Y8460D3*
G1X14623Y7360D3*
G1X14249Y7360D3*
G1X21323Y11910D3*
G1X20949Y11910D3*
G1X13449Y7360D3*
G1X13823Y7360D3*
G54D255*
G1X21791Y12310D3*
G1X22381Y12310D3*
G54D240*
G1X15186Y7282D3*
G1X15186Y7557D3*
G54D258*
G1X20536Y9910D3*
G54D259*
G1X20241Y10466D3*
G1X20438Y10466D3*
G1X20634Y10466D3*
G1X20831Y10466D3*
G1X20831Y9353D3*
G1X20634Y9353D3*
G1X20438Y9353D3*
G1X20241Y9353D3*
G54D260*
G1X15694Y5268D3*
G1X15891Y5268D3*
G1X16088Y5268D3*
G1X16284Y5268D3*
G1X16481Y5268D3*
G1X16678Y5268D3*
G1X16875Y5268D3*
G1X17072Y5268D3*
G1X17269Y5268D3*
G1X17465Y5268D3*
G1X17662Y5268D3*
G1X17859Y5268D3*
G1X18056Y5268D3*
G1X18253Y5268D3*
G1X18450Y5268D3*
G1X18647Y5268D3*
G1X18843Y5268D3*
G1X19040Y5268D3*
G1X19237Y5268D3*
G1X19434Y5268D3*
G1X19631Y5268D3*
G1X19828Y5268D3*
G1X20025Y5268D3*
G1X20221Y5268D3*
G1X20418Y5268D3*
G1X15694Y3851D3*
G1X15891Y3851D3*
G1X16088Y3851D3*
G1X16284Y3851D3*
G1X16481Y3851D3*
G1X16678Y3851D3*
G1X16875Y3851D3*
G1X17072Y3851D3*
G1X17269Y3851D3*
G1X17465Y3851D3*
G1X17662Y3851D3*
G1X17859Y3851D3*
G1X18056Y3851D3*
G1X18253Y3851D3*
G1X18450Y3851D3*
G1X18647Y3851D3*
G1X18843Y3851D3*
G1X19040Y3851D3*
G1X19237Y3851D3*
G1X19434Y3851D3*
G1X19631Y3851D3*
G1X19828Y3851D3*
G1X20025Y3851D3*
G1X20221Y3851D3*
G1X20418Y3851D3*
G54D261*
G1X21087Y4560D3*
G1X15025Y4560D3*
G54D262*
G1X14096Y6810D3*
G1X13486Y6810D3*
G1X14096Y6160D3*
G1X13486Y6160D3*
G54D263*
G1X22283Y10134D3*
G1X22283Y9386D3*
G1X23189Y9760D3*
G1X22283Y7034D3*
G1X22283Y6286D3*
G1X23189Y6660D3*
G54D264*
G1X14489Y9105D3*
G1X14489Y9814D3*
G1X13583Y9105D3*
G1X13583Y9814D3*
G54D265*
G1X19383Y11910D3*
G1X20289Y11910D3*
G54D111*
G1X18473Y10628D3*
G1X16308Y10628D3*
G1X17292Y10628D3*
G1X16111Y10628D3*
G1X18080Y10628D3*
G1X15914Y10628D3*
G1X17883Y10628D3*
G1X15718Y10628D3*
G1X19655Y10628D3*
G1X19655Y10431D3*
G1X19655Y10234D3*
G1X19655Y10037D3*
G1X19655Y9841D3*
G1X19655Y9644D3*
G1X19655Y9250D3*
G1X19655Y9053D3*
G1X19655Y8856D3*
G1X19655Y8660D3*
G1X19655Y8463D3*
G1X19655Y8266D3*
G1X19655Y8069D3*
G1X19655Y7872D3*
G1X19655Y7675D3*
G1X19655Y7478D3*
G1X19655Y7282D3*
G1X19655Y7085D3*
G1X19655Y6888D3*
G1X19655Y6691D3*
G1X19458Y10628D3*
G1X19458Y10431D3*
G1X19458Y10234D3*
G1X19458Y10037D3*
G1X19458Y9841D3*
G1X19458Y9644D3*
G1X19458Y9250D3*
G1X19458Y9053D3*
G1X19458Y8856D3*
G1X19458Y8660D3*
G1X19458Y8463D3*
G1X19458Y8266D3*
G1X19458Y8069D3*
G1X19458Y7872D3*
G1X19458Y7675D3*
G1X19458Y7478D3*
G1X19458Y7282D3*
G1X19458Y7085D3*
G1X19458Y6888D3*
G1X19458Y6691D3*
G1X19261Y10628D3*
G1X19261Y10431D3*
G1X19261Y6888D3*
G1X19261Y6691D3*
G1X19064Y10628D3*
G1X19064Y10431D3*
G1X19064Y10037D3*
G1X19064Y9841D3*
G1X19064Y9644D3*
G1X19064Y9447D3*
G1X19064Y9250D3*
G1X19064Y9053D3*
G1X19064Y8856D3*
G1X19064Y8660D3*
G1X19064Y8463D3*
G1X19064Y8266D3*
G1X19064Y8069D3*
G1X19064Y7872D3*
G1X19064Y7675D3*
G1X19064Y7478D3*
G1X19064Y7282D3*
G1X19064Y6888D3*
G1X19064Y6691D3*
G1X18867Y10628D3*
G1X18867Y10431D3*
G1X18867Y10037D3*
G1X18867Y9841D3*
G1X18867Y9644D3*
G1X18867Y9447D3*
G1X18867Y9250D3*
G1X18867Y9053D3*
G1X18867Y8856D3*
G1X18867Y8660D3*
G1X18867Y8463D3*
G1X18867Y8069D3*
G1X18867Y7872D3*
G1X18867Y7675D3*
G1X18867Y7478D3*
G1X18867Y7282D3*
G1X18867Y6888D3*
G1X18867Y6691D3*
G1X18670Y10628D3*
G1X18670Y10431D3*
G1X18670Y10037D3*
G1X18670Y9841D3*
G1X18670Y7478D3*
G1X18670Y7282D3*
G1X18670Y6888D3*
G1X18473Y10431D3*
G1X18473Y10037D3*
G1X18473Y9841D3*
G1X18473Y7478D3*
G1X18473Y7282D3*
G1X18473Y6888D3*
G1X18473Y6691D3*
G1X18277Y10431D3*
G1X18277Y10037D3*
G1X18277Y9841D3*
G1X18277Y7478D3*
G1X18277Y7282D3*
G1X18277Y6888D3*
G1X18277Y6691D3*
G1X18080Y10431D3*
G1X18080Y10037D3*
G1X18080Y9841D3*
G1X18080Y7478D3*
G1X18080Y7282D3*
G1X18080Y6888D3*
G1X18080Y6691D3*
G1X17883Y10431D3*
G1X17883Y10037D3*
G1X17883Y9841D3*
G1X17883Y7478D3*
G1X17883Y7282D3*
G1X17883Y6888D3*
G1X17883Y6691D3*
G1X17686Y10628D3*
G1X17686Y10431D3*
G1X17686Y10037D3*
G1X17686Y9841D3*
G1X17686Y7282D3*
G1X17686Y6888D3*
G1X17686Y6691D3*
G1X17489Y10628D3*
G1X17489Y10431D3*
G1X17489Y10037D3*
G1X17489Y9841D3*
G1X17489Y7478D3*
G1X17489Y7282D3*
G1X17489Y6888D3*
G1X17489Y6691D3*
G1X17292Y10431D3*
G1X17292Y10037D3*
G1X17292Y9841D3*
G1X17292Y7478D3*
G1X17292Y7282D3*
G1X17292Y6888D3*
G1X17095Y10628D3*
G1X17095Y10431D3*
G1X17095Y10037D3*
G1X17095Y9841D3*
G1X17095Y7478D3*
G1X17095Y7282D3*
G1X17095Y6888D3*
G1X16899Y10628D3*
G1X16899Y10431D3*
G1X16899Y10037D3*
G1X16899Y9841D3*
G1X16899Y7478D3*
G1X16899Y7282D3*
G1X16899Y6888D3*
G1X16899Y6691D3*
G1X16702Y10628D3*
G1X16702Y10431D3*
G1X16702Y10037D3*
G1X16702Y9841D3*
G1X16702Y7478D3*
G1X16702Y7282D3*
G1X16702Y6888D3*
G1X16702Y6691D3*
G1X16505Y10628D3*
G1X16505Y10431D3*
G1X16505Y10037D3*
G1X16505Y9841D3*
G1X16505Y9644D3*
G1X16505Y9447D3*
G1X16505Y9053D3*
G1X16505Y8856D3*
G1X16505Y8660D3*
G1X16505Y8463D3*
G1X16505Y8266D3*
G1X16505Y8069D3*
G1X16505Y7872D3*
G1X16505Y7675D3*
G1X16505Y7478D3*
G1X16505Y7282D3*
G1X16505Y6888D3*
G1X16505Y6691D3*
G1X16308Y10431D3*
G1X16308Y10037D3*
G1X16308Y9841D3*
G1X16308Y9644D3*
G1X16308Y9447D3*
G1X16308Y9250D3*
G1X16308Y9053D3*
G1X16308Y8856D3*
G1X16308Y8660D3*
G1X16308Y8463D3*
G1X16308Y8266D3*
G1X16308Y8069D3*
G1X16308Y7872D3*
G1X16308Y7675D3*
G1X16308Y7478D3*
G1X16308Y7282D3*
G1X16308Y6888D3*
G1X16308Y6691D3*
G1X16111Y10431D3*
G1X16111Y6888D3*
G1X16111Y6691D3*
G1X15914Y10431D3*
G1X15914Y10234D3*
G1X15914Y10037D3*
G1X15914Y9841D3*
G1X15914Y9644D3*
G1X15914Y9447D3*
G1X15914Y9250D3*
G1X15914Y9053D3*
G1X15914Y8856D3*
G1X15914Y8660D3*
G1X15914Y8463D3*
G1X15914Y8266D3*
G1X15914Y8069D3*
G1X15914Y7872D3*
G1X15914Y7675D3*
G1X15914Y7478D3*
G1X15914Y7282D3*
G1X15914Y7085D3*
G1X15914Y6888D3*
G1X15914Y6691D3*
G1X15718Y10431D3*
G1X15718Y10234D3*
G1X15718Y10037D3*
G1X15718Y9841D3*
G1X15718Y9644D3*
G1X15718Y9447D3*
G1X15718Y9250D3*
G1X15718Y9053D3*
G1X15718Y8856D3*
G1X15718Y8660D3*
G1X15718Y8463D3*
G1X15718Y8266D3*
G1X15718Y8069D3*
G1X15718Y7872D3*
G1X15718Y7675D3*
G1X15718Y7478D3*
G1X15718Y7282D3*
G1X15718Y7085D3*
G1X15718Y6888D3*
G1X15718Y6691D3*
G54D240*
G1X15804Y21947D3*
G1X15528Y21947D3*
G1X19198Y21947D3*
G1X19474Y21947D3*
G54D242*
G1X22936Y21884D3*
G1X22936Y21510D3*
G1X22536Y21510D3*
G1X22536Y21884D3*
G1X22136Y21510D3*
G1X22136Y21884D3*
G1X14286Y21310D3*
G1X14286Y21684D3*
G1X20286Y18260D3*
G1X20286Y18634D3*
G1X20886Y18260D3*
G1X20886Y18634D3*
G1X13786Y21310D3*
G1X13786Y21684D3*
G1X22386Y19534D3*
G1X22386Y19160D3*
G1X14636Y16960D3*
G1X14636Y17334D3*
G1X20886Y17460D3*
G1X20886Y17834D3*
G1X13786Y22484D3*
G1X13786Y22110D3*
G1X22786Y18784D3*
G1X22786Y18410D3*
G1X22386Y18784D3*
G1X22386Y18410D3*
G1X14286Y22110D3*
G1X14286Y22484D3*
G1X20886Y16984D3*
G1X20886Y16610D3*
G1X22386Y16384D3*
G1X22386Y16010D3*
G54D241*
G1X19899Y21947D3*
G1X20273Y21947D3*
G1X21323Y22247D3*
G1X20949Y22247D3*
G1X20949Y23097D3*
G1X21323Y23097D3*
G1X13823Y19247D3*
G1X13449Y19247D3*
G1X14249Y19247D3*
G1X14623Y19247D3*
G1X14623Y18147D3*
G1X14249Y18147D3*
G1X21323Y22697D3*
G1X20949Y22697D3*
G1X13449Y18147D3*
G1X13823Y18147D3*
G54D255*
G1X21791Y23097D3*
G1X22381Y23097D3*
G54D240*
G1X15186Y18069D3*
G1X15186Y18344D3*
G54D258*
G1X20536Y20697D3*
G54D259*
G1X20241Y21253D3*
G1X20438Y21253D3*
G1X20634Y21253D3*
G1X20831Y21253D3*
G1X20831Y20140D3*
G1X20634Y20140D3*
G1X20438Y20140D3*
G1X20241Y20140D3*
G54D260*
G1X15694Y16055D3*
G1X15891Y16055D3*
G1X16088Y16055D3*
G1X16284Y16055D3*
G1X16481Y16055D3*
G1X16678Y16055D3*
G1X16875Y16055D3*
G1X17072Y16055D3*
G1X17269Y16055D3*
G1X17465Y16055D3*
G1X17662Y16055D3*
G1X17859Y16055D3*
G1X18056Y16055D3*
G1X18253Y16055D3*
G1X18450Y16055D3*
G1X18647Y16055D3*
G1X18843Y16055D3*
G1X19040Y16055D3*
G1X19237Y16055D3*
G1X19434Y16055D3*
G1X19631Y16055D3*
G1X19828Y16055D3*
G1X20025Y16055D3*
G1X20221Y16055D3*
G1X20418Y16055D3*
G1X15694Y14638D3*
G1X15891Y14638D3*
G1X16088Y14638D3*
G1X16284Y14638D3*
G1X16481Y14638D3*
G1X16678Y14638D3*
G1X16875Y14638D3*
G1X17072Y14638D3*
G1X17269Y14638D3*
G1X17465Y14638D3*
G1X17662Y14638D3*
G1X17859Y14638D3*
G1X18056Y14638D3*
G1X18253Y14638D3*
G1X18450Y14638D3*
G1X18647Y14638D3*
G1X18843Y14638D3*
G1X19040Y14638D3*
G1X19237Y14638D3*
G1X19434Y14638D3*
G1X19631Y14638D3*
G1X19828Y14638D3*
G1X20025Y14638D3*
G1X20221Y14638D3*
G1X20418Y14638D3*
G54D261*
G1X21087Y15347D3*
G1X15025Y15347D3*
G54D262*
G1X14096Y17597D3*
G1X13486Y17597D3*
G1X14096Y16947D3*
G1X13486Y16947D3*
G54D263*
G1X22283Y20921D3*
G1X22283Y20173D3*
G1X23189Y20547D3*
G1X22283Y17821D3*
G1X22283Y17073D3*
G1X23189Y17447D3*
G54D264*
G1X14489Y19892D3*
G1X14489Y20601D3*
G1X13583Y19892D3*
G1X13583Y20601D3*
G54D265*
G1X19383Y22697D3*
G1X20289Y22697D3*
G54D111*
G1X18473Y21415D3*
G1X16308Y21415D3*
G1X17292Y21415D3*
G1X16111Y21415D3*
G1X18080Y21415D3*
G1X15914Y21415D3*
G1X17883Y21415D3*
G1X15718Y21415D3*
G1X19655Y21415D3*
G1X19655Y21218D3*
G1X19655Y21021D3*
G1X19655Y20824D3*
G1X19655Y20628D3*
G1X19655Y20431D3*
G1X19655Y20037D3*
G1X19655Y19840D3*
G1X19655Y19643D3*
G1X19655Y19447D3*
G1X19655Y19250D3*
G1X19655Y19053D3*
G1X19655Y18856D3*
G1X19655Y18659D3*
G1X19655Y18462D3*
G1X19655Y18265D3*
G1X19655Y18069D3*
G1X19655Y17872D3*
G1X19655Y17675D3*
G1X19655Y17478D3*
G1X19458Y21415D3*
G1X19458Y21218D3*
G1X19458Y21021D3*
G1X19458Y20824D3*
G1X19458Y20628D3*
G1X19458Y20431D3*
G1X19458Y20037D3*
G1X19458Y19840D3*
G1X19458Y19643D3*
G1X19458Y19447D3*
G1X19458Y19250D3*
G1X19458Y19053D3*
G1X19458Y18856D3*
G1X19458Y18659D3*
G1X19458Y18462D3*
G1X19458Y18265D3*
G1X19458Y18069D3*
G1X19458Y17872D3*
G1X19458Y17675D3*
G1X19458Y17478D3*
G1X19261Y21415D3*
G1X19261Y21218D3*
G1X19261Y17675D3*
G1X19261Y17478D3*
G1X19064Y21415D3*
G1X19064Y21218D3*
G1X19064Y20824D3*
G1X19064Y20628D3*
G1X19064Y20431D3*
G1X19064Y20234D3*
G1X19064Y20037D3*
G1X19064Y19840D3*
G1X19064Y19643D3*
G1X19064Y19447D3*
G1X19064Y19250D3*
G1X19064Y19053D3*
G1X19064Y18856D3*
G1X19064Y18659D3*
G1X19064Y18462D3*
G1X19064Y18265D3*
G1X19064Y18069D3*
G1X19064Y17675D3*
G1X19064Y17478D3*
G1X18867Y21415D3*
G1X18867Y21218D3*
G1X18867Y20824D3*
G1X18867Y20628D3*
G1X18867Y20431D3*
G1X18867Y20234D3*
G1X18867Y20037D3*
G1X18867Y19840D3*
G1X18867Y19643D3*
G1X18867Y19447D3*
G1X18867Y19250D3*
G1X18867Y18856D3*
G1X18867Y18659D3*
G1X18867Y18462D3*
G1X18867Y18265D3*
G1X18867Y18069D3*
G1X18867Y17675D3*
G1X18867Y17478D3*
G1X18670Y21415D3*
G1X18670Y21218D3*
G1X18670Y20824D3*
G1X18670Y20628D3*
G1X18670Y18265D3*
G1X18670Y18069D3*
G1X18670Y17675D3*
G1X18473Y21218D3*
G1X18473Y20824D3*
G1X18473Y20628D3*
G1X18473Y18265D3*
G1X18473Y18069D3*
G1X18473Y17675D3*
G1X18473Y17478D3*
G1X18277Y21218D3*
G1X18277Y20824D3*
G1X18277Y20628D3*
G1X18277Y18265D3*
G1X18277Y18069D3*
G1X18277Y17675D3*
G1X18277Y17478D3*
G1X18080Y21218D3*
G1X18080Y20824D3*
G1X18080Y20628D3*
G1X18080Y18265D3*
G1X18080Y18069D3*
G1X18080Y17675D3*
G1X18080Y17478D3*
G1X17883Y21218D3*
G1X17883Y20824D3*
G1X17883Y20628D3*
G1X17883Y18265D3*
G1X17883Y18069D3*
G1X17883Y17675D3*
G1X17883Y17478D3*
G1X17686Y21415D3*
G1X17686Y21218D3*
G1X17686Y20824D3*
G1X17686Y20628D3*
G1X17686Y18069D3*
G1X17686Y17675D3*
G1X17686Y17478D3*
G1X17489Y21415D3*
G1X17489Y21218D3*
G1X17489Y20824D3*
G1X17489Y20628D3*
G1X17489Y18265D3*
G1X17489Y18069D3*
G1X17489Y17675D3*
G1X17489Y17478D3*
G1X17292Y21218D3*
G1X17292Y20824D3*
G1X17292Y20628D3*
G1X17292Y18265D3*
G1X17292Y18069D3*
G1X17292Y17675D3*
G1X17095Y21415D3*
G1X17095Y21218D3*
G1X17095Y20824D3*
G1X17095Y20628D3*
G1X17095Y18265D3*
G1X17095Y18069D3*
G1X17095Y17675D3*
G1X16899Y21415D3*
G1X16899Y21218D3*
G1X16899Y20824D3*
G1X16899Y20628D3*
G1X16899Y18265D3*
G1X16899Y18069D3*
G1X16899Y17675D3*
G1X16899Y17478D3*
G1X16702Y21415D3*
G1X16702Y21218D3*
G1X16702Y20824D3*
G1X16702Y20628D3*
G1X16702Y18265D3*
G1X16702Y18069D3*
G1X16702Y17675D3*
G1X16702Y17478D3*
G1X16505Y21415D3*
G1X16505Y21218D3*
G1X16505Y20824D3*
G1X16505Y20628D3*
G1X16505Y20431D3*
G1X16505Y20234D3*
G1X16505Y19840D3*
G1X16505Y19643D3*
G1X16505Y19447D3*
G1X16505Y19250D3*
G1X16505Y19053D3*
G1X16505Y18856D3*
G1X16505Y18659D3*
G1X16505Y18462D3*
G1X16505Y18265D3*
G1X16505Y18069D3*
G1X16505Y17675D3*
G1X16505Y17478D3*
G1X16308Y21218D3*
G1X16308Y20824D3*
G1X16308Y20628D3*
G1X16308Y20431D3*
G1X16308Y20234D3*
G1X16308Y20037D3*
G1X16308Y19840D3*
G1X16308Y19643D3*
G1X16308Y19447D3*
G1X16308Y19250D3*
G1X16308Y19053D3*
G1X16308Y18856D3*
G1X16308Y18659D3*
G1X16308Y18462D3*
G1X16308Y18265D3*
G1X16308Y18069D3*
G1X16308Y17675D3*
G1X16308Y17478D3*
G1X16111Y21218D3*
G1X16111Y17675D3*
G1X16111Y17478D3*
G1X15914Y21218D3*
G1X15914Y21021D3*
G1X15914Y20824D3*
G1X15914Y20628D3*
G1X15914Y20431D3*
G1X15914Y20234D3*
G1X15914Y20037D3*
G1X15914Y19840D3*
G1X15914Y19643D3*
G1X15914Y19447D3*
G1X15914Y19250D3*
G1X15914Y19053D3*
G1X15914Y18856D3*
G1X15914Y18659D3*
G1X15914Y18462D3*
G1X15914Y18265D3*
G1X15914Y18069D3*
G1X15914Y17872D3*
G1X15914Y17675D3*
G1X15914Y17478D3*
G1X15718Y21218D3*
G1X15718Y21021D3*
G1X15718Y20824D3*
G1X15718Y20628D3*
G1X15718Y20431D3*
G1X15718Y20234D3*
G1X15718Y20037D3*
G1X15718Y19840D3*
G1X15718Y19643D3*
G1X15718Y19447D3*
G1X15718Y19250D3*
G1X15718Y19053D3*
G1X15718Y18856D3*
G1X15718Y18659D3*
G1X15718Y18462D3*
G1X15718Y18265D3*
G1X15718Y18069D3*
G1X15718Y17872D3*
G1X15718Y17675D3*
G1X15718Y17478D3*
G54D240*
G1X15804Y32734D3*
G1X15528Y32734D3*
G1X19198Y32734D3*
G1X19474Y32734D3*
G54D242*
G1X22936Y32671D3*
G1X22936Y32297D3*
G1X22536Y32297D3*
G1X22536Y32671D3*
G1X22136Y32297D3*
G1X22136Y32671D3*
G1X14286Y32097D3*
G1X14286Y32471D3*
G1X20286Y29047D3*
G1X20286Y29421D3*
G1X20886Y29047D3*
G1X20886Y29421D3*
G1X13786Y32097D3*
G1X13786Y32471D3*
G1X22386Y30321D3*
G1X22386Y29947D3*
G1X14636Y27747D3*
G1X14636Y28121D3*
G1X20886Y28247D3*
G1X20886Y28621D3*
G1X13786Y33271D3*
G1X13786Y32897D3*
G1X22786Y29571D3*
G1X22786Y29197D3*
G1X22386Y29571D3*
G1X22386Y29197D3*
G1X14286Y32897D3*
G1X14286Y33271D3*
G1X20886Y27771D3*
G1X20886Y27397D3*
G1X22386Y27171D3*
G1X22386Y26797D3*
G54D241*
G1X19899Y32734D3*
G1X20273Y32734D3*
G1X21323Y33034D3*
G1X20949Y33034D3*
G1X20949Y33884D3*
G1X21323Y33884D3*
G1X13823Y30034D3*
G1X13449Y30034D3*
G1X14249Y30034D3*
G1X14623Y30034D3*
G1X14623Y28934D3*
G1X14249Y28934D3*
G1X21323Y33484D3*
G1X20949Y33484D3*
G1X13449Y28934D3*
G1X13823Y28934D3*
G54D255*
G1X21791Y33884D3*
G1X22381Y33884D3*
G54D240*
G1X15186Y28856D3*
G1X15186Y29131D3*
G54D258*
G1X20536Y31484D3*
G54D259*
G1X20241Y32040D3*
G1X20438Y32040D3*
G1X20634Y32040D3*
G1X20831Y32040D3*
G1X20831Y30927D3*
G1X20634Y30927D3*
G1X20438Y30927D3*
G1X20241Y30927D3*
G54D260*
G1X15694Y26842D3*
G1X15891Y26842D3*
G1X16088Y26842D3*
G1X16284Y26842D3*
G1X16481Y26842D3*
G1X16678Y26842D3*
G1X16875Y26842D3*
G1X17072Y26842D3*
G1X17269Y26842D3*
G1X17465Y26842D3*
G1X17662Y26842D3*
G1X17859Y26842D3*
G1X18056Y26842D3*
G1X18253Y26842D3*
G1X18450Y26842D3*
G1X18647Y26842D3*
G1X18843Y26842D3*
G1X19040Y26842D3*
G1X19237Y26842D3*
G1X19434Y26842D3*
G1X19631Y26842D3*
G1X19828Y26842D3*
G1X20025Y26842D3*
G1X20221Y26842D3*
G1X20418Y26842D3*
G1X15694Y25425D3*
G1X15891Y25425D3*
G1X16088Y25425D3*
G1X16284Y25425D3*
G1X16481Y25425D3*
G1X16678Y25425D3*
G1X16875Y25425D3*
G1X17072Y25425D3*
G1X17269Y25425D3*
G1X17465Y25425D3*
G1X17662Y25425D3*
G1X17859Y25425D3*
G1X18056Y25425D3*
G1X18253Y25425D3*
G1X18450Y25425D3*
G1X18647Y25425D3*
G1X18843Y25425D3*
G1X19040Y25425D3*
G1X19237Y25425D3*
G1X19434Y25425D3*
G1X19631Y25425D3*
G1X19828Y25425D3*
G1X20025Y25425D3*
G1X20221Y25425D3*
G1X20418Y25425D3*
G54D261*
G1X21087Y26134D3*
G1X15025Y26134D3*
G54D262*
G1X14096Y28384D3*
G1X13486Y28384D3*
G1X14096Y27734D3*
G1X13486Y27734D3*
G54D263*
G1X22283Y31708D3*
G1X22283Y30960D3*
G1X23189Y31334D3*
G1X22283Y28608D3*
G1X22283Y27860D3*
G1X23189Y28234D3*
G54D264*
G1X14489Y30679D3*
G1X14489Y31388D3*
G1X13583Y30679D3*
G1X13583Y31388D3*
G54D265*
G1X19383Y33484D3*
G1X20289Y33484D3*
G54D111*
G1X18473Y32202D3*
G1X16308Y32202D3*
G1X17292Y32202D3*
G1X16111Y32202D3*
G1X18080Y32202D3*
G1X15914Y32202D3*
G1X17883Y32202D3*
G1X15718Y32202D3*
G1X19655Y32202D3*
G1X19655Y32005D3*
G1X19655Y31808D3*
G1X19655Y31611D3*
G1X19655Y31415D3*
G1X19655Y31218D3*
G1X19655Y30824D3*
G1X19655Y30627D3*
G1X19655Y30430D3*
G1X19655Y30234D3*
G1X19655Y30037D3*
G1X19655Y29840D3*
G1X19655Y29643D3*
G1X19655Y29446D3*
G1X19655Y29249D3*
G1X19655Y29052D3*
G1X19655Y28856D3*
G1X19655Y28659D3*
G1X19655Y28462D3*
G1X19655Y28265D3*
G1X19458Y32202D3*
G1X19458Y32005D3*
G1X19458Y31808D3*
G1X19458Y31611D3*
G1X19458Y31415D3*
G1X19458Y31218D3*
G1X19458Y30824D3*
G1X19458Y30627D3*
G1X19458Y30430D3*
G1X19458Y30234D3*
G1X19458Y30037D3*
G1X19458Y29840D3*
G1X19458Y29643D3*
G1X19458Y29446D3*
G1X19458Y29249D3*
G1X19458Y29052D3*
G1X19458Y28856D3*
G1X19458Y28659D3*
G1X19458Y28462D3*
G1X19458Y28265D3*
G1X19261Y32202D3*
G1X19261Y32005D3*
G1X19261Y28462D3*
G1X19261Y28265D3*
G1X19064Y32202D3*
G1X19064Y32005D3*
G1X19064Y31611D3*
G1X19064Y31415D3*
G1X19064Y31218D3*
G1X19064Y31021D3*
G1X19064Y30824D3*
G1X19064Y30627D3*
G1X19064Y30430D3*
G1X19064Y30234D3*
G1X19064Y30037D3*
G1X19064Y29840D3*
G1X19064Y29643D3*
G1X19064Y29446D3*
G1X19064Y29249D3*
G1X19064Y29052D3*
G1X19064Y28856D3*
G1X19064Y28462D3*
G1X19064Y28265D3*
G1X18867Y32202D3*
G1X18867Y32005D3*
G1X18867Y31611D3*
G1X18867Y31415D3*
G1X18867Y31218D3*
G1X18867Y31021D3*
G1X18867Y30824D3*
G1X18867Y30627D3*
G1X18867Y30430D3*
G1X18867Y30234D3*
G1X18867Y30037D3*
G1X18867Y29643D3*
G1X18867Y29446D3*
G1X18867Y29249D3*
G1X18867Y29052D3*
G1X18867Y28856D3*
G1X18867Y28462D3*
G1X18867Y28265D3*
G1X18670Y32202D3*
G1X18670Y32005D3*
G1X18670Y31611D3*
G1X18670Y31415D3*
G1X18670Y29052D3*
G1X18670Y28856D3*
G1X18670Y28462D3*
G1X18473Y32005D3*
G1X18473Y31611D3*
G1X18473Y31415D3*
G1X18473Y29052D3*
G1X18473Y28856D3*
G1X18473Y28462D3*
G1X18473Y28265D3*
G1X18277Y32005D3*
G1X18277Y31611D3*
G1X18277Y31415D3*
G1X18277Y29052D3*
G1X18277Y28856D3*
G1X18277Y28462D3*
G1X18277Y28265D3*
G1X18080Y32005D3*
G1X18080Y31611D3*
G1X18080Y31415D3*
G1X18080Y29052D3*
G1X18080Y28856D3*
G1X18080Y28462D3*
G1X18080Y28265D3*
G1X17883Y32005D3*
G1X17883Y31611D3*
G1X17883Y31415D3*
G1X17883Y29052D3*
G1X17883Y28856D3*
G1X17883Y28462D3*
G1X17883Y28265D3*
G1X17686Y32202D3*
G1X17686Y32005D3*
G1X17686Y31611D3*
G1X17686Y31415D3*
G1X17686Y28856D3*
G1X17686Y28462D3*
G1X17686Y28265D3*
G1X17489Y32202D3*
G1X17489Y32005D3*
G1X17489Y31611D3*
G1X17489Y31415D3*
G1X17489Y29052D3*
G1X17489Y28856D3*
G1X17489Y28462D3*
G1X17489Y28265D3*
G1X17292Y32005D3*
G1X17292Y31611D3*
G1X17292Y31415D3*
G1X17292Y29052D3*
G1X17292Y28856D3*
G1X17292Y28462D3*
G1X17095Y32202D3*
G1X17095Y32005D3*
G1X17095Y31611D3*
G1X17095Y31415D3*
G1X17095Y29052D3*
G1X17095Y28856D3*
G1X17095Y28462D3*
G1X16899Y32202D3*
G1X16899Y32005D3*
G1X16899Y31611D3*
G1X16899Y31415D3*
G1X16899Y29052D3*
G1X16899Y28856D3*
G1X16899Y28462D3*
G1X16899Y28265D3*
G1X16702Y32202D3*
G1X16702Y32005D3*
G1X16702Y31611D3*
G1X16702Y31415D3*
G1X16702Y29052D3*
G1X16702Y28856D3*
G1X16702Y28462D3*
G1X16702Y28265D3*
G1X16505Y32202D3*
G1X16505Y32005D3*
G1X16505Y31611D3*
G1X16505Y31415D3*
G1X16505Y31218D3*
G1X16505Y31021D3*
G1X16505Y30627D3*
G1X16505Y30430D3*
G1X16505Y30234D3*
G1X16505Y30037D3*
G1X16505Y29840D3*
G1X16505Y29643D3*
G1X16505Y29446D3*
G1X16505Y29249D3*
G1X16505Y29052D3*
G1X16505Y28856D3*
G1X16505Y28462D3*
G1X16505Y28265D3*
G1X16308Y32005D3*
G1X16308Y31611D3*
G1X16308Y31415D3*
G1X16308Y31218D3*
G1X16308Y31021D3*
G1X16308Y30824D3*
G1X16308Y30627D3*
G1X16308Y30430D3*
G1X16308Y30234D3*
G1X16308Y30037D3*
G1X16308Y29840D3*
G1X16308Y29643D3*
G1X16308Y29446D3*
G1X16308Y29249D3*
G1X16308Y29052D3*
G1X16308Y28856D3*
G1X16308Y28462D3*
G1X16308Y28265D3*
G1X16111Y32005D3*
G1X16111Y28462D3*
G1X16111Y28265D3*
G1X15914Y32005D3*
G1X15914Y31808D3*
G1X15914Y31611D3*
G1X15914Y31415D3*
G1X15914Y31218D3*
G1X15914Y31021D3*
G1X15914Y30824D3*
G1X15914Y30627D3*
G1X15914Y30430D3*
G1X15914Y30234D3*
G1X15914Y30037D3*
G1X15914Y29840D3*
G1X15914Y29643D3*
G1X15914Y29446D3*
G1X15914Y29249D3*
G1X15914Y29052D3*
G1X15914Y28856D3*
G1X15914Y28659D3*
G1X15914Y28462D3*
G1X15914Y28265D3*
G1X15718Y32005D3*
G1X15718Y31808D3*
G1X15718Y31611D3*
G1X15718Y31415D3*
G1X15718Y31218D3*
G1X15718Y31021D3*
G1X15718Y30824D3*
G1X15718Y30627D3*
G1X15718Y30430D3*
G1X15718Y30234D3*
G1X15718Y30037D3*
G1X15718Y29840D3*
G1X15718Y29643D3*
G1X15718Y29446D3*
G1X15718Y29249D3*
G1X15718Y29052D3*
G1X15718Y28856D3*
G1X15718Y28659D3*
G1X15718Y28462D3*
G1X15718Y28265D3*
G54D240*
G1X26985Y11160D3*
G1X26709Y11160D3*
G1X30379Y11160D3*
G1X30655Y11160D3*
G54D242*
G1X34117Y11097D3*
G1X34117Y10723D3*
G1X33717Y10723D3*
G1X33717Y11097D3*
G1X33317Y10723D3*
G1X33317Y11097D3*
G1X25467Y10523D3*
G1X25467Y10897D3*
G1X31467Y7473D3*
G1X31467Y7847D3*
G1X32067Y7473D3*
G1X32067Y7847D3*
G1X24967Y10523D3*
G1X24967Y10897D3*
G1X33567Y8747D3*
G1X33567Y8373D3*
G1X25817Y6173D3*
G1X25817Y6547D3*
G1X32067Y6673D3*
G1X32067Y7047D3*
G1X24967Y11697D3*
G1X24967Y11323D3*
G1X33967Y7997D3*
G1X33967Y7623D3*
G1X33567Y7997D3*
G1X33567Y7623D3*
G1X25467Y11323D3*
G1X25467Y11697D3*
G1X32067Y6197D3*
G1X32067Y5823D3*
G1X33567Y5597D3*
G1X33567Y5223D3*
G54D241*
G1X31080Y11160D3*
G1X31454Y11160D3*
G1X32504Y11460D3*
G1X32130Y11460D3*
G1X32130Y12310D3*
G1X32504Y12310D3*
G1X25004Y8460D3*
G1X24630Y8460D3*
G1X25430Y8460D3*
G1X25804Y8460D3*
G1X25804Y7360D3*
G1X25430Y7360D3*
G1X32504Y11910D3*
G1X32130Y11910D3*
G1X24630Y7360D3*
G1X25004Y7360D3*
G54D255*
G1X32972Y12310D3*
G1X33562Y12310D3*
G54D240*
G1X26367Y7282D3*
G1X26367Y7557D3*
G54D258*
G1X31717Y9910D3*
G54D259*
G1X31422Y10466D3*
G1X31619Y10466D3*
G1X31815Y10466D3*
G1X32012Y10466D3*
G1X32012Y9353D3*
G1X31815Y9353D3*
G1X31619Y9353D3*
G1X31422Y9353D3*
G54D260*
G1X26875Y5268D3*
G1X27072Y5268D3*
G1X27269Y5268D3*
G1X27465Y5268D3*
G1X27662Y5268D3*
G1X27859Y5268D3*
G1X28056Y5268D3*
G1X28253Y5268D3*
G1X28450Y5268D3*
G1X28646Y5268D3*
G1X28843Y5268D3*
G1X29040Y5268D3*
G1X29237Y5268D3*
G1X29434Y5268D3*
G1X29631Y5268D3*
G1X29828Y5268D3*
G1X30024Y5268D3*
G1X30221Y5268D3*
G1X30418Y5268D3*
G1X30615Y5268D3*
G1X30812Y5268D3*
G1X31009Y5268D3*
G1X31206Y5268D3*
G1X31402Y5268D3*
G1X31599Y5268D3*
G1X26875Y3851D3*
G1X27072Y3851D3*
G1X27269Y3851D3*
G1X27465Y3851D3*
G1X27662Y3851D3*
G1X27859Y3851D3*
G1X28056Y3851D3*
G1X28253Y3851D3*
G1X28450Y3851D3*
G1X28646Y3851D3*
G1X28843Y3851D3*
G1X29040Y3851D3*
G1X29237Y3851D3*
G1X29434Y3851D3*
G1X29631Y3851D3*
G1X29828Y3851D3*
G1X30024Y3851D3*
G1X30221Y3851D3*
G1X30418Y3851D3*
G1X30615Y3851D3*
G1X30812Y3851D3*
G1X31009Y3851D3*
G1X31206Y3851D3*
G1X31402Y3851D3*
G1X31599Y3851D3*
G54D261*
G1X32268Y4560D3*
G1X26206Y4560D3*
G54D262*
G1X25277Y6810D3*
G1X24667Y6810D3*
G1X25277Y6160D3*
G1X24667Y6160D3*
G54D263*
G1X33464Y10134D3*
G1X33464Y9386D3*
G1X34370Y9760D3*
G1X33464Y7034D3*
G1X33464Y6286D3*
G1X34370Y6660D3*
G54D264*
G1X25670Y9105D3*
G1X25670Y9814D3*
G1X24764Y9105D3*
G1X24764Y9814D3*
G54D265*
G1X30564Y11910D3*
G1X31470Y11910D3*
G54D111*
G1X29654Y10628D3*
G1X27489Y10628D3*
G1X28473Y10628D3*
G1X27292Y10628D3*
G1X29261Y10628D3*
G1X27095Y10628D3*
G1X29064Y10628D3*
G1X26899Y10628D3*
G1X30836Y10628D3*
G1X30836Y10431D3*
G1X30836Y10234D3*
G1X30836Y10037D3*
G1X30836Y9841D3*
G1X30836Y9644D3*
G1X30836Y9250D3*
G1X30836Y9053D3*
G1X30836Y8856D3*
G1X30836Y8660D3*
G1X30836Y8463D3*
G1X30836Y8266D3*
G1X30836Y8069D3*
G1X30836Y7872D3*
G1X30836Y7675D3*
G1X30836Y7478D3*
G1X30836Y7282D3*
G1X30836Y7085D3*
G1X30836Y6888D3*
G1X30836Y6691D3*
G1X30639Y10628D3*
G1X30639Y10431D3*
G1X30639Y10234D3*
G1X30639Y10037D3*
G1X30639Y9841D3*
G1X30639Y9644D3*
G1X30639Y9250D3*
G1X30639Y9053D3*
G1X30639Y8856D3*
G1X30639Y8660D3*
G1X30639Y8463D3*
G1X30639Y8266D3*
G1X30639Y8069D3*
G1X30639Y7872D3*
G1X30639Y7675D3*
G1X30639Y7478D3*
G1X30639Y7282D3*
G1X30639Y7085D3*
G1X30639Y6888D3*
G1X30639Y6691D3*
G1X30442Y10628D3*
G1X30442Y10431D3*
G1X30442Y6888D3*
G1X30442Y6691D3*
G1X30245Y10628D3*
G1X30245Y10431D3*
G1X30245Y10037D3*
G1X30245Y9841D3*
G1X30245Y9644D3*
G1X30245Y9447D3*
G1X30245Y9250D3*
G1X30245Y9053D3*
G1X30245Y8856D3*
G1X30245Y8660D3*
G1X30245Y8463D3*
G1X30245Y8266D3*
G1X30245Y8069D3*
G1X30245Y7872D3*
G1X30245Y7675D3*
G1X30245Y7478D3*
G1X30245Y7282D3*
G1X30245Y6888D3*
G1X30245Y6691D3*
G1X30048Y10628D3*
G1X30048Y10431D3*
G1X30048Y10037D3*
G1X30048Y9841D3*
G1X30048Y9644D3*
G1X30048Y9447D3*
G1X30048Y9250D3*
G1X30048Y9053D3*
G1X30048Y8856D3*
G1X30048Y8660D3*
G1X30048Y8463D3*
G1X30048Y8069D3*
G1X30048Y7872D3*
G1X30048Y7675D3*
G1X30048Y7478D3*
G1X30048Y7282D3*
G1X30048Y6888D3*
G1X30048Y6691D3*
G1X29851Y10628D3*
G1X29851Y10431D3*
G1X29851Y10037D3*
G1X29851Y9841D3*
G1X29851Y7478D3*
G1X29851Y7282D3*
G1X29851Y6888D3*
G1X29654Y10431D3*
G1X29654Y10037D3*
G1X29654Y9841D3*
G1X29654Y7478D3*
G1X29654Y7282D3*
G1X29654Y6888D3*
G1X29654Y6691D3*
G1X29458Y10431D3*
G1X29458Y10037D3*
G1X29458Y9841D3*
G1X29458Y7478D3*
G1X29458Y7282D3*
G1X29458Y6888D3*
G1X29458Y6691D3*
G1X29261Y10431D3*
G1X29261Y10037D3*
G1X29261Y9841D3*
G1X29261Y7478D3*
G1X29261Y7282D3*
G1X29261Y6888D3*
G1X29261Y6691D3*
G1X29064Y10431D3*
G1X29064Y10037D3*
G1X29064Y9841D3*
G1X29064Y7478D3*
G1X29064Y7282D3*
G1X29064Y6888D3*
G1X29064Y6691D3*
G1X28867Y10628D3*
G1X28867Y10431D3*
G1X28867Y10037D3*
G1X28867Y9841D3*
G1X28867Y7282D3*
G1X28867Y6888D3*
G1X28867Y6691D3*
G1X28670Y10628D3*
G1X28670Y10431D3*
G1X28670Y10037D3*
G1X28670Y9841D3*
G1X28670Y7478D3*
G1X28670Y7282D3*
G1X28670Y6888D3*
G1X28670Y6691D3*
G1X28473Y10431D3*
G1X28473Y10037D3*
G1X28473Y9841D3*
G1X28473Y7478D3*
G1X28473Y7282D3*
G1X28473Y6888D3*
G1X28276Y10628D3*
G1X28276Y10431D3*
G1X28276Y10037D3*
G1X28276Y9841D3*
G1X28276Y7478D3*
G1X28276Y7282D3*
G1X28276Y6888D3*
G1X28080Y10628D3*
G1X28080Y10431D3*
G1X28080Y10037D3*
G1X28080Y9841D3*
G1X28080Y7478D3*
G1X28080Y7282D3*
G1X28080Y6888D3*
G1X28080Y6691D3*
G1X27883Y10628D3*
G1X27883Y10431D3*
G1X27883Y10037D3*
G1X27883Y9841D3*
G1X27883Y7478D3*
G1X27883Y7282D3*
G1X27883Y6888D3*
G1X27883Y6691D3*
G1X27686Y10628D3*
G1X27686Y10431D3*
G1X27686Y10037D3*
G1X27686Y9841D3*
G1X27686Y9644D3*
G1X27686Y9447D3*
G1X27686Y9053D3*
G1X27686Y8856D3*
G1X27686Y8660D3*
G1X27686Y8463D3*
G1X27686Y8266D3*
G1X27686Y8069D3*
G1X27686Y7872D3*
G1X27686Y7675D3*
G1X27686Y7478D3*
G1X27686Y7282D3*
G1X27686Y6888D3*
G1X27686Y6691D3*
G1X27489Y10431D3*
G1X27489Y10037D3*
G1X27489Y9841D3*
G1X27489Y9644D3*
G1X27489Y9447D3*
G1X27489Y9250D3*
G1X27489Y9053D3*
G1X27489Y8856D3*
G1X27489Y8660D3*
G1X27489Y8463D3*
G1X27489Y8266D3*
G1X27489Y8069D3*
G1X27489Y7872D3*
G1X27489Y7675D3*
G1X27489Y7478D3*
G1X27489Y7282D3*
G1X27489Y6888D3*
G1X27489Y6691D3*
G1X27292Y10431D3*
G1X27292Y6888D3*
G1X27292Y6691D3*
G1X27095Y10431D3*
G1X27095Y10234D3*
G1X27095Y10037D3*
G1X27095Y9841D3*
G1X27095Y9644D3*
G1X27095Y9447D3*
G1X27095Y9250D3*
G1X27095Y9053D3*
G1X27095Y8856D3*
G1X27095Y8660D3*
G1X27095Y8463D3*
G1X27095Y8266D3*
G1X27095Y8069D3*
G1X27095Y7872D3*
G1X27095Y7675D3*
G1X27095Y7478D3*
G1X27095Y7282D3*
G1X27095Y7085D3*
G1X27095Y6888D3*
G1X27095Y6691D3*
G1X26899Y10431D3*
G1X26899Y10234D3*
G1X26899Y10037D3*
G1X26899Y9841D3*
G1X26899Y9644D3*
G1X26899Y9447D3*
G1X26899Y9250D3*
G1X26899Y9053D3*
G1X26899Y8856D3*
G1X26899Y8660D3*
G1X26899Y8463D3*
G1X26899Y8266D3*
G1X26899Y8069D3*
G1X26899Y7872D3*
G1X26899Y7675D3*
G1X26899Y7478D3*
G1X26899Y7282D3*
G1X26899Y7085D3*
G1X26899Y6888D3*
G1X26899Y6691D3*
G54D240*
G1X26985Y21947D3*
G1X26709Y21947D3*
G1X30379Y21947D3*
G1X30655Y21947D3*
G54D242*
G1X34117Y21884D3*
G1X34117Y21510D3*
G1X33717Y21510D3*
G1X33717Y21884D3*
G1X33317Y21510D3*
G1X33317Y21884D3*
G1X25467Y21310D3*
G1X25467Y21684D3*
G1X31467Y18260D3*
G1X31467Y18634D3*
G1X32067Y18260D3*
G1X32067Y18634D3*
G1X24967Y21310D3*
G1X24967Y21684D3*
G1X33567Y19534D3*
G1X33567Y19160D3*
G1X25817Y16960D3*
G1X25817Y17334D3*
G1X32067Y17460D3*
G1X32067Y17834D3*
G1X24967Y22484D3*
G1X24967Y22110D3*
G1X33967Y18784D3*
G1X33967Y18410D3*
G1X33567Y18784D3*
G1X33567Y18410D3*
G1X25467Y22110D3*
G1X25467Y22484D3*
G1X32067Y16984D3*
G1X32067Y16610D3*
G1X33567Y16384D3*
G1X33567Y16010D3*
G54D241*
G1X31080Y21947D3*
G1X31454Y21947D3*
G1X32504Y22247D3*
G1X32130Y22247D3*
G1X32130Y23097D3*
G1X32504Y23097D3*
G1X25004Y19247D3*
G1X24630Y19247D3*
G1X25430Y19247D3*
G1X25804Y19247D3*
G1X25804Y18147D3*
G1X25430Y18147D3*
G1X32504Y22697D3*
G1X32130Y22697D3*
G1X24630Y18147D3*
G1X25004Y18147D3*
G54D255*
G1X32972Y23097D3*
G1X33562Y23097D3*
G54D240*
G1X26367Y18069D3*
G1X26367Y18344D3*
G54D258*
G1X31717Y20697D3*
G54D259*
G1X31422Y21253D3*
G1X31619Y21253D3*
G1X31815Y21253D3*
G1X32012Y21253D3*
G1X32012Y20140D3*
G1X31815Y20140D3*
G1X31619Y20140D3*
G1X31422Y20140D3*
G54D260*
G1X26875Y16055D3*
G1X27072Y16055D3*
G1X27269Y16055D3*
G1X27465Y16055D3*
G1X27662Y16055D3*
G1X27859Y16055D3*
G1X28056Y16055D3*
G1X28253Y16055D3*
G1X28450Y16055D3*
G1X28646Y16055D3*
G1X28843Y16055D3*
G1X29040Y16055D3*
G1X29237Y16055D3*
G1X29434Y16055D3*
G1X29631Y16055D3*
G1X29828Y16055D3*
G1X30024Y16055D3*
G1X30221Y16055D3*
G1X30418Y16055D3*
G1X30615Y16055D3*
G1X30812Y16055D3*
G1X31009Y16055D3*
G1X31206Y16055D3*
G1X31402Y16055D3*
G1X31599Y16055D3*
G1X26875Y14638D3*
G1X27072Y14638D3*
G1X27269Y14638D3*
G1X27465Y14638D3*
G1X27662Y14638D3*
G1X27859Y14638D3*
G1X28056Y14638D3*
G1X28253Y14638D3*
G1X28450Y14638D3*
G1X28646Y14638D3*
G1X28843Y14638D3*
G1X29040Y14638D3*
G1X29237Y14638D3*
G1X29434Y14638D3*
G1X29631Y14638D3*
G1X29828Y14638D3*
G1X30024Y14638D3*
G1X30221Y14638D3*
G1X30418Y14638D3*
G1X30615Y14638D3*
G1X30812Y14638D3*
G1X31009Y14638D3*
G1X31206Y14638D3*
G1X31402Y14638D3*
G1X31599Y14638D3*
G54D261*
G1X32268Y15347D3*
G1X26206Y15347D3*
G54D262*
G1X25277Y17597D3*
G1X24667Y17597D3*
G1X25277Y16947D3*
G1X24667Y16947D3*
G54D263*
G1X33464Y20921D3*
G1X33464Y20173D3*
G1X34370Y20547D3*
G1X33464Y17821D3*
G1X33464Y17073D3*
G1X34370Y17447D3*
G54D264*
G1X25670Y19892D3*
G1X25670Y20601D3*
G1X24764Y19892D3*
G1X24764Y20601D3*
G54D265*
G1X30564Y22697D3*
G1X31470Y22697D3*
G54D111*
G1X29654Y21415D3*
G1X27489Y21415D3*
G1X28473Y21415D3*
G1X27292Y21415D3*
G1X29261Y21415D3*
G1X27095Y21415D3*
G1X29064Y21415D3*
G1X26899Y21415D3*
G1X30836Y21415D3*
G1X30836Y21218D3*
G1X30836Y21021D3*
G1X30836Y20824D3*
G1X30836Y20628D3*
G1X30836Y20431D3*
G1X30836Y20037D3*
G1X30836Y19840D3*
G1X30836Y19643D3*
G1X30836Y19447D3*
G1X30836Y19250D3*
G1X30836Y19053D3*
G1X30836Y18856D3*
G1X30836Y18659D3*
G1X30836Y18462D3*
G1X30836Y18265D3*
G1X30836Y18069D3*
G1X30836Y17872D3*
G1X30836Y17675D3*
G1X30836Y17478D3*
G1X30639Y21415D3*
G1X30639Y21218D3*
G1X30639Y21021D3*
G1X30639Y20824D3*
G1X30639Y20628D3*
G1X30639Y20431D3*
G1X30639Y20037D3*
G1X30639Y19840D3*
G1X30639Y19643D3*
G1X30639Y19447D3*
G1X30639Y19250D3*
G1X30639Y19053D3*
G1X30639Y18856D3*
G1X30639Y18659D3*
G1X30639Y18462D3*
G1X30639Y18265D3*
G1X30639Y18069D3*
G1X30639Y17872D3*
G1X30639Y17675D3*
G1X30639Y17478D3*
G1X30442Y21415D3*
G1X30442Y21218D3*
G1X30442Y17675D3*
G1X30442Y17478D3*
G1X30245Y21415D3*
G1X30245Y21218D3*
G1X30245Y20824D3*
G1X30245Y20628D3*
G1X30245Y20431D3*
G1X30245Y20234D3*
G1X30245Y20037D3*
G1X30245Y19840D3*
G1X30245Y19643D3*
G1X30245Y19447D3*
G1X30245Y19250D3*
G1X30245Y19053D3*
G1X30245Y18856D3*
G1X30245Y18659D3*
G1X30245Y18462D3*
G1X30245Y18265D3*
G1X30245Y18069D3*
G1X30245Y17675D3*
G1X30245Y17478D3*
G1X30048Y21415D3*
G1X30048Y21218D3*
G1X30048Y20824D3*
G1X30048Y20628D3*
G1X30048Y20431D3*
G1X30048Y20234D3*
G1X30048Y20037D3*
G1X30048Y19840D3*
G1X30048Y19643D3*
G1X30048Y19447D3*
G1X30048Y19250D3*
G1X30048Y18856D3*
G1X30048Y18659D3*
G1X30048Y18462D3*
G1X30048Y18265D3*
G1X30048Y18069D3*
G1X30048Y17675D3*
G1X30048Y17478D3*
G1X29851Y21415D3*
G1X29851Y21218D3*
G1X29851Y20824D3*
G1X29851Y20628D3*
G1X29851Y18265D3*
G1X29851Y18069D3*
G1X29851Y17675D3*
G1X29654Y21218D3*
G1X29654Y20824D3*
G1X29654Y20628D3*
G1X29654Y18265D3*
G1X29654Y18069D3*
G1X29654Y17675D3*
G1X29654Y17478D3*
G1X29458Y21218D3*
G1X29458Y20824D3*
G1X29458Y20628D3*
G1X29458Y18265D3*
G1X29458Y18069D3*
G1X29458Y17675D3*
G1X29458Y17478D3*
G1X29261Y21218D3*
G1X29261Y20824D3*
G1X29261Y20628D3*
G1X29261Y18265D3*
G1X29261Y18069D3*
G1X29261Y17675D3*
G1X29261Y17478D3*
G1X29064Y21218D3*
G1X29064Y20824D3*
G1X29064Y20628D3*
G1X29064Y18265D3*
G1X29064Y18069D3*
G1X29064Y17675D3*
G1X29064Y17478D3*
G1X28867Y21415D3*
G1X28867Y21218D3*
G1X28867Y20824D3*
G1X28867Y20628D3*
G1X28867Y18069D3*
G1X28867Y17675D3*
G1X28867Y17478D3*
G1X28670Y21415D3*
G1X28670Y21218D3*
G1X28670Y20824D3*
G1X28670Y20628D3*
G1X28670Y18265D3*
G1X28670Y18069D3*
G1X28670Y17675D3*
G1X28670Y17478D3*
G1X28473Y21218D3*
G1X28473Y20824D3*
G1X28473Y20628D3*
G1X28473Y18265D3*
G1X28473Y18069D3*
G1X28473Y17675D3*
G1X28276Y21415D3*
G1X28276Y21218D3*
G1X28276Y20824D3*
G1X28276Y20628D3*
G1X28276Y18265D3*
G1X28276Y18069D3*
G1X28276Y17675D3*
G1X28080Y21415D3*
G1X28080Y21218D3*
G1X28080Y20824D3*
G1X28080Y20628D3*
G1X28080Y18265D3*
G1X28080Y18069D3*
G1X28080Y17675D3*
G1X28080Y17478D3*
G1X27883Y21415D3*
G1X27883Y21218D3*
G1X27883Y20824D3*
G1X27883Y20628D3*
G1X27883Y18265D3*
G1X27883Y18069D3*
G1X27883Y17675D3*
G1X27883Y17478D3*
G1X27686Y21415D3*
G1X27686Y21218D3*
G1X27686Y20824D3*
G1X27686Y20628D3*
G1X27686Y20431D3*
G1X27686Y20234D3*
G1X27686Y19840D3*
G1X27686Y19643D3*
G1X27686Y19447D3*
G1X27686Y19250D3*
G1X27686Y19053D3*
G1X27686Y18856D3*
G1X27686Y18659D3*
G1X27686Y18462D3*
G1X27686Y18265D3*
G1X27686Y18069D3*
G1X27686Y17675D3*
G1X27686Y17478D3*
G1X27489Y21218D3*
G1X27489Y20824D3*
G1X27489Y20628D3*
G1X27489Y20431D3*
G1X27489Y20234D3*
G1X27489Y20037D3*
G1X27489Y19840D3*
G1X27489Y19643D3*
G1X27489Y19447D3*
G1X27489Y19250D3*
G1X27489Y19053D3*
G1X27489Y18856D3*
G1X27489Y18659D3*
G1X27489Y18462D3*
G1X27489Y18265D3*
G1X27489Y18069D3*
G1X27489Y17675D3*
G1X27489Y17478D3*
G1X27292Y21218D3*
G1X27292Y17675D3*
G1X27292Y17478D3*
G1X27095Y21218D3*
G1X27095Y21021D3*
G1X27095Y20824D3*
G1X27095Y20628D3*
G1X27095Y20431D3*
G1X27095Y20234D3*
G1X27095Y20037D3*
G1X27095Y19840D3*
G1X27095Y19643D3*
G1X27095Y19447D3*
G1X27095Y19250D3*
G1X27095Y19053D3*
G1X27095Y18856D3*
G1X27095Y18659D3*
G1X27095Y18462D3*
G1X27095Y18265D3*
G1X27095Y18069D3*
G1X27095Y17872D3*
G1X27095Y17675D3*
G1X27095Y17478D3*
G1X26899Y21218D3*
G1X26899Y21021D3*
G1X26899Y20824D3*
G1X26899Y20628D3*
G1X26899Y20431D3*
G1X26899Y20234D3*
G1X26899Y20037D3*
G1X26899Y19840D3*
G1X26899Y19643D3*
G1X26899Y19447D3*
G1X26899Y19250D3*
G1X26899Y19053D3*
G1X26899Y18856D3*
G1X26899Y18659D3*
G1X26899Y18462D3*
G1X26899Y18265D3*
G1X26899Y18069D3*
G1X26899Y17872D3*
G1X26899Y17675D3*
G1X26899Y17478D3*
G54D240*
G1X26985Y32734D3*
G1X26709Y32734D3*
G1X30379Y32734D3*
G1X30655Y32734D3*
G54D242*
G1X34117Y32671D3*
G1X34117Y32297D3*
G1X33717Y32297D3*
G1X33717Y32671D3*
G1X33317Y32297D3*
G1X33317Y32671D3*
G1X25467Y32097D3*
G1X25467Y32471D3*
G1X31467Y29047D3*
G1X31467Y29421D3*
G1X32067Y29047D3*
G1X32067Y29421D3*
G1X24967Y32097D3*
G1X24967Y32471D3*
G1X33567Y30321D3*
G1X33567Y29947D3*
G1X25817Y27747D3*
G1X25817Y28121D3*
G1X32067Y28247D3*
G1X32067Y28621D3*
G1X24967Y33271D3*
G1X24967Y32897D3*
G1X33967Y29571D3*
G1X33967Y29197D3*
G1X33567Y29571D3*
G1X33567Y29197D3*
G1X25467Y32897D3*
G1X25467Y33271D3*
G1X32067Y27771D3*
G1X32067Y27397D3*
G1X33567Y27171D3*
G1X33567Y26797D3*
G54D241*
G1X31080Y32734D3*
G1X31454Y32734D3*
G1X32504Y33034D3*
G1X32130Y33034D3*
G1X32130Y33884D3*
G1X32504Y33884D3*
G1X25004Y30034D3*
G1X24630Y30034D3*
G1X25430Y30034D3*
G1X25804Y30034D3*
G1X25804Y28934D3*
G1X25430Y28934D3*
G1X32504Y33484D3*
G1X32130Y33484D3*
G1X24630Y28934D3*
G1X25004Y28934D3*
G54D255*
G1X32972Y33884D3*
G1X33562Y33884D3*
G54D240*
G1X26367Y28856D3*
G1X26367Y29131D3*
G54D258*
G1X31717Y31484D3*
G54D259*
G1X31422Y32040D3*
G1X31619Y32040D3*
G1X31815Y32040D3*
G1X32012Y32040D3*
G1X32012Y30927D3*
G1X31815Y30927D3*
G1X31619Y30927D3*
G1X31422Y30927D3*
G54D260*
G1X26875Y26842D3*
G1X27072Y26842D3*
G1X27269Y26842D3*
G1X27465Y26842D3*
G1X27662Y26842D3*
G1X27859Y26842D3*
G1X28056Y26842D3*
G1X28253Y26842D3*
G1X28450Y26842D3*
G1X28646Y26842D3*
G1X28843Y26842D3*
G1X29040Y26842D3*
G1X29237Y26842D3*
G1X29434Y26842D3*
G1X29631Y26842D3*
G1X29828Y26842D3*
G1X30024Y26842D3*
G1X30221Y26842D3*
G1X30418Y26842D3*
G1X30615Y26842D3*
G1X30812Y26842D3*
G1X31009Y26842D3*
G1X31206Y26842D3*
G1X31402Y26842D3*
G1X31599Y26842D3*
G1X26875Y25425D3*
G1X27072Y25425D3*
G1X27269Y25425D3*
G1X27465Y25425D3*
G1X27662Y25425D3*
G1X27859Y25425D3*
G1X28056Y25425D3*
G1X28253Y25425D3*
G1X28450Y25425D3*
G1X28646Y25425D3*
G1X28843Y25425D3*
G1X29040Y25425D3*
G1X29237Y25425D3*
G1X29434Y25425D3*
G1X29631Y25425D3*
G1X29828Y25425D3*
G1X30024Y25425D3*
G1X30221Y25425D3*
G1X30418Y25425D3*
G1X30615Y25425D3*
G1X30812Y25425D3*
G1X31009Y25425D3*
G1X31206Y25425D3*
G1X31402Y25425D3*
G1X31599Y25425D3*
G54D261*
G1X32268Y26134D3*
G1X26206Y26134D3*
G54D262*
G1X25277Y28384D3*
G1X24667Y28384D3*
G1X25277Y27734D3*
G1X24667Y27734D3*
G54D263*
G1X33464Y31708D3*
G1X33464Y30960D3*
G1X34370Y31334D3*
G1X33464Y28608D3*
G1X33464Y27860D3*
G1X34370Y28234D3*
G54D264*
G1X25670Y30679D3*
G1X25670Y31388D3*
G1X24764Y30679D3*
G1X24764Y31388D3*
G54D265*
G1X30564Y33484D3*
G1X31470Y33484D3*
G54D111*
G1X29654Y32202D3*
G1X27489Y32202D3*
G1X28473Y32202D3*
G1X27292Y32202D3*
G1X29261Y32202D3*
G1X27095Y32202D3*
G1X29064Y32202D3*
G1X26899Y32202D3*
G1X30836Y32202D3*
G1X30836Y32005D3*
G1X30836Y31808D3*
G1X30836Y31611D3*
G1X30836Y31415D3*
G1X30836Y31218D3*
G1X30836Y30824D3*
G1X30836Y30627D3*
G1X30836Y30430D3*
G1X30836Y30234D3*
G1X30836Y30037D3*
G1X30836Y29840D3*
G1X30836Y29643D3*
G1X30836Y29446D3*
G1X30836Y29249D3*
G1X30836Y29052D3*
G1X30836Y28856D3*
G1X30836Y28659D3*
G1X30836Y28462D3*
G1X30836Y28265D3*
G1X30639Y32202D3*
G1X30639Y32005D3*
G1X30639Y31808D3*
G1X30639Y31611D3*
G1X30639Y31415D3*
G1X30639Y31218D3*
G1X30639Y30824D3*
G1X30639Y30627D3*
G1X30639Y30430D3*
G1X30639Y30234D3*
G1X30639Y30037D3*
G1X30639Y29840D3*
G1X30639Y29643D3*
G1X30639Y29446D3*
G1X30639Y29249D3*
G1X30639Y29052D3*
G1X30639Y28856D3*
G1X30639Y28659D3*
G1X30639Y28462D3*
G1X30639Y28265D3*
G1X30442Y32202D3*
G1X30442Y32005D3*
G1X30442Y28462D3*
G1X30442Y28265D3*
G1X30245Y32202D3*
G1X30245Y32005D3*
G1X30245Y31611D3*
G1X30245Y31415D3*
G1X30245Y31218D3*
G1X30245Y31021D3*
G1X30245Y30824D3*
G1X30245Y30627D3*
G1X30245Y30430D3*
G1X30245Y30234D3*
G1X30245Y30037D3*
G1X30245Y29840D3*
G1X30245Y29643D3*
G1X30245Y29446D3*
G1X30245Y29249D3*
G1X30245Y29052D3*
G1X30245Y28856D3*
G1X30245Y28462D3*
G1X30245Y28265D3*
G1X30048Y32202D3*
G1X30048Y32005D3*
G1X30048Y31611D3*
G1X30048Y31415D3*
G1X30048Y31218D3*
G1X30048Y31021D3*
G1X30048Y30824D3*
G1X30048Y30627D3*
G1X30048Y30430D3*
G1X30048Y30234D3*
G1X30048Y30037D3*
G1X30048Y29643D3*
G1X30048Y29446D3*
G1X30048Y29249D3*
G1X30048Y29052D3*
G1X30048Y28856D3*
G1X30048Y28462D3*
G1X30048Y28265D3*
G1X29851Y32202D3*
G1X29851Y32005D3*
G1X29851Y31611D3*
G1X29851Y31415D3*
G1X29851Y29052D3*
G1X29851Y28856D3*
G1X29851Y28462D3*
G1X29654Y32005D3*
G1X29654Y31611D3*
G1X29654Y31415D3*
G1X29654Y29052D3*
G1X29654Y28856D3*
G1X29654Y28462D3*
G1X29654Y28265D3*
G1X29458Y32005D3*
G1X29458Y31611D3*
G1X29458Y31415D3*
G1X29458Y29052D3*
G1X29458Y28856D3*
G1X29458Y28462D3*
G1X29458Y28265D3*
G1X29261Y32005D3*
G1X29261Y31611D3*
G1X29261Y31415D3*
G1X29261Y29052D3*
G1X29261Y28856D3*
G1X29261Y28462D3*
G1X29261Y28265D3*
G1X29064Y32005D3*
G1X29064Y31611D3*
G1X29064Y31415D3*
G1X29064Y29052D3*
G1X29064Y28856D3*
G1X29064Y28462D3*
G1X29064Y28265D3*
G1X28867Y32202D3*
G1X28867Y32005D3*
G1X28867Y31611D3*
G1X28867Y31415D3*
G1X28867Y28856D3*
G1X28867Y28462D3*
G1X28867Y28265D3*
G1X28670Y32202D3*
G1X28670Y32005D3*
G1X28670Y31611D3*
G1X28670Y31415D3*
G1X28670Y29052D3*
G1X28670Y28856D3*
G1X28670Y28462D3*
G1X28670Y28265D3*
G1X28473Y32005D3*
G1X28473Y31611D3*
G1X28473Y31415D3*
G1X28473Y29052D3*
G1X28473Y28856D3*
G1X28473Y28462D3*
G1X28276Y32202D3*
G1X28276Y32005D3*
G1X28276Y31611D3*
G1X28276Y31415D3*
G1X28276Y29052D3*
G1X28276Y28856D3*
G1X28276Y28462D3*
G1X28080Y32202D3*
G1X28080Y32005D3*
G1X28080Y31611D3*
G1X28080Y31415D3*
G1X28080Y29052D3*
G1X28080Y28856D3*
G1X28080Y28462D3*
G1X28080Y28265D3*
G1X27883Y32202D3*
G1X27883Y32005D3*
G1X27883Y31611D3*
G1X27883Y31415D3*
G1X27883Y29052D3*
G1X27883Y28856D3*
G1X27883Y28462D3*
G1X27883Y28265D3*
G1X27686Y32202D3*
G1X27686Y32005D3*
G1X27686Y31611D3*
G1X27686Y31415D3*
G1X27686Y31218D3*
G1X27686Y31021D3*
G1X27686Y30627D3*
G1X27686Y30430D3*
G1X27686Y30234D3*
G1X27686Y30037D3*
G1X27686Y29840D3*
G1X27686Y29643D3*
G1X27686Y29446D3*
G1X27686Y29249D3*
G1X27686Y29052D3*
G1X27686Y28856D3*
G1X27686Y28462D3*
G1X27686Y28265D3*
G1X27489Y32005D3*
G1X27489Y31611D3*
G1X27489Y31415D3*
G1X27489Y31218D3*
G1X27489Y31021D3*
G1X27489Y30824D3*
G1X27489Y30627D3*
G1X27489Y30430D3*
G1X27489Y30234D3*
G1X27489Y30037D3*
G1X27489Y29840D3*
G1X27489Y29643D3*
G1X27489Y29446D3*
G1X27489Y29249D3*
G1X27489Y29052D3*
G1X27489Y28856D3*
G1X27489Y28462D3*
G1X27489Y28265D3*
G1X27292Y32005D3*
G1X27292Y28462D3*
G1X27292Y28265D3*
G1X27095Y32005D3*
G1X27095Y31808D3*
G1X27095Y31611D3*
G1X27095Y31415D3*
G1X27095Y31218D3*
G1X27095Y31021D3*
G1X27095Y30824D3*
G1X27095Y30627D3*
G1X27095Y30430D3*
G1X27095Y30234D3*
G1X27095Y30037D3*
G1X27095Y29840D3*
G1X27095Y29643D3*
G1X27095Y29446D3*
G1X27095Y29249D3*
G1X27095Y29052D3*
G1X27095Y28856D3*
G1X27095Y28659D3*
G1X27095Y28462D3*
G1X27095Y28265D3*
G1X26899Y32005D3*
G1X26899Y31808D3*
G1X26899Y31611D3*
G1X26899Y31415D3*
G1X26899Y31218D3*
G1X26899Y31021D3*
G1X26899Y30824D3*
G1X26899Y30627D3*
G1X26899Y30430D3*
G1X26899Y30234D3*
G1X26899Y30037D3*
G1X26899Y29840D3*
G1X26899Y29643D3*
G1X26899Y29446D3*
G1X26899Y29249D3*
G1X26899Y29052D3*
G1X26899Y28856D3*
G1X26899Y28659D3*
G1X26899Y28462D3*
G1X26899Y28265D3*

%LPD*%
%LNbl*%
%FSLAX24Y24*%
%MOIN*%
%AD*%
%ADD53C,0.041339*%
G54D53*
%SRX1Y1I0.0J0.0*%
G1X489Y30947D3*
G1X489Y6459D3*
G1X36001Y30947D3*

M2*
