*
%LPD*%
%FSLAX24Y24*%
%MOIN*%
%AD*%
%ADD172R,0.031496X0.031496*%
%ADD240R,0.01575X0.01575*%
%ADD241R,0.01969X0.02362*%
%ADD242R,0.02362X0.01969*%
%ADD243R,0.03543X0.02362*%
%ADD255R,0.02362X0.03543*%
%ADD256R,0.02756X0.00787*%
%ADD257R,0.00787X0.02756*%
%ADD266R,0.031496X0.059055*%
%ADD267R,0.102362X0.03937*%
%ADD268R,0.031496X0.074803*%
G54D266*
%SRX1Y1I0.0J0.0*%
G1X27118Y26753D3*
G1X27807Y26753D3*
G1X27118Y28053D3*
G1X27807Y28053D3*
G54D240*
G1X28385Y32003D3*
G1X28661Y32003D3*
G1X28975Y31453D3*
G1X29251Y31453D3*
G1X28031Y29133D3*
G1X27755Y29133D3*
G1X27755Y28683D3*
G1X28031Y28683D3*
G1X30751Y30313D3*
G1X30475Y30313D3*
G1X27725Y32653D3*
G1X28001Y32653D3*
G1X31851Y27803D3*
G1X31575Y27803D3*
G1X30751Y29453D3*
G1X30475Y29453D3*
G1X29215Y29003D3*
G1X29491Y29003D3*
G1X30751Y29883D3*
G1X30475Y29883D3*
G1X31575Y29103D3*
G1X31851Y29103D3*
G1X28031Y29613D3*
G1X27755Y29613D3*
G1X26525Y29603D3*
G1X26801Y29603D3*
G1X26525Y29203D3*
G1X26801Y29203D3*
G54D242*
G1X30763Y27916D3*
G1X30763Y28290D3*
G1X30813Y33240D3*
G1X30813Y32866D3*
G1X30413Y32866D3*
G1X30413Y33240D3*
G1X32163Y33240D3*
G1X32163Y32866D3*
G1X31163Y28290D3*
G1X31163Y27916D3*
G1X24413Y32990D3*
G1X24413Y32616D3*
G1X32063Y28690D3*
G1X32063Y28316D3*
G1X24413Y34140D3*
G1X24413Y33766D3*
G1X31663Y28316D3*
G1X31663Y28690D3*
G1X32663Y32866D3*
G1X32663Y33240D3*
G1X33163Y32866D3*
G1X33163Y33240D3*
G1X33663Y32866D3*
G1X33663Y33240D3*
G54D241*
G1X30800Y25453D3*
G1X30426Y25453D3*
G1X27276Y27403D3*
G1X27650Y27403D3*
G1X31626Y29503D3*
G1X32000Y29503D3*
G1X29676Y30903D3*
G1X30050Y30903D3*
G1X31226Y25453D3*
G1X31600Y25453D3*
G1X26976Y26053D3*
G1X27350Y26053D3*
G1X30426Y25053D3*
G1X30800Y25053D3*
G1X26526Y28753D3*
G1X26900Y28753D3*
G1X31626Y30303D3*
G1X32000Y30303D3*
G1X31976Y25053D3*
G1X32350Y25053D3*
G1X30050Y29853D3*
G1X29676Y29853D3*
G1X31626Y29903D3*
G1X32000Y29903D3*
G1X30050Y30253D3*
G1X29676Y30253D3*
G1X31600Y25053D3*
G1X31226Y25053D3*
G1X26900Y27403D3*
G1X26526Y27403D3*
G1X30776Y27503D3*
G1X31150Y27503D3*
G54D267*
G1X27113Y32004D3*
G1X27113Y30902D3*
G54D268*
G1X26600Y33703D3*
G1X27526Y33703D3*
G54D255*
G1X26568Y30203D3*
G1X27158Y32753D3*
G1X27158Y30203D3*
G1X26568Y32753D3*
G54D243*
G1X28163Y33358D3*
G1X28163Y33948D3*
G54D172*
G1X25463Y33303D3*
G54D257*
G1X25306Y33854D3*
G1X25778Y32752D3*
G1X25620Y32752D3*
G1X25463Y32752D3*
G1X25306Y32752D3*
G1X25148Y32752D3*
G1X25148Y33854D3*
G1X25463Y33854D3*
G1X25620Y33854D3*
G1X25778Y33854D3*
G54D256*
G1X26014Y33618D3*
G1X26014Y33460D3*
G1X26014Y33303D3*
G1X26014Y33145D3*
G1X26014Y32988D3*
G1X24912Y32988D3*
G1X24912Y33145D3*
G1X24912Y33303D3*
G1X24912Y33460D3*
G1X24912Y33618D3*
G54D240*
G1X30643Y28785D3*
G1X30643Y29061D3*
G1X30283Y29061D3*
G1X30283Y28785D3*
G1X30313Y31335D3*
G1X30313Y31611D3*
G1X30743Y31611D3*
G1X30743Y31335D3*
G1X31113Y28785D3*
G1X31113Y29061D3*
G1X28963Y30105D3*
G1X28963Y30381D3*
G1X31563Y31391D3*
G1X31563Y31115D3*
G1X31113Y31335D3*
G1X31113Y31611D3*
G1X28363Y30715D3*
G1X28363Y30991D3*
G1X28963Y30991D3*
G1X28963Y30715D3*
G1X27163Y29541D3*
G1X27163Y29265D3*
G1X31113Y29761D3*
G1X31113Y29485D3*
G54D266*
G1X27118Y15965D3*
G1X27807Y15965D3*
G1X27118Y17265D3*
G1X27807Y17265D3*
G54D240*
G1X28385Y21215D3*
G1X28661Y21215D3*
G1X28975Y20665D3*
G1X29251Y20665D3*
G1X28031Y18345D3*
G1X27755Y18345D3*
G1X27755Y17895D3*
G1X28031Y17895D3*
G1X30751Y19525D3*
G1X30475Y19525D3*
G1X27725Y21865D3*
G1X28001Y21865D3*
G1X31851Y17015D3*
G1X31575Y17015D3*
G1X30751Y18665D3*
G1X30475Y18665D3*
G1X29215Y18215D3*
G1X29491Y18215D3*
G1X30751Y19095D3*
G1X30475Y19095D3*
G1X31575Y18315D3*
G1X31851Y18315D3*
G1X28031Y18825D3*
G1X27755Y18825D3*
G1X26525Y18815D3*
G1X26801Y18815D3*
G1X26525Y18415D3*
G1X26801Y18415D3*
G54D242*
G1X30763Y17128D3*
G1X30763Y17502D3*
G1X30813Y22452D3*
G1X30813Y22078D3*
G1X30413Y22078D3*
G1X30413Y22452D3*
G1X32163Y22452D3*
G1X32163Y22078D3*
G1X31163Y17502D3*
G1X31163Y17128D3*
G1X24413Y22202D3*
G1X24413Y21828D3*
G1X32063Y17902D3*
G1X32063Y17528D3*
G1X24413Y23352D3*
G1X24413Y22978D3*
G1X31663Y17528D3*
G1X31663Y17902D3*
G1X32663Y22078D3*
G1X32663Y22452D3*
G1X33163Y22078D3*
G1X33163Y22452D3*
G1X33663Y22078D3*
G1X33663Y22452D3*
G54D241*
G1X30800Y14665D3*
G1X30426Y14665D3*
G1X27276Y16615D3*
G1X27650Y16615D3*
G1X31626Y18715D3*
G1X32000Y18715D3*
G1X29676Y20115D3*
G1X30050Y20115D3*
G1X31226Y14665D3*
G1X31600Y14665D3*
G1X26976Y15265D3*
G1X27350Y15265D3*
G1X30426Y14265D3*
G1X30800Y14265D3*
G1X26526Y17965D3*
G1X26900Y17965D3*
G1X31626Y19515D3*
G1X32000Y19515D3*
G1X31976Y14265D3*
G1X32350Y14265D3*
G1X30050Y19065D3*
G1X29676Y19065D3*
G1X31626Y19115D3*
G1X32000Y19115D3*
G1X30050Y19465D3*
G1X29676Y19465D3*
G1X31600Y14265D3*
G1X31226Y14265D3*
G1X26900Y16615D3*
G1X26526Y16615D3*
G1X30776Y16715D3*
G1X31150Y16715D3*
G54D267*
G1X27113Y21216D3*
G1X27113Y20114D3*
G54D268*
G1X26600Y22915D3*
G1X27526Y22915D3*
G54D255*
G1X26568Y19415D3*
G1X27158Y21965D3*
G1X27158Y19415D3*
G1X26568Y21965D3*
G54D243*
G1X28163Y22570D3*
G1X28163Y23160D3*
G54D172*
G1X25463Y22515D3*
G54D257*
G1X25306Y23066D3*
G1X25778Y21964D3*
G1X25620Y21964D3*
G1X25463Y21964D3*
G1X25306Y21964D3*
G1X25148Y21964D3*
G1X25148Y23066D3*
G1X25463Y23066D3*
G1X25620Y23066D3*
G1X25778Y23066D3*
G54D256*
G1X26014Y22830D3*
G1X26014Y22672D3*
G1X26014Y22515D3*
G1X26014Y22357D3*
G1X26014Y22200D3*
G1X24912Y22200D3*
G1X24912Y22357D3*
G1X24912Y22515D3*
G1X24912Y22672D3*
G1X24912Y22830D3*
G54D240*
G1X30643Y17997D3*
G1X30643Y18273D3*
G1X30283Y18273D3*
G1X30283Y17997D3*
G1X30313Y20547D3*
G1X30313Y20823D3*
G1X30743Y20823D3*
G1X30743Y20547D3*
G1X31113Y17997D3*
G1X31113Y18273D3*
G1X28963Y19317D3*
G1X28963Y19593D3*
G1X31563Y20603D3*
G1X31563Y20327D3*
G1X31113Y20547D3*
G1X31113Y20823D3*
G1X28363Y19927D3*
G1X28363Y20203D3*
G1X28963Y20203D3*
G1X28963Y19927D3*
G1X27163Y18753D3*
G1X27163Y18477D3*
G1X31113Y18973D3*
G1X31113Y18697D3*
G54D266*
G1X27118Y5178D3*
G1X27807Y5178D3*
G1X27118Y6478D3*
G1X27807Y6478D3*
G54D240*
G1X28385Y10428D3*
G1X28661Y10428D3*
G1X28975Y9878D3*
G1X29251Y9878D3*
G1X28031Y7558D3*
G1X27755Y7558D3*
G1X27755Y7108D3*
G1X28031Y7108D3*
G1X30751Y8738D3*
G1X30475Y8738D3*
G1X27725Y11078D3*
G1X28001Y11078D3*
G1X31851Y6228D3*
G1X31575Y6228D3*
G1X30751Y7878D3*
G1X30475Y7878D3*
G1X29215Y7428D3*
G1X29491Y7428D3*
G1X30751Y8308D3*
G1X30475Y8308D3*
G1X31575Y7528D3*
G1X31851Y7528D3*
G1X28031Y8038D3*
G1X27755Y8038D3*
G1X26525Y8028D3*
G1X26801Y8028D3*
G1X26525Y7628D3*
G1X26801Y7628D3*
G54D242*
G1X30763Y6341D3*
G1X30763Y6715D3*
G1X30813Y11665D3*
G1X30813Y11291D3*
G1X30413Y11291D3*
G1X30413Y11665D3*
G1X32163Y11665D3*
G1X32163Y11291D3*
G1X31163Y6715D3*
G1X31163Y6341D3*
G1X24413Y11415D3*
G1X24413Y11041D3*
G1X32063Y7115D3*
G1X32063Y6741D3*
G1X24413Y12565D3*
G1X24413Y12191D3*
G1X31663Y6741D3*
G1X31663Y7115D3*
G1X32663Y11291D3*
G1X32663Y11665D3*
G1X33163Y11291D3*
G1X33163Y11665D3*
G1X33663Y11291D3*
G1X33663Y11665D3*
G54D241*
G1X30800Y3878D3*
G1X30426Y3878D3*
G1X27276Y5828D3*
G1X27650Y5828D3*
G1X31626Y7928D3*
G1X32000Y7928D3*
G1X29676Y9328D3*
G1X30050Y9328D3*
G1X31226Y3878D3*
G1X31600Y3878D3*
G1X26976Y4478D3*
G1X27350Y4478D3*
G1X30426Y3478D3*
G1X30800Y3478D3*
G1X26526Y7178D3*
G1X26900Y7178D3*
G1X31626Y8728D3*
G1X32000Y8728D3*
G1X31976Y3478D3*
G1X32350Y3478D3*
G1X30050Y8278D3*
G1X29676Y8278D3*
G1X31626Y8328D3*
G1X32000Y8328D3*
G1X30050Y8678D3*
G1X29676Y8678D3*
G1X31600Y3478D3*
G1X31226Y3478D3*
G1X26900Y5828D3*
G1X26526Y5828D3*
G1X30776Y5928D3*
G1X31150Y5928D3*
G54D267*
G1X27113Y10429D3*
G1X27113Y9327D3*
G54D268*
G1X26600Y12128D3*
G1X27526Y12128D3*
G54D255*
G1X26568Y8628D3*
G1X27158Y11178D3*
G1X27158Y8628D3*
G1X26568Y11178D3*
G54D243*
G1X28163Y11783D3*
G1X28163Y12373D3*
G54D172*
G1X25463Y11728D3*
G54D257*
G1X25306Y12279D3*
G1X25778Y11177D3*
G1X25620Y11177D3*
G1X25463Y11177D3*
G1X25306Y11177D3*
G1X25148Y11177D3*
G1X25148Y12279D3*
G1X25463Y12279D3*
G1X25620Y12279D3*
G1X25778Y12279D3*
G54D256*
G1X26014Y12043D3*
G1X26014Y11885D3*
G1X26014Y11728D3*
G1X26014Y11570D3*
G1X26014Y11413D3*
G1X24912Y11413D3*
G1X24912Y11570D3*
G1X24912Y11728D3*
G1X24912Y11885D3*
G1X24912Y12043D3*
G54D240*
G1X30643Y7210D3*
G1X30643Y7486D3*
G1X30283Y7486D3*
G1X30283Y7210D3*
G1X30313Y9760D3*
G1X30313Y10036D3*
G1X30743Y10036D3*
G1X30743Y9760D3*
G1X31113Y7210D3*
G1X31113Y7486D3*
G1X28963Y8530D3*
G1X28963Y8806D3*
G1X31563Y9816D3*
G1X31563Y9540D3*
G1X31113Y9760D3*
G1X31113Y10036D3*
G1X28363Y9140D3*
G1X28363Y9416D3*
G1X28963Y9416D3*
G1X28963Y9140D3*
G1X27163Y7966D3*
G1X27163Y7690D3*
G1X31113Y8186D3*
G1X31113Y7910D3*
G54D266*
G1X15937Y26753D3*
G1X16626Y26753D3*
G1X15937Y28053D3*
G1X16626Y28053D3*
G54D240*
G1X17204Y32003D3*
G1X17480Y32003D3*
G1X17794Y31453D3*
G1X18070Y31453D3*
G1X16850Y29133D3*
G1X16574Y29133D3*
G1X16574Y28683D3*
G1X16850Y28683D3*
G1X19570Y30313D3*
G1X19294Y30313D3*
G1X16544Y32653D3*
G1X16820Y32653D3*
G1X20670Y27803D3*
G1X20394Y27803D3*
G1X19570Y29453D3*
G1X19294Y29453D3*
G1X18034Y29003D3*
G1X18310Y29003D3*
G1X19570Y29883D3*
G1X19294Y29883D3*
G1X20394Y29103D3*
G1X20670Y29103D3*
G1X16850Y29613D3*
G1X16574Y29613D3*
G1X15344Y29603D3*
G1X15620Y29603D3*
G1X15344Y29203D3*
G1X15620Y29203D3*
G54D242*
G1X19582Y27916D3*
G1X19582Y28290D3*
G1X19632Y33240D3*
G1X19632Y32866D3*
G1X19232Y32866D3*
G1X19232Y33240D3*
G1X20982Y33240D3*
G1X20982Y32866D3*
G1X19982Y28290D3*
G1X19982Y27916D3*
G1X13232Y32990D3*
G1X13232Y32616D3*
G1X20882Y28690D3*
G1X20882Y28316D3*
G1X13232Y34140D3*
G1X13232Y33766D3*
G1X20482Y28316D3*
G1X20482Y28690D3*
G1X21482Y32866D3*
G1X21482Y33240D3*
G1X21982Y32866D3*
G1X21982Y33240D3*
G1X22482Y32866D3*
G1X22482Y33240D3*
G54D241*
G1X19619Y25453D3*
G1X19245Y25453D3*
G1X16095Y27403D3*
G1X16469Y27403D3*
G1X20445Y29503D3*
G1X20819Y29503D3*
G1X18495Y30903D3*
G1X18869Y30903D3*
G1X20045Y25453D3*
G1X20419Y25453D3*
G1X15795Y26053D3*
G1X16169Y26053D3*
G1X19245Y25053D3*
G1X19619Y25053D3*
G1X15345Y28753D3*
G1X15719Y28753D3*
G1X20445Y30303D3*
G1X20819Y30303D3*
G1X20795Y25053D3*
G1X21169Y25053D3*
G1X18869Y29853D3*
G1X18495Y29853D3*
G1X20445Y29903D3*
G1X20819Y29903D3*
G1X18869Y30253D3*
G1X18495Y30253D3*
G1X20419Y25053D3*
G1X20045Y25053D3*
G1X15719Y27403D3*
G1X15345Y27403D3*
G1X19595Y27503D3*
G1X19969Y27503D3*
G54D267*
G1X15932Y32004D3*
G1X15932Y30902D3*
G54D268*
G1X15419Y33703D3*
G1X16345Y33703D3*
G54D255*
G1X15387Y30203D3*
G1X15977Y32753D3*
G1X15977Y30203D3*
G1X15387Y32753D3*
G54D243*
G1X16982Y33358D3*
G1X16982Y33948D3*
G54D172*
G1X14282Y33303D3*
G54D257*
G1X14125Y33854D3*
G1X14597Y32752D3*
G1X14439Y32752D3*
G1X14282Y32752D3*
G1X14125Y32752D3*
G1X13967Y32752D3*
G1X13967Y33854D3*
G1X14282Y33854D3*
G1X14439Y33854D3*
G1X14597Y33854D3*
G54D256*
G1X14833Y33618D3*
G1X14833Y33460D3*
G1X14833Y33303D3*
G1X14833Y33145D3*
G1X14833Y32988D3*
G1X13731Y32988D3*
G1X13731Y33145D3*
G1X13731Y33303D3*
G1X13731Y33460D3*
G1X13731Y33618D3*
G54D240*
G1X19462Y28785D3*
G1X19462Y29061D3*
G1X19102Y29061D3*
G1X19102Y28785D3*
G1X19132Y31335D3*
G1X19132Y31611D3*
G1X19562Y31611D3*
G1X19562Y31335D3*
G1X19932Y28785D3*
G1X19932Y29061D3*
G1X17782Y30105D3*
G1X17782Y30381D3*
G1X20382Y31391D3*
G1X20382Y31115D3*
G1X19932Y31335D3*
G1X19932Y31611D3*
G1X17182Y30715D3*
G1X17182Y30991D3*
G1X17782Y30991D3*
G1X17782Y30715D3*
G1X15982Y29541D3*
G1X15982Y29265D3*
G1X19932Y29761D3*
G1X19932Y29485D3*
G54D266*
G1X15937Y15965D3*
G1X16626Y15965D3*
G1X15937Y17265D3*
G1X16626Y17265D3*
G54D240*
G1X17204Y21215D3*
G1X17480Y21215D3*
G1X17794Y20665D3*
G1X18070Y20665D3*
G1X16850Y18345D3*
G1X16574Y18345D3*
G1X16574Y17895D3*
G1X16850Y17895D3*
G1X19570Y19525D3*
G1X19294Y19525D3*
G1X16544Y21865D3*
G1X16820Y21865D3*
G1X20670Y17015D3*
G1X20394Y17015D3*
G1X19570Y18665D3*
G1X19294Y18665D3*
G1X18034Y18215D3*
G1X18310Y18215D3*
G1X19570Y19095D3*
G1X19294Y19095D3*
G1X20394Y18315D3*
G1X20670Y18315D3*
G1X16850Y18825D3*
G1X16574Y18825D3*
G1X15344Y18815D3*
G1X15620Y18815D3*
G1X15344Y18415D3*
G1X15620Y18415D3*
G54D242*
G1X19582Y17128D3*
G1X19582Y17502D3*
G1X19632Y22452D3*
G1X19632Y22078D3*
G1X19232Y22078D3*
G1X19232Y22452D3*
G1X20982Y22452D3*
G1X20982Y22078D3*
G1X19982Y17502D3*
G1X19982Y17128D3*
G1X13232Y22202D3*
G1X13232Y21828D3*
G1X20882Y17902D3*
G1X20882Y17528D3*
G1X13232Y23352D3*
G1X13232Y22978D3*
G1X20482Y17528D3*
G1X20482Y17902D3*
G1X21482Y22078D3*
G1X21482Y22452D3*
G1X21982Y22078D3*
G1X21982Y22452D3*
G1X22482Y22078D3*
G1X22482Y22452D3*
G54D241*
G1X19619Y14665D3*
G1X19245Y14665D3*
G1X16095Y16615D3*
G1X16469Y16615D3*
G1X20445Y18715D3*
G1X20819Y18715D3*
G1X18495Y20115D3*
G1X18869Y20115D3*
G1X20045Y14665D3*
G1X20419Y14665D3*
G1X15795Y15265D3*
G1X16169Y15265D3*
G1X19245Y14265D3*
G1X19619Y14265D3*
G1X15345Y17965D3*
G1X15719Y17965D3*
G1X20445Y19515D3*
G1X20819Y19515D3*
G1X20795Y14265D3*
G1X21169Y14265D3*
G1X18869Y19065D3*
G1X18495Y19065D3*
G1X20445Y19115D3*
G1X20819Y19115D3*
G1X18869Y19465D3*
G1X18495Y19465D3*
G1X20419Y14265D3*
G1X20045Y14265D3*
G1X15719Y16615D3*
G1X15345Y16615D3*
G1X19595Y16715D3*
G1X19969Y16715D3*
G54D267*
G1X15932Y21216D3*
G1X15932Y20114D3*
G54D268*
G1X15419Y22915D3*
G1X16345Y22915D3*
G54D255*
G1X15387Y19415D3*
G1X15977Y21965D3*
G1X15977Y19415D3*
G1X15387Y21965D3*
G54D243*
G1X16982Y22570D3*
G1X16982Y23160D3*
G54D172*
G1X14282Y22515D3*
G54D257*
G1X14125Y23066D3*
G1X14597Y21964D3*
G1X14439Y21964D3*
G1X14282Y21964D3*
G1X14125Y21964D3*
G1X13967Y21964D3*
G1X13967Y23066D3*
G1X14282Y23066D3*
G1X14439Y23066D3*
G1X14597Y23066D3*
G54D256*
G1X14833Y22830D3*
G1X14833Y22672D3*
G1X14833Y22515D3*
G1X14833Y22357D3*
G1X14833Y22200D3*
G1X13731Y22200D3*
G1X13731Y22357D3*
G1X13731Y22515D3*
G1X13731Y22672D3*
G1X13731Y22830D3*
G54D240*
G1X19462Y17997D3*
G1X19462Y18273D3*
G1X19102Y18273D3*
G1X19102Y17997D3*
G1X19132Y20547D3*
G1X19132Y20823D3*
G1X19562Y20823D3*
G1X19562Y20547D3*
G1X19932Y17997D3*
G1X19932Y18273D3*
G1X17782Y19317D3*
G1X17782Y19593D3*
G1X20382Y20603D3*
G1X20382Y20327D3*
G1X19932Y20547D3*
G1X19932Y20823D3*
G1X17182Y19927D3*
G1X17182Y20203D3*
G1X17782Y20203D3*
G1X17782Y19927D3*
G1X15982Y18753D3*
G1X15982Y18477D3*
G1X19932Y18973D3*
G1X19932Y18697D3*
G54D266*
G1X15937Y5178D3*
G1X16626Y5178D3*
G1X15937Y6478D3*
G1X16626Y6478D3*
G54D240*
G1X17204Y10428D3*
G1X17480Y10428D3*
G1X17794Y9878D3*
G1X18070Y9878D3*
G1X16850Y7558D3*
G1X16574Y7558D3*
G1X16574Y7108D3*
G1X16850Y7108D3*
G1X19570Y8738D3*
G1X19294Y8738D3*
G1X16544Y11078D3*
G1X16820Y11078D3*
G1X20670Y6228D3*
G1X20394Y6228D3*
G1X19570Y7878D3*
G1X19294Y7878D3*
G1X18034Y7428D3*
G1X18310Y7428D3*
G1X19570Y8308D3*
G1X19294Y8308D3*
G1X20394Y7528D3*
G1X20670Y7528D3*
G1X16850Y8038D3*
G1X16574Y8038D3*
G1X15344Y8028D3*
G1X15620Y8028D3*
G1X15344Y7628D3*
G1X15620Y7628D3*
G54D242*
G1X19582Y6341D3*
G1X19582Y6715D3*
G1X19632Y11665D3*
G1X19632Y11291D3*
G1X19232Y11291D3*
G1X19232Y11665D3*
G1X20982Y11665D3*
G1X20982Y11291D3*
G1X19982Y6715D3*
G1X19982Y6341D3*
G1X13232Y11415D3*
G1X13232Y11041D3*
G1X20882Y7115D3*
G1X20882Y6741D3*
G1X13232Y12565D3*
G1X13232Y12191D3*
G1X20482Y6741D3*
G1X20482Y7115D3*
G1X21482Y11291D3*
G1X21482Y11665D3*
G1X21982Y11291D3*
G1X21982Y11665D3*
G1X22482Y11291D3*
G1X22482Y11665D3*
G54D241*
G1X19619Y3878D3*
G1X19245Y3878D3*
G1X16095Y5828D3*
G1X16469Y5828D3*
G1X20445Y7928D3*
G1X20819Y7928D3*
G1X18495Y9328D3*
G1X18869Y9328D3*
G1X20045Y3878D3*
G1X20419Y3878D3*
G1X15795Y4478D3*
G1X16169Y4478D3*
G1X19245Y3478D3*
G1X19619Y3478D3*
G1X15345Y7178D3*
G1X15719Y7178D3*
G1X20445Y8728D3*
G1X20819Y8728D3*
G1X20795Y3478D3*
G1X21169Y3478D3*
G1X18869Y8278D3*
G1X18495Y8278D3*
G1X20445Y8328D3*
G1X20819Y8328D3*
G1X18869Y8678D3*
G1X18495Y8678D3*
G1X20419Y3478D3*
G1X20045Y3478D3*
G1X15719Y5828D3*
G1X15345Y5828D3*
G1X19595Y5928D3*
G1X19969Y5928D3*
G54D267*
G1X15932Y10429D3*
G1X15932Y9327D3*
G54D268*
G1X15419Y12128D3*
G1X16345Y12128D3*
G54D255*
G1X15387Y8628D3*
G1X15977Y11178D3*
G1X15977Y8628D3*
G1X15387Y11178D3*
G54D243*
G1X16982Y11783D3*
G1X16982Y12373D3*
G54D172*
G1X14282Y11728D3*
G54D257*
G1X14125Y12279D3*
G1X14597Y11177D3*
G1X14439Y11177D3*
G1X14282Y11177D3*
G1X14125Y11177D3*
G1X13967Y11177D3*
G1X13967Y12279D3*
G1X14282Y12279D3*
G1X14439Y12279D3*
G1X14597Y12279D3*
G54D256*
G1X14833Y12043D3*
G1X14833Y11885D3*
G1X14833Y11728D3*
G1X14833Y11570D3*
G1X14833Y11413D3*
G1X13731Y11413D3*
G1X13731Y11570D3*
G1X13731Y11728D3*
G1X13731Y11885D3*
G1X13731Y12043D3*
G54D240*
G1X19462Y7210D3*
G1X19462Y7486D3*
G1X19102Y7486D3*
G1X19102Y7210D3*
G1X19132Y9760D3*
G1X19132Y10036D3*
G1X19562Y10036D3*
G1X19562Y9760D3*
G1X19932Y7210D3*
G1X19932Y7486D3*
G1X17782Y8530D3*
G1X17782Y8806D3*
G1X20382Y9816D3*
G1X20382Y9540D3*
G1X19932Y9760D3*
G1X19932Y10036D3*
G1X17182Y9140D3*
G1X17182Y9416D3*
G1X17782Y9416D3*
G1X17782Y9140D3*
G1X15982Y7966D3*
G1X15982Y7690D3*
G1X19932Y8186D3*
G1X19932Y7910D3*
G54D266*
G1X4756Y5178D3*
G1X5445Y5178D3*
G1X4756Y6478D3*
G1X5445Y6478D3*
G54D240*
G1X6023Y10428D3*
G1X6299Y10428D3*
G1X6613Y9878D3*
G1X6889Y9878D3*
G1X5669Y7558D3*
G1X5393Y7558D3*
G1X5393Y7108D3*
G1X5669Y7108D3*
G1X8389Y8738D3*
G1X8113Y8738D3*
G1X5363Y11078D3*
G1X5639Y11078D3*
G1X9489Y6228D3*
G1X9213Y6228D3*
G1X8389Y7878D3*
G1X8113Y7878D3*
G1X6853Y7428D3*
G1X7129Y7428D3*
G1X8389Y8308D3*
G1X8113Y8308D3*
G1X9213Y7528D3*
G1X9489Y7528D3*
G1X5669Y8038D3*
G1X5393Y8038D3*
G1X4163Y8028D3*
G1X4439Y8028D3*
G1X4163Y7628D3*
G1X4439Y7628D3*
G54D242*
G1X8401Y6341D3*
G1X8401Y6715D3*
G1X8451Y11665D3*
G1X8451Y11291D3*
G1X8051Y11291D3*
G1X8051Y11665D3*
G1X9801Y11665D3*
G1X9801Y11291D3*
G1X8801Y6715D3*
G1X8801Y6341D3*
G1X2051Y11415D3*
G1X2051Y11041D3*
G1X9701Y7115D3*
G1X9701Y6741D3*
G1X2051Y12565D3*
G1X2051Y12191D3*
G1X9301Y6741D3*
G1X9301Y7115D3*
G1X10301Y11291D3*
G1X10301Y11665D3*
G1X10801Y11291D3*
G1X10801Y11665D3*
G1X11301Y11291D3*
G1X11301Y11665D3*
G54D241*
G1X8438Y3878D3*
G1X8064Y3878D3*
G1X4914Y5828D3*
G1X5288Y5828D3*
G1X9264Y7928D3*
G1X9638Y7928D3*
G1X7314Y9328D3*
G1X7688Y9328D3*
G1X8864Y3878D3*
G1X9238Y3878D3*
G1X4614Y4478D3*
G1X4988Y4478D3*
G1X8064Y3478D3*
G1X8438Y3478D3*
G1X4164Y7178D3*
G1X4538Y7178D3*
G1X9264Y8728D3*
G1X9638Y8728D3*
G1X9614Y3478D3*
G1X9988Y3478D3*
G1X7688Y8278D3*
G1X7314Y8278D3*
G1X9264Y8328D3*
G1X9638Y8328D3*
G1X7688Y8678D3*
G1X7314Y8678D3*
G1X9238Y3478D3*
G1X8864Y3478D3*
G1X4538Y5828D3*
G1X4164Y5828D3*
G1X8414Y5928D3*
G1X8788Y5928D3*
G54D267*
G1X4751Y10429D3*
G1X4751Y9327D3*
G54D268*
G1X4238Y12128D3*
G1X5164Y12128D3*
G54D255*
G1X4206Y8628D3*
G1X4796Y11178D3*
G1X4796Y8628D3*
G1X4206Y11178D3*
G54D243*
G1X5801Y11783D3*
G1X5801Y12373D3*
G54D172*
G1X3101Y11728D3*
G54D257*
G1X2944Y12279D3*
G1X3416Y11177D3*
G1X3258Y11177D3*
G1X3101Y11177D3*
G1X2944Y11177D3*
G1X2786Y11177D3*
G1X2786Y12279D3*
G1X3101Y12279D3*
G1X3258Y12279D3*
G1X3416Y12279D3*
G54D256*
G1X3652Y12043D3*
G1X3652Y11885D3*
G1X3652Y11728D3*
G1X3652Y11570D3*
G1X3652Y11413D3*
G1X2550Y11413D3*
G1X2550Y11570D3*
G1X2550Y11728D3*
G1X2550Y11885D3*
G1X2550Y12043D3*
G54D240*
G1X8281Y7210D3*
G1X8281Y7486D3*
G1X7921Y7486D3*
G1X7921Y7210D3*
G1X7951Y9760D3*
G1X7951Y10036D3*
G1X8381Y10036D3*
G1X8381Y9760D3*
G1X8751Y7210D3*
G1X8751Y7486D3*
G1X6601Y8530D3*
G1X6601Y8806D3*
G1X9201Y9816D3*
G1X9201Y9540D3*
G1X8751Y9760D3*
G1X8751Y10036D3*
G1X6001Y9140D3*
G1X6001Y9416D3*
G1X6601Y9416D3*
G1X6601Y9140D3*
G1X4801Y7966D3*
G1X4801Y7690D3*
G1X8751Y8186D3*
G1X8751Y7910D3*
G54D266*
G1X4756Y15965D3*
G1X5445Y15965D3*
G1X4756Y17265D3*
G1X5445Y17265D3*
G54D240*
G1X6023Y21215D3*
G1X6299Y21215D3*
G1X6613Y20665D3*
G1X6889Y20665D3*
G1X5669Y18345D3*
G1X5393Y18345D3*
G1X5393Y17895D3*
G1X5669Y17895D3*
G1X8389Y19525D3*
G1X8113Y19525D3*
G1X5363Y21865D3*
G1X5639Y21865D3*
G1X9489Y17015D3*
G1X9213Y17015D3*
G1X8389Y18665D3*
G1X8113Y18665D3*
G1X6853Y18215D3*
G1X7129Y18215D3*
G1X8389Y19095D3*
G1X8113Y19095D3*
G1X9213Y18315D3*
G1X9489Y18315D3*
G1X5669Y18825D3*
G1X5393Y18825D3*
G1X4163Y18815D3*
G1X4439Y18815D3*
G1X4163Y18415D3*
G1X4439Y18415D3*
G54D242*
G1X8401Y17128D3*
G1X8401Y17502D3*
G1X8451Y22452D3*
G1X8451Y22078D3*
G1X8051Y22078D3*
G1X8051Y22452D3*
G1X9801Y22452D3*
G1X9801Y22078D3*
G1X8801Y17502D3*
G1X8801Y17128D3*
G1X2051Y22202D3*
G1X2051Y21828D3*
G1X9701Y17902D3*
G1X9701Y17528D3*
G1X2051Y23352D3*
G1X2051Y22978D3*
G1X9301Y17528D3*
G1X9301Y17902D3*
G1X10301Y22078D3*
G1X10301Y22452D3*
G1X10801Y22078D3*
G1X10801Y22452D3*
G1X11301Y22078D3*
G1X11301Y22452D3*
G54D241*
G1X8438Y14665D3*
G1X8064Y14665D3*
G1X4914Y16615D3*
G1X5288Y16615D3*
G1X9264Y18715D3*
G1X9638Y18715D3*
G1X7314Y20115D3*
G1X7688Y20115D3*
G1X8864Y14665D3*
G1X9238Y14665D3*
G1X4614Y15265D3*
G1X4988Y15265D3*
G1X8064Y14265D3*
G1X8438Y14265D3*
G1X4164Y17965D3*
G1X4538Y17965D3*
G1X9264Y19515D3*
G1X9638Y19515D3*
G1X9614Y14265D3*
G1X9988Y14265D3*
G1X7688Y19065D3*
G1X7314Y19065D3*
G1X9264Y19115D3*
G1X9638Y19115D3*
G1X7688Y19465D3*
G1X7314Y19465D3*
G1X9238Y14265D3*
G1X8864Y14265D3*
G1X4538Y16615D3*
G1X4164Y16615D3*
G1X8414Y16715D3*
G1X8788Y16715D3*
G54D267*
G1X4751Y21216D3*
G1X4751Y20114D3*
G54D268*
G1X4238Y22915D3*
G1X5164Y22915D3*
G54D255*
G1X4206Y19415D3*
G1X4796Y21965D3*
G1X4796Y19415D3*
G1X4206Y21965D3*
G54D243*
G1X5801Y22570D3*
G1X5801Y23160D3*
G54D172*
G1X3101Y22515D3*
G54D257*
G1X2944Y23066D3*
G1X3416Y21964D3*
G1X3258Y21964D3*
G1X3101Y21964D3*
G1X2944Y21964D3*
G1X2786Y21964D3*
G1X2786Y23066D3*
G1X3101Y23066D3*
G1X3258Y23066D3*
G1X3416Y23066D3*
G54D256*
G1X3652Y22830D3*
G1X3652Y22672D3*
G1X3652Y22515D3*
G1X3652Y22357D3*
G1X3652Y22200D3*
G1X2550Y22200D3*
G1X2550Y22357D3*
G1X2550Y22515D3*
G1X2550Y22672D3*
G1X2550Y22830D3*
G54D240*
G1X8281Y17997D3*
G1X8281Y18273D3*
G1X7921Y18273D3*
G1X7921Y17997D3*
G1X7951Y20547D3*
G1X7951Y20823D3*
G1X8381Y20823D3*
G1X8381Y20547D3*
G1X8751Y17997D3*
G1X8751Y18273D3*
G1X6601Y19317D3*
G1X6601Y19593D3*
G1X9201Y20603D3*
G1X9201Y20327D3*
G1X8751Y20547D3*
G1X8751Y20823D3*
G1X6001Y19927D3*
G1X6001Y20203D3*
G1X6601Y20203D3*
G1X6601Y19927D3*
G1X4801Y18753D3*
G1X4801Y18477D3*
G1X8751Y18973D3*
G1X8751Y18697D3*
G54D266*
G1X4756Y26753D3*
G1X5445Y26753D3*
G1X4756Y28053D3*
G1X5445Y28053D3*
G54D240*
G1X6023Y32003D3*
G1X6299Y32003D3*
G1X6613Y31453D3*
G1X6889Y31453D3*
G1X5669Y29133D3*
G1X5393Y29133D3*
G1X5393Y28683D3*
G1X5669Y28683D3*
G1X8389Y30313D3*
G1X8113Y30313D3*
G1X5363Y32653D3*
G1X5639Y32653D3*
G1X9489Y27803D3*
G1X9213Y27803D3*
G1X8389Y29453D3*
G1X8113Y29453D3*
G1X6853Y29003D3*
G1X7129Y29003D3*
G1X8389Y29883D3*
G1X8113Y29883D3*
G1X9213Y29103D3*
G1X9489Y29103D3*
G1X5669Y29613D3*
G1X5393Y29613D3*
G1X4163Y29603D3*
G1X4439Y29603D3*
G1X4163Y29203D3*
G1X4439Y29203D3*
G54D242*
G1X8401Y27916D3*
G1X8401Y28290D3*
G1X8451Y33240D3*
G1X8451Y32866D3*
G1X8051Y32866D3*
G1X8051Y33240D3*
G1X9801Y33240D3*
G1X9801Y32866D3*
G1X8801Y28290D3*
G1X8801Y27916D3*
G1X2051Y32990D3*
G1X2051Y32616D3*
G1X9701Y28690D3*
G1X9701Y28316D3*
G1X2051Y34140D3*
G1X2051Y33766D3*
G1X9301Y28316D3*
G1X9301Y28690D3*
G1X10301Y32866D3*
G1X10301Y33240D3*
G1X10801Y32866D3*
G1X10801Y33240D3*
G1X11301Y32866D3*
G1X11301Y33240D3*
G54D241*
G1X8438Y25453D3*
G1X8064Y25453D3*
G1X4914Y27403D3*
G1X5288Y27403D3*
G1X9264Y29503D3*
G1X9638Y29503D3*
G1X7314Y30903D3*
G1X7688Y30903D3*
G1X8864Y25453D3*
G1X9238Y25453D3*
G1X4614Y26053D3*
G1X4988Y26053D3*
G1X8064Y25053D3*
G1X8438Y25053D3*
G1X4164Y28753D3*
G1X4538Y28753D3*
G1X9264Y30303D3*
G1X9638Y30303D3*
G1X9614Y25053D3*
G1X9988Y25053D3*
G1X7688Y29853D3*
G1X7314Y29853D3*
G1X9264Y29903D3*
G1X9638Y29903D3*
G1X7688Y30253D3*
G1X7314Y30253D3*
G1X9238Y25053D3*
G1X8864Y25053D3*
G1X4538Y27403D3*
G1X4164Y27403D3*
G1X8414Y27503D3*
G1X8788Y27503D3*
G54D267*
G1X4751Y32004D3*
G1X4751Y30902D3*
G54D268*
G1X4238Y33703D3*
G1X5164Y33703D3*
G54D255*
G1X4206Y30203D3*
G1X4796Y32753D3*
G1X4796Y30203D3*
G1X4206Y32753D3*
G54D243*
G1X5801Y33358D3*
G1X5801Y33948D3*
G54D172*
G1X3101Y33303D3*
G54D257*
G1X2944Y33854D3*
G1X3416Y32752D3*
G1X3258Y32752D3*
G1X3101Y32752D3*
G1X2944Y32752D3*
G1X2786Y32752D3*
G1X2786Y33854D3*
G1X3101Y33854D3*
G1X3258Y33854D3*
G1X3416Y33854D3*
G54D256*
G1X3652Y33618D3*
G1X3652Y33460D3*
G1X3652Y33303D3*
G1X3652Y33145D3*
G1X3652Y32988D3*
G1X2550Y32988D3*
G1X2550Y33145D3*
G1X2550Y33303D3*
G1X2550Y33460D3*
G1X2550Y33618D3*
G54D240*
G1X8281Y28785D3*
G1X8281Y29061D3*
G1X7921Y29061D3*
G1X7921Y28785D3*
G1X7951Y31335D3*
G1X7951Y31611D3*
G1X8381Y31611D3*
G1X8381Y31335D3*
G1X8751Y28785D3*
G1X8751Y29061D3*
G1X6601Y30105D3*
G1X6601Y30381D3*
G1X9201Y31391D3*
G1X9201Y31115D3*
G1X8751Y31335D3*
G1X8751Y31611D3*
G1X6001Y30715D3*
G1X6001Y30991D3*
G1X6601Y30991D3*
G1X6601Y30715D3*
G1X4801Y29541D3*
G1X4801Y29265D3*
G1X8751Y29761D3*
G1X8751Y29485D3*

%LPD*%
%LNtl*%
%FSLAX24Y24*%
%MOIN*%
%AD*%
%ADD53C,0.041339*%
G54D53*
%SRX1Y1I0.0J0.0*%
G1X35778Y30915D3*
G1X35778Y6427D3*
G1X266Y30915D3*

M2*
