G04 CAM350 V9.0 (Build 156) Date:  Thu May 26 11:42:03 2016 *
G04 Database: (Untitled) *
G04 Layer 1: a300skb5_0_mu-1 *
%FSTAX23Y23*%
%MOIN*%
%SFA1.000B1.000*%

%MIA0B0*%
%IPPOS*%
%AMD762MY*
4,1,4,0.01500,0.01750,-0.01500,0.01750,-0.01500,-0.01750,0.01500,-0.01750,0.01500,0.01750,0.00000*
%
%AMD763MY*
4,1,4,0.01750,0.01750,-0.01750,0.01750,-0.01750,-0.01750,0.01750,-0.01750,0.01750,0.01750,0.00000*
%
%AMD764MY*
4,1,4,0.05500,0.04150,-0.05500,0.04150,-0.05500,-0.04150,0.05500,-0.04150,0.05500,0.04150,0.00000*
%
%AMD766MY*
4,1,4,0.03150,0.03950,-0.03150,0.03950,-0.03150,-0.03950,0.03150,-0.03950,0.03150,0.03950,0.00000*
%
%AMD768MY*
4,1,4,0.01750,0.01500,-0.01750,0.01500,-0.01750,-0.01500,0.01750,-0.01500,0.01750,0.01500,0.00000*
%
%AMD769MY*
4,1,4,0.01500,0.02750,-0.01500,0.02750,-0.01500,-0.02750,0.01500,-0.02750,0.01500,0.02750,0.00000*
%
%AMD772MY*
4,1,4,0.10000,0.12500,-0.10000,0.12500,-0.10000,-0.12500,0.10000,-0.12500,0.10000,0.12500,0.00000*
%
%AMD774MY*
4,1,4,0.02000,0.03000,-0.02000,0.03000,-0.02000,-0.03000,0.02000,-0.03000,0.02000,0.03000,0.00000*
1,1,0.06000,0.02000,0.00000*
1,1,0.06000,-0.02000,0.00000*
%
%AMD784MY*
4,1,4,0.02000,0.01400,-0.02000,0.01400,-0.02000,-0.01400,0.02000,-0.01400,0.02000,0.01400,0.00000*
1,1,0.02800,0.02000,0.00000*
1,1,0.02800,-0.02000,0.00000*
%
%AMD785MY*
4,1,4,0.03400,0.01400,-0.03400,0.01400,-0.03400,-0.01400,0.03400,-0.01400,0.03400,0.01400,0.00000*
%
%AMD786MY*
4,1,4,0.02200,0.01200,-0.02200,0.01200,-0.02200,-0.01200,0.02200,-0.01200,0.02200,0.01200,0.00000*
1,1,0.02400,0.02200,0.00000*
1,1,0.02400,-0.02200,0.00000*
%
%AMD787MY*
4,1,4,0.01200,0.02350,-0.01200,0.02350,-0.01200,-0.02350,0.01200,-0.02350,0.01200,0.02350,0.00000*
%
%AMD848MY*
4,1,4,0.02550,0.01200,-0.02550,0.01200,-0.02550,-0.01200,0.02550,-0.01200,0.02550,0.01200,0.00000*
1,1,0.02400,0.02550,0.00000*
1,1,0.02400,-0.02550,0.00000*
%
%AMD849MY*
4,1,4,0.05500,0.05000,-0.05500,0.05000,-0.05500,-0.05000,0.05500,-0.05000,0.05500,0.05000,0.00000*
%
%AMD850MY*
4,1,4,0.05000,0.04000,-0.05000,0.04000,-0.05000,-0.04000,0.05000,-0.04000,0.05000,0.04000,0.00000*
%
%AMD851MY*
4,1,4,0.03750,0.01200,-0.03750,0.01200,-0.03750,-0.01200,0.03750,-0.01200,0.03750,0.01200,0.00000*
%
%AMD852MY*
4,1,4,0.02350,0.01950,-0.02350,0.01950,-0.02350,-0.01950,0.02350,-0.01950,0.02350,0.01950,0.00000*
%
%AMD853MY*
4,1,4,0.03950,0.02950,-0.03950,0.02950,-0.03950,-0.02950,0.03950,-0.02950,0.03950,0.02950,0.00000*
%
%AMD854MY*
4,1,4,0.03950,0.02750,-0.03950,0.02750,-0.03950,-0.02750,0.03950,-0.02750,0.03950,0.02750,0.00000*
%
%AMD855MY*
4,1,4,0.02990,0.00550,-0.02990,0.00550,-0.02990,-0.00550,0.02990,-0.00550,0.02990,0.00550,0.00000*
1,1,0.01100,0.02990,0.00000*
1,1,0.01100,-0.02990,0.00000*
%
%AMD856MY*
4,1,4,0.02800,0.00550,-0.02800,0.00550,-0.02800,-0.00550,0.02800,-0.00550,0.02800,0.00550,0.00000*
1,1,0.01100,0.02800,0.00000*
1,1,0.01100,-0.02800,0.00000*
%
%AMD857MY*
4,1,4,0.03540,0.00550,-0.03540,0.00550,-0.03540,-0.00550,0.03540,-0.00550,0.03540,0.00550,0.00000*
%
%AMD858MY*
4,1,4,0.04150,0.04900,-0.04150,0.04900,-0.04150,-0.04900,0.04150,-0.04900,0.04150,0.04900,0.00000*
%
%AMD859MY*
4,1,4,0.02950,0.03000,-0.02950,0.03000,-0.02950,-0.03000,0.02950,-0.03000,0.02950,0.03000,0.00000*
%
%AMD860MY*
4,1,4,0.04550,0.03250,-0.04550,0.03250,-0.04550,-0.03250,0.04550,-0.03250,0.04550,0.03250,0.00000*
%
%AMD861MY*
4,1,4,0.02750,0.01500,-0.02750,0.01500,-0.02750,-0.01500,0.02750,-0.01500,0.02750,0.01500,0.00000*
%
%AMD862MY*
4,1,4,0.01400,0.02000,-0.01400,0.02000,-0.01400,-0.02000,0.01400,-0.02000,0.01400,0.02000,0.00000*
1,1,0.02800,0.00000,-0.02000*
1,1,0.02800,0.00000,0.02000*
%
%AMD863MY*
4,1,4,0.01400,0.03400,-0.01400,0.03400,-0.01400,-0.03400,0.01400,-0.03400,0.01400,0.03400,0.00000*
%
%AMD865MY*
4,1,4,0.09450,0.03540,-0.09450,0.03540,-0.09450,-0.03540,0.09450,-0.03540,0.09450,0.03540,0.00000*
%
%AMD866MY*
4,1,4,0.00800,0.00600,-0.00800,0.00600,-0.00800,-0.00600,0.00800,-0.00600,0.00800,0.00600,0.00000*
1,1,0.01200,0.00800,0.00000*
1,1,0.01200,-0.00800,0.00000*
%
%AMD867MY*
4,1,4,0.00600,0.00800,-0.00600,0.00800,-0.00600,-0.00800,0.00600,-0.00800,0.00600,0.00800,0.00000*
1,1,0.01200,0.00000,-0.00800*
1,1,0.01200,0.00000,0.00800*
%
%AMD868MY*
4,1,4,0.00600,0.01400,-0.00600,0.01400,-0.00600,-0.01400,0.00600,-0.01400,0.00600,0.01400,0.00000*
%
%AMD869MY*
4,1,4,0.03250,0.03250,-0.03250,0.03250,-0.03250,-0.03250,0.03250,-0.03250,0.03250,0.03250,0.00000*
%
%AMD870MY*
4,1,4,0.01950,0.03540,-0.01950,0.03540,-0.01950,-0.03540,0.01950,-0.03540,0.01950,0.03540,0.00000*
%
%AMD871MY*
4,1,4,0.02540,0.02750,-0.02540,0.02750,-0.02540,-0.02750,0.02540,-0.02750,0.02540,0.02750,0.00000*
%
%AMD872MY*
4,1,4,0.01250,0.01150,-0.01250,0.01150,-0.01250,-0.01150,0.01250,-0.01150,0.01250,0.01150,0.00000*
1,1,0.02300,0.01250,0.00000*
1,1,0.02300,-0.01250,0.00000*
%
%AMD873MY*
4,1,4,0.03950,0.02850,-0.03950,0.02850,-0.03950,-0.02850,0.03950,-0.02850,0.03950,0.02850,0.00000*
%
%AMD874MY*
4,1,4,0.03540,0.02500,-0.03540,0.02500,-0.03540,-0.02500,0.03540,-0.02500,0.03540,0.02500,0.00000*
%
%AMD875MY*
4,1,4,0.02950,0.01550,-0.02950,0.01550,-0.02950,-0.01550,0.02950,-0.01550,0.02950,0.01550,0.00000*
%
%AMD876MY*
4,1,4,0.02750,0.01550,-0.02750,0.01550,-0.02750,-0.01550,0.02750,-0.01550,0.02750,0.01550,0.00000*
%
%AMD847MY*
4,1,4,0.03950,0.03950,-0.03950,0.03950,-0.03950,-0.03950,0.03950,-0.03950,0.03950,0.03950,0.00000*
%
%AMD877MY*
4,1,4,0.03000,0.04000,-0.03000,0.04000,-0.03000,-0.04000,0.03000,-0.04000,0.03000,0.04000,0.00000*
%
%AMD878MY*
4,1,4,0.00800,0.01700,-0.00800,0.01700,-0.00800,-0.01700,0.00800,-0.01700,0.00800,0.01700,0.00000*
1,1,0.01600,0.00000,-0.01700*
1,1,0.01600,0.00000,0.01700*
%
%AMD879MY*
4,1,4,0.00800,0.02500,-0.00800,0.02500,-0.00800,-0.02500,0.00800,-0.02500,0.00800,0.02500,0.00000*
%
%AMD880MY*
4,1,4,0.00600,0.02550,-0.00600,0.02550,-0.00600,-0.02550,0.00600,-0.02550,0.00600,0.02550,0.00000*
1,1,0.01200,0.00000,-0.02550*
1,1,0.01200,0.00000,0.02550*
%
%AMD881MY*
4,1,4,0.00600,0.03150,-0.00600,0.03150,-0.00600,-0.03150,0.00600,-0.03150,0.00600,0.03150,0.00000*
%
%AMD882MY*
4,1,4,0.04850,0.04550,-0.04850,0.04550,-0.04850,-0.04550,0.04850,-0.04550,0.04850,0.04550,0.00000*
%
%AMD883MY*
4,1,4,0.02000,0.02500,-0.02000,0.02500,-0.02000,-0.02500,0.02000,-0.02500,0.02000,0.02500,0.00000*
%
%AMD884MY*
4,1,4,0.02540,0.03350,-0.02540,0.03350,-0.02540,-0.03350,0.02540,-0.03350,0.02540,0.03350,0.00000*
%
%AMD885MY*
4,1,4,0.04150,0.02750,-0.04150,0.02750,-0.04150,-0.02750,0.04150,-0.02750,0.04150,0.02750,0.00000*
%
%AMD886MY*
4,1,4,0.07090,0.02950,-0.07090,0.02950,-0.07090,-0.02950,0.07090,-0.02950,0.07090,0.02950,0.00000*
%
%AMD887MY*
4,1,4,0.02350,0.00800,-0.02350,0.00800,-0.02350,-0.00800,0.02350,-0.00800,0.02350,0.00800,0.00000*
1,1,0.01600,0.02350,0.00000*
1,1,0.01600,-0.02350,0.00000*
%
%AMD888MY*
4,1,4,0.03150,0.00800,-0.03150,0.00800,-0.03150,-0.00800,0.03150,-0.00800,0.03150,0.00800,0.00000*
%
%AMD889MY*
4,1,4,0.07850,0.08850,-0.07850,0.08850,-0.07850,-0.08850,0.07850,-0.08850,0.07850,0.08850,0.00000*
%
%AMD890MY*
4,1,4,0.01000,0.00550,-0.01000,0.00550,-0.01000,-0.00550,0.01000,-0.00550,0.01000,0.00550,0.00000*
%
%AMD891MY*
4,1,4,0.01750,0.03150,-0.01750,0.03150,-0.01750,-0.03150,0.01750,-0.03150,0.01750,0.03150,0.00000*
%
%AMD892MY*
4,1,8,-0.04500,0.02750,-0.05900,0.01350,-0.05900,-0.01350,-0.04500,-0.02750,0.04500,-0.02750,0.05900,-0.01350,0.05900,0.01350,0.04500,0.02750,-0.04500,0.02750,0.00000*
1,1,0.02800,-0.04500,0.01350*
1,1,0.02800,0.04500,0.01350*
1,1,0.02800,0.04500,-0.01350*
1,1,0.02800,-0.04500,-0.01350*
%
%AMD893MY*
4,1,4,0.04150,0.05500,-0.04150,0.05500,-0.04150,-0.05500,0.04150,-0.05500,0.04150,0.05500,0.00000*
%
%AMD894MY*
4,1,4,0.03950,0.04550,-0.03950,0.04550,-0.03950,-0.04550,0.03950,-0.04550,0.03950,0.04550,0.00000*
%
%AMD896MY*
4,1,4,0.03540,0.03150,-0.03540,0.03150,-0.03540,-0.03150,0.03540,-0.03150,0.03540,0.03150,0.00000*
%
%AMD897MY*
4,1,4,0.10450,0.04700,-0.10450,0.04700,-0.10450,-0.04700,0.10450,-0.04700,0.10450,0.04700,0.00000*
%
%AMD899MY*
4,1,4,0.01950,0.01750,-0.01950,0.01750,-0.01950,-0.01750,0.01950,-0.01750,0.01950,0.01750,0.00000*
%
%AMD900MY*
4,1,4,0.02540,0.01300,-0.02540,0.01300,-0.02540,-0.01300,0.02540,-0.01300,0.02540,0.01300,0.00000*
%
%AMD901MY*
4,1,4,0.03540,0.00700,-0.03540,0.00700,-0.03540,-0.00700,0.03540,-0.00700,0.03540,0.00700,0.00000*
%
%AMD902MY*
4,1,4,0.02540,0.01250,-0.02540,0.01250,-0.02540,-0.01250,0.02540,-0.01250,0.02540,0.01250,0.00000*
%
%AMD903MY*
4,1,4,0.00600,0.02650,-0.00600,0.02650,-0.00600,-0.02650,0.00600,-0.02650,0.00600,0.02650,0.00000*
%
%AMD904MY*
4,1,4,0.02650,0.00600,-0.02650,0.00600,-0.02650,-0.00600,0.02650,-0.00600,0.02650,0.00600,0.00000*
%
%AMD905MY*
4,1,4,0.03750,0.02140,-0.03750,0.02140,-0.03750,-0.02140,0.03750,-0.02140,0.03750,0.02140,0.00000*
%
%AMD1115MY*
4,1,4,0.01750,0.02950,-0.01750,0.02950,-0.01750,-0.02950,0.01750,-0.02950,0.01750,0.02950,0.00000*
%
%AMD1116MY*
4,1,4,0.01200,0.01200,-0.01200,0.01200,-0.01200,-0.01200,0.01200,-0.01200,0.01200,0.01200,0.00000*
%
%ADD10D762MY*%
%ADD11D763MY*%
%ADD12D764MY*%
%ADD13D766MY*%
%ADD14D768MY*%
%ADD15D769MY*%
%ADD16D772MY*%
%ADD17D774MY*%
%ADD18D784MY*%
%ADD19D785MY*%
%ADD70D786MY*%
%ADD71D787MY*%
%ADD20D848MY*%
%ADD21D849MY*%
%ADD22D850MY*%
%ADD23D851MY*%
%ADD24D852MY*%
%ADD25D853MY*%
%ADD26D854MY*%
%ADD27D855MY*%
%ADD28D856MY*%
%ADD29C,0.08000*%
%ADD72D857MY*%
%ADD73D858MY*%
%ADD30D859MY*%
%ADD31D860MY*%
%ADD32D861MY*%
%ADD33D862MY*%
%ADD34D863MY*%
%ADD35D865MY*%
%ADD36D866MY*%
%ADD37D867MY*%
%ADD38D868MY*%
%ADD39D869MY*%
%ADD40D870MY*%
%ADD41D871MY*%
%ADD42D872MY*%
%ADD43D873MY*%
%ADD44D874MY*%
%ADD45D875MY*%
%ADD46D876MY*%
%ADD47D847MY*%
%ADD48D877MY*%
%ADD49D878MY*%
%ADD50D879MY*%
%ADD51D880MY*%
%ADD52D881MY*%
%ADD53D882MY*%
%ADD54D883MY*%
%ADD55D884MY*%
%ADD56D885MY*%
%ADD57D886MY*%
%ADD58D887MY*%
%ADD59D888MY*%
%ADD60D889MY*%
%ADD61D890MY*%
%ADD62D891MY*%
%ADD63D892MY*%
%ADD64D893MY*%
%ADD65D894MY*%
%ADD66D896MY*%
%ADD67D897MY*%
%ADD68D899MY*%
%ADD69D900MY*%
%ADD74D901MY*%
%ADD75D902MY*%
%ADD76D903MY*%
%ADD77D904MY*%
%ADD78D905MY*%
%ADD79D1115MY*%
%ADD80D1116MY*%
%LNa300skb5_0_mu-1*%
%LPD*%
G54D10*
X-06418Y02889D03*
X-06473D03*
X-04244Y03817D03*
X-04299D03*
X-04055Y04211D03*
X-0411D03*
X-04055Y04256D03*
X-0411D03*
X-0374Y05452D03*
X-03685D03*
X-06436Y00943D03*
X-06491D03*
X-06146Y02291D03*
X-06091D03*
X-06146Y02337D03*
X-06091D03*
X-06145Y02383D03*
X-0609D03*
X-05775Y06197D03*
X-0572D03*
X-06035Y03642D03*
X-0609D03*
X-06342Y03722D03*
X-06397D03*
X-03093Y06118D03*
X-03038D03*
X-03079Y05924D03*
X-03134D03*
X-06219Y03635D03*
Y03682D03*
X-06274D03*
X-03083Y04775D03*
X-03138D03*
G54D11*
X-0402Y04168D03*
Y04113D03*
X-04039Y03972D03*
Y03917D03*
X-04101Y04392D03*
X-04021Y04352D03*
X-04097Y03772D03*
Y03827D03*
X-06566Y04439D03*
Y04494D03*
X-04836Y05845D03*
Y0579D03*
Y05689D03*
Y05744D03*
X-03793Y05509D03*
Y05454D03*
X-03886Y05516D03*
Y05461D03*
X-0384Y05509D03*
Y05454D03*
X-04834Y06284D03*
Y06229D03*
X-04833Y06184D03*
X-03462Y0561D03*
X-06621Y00979D03*
X-06541Y01019D03*
Y00939D03*
X-0619Y02571D03*
Y02626D03*
X-0614Y02572D03*
Y02627D03*
X-05996Y02876D03*
Y02821D03*
X-06169Y03059D03*
X-06089Y03099D03*
Y03019D03*
X-06225Y03037D03*
Y03092D03*
X-06045Y03091D03*
Y03036D03*
X-05998Y03091D03*
Y03036D03*
X-05826Y03059D03*
Y03114D03*
X-06089Y02573D03*
Y02628D03*
X-0485Y04493D03*
Y04438D03*
X-04849Y04323D03*
Y04378D03*
X-04347Y03817D03*
Y03762D03*
X-04441Y03817D03*
Y03762D03*
X-04393Y03816D03*
Y03761D03*
X-05008Y03801D03*
Y03746D03*
X-06002Y04617D03*
Y04562D03*
X-06048Y04617D03*
Y04562D03*
X-06057Y04718D03*
Y04663D03*
X-06405Y04003D03*
Y04058D03*
X-06388Y04398D03*
X-06468Y04358D03*
Y04438D03*
X-06388Y04526D03*
X-06468Y04486D03*
Y04566D03*
X-06518Y04494D03*
Y04439D03*
X-05249Y06178D03*
Y06233D03*
X-05437Y06169D03*
Y06224D03*
X-05719Y06246D03*
Y06301D03*
X-05672Y06192D03*
Y06247D03*
X-04911Y06759D03*
Y06704D03*
X-04081Y04796D03*
Y04851D03*
X-04126Y04807D03*
Y04752D03*
X-04172Y04807D03*
Y04752D03*
X-04218Y04807D03*
Y04752D03*
X-02684Y03757D03*
Y03812D03*
X-02844Y03757D03*
Y03812D03*
X-02959Y05219D03*
X-03014D03*
X-02959Y05319D03*
X-03014D03*
X-02959Y05269D03*
X-03014D03*
X-04096Y03873D03*
X-04041D03*
X-04199Y03853D03*
X-04144D03*
X-04199Y03806D03*
X-04144D03*
X-04217Y04257D03*
X-04162D03*
X-04217Y0421D03*
X-04162D03*
X-0584Y04431D03*
X-05895D03*
X-06168Y04085D03*
X-06113D03*
X-06233Y04467D03*
X-06178D03*
X-06165Y0424D03*
X-0611D03*
X-06233Y0442D03*
X-06178D03*
X-05806Y04142D03*
X-05861D03*
X-05757Y03425D03*
X-05812D03*
X-03509Y05517D03*
X-03454D03*
X-03509Y05563D03*
X-03454D03*
X-03406Y05564D03*
X-03351D03*
X-03406Y05517D03*
X-03351D03*
X-06092Y01814D03*
X-06147D03*
X-06092Y01768D03*
X-06147D03*
X-06092Y01721D03*
X-06147D03*
Y01883D03*
X-06092D03*
X-06145Y0197D03*
X-0609D03*
X-06146Y02017D03*
X-06091D03*
X-06146Y02063D03*
X-06091D03*
X-06145Y02126D03*
X-0609D03*
X-06091Y02218D03*
X-06146D03*
Y02172D03*
X-06091D03*
X-0614Y02459D03*
X-06085D03*
X-0614Y02507D03*
X-06085D03*
X-06373Y02877D03*
X-06318D03*
X-05912Y03109D03*
X-05872Y03029D03*
X-05952D03*
X-06092Y01636D03*
X-06147D03*
X-06187Y03492D03*
X-06132D03*
X-05753Y03316D03*
X-05698D03*
X-0441Y04262D03*
X-04355D03*
X-04807Y03895D03*
X-04752D03*
X-04649Y03802D03*
X-04594D03*
X-0465Y03755D03*
X-04595D03*
X-04486Y03797D03*
X-04541D03*
X-04806Y03848D03*
X-04751D03*
X-04702Y03755D03*
X-04757D03*
Y03802D03*
X-04702D03*
X-052Y03944D03*
X-05145D03*
X-06473Y0417D03*
X-06418D03*
X-06417Y04217D03*
X-06362D03*
X-06417Y04265D03*
X-06362D03*
X-06405Y04107D03*
X-0635D03*
X-06494Y04027D03*
X-06534Y04107D03*
X-06454D03*
X-05348Y06176D03*
X-05293D03*
X-05377Y06122D03*
X-05432D03*
X-05819Y06246D03*
X-05764D03*
X-03042Y0599D03*
X-03014Y0545D03*
X-02959D03*
X-03119Y05434D03*
X-03064D03*
X-03091Y0643D03*
X-03036D03*
X-03014Y05402D03*
X-02959D03*
X-02981Y05978D03*
X-02926D03*
X-03118Y05387D03*
X-03063D03*
X-02799Y03812D03*
X-02744D03*
G54D12*
X-05462Y04941D03*
Y04681D03*
X-05636Y04942D03*
Y04682D03*
X-05808Y04943D03*
Y04683D03*
G54D13*
X-05818Y03513D03*
X-05653D03*
G54D14*
X-05059Y05662D03*
Y05717D03*
X-04959Y0676D03*
Y06705D03*
X-04051Y03772D03*
Y03827D03*
X-04101Y04312D03*
X-04833Y06129D03*
X-03462Y05665D03*
X-0351Y0561D03*
Y05665D03*
X-05744Y0077D03*
Y00715D03*
X-05697D03*
Y0077D03*
X-05509Y03409D03*
Y03464D03*
Y02624D03*
Y02679D03*
X-05511Y03018D03*
Y03073D03*
X-07329Y00937D03*
Y00992D03*
X-07375Y01037D03*
Y00982D03*
X-07268Y00984D03*
Y01039D03*
X-0733Y01041D03*
Y01096D03*
X-07004Y01105D03*
Y0105D03*
X-06957Y01105D03*
Y0105D03*
X-06743Y01186D03*
Y01131D03*
X-06695Y01186D03*
Y01131D03*
X-06792Y01186D03*
Y01131D03*
X-06841Y01187D03*
Y01132D03*
X-06916Y01559D03*
Y01614D03*
X-0687D03*
Y01559D03*
X-06993D03*
Y01614D03*
X-07055Y01559D03*
Y01614D03*
X-04145Y06636D03*
Y06691D03*
X-04284Y06679D03*
Y06734D03*
X-04238Y06647D03*
Y06702D03*
X-0478Y06676D03*
Y06731D03*
X-04828Y06676D03*
Y06731D03*
X-04192Y06679D03*
Y06734D03*
X-03137Y06427D03*
Y06372D03*
X-03136Y06157D03*
Y06102D03*
G54D15*
X-06417Y02479D03*
X-06492D03*
X-06332Y02476D03*
X-06257D03*
X-05895Y04373D03*
X-0582D03*
X-05895Y04287D03*
X-0582D03*
X-05893Y04085D03*
X-05818D03*
X-06375Y02933D03*
X-063D03*
X-0623Y04023D03*
X-06305D03*
X-06248Y04293D03*
X-06173D03*
X-03404Y0562D03*
X-03329D03*
X-06325Y03651D03*
X-064D03*
G54D16*
X-06127Y03259D03*
X-04852Y04106D03*
G54D17*
X-05852Y03169D03*
Y03349D03*
X-04577Y04016D03*
Y04196D03*
G54D18*
X-04286Y04762D03*
G54D19*
X-04563Y04912D03*
G54D70*
X-04286D03*
X-04563Y04862D03*
Y04762D03*
Y04812D03*
X-04286D03*
Y04862D03*
G54D71*
X-06306Y0422D03*
X-06231D03*
Y04109D03*
X-06306D03*
X-06269Y0422D03*
G54D20*
X-05996Y01942D03*
Y01981D03*
Y02139D03*
Y02375D03*
Y02414D03*
Y02218D03*
Y02611D03*
Y02651D03*
Y01863D03*
Y02493D03*
Y02454D03*
Y01903D03*
Y02336D03*
Y02296D03*
Y02257D03*
Y02099D03*
Y0206D03*
Y02021D03*
Y02178D03*
Y01706D03*
Y01666D03*
Y01745D03*
X-05999Y01627D03*
X-05996Y0269D03*
Y02729D03*
Y02572D03*
Y02533D03*
Y01824D03*
Y01784D03*
G54D21*
X-05906Y01522D03*
G54D22*
Y02869D03*
G54D23*
X-05996Y02769D03*
G54D24*
X-0323Y05068D03*
Y04918D03*
Y05018D03*
Y05118D03*
Y05168D03*
Y04868D03*
Y05218D03*
Y04968D03*
G54D25*
X-03671Y05337D03*
G54D26*
Y04772D03*
G54D27*
X-03044Y05781D03*
Y05761D03*
Y05801D03*
Y05624D03*
X-03043Y06334D03*
Y06314D03*
Y06354D03*
Y06177D03*
Y06157D03*
X-03044Y05702D03*
Y05683D03*
Y05742D03*
Y05722D03*
Y05663D03*
Y05643D03*
X-03043Y06255D03*
Y06236D03*
Y06295D03*
Y06275D03*
Y06216D03*
Y06196D03*
G54D28*
X-03044Y05821D03*
G54D72*
Y05604D03*
X-03043Y06374D03*
G54D73*
X-02942Y05889D03*
Y05535D03*
X-02949Y06442D03*
Y06088D03*
G54D30*
X-04989Y05755D03*
X-04902Y05855D03*
Y05755D03*
X-04989Y05855D03*
G54D31*
X-06043Y04309D03*
Y04439D03*
G54D32*
X-06146Y03569D03*
Y03644D03*
X-0714Y0092D03*
Y00995D03*
X-06265Y03349D03*
Y03274D03*
X-06467Y03719D03*
Y03644D03*
G54D33*
X-04237Y04147D03*
X-04187D03*
X-04137D03*
X-04187Y03941D03*
X-04137D03*
X-04087D03*
X-04237D03*
G54D34*
X-04087Y04147D03*
G54D35*
X-06046Y0444D03*
Y04306D03*
G54D36*
X-06064Y04141D03*
Y04121D03*
X-05951Y04161D03*
X-06064Y0418D03*
Y04161D03*
X-05951Y04141D03*
Y0418D03*
Y04121D03*
G54D37*
X-06018Y04095D03*
Y04207D03*
X-06038D03*
Y04095D03*
X-05999D03*
X-05979D03*
X-05999Y04207D03*
G54D38*
X-05979D03*
G54D39*
X-06008Y04151D03*
G54D40*
X-04176Y03735D03*
X-04296D03*
G54D41*
X-04891Y05859D03*
X-04991Y05682D03*
Y05859D03*
X-04891Y05682D03*
G54D42*
X-04881Y06347D03*
Y06307D03*
G54D43*
X-03682Y05693D03*
X-03356Y06234D03*
Y05693D03*
G54D44*
X-03682Y06231D03*
G54D45*
X-03458Y05873D03*
Y06089D03*
Y06046D03*
Y06003D03*
Y05916D03*
Y05959D03*
G54D46*
Y05786D03*
G54D45*
Y05829D03*
G54D47*
X-06223Y00948D03*
Y01113D03*
G54D48*
X-0608Y01108D03*
X-0596D03*
G54D49*
X-07121Y01478D03*
X-07096Y01178D03*
X-06917Y01478D03*
X-06968D03*
X-06942D03*
X-06993D03*
X-07019D03*
X-07045D03*
X-0707D03*
X-07096D03*
X-07121Y01178D03*
X-0707D03*
X-07019D03*
X-06993D03*
X-06968D03*
X-07045D03*
X-06917D03*
X-06891D03*
X-06942D03*
G54D50*
X-06891Y01478D03*
G54D51*
X-06426Y02791D03*
X-06298D03*
X-06349D03*
X-064D03*
X-06298Y02571D03*
X-06323D03*
X-06349D03*
X-06375D03*
X-064D03*
X-06426D03*
X-06451D03*
X-06323Y02791D03*
X-06375D03*
X-06451D03*
X-06477D03*
G54D52*
Y02571D03*
G54D53*
X-06387Y02682D03*
G54D54*
X-06117Y03421D03*
X-06247D03*
X-05958Y0358D03*
X-06088D03*
G54D55*
X-04623Y04371D03*
X-04536Y04489D03*
Y04371D03*
X-04623Y04489D03*
G54D56*
X-04477Y04085D03*
Y04258D03*
X-04923Y04374D03*
Y04547D03*
X-05283Y03765D03*
Y03938D03*
G54D57*
X-0475Y04486D03*
Y04309D03*
G54D58*
X-04522Y03873D03*
X-04687Y03898D03*
X-04522Y03924D03*
X-04687Y03847D03*
Y03873D03*
X-04522Y03898D03*
Y03847D03*
G54D59*
X-04687Y03924D03*
G54D60*
X-05245Y045D03*
Y04067D03*
G54D61*
X-06318Y03549D03*
X-06243Y03569D03*
X-06318D03*
X-06243Y0351D03*
Y0353D03*
Y03549D03*
X-06318Y0353D03*
Y0351D03*
G54D62*
X-06281Y03539D03*
G54D63*
X-0641Y03581D03*
Y03494D03*
G54D14*
X-03082Y0607D03*
X-03122Y0599D03*
G54D64*
X-06166Y03777D03*
X-05906D03*
X-06164Y03961D03*
X-05904D03*
G54D65*
X-04887Y03895D03*
X-05076D03*
G54D66*
X-06414Y01279D03*
X-06627D03*
G54D67*
X-05234Y04439D03*
Y04156D03*
G54D68*
X-0379Y04899D03*
Y05245D03*
G54D69*
X-03315Y05047D03*
Y05197D03*
Y05097D03*
Y05147D03*
G54D74*
X-0334Y05252D03*
Y04891D03*
X-03567D03*
Y05252D03*
G54D75*
X-03315Y04947D03*
Y04997D03*
G54D76*
X-04361Y06331D03*
X-04164D03*
Y05496D03*
X-04361D03*
X-04617D03*
X-0446Y06331D03*
X-04538Y05496D03*
X-04558D03*
X-04066D03*
X-0444D03*
X-04263Y06331D03*
X-04105D03*
X-03987D03*
X-04027D03*
X-04223Y05496D03*
X-04637Y06331D03*
X-04381D03*
X-04184D03*
X-03948Y05496D03*
X-04145D03*
X-04342D03*
X-04598D03*
X-04637D03*
X-04578D03*
X-04519D03*
X-04499D03*
X-04479D03*
X-0446D03*
X-0442D03*
X-04401D03*
X-04381D03*
X-04322D03*
X-04302D03*
X-04283D03*
X-04263D03*
X-04243D03*
X-04204D03*
X-04184D03*
X-04125D03*
X-04105D03*
X-04086D03*
X-04046D03*
X-04027D03*
X-03987D03*
X-03968D03*
X-03948Y06331D03*
X-03968D03*
X-04007D03*
X-04046D03*
X-04066D03*
X-04086D03*
X-04125D03*
X-04145D03*
X-04204D03*
X-04223D03*
X-04243D03*
X-04283D03*
X-04322D03*
X-04342D03*
X-0442D03*
X-0444D03*
X-04479D03*
X-04499D03*
X-04519D03*
X-04538D03*
X-04558D03*
X-04617D03*
X-04007Y05496D03*
X-04302Y06331D03*
X-04401D03*
X-04578D03*
X-04598D03*
G54D77*
X-03875Y06238D03*
Y05982D03*
Y05766D03*
X-0471Y05667D03*
Y05963D03*
Y05786D03*
Y06199D03*
Y06179D03*
X-03875Y05667D03*
X-0471Y06081D03*
Y06101D03*
Y0612D03*
Y0614D03*
Y0616D03*
Y06219D03*
Y06238D03*
Y06258D03*
Y05648D03*
Y05628D03*
X-03875Y06258D03*
Y06002D03*
Y05786D03*
X-0471Y05687D03*
Y05943D03*
X-03875Y06101D03*
Y05569D03*
X-0471Y05589D03*
Y06061D03*
Y06041D03*
Y06022D03*
Y06002D03*
Y05982D03*
Y05884D03*
Y05845D03*
Y05825D03*
Y05805D03*
Y05766D03*
Y05608D03*
Y05569D03*
X-03875Y05589D03*
Y05608D03*
Y05628D03*
Y05648D03*
Y05687D03*
Y05707D03*
Y05727D03*
Y05746D03*
Y05805D03*
Y05825D03*
Y05845D03*
Y05864D03*
Y05884D03*
Y05904D03*
Y06041D03*
Y06081D03*
Y0612D03*
Y0614D03*
Y0616D03*
Y06179D03*
Y06199D03*
Y06219D03*
X-0471Y05864D03*
Y05904D03*
Y05923D03*
X-03875Y06061D03*
Y06022D03*
Y05923D03*
Y05943D03*
Y05963D03*
X-0471Y05727D03*
Y05746D03*
Y05707D03*
G54D78*
X-04898Y06158D03*
Y06264D03*
G54D79*
X-03098Y03927D03*
X-03141D03*
X-03184D03*
X-03227D03*
X-03271D03*
X-03314D03*
X-03357D03*
X-03401D03*
X-03444D03*
X-03487D03*
X-03531D03*
X-03574D03*
X-03617D03*
X-03661D03*
X-03487Y04707D03*
X-03444D03*
X-03401D03*
X-03357D03*
X-03314D03*
X-03271D03*
X-03227D03*
X-03184D03*
X-03141D03*
X-03098D03*
X-03054D03*
X-03011D03*
X-02968D03*
X-02924D03*
X-02881Y03927D03*
Y04707D03*
X-03531D03*
X-03574D03*
X-03617D03*
X-03661D03*
X-03704D03*
X-03747D03*
X-0379D03*
X-03834D03*
X-03877D03*
X-0392D03*
X-02924Y03927D03*
X-02968D03*
X-03011D03*
X-0392D03*
X-03877D03*
X-03834D03*
X-0379D03*
X-03747D03*
X-03704D03*
X-03054D03*
G54D80*
X-03098Y03968D03*
X-03141D03*
X-03184D03*
X-03227D03*
X-03271D03*
X-03314D03*
X-03357D03*
X-03401D03*
X-03444D03*
X-03487D03*
X-03531D03*
X-03574D03*
X-03617D03*
X-03661D03*
X-03487Y04666D03*
X-03444D03*
X-03401D03*
X-03357D03*
X-03314D03*
X-03271D03*
X-03227D03*
X-03184D03*
X-03141D03*
X-03098D03*
X-03054D03*
X-03011D03*
X-02968D03*
X-02924D03*
X-02881Y03968D03*
Y04666D03*
X-03531D03*
X-03574D03*
X-03617D03*
X-03661D03*
X-03704D03*
X-03747D03*
X-0379D03*
X-03834D03*
X-03877D03*
X-0392D03*
X-02924Y03968D03*
X-02968D03*
X-03011D03*
X-0392D03*
X-03877D03*
X-03834D03*
X-0379D03*
X-03747D03*
X-03704D03*
X-03054D03*
G54D10*
X-06274Y03635D03*
X-01135Y0431D03*
X-0108D03*
X-03309Y03382D03*
X-03254D03*
X-03498Y02988D03*
X-03443D03*
X-03498Y02943D03*
X-03443D03*
X-03813Y01747D03*
X-03868D03*
X-01117Y06256D03*
X-01062D03*
X-01407Y04908D03*
X-01462D03*
X-01407Y04862D03*
X-01462D03*
X-01408Y04816D03*
X-01463D03*
X-01778Y01002D03*
X-01833D03*
X-01518Y03557D03*
X-01463D03*
X-01211Y03477D03*
X-01156D03*
X-0446Y01081D03*
X-04515D03*
X-04474Y01275D03*
X-04419D03*
X-01334Y03564D03*
Y03517D03*
X-01279D03*
X-0447Y02424D03*
X-04415D03*
G54D11*
X-03533Y03031D03*
Y03086D03*
X-03514Y03227D03*
Y03282D03*
X-03452Y02807D03*
X-03532Y02847D03*
X-03456Y03427D03*
Y03372D03*
X-00987Y0276D03*
Y02705D03*
X-02717Y01354D03*
Y01409D03*
Y0151D03*
Y01455D03*
X-0376Y0169D03*
Y01745D03*
X-03667Y01683D03*
Y01738D03*
X-03713Y0169D03*
Y01745D03*
X-02719Y00915D03*
Y0097D03*
X-0272Y01015D03*
X-04091Y01589D03*
X-00932Y0622D03*
X-01012Y0618D03*
Y0626D03*
X-01363Y04628D03*
Y04573D03*
X-01413Y04627D03*
Y04572D03*
X-01557Y04323D03*
Y04378D03*
X-01384Y0414D03*
X-01464Y041D03*
Y0418D03*
X-01328Y04162D03*
Y04107D03*
X-01508Y04108D03*
Y04163D03*
X-01555Y04108D03*
Y04163D03*
X-01727Y0414D03*
Y04085D03*
X-01464Y04626D03*
Y04571D03*
X-02703Y02706D03*
Y02761D03*
X-02704Y02876D03*
Y02821D03*
X-03206Y03382D03*
Y03437D03*
X-03112Y03382D03*
Y03437D03*
X-0316Y03383D03*
Y03438D03*
X-02545Y03398D03*
Y03453D03*
X-01551Y02582D03*
Y02637D03*
X-01505Y02582D03*
Y02637D03*
X-01496Y02481D03*
Y02536D03*
X-01148Y03196D03*
Y03141D03*
X-01165Y02801D03*
X-01085Y02841D03*
Y02761D03*
X-01165Y02673D03*
X-01085Y02713D03*
Y02633D03*
X-01035Y02705D03*
Y0276D03*
X-02304Y01021D03*
Y00966D03*
X-02116Y0103D03*
Y00975D03*
X-01834Y00953D03*
Y00898D03*
X-01881Y01007D03*
Y00952D03*
X-02642Y0044D03*
Y00495D03*
X-03472Y02403D03*
Y02348D03*
X-03427Y02392D03*
Y02447D03*
X-03381Y02392D03*
Y02447D03*
X-03335Y02392D03*
Y02447D03*
X-04869Y03442D03*
Y03387D03*
X-04709Y03442D03*
Y03387D03*
X-04594Y0198D03*
X-04539D03*
X-04594Y0188D03*
X-04539D03*
X-04594Y0193D03*
X-04539D03*
X-03457Y03326D03*
X-03512D03*
X-03354Y03346D03*
X-03409D03*
X-03354Y03393D03*
X-03409D03*
X-03336Y02942D03*
X-03391D03*
X-03336Y02989D03*
X-03391D03*
X-01713Y02768D03*
X-01658D03*
X-01385Y03114D03*
X-0144D03*
X-0132Y02732D03*
X-01375D03*
X-01388Y02959D03*
X-01443D03*
X-0132Y02779D03*
X-01375D03*
X-01747Y03057D03*
X-01692D03*
X-01796Y03774D03*
X-01741D03*
X-04044Y01682D03*
X-04099D03*
X-04044Y01636D03*
X-04099D03*
X-04147Y01635D03*
X-04202D03*
X-04147Y01682D03*
X-04202D03*
X-01461Y05385D03*
X-01406D03*
X-01461Y05431D03*
X-01406D03*
X-01461Y05478D03*
X-01406D03*
Y05316D03*
X-01461D03*
X-01408Y05229D03*
X-01463D03*
X-01407Y05182D03*
X-01462D03*
X-01407Y05136D03*
X-01462D03*
X-01408Y05073D03*
X-01463D03*
X-01462Y04981D03*
X-01407D03*
Y05027D03*
X-01462D03*
X-01413Y0474D03*
X-01468D03*
X-01413Y04692D03*
X-01468D03*
X-0118Y04322D03*
X-01235D03*
X-01641Y0409D03*
X-01681Y0417D03*
X-01601D03*
X-01461Y05563D03*
X-01406D03*
X-01366Y03707D03*
X-01421D03*
X-018Y03883D03*
X-01855D03*
X-03143Y02937D03*
X-03198D03*
X-02746Y03304D03*
X-02801D03*
X-02904Y03397D03*
X-02959D03*
X-02903Y03444D03*
X-02958D03*
X-03067Y03402D03*
X-03012D03*
X-02747Y03351D03*
X-02802D03*
X-02851Y03444D03*
X-02796D03*
Y03397D03*
X-02851D03*
X-02353Y03255D03*
X-02408D03*
X-0108Y03029D03*
X-01135D03*
X-01136Y02982D03*
X-01191D03*
X-01136Y02934D03*
X-01191D03*
X-01148Y03092D03*
X-01203D03*
X-01059Y03172D03*
X-01019Y03092D03*
X-01099D03*
X-02205Y01023D03*
X-0226D03*
X-02176Y01077D03*
X-02121D03*
X-01734Y00953D03*
X-01789D03*
X-04511Y01209D03*
X-04539Y01749D03*
X-04594D03*
X-04434Y01765D03*
X-04489D03*
X-04462Y00769D03*
X-04517D03*
X-04539Y01797D03*
X-04594D03*
X-04572Y01221D03*
X-04627D03*
X-04435Y01812D03*
X-0449D03*
X-04754Y03387D03*
X-04809D03*
G54D12*
X-02091Y02258D03*
Y02518D03*
X-01917Y02257D03*
Y02517D03*
X-01745Y02256D03*
Y02516D03*
G54D13*
X-01735Y03686D03*
X-019D03*
G54D14*
X-02494Y01537D03*
Y01482D03*
X-02594Y00439D03*
Y00494D03*
X-03502Y03427D03*
Y03372D03*
X-03452Y02887D03*
X-0272Y0107D03*
X-04091Y01534D03*
X-04043Y01589D03*
Y01534D03*
X-01809Y06429D03*
Y06484D03*
X-01856D03*
Y06429D03*
X-02044Y0379D03*
Y03735D03*
Y04575D03*
Y0452D03*
X-02042Y04181D03*
Y04126D03*
X-00224Y06262D03*
Y06207D03*
X-00178Y06162D03*
Y06217D03*
X-00285Y06215D03*
Y0616D03*
X-00223Y06158D03*
Y06103D03*
X-00549Y06094D03*
Y06149D03*
X-00596Y06094D03*
Y06149D03*
X-0081Y06013D03*
Y06068D03*
X-00858Y06013D03*
Y06068D03*
X-00761Y06013D03*
Y06068D03*
X-00712Y06012D03*
Y06067D03*
X-00637Y0564D03*
Y05585D03*
X-00683D03*
Y0564D03*
X-0056D03*
Y05585D03*
X-00498Y0564D03*
Y05585D03*
X-03408Y00563D03*
Y00508D03*
X-03269Y0052D03*
Y00465D03*
X-03315Y00552D03*
Y00497D03*
X-02773Y00523D03*
Y00468D03*
X-02725Y00523D03*
Y00468D03*
X-03361Y0052D03*
Y00465D03*
X-04416Y00772D03*
Y00827D03*
X-04417Y01042D03*
Y01097D03*
G54D15*
X-01136Y0472D03*
X-01061D03*
X-01221Y04723D03*
X-01296D03*
X-01658Y02826D03*
X-01733D03*
X-01658Y02912D03*
X-01733D03*
X-0166Y03114D03*
X-01735D03*
X-01178Y04266D03*
X-01253D03*
X-01323Y03176D03*
X-01248D03*
X-01305Y02906D03*
X-0138D03*
X-04149Y01579D03*
X-04224D03*
X-01228Y03548D03*
X-01153D03*
G54D16*
X-01426Y0394D03*
X-02701Y03093D03*
G54D17*
X-01701Y0403D03*
Y0385D03*
X-02976Y03183D03*
Y03003D03*
G54D18*
X-03267Y02437D03*
G54D19*
X-0299Y02287D03*
G54D70*
X-03267D03*
X-0299Y02337D03*
Y02437D03*
Y02387D03*
X-03267D03*
Y02337D03*
G54D71*
X-01247Y02979D03*
X-01322D03*
Y0309D03*
X-01247D03*
X-01284Y02979D03*
G54D20*
X-01557Y05257D03*
Y05218D03*
Y0506D03*
Y04824D03*
Y04785D03*
Y04981D03*
Y04588D03*
Y04548D03*
Y05336D03*
Y04706D03*
Y04745D03*
Y05296D03*
Y04863D03*
Y04903D03*
Y04942D03*
Y051D03*
Y05139D03*
Y05178D03*
Y05021D03*
Y05493D03*
Y05533D03*
Y05454D03*
X-01554Y05572D03*
X-01557Y04509D03*
Y0447D03*
Y04627D03*
Y04666D03*
Y05375D03*
Y05415D03*
G54D21*
X-01647Y05677D03*
G54D22*
Y0433D03*
G54D23*
X-01557Y0443D03*
G54D24*
X-04323Y02131D03*
Y02281D03*
Y02181D03*
Y02081D03*
Y02031D03*
Y02331D03*
Y01981D03*
Y02231D03*
G54D25*
X-03882Y01862D03*
G54D26*
Y02427D03*
G54D27*
X-04509Y01418D03*
Y01438D03*
Y01398D03*
Y01575D03*
X-0451Y00865D03*
Y00885D03*
Y00845D03*
Y01022D03*
Y01042D03*
X-04509Y01497D03*
Y01516D03*
Y01457D03*
Y01477D03*
Y01536D03*
Y01556D03*
X-0451Y00944D03*
Y00963D03*
Y00904D03*
Y00924D03*
Y00983D03*
Y01003D03*
G54D28*
X-04509Y01378D03*
G54D72*
Y01595D03*
X-0451Y00825D03*
G54D73*
X-04611Y0131D03*
Y01664D03*
X-04604Y00757D03*
Y01111D03*
G54D30*
X-02564Y01444D03*
X-02651Y01344D03*
Y01444D03*
X-02564Y01344D03*
G54D31*
X-0151Y0289D03*
Y0276D03*
G54D32*
X-01407Y0363D03*
Y03555D03*
X-00413Y06279D03*
Y06204D03*
X-01288Y0385D03*
Y03925D03*
X-01086Y0348D03*
Y03555D03*
G54D33*
X-03316Y03052D03*
X-03366D03*
X-03416D03*
X-03366Y03258D03*
X-03416D03*
X-03466D03*
X-03316D03*
G54D34*
X-03466Y03052D03*
G54D35*
X-01507Y02759D03*
Y02893D03*
G54D36*
X-01489Y03058D03*
Y03078D03*
X-01602Y03038D03*
X-01489Y03019D03*
Y03038D03*
X-01602Y03058D03*
Y03019D03*
Y03078D03*
G54D37*
X-01535Y03104D03*
Y02992D03*
X-01515D03*
Y03104D03*
X-01554D03*
X-01574D03*
X-01554Y02992D03*
G54D38*
X-01574D03*
G54D39*
X-01545Y03048D03*
G54D40*
X-03377Y03464D03*
X-03257D03*
G54D41*
X-02662Y0134D03*
X-02562Y01517D03*
Y0134D03*
X-02662Y01517D03*
G54D42*
X-02672Y00852D03*
Y00892D03*
G54D43*
X-03871Y01506D03*
X-04197Y00965D03*
Y01506D03*
G54D44*
X-03871Y00968D03*
G54D45*
X-04095Y01326D03*
Y0111D03*
Y01153D03*
Y01196D03*
Y01283D03*
Y0124D03*
G54D46*
Y01413D03*
G54D45*
Y0137D03*
G54D47*
X-0133Y06251D03*
Y06086D03*
G54D48*
X-01473Y06091D03*
X-01593D03*
G54D49*
X-00432Y05721D03*
X-00457Y06021D03*
X-00636Y05721D03*
X-00585D03*
X-00611D03*
X-0056D03*
X-00534D03*
X-00508D03*
X-00483D03*
X-00457D03*
X-00432Y06021D03*
X-00483D03*
X-00534D03*
X-0056D03*
X-00585D03*
X-00508D03*
X-00636D03*
X-00662D03*
X-00611D03*
G54D50*
X-00662Y05721D03*
G54D51*
X-01127Y04408D03*
X-01255D03*
X-01204D03*
X-01153D03*
X-01255Y04628D03*
X-0123D03*
X-01204D03*
X-01178D03*
X-01153D03*
X-01127D03*
X-01102D03*
X-0123Y04408D03*
X-01178D03*
X-01102D03*
X-01076D03*
G54D52*
Y04628D03*
G54D53*
X-01166Y04517D03*
G54D54*
X-01436Y03778D03*
X-01306D03*
X-01595Y03619D03*
X-01465D03*
G54D55*
X-0293Y02828D03*
X-03017Y0271D03*
Y02828D03*
X-0293Y0271D03*
G54D56*
X-03076Y03114D03*
Y02941D03*
X-0263Y02825D03*
Y02652D03*
X-0227Y03434D03*
Y03261D03*
G54D57*
X-02803Y02713D03*
Y0289D03*
G54D58*
X-03031Y03326D03*
X-02866Y03301D03*
X-03031Y03275D03*
X-02866Y03352D03*
Y03326D03*
X-03031Y03301D03*
Y03352D03*
G54D59*
X-02866Y03275D03*
G54D60*
X-02308Y02699D03*
Y03132D03*
G54D61*
X-01235Y0365D03*
X-0131Y0363D03*
X-01235D03*
X-0131Y03689D03*
Y03669D03*
Y0365D03*
X-01235Y03669D03*
Y03689D03*
G54D62*
X-01272Y0366D03*
G54D63*
X-01143Y03618D03*
Y03705D03*
G54D14*
X-04471Y01129D03*
X-04431Y01209D03*
G54D64*
X-01387Y03422D03*
X-01647D03*
X-01389Y03238D03*
X-01649D03*
G54D65*
X-02666Y03304D03*
X-02477D03*
G54D66*
X-01139Y0592D03*
X-00926D03*
G54D67*
X-02319Y0276D03*
Y03043D03*
G54D68*
X-03763Y023D03*
Y01954D03*
G54D69*
X-04238Y02152D03*
Y02002D03*
Y02102D03*
Y02052D03*
G54D74*
X-04213Y01947D03*
Y02308D03*
X-03986D03*
Y01947D03*
G54D75*
X-04238Y02252D03*
Y02202D03*
G54D76*
X-03192Y00868D03*
X-03389D03*
Y01703D03*
X-03192D03*
X-02936D03*
X-03093Y00868D03*
X-03015Y01703D03*
X-02995D03*
X-03487D03*
X-03113D03*
X-0329Y00868D03*
X-03448D03*
X-03566D03*
X-03526D03*
X-0333Y01703D03*
X-02916Y00868D03*
X-03172D03*
X-03369D03*
X-03605Y01703D03*
X-03408D03*
X-03211D03*
X-02955D03*
X-02916D03*
X-02975D03*
X-03034D03*
X-03054D03*
X-03074D03*
X-03093D03*
X-03133D03*
X-03152D03*
X-03172D03*
X-03231D03*
X-03251D03*
X-0327D03*
X-0329D03*
X-0331D03*
X-03349D03*
X-03369D03*
X-03428D03*
X-03448D03*
X-03467D03*
X-03507D03*
X-03526D03*
X-03566D03*
X-03585D03*
X-03605Y00868D03*
X-03585D03*
X-03546D03*
X-03507D03*
X-03487D03*
X-03467D03*
X-03428D03*
X-03408D03*
X-03349D03*
X-0333D03*
X-0331D03*
X-0327D03*
X-03231D03*
X-03211D03*
X-03133D03*
X-03113D03*
X-03074D03*
X-03054D03*
X-03034D03*
X-03015D03*
X-02995D03*
X-02936D03*
X-03546Y01703D03*
X-03251Y00868D03*
X-03152D03*
X-02975D03*
X-02955D03*
G54D77*
X-03678Y00961D03*
Y01217D03*
Y01433D03*
X-02843Y01532D03*
Y01236D03*
Y01413D03*
Y01D03*
Y0102D03*
X-03678Y01532D03*
X-02843Y01118D03*
Y01098D03*
Y01079D03*
Y01059D03*
Y01039D03*
Y0098D03*
Y00961D03*
Y00941D03*
Y01551D03*
Y01571D03*
X-03678Y00941D03*
Y01197D03*
Y01413D03*
X-02843Y01512D03*
Y01256D03*
X-03678Y01098D03*
Y0163D03*
X-02843Y0161D03*
Y01138D03*
Y01158D03*
Y01177D03*
Y01197D03*
Y01217D03*
Y01315D03*
Y01354D03*
Y01374D03*
Y01394D03*
Y01433D03*
Y01591D03*
Y0163D03*
X-03678Y0161D03*
Y01591D03*
Y01571D03*
Y01551D03*
Y01512D03*
Y01492D03*
Y01472D03*
Y01453D03*
Y01394D03*
Y01374D03*
Y01354D03*
Y01335D03*
Y01315D03*
Y01295D03*
Y01158D03*
Y01118D03*
Y01079D03*
Y01059D03*
Y01039D03*
Y0102D03*
Y01D03*
Y0098D03*
X-02843Y01335D03*
Y01295D03*
Y01276D03*
X-03678Y01138D03*
Y01177D03*
Y01276D03*
Y01256D03*
Y01236D03*
X-02843Y01472D03*
Y01453D03*
Y01492D03*
G54D78*
X-02655Y01041D03*
Y00935D03*
G54D79*
X-04455Y03272D03*
X-04412D03*
X-04369D03*
X-04326D03*
X-04282D03*
X-04239D03*
X-04196D03*
X-04152D03*
X-04109D03*
X-04066D03*
X-04022D03*
X-03979D03*
X-03936D03*
X-03892D03*
X-04066Y02492D03*
X-04109D03*
X-04152D03*
X-04196D03*
X-04239D03*
X-04282D03*
X-04326D03*
X-04369D03*
X-04412D03*
X-04455D03*
X-04499D03*
X-04542D03*
X-04585D03*
X-04629D03*
X-04672Y03272D03*
Y02492D03*
X-04022D03*
X-03979D03*
X-03936D03*
X-03892D03*
X-03849D03*
X-03806D03*
X-03763D03*
X-03719D03*
X-03676D03*
X-03633D03*
X-04629Y03272D03*
X-04585D03*
X-04542D03*
X-03633D03*
X-03676D03*
X-03719D03*
X-03763D03*
X-03806D03*
X-03849D03*
X-04499D03*
G54D80*
X-04455Y03231D03*
X-04412D03*
X-04369D03*
X-04326D03*
X-04282D03*
X-04239D03*
X-04196D03*
X-04152D03*
X-04109D03*
X-04066D03*
X-04022D03*
X-03979D03*
X-03936D03*
X-03892D03*
X-04066Y02533D03*
X-04109D03*
X-04152D03*
X-04196D03*
X-04239D03*
X-04282D03*
X-04326D03*
X-04369D03*
X-04412D03*
X-04455D03*
X-04499D03*
X-04542D03*
X-04585D03*
X-04629D03*
X-04672Y03231D03*
Y02533D03*
X-04022D03*
X-03979D03*
X-03936D03*
X-03892D03*
X-03849D03*
X-03806D03*
X-03763D03*
X-03719D03*
X-03676D03*
X-03633D03*
X-04629Y03231D03*
X-04585D03*
X-04542D03*
X-03633D03*
X-03676D03*
X-03719D03*
X-03763D03*
X-03806D03*
X-03849D03*
X-04499D03*
G54D10*
X-01279Y03564D03*
G54D29*
X007Y06559D03*
X-079Y068D03*
X008Y004D03*
M02*
