G04 CAM Products 2000  RS274-X Output*
G04 Serial Number: 0000-00-00000*
G04 File Name:VFC-P V1.1 2015.12.12.gbr *
%FSLAX34Y34*%
%MOIN*%
%SFA1B1*%

%IPPOS*%
%ADD11R,0.051100X0.070800*%
%ADD12R,0.035400X0.055100*%
%ADD13R,0.070800X0.051100*%
%ADD14R,0.055100X0.047200*%
%ADD15O,0.023600X0.086600*%
%ADD16R,0.124000X0.086600*%
%ADD17R,0.039300X0.075900*%
%ADD18R,0.051100X0.106300*%
%ADD19R,0.039300X0.039300*%
%LNVFC-P V1.1 2015.12.12-1*%
%LPD*%
G54D11*
X59771Y49450D03*
X58630D03*
X79520Y48250D03*
X78379D03*
G54D12*
X59724Y48500D03*
X58976D03*
X79424Y47250D03*
X78676D03*
G54D13*
X47250Y71930D03*
Y73071D03*
X74695Y72071D03*
Y73213D03*
X47250Y73930D03*
Y75070D03*
X74695Y74071D03*
Y75212D03*
X47250Y75929D03*
Y77070D03*
X74695Y76070D03*
Y77212D03*
X47250Y77929D03*
Y79070D03*
X74695Y78070D03*
Y79212D03*
X47250Y79929D03*
Y81070D03*
X74695Y80070D03*
Y81212D03*
X50250Y67930D03*
Y69071D03*
X77694Y68071D03*
Y69213D03*
X50250Y69930D03*
Y71071D03*
X77694Y70071D03*
Y71213D03*
X50250Y71930D03*
Y73071D03*
X77694Y72071D03*
Y73213D03*
X50250Y73930D03*
Y75070D03*
X77694Y74071D03*
Y75212D03*
X50250Y75929D03*
Y77070D03*
X77694Y76070D03*
Y77212D03*
X53250Y53930D03*
Y55071D03*
X80694Y54071D03*
Y55213D03*
X53250Y55930D03*
Y57071D03*
X80694Y56071D03*
Y57213D03*
X53250Y57930D03*
Y59071D03*
X80694Y58071D03*
Y59213D03*
X53250Y59930D03*
Y61071D03*
X80694Y60071D03*
Y61213D03*
X53250Y61930D03*
Y63071D03*
X80694Y62071D03*
Y63213D03*
X53250Y63930D03*
Y65071D03*
X80694Y64071D03*
Y65213D03*
X53250Y65930D03*
Y67071D03*
X80694Y66071D03*
Y67213D03*
X53250Y67930D03*
Y69071D03*
X80694Y68071D03*
Y69213D03*
X53250Y69930D03*
Y71071D03*
X80694Y70071D03*
Y71213D03*
X53250Y71930D03*
Y73071D03*
X80694Y72071D03*
Y73213D03*
X57250Y53930D03*
Y55071D03*
X84694Y54071D03*
Y55213D03*
X57250Y55930D03*
Y57071D03*
X84694Y56071D03*
Y57213D03*
X57250Y57930D03*
Y59071D03*
X84694Y58071D03*
Y59213D03*
X57250Y59930D03*
Y61071D03*
X84694Y60071D03*
Y61213D03*
X57250Y61930D03*
Y63071D03*
X84694Y62071D03*
Y63213D03*
X57250Y63930D03*
Y65071D03*
X84694Y64071D03*
Y65213D03*
X57250Y65930D03*
Y67071D03*
X84694Y66071D03*
Y67213D03*
X57250Y67930D03*
Y69071D03*
X84694Y68071D03*
Y69213D03*
X57250Y69930D03*
Y71071D03*
X84694Y70071D03*
Y71213D03*
X57250Y71930D03*
Y73071D03*
X84694Y72071D03*
Y73213D03*
X60250Y67930D03*
Y69071D03*
X87694Y68071D03*
Y69213D03*
X60250Y69930D03*
Y71071D03*
X87694Y70071D03*
Y71213D03*
X60250Y71930D03*
Y73071D03*
X87694Y72071D03*
Y73213D03*
X60250Y73930D03*
Y75070D03*
X87694Y74071D03*
Y75212D03*
X60250Y75929D03*
Y77070D03*
X87694Y76070D03*
Y77212D03*
X63250Y71930D03*
Y73071D03*
X90694Y72071D03*
Y73213D03*
X63250Y73930D03*
Y75070D03*
X90694Y74071D03*
Y75212D03*
X63250Y75929D03*
Y77070D03*
X90694Y76070D03*
Y77212D03*
X63250Y77929D03*
Y79070D03*
X90694Y78070D03*
Y79212D03*
X63250Y79929D03*
Y81070D03*
X90694Y80070D03*
Y81212D03*
X67500Y56087D03*
Y57229D03*
X70500Y56087D03*
Y57229D03*
X68500Y56087D03*
Y57229D03*
X69500Y56087D03*
Y57229D03*
G54D14*
X53750Y53105D03*
Y52396D03*
X81200Y53255D03*
Y52546D03*
X57000Y53105D03*
Y52396D03*
X84350Y53255D03*
Y52546D03*
G54D15*
X54581Y51235D03*
X55081D03*
X55581D03*
X56081D03*
X54581Y53124D03*
X55081D03*
X55581D03*
X56081D03*
X82025Y51376D03*
X82525D03*
X83025D03*
X83525D03*
X82025Y53266D03*
X82525D03*
X83025D03*
X83525D03*
G54D16*
X72000Y50280D03*
Y53036D03*
G54D17*
X70630Y54658D03*
X72371D03*
G54D18*
X75320Y66500D03*
X74180D03*
X64071D03*
X62930D03*
G54D19*
X53831Y51565D03*
Y50935D03*
X81275Y51707D03*
Y51077D03*
X53000Y52435D03*
Y53065D03*
X80400Y52585D03*
Y53215D03*
X57750Y52435D03*
Y53065D03*
X85100Y52585D03*
Y53215D03*
X56831Y50935D03*
Y51565D03*
X84275Y51077D03*
Y51707D03*
M02*