G04 (created by PCBNEW (2013-07-07 BZR 4022)-stable) date 13/11/2015 09:02:40*
%MOIN*%
G04 Gerber Fmt 3.4, Leading zero omitted, Abs format*
%FSLAX34Y34*%
G01*
G70*
G90*
G04 APERTURE LIST*
%ADD10C,0.00590551*%
%ADD11R,0.0598425X0.120079*%
%ADD12R,0.0394X0.0315*%
%ADD13R,0.0590551X0.0787402*%
%ADD14R,0.0787402X0.0590551*%
%ADD15R,0.023622X0.0629921*%
%ADD16R,0.0480315X0.0358268*%
%ADD17R,0.0358268X0.0480315*%
%ADD18R,0.11811X0.19685*%
%ADD19R,0.669291X0.531496*%
%ADD20R,0.059X0.0512*%
%ADD21R,0.0512X0.059*%
%ADD22C,0.019685*%
%ADD23R,0.0945X0.1575*%
G04 APERTURE END LIST*
G54D10*
G54D11*
X63739Y-75569D03*
X64639Y-75569D03*
G54D12*
X115108Y-39775D03*
X114242Y-40150D03*
X114242Y-39400D03*
X95758Y-37750D03*
X94892Y-38125D03*
X94892Y-37375D03*
X97358Y-39750D03*
X96492Y-40125D03*
X96492Y-39375D03*
X113508Y-37775D03*
X112642Y-38150D03*
X112642Y-37400D03*
X60233Y-37750D03*
X59367Y-38125D03*
X59367Y-37375D03*
X61783Y-39750D03*
X60917Y-40125D03*
X60917Y-39375D03*
X78008Y-37750D03*
X77142Y-38125D03*
X77142Y-37375D03*
X79583Y-39750D03*
X78717Y-40125D03*
X78717Y-39375D03*
G54D13*
X96750Y-73000D03*
X95750Y-73000D03*
X95750Y-76500D03*
X96750Y-76500D03*
G54D14*
X103275Y-37250D03*
X103275Y-36250D03*
X99775Y-36250D03*
X99775Y-37250D03*
X64250Y-38750D03*
X64250Y-39750D03*
X67750Y-39750D03*
X67750Y-38750D03*
X117525Y-38775D03*
X117525Y-39775D03*
X121025Y-39775D03*
X121025Y-38775D03*
G54D13*
X61250Y-73000D03*
X60250Y-73000D03*
X60250Y-76500D03*
X61250Y-76500D03*
G54D14*
X67750Y-37250D03*
X67750Y-36250D03*
X64250Y-36250D03*
X64250Y-37250D03*
X85525Y-37250D03*
X85525Y-36250D03*
X82025Y-36250D03*
X82025Y-37250D03*
G54D13*
X114500Y-73000D03*
X113500Y-73000D03*
X113500Y-76500D03*
X114500Y-76500D03*
G54D14*
X99775Y-38750D03*
X99775Y-39750D03*
X103275Y-39750D03*
X103275Y-38750D03*
G54D13*
X79000Y-73000D03*
X78000Y-73000D03*
X78000Y-76500D03*
X79000Y-76500D03*
G54D14*
X82025Y-38750D03*
X82025Y-39750D03*
X85525Y-39750D03*
X85525Y-38750D03*
X121025Y-37275D03*
X121025Y-36275D03*
X117525Y-36275D03*
X117525Y-37275D03*
G54D15*
X58971Y-63836D03*
X58971Y-61710D03*
X58479Y-63836D03*
X57987Y-63836D03*
X57495Y-63836D03*
X58479Y-61710D03*
X57987Y-61710D03*
X57495Y-61710D03*
X112238Y-57037D03*
X112238Y-54912D03*
X111746Y-57037D03*
X111253Y-57037D03*
X110761Y-57037D03*
X111746Y-54912D03*
X111253Y-54912D03*
X110761Y-54912D03*
X76763Y-53037D03*
X76763Y-50912D03*
X76271Y-53037D03*
X75778Y-53037D03*
X75286Y-53037D03*
X76271Y-50912D03*
X75778Y-50912D03*
X75286Y-50912D03*
X76713Y-63837D03*
X76713Y-61712D03*
X76221Y-63837D03*
X75728Y-63837D03*
X75236Y-63837D03*
X76221Y-61712D03*
X75728Y-61712D03*
X75236Y-61712D03*
X75263Y-18237D03*
X75263Y-16112D03*
X74771Y-18237D03*
X74278Y-18237D03*
X73786Y-18237D03*
X74771Y-16112D03*
X74278Y-16112D03*
X73786Y-16112D03*
X94463Y-57037D03*
X94463Y-54912D03*
X93971Y-57037D03*
X93478Y-57037D03*
X92986Y-57037D03*
X93971Y-54912D03*
X93478Y-54912D03*
X92986Y-54912D03*
X93013Y-18237D03*
X93013Y-16112D03*
X92521Y-18237D03*
X92028Y-18237D03*
X91536Y-18237D03*
X92521Y-16112D03*
X92028Y-16112D03*
X91536Y-16112D03*
X58988Y-53062D03*
X58988Y-50937D03*
X58496Y-53062D03*
X58003Y-53062D03*
X57511Y-53062D03*
X58496Y-50937D03*
X58003Y-50937D03*
X57511Y-50937D03*
X94488Y-63837D03*
X94488Y-61712D03*
X93996Y-63837D03*
X93503Y-63837D03*
X93011Y-63837D03*
X93996Y-61712D03*
X93503Y-61712D03*
X93011Y-61712D03*
X94463Y-53037D03*
X94463Y-50912D03*
X93971Y-53037D03*
X93478Y-53037D03*
X92986Y-53037D03*
X93971Y-50912D03*
X93478Y-50912D03*
X92986Y-50912D03*
X58988Y-57062D03*
X58988Y-54937D03*
X58496Y-57062D03*
X58003Y-57062D03*
X57511Y-57062D03*
X58496Y-54937D03*
X58003Y-54937D03*
X57511Y-54937D03*
X110763Y-18237D03*
X110763Y-16112D03*
X110271Y-18237D03*
X109778Y-18237D03*
X109286Y-18237D03*
X110271Y-16112D03*
X109778Y-16112D03*
X109286Y-16112D03*
X112238Y-63837D03*
X112238Y-61712D03*
X111746Y-63837D03*
X111253Y-63837D03*
X110761Y-63837D03*
X111746Y-61712D03*
X111253Y-61712D03*
X110761Y-61712D03*
X112238Y-53037D03*
X112238Y-50912D03*
X111746Y-53037D03*
X111253Y-53037D03*
X110761Y-53037D03*
X111746Y-50912D03*
X111253Y-50912D03*
X110761Y-50912D03*
X76738Y-57037D03*
X76738Y-54912D03*
X76246Y-57037D03*
X75753Y-57037D03*
X75261Y-57037D03*
X76246Y-54912D03*
X75753Y-54912D03*
X75261Y-54912D03*
X57521Y-18236D03*
X57521Y-16110D03*
X57029Y-18236D03*
X56537Y-18236D03*
X56045Y-18236D03*
X57029Y-16110D03*
X56537Y-16110D03*
X56045Y-16110D03*
G54D16*
X113250Y-61040D03*
X113250Y-59745D03*
G54D17*
X77940Y-39400D03*
X76645Y-39400D03*
X95715Y-39400D03*
X94420Y-39400D03*
X96785Y-36700D03*
X98080Y-36700D03*
X60140Y-39400D03*
X58845Y-39400D03*
X61260Y-36700D03*
X62555Y-36700D03*
G54D16*
X95500Y-61040D03*
X95500Y-59745D03*
X95500Y-63040D03*
X95500Y-61745D03*
X60000Y-61040D03*
X60000Y-59745D03*
X113250Y-63040D03*
X113250Y-61745D03*
X60000Y-63040D03*
X60000Y-61745D03*
G54D17*
X114535Y-36725D03*
X115830Y-36725D03*
X113465Y-39425D03*
X112170Y-39425D03*
G54D16*
X77750Y-63040D03*
X77750Y-61745D03*
X77750Y-61040D03*
X77750Y-59745D03*
G54D17*
X79035Y-36700D03*
X80330Y-36700D03*
G54D18*
X62750Y-78750D03*
X58450Y-78750D03*
G54D19*
X60600Y-83750D03*
G54D18*
X80500Y-90000D03*
X76200Y-90000D03*
G54D19*
X78350Y-95000D03*
G54D18*
X80500Y-78750D03*
X76200Y-78750D03*
G54D19*
X78350Y-83750D03*
G54D18*
X98250Y-78750D03*
X93950Y-78750D03*
G54D19*
X96100Y-83750D03*
G54D18*
X98250Y-90000D03*
X93950Y-90000D03*
G54D19*
X96100Y-95000D03*
G54D18*
X116000Y-90000D03*
X111700Y-90000D03*
G54D19*
X113850Y-95000D03*
G54D18*
X116000Y-78750D03*
X111700Y-78750D03*
G54D19*
X113850Y-83750D03*
G54D18*
X62750Y-90000D03*
X58450Y-90000D03*
G54D19*
X60600Y-95000D03*
G54D20*
X110625Y-14300D03*
X110625Y-15050D03*
G54D21*
X119606Y-70197D03*
X120356Y-70197D03*
X116406Y-70197D03*
X117156Y-70197D03*
G54D20*
X56983Y-65848D03*
X56983Y-65098D03*
G54D21*
X112800Y-47400D03*
X112050Y-47400D03*
X111200Y-47400D03*
X110450Y-47400D03*
G54D20*
X59133Y-65848D03*
X59133Y-65098D03*
X56083Y-65848D03*
X56083Y-65098D03*
X57833Y-65848D03*
X57833Y-65098D03*
X118982Y-75746D03*
X118982Y-74996D03*
X112025Y-15050D03*
X112025Y-14300D03*
G54D21*
X70125Y-40150D03*
X69375Y-40150D03*
G54D20*
X109225Y-20175D03*
X109225Y-19425D03*
X109725Y-15050D03*
X109725Y-14300D03*
X110725Y-19425D03*
X110725Y-20175D03*
X108825Y-15050D03*
X108825Y-14300D03*
X124800Y-23625D03*
X124800Y-24375D03*
X112425Y-59850D03*
X112425Y-60600D03*
G54D21*
X61308Y-64373D03*
X60558Y-64373D03*
G54D20*
X60000Y-55625D03*
X60000Y-56375D03*
X95475Y-55600D03*
X95475Y-56350D03*
X93000Y-58125D03*
X93000Y-58875D03*
X61250Y-71625D03*
X61250Y-70875D03*
G54D21*
X70125Y-38050D03*
X69375Y-38050D03*
X62525Y-35650D03*
X61775Y-35650D03*
G54D20*
X56633Y-63198D03*
X56633Y-62448D03*
X55600Y-59825D03*
X55600Y-60575D03*
G54D21*
X119625Y-56900D03*
X120375Y-56900D03*
X70125Y-37150D03*
X69375Y-37150D03*
X70125Y-36250D03*
X69375Y-36250D03*
X62525Y-38700D03*
X61775Y-38700D03*
X99375Y-56900D03*
X98625Y-56900D03*
X61775Y-37750D03*
X62525Y-37750D03*
X59375Y-36450D03*
X60125Y-36450D03*
G54D20*
X111125Y-60600D03*
X111125Y-59850D03*
X119000Y-77625D03*
X119000Y-78375D03*
X65789Y-75744D03*
X65789Y-74994D03*
X109875Y-63200D03*
X109875Y-62450D03*
G54D21*
X115825Y-35675D03*
X115075Y-35675D03*
X123425Y-38050D03*
X122675Y-38050D03*
G54D20*
X55983Y-20048D03*
X55983Y-19298D03*
X114500Y-71575D03*
X114500Y-70825D03*
X57383Y-14298D03*
X57383Y-15048D03*
X58783Y-15048D03*
X58783Y-14298D03*
X113250Y-55600D03*
X113250Y-56350D03*
X110775Y-58125D03*
X110775Y-58875D03*
X108825Y-59850D03*
X108825Y-60600D03*
G54D21*
X57925Y-47400D03*
X57175Y-47400D03*
X59525Y-47400D03*
X58775Y-47400D03*
X63106Y-70247D03*
X63856Y-70247D03*
X66356Y-70247D03*
X67106Y-70247D03*
X66408Y-56923D03*
X67158Y-56923D03*
G54D20*
X65800Y-77625D03*
X65800Y-78375D03*
X130442Y-43756D03*
X130442Y-44506D03*
X130442Y-38506D03*
X130442Y-39256D03*
G54D21*
X117150Y-56900D03*
X116400Y-56900D03*
G54D20*
X55583Y-15048D03*
X55583Y-14298D03*
X110225Y-60600D03*
X110225Y-59850D03*
X111082Y-65847D03*
X111082Y-65097D03*
X109332Y-65847D03*
X109332Y-65097D03*
X112382Y-65847D03*
X112382Y-65097D03*
X110232Y-65847D03*
X110232Y-65097D03*
X56983Y-60598D03*
X56983Y-59848D03*
X57883Y-60598D03*
X57883Y-59848D03*
X59183Y-59848D03*
X59183Y-60598D03*
X71500Y-23625D03*
X71500Y-24375D03*
G54D21*
X87875Y-37150D03*
X87125Y-37150D03*
X123375Y-40200D03*
X122625Y-40200D03*
X112650Y-36475D03*
X113400Y-36475D03*
X115050Y-37775D03*
X115800Y-37775D03*
X115800Y-38775D03*
X115050Y-38775D03*
X123425Y-36250D03*
X122675Y-36250D03*
G54D20*
X57483Y-19298D03*
X57483Y-20048D03*
X56483Y-15048D03*
X56483Y-14298D03*
G54D21*
X123425Y-37150D03*
X122675Y-37150D03*
X114550Y-64375D03*
X113800Y-64375D03*
G54D20*
X76525Y-15050D03*
X76525Y-14300D03*
X73325Y-15050D03*
X73325Y-14300D03*
X75225Y-19300D03*
X75225Y-20050D03*
X74225Y-15050D03*
X74225Y-14300D03*
G54D21*
X95050Y-47400D03*
X94300Y-47400D03*
G54D20*
X79000Y-71625D03*
X79000Y-70875D03*
G54D21*
X93450Y-47400D03*
X92700Y-47400D03*
G54D20*
X73725Y-20050D03*
X73725Y-19300D03*
X75125Y-14300D03*
X75125Y-15050D03*
G54D21*
X98656Y-70247D03*
X99406Y-70247D03*
G54D20*
X57500Y-58125D03*
X57500Y-58875D03*
G54D21*
X87875Y-36250D03*
X87125Y-36250D03*
G54D20*
X101282Y-75746D03*
X101282Y-74996D03*
X94275Y-15050D03*
X94275Y-14300D03*
X92875Y-14300D03*
X92875Y-15050D03*
X91475Y-20050D03*
X91475Y-19300D03*
G54D21*
X87875Y-38050D03*
X87125Y-38050D03*
G54D20*
X91975Y-15050D03*
X91975Y-14300D03*
G54D21*
X81675Y-56900D03*
X80925Y-56900D03*
X87800Y-40150D03*
X87050Y-40150D03*
G54D20*
X74732Y-65847D03*
X74732Y-65097D03*
X76882Y-65847D03*
X76882Y-65097D03*
X73832Y-65847D03*
X73832Y-65097D03*
X75582Y-65847D03*
X75582Y-65097D03*
G54D21*
X77150Y-36450D03*
X77900Y-36450D03*
G54D20*
X75275Y-58100D03*
X75275Y-58850D03*
X74725Y-60600D03*
X74725Y-59850D03*
X92975Y-19300D03*
X92975Y-20050D03*
X75625Y-60600D03*
X75625Y-59850D03*
X76925Y-59850D03*
X76925Y-60600D03*
X77775Y-55600D03*
X77775Y-56350D03*
X101300Y-77625D03*
X101300Y-78375D03*
G54D21*
X101850Y-56900D03*
X102600Y-56900D03*
X101856Y-70247D03*
X102606Y-70247D03*
X79550Y-37750D03*
X80300Y-37750D03*
X80300Y-38750D03*
X79550Y-38750D03*
X63908Y-56923D03*
X63158Y-56923D03*
X84175Y-56900D03*
X84925Y-56900D03*
G54D20*
X83500Y-77625D03*
X83500Y-78375D03*
G54D21*
X79050Y-64375D03*
X78300Y-64375D03*
X105550Y-40150D03*
X104800Y-40150D03*
X94900Y-36450D03*
X95650Y-36450D03*
X97300Y-37750D03*
X98050Y-37750D03*
X98050Y-38750D03*
X97300Y-38750D03*
X105625Y-36300D03*
X104875Y-36300D03*
X84106Y-70247D03*
X84856Y-70247D03*
X105625Y-37150D03*
X104875Y-37150D03*
X96775Y-64375D03*
X96025Y-64375D03*
G54D20*
X91075Y-59850D03*
X91075Y-60600D03*
X92125Y-63225D03*
X92125Y-62475D03*
G54D21*
X98075Y-35650D03*
X97325Y-35650D03*
X105625Y-38050D03*
X104875Y-38050D03*
G54D20*
X96750Y-71625D03*
X96750Y-70875D03*
X91582Y-65847D03*
X91582Y-65097D03*
X91075Y-15050D03*
X91075Y-14300D03*
X83489Y-75744D03*
X83489Y-74994D03*
X107000Y-23625D03*
X107000Y-24375D03*
X94675Y-59850D03*
X94675Y-60600D03*
X93375Y-60600D03*
X93375Y-59850D03*
X92475Y-60600D03*
X92475Y-59850D03*
G54D21*
X80325Y-35650D03*
X79575Y-35650D03*
G54D20*
X74375Y-63200D03*
X74375Y-62450D03*
X93332Y-65847D03*
X93332Y-65097D03*
G54D21*
X80906Y-70247D03*
X81656Y-70247D03*
G54D20*
X94632Y-65847D03*
X94632Y-65097D03*
X73325Y-59850D03*
X73325Y-60600D03*
X92482Y-65847D03*
X92482Y-65097D03*
G54D21*
X75675Y-47375D03*
X74925Y-47375D03*
X77275Y-47375D03*
X76525Y-47375D03*
G54D20*
X89300Y-23625D03*
X89300Y-24375D03*
G54D12*
X56767Y-43200D03*
X57633Y-42825D03*
X57633Y-43575D03*
X111867Y-43200D03*
X112733Y-42825D03*
X112733Y-43575D03*
X110017Y-43200D03*
X110883Y-42825D03*
X110883Y-43575D03*
X94117Y-43200D03*
X94983Y-42825D03*
X94983Y-43575D03*
X92267Y-43200D03*
X93133Y-42825D03*
X93133Y-43575D03*
X76367Y-43175D03*
X77233Y-42800D03*
X77233Y-43550D03*
X74517Y-43175D03*
X75383Y-42800D03*
X75383Y-43550D03*
X58617Y-43200D03*
X59483Y-42825D03*
X59483Y-43575D03*
G54D21*
X75675Y-46225D03*
X74925Y-46225D03*
X74925Y-45275D03*
X75675Y-45275D03*
X77975Y-45175D03*
X77225Y-45175D03*
X57175Y-46250D03*
X57925Y-46250D03*
X57175Y-45300D03*
X57925Y-45300D03*
X95750Y-45200D03*
X95000Y-45200D03*
X93450Y-46250D03*
X92700Y-46250D03*
X93450Y-45300D03*
X92700Y-45300D03*
X60225Y-45200D03*
X59475Y-45200D03*
X113500Y-45200D03*
X112750Y-45200D03*
X111200Y-46250D03*
X110450Y-46250D03*
X111200Y-45300D03*
X110450Y-45300D03*
G54D22*
X57000Y-29000D03*
X75000Y-29000D03*
X92000Y-29000D03*
X110000Y-29000D03*
X70000Y-76000D03*
X88000Y-76000D03*
X106000Y-76000D03*
X123000Y-76000D03*
G54D11*
X81439Y-75569D03*
X82339Y-75569D03*
X99251Y-75550D03*
X100151Y-75550D03*
X116951Y-75550D03*
X117851Y-75550D03*
G54D23*
X133200Y-35925D03*
X133200Y-39075D03*
X133200Y-41625D03*
X133200Y-44775D03*
G54D21*
X63106Y-71197D03*
X63856Y-71197D03*
X66356Y-71197D03*
X67106Y-71197D03*
G54D20*
X59990Y-53060D03*
X59990Y-52310D03*
G54D21*
X80906Y-71197D03*
X81656Y-71197D03*
X84106Y-71197D03*
X84856Y-71197D03*
G54D20*
X77790Y-53035D03*
X77790Y-52285D03*
G54D21*
X99406Y-71197D03*
X98656Y-71197D03*
X102606Y-71197D03*
X101856Y-71197D03*
G54D20*
X95540Y-53060D03*
X95540Y-52310D03*
G54D21*
X116406Y-71197D03*
X117156Y-71197D03*
X119606Y-71197D03*
X120356Y-71197D03*
G54D20*
X113290Y-53035D03*
X113290Y-52285D03*
G54D21*
X58776Y-49398D03*
X59526Y-49398D03*
X57176Y-49398D03*
X57926Y-49398D03*
X75676Y-49398D03*
X74926Y-49398D03*
X77276Y-49398D03*
X76526Y-49398D03*
X93376Y-49398D03*
X92626Y-49398D03*
X94976Y-49398D03*
X94226Y-49398D03*
X111176Y-49398D03*
X110426Y-49398D03*
X112776Y-49398D03*
X112026Y-49398D03*
M02*
