*%FSLAX23Y23*%
*%MOIN*%
G01*
%ADD11C,0.003*%
%ADD12C,0.004*%
%ADD13C,0.005*%
%ADD14C,0.007*%
%ADD15C,0.008*%
%ADD16C,0.010*%
%ADD17C,0.012*%
%ADD18C,0.014*%
%ADD19C,0.016*%
%ADD20C,0.020*%
%ADD21O,0.020X0.056*%
%ADD22C,0.024*%
%ADD23O,0.024X0.060*%
%ADD24C,0.032*%
%ADD25C,0.035*%
%ADD26C,0.036*%
%ADD27C,0.039*%
%ADD28C,0.039*%
%ADD29C,0.047*%
%ADD30C,0.050*%
%ADD31C,0.051*%
%ADD32O,0.055X0.071*%
%ADD33O,0.056X0.020*%
%ADD34C,0.059*%
%ADD35O,0.060X0.024*%
%ADD36C,0.060*%
%ADD37C,0.063*%
%ADD38C,0.067*%
%ADD39C,0.068*%
%ADD40C,0.070*%
%ADD41C,0.071*%
%ADD42C,0.072*%
%ADD43C,0.076*%
%ADD44C,0.078*%
%ADD45C,0.079*%
%ADD46C,0.079*%
%ADD47C,0.080*%
%ADD48C,0.080*%
%ADD49C,0.087*%
%ADD50C,0.091*%
%ADD51C,0.098*%
%ADD52C,0.099*%
%ADD53C,0.100*%
%ADD54C,0.100*%
%ADD55C,0.103*%
%ADD56C,0.107*%
%ADD57C,0.157*%
%ADD58C,0.197*%
%ADD59R,0.023X0.028*%
%ADD60R,0.023X0.047*%
%ADD61R,0.025X0.030*%
%ADD62R,0.028X0.038*%
%ADD63R,0.030X0.040*%
%ADD64R,0.031X0.055*%
%ADD65R,0.036X0.036*%
%ADD66R,0.036X0.046*%
%ADD67R,0.038X0.028*%
%ADD68R,0.040X0.030*%
%ADD69R,0.040X0.040*%
%ADD70R,0.040X0.050*%
%ADD71R,0.042X0.072*%
%ADD72R,0.046X0.036*%
%ADD73R,0.047X0.023*%
%ADD74R,0.050X0.040*%
%ADD75R,0.050X0.080*%
%ADD76R,0.055X0.031*%
%ADD77R,0.063X0.063*%
%ADD78R,0.071X0.071*%
%ADD79R,0.078X0.078*%
%ADD80R,0.079X0.079*%
%ADD81R,0.098X0.098*%
D21*
X13405Y12022D02*
D03*
X13305D02*
D03*
X13405Y11802D02*
D03*
X13355Y12022D02*
D03*
Y11802D02*
D03*
X13555Y12022D02*
D03*
X13505D02*
D03*
X13455D02*
D03*
X13555Y11802D02*
D03*
X13505D02*
D03*
X13455D02*
D03*
X13255D02*
D03*
X13305D02*
D03*
X13255Y12022D02*
D03*
X13205D02*
D03*
Y11802D02*
D03*
X10885Y12022D02*
D03*
X10785D02*
D03*
X10885Y11802D02*
D03*
X10835Y12022D02*
D03*
Y11802D02*
D03*
X11035Y12022D02*
D03*
X10985D02*
D03*
X10935D02*
D03*
X11035Y11802D02*
D03*
X10985D02*
D03*
X10935D02*
D03*
X10735D02*
D03*
X10785D02*
D03*
X10735Y12022D02*
D03*
X10685D02*
D03*
Y11802D02*
D03*
X8365Y12022D02*
D03*
X8265D02*
D03*
X8365Y11802D02*
D03*
X8315Y12022D02*
D03*
Y11802D02*
D03*
X8515Y12022D02*
D03*
X8465D02*
D03*
X8415D02*
D03*
X8515Y11802D02*
D03*
X8465D02*
D03*
X8415D02*
D03*
X8215D02*
D03*
X8265D02*
D03*
X8215Y12022D02*
D03*
X8165D02*
D03*
Y11802D02*
D03*
X13405Y9857D02*
D03*
X13305D02*
D03*
X13405Y9637D02*
D03*
X13355Y9857D02*
D03*
Y9637D02*
D03*
X13555Y9857D02*
D03*
X13505D02*
D03*
X13455D02*
D03*
X13555Y9637D02*
D03*
X13505D02*
D03*
X13455D02*
D03*
X13255D02*
D03*
X13305D02*
D03*
X13255Y9857D02*
D03*
X13205D02*
D03*
Y9637D02*
D03*
X10885Y9857D02*
D03*
X10785D02*
D03*
X10885Y9637D02*
D03*
X10835Y9857D02*
D03*
Y9637D02*
D03*
X11035Y9857D02*
D03*
X10985D02*
D03*
X10935D02*
D03*
X11035Y9637D02*
D03*
X10985D02*
D03*
X10935D02*
D03*
X10735D02*
D03*
X10785D02*
D03*
X10735Y9857D02*
D03*
X10685D02*
D03*
Y9637D02*
D03*
X8365Y9857D02*
D03*
X8265D02*
D03*
X8365Y9637D02*
D03*
X8315Y9857D02*
D03*
Y9637D02*
D03*
X8515Y9857D02*
D03*
X8465D02*
D03*
X8415D02*
D03*
X8515Y9637D02*
D03*
X8465D02*
D03*
X8415D02*
D03*
X8215D02*
D03*
X8265D02*
D03*
X8215Y9857D02*
D03*
X8165D02*
D03*
Y9637D02*
D03*
X13405Y7692D02*
D03*
X13305D02*
D03*
X13405Y7472D02*
D03*
X13355Y7692D02*
D03*
Y7472D02*
D03*
X13555Y7692D02*
D03*
X13505D02*
D03*
X13455D02*
D03*
X13555Y7472D02*
D03*
X13505D02*
D03*
X13455D02*
D03*
X13255D02*
D03*
X13305D02*
D03*
X13255Y7692D02*
D03*
X13205D02*
D03*
Y7472D02*
D03*
X10885Y7692D02*
D03*
X10785D02*
D03*
X10885Y7472D02*
D03*
X10835Y7692D02*
D03*
Y7472D02*
D03*
X11035Y7692D02*
D03*
X10985D02*
D03*
X10935D02*
D03*
X11035Y7472D02*
D03*
X10985D02*
D03*
X10935D02*
D03*
X10735D02*
D03*
X10785D02*
D03*
X10735Y7692D02*
D03*
X10685D02*
D03*
Y7472D02*
D03*
X8365Y7692D02*
D03*
X8265D02*
D03*
X8365Y7472D02*
D03*
X8315Y7692D02*
D03*
Y7472D02*
D03*
X8515Y7692D02*
D03*
X8465D02*
D03*
X8415D02*
D03*
X8515Y7472D02*
D03*
X8465D02*
D03*
X8415D02*
D03*
X8215D02*
D03*
X8265D02*
D03*
X8215Y7692D02*
D03*
X8165D02*
D03*
Y7472D02*
D03*
X13405Y5527D02*
D03*
X13305D02*
D03*
X13405Y5307D02*
D03*
X13355Y5527D02*
D03*
Y5307D02*
D03*
X13555Y5527D02*
D03*
X13505D02*
D03*
X13455D02*
D03*
X13555Y5307D02*
D03*
X13505D02*
D03*
X13455D02*
D03*
X13255D02*
D03*
X13305D02*
D03*
X13255Y5527D02*
D03*
X13205D02*
D03*
Y5307D02*
D03*
X10885Y5527D02*
D03*
X10785D02*
D03*
X10885Y5307D02*
D03*
X10835Y5527D02*
D03*
Y5307D02*
D03*
X11035Y5527D02*
D03*
X10985D02*
D03*
X10935D02*
D03*
X11035Y5307D02*
D03*
X10985D02*
D03*
X10935D02*
D03*
X10735D02*
D03*
X10785D02*
D03*
X10735Y5527D02*
D03*
X10685D02*
D03*
Y5307D02*
D03*
X8365Y5527D02*
D03*
X8265D02*
D03*
X8365Y5307D02*
D03*
X8315Y5527D02*
D03*
Y5307D02*
D03*
X8515Y5527D02*
D03*
X8465D02*
D03*
X8415D02*
D03*
X8515Y5307D02*
D03*
X8465D02*
D03*
X8415D02*
D03*
X8215D02*
D03*
X8265D02*
D03*
X8215Y5527D02*
D03*
X8165D02*
D03*
Y5307D02*
D03*
X13405Y3362D02*
D03*
X13305D02*
D03*
X13405Y3142D02*
D03*
X13355Y3362D02*
D03*
Y3142D02*
D03*
X13555Y3362D02*
D03*
X13505D02*
D03*
X13455D02*
D03*
X13555Y3142D02*
D03*
X13505D02*
D03*
X13455D02*
D03*
X13255D02*
D03*
X13305D02*
D03*
X13255Y3362D02*
D03*
X13205D02*
D03*
Y3142D02*
D03*
X10885Y3362D02*
D03*
X10785D02*
D03*
X10885Y3142D02*
D03*
X10835Y3362D02*
D03*
Y3142D02*
D03*
X11035Y3362D02*
D03*
X10985D02*
D03*
X10935D02*
D03*
X11035Y3142D02*
D03*
X10985D02*
D03*
X10935D02*
D03*
X10735D02*
D03*
X10785D02*
D03*
X10735Y3362D02*
D03*
X10685D02*
D03*
Y3142D02*
D03*
X8165D02*
D03*
Y3362D02*
D03*
X8215D02*
D03*
X8265Y3142D02*
D03*
X8215D02*
D03*
X8415D02*
D03*
X8465D02*
D03*
X8515D02*
D03*
X8415Y3362D02*
D03*
X8465D02*
D03*
X8515D02*
D03*
X8315Y3142D02*
D03*
Y3362D02*
D03*
X8365Y3142D02*
D03*
X8265Y3362D02*
D03*
X8365D02*
D03*
D33*
X12315Y11497D02*
D03*
Y11447D02*
D03*
Y11397D02*
D03*
X12535D02*
D03*
Y11447D02*
D03*
Y11497D02*
D03*
Y11547D02*
D03*
X12315D02*
D03*
X9795Y11497D02*
D03*
Y11447D02*
D03*
Y11397D02*
D03*
X10015D02*
D03*
Y11447D02*
D03*
Y11497D02*
D03*
Y11547D02*
D03*
X9795D02*
D03*
X7275Y11497D02*
D03*
Y11447D02*
D03*
Y11397D02*
D03*
X7495D02*
D03*
Y11447D02*
D03*
Y11497D02*
D03*
Y11547D02*
D03*
X7275D02*
D03*
X12315Y9332D02*
D03*
Y9282D02*
D03*
Y9232D02*
D03*
X12535D02*
D03*
Y9282D02*
D03*
Y9332D02*
D03*
Y9382D02*
D03*
X12315D02*
D03*
X9795Y9332D02*
D03*
Y9282D02*
D03*
Y9232D02*
D03*
X10015D02*
D03*
Y9282D02*
D03*
Y9332D02*
D03*
Y9382D02*
D03*
X9795D02*
D03*
X7275Y9332D02*
D03*
Y9282D02*
D03*
Y9232D02*
D03*
X7495D02*
D03*
Y9282D02*
D03*
Y9332D02*
D03*
Y9382D02*
D03*
X7275D02*
D03*
X12315Y7167D02*
D03*
Y7117D02*
D03*
Y7067D02*
D03*
X12535D02*
D03*
Y7117D02*
D03*
Y7167D02*
D03*
Y7217D02*
D03*
X12315D02*
D03*
X9795Y7167D02*
D03*
Y7117D02*
D03*
Y7067D02*
D03*
X10015D02*
D03*
Y7117D02*
D03*
Y7167D02*
D03*
Y7217D02*
D03*
X9795D02*
D03*
X7275Y7167D02*
D03*
Y7117D02*
D03*
Y7067D02*
D03*
X7495D02*
D03*
Y7117D02*
D03*
Y7167D02*
D03*
Y7217D02*
D03*
X7275D02*
D03*
X12315Y5002D02*
D03*
Y4952D02*
D03*
Y4902D02*
D03*
X12535D02*
D03*
Y4952D02*
D03*
Y5002D02*
D03*
Y5052D02*
D03*
X12315D02*
D03*
X9795Y5002D02*
D03*
Y4952D02*
D03*
Y4902D02*
D03*
X10015D02*
D03*
Y4952D02*
D03*
Y5002D02*
D03*
Y5052D02*
D03*
X9795D02*
D03*
X7275Y5002D02*
D03*
Y4952D02*
D03*
Y4902D02*
D03*
X7495D02*
D03*
Y4952D02*
D03*
Y5002D02*
D03*
Y5052D02*
D03*
X7275D02*
D03*
X12315Y2837D02*
D03*
Y2787D02*
D03*
Y2737D02*
D03*
X12535D02*
D03*
Y2787D02*
D03*
Y2837D02*
D03*
Y2887D02*
D03*
X12315D02*
D03*
X9795Y2837D02*
D03*
Y2787D02*
D03*
Y2737D02*
D03*
X10015D02*
D03*
Y2787D02*
D03*
Y2837D02*
D03*
Y2887D02*
D03*
X9795D02*
D03*
X7275D02*
D03*
X7495D02*
D03*
Y2837D02*
D03*
Y2787D02*
D03*
Y2737D02*
D03*
X7275D02*
D03*
Y2787D02*
D03*
Y2837D02*
D03*
D59*
X11409Y11572D02*
D03*
X11435Y11643D02*
D03*
X11461Y11572D02*
D03*
X11606Y11857D02*
D03*
X11580Y11928D02*
D03*
X11554Y11857D02*
D03*
X8889Y11572D02*
D03*
X8915Y11643D02*
D03*
X8941Y11572D02*
D03*
X9086Y11857D02*
D03*
X9060Y11928D02*
D03*
X9034Y11857D02*
D03*
X6369Y11572D02*
D03*
X6395Y11643D02*
D03*
X6421Y11572D02*
D03*
X6566Y11857D02*
D03*
X6540Y11928D02*
D03*
X6514Y11857D02*
D03*
X11409Y9407D02*
D03*
X11435Y9478D02*
D03*
X11461Y9407D02*
D03*
X11606Y9692D02*
D03*
X11580Y9763D02*
D03*
X11554Y9692D02*
D03*
X8889Y9407D02*
D03*
X8915Y9478D02*
D03*
X8941Y9407D02*
D03*
X9086Y9692D02*
D03*
X9060Y9763D02*
D03*
X9034Y9692D02*
D03*
X6369Y9407D02*
D03*
X6395Y9478D02*
D03*
X6421Y9407D02*
D03*
X6566Y9692D02*
D03*
X6540Y9763D02*
D03*
X6514Y9692D02*
D03*
X11409Y7242D02*
D03*
X11435Y7313D02*
D03*
X11461Y7242D02*
D03*
X11606Y7527D02*
D03*
X11580Y7598D02*
D03*
X11554Y7527D02*
D03*
X8889Y7242D02*
D03*
X8915Y7313D02*
D03*
X8941Y7242D02*
D03*
X9086Y7527D02*
D03*
X9060Y7598D02*
D03*
X9034Y7527D02*
D03*
X6369Y7242D02*
D03*
X6395Y7313D02*
D03*
X6421Y7242D02*
D03*
X6566Y7527D02*
D03*
X6540Y7598D02*
D03*
X6514Y7527D02*
D03*
X11409Y5077D02*
D03*
X11435Y5148D02*
D03*
X11461Y5077D02*
D03*
X11606Y5362D02*
D03*
X11580Y5433D02*
D03*
X11554Y5362D02*
D03*
X8889Y5077D02*
D03*
X8915Y5148D02*
D03*
X8941Y5077D02*
D03*
X9086Y5362D02*
D03*
X9060Y5433D02*
D03*
X9034Y5362D02*
D03*
X6369Y5077D02*
D03*
X6395Y5148D02*
D03*
X6421Y5077D02*
D03*
X6566Y5362D02*
D03*
X6540Y5433D02*
D03*
X6514Y5362D02*
D03*
X11409Y2912D02*
D03*
X11435Y2983D02*
D03*
X11461Y2912D02*
D03*
X11606Y3197D02*
D03*
X11580Y3268D02*
D03*
X11554Y3197D02*
D03*
X8889Y2912D02*
D03*
X8915Y2983D02*
D03*
X8941Y2912D02*
D03*
X9086Y3197D02*
D03*
X9060Y3268D02*
D03*
X9034Y3197D02*
D03*
X6421Y2912D02*
D03*
X6395Y2983D02*
D03*
X6369Y2912D02*
D03*
X6514Y3197D02*
D03*
X6540Y3268D02*
D03*
X6566Y3197D02*
D03*
D60*
X12035Y11332D02*
D03*
X12110D02*
D03*
X12165D02*
D03*
X12240D02*
D03*
X13580Y12157D02*
D03*
X13505D02*
D03*
X9515Y11332D02*
D03*
X9590D02*
D03*
X9645D02*
D03*
X9720D02*
D03*
X11060Y12157D02*
D03*
X10985D02*
D03*
X6995Y11332D02*
D03*
X7070D02*
D03*
X7125D02*
D03*
X7200D02*
D03*
X8540Y12157D02*
D03*
X8465D02*
D03*
X12035Y9167D02*
D03*
X12110D02*
D03*
X12165D02*
D03*
X12240D02*
D03*
X13580Y9992D02*
D03*
X13505D02*
D03*
X9515Y9167D02*
D03*
X9590D02*
D03*
X9645D02*
D03*
X9720D02*
D03*
X11060Y9992D02*
D03*
X10985D02*
D03*
X6995Y9167D02*
D03*
X7070D02*
D03*
X7125D02*
D03*
X7200D02*
D03*
X8540Y9992D02*
D03*
X8465D02*
D03*
X12035Y7002D02*
D03*
X12110D02*
D03*
X12165D02*
D03*
X12240D02*
D03*
X13580Y7827D02*
D03*
X13505D02*
D03*
X9515Y7002D02*
D03*
X9590D02*
D03*
X9645D02*
D03*
X9720D02*
D03*
X11060Y7827D02*
D03*
X10985D02*
D03*
X6995Y7002D02*
D03*
X7070D02*
D03*
X7125D02*
D03*
X7200D02*
D03*
X8540Y7827D02*
D03*
X8465D02*
D03*
X12035Y4837D02*
D03*
X12110D02*
D03*
X12165D02*
D03*
X12240D02*
D03*
X13580Y5662D02*
D03*
X13505D02*
D03*
X9515Y4837D02*
D03*
X9590D02*
D03*
X9645D02*
D03*
X9720D02*
D03*
X11060Y5662D02*
D03*
X10985D02*
D03*
X6995Y4837D02*
D03*
X7070D02*
D03*
X7125D02*
D03*
X7200D02*
D03*
X8540Y5662D02*
D03*
X8465D02*
D03*
X12035Y2672D02*
D03*
X12110D02*
D03*
X12165D02*
D03*
X12240D02*
D03*
X13580Y3497D02*
D03*
X13505D02*
D03*
X9515Y2672D02*
D03*
X9590D02*
D03*
X9645D02*
D03*
X9720D02*
D03*
X11060Y3497D02*
D03*
X10985D02*
D03*
X7070Y2672D02*
D03*
X6995D02*
D03*
X7200D02*
D03*
X7125D02*
D03*
X8465Y3497D02*
D03*
X8540D02*
D03*
D62*
X12945Y12087D02*
D03*
X13005D02*
D03*
X11615Y11792D02*
D03*
X11555D02*
D03*
X11520Y11642D02*
D03*
X11580D02*
D03*
X11500Y11857D02*
D03*
X11440D02*
D03*
X12515Y11692D02*
D03*
X12455D02*
D03*
X11235Y11567D02*
D03*
X11295D02*
D03*
X11500Y11922D02*
D03*
X11440D02*
D03*
X11230Y11347D02*
D03*
X11290D02*
D03*
X11235Y11632D02*
D03*
X11295D02*
D03*
X13315Y12177D02*
D03*
X13255D02*
D03*
X13005Y12027D02*
D03*
X12945D02*
D03*
X12645Y11712D02*
D03*
X12585D02*
D03*
X11500Y11727D02*
D03*
X11440D02*
D03*
X11500Y11792D02*
D03*
X11440D02*
D03*
X11295Y11917D02*
D03*
X11235D02*
D03*
X12010Y11847D02*
D03*
X11950D02*
D03*
X12230Y11482D02*
D03*
X12170D02*
D03*
Y11417D02*
D03*
X12230D02*
D03*
X12610Y11827D02*
D03*
X12670D02*
D03*
X12430Y11332D02*
D03*
X12490D02*
D03*
X12375D02*
D03*
X12315D02*
D03*
X12585Y11647D02*
D03*
X12645D02*
D03*
X12010Y11782D02*
D03*
X11950D02*
D03*
X12810Y11567D02*
D03*
X12750D02*
D03*
X13430Y12942D02*
D03*
X13490D02*
D03*
X12455Y11627D02*
D03*
X12515D02*
D03*
X12340D02*
D03*
X12400D02*
D03*
X12845Y11777D02*
D03*
X12785D02*
D03*
X11750Y11872D02*
D03*
X11810D02*
D03*
X10425Y12087D02*
D03*
X10485D02*
D03*
X9095Y11792D02*
D03*
X9035D02*
D03*
X9000Y11642D02*
D03*
X9060D02*
D03*
X8980Y11857D02*
D03*
X8920D02*
D03*
X9995Y11692D02*
D03*
X9935D02*
D03*
X8715Y11567D02*
D03*
X8775D02*
D03*
X8980Y11922D02*
D03*
X8920D02*
D03*
X8710Y11347D02*
D03*
X8770D02*
D03*
X8715Y11632D02*
D03*
X8775D02*
D03*
X10795Y12177D02*
D03*
X10735D02*
D03*
X10485Y12027D02*
D03*
X10425D02*
D03*
X10125Y11712D02*
D03*
X10065D02*
D03*
X8980Y11727D02*
D03*
X8920D02*
D03*
X8980Y11792D02*
D03*
X8920D02*
D03*
X8775Y11917D02*
D03*
X8715D02*
D03*
X9490Y11847D02*
D03*
X9430D02*
D03*
X9710Y11482D02*
D03*
X9650D02*
D03*
Y11417D02*
D03*
X9710D02*
D03*
X10090Y11827D02*
D03*
X10150D02*
D03*
X9910Y11332D02*
D03*
X9970D02*
D03*
X9855D02*
D03*
X9795D02*
D03*
X10065Y11647D02*
D03*
X10125D02*
D03*
X9490Y11782D02*
D03*
X9430D02*
D03*
X10290Y11567D02*
D03*
X10230D02*
D03*
X10910Y12942D02*
D03*
X10970D02*
D03*
X9935Y11627D02*
D03*
X9995D02*
D03*
X9820D02*
D03*
X9880D02*
D03*
X10325Y11777D02*
D03*
X10265D02*
D03*
X9230Y11872D02*
D03*
X9290D02*
D03*
X7905Y12087D02*
D03*
X7965D02*
D03*
X6575Y11792D02*
D03*
X6515D02*
D03*
X6480Y11642D02*
D03*
X6540D02*
D03*
X6460Y11857D02*
D03*
X6400D02*
D03*
X7475Y11692D02*
D03*
X7415D02*
D03*
X6195Y11567D02*
D03*
X6255D02*
D03*
X6460Y11922D02*
D03*
X6400D02*
D03*
X6190Y11347D02*
D03*
X6250D02*
D03*
X6195Y11632D02*
D03*
X6255D02*
D03*
X8275Y12177D02*
D03*
X8215D02*
D03*
X7965Y12027D02*
D03*
X7905D02*
D03*
X7605Y11712D02*
D03*
X7545D02*
D03*
X6460Y11727D02*
D03*
X6400D02*
D03*
X6460Y11792D02*
D03*
X6400D02*
D03*
X6255Y11917D02*
D03*
X6195D02*
D03*
X6970Y11847D02*
D03*
X6910D02*
D03*
X7190Y11482D02*
D03*
X7130D02*
D03*
Y11417D02*
D03*
X7190D02*
D03*
X7570Y11827D02*
D03*
X7630D02*
D03*
X7390Y11332D02*
D03*
X7450D02*
D03*
X7335D02*
D03*
X7275D02*
D03*
X7545Y11647D02*
D03*
X7605D02*
D03*
X6970Y11782D02*
D03*
X6910D02*
D03*
X7770Y11567D02*
D03*
X7710D02*
D03*
X8390Y12942D02*
D03*
X8450D02*
D03*
X7415Y11627D02*
D03*
X7475D02*
D03*
X7300D02*
D03*
X7360D02*
D03*
X7805Y11777D02*
D03*
X7745D02*
D03*
X6710Y11872D02*
D03*
X6770D02*
D03*
X12945Y9922D02*
D03*
X13005D02*
D03*
X11615Y9627D02*
D03*
X11555D02*
D03*
X11520Y9477D02*
D03*
X11580D02*
D03*
X11500Y9692D02*
D03*
X11440D02*
D03*
X12515Y9527D02*
D03*
X12455D02*
D03*
X11235Y9402D02*
D03*
X11295D02*
D03*
X11500Y9757D02*
D03*
X11440D02*
D03*
X11230Y9182D02*
D03*
X11290D02*
D03*
X11235Y9467D02*
D03*
X11295D02*
D03*
X13315Y10012D02*
D03*
X13255D02*
D03*
X13005Y9862D02*
D03*
X12945D02*
D03*
X12645Y9547D02*
D03*
X12585D02*
D03*
X11500Y9562D02*
D03*
X11440D02*
D03*
X11500Y9627D02*
D03*
X11440D02*
D03*
X11295Y9752D02*
D03*
X11235D02*
D03*
X12010Y9682D02*
D03*
X11950D02*
D03*
X12230Y9317D02*
D03*
X12170D02*
D03*
Y9252D02*
D03*
X12230D02*
D03*
X12610Y9662D02*
D03*
X12670D02*
D03*
X12430Y9167D02*
D03*
X12490D02*
D03*
X12375D02*
D03*
X12315D02*
D03*
X12585Y9482D02*
D03*
X12645D02*
D03*
X12010Y9617D02*
D03*
X11950D02*
D03*
X12810Y9402D02*
D03*
X12750D02*
D03*
X13430Y10777D02*
D03*
X13490D02*
D03*
X12455Y9462D02*
D03*
X12515D02*
D03*
X12340D02*
D03*
X12400D02*
D03*
X12845Y9612D02*
D03*
X12785D02*
D03*
X11750Y9707D02*
D03*
X11810D02*
D03*
X10425Y9922D02*
D03*
X10485D02*
D03*
X9095Y9627D02*
D03*
X9035D02*
D03*
X9000Y9477D02*
D03*
X9060D02*
D03*
X8980Y9692D02*
D03*
X8920D02*
D03*
X9995Y9527D02*
D03*
X9935D02*
D03*
X8715Y9402D02*
D03*
X8775D02*
D03*
X8980Y9757D02*
D03*
X8920D02*
D03*
X8710Y9182D02*
D03*
X8770D02*
D03*
X8715Y9467D02*
D03*
X8775D02*
D03*
X10795Y10012D02*
D03*
X10735D02*
D03*
X10485Y9862D02*
D03*
X10425D02*
D03*
X10125Y9547D02*
D03*
X10065D02*
D03*
X8980Y9562D02*
D03*
X8920D02*
D03*
X8980Y9627D02*
D03*
X8920D02*
D03*
X8775Y9752D02*
D03*
X8715D02*
D03*
X9490Y9682D02*
D03*
X9430D02*
D03*
X9710Y9317D02*
D03*
X9650D02*
D03*
Y9252D02*
D03*
X9710D02*
D03*
X10090Y9662D02*
D03*
X10150D02*
D03*
X9910Y9167D02*
D03*
X9970D02*
D03*
X9855D02*
D03*
X9795D02*
D03*
X10065Y9482D02*
D03*
X10125D02*
D03*
X9490Y9617D02*
D03*
X9430D02*
D03*
X10290Y9402D02*
D03*
X10230D02*
D03*
X10910Y10777D02*
D03*
X10970D02*
D03*
X9935Y9462D02*
D03*
X9995D02*
D03*
X9820D02*
D03*
X9880D02*
D03*
X10325Y9612D02*
D03*
X10265D02*
D03*
X9230Y9707D02*
D03*
X9290D02*
D03*
X7905Y9922D02*
D03*
X7965D02*
D03*
X6575Y9627D02*
D03*
X6515D02*
D03*
X6480Y9477D02*
D03*
X6540D02*
D03*
X6460Y9692D02*
D03*
X6400D02*
D03*
X7475Y9527D02*
D03*
X7415D02*
D03*
X6195Y9402D02*
D03*
X6255D02*
D03*
X6460Y9757D02*
D03*
X6400D02*
D03*
X6190Y9182D02*
D03*
X6250D02*
D03*
X6195Y9467D02*
D03*
X6255D02*
D03*
X8275Y10012D02*
D03*
X8215D02*
D03*
X7965Y9862D02*
D03*
X7905D02*
D03*
X7605Y9547D02*
D03*
X7545D02*
D03*
X6460Y9562D02*
D03*
X6400D02*
D03*
X6460Y9627D02*
D03*
X6400D02*
D03*
X6255Y9752D02*
D03*
X6195D02*
D03*
X6970Y9682D02*
D03*
X6910D02*
D03*
X7190Y9317D02*
D03*
X7130D02*
D03*
Y9252D02*
D03*
X7190D02*
D03*
X7570Y9662D02*
D03*
X7630D02*
D03*
X7390Y9167D02*
D03*
X7450D02*
D03*
X7335D02*
D03*
X7275D02*
D03*
X7545Y9482D02*
D03*
X7605D02*
D03*
X6970Y9617D02*
D03*
X6910D02*
D03*
X7770Y9402D02*
D03*
X7710D02*
D03*
X8390Y10777D02*
D03*
X8450D02*
D03*
X7415Y9462D02*
D03*
X7475D02*
D03*
X7300D02*
D03*
X7360D02*
D03*
X7805Y9612D02*
D03*
X7745D02*
D03*
X6710Y9707D02*
D03*
X6770D02*
D03*
X12945Y7757D02*
D03*
X13005D02*
D03*
X11615Y7462D02*
D03*
X11555D02*
D03*
X11520Y7312D02*
D03*
X11580D02*
D03*
X11500Y7527D02*
D03*
X11440D02*
D03*
X12515Y7362D02*
D03*
X12455D02*
D03*
X11235Y7237D02*
D03*
X11295D02*
D03*
X11500Y7592D02*
D03*
X11440D02*
D03*
X11230Y7017D02*
D03*
X11290D02*
D03*
X11235Y7302D02*
D03*
X11295D02*
D03*
X13315Y7847D02*
D03*
X13255D02*
D03*
X13005Y7697D02*
D03*
X12945D02*
D03*
X12645Y7382D02*
D03*
X12585D02*
D03*
X11500Y7397D02*
D03*
X11440D02*
D03*
X11500Y7462D02*
D03*
X11440D02*
D03*
X11295Y7587D02*
D03*
X11235D02*
D03*
X12010Y7517D02*
D03*
X11950D02*
D03*
X12230Y7152D02*
D03*
X12170D02*
D03*
Y7087D02*
D03*
X12230D02*
D03*
X12610Y7497D02*
D03*
X12670D02*
D03*
X12430Y7002D02*
D03*
X12490D02*
D03*
X12375D02*
D03*
X12315D02*
D03*
X12585Y7317D02*
D03*
X12645D02*
D03*
X12010Y7452D02*
D03*
X11950D02*
D03*
X12810Y7237D02*
D03*
X12750D02*
D03*
X13430Y8612D02*
D03*
X13490D02*
D03*
X12455Y7297D02*
D03*
X12515D02*
D03*
X12340D02*
D03*
X12400D02*
D03*
X12845Y7447D02*
D03*
X12785D02*
D03*
X11750Y7542D02*
D03*
X11810D02*
D03*
X10425Y7757D02*
D03*
X10485D02*
D03*
X9095Y7462D02*
D03*
X9035D02*
D03*
X9000Y7312D02*
D03*
X9060D02*
D03*
X8980Y7527D02*
D03*
X8920D02*
D03*
X9995Y7362D02*
D03*
X9935D02*
D03*
X8715Y7237D02*
D03*
X8775D02*
D03*
X8980Y7592D02*
D03*
X8920D02*
D03*
X8710Y7017D02*
D03*
X8770D02*
D03*
X8715Y7302D02*
D03*
X8775D02*
D03*
X10795Y7847D02*
D03*
X10735D02*
D03*
X10485Y7697D02*
D03*
X10425D02*
D03*
X10125Y7382D02*
D03*
X10065D02*
D03*
X8980Y7397D02*
D03*
X8920D02*
D03*
X8980Y7462D02*
D03*
X8920D02*
D03*
X8775Y7587D02*
D03*
X8715D02*
D03*
X9490Y7517D02*
D03*
X9430D02*
D03*
X9710Y7152D02*
D03*
X9650D02*
D03*
Y7087D02*
D03*
X9710D02*
D03*
X10090Y7497D02*
D03*
X10150D02*
D03*
X9910Y7002D02*
D03*
X9970D02*
D03*
X9855D02*
D03*
X9795D02*
D03*
X10065Y7317D02*
D03*
X10125D02*
D03*
X9490Y7452D02*
D03*
X9430D02*
D03*
X10290Y7237D02*
D03*
X10230D02*
D03*
X10910Y8612D02*
D03*
X10970D02*
D03*
X9935Y7297D02*
D03*
X9995D02*
D03*
X9820D02*
D03*
X9880D02*
D03*
X10325Y7447D02*
D03*
X10265D02*
D03*
X9230Y7542D02*
D03*
X9290D02*
D03*
X7905Y7757D02*
D03*
X7965D02*
D03*
X6575Y7462D02*
D03*
X6515D02*
D03*
X6480Y7312D02*
D03*
X6540D02*
D03*
X6460Y7527D02*
D03*
X6400D02*
D03*
X7475Y7362D02*
D03*
X7415D02*
D03*
X6195Y7237D02*
D03*
X6255D02*
D03*
X6460Y7592D02*
D03*
X6400D02*
D03*
X6190Y7017D02*
D03*
X6250D02*
D03*
X6195Y7302D02*
D03*
X6255D02*
D03*
X8275Y7847D02*
D03*
X8215D02*
D03*
X7965Y7697D02*
D03*
X7905D02*
D03*
X7605Y7382D02*
D03*
X7545D02*
D03*
X6460Y7397D02*
D03*
X6400D02*
D03*
X6460Y7462D02*
D03*
X6400D02*
D03*
X6255Y7587D02*
D03*
X6195D02*
D03*
X6970Y7517D02*
D03*
X6910D02*
D03*
X7190Y7152D02*
D03*
X7130D02*
D03*
Y7087D02*
D03*
X7190D02*
D03*
X7570Y7497D02*
D03*
X7630D02*
D03*
X7390Y7002D02*
D03*
X7450D02*
D03*
X7335D02*
D03*
X7275D02*
D03*
X7545Y7317D02*
D03*
X7605D02*
D03*
X6970Y7452D02*
D03*
X6910D02*
D03*
X7770Y7237D02*
D03*
X7710D02*
D03*
X8390Y8612D02*
D03*
X8450D02*
D03*
X7415Y7297D02*
D03*
X7475D02*
D03*
X7300D02*
D03*
X7360D02*
D03*
X7805Y7447D02*
D03*
X7745D02*
D03*
X6710Y7542D02*
D03*
X6770D02*
D03*
X12945Y5592D02*
D03*
X13005D02*
D03*
X11615Y5297D02*
D03*
X11555D02*
D03*
X11520Y5147D02*
D03*
X11580D02*
D03*
X11500Y5362D02*
D03*
X11440D02*
D03*
X12515Y5197D02*
D03*
X12455D02*
D03*
X11235Y5072D02*
D03*
X11295D02*
D03*
X11500Y5427D02*
D03*
X11440D02*
D03*
X11230Y4852D02*
D03*
X11290D02*
D03*
X11235Y5137D02*
D03*
X11295D02*
D03*
X13315Y5682D02*
D03*
X13255D02*
D03*
X13005Y5532D02*
D03*
X12945D02*
D03*
X12645Y5217D02*
D03*
X12585D02*
D03*
X11500Y5232D02*
D03*
X11440D02*
D03*
X11500Y5297D02*
D03*
X11440D02*
D03*
X11295Y5422D02*
D03*
X11235D02*
D03*
X12010Y5352D02*
D03*
X11950D02*
D03*
X12230Y4987D02*
D03*
X12170D02*
D03*
Y4922D02*
D03*
X12230D02*
D03*
X12610Y5332D02*
D03*
X12670D02*
D03*
X12430Y4837D02*
D03*
X12490D02*
D03*
X12375D02*
D03*
X12315D02*
D03*
X12585Y5152D02*
D03*
X12645D02*
D03*
X12010Y5287D02*
D03*
X11950D02*
D03*
X12810Y5072D02*
D03*
X12750D02*
D03*
X13430Y6447D02*
D03*
X13490D02*
D03*
X12455Y5132D02*
D03*
X12515D02*
D03*
X12340D02*
D03*
X12400D02*
D03*
X12845Y5282D02*
D03*
X12785D02*
D03*
X11750Y5377D02*
D03*
X11810D02*
D03*
X10425Y5592D02*
D03*
X10485D02*
D03*
X9095Y5297D02*
D03*
X9035D02*
D03*
X9000Y5147D02*
D03*
X9060D02*
D03*
X8980Y5362D02*
D03*
X8920D02*
D03*
X9995Y5197D02*
D03*
X9935D02*
D03*
X8715Y5072D02*
D03*
X8775D02*
D03*
X8980Y5427D02*
D03*
X8920D02*
D03*
X8710Y4852D02*
D03*
X8770D02*
D03*
X8715Y5137D02*
D03*
X8775D02*
D03*
X10795Y5682D02*
D03*
X10735D02*
D03*
X10485Y5532D02*
D03*
X10425D02*
D03*
X10125Y5217D02*
D03*
X10065D02*
D03*
X8980Y5232D02*
D03*
X8920D02*
D03*
X8980Y5297D02*
D03*
X8920D02*
D03*
X8775Y5422D02*
D03*
X8715D02*
D03*
X9490Y5352D02*
D03*
X9430D02*
D03*
X9710Y4987D02*
D03*
X9650D02*
D03*
Y4922D02*
D03*
X9710D02*
D03*
X10090Y5332D02*
D03*
X10150D02*
D03*
X9910Y4837D02*
D03*
X9970D02*
D03*
X9855D02*
D03*
X9795D02*
D03*
X10065Y5152D02*
D03*
X10125D02*
D03*
X9490Y5287D02*
D03*
X9430D02*
D03*
X10290Y5072D02*
D03*
X10230D02*
D03*
X10910Y6447D02*
D03*
X10970D02*
D03*
X9935Y5132D02*
D03*
X9995D02*
D03*
X9820D02*
D03*
X9880D02*
D03*
X10325Y5282D02*
D03*
X10265D02*
D03*
X9230Y5377D02*
D03*
X9290D02*
D03*
X7905Y5592D02*
D03*
X7965D02*
D03*
X6575Y5297D02*
D03*
X6515D02*
D03*
X6480Y5147D02*
D03*
X6540D02*
D03*
X6460Y5362D02*
D03*
X6400D02*
D03*
X7475Y5197D02*
D03*
X7415D02*
D03*
X6195Y5072D02*
D03*
X6255D02*
D03*
X6460Y5427D02*
D03*
X6400D02*
D03*
X6190Y4852D02*
D03*
X6250D02*
D03*
X6195Y5137D02*
D03*
X6255D02*
D03*
X8275Y5682D02*
D03*
X8215D02*
D03*
X7965Y5532D02*
D03*
X7905D02*
D03*
X7605Y5217D02*
D03*
X7545D02*
D03*
X6460Y5232D02*
D03*
X6400D02*
D03*
X6460Y5297D02*
D03*
X6400D02*
D03*
X6255Y5422D02*
D03*
X6195D02*
D03*
X6970Y5352D02*
D03*
X6910D02*
D03*
X7190Y4987D02*
D03*
X7130D02*
D03*
Y4922D02*
D03*
X7190D02*
D03*
X7570Y5332D02*
D03*
X7630D02*
D03*
X7390Y4837D02*
D03*
X7450D02*
D03*
X7335D02*
D03*
X7275D02*
D03*
X7545Y5152D02*
D03*
X7605D02*
D03*
X6970Y5287D02*
D03*
X6910D02*
D03*
X7770Y5072D02*
D03*
X7710D02*
D03*
X8390Y6447D02*
D03*
X8450D02*
D03*
X7415Y5132D02*
D03*
X7475D02*
D03*
X7300D02*
D03*
X7360D02*
D03*
X7805Y5282D02*
D03*
X7745D02*
D03*
X6710Y5377D02*
D03*
X6770D02*
D03*
X12945Y3427D02*
D03*
X13005D02*
D03*
X11615Y3132D02*
D03*
X11555D02*
D03*
X11520Y2982D02*
D03*
X11580D02*
D03*
X11500Y3197D02*
D03*
X11440D02*
D03*
X12515Y3032D02*
D03*
X12455D02*
D03*
X11235Y2907D02*
D03*
X11295D02*
D03*
X11500Y3262D02*
D03*
X11440D02*
D03*
X11230Y2687D02*
D03*
X11290D02*
D03*
X11235Y2972D02*
D03*
X11295D02*
D03*
X13315Y3517D02*
D03*
X13255D02*
D03*
X13005Y3367D02*
D03*
X12945D02*
D03*
X12645Y3052D02*
D03*
X12585D02*
D03*
X11500Y3067D02*
D03*
X11440D02*
D03*
X11500Y3132D02*
D03*
X11440D02*
D03*
X11295Y3257D02*
D03*
X11235D02*
D03*
X12010Y3187D02*
D03*
X11950D02*
D03*
X12230Y2822D02*
D03*
X12170D02*
D03*
Y2757D02*
D03*
X12230D02*
D03*
X12610Y3167D02*
D03*
X12670D02*
D03*
X12430Y2672D02*
D03*
X12490D02*
D03*
X12375D02*
D03*
X12315D02*
D03*
X12585Y2987D02*
D03*
X12645D02*
D03*
X12010Y3122D02*
D03*
X11950D02*
D03*
X12810Y2907D02*
D03*
X12750D02*
D03*
X13430Y4282D02*
D03*
X13490D02*
D03*
X12455Y2967D02*
D03*
X12515D02*
D03*
X12340D02*
D03*
X12400D02*
D03*
X12845Y3117D02*
D03*
X12785D02*
D03*
X11750Y3212D02*
D03*
X11810D02*
D03*
X10425Y3427D02*
D03*
X10485D02*
D03*
X9095Y3132D02*
D03*
X9035D02*
D03*
X9000Y2982D02*
D03*
X9060D02*
D03*
X8980Y3197D02*
D03*
X8920D02*
D03*
X9995Y3032D02*
D03*
X9935D02*
D03*
X8715Y2907D02*
D03*
X8775D02*
D03*
X8980Y3262D02*
D03*
X8920D02*
D03*
X8710Y2687D02*
D03*
X8770D02*
D03*
X8715Y2972D02*
D03*
X8775D02*
D03*
X10795Y3517D02*
D03*
X10735D02*
D03*
X10485Y3367D02*
D03*
X10425D02*
D03*
X10125Y3052D02*
D03*
X10065D02*
D03*
X8980Y3067D02*
D03*
X8920D02*
D03*
X8980Y3132D02*
D03*
X8920D02*
D03*
X8775Y3257D02*
D03*
X8715D02*
D03*
X9490Y3187D02*
D03*
X9430D02*
D03*
X9710Y2822D02*
D03*
X9650D02*
D03*
Y2757D02*
D03*
X9710D02*
D03*
X10090Y3167D02*
D03*
X10150D02*
D03*
X9910Y2672D02*
D03*
X9970D02*
D03*
X9855D02*
D03*
X9795D02*
D03*
X10065Y2987D02*
D03*
X10125D02*
D03*
X9490Y3122D02*
D03*
X9430D02*
D03*
X10290Y2907D02*
D03*
X10230D02*
D03*
X10910Y4282D02*
D03*
X10970D02*
D03*
X9935Y2967D02*
D03*
X9995D02*
D03*
X9820D02*
D03*
X9880D02*
D03*
X10325Y3117D02*
D03*
X10265D02*
D03*
X9230Y3212D02*
D03*
X9290D02*
D03*
X7965Y3427D02*
D03*
X7905D02*
D03*
X6515Y3132D02*
D03*
X6575D02*
D03*
X6540Y2982D02*
D03*
X6480D02*
D03*
X6400Y3197D02*
D03*
X6460D02*
D03*
X7415Y3032D02*
D03*
X7475D02*
D03*
X6255Y2907D02*
D03*
X6195D02*
D03*
X6400Y3262D02*
D03*
X6460D02*
D03*
X6250Y2687D02*
D03*
X6190D02*
D03*
X6255Y2972D02*
D03*
X6195D02*
D03*
X8215Y3517D02*
D03*
X8275D02*
D03*
X7905Y3367D02*
D03*
X7965D02*
D03*
X7545Y3052D02*
D03*
X7605D02*
D03*
X6400Y3067D02*
D03*
X6460D02*
D03*
X6400Y3132D02*
D03*
X6460D02*
D03*
X6195Y3257D02*
D03*
X6255D02*
D03*
X6910Y3187D02*
D03*
X6970D02*
D03*
X7130Y2822D02*
D03*
X7190D02*
D03*
Y2757D02*
D03*
X7130D02*
D03*
X7630Y3167D02*
D03*
X7570D02*
D03*
X7450Y2672D02*
D03*
X7390D02*
D03*
X7275D02*
D03*
X7335D02*
D03*
X7605Y2987D02*
D03*
X7545D02*
D03*
X6910Y3122D02*
D03*
X6970D02*
D03*
X7710Y2907D02*
D03*
X7770D02*
D03*
X8450Y4282D02*
D03*
X8390D02*
D03*
X7475Y2967D02*
D03*
X7415D02*
D03*
X7360D02*
D03*
X7300D02*
D03*
X7745Y3117D02*
D03*
X7805D02*
D03*
X6770Y3212D02*
D03*
X6710D02*
D03*
D65*
X11890Y12177D02*
D03*
X11815D02*
D03*
X11750Y12032D02*
D03*
Y11957D02*
D03*
X12035Y11402D02*
D03*
X12110D02*
D03*
X12710Y11722D02*
D03*
X12785D02*
D03*
X9370Y12177D02*
D03*
X9295D02*
D03*
X9230Y12032D02*
D03*
Y11957D02*
D03*
X9515Y11402D02*
D03*
X9590D02*
D03*
X10190Y11722D02*
D03*
X10265D02*
D03*
X6850Y12177D02*
D03*
X6775D02*
D03*
X6710Y12032D02*
D03*
Y11957D02*
D03*
X6995Y11402D02*
D03*
X7070D02*
D03*
X7670Y11722D02*
D03*
X7745D02*
D03*
X11890Y10012D02*
D03*
X11815D02*
D03*
X11750Y9867D02*
D03*
Y9792D02*
D03*
X12035Y9237D02*
D03*
X12110D02*
D03*
X12710Y9557D02*
D03*
X12785D02*
D03*
X9370Y10012D02*
D03*
X9295D02*
D03*
X9230Y9867D02*
D03*
Y9792D02*
D03*
X9515Y9237D02*
D03*
X9590D02*
D03*
X10190Y9557D02*
D03*
X10265D02*
D03*
X6850Y10012D02*
D03*
X6775D02*
D03*
X6710Y9867D02*
D03*
Y9792D02*
D03*
X6995Y9237D02*
D03*
X7070D02*
D03*
X7670Y9557D02*
D03*
X7745D02*
D03*
X11890Y7847D02*
D03*
X11815D02*
D03*
X11750Y7702D02*
D03*
Y7627D02*
D03*
X12035Y7072D02*
D03*
X12110D02*
D03*
X12710Y7392D02*
D03*
X12785D02*
D03*
X9370Y7847D02*
D03*
X9295D02*
D03*
X9230Y7702D02*
D03*
Y7627D02*
D03*
X9515Y7072D02*
D03*
X9590D02*
D03*
X10190Y7392D02*
D03*
X10265D02*
D03*
X6850Y7847D02*
D03*
X6775D02*
D03*
X6710Y7702D02*
D03*
Y7627D02*
D03*
X6995Y7072D02*
D03*
X7070D02*
D03*
X7670Y7392D02*
D03*
X7745D02*
D03*
X11890Y5682D02*
D03*
X11815D02*
D03*
X11750Y5537D02*
D03*
Y5462D02*
D03*
X12035Y4907D02*
D03*
X12110D02*
D03*
X12710Y5227D02*
D03*
X12785D02*
D03*
X9370Y5682D02*
D03*
X9295D02*
D03*
X9230Y5537D02*
D03*
Y5462D02*
D03*
X9515Y4907D02*
D03*
X9590D02*
D03*
X10190Y5227D02*
D03*
X10265D02*
D03*
X6850Y5682D02*
D03*
X6775D02*
D03*
X6710Y5537D02*
D03*
Y5462D02*
D03*
X6995Y4907D02*
D03*
X7070D02*
D03*
X7670Y5227D02*
D03*
X7745D02*
D03*
X11890Y3517D02*
D03*
X11815D02*
D03*
X11750Y3372D02*
D03*
Y3297D02*
D03*
X12035Y2742D02*
D03*
X12110D02*
D03*
X12710Y3062D02*
D03*
X12785D02*
D03*
X9370Y3517D02*
D03*
X9295D02*
D03*
X9230Y3372D02*
D03*
Y3297D02*
D03*
X9515Y2742D02*
D03*
X9590D02*
D03*
X10190Y3062D02*
D03*
X10265D02*
D03*
X6775Y3517D02*
D03*
X6850D02*
D03*
X6710Y3297D02*
D03*
Y3372D02*
D03*
X7070Y2742D02*
D03*
X6995D02*
D03*
X7745Y3062D02*
D03*
X7670D02*
D03*
D66*
X11852Y12097D02*
D03*
X12073Y11482D02*
D03*
X12747Y11642D02*
D03*
X9332Y12097D02*
D03*
X9553Y11482D02*
D03*
X10227Y11642D02*
D03*
X6812Y12097D02*
D03*
X7033Y11482D02*
D03*
X7707Y11642D02*
D03*
X11852Y9932D02*
D03*
X12073Y9317D02*
D03*
X12747Y9477D02*
D03*
X9332Y9932D02*
D03*
X9553Y9317D02*
D03*
X10227Y9477D02*
D03*
X6812Y9932D02*
D03*
X7033Y9317D02*
D03*
X7707Y9477D02*
D03*
X11852Y7767D02*
D03*
X12073Y7152D02*
D03*
X12747Y7312D02*
D03*
X9332Y7767D02*
D03*
X9553Y7152D02*
D03*
X10227Y7312D02*
D03*
X6812Y7767D02*
D03*
X7033Y7152D02*
D03*
X7707Y7312D02*
D03*
X11852Y5602D02*
D03*
X12073Y4987D02*
D03*
X12747Y5147D02*
D03*
X9332Y5602D02*
D03*
X9553Y4987D02*
D03*
X10227Y5147D02*
D03*
X6812Y5602D02*
D03*
X7033Y4987D02*
D03*
X7707Y5147D02*
D03*
X11852Y3437D02*
D03*
X12073Y2822D02*
D03*
X12747Y2982D02*
D03*
X9332Y3437D02*
D03*
X9553Y2822D02*
D03*
X10227Y2982D02*
D03*
X6812Y3437D02*
D03*
X7033Y2822D02*
D03*
X7707Y2982D02*
D03*
D67*
X11665Y11917D02*
D03*
Y11857D02*
D03*
X11460Y11437D02*
D03*
Y11497D02*
D03*
Y11322D02*
D03*
Y11382D02*
D03*
X11355Y11632D02*
D03*
Y11572D02*
D03*
X11755Y12157D02*
D03*
Y12097D02*
D03*
X11575Y11387D02*
D03*
Y11447D02*
D03*
X11765Y11387D02*
D03*
Y11327D02*
D03*
X11895Y11532D02*
D03*
Y11592D02*
D03*
X11690Y12157D02*
D03*
Y12097D02*
D03*
X11830Y11592D02*
D03*
Y11532D02*
D03*
X11690Y12032D02*
D03*
Y11972D02*
D03*
X12605Y11497D02*
D03*
Y11437D02*
D03*
X11890Y11872D02*
D03*
Y11932D02*
D03*
Y11987D02*
D03*
Y12047D02*
D03*
X12670Y11497D02*
D03*
Y11437D02*
D03*
X11595Y12097D02*
D03*
Y12157D02*
D03*
X11965Y11592D02*
D03*
Y11532D02*
D03*
X11530Y12157D02*
D03*
Y12097D02*
D03*
X11465D02*
D03*
Y12157D02*
D03*
X9145Y11917D02*
D03*
Y11857D02*
D03*
X8940Y11437D02*
D03*
Y11497D02*
D03*
Y11322D02*
D03*
Y11382D02*
D03*
X8835Y11632D02*
D03*
Y11572D02*
D03*
X9235Y12157D02*
D03*
Y12097D02*
D03*
X9055Y11387D02*
D03*
Y11447D02*
D03*
X9245Y11387D02*
D03*
Y11327D02*
D03*
X9375Y11532D02*
D03*
Y11592D02*
D03*
X9170Y12157D02*
D03*
Y12097D02*
D03*
X9310Y11592D02*
D03*
Y11532D02*
D03*
X9170Y12032D02*
D03*
Y11972D02*
D03*
X10085Y11497D02*
D03*
Y11437D02*
D03*
X9370Y11872D02*
D03*
Y11932D02*
D03*
Y11987D02*
D03*
Y12047D02*
D03*
X10150Y11497D02*
D03*
Y11437D02*
D03*
X9075Y12097D02*
D03*
Y12157D02*
D03*
X9445Y11592D02*
D03*
Y11532D02*
D03*
X9010Y12157D02*
D03*
Y12097D02*
D03*
X8945D02*
D03*
Y12157D02*
D03*
X6625Y11917D02*
D03*
Y11857D02*
D03*
X6420Y11437D02*
D03*
Y11497D02*
D03*
Y11322D02*
D03*
Y11382D02*
D03*
X6315Y11632D02*
D03*
Y11572D02*
D03*
X6715Y12157D02*
D03*
Y12097D02*
D03*
X6535Y11387D02*
D03*
Y11447D02*
D03*
X6725Y11387D02*
D03*
Y11327D02*
D03*
X6855Y11532D02*
D03*
Y11592D02*
D03*
X6650Y12157D02*
D03*
Y12097D02*
D03*
X6790Y11592D02*
D03*
Y11532D02*
D03*
X6650Y12032D02*
D03*
Y11972D02*
D03*
X7565Y11497D02*
D03*
Y11437D02*
D03*
X6850Y11872D02*
D03*
Y11932D02*
D03*
Y11987D02*
D03*
Y12047D02*
D03*
X7630Y11497D02*
D03*
Y11437D02*
D03*
X6555Y12097D02*
D03*
Y12157D02*
D03*
X6925Y11592D02*
D03*
Y11532D02*
D03*
X6490Y12157D02*
D03*
Y12097D02*
D03*
X6425D02*
D03*
Y12157D02*
D03*
X11665Y9752D02*
D03*
Y9692D02*
D03*
X11460Y9272D02*
D03*
Y9332D02*
D03*
Y9157D02*
D03*
Y9217D02*
D03*
X11355Y9467D02*
D03*
Y9407D02*
D03*
X11755Y9992D02*
D03*
Y9932D02*
D03*
X11575Y9222D02*
D03*
Y9282D02*
D03*
X11765Y9222D02*
D03*
Y9162D02*
D03*
X11895Y9367D02*
D03*
Y9427D02*
D03*
X11690Y9992D02*
D03*
Y9932D02*
D03*
X11830Y9427D02*
D03*
Y9367D02*
D03*
X11690Y9867D02*
D03*
Y9807D02*
D03*
X12605Y9332D02*
D03*
Y9272D02*
D03*
X11890Y9707D02*
D03*
Y9767D02*
D03*
Y9822D02*
D03*
Y9882D02*
D03*
X12670Y9332D02*
D03*
Y9272D02*
D03*
X11595Y9932D02*
D03*
Y9992D02*
D03*
X11965Y9427D02*
D03*
Y9367D02*
D03*
X11530Y9992D02*
D03*
Y9932D02*
D03*
X11465D02*
D03*
Y9992D02*
D03*
X9145Y9752D02*
D03*
Y9692D02*
D03*
X8940Y9272D02*
D03*
Y9332D02*
D03*
Y9157D02*
D03*
Y9217D02*
D03*
X8835Y9467D02*
D03*
Y9407D02*
D03*
X9235Y9992D02*
D03*
Y9932D02*
D03*
X9055Y9222D02*
D03*
Y9282D02*
D03*
X9245Y9222D02*
D03*
Y9162D02*
D03*
X9375Y9367D02*
D03*
Y9427D02*
D03*
X9170Y9992D02*
D03*
Y9932D02*
D03*
X9310Y9427D02*
D03*
Y9367D02*
D03*
X9170Y9867D02*
D03*
Y9807D02*
D03*
X10085Y9332D02*
D03*
Y9272D02*
D03*
X9370Y9707D02*
D03*
Y9767D02*
D03*
Y9822D02*
D03*
Y9882D02*
D03*
X10150Y9332D02*
D03*
Y9272D02*
D03*
X9075Y9932D02*
D03*
Y9992D02*
D03*
X9445Y9427D02*
D03*
Y9367D02*
D03*
X9010Y9992D02*
D03*
Y9932D02*
D03*
X8945D02*
D03*
Y9992D02*
D03*
X6625Y9752D02*
D03*
Y9692D02*
D03*
X6420Y9272D02*
D03*
Y9332D02*
D03*
Y9157D02*
D03*
Y9217D02*
D03*
X6315Y9467D02*
D03*
Y9407D02*
D03*
X6715Y9992D02*
D03*
Y9932D02*
D03*
X6535Y9222D02*
D03*
Y9282D02*
D03*
X6725Y9222D02*
D03*
Y9162D02*
D03*
X6855Y9367D02*
D03*
Y9427D02*
D03*
X6650Y9992D02*
D03*
Y9932D02*
D03*
X6790Y9427D02*
D03*
Y9367D02*
D03*
X6650Y9867D02*
D03*
Y9807D02*
D03*
X7565Y9332D02*
D03*
Y9272D02*
D03*
X6850Y9707D02*
D03*
Y9767D02*
D03*
Y9822D02*
D03*
Y9882D02*
D03*
X7630Y9332D02*
D03*
Y9272D02*
D03*
X6555Y9932D02*
D03*
Y9992D02*
D03*
X6925Y9427D02*
D03*
Y9367D02*
D03*
X6490Y9992D02*
D03*
Y9932D02*
D03*
X6425D02*
D03*
Y9992D02*
D03*
X11665Y7587D02*
D03*
Y7527D02*
D03*
X11460Y7107D02*
D03*
Y7167D02*
D03*
Y6992D02*
D03*
Y7052D02*
D03*
X11355Y7302D02*
D03*
Y7242D02*
D03*
X11755Y7827D02*
D03*
Y7767D02*
D03*
X11575Y7057D02*
D03*
Y7117D02*
D03*
X11765Y7057D02*
D03*
Y6997D02*
D03*
X11895Y7202D02*
D03*
Y7262D02*
D03*
X11690Y7827D02*
D03*
Y7767D02*
D03*
X11830Y7262D02*
D03*
Y7202D02*
D03*
X11690Y7702D02*
D03*
Y7642D02*
D03*
X12605Y7167D02*
D03*
Y7107D02*
D03*
X11890Y7542D02*
D03*
Y7602D02*
D03*
Y7657D02*
D03*
Y7717D02*
D03*
X12670Y7167D02*
D03*
Y7107D02*
D03*
X11595Y7767D02*
D03*
Y7827D02*
D03*
X11965Y7262D02*
D03*
Y7202D02*
D03*
X11530Y7827D02*
D03*
Y7767D02*
D03*
X11465D02*
D03*
Y7827D02*
D03*
X9145Y7587D02*
D03*
Y7527D02*
D03*
X8940Y7107D02*
D03*
Y7167D02*
D03*
Y6992D02*
D03*
Y7052D02*
D03*
X8835Y7302D02*
D03*
Y7242D02*
D03*
X9235Y7827D02*
D03*
Y7767D02*
D03*
X9055Y7057D02*
D03*
Y7117D02*
D03*
X9245Y7057D02*
D03*
Y6997D02*
D03*
X9375Y7202D02*
D03*
Y7262D02*
D03*
X9170Y7827D02*
D03*
Y7767D02*
D03*
X9310Y7262D02*
D03*
Y7202D02*
D03*
X9170Y7702D02*
D03*
Y7642D02*
D03*
X10085Y7167D02*
D03*
Y7107D02*
D03*
X9370Y7542D02*
D03*
Y7602D02*
D03*
Y7657D02*
D03*
Y7717D02*
D03*
X10150Y7167D02*
D03*
Y7107D02*
D03*
X9075Y7767D02*
D03*
Y7827D02*
D03*
X9445Y7262D02*
D03*
Y7202D02*
D03*
X9010Y7827D02*
D03*
Y7767D02*
D03*
X8945D02*
D03*
Y7827D02*
D03*
X6625Y7587D02*
D03*
Y7527D02*
D03*
X6420Y7107D02*
D03*
Y7167D02*
D03*
Y6992D02*
D03*
Y7052D02*
D03*
X6315Y7302D02*
D03*
Y7242D02*
D03*
X6715Y7827D02*
D03*
Y7767D02*
D03*
X6535Y7057D02*
D03*
Y7117D02*
D03*
X6725Y7057D02*
D03*
Y6997D02*
D03*
X6855Y7202D02*
D03*
Y7262D02*
D03*
X6650Y7827D02*
D03*
Y7767D02*
D03*
X6790Y7262D02*
D03*
Y7202D02*
D03*
X6650Y7702D02*
D03*
Y7642D02*
D03*
X7565Y7167D02*
D03*
Y7107D02*
D03*
X6850Y7542D02*
D03*
Y7602D02*
D03*
Y7657D02*
D03*
Y7717D02*
D03*
X7630Y7167D02*
D03*
Y7107D02*
D03*
X6555Y7767D02*
D03*
Y7827D02*
D03*
X6925Y7262D02*
D03*
Y7202D02*
D03*
X6490Y7827D02*
D03*
Y7767D02*
D03*
X6425D02*
D03*
Y7827D02*
D03*
X11665Y5422D02*
D03*
Y5362D02*
D03*
X11460Y4942D02*
D03*
Y5002D02*
D03*
Y4827D02*
D03*
Y4887D02*
D03*
X11355Y5137D02*
D03*
Y5077D02*
D03*
X11755Y5662D02*
D03*
Y5602D02*
D03*
X11575Y4892D02*
D03*
Y4952D02*
D03*
X11765Y4892D02*
D03*
Y4832D02*
D03*
X11895Y5037D02*
D03*
Y5097D02*
D03*
X11690Y5662D02*
D03*
Y5602D02*
D03*
X11830Y5097D02*
D03*
Y5037D02*
D03*
X11690Y5537D02*
D03*
Y5477D02*
D03*
X12605Y5002D02*
D03*
Y4942D02*
D03*
X11890Y5377D02*
D03*
Y5437D02*
D03*
Y5492D02*
D03*
Y5552D02*
D03*
X12670Y5002D02*
D03*
Y4942D02*
D03*
X11595Y5602D02*
D03*
Y5662D02*
D03*
X11965Y5097D02*
D03*
Y5037D02*
D03*
X11530Y5662D02*
D03*
Y5602D02*
D03*
X11465D02*
D03*
Y5662D02*
D03*
X9145Y5422D02*
D03*
Y5362D02*
D03*
X8940Y4942D02*
D03*
Y5002D02*
D03*
Y4827D02*
D03*
Y4887D02*
D03*
X8835Y5137D02*
D03*
Y5077D02*
D03*
X9235Y5662D02*
D03*
Y5602D02*
D03*
X9055Y4892D02*
D03*
Y4952D02*
D03*
X9245Y4892D02*
D03*
Y4832D02*
D03*
X9375Y5037D02*
D03*
Y5097D02*
D03*
X9170Y5662D02*
D03*
Y5602D02*
D03*
X9310Y5097D02*
D03*
Y5037D02*
D03*
X9170Y5537D02*
D03*
Y5477D02*
D03*
X10085Y5002D02*
D03*
Y4942D02*
D03*
X9370Y5377D02*
D03*
Y5437D02*
D03*
Y5492D02*
D03*
Y5552D02*
D03*
X10150Y5002D02*
D03*
Y4942D02*
D03*
X9075Y5602D02*
D03*
Y5662D02*
D03*
X9445Y5097D02*
D03*
Y5037D02*
D03*
X9010Y5662D02*
D03*
Y5602D02*
D03*
X8945D02*
D03*
Y5662D02*
D03*
X6625Y5422D02*
D03*
Y5362D02*
D03*
X6420Y4942D02*
D03*
Y5002D02*
D03*
Y4827D02*
D03*
Y4887D02*
D03*
X6315Y5137D02*
D03*
Y5077D02*
D03*
X6715Y5662D02*
D03*
Y5602D02*
D03*
X6535Y4892D02*
D03*
Y4952D02*
D03*
X6725Y4892D02*
D03*
Y4832D02*
D03*
X6855Y5037D02*
D03*
Y5097D02*
D03*
X6650Y5662D02*
D03*
Y5602D02*
D03*
X6790Y5097D02*
D03*
Y5037D02*
D03*
X6650Y5537D02*
D03*
Y5477D02*
D03*
X7565Y5002D02*
D03*
Y4942D02*
D03*
X6850Y5377D02*
D03*
Y5437D02*
D03*
Y5492D02*
D03*
Y5552D02*
D03*
X7630Y5002D02*
D03*
Y4942D02*
D03*
X6555Y5602D02*
D03*
Y5662D02*
D03*
X6925Y5097D02*
D03*
Y5037D02*
D03*
X6490Y5662D02*
D03*
Y5602D02*
D03*
X6425D02*
D03*
Y5662D02*
D03*
X11665Y3257D02*
D03*
Y3197D02*
D03*
X11460Y2777D02*
D03*
Y2837D02*
D03*
Y2662D02*
D03*
Y2722D02*
D03*
X11355Y2972D02*
D03*
Y2912D02*
D03*
X11755Y3497D02*
D03*
Y3437D02*
D03*
X11575Y2727D02*
D03*
Y2787D02*
D03*
X11765Y2727D02*
D03*
Y2667D02*
D03*
X11895Y2872D02*
D03*
Y2932D02*
D03*
X11690Y3497D02*
D03*
Y3437D02*
D03*
X11830Y2932D02*
D03*
Y2872D02*
D03*
X11690Y3372D02*
D03*
Y3312D02*
D03*
X12605Y2837D02*
D03*
Y2777D02*
D03*
X11890Y3212D02*
D03*
Y3272D02*
D03*
Y3327D02*
D03*
Y3387D02*
D03*
X12670Y2837D02*
D03*
Y2777D02*
D03*
X11595Y3437D02*
D03*
Y3497D02*
D03*
X11965Y2932D02*
D03*
Y2872D02*
D03*
X11530Y3497D02*
D03*
Y3437D02*
D03*
X11465D02*
D03*
Y3497D02*
D03*
X9145Y3257D02*
D03*
Y3197D02*
D03*
X8940Y2777D02*
D03*
Y2837D02*
D03*
Y2662D02*
D03*
Y2722D02*
D03*
X8835Y2972D02*
D03*
Y2912D02*
D03*
X9235Y3497D02*
D03*
Y3437D02*
D03*
X9055Y2727D02*
D03*
Y2787D02*
D03*
X9245Y2727D02*
D03*
Y2667D02*
D03*
X9375Y2872D02*
D03*
Y2932D02*
D03*
X9170Y3497D02*
D03*
Y3437D02*
D03*
X9310Y2932D02*
D03*
Y2872D02*
D03*
X9170Y3372D02*
D03*
Y3312D02*
D03*
X10085Y2837D02*
D03*
Y2777D02*
D03*
X9370Y3212D02*
D03*
Y3272D02*
D03*
Y3327D02*
D03*
Y3387D02*
D03*
X10150Y2837D02*
D03*
Y2777D02*
D03*
X9075Y3437D02*
D03*
Y3497D02*
D03*
X9445Y2932D02*
D03*
Y2872D02*
D03*
X9010Y3497D02*
D03*
Y3437D02*
D03*
X8945D02*
D03*
Y3497D02*
D03*
X6625Y3197D02*
D03*
Y3257D02*
D03*
X6420Y2837D02*
D03*
Y2777D02*
D03*
Y2722D02*
D03*
Y2662D02*
D03*
X6315Y2912D02*
D03*
Y2972D02*
D03*
X6715Y3437D02*
D03*
Y3497D02*
D03*
X6535Y2787D02*
D03*
Y2727D02*
D03*
X6725Y2667D02*
D03*
Y2727D02*
D03*
X6855Y2932D02*
D03*
Y2872D02*
D03*
X6650Y3437D02*
D03*
Y3497D02*
D03*
X6790Y2872D02*
D03*
Y2932D02*
D03*
X6650Y3312D02*
D03*
Y3372D02*
D03*
X7565Y2777D02*
D03*
Y2837D02*
D03*
X6850Y3272D02*
D03*
Y3212D02*
D03*
Y3387D02*
D03*
Y3327D02*
D03*
X7630Y2777D02*
D03*
Y2837D02*
D03*
X6555Y3497D02*
D03*
Y3437D02*
D03*
X6925Y2872D02*
D03*
Y2932D02*
D03*
X6490Y3437D02*
D03*
Y3497D02*
D03*
X6425D02*
D03*
Y3437D02*
D03*
D71*
X11260Y11467D02*
D03*
X11360D02*
D03*
X8740D02*
D03*
X8840D02*
D03*
X6220D02*
D03*
X6320D02*
D03*
X11260Y9302D02*
D03*
X11360D02*
D03*
X8740D02*
D03*
X8840D02*
D03*
X6220D02*
D03*
X6320D02*
D03*
X11260Y7137D02*
D03*
X11360D02*
D03*
X8740D02*
D03*
X8840D02*
D03*
X6220D02*
D03*
X6320D02*
D03*
X11260Y4972D02*
D03*
X11360D02*
D03*
X8740D02*
D03*
X8840D02*
D03*
X6220D02*
D03*
X6320D02*
D03*
X11260Y2807D02*
D03*
X11360D02*
D03*
X8740D02*
D03*
X8840D02*
D03*
X6320D02*
D03*
X6220D02*
D03*
D72*
X11830Y11994D02*
D03*
X9310D02*
D03*
X6790D02*
D03*
X11830Y9829D02*
D03*
X9310D02*
D03*
X6790D02*
D03*
X11830Y7664D02*
D03*
X9310D02*
D03*
X6790D02*
D03*
X11830Y5499D02*
D03*
X9310D02*
D03*
X6790D02*
D03*
X11830Y3334D02*
D03*
X9310D02*
D03*
X6790D02*
D03*
D73*
X12650Y11312D02*
D03*
Y11387D02*
D03*
X11830Y11652D02*
D03*
Y11727D02*
D03*
X12925Y11877D02*
D03*
Y11802D02*
D03*
X13395Y12182D02*
D03*
Y12107D02*
D03*
X12975Y12437D02*
D03*
Y12512D02*
D03*
X12360Y12442D02*
D03*
Y12517D02*
D03*
X10130Y11312D02*
D03*
Y11387D02*
D03*
X9310Y11652D02*
D03*
Y11727D02*
D03*
X10405Y11877D02*
D03*
Y11802D02*
D03*
X10875Y12182D02*
D03*
Y12107D02*
D03*
X10455Y12437D02*
D03*
Y12512D02*
D03*
X9840Y12442D02*
D03*
Y12517D02*
D03*
X7610Y11312D02*
D03*
Y11387D02*
D03*
X6790Y11652D02*
D03*
Y11727D02*
D03*
X7885Y11877D02*
D03*
Y11802D02*
D03*
X8355Y12182D02*
D03*
Y12107D02*
D03*
X7935Y12437D02*
D03*
Y12512D02*
D03*
X7320Y12442D02*
D03*
Y12517D02*
D03*
X12650Y9147D02*
D03*
Y9222D02*
D03*
X11830Y9487D02*
D03*
Y9562D02*
D03*
X12925Y9712D02*
D03*
Y9637D02*
D03*
X13395Y10017D02*
D03*
Y9942D02*
D03*
X12975Y10272D02*
D03*
Y10347D02*
D03*
X12360Y10277D02*
D03*
Y10352D02*
D03*
X10130Y9147D02*
D03*
Y9222D02*
D03*
X9310Y9487D02*
D03*
Y9562D02*
D03*
X10405Y9712D02*
D03*
Y9637D02*
D03*
X10875Y10017D02*
D03*
Y9942D02*
D03*
X10455Y10272D02*
D03*
Y10347D02*
D03*
X9840Y10277D02*
D03*
Y10352D02*
D03*
X7610Y9147D02*
D03*
Y9222D02*
D03*
X6790Y9487D02*
D03*
Y9562D02*
D03*
X7885Y9712D02*
D03*
Y9637D02*
D03*
X8355Y10017D02*
D03*
Y9942D02*
D03*
X7935Y10272D02*
D03*
Y10347D02*
D03*
X7320Y10277D02*
D03*
Y10352D02*
D03*
X12650Y6982D02*
D03*
Y7057D02*
D03*
X11830Y7322D02*
D03*
Y7397D02*
D03*
X12925Y7547D02*
D03*
Y7472D02*
D03*
X13395Y7852D02*
D03*
Y7777D02*
D03*
X12975Y8107D02*
D03*
Y8182D02*
D03*
X12360Y8112D02*
D03*
Y8187D02*
D03*
X10130Y6982D02*
D03*
Y7057D02*
D03*
X9310Y7322D02*
D03*
Y7397D02*
D03*
X10405Y7547D02*
D03*
Y7472D02*
D03*
X10875Y7852D02*
D03*
Y7777D02*
D03*
X10455Y8107D02*
D03*
Y8182D02*
D03*
X9840Y8112D02*
D03*
Y8187D02*
D03*
X7610Y6982D02*
D03*
Y7057D02*
D03*
X6790Y7322D02*
D03*
Y7397D02*
D03*
X7885Y7547D02*
D03*
Y7472D02*
D03*
X8355Y7852D02*
D03*
Y7777D02*
D03*
X7935Y8107D02*
D03*
Y8182D02*
D03*
X7320Y8112D02*
D03*
Y8187D02*
D03*
X12650Y4817D02*
D03*
Y4892D02*
D03*
X11830Y5157D02*
D03*
Y5232D02*
D03*
X12925Y5382D02*
D03*
Y5307D02*
D03*
X13395Y5687D02*
D03*
Y5612D02*
D03*
X12975Y5942D02*
D03*
Y6017D02*
D03*
X12360Y5947D02*
D03*
Y6022D02*
D03*
X10130Y4817D02*
D03*
Y4892D02*
D03*
X9310Y5157D02*
D03*
Y5232D02*
D03*
X10405Y5382D02*
D03*
Y5307D02*
D03*
X10875Y5687D02*
D03*
Y5612D02*
D03*
X10455Y5942D02*
D03*
Y6017D02*
D03*
X9840Y5947D02*
D03*
Y6022D02*
D03*
X7610Y4817D02*
D03*
Y4892D02*
D03*
X6790Y5157D02*
D03*
Y5232D02*
D03*
X7885Y5382D02*
D03*
Y5307D02*
D03*
X8355Y5687D02*
D03*
Y5612D02*
D03*
X7935Y5942D02*
D03*
Y6017D02*
D03*
X7320Y5947D02*
D03*
Y6022D02*
D03*
X12650Y2652D02*
D03*
Y2727D02*
D03*
X11830Y2992D02*
D03*
Y3067D02*
D03*
X12925Y3217D02*
D03*
Y3142D02*
D03*
X13395Y3522D02*
D03*
Y3447D02*
D03*
X12975Y3777D02*
D03*
Y3852D02*
D03*
X12360Y3782D02*
D03*
Y3857D02*
D03*
X10130Y2652D02*
D03*
Y2727D02*
D03*
X9310Y2992D02*
D03*
Y3067D02*
D03*
X10405Y3217D02*
D03*
Y3142D02*
D03*
X10875Y3522D02*
D03*
Y3447D02*
D03*
X10455Y3777D02*
D03*
Y3852D02*
D03*
X9840Y3782D02*
D03*
Y3857D02*
D03*
X7610Y2727D02*
D03*
Y2652D02*
D03*
X6790Y3067D02*
D03*
Y2992D02*
D03*
X7885Y3142D02*
D03*
Y3217D02*
D03*
X8355Y3447D02*
D03*
Y3522D02*
D03*
X7935Y3852D02*
D03*
Y3777D02*
D03*
X7320Y3857D02*
D03*
Y3782D02*
D03*
M02*
