*
%LPD*%
%LNBorder_Milling.pho*%
%FSLAX25Y25*%
%MOIN*%
%AD*%
%AD*%
%ADD11C,0.01*%
%ADD212C,0.01*%
G54D11*
%SRX1Y1I0.0J0.0*%
G1X681889Y31497D2*
G1X570091Y31497D1*
G1X570091Y75397D1*
G1X519291Y75397D1*
G1X519291Y239497D1*
G1X570091Y239497D1*
G1X570091Y283465D1*
G1X635972Y283465D1*
G1X635972Y326897D1*
G1X681889Y326897D1*
G1X681889Y31497D1*
G1X599589Y229797D2*
G1X599589Y253397D1*
G1X604989Y253397D2*
G75*
G3X599589Y253397I-2700J65D1*
G74*
G1X604989Y253397D2*
G1X604989Y229797D1*
G1X599590Y229797D2*
G75*
G3X604989Y229797I2699J113D1*
G74*
G1X614389Y229597D2*
G1X614389Y240897D1*
G1X619739Y246247D1*
G1X623991Y242698D2*
G75*
G3X619739Y246247I-2154J1741D1*
G74*
G1X623989Y242697D2*
G1X619139Y237847D1*
G1X619139Y229597D1*
G1X614390Y229596D2*
G75*
G3X619138Y229596I2374J-169D1*
G74*
G1X643089Y226697D2*
G1X643089Y249597D1*
G1X647889Y249597D1*
G1X647889Y226697D1*
G1X643089Y226697D1*
G1X681889Y326898D2*
G1X570091Y326898D1*
G1X570091Y370798D1*
G1X519291Y370798D1*
G1X519291Y534898D1*
G1X570091Y534898D1*
G1X570091Y578866D1*
G1X635972Y578866D1*
G1X635972Y622298D1*
G1X681889Y622298D1*
G1X681889Y326898D1*
G1X599589Y525198D2*
G1X599589Y548798D1*
G1X604989Y548798D2*
G75*
G3X599589Y548798I-2700J65D1*
G74*
G1X604989Y548798D2*
G1X604989Y525198D1*
G1X599590Y525198D2*
G75*
G3X604989Y525198I2699J113D1*
G74*
G1X614389Y524998D2*
G1X614389Y536298D1*
G1X619739Y541648D1*
G1X623991Y538099D2*
G75*
G3X619739Y541648I-2154J1741D1*
G74*
G1X623989Y538098D2*
G1X619139Y533248D1*
G1X619139Y524998D1*
G1X614390Y524997D2*
G75*
G3X619138Y524997I2374J-169D1*
G74*
G1X643089Y522098D2*
G1X643089Y544998D1*
G1X647889Y544998D1*
G1X647889Y522098D1*
G1X643089Y522098D1*
G1X681889Y622300D2*
G1X570091Y622300D1*
G1X570091Y666200D1*
G1X519291Y666200D1*
G1X519291Y830300D1*
G1X570091Y830300D1*
G1X570091Y874268D1*
G1X635972Y874268D1*
G1X635972Y917700D1*
G1X681889Y917700D1*
G1X681889Y622300D1*
G1X599589Y820600D2*
G1X599589Y844200D1*
G1X604989Y844200D2*
G75*
G3X599589Y844200I-2700J65D1*
G74*
G1X604989Y844200D2*
G1X604989Y820600D1*
G1X599590Y820600D2*
G75*
G3X604989Y820600I2699J113D1*
G74*
G1X614389Y820400D2*
G1X614389Y831700D1*
G1X619739Y837050D1*
G1X623991Y833501D2*
G75*
G3X619739Y837050I-2154J1741D1*
G74*
G1X623989Y833500D2*
G1X619139Y828650D1*
G1X619139Y820400D1*
G1X614390Y820399D2*
G75*
G3X619138Y820399I2374J-169D1*
G74*
G1X643089Y817500D2*
G1X643089Y840400D1*
G1X647889Y840400D1*
G1X647889Y817500D1*
G1X643089Y817500D1*
G1X519291Y31497D2*
G1X407493Y31497D1*
G1X407493Y75397D1*
G1X356693Y75397D1*
G1X356693Y239497D1*
G1X407493Y239497D1*
G1X407493Y283465D1*
G1X473374Y283465D1*
G1X473374Y326897D1*
G1X519291Y326897D1*
G1X519291Y31497D1*
G1X436991Y229797D2*
G1X436991Y253397D1*
G1X442391Y253397D2*
G75*
G3X436991Y253397I-2700J65D1*
G74*
G1X442391Y253397D2*
G1X442391Y229797D1*
G1X436992Y229797D2*
G75*
G3X442391Y229797I2699J113D1*
G74*
G1X451791Y229597D2*
G1X451791Y240897D1*
G1X457141Y246247D1*
G1X461393Y242698D2*
G75*
G3X457141Y246247I-2154J1741D1*
G74*
G1X461391Y242697D2*
G1X456541Y237847D1*
G1X456541Y229597D1*
G1X451792Y229596D2*
G75*
G3X456540Y229596I2374J-169D1*
G74*
G1X480491Y226697D2*
G1X480491Y249597D1*
G1X485291Y249597D1*
G1X485291Y226697D1*
G1X480491Y226697D1*
G1X519291Y326898D2*
G1X407493Y326898D1*
G1X407493Y370798D1*
G1X356693Y370798D1*
G1X356693Y534898D1*
G1X407493Y534898D1*
G1X407493Y578866D1*
G1X473374Y578866D1*
G1X473374Y622298D1*
G1X519291Y622298D1*
G1X519291Y326898D1*
G1X436991Y525198D2*
G1X436991Y548798D1*
G1X442391Y548798D2*
G75*
G3X436991Y548798I-2700J65D1*
G74*
G1X442391Y548798D2*
G1X442391Y525198D1*
G1X436992Y525198D2*
G75*
G3X442391Y525198I2699J113D1*
G74*
G1X451791Y524998D2*
G1X451791Y536298D1*
G1X457141Y541648D1*
G1X461393Y538099D2*
G75*
G3X457141Y541648I-2154J1741D1*
G74*
G1X461391Y538098D2*
G1X456541Y533248D1*
G1X456541Y524998D1*
G1X451792Y524997D2*
G75*
G3X456540Y524997I2374J-169D1*
G74*
G1X480491Y522098D2*
G1X480491Y544998D1*
G1X485291Y544998D1*
G1X485291Y522098D1*
G1X480491Y522098D1*
G1X519291Y622300D2*
G1X407493Y622300D1*
G1X407493Y666200D1*
G1X356693Y666200D1*
G1X356693Y830300D1*
G1X407493Y830300D1*
G1X407493Y874268D1*
G1X473374Y874268D1*
G1X473374Y917700D1*
G1X519291Y917700D1*
G1X519291Y622300D1*
G1X436991Y820600D2*
G1X436991Y844200D1*
G1X442391Y844200D2*
G75*
G3X436991Y844200I-2700J65D1*
G74*
G1X442391Y844200D2*
G1X442391Y820600D1*
G1X436992Y820600D2*
G75*
G3X442391Y820600I2699J113D1*
G74*
G1X451791Y820400D2*
G1X451791Y831700D1*
G1X457141Y837050D1*
G1X461393Y833501D2*
G75*
G3X457141Y837050I-2154J1741D1*
G74*
G1X461391Y833500D2*
G1X456541Y828650D1*
G1X456541Y820400D1*
G1X451792Y820399D2*
G75*
G3X456540Y820399I2374J-169D1*
G74*
G1X480491Y817500D2*
G1X480491Y840400D1*
G1X485291Y840400D1*
G1X485291Y817500D1*
G1X480491Y817500D1*
G1X356692Y31497D2*
G1X244894Y31497D1*
G1X244894Y75397D1*
G1X194094Y75397D1*
G1X194094Y239497D1*
G1X244894Y239497D1*
G1X244894Y283465D1*
G1X310775Y283465D1*
G1X310775Y326897D1*
G1X356692Y326897D1*
G1X356692Y31497D1*
G1X274392Y229797D2*
G1X274392Y253397D1*
G1X279792Y253397D2*
G75*
G3X274392Y253397I-2700J65D1*
G74*
G1X279792Y253397D2*
G1X279792Y229797D1*
G1X274393Y229797D2*
G75*
G3X279792Y229797I2699J113D1*
G74*
G1X289192Y229597D2*
G1X289192Y240897D1*
G1X294542Y246247D1*
G1X298794Y242698D2*
G75*
G3X294542Y246247I-2154J1741D1*
G74*
G1X298792Y242697D2*
G1X293942Y237847D1*
G1X293942Y229597D1*
G1X289193Y229596D2*
G75*
G3X293941Y229596I2374J-169D1*
G74*
G1X317892Y226697D2*
G1X317892Y249597D1*
G1X322692Y249597D1*
G1X322692Y226697D1*
G1X317892Y226697D1*
G1X356692Y326898D2*
G1X244894Y326898D1*
G1X244894Y370798D1*
G1X194094Y370798D1*
G1X194094Y534898D1*
G1X244894Y534898D1*
G1X244894Y578866D1*
G1X310775Y578866D1*
G1X310775Y622298D1*
G1X356692Y622298D1*
G1X356692Y326898D1*
G1X274392Y525198D2*
G1X274392Y548798D1*
G1X279792Y548798D2*
G75*
G3X274392Y548798I-2700J65D1*
G74*
G1X279792Y548798D2*
G1X279792Y525198D1*
G1X274393Y525198D2*
G75*
G3X279792Y525198I2699J113D1*
G74*
G1X289192Y524998D2*
G1X289192Y536298D1*
G1X294542Y541648D1*
G1X298794Y538099D2*
G75*
G3X294542Y541648I-2154J1741D1*
G74*
G1X298792Y538098D2*
G1X293942Y533248D1*
G1X293942Y524998D1*
G1X289193Y524997D2*
G75*
G3X293941Y524997I2374J-169D1*
G74*
G1X317892Y522098D2*
G1X317892Y544998D1*
G1X322692Y544998D1*
G1X322692Y522098D1*
G1X317892Y522098D1*
G1X356692Y622300D2*
G1X244894Y622300D1*
G1X244894Y666200D1*
G1X194094Y666200D1*
G1X194094Y830300D1*
G1X244894Y830300D1*
G1X244894Y874268D1*
G1X310775Y874268D1*
G1X310775Y917700D1*
G1X356692Y917700D1*
G1X356692Y622300D1*
G1X274392Y820600D2*
G1X274392Y844200D1*
G1X279792Y844200D2*
G75*
G3X274392Y844200I-2700J65D1*
G74*
G1X279792Y844200D2*
G1X279792Y820600D1*
G1X274393Y820600D2*
G75*
G3X279792Y820600I2699J113D1*
G74*
G1X289192Y820400D2*
G1X289192Y831700D1*
G1X294542Y837050D1*
G1X298794Y833501D2*
G75*
G3X294542Y837050I-2154J1741D1*
G74*
G1X298792Y833500D2*
G1X293942Y828650D1*
G1X293942Y820400D1*
G1X289193Y820399D2*
G75*
G3X293941Y820399I2374J-169D1*
G74*
G1X317892Y817500D2*
G1X317892Y840400D1*
G1X322692Y840400D1*
G1X322692Y817500D1*
G1X317892Y817500D1*
G1X194094Y31497D2*
G1X82296Y31497D1*
G1X82296Y75397D1*
G1X31496Y75397D1*
G1X31496Y239497D1*
G1X82296Y239497D1*
G1X82296Y283465D1*
G1X148177Y283465D1*
G1X148177Y326897D1*
G1X194094Y326897D1*
G1X194094Y31497D1*
G1X111794Y229797D2*
G1X111794Y253397D1*
G1X117194Y253397D2*
G75*
G3X111794Y253397I-2700J65D1*
G74*
G1X117194Y253397D2*
G1X117194Y229797D1*
G1X111795Y229797D2*
G75*
G3X117194Y229797I2699J113D1*
G74*
G1X126594Y229597D2*
G1X126594Y240897D1*
G1X131944Y246247D1*
G1X136196Y242698D2*
G75*
G3X131944Y246247I-2154J1741D1*
G74*
G1X136194Y242697D2*
G1X131344Y237847D1*
G1X131344Y229597D1*
G1X126595Y229596D2*
G75*
G3X131343Y229596I2374J-169D1*
G74*
G1X155294Y226697D2*
G1X155294Y249597D1*
G1X160094Y249597D1*
G1X160094Y226697D1*
G1X155294Y226697D1*
G1X194094Y326898D2*
G1X82296Y326898D1*
G1X82296Y370798D1*
G1X31496Y370798D1*
G1X31496Y534898D1*
G1X82296Y534898D1*
G1X82296Y578866D1*
G1X148177Y578866D1*
G1X148177Y622298D1*
G1X194094Y622298D1*
G1X194094Y326898D1*
G1X111794Y525198D2*
G1X111794Y548798D1*
G1X117194Y548798D2*
G75*
G3X111794Y548798I-2700J65D1*
G74*
G1X117194Y548798D2*
G1X117194Y525198D1*
G1X111795Y525198D2*
G75*
G3X117194Y525198I2699J113D1*
G74*
G1X126594Y524998D2*
G1X126594Y536298D1*
G1X131944Y541648D1*
G1X136196Y538099D2*
G75*
G3X131944Y541648I-2154J1741D1*
G74*
G1X136194Y538098D2*
G1X131344Y533248D1*
G1X131344Y524998D1*
G1X126595Y524997D2*
G75*
G3X131343Y524997I2374J-169D1*
G74*
G1X155294Y522098D2*
G1X155294Y544998D1*
G1X160094Y544998D1*
G1X160094Y522098D1*
G1X155294Y522098D1*
G1X194094Y622300D2*
G1X82296Y622300D1*
G1X82296Y666200D1*
G1X31496Y666200D1*
G1X31496Y917700D1*
G1X31496Y830300D2*
G1X82296Y830300D1*
G1X82296Y874268D1*
G1X148177Y874268D1*
G1X148177Y917700D1*
G1X194094Y917700D1*
G1X194094Y622300D1*
G1X111794Y820600D2*
G1X111794Y844200D1*
G1X117194Y844200D2*
G75*
G3X111794Y844200I-2700J65D1*
G74*
G1X117194Y844200D2*
G1X117194Y820600D1*
G1X111795Y820600D2*
G75*
G3X117194Y820600I2699J113D1*
G74*
G1X126594Y820400D2*
G1X126594Y831700D1*
G1X131944Y837050D1*
G1X136196Y833501D2*
G75*
G3X131944Y837050I-2154J1741D1*
G74*
G1X136194Y833500D2*
G1X131344Y828650D1*
G1X131344Y820400D1*
G1X126595Y820399D2*
G75*
G3X131343Y820399I2374J-169D1*
G74*
G1X155294Y817500D2*
G1X155294Y840400D1*
G1X160094Y840400D1*
G1X160094Y817500D1*
G1X155294Y817500D1*
G1X0Y11811D2*
G54D212*
G1X0Y937384D1*
G1X11812Y949196D2*
G1X701573Y949196D1*
G1X713385Y11811D2*
G1X713385Y937384D1*
G1X11812Y-1D2*
G1X701573Y-1D1*
G1X31496Y31495D2*
G1X31496Y818897D1*
G1X31496Y917700D2*
G1X681889Y917700D1*
G1X681889Y130298D1*
G1X622047Y31495D2*
G1X31496Y31495D1*
G1X701573Y949196D2*
G1X713385Y937384D1*
G1X11812Y-1D2*
G1X0Y11811D1*
G1X0Y937384D2*
G1X11812Y949196D1*
G1X701573Y-1D2*
G1X713385Y11811D1*
M2*
