*
%LPD*%
%LNPasteMask_Top.pho*%
%FSLAX25Y25*%
%MOIN*%
%AD*%
%AD*%
%ADD11C,0.01*%
%ADD22R,0.035429921X0.019690157*%
%ADD27R,0.019690157X0.035429921*%
%ADD28R,0.047240157X0.0315*%
%ADD29R,0.032X0.036*%
%ADD31R,0.07X0.048*%
%ADD32R,0.048X0.07*%
%ADD33R,0.036X0.032*%
%ADD43R,0.0315X0.047240157*%
%ADD46R,0.236X0.236*%
%ADD73R,0.063X0.063*%
%ADD79R,0.01X0.01*%
%ADD80R,0.024020079X0.024020079*%
%ADD81R,0.027559843X0.027559843*%
%ADD143R,0.076X0.029*%
G54D11*
%SRX1Y1I0.0J0.0*%
G1X633284Y156220D2*
G1X633284Y158173D1*
G1X635237Y158173D1*
G1X635237Y156220D1*
G1X633284Y156220D1*
G1X633438Y156220D2*
G1X633438Y158173D1*
G1X634338Y156220D2*
G1X634338Y158173D1*
G54D27*
G1X622913Y127297D3*
G1X617008Y127297D3*
G1X653631Y43197D3*
G1X647726Y43197D3*
G1X653331Y49697D3*
G1X647426Y49697D3*
G1X666731Y74997D3*
G1X660826Y74997D3*
G1X648709Y130985D3*
G1X654614Y130985D3*
G1X618614Y134985D3*
G1X612709Y134985D3*
G1X590631Y115397D3*
G1X584726Y115397D3*
G54D22*
G1X617460Y113944D3*
G1X617460Y119849D3*
G1X635661Y123532D3*
G1X635661Y129437D3*
G1X629661Y132937D3*
G1X629661Y127032D3*
G1X625189Y176144D3*
G1X625189Y182049D3*
G1X610678Y126549D3*
G1X610678Y120644D3*
G1X610678Y115949D3*
G1X610678Y110044D3*
G1X578178Y119544D3*
G1X578178Y125449D3*
G1X598578Y129749D3*
G1X598578Y123844D3*
G1X589161Y145532D3*
G1X589161Y151437D3*
G1X659189Y140344D3*
G1X659189Y146249D3*
G1X653161Y146032D3*
G1X653161Y151937D3*
G1X664289Y140344D3*
G1X664289Y146249D3*
G1X665089Y153344D3*
G1X665089Y159249D3*
G1X660289Y153644D3*
G1X660289Y159549D3*
G54D43*
G1X638028Y85997D3*
G1X631729Y85997D3*
G1X634429Y74897D3*
G1X640728Y74897D3*
G1X654340Y194497D3*
G1X660639Y194497D3*
G54D33*
G1X592078Y122097D3*
G1X592078Y129497D3*
G1X584278Y125797D3*
G1X667189Y180097D3*
G1X667189Y187497D3*
G1X659389Y183797D3*
G1X666989Y166397D3*
G1X666989Y173797D3*
G1X659189Y170097D3*
G54D32*
G1X655978Y59797D3*
G1X642978Y59797D3*
G1X611178Y85797D3*
G1X624178Y85797D3*
G1X610978Y102897D3*
G1X623978Y102897D3*
G1X584838Y267717D3*
G1X597838Y267717D3*
G1X656189Y311697D3*
G1X669189Y311697D3*
G54D31*
G1X601578Y100597D3*
G1X601578Y87597D3*
G1X642589Y304997D3*
G1X642589Y317997D3*
G54D143*
G1X633989Y42797D3*
G1X633989Y52797D3*
G1X606789Y52797D3*
G1X606789Y42797D3*
G54D29*
G1X655378Y74797D3*
G1X647978Y74797D3*
G1X651678Y66997D3*
G1X630360Y122297D3*
G1X622960Y122297D3*
G1X626660Y114497D3*
G1X578778Y113497D3*
G1X571378Y113497D3*
G1X575078Y105697D3*
G54D28*
G1X583661Y145335D3*
G1X583661Y151634D3*
G1X653989Y188846D3*
G1X653989Y182547D3*
G54D46*
G1X654678Y111293D3*
G1X645623Y83347D2*
G54D73*
G1X645623Y88847D1*
G1X663734Y83347D2*
G1X663734Y88847D1*
G1X624418Y142441D2*
G54D79*
G1X624418Y145181D1*
G1X626386Y142441D2*
G1X626386Y145181D1*
G1X628355Y142441D2*
G1X628355Y145181D1*
G1X630323Y142441D2*
G1X630323Y145181D1*
G1X632292Y142441D2*
G1X632292Y145181D1*
G1X634260Y142441D2*
G1X634260Y145181D1*
G1X636229Y142441D2*
G1X636229Y145181D1*
G1X638197Y142441D2*
G1X638197Y145181D1*
G1X640166Y142441D2*
G1X640166Y145181D1*
G1X642134Y142441D2*
G1X642134Y145181D1*
G1X644103Y142441D2*
G1X644103Y145181D1*
G1X649016Y147354D2*
G1X646276Y147354D1*
G1X649016Y149322D2*
G1X646276Y149322D1*
G1X649016Y151291D2*
G1X646276Y151291D1*
G1X649016Y153259D2*
G1X646276Y153259D1*
G1X649016Y155228D2*
G1X646276Y155228D1*
G1X649016Y157197D2*
G1X646276Y157197D1*
G1X649016Y159165D2*
G1X646276Y159165D1*
G1X649016Y161134D2*
G1X646276Y161134D1*
G1X649016Y163102D2*
G1X646276Y163102D1*
G1X649016Y164948D2*
G1X646276Y164948D1*
G1X649016Y167039D2*
G1X646276Y167039D1*
G1X644103Y169212D2*
G1X644103Y171952D1*
G1X642134Y169212D2*
G1X642134Y171952D1*
G1X640166Y169212D2*
G1X640166Y171952D1*
G1X638197Y169212D2*
G1X638197Y171952D1*
G1X636229Y169212D2*
G1X636229Y171952D1*
G1X634260Y169212D2*
G1X634260Y171952D1*
G1X632292Y169212D2*
G1X632292Y171952D1*
G1X630323Y169212D2*
G1X630323Y171952D1*
G1X628355Y169212D2*
G1X628355Y171952D1*
G1X626386Y169212D2*
G1X626386Y171952D1*
G1X624418Y169212D2*
G1X624418Y171952D1*
G1X622245Y167039D2*
G1X619505Y167039D1*
G1X622245Y165071D2*
G1X619505Y165071D1*
G1X622245Y163102D2*
G1X619505Y163102D1*
G1X622245Y161134D2*
G1X619505Y161134D1*
G1X622245Y159165D2*
G1X619505Y159165D1*
G1X622245Y157197D2*
G1X619505Y157197D1*
G1X622245Y155228D2*
G1X619505Y155228D1*
G1X622245Y153259D2*
G1X619505Y153259D1*
G1X622245Y151291D2*
G1X619505Y151291D1*
G1X622245Y149322D2*
G1X619505Y149322D1*
G1X622245Y147354D2*
G1X619505Y147354D1*
G1X630498Y268997D2*
G54D80*
G1X634081Y268997D1*
G1X630498Y263997D2*
G1X634081Y263997D1*
G1X655498Y263997D2*
G1X659081Y263997D1*
G1X655498Y268997D2*
G1X659081Y268997D1*
G54D81*
G1X634260Y157197D3*
G1X634260Y157197D3*
G1X633284Y451621D2*
G54D11*
G1X633284Y453574D1*
G1X635237Y453574D1*
G1X635237Y451621D1*
G1X633284Y451621D1*
G1X633438Y451621D2*
G1X633438Y453574D1*
G1X634338Y451621D2*
G1X634338Y453574D1*
G54D27*
G1X622913Y422698D3*
G1X617008Y422698D3*
G1X653631Y338598D3*
G1X647726Y338598D3*
G1X653331Y345098D3*
G1X647426Y345098D3*
G1X666731Y370398D3*
G1X660826Y370398D3*
G1X648709Y426386D3*
G1X654614Y426386D3*
G1X618614Y430386D3*
G1X612709Y430386D3*
G1X590631Y410798D3*
G1X584726Y410798D3*
G54D22*
G1X617460Y409345D3*
G1X617460Y415250D3*
G1X635661Y418933D3*
G1X635661Y424838D3*
G1X629661Y428338D3*
G1X629661Y422433D3*
G1X625189Y471545D3*
G1X625189Y477450D3*
G1X610678Y421950D3*
G1X610678Y416045D3*
G1X610678Y411350D3*
G1X610678Y405445D3*
G1X578178Y414945D3*
G1X578178Y420850D3*
G1X598578Y425150D3*
G1X598578Y419245D3*
G1X589161Y440933D3*
G1X589161Y446838D3*
G1X659189Y435745D3*
G1X659189Y441650D3*
G1X653161Y441433D3*
G1X653161Y447338D3*
G1X664289Y435745D3*
G1X664289Y441650D3*
G1X665089Y448745D3*
G1X665089Y454650D3*
G1X660289Y449045D3*
G1X660289Y454950D3*
G54D43*
G1X638028Y381398D3*
G1X631729Y381398D3*
G1X634429Y370298D3*
G1X640728Y370298D3*
G1X654340Y489898D3*
G1X660639Y489898D3*
G54D33*
G1X592078Y417498D3*
G1X592078Y424898D3*
G1X584278Y421198D3*
G1X667189Y475498D3*
G1X667189Y482898D3*
G1X659389Y479198D3*
G1X666989Y461798D3*
G1X666989Y469198D3*
G1X659189Y465498D3*
G54D32*
G1X655978Y355198D3*
G1X642978Y355198D3*
G1X611178Y381198D3*
G1X624178Y381198D3*
G1X610978Y398298D3*
G1X623978Y398298D3*
G1X584838Y563118D3*
G1X597838Y563118D3*
G1X656189Y607098D3*
G1X669189Y607098D3*
G54D31*
G1X601578Y395998D3*
G1X601578Y382998D3*
G1X642589Y600398D3*
G1X642589Y613398D3*
G54D143*
G1X633989Y338198D3*
G1X633989Y348198D3*
G1X606789Y348198D3*
G1X606789Y338198D3*
G54D29*
G1X655378Y370198D3*
G1X647978Y370198D3*
G1X651678Y362398D3*
G1X630360Y417698D3*
G1X622960Y417698D3*
G1X626660Y409898D3*
G1X578778Y408898D3*
G1X571378Y408898D3*
G1X575078Y401098D3*
G54D28*
G1X583661Y440736D3*
G1X583661Y447035D3*
G1X653989Y484247D3*
G1X653989Y477948D3*
G54D46*
G1X654678Y406694D3*
G1X645623Y378748D2*
G54D73*
G1X645623Y384248D1*
G1X663734Y378748D2*
G1X663734Y384248D1*
G1X624418Y437842D2*
G54D79*
G1X624418Y440582D1*
G1X626386Y437842D2*
G1X626386Y440582D1*
G1X628355Y437842D2*
G1X628355Y440582D1*
G1X630323Y437842D2*
G1X630323Y440582D1*
G1X632292Y437842D2*
G1X632292Y440582D1*
G1X634260Y437842D2*
G1X634260Y440582D1*
G1X636229Y437842D2*
G1X636229Y440582D1*
G1X638197Y437842D2*
G1X638197Y440582D1*
G1X640166Y437842D2*
G1X640166Y440582D1*
G1X642134Y437842D2*
G1X642134Y440582D1*
G1X644103Y437842D2*
G1X644103Y440582D1*
G1X649016Y442755D2*
G1X646276Y442755D1*
G1X649016Y444723D2*
G1X646276Y444723D1*
G1X649016Y446692D2*
G1X646276Y446692D1*
G1X649016Y448660D2*
G1X646276Y448660D1*
G1X649016Y450629D2*
G1X646276Y450629D1*
G1X649016Y452598D2*
G1X646276Y452598D1*
G1X649016Y454566D2*
G1X646276Y454566D1*
G1X649016Y456535D2*
G1X646276Y456535D1*
G1X649016Y458503D2*
G1X646276Y458503D1*
G1X649016Y460349D2*
G1X646276Y460349D1*
G1X649016Y462440D2*
G1X646276Y462440D1*
G1X644103Y464613D2*
G1X644103Y467353D1*
G1X642134Y464613D2*
G1X642134Y467353D1*
G1X640166Y464613D2*
G1X640166Y467353D1*
G1X638197Y464613D2*
G1X638197Y467353D1*
G1X636229Y464613D2*
G1X636229Y467353D1*
G1X634260Y464613D2*
G1X634260Y467353D1*
G1X632292Y464613D2*
G1X632292Y467353D1*
G1X630323Y464613D2*
G1X630323Y467353D1*
G1X628355Y464613D2*
G1X628355Y467353D1*
G1X626386Y464613D2*
G1X626386Y467353D1*
G1X624418Y464613D2*
G1X624418Y467353D1*
G1X622245Y462440D2*
G1X619505Y462440D1*
G1X622245Y460472D2*
G1X619505Y460472D1*
G1X622245Y458503D2*
G1X619505Y458503D1*
G1X622245Y456535D2*
G1X619505Y456535D1*
G1X622245Y454566D2*
G1X619505Y454566D1*
G1X622245Y452598D2*
G1X619505Y452598D1*
G1X622245Y450629D2*
G1X619505Y450629D1*
G1X622245Y448660D2*
G1X619505Y448660D1*
G1X622245Y446692D2*
G1X619505Y446692D1*
G1X622245Y444723D2*
G1X619505Y444723D1*
G1X622245Y442755D2*
G1X619505Y442755D1*
G1X630498Y564398D2*
G54D80*
G1X634081Y564398D1*
G1X630498Y559398D2*
G1X634081Y559398D1*
G1X655498Y559398D2*
G1X659081Y559398D1*
G1X655498Y564398D2*
G1X659081Y564398D1*
G54D81*
G1X634260Y452598D3*
G1X634260Y452598D3*
G1X633284Y747023D2*
G54D11*
G1X633284Y748976D1*
G1X635237Y748976D1*
G1X635237Y747023D1*
G1X633284Y747023D1*
G1X633438Y747023D2*
G1X633438Y748976D1*
G1X634338Y747023D2*
G1X634338Y748976D1*
G54D27*
G1X622913Y718100D3*
G1X617008Y718100D3*
G1X653631Y634000D3*
G1X647726Y634000D3*
G1X653331Y640500D3*
G1X647426Y640500D3*
G1X666731Y665800D3*
G1X660826Y665800D3*
G1X648709Y721788D3*
G1X654614Y721788D3*
G1X618614Y725788D3*
G1X612709Y725788D3*
G1X590631Y706200D3*
G1X584726Y706200D3*
G54D22*
G1X617460Y704747D3*
G1X617460Y710652D3*
G1X635661Y714335D3*
G1X635661Y720240D3*
G1X629661Y723740D3*
G1X629661Y717835D3*
G1X625189Y766947D3*
G1X625189Y772852D3*
G1X610678Y717352D3*
G1X610678Y711447D3*
G1X610678Y706752D3*
G1X610678Y700847D3*
G1X578178Y710347D3*
G1X578178Y716252D3*
G1X598578Y720552D3*
G1X598578Y714647D3*
G1X589161Y736335D3*
G1X589161Y742240D3*
G1X659189Y731147D3*
G1X659189Y737052D3*
G1X653161Y736835D3*
G1X653161Y742740D3*
G1X664289Y731147D3*
G1X664289Y737052D3*
G1X665089Y744147D3*
G1X665089Y750052D3*
G1X660289Y744447D3*
G1X660289Y750352D3*
G54D43*
G1X638028Y676800D3*
G1X631729Y676800D3*
G1X634429Y665700D3*
G1X640728Y665700D3*
G1X654340Y785300D3*
G1X660639Y785300D3*
G54D33*
G1X592078Y712900D3*
G1X592078Y720300D3*
G1X584278Y716600D3*
G1X667189Y770900D3*
G1X667189Y778300D3*
G1X659389Y774600D3*
G1X666989Y757200D3*
G1X666989Y764600D3*
G1X659189Y760900D3*
G54D32*
G1X655978Y650600D3*
G1X642978Y650600D3*
G1X611178Y676600D3*
G1X624178Y676600D3*
G1X610978Y693700D3*
G1X623978Y693700D3*
G1X584838Y858520D3*
G1X597838Y858520D3*
G1X656189Y902500D3*
G1X669189Y902500D3*
G54D31*
G1X601578Y691400D3*
G1X601578Y678400D3*
G1X642589Y895800D3*
G1X642589Y908800D3*
G54D143*
G1X633989Y633600D3*
G1X633989Y643600D3*
G1X606789Y643600D3*
G1X606789Y633600D3*
G54D29*
G1X655378Y665600D3*
G1X647978Y665600D3*
G1X651678Y657800D3*
G1X630360Y713100D3*
G1X622960Y713100D3*
G1X626660Y705300D3*
G1X578778Y704300D3*
G1X571378Y704300D3*
G1X575078Y696500D3*
G54D28*
G1X583661Y736138D3*
G1X583661Y742437D3*
G1X653989Y779649D3*
G1X653989Y773350D3*
G54D46*
G1X654678Y702096D3*
G1X645623Y674150D2*
G54D73*
G1X645623Y679650D1*
G1X663734Y674150D2*
G1X663734Y679650D1*
G1X624418Y733244D2*
G54D79*
G1X624418Y735984D1*
G1X626386Y733244D2*
G1X626386Y735984D1*
G1X628355Y733244D2*
G1X628355Y735984D1*
G1X630323Y733244D2*
G1X630323Y735984D1*
G1X632292Y733244D2*
G1X632292Y735984D1*
G1X634260Y733244D2*
G1X634260Y735984D1*
G1X636229Y733244D2*
G1X636229Y735984D1*
G1X638197Y733244D2*
G1X638197Y735984D1*
G1X640166Y733244D2*
G1X640166Y735984D1*
G1X642134Y733244D2*
G1X642134Y735984D1*
G1X644103Y733244D2*
G1X644103Y735984D1*
G1X649016Y738157D2*
G1X646276Y738157D1*
G1X649016Y740125D2*
G1X646276Y740125D1*
G1X649016Y742094D2*
G1X646276Y742094D1*
G1X649016Y744062D2*
G1X646276Y744062D1*
G1X649016Y746031D2*
G1X646276Y746031D1*
G1X649016Y748000D2*
G1X646276Y748000D1*
G1X649016Y749968D2*
G1X646276Y749968D1*
G1X649016Y751937D2*
G1X646276Y751937D1*
G1X649016Y753905D2*
G1X646276Y753905D1*
G1X649016Y755751D2*
G1X646276Y755751D1*
G1X649016Y757842D2*
G1X646276Y757842D1*
G1X644103Y760015D2*
G1X644103Y762755D1*
G1X642134Y760015D2*
G1X642134Y762755D1*
G1X640166Y760015D2*
G1X640166Y762755D1*
G1X638197Y760015D2*
G1X638197Y762755D1*
G1X636229Y760015D2*
G1X636229Y762755D1*
G1X634260Y760015D2*
G1X634260Y762755D1*
G1X632292Y760015D2*
G1X632292Y762755D1*
G1X630323Y760015D2*
G1X630323Y762755D1*
G1X628355Y760015D2*
G1X628355Y762755D1*
G1X626386Y760015D2*
G1X626386Y762755D1*
G1X624418Y760015D2*
G1X624418Y762755D1*
G1X622245Y757842D2*
G1X619505Y757842D1*
G1X622245Y755874D2*
G1X619505Y755874D1*
G1X622245Y753905D2*
G1X619505Y753905D1*
G1X622245Y751937D2*
G1X619505Y751937D1*
G1X622245Y749968D2*
G1X619505Y749968D1*
G1X622245Y748000D2*
G1X619505Y748000D1*
G1X622245Y746031D2*
G1X619505Y746031D1*
G1X622245Y744062D2*
G1X619505Y744062D1*
G1X622245Y742094D2*
G1X619505Y742094D1*
G1X622245Y740125D2*
G1X619505Y740125D1*
G1X622245Y738157D2*
G1X619505Y738157D1*
G1X630498Y859800D2*
G54D80*
G1X634081Y859800D1*
G1X630498Y854800D2*
G1X634081Y854800D1*
G1X655498Y854800D2*
G1X659081Y854800D1*
G1X655498Y859800D2*
G1X659081Y859800D1*
G54D81*
G1X634260Y748000D3*
G1X634260Y748000D3*
G1X470686Y156220D2*
G54D11*
G1X470686Y158173D1*
G1X472639Y158173D1*
G1X472639Y156220D1*
G1X470686Y156220D1*
G1X470840Y156220D2*
G1X470840Y158173D1*
G1X471740Y156220D2*
G1X471740Y158173D1*
G54D27*
G1X460315Y127297D3*
G1X454410Y127297D3*
G1X491033Y43197D3*
G1X485128Y43197D3*
G1X490733Y49697D3*
G1X484828Y49697D3*
G1X504133Y74997D3*
G1X498228Y74997D3*
G1X486111Y130985D3*
G1X492016Y130985D3*
G1X456016Y134985D3*
G1X450111Y134985D3*
G1X428033Y115397D3*
G1X422128Y115397D3*
G54D22*
G1X454862Y113944D3*
G1X454862Y119849D3*
G1X473063Y123532D3*
G1X473063Y129437D3*
G1X467063Y132937D3*
G1X467063Y127032D3*
G1X462591Y176144D3*
G1X462591Y182049D3*
G1X448080Y126549D3*
G1X448080Y120644D3*
G1X448080Y115949D3*
G1X448080Y110044D3*
G1X415580Y119544D3*
G1X415580Y125449D3*
G1X435980Y129749D3*
G1X435980Y123844D3*
G1X426563Y145532D3*
G1X426563Y151437D3*
G1X496591Y140344D3*
G1X496591Y146249D3*
G1X490563Y146032D3*
G1X490563Y151937D3*
G1X501691Y140344D3*
G1X501691Y146249D3*
G1X502491Y153344D3*
G1X502491Y159249D3*
G1X497691Y153644D3*
G1X497691Y159549D3*
G54D43*
G1X475430Y85997D3*
G1X469131Y85997D3*
G1X471831Y74897D3*
G1X478130Y74897D3*
G1X491742Y194497D3*
G1X498041Y194497D3*
G54D33*
G1X429480Y122097D3*
G1X429480Y129497D3*
G1X421680Y125797D3*
G1X504591Y180097D3*
G1X504591Y187497D3*
G1X496791Y183797D3*
G1X504391Y166397D3*
G1X504391Y173797D3*
G1X496591Y170097D3*
G54D32*
G1X493380Y59797D3*
G1X480380Y59797D3*
G1X448580Y85797D3*
G1X461580Y85797D3*
G1X448380Y102897D3*
G1X461380Y102897D3*
G1X422240Y267717D3*
G1X435240Y267717D3*
G1X493591Y311697D3*
G1X506591Y311697D3*
G54D31*
G1X438980Y100597D3*
G1X438980Y87597D3*
G1X479991Y304997D3*
G1X479991Y317997D3*
G54D143*
G1X471391Y42797D3*
G1X471391Y52797D3*
G1X444191Y52797D3*
G1X444191Y42797D3*
G54D29*
G1X492780Y74797D3*
G1X485380Y74797D3*
G1X489080Y66997D3*
G1X467762Y122297D3*
G1X460362Y122297D3*
G1X464062Y114497D3*
G1X416180Y113497D3*
G1X408780Y113497D3*
G1X412480Y105697D3*
G54D28*
G1X421063Y145335D3*
G1X421063Y151634D3*
G1X491391Y188846D3*
G1X491391Y182547D3*
G54D46*
G1X492080Y111293D3*
G1X483025Y83347D2*
G54D73*
G1X483025Y88847D1*
G1X501136Y83347D2*
G1X501136Y88847D1*
G1X461820Y142441D2*
G54D79*
G1X461820Y145181D1*
G1X463788Y142441D2*
G1X463788Y145181D1*
G1X465757Y142441D2*
G1X465757Y145181D1*
G1X467725Y142441D2*
G1X467725Y145181D1*
G1X469694Y142441D2*
G1X469694Y145181D1*
G1X471662Y142441D2*
G1X471662Y145181D1*
G1X473631Y142441D2*
G1X473631Y145181D1*
G1X475599Y142441D2*
G1X475599Y145181D1*
G1X477568Y142441D2*
G1X477568Y145181D1*
G1X479536Y142441D2*
G1X479536Y145181D1*
G1X481505Y142441D2*
G1X481505Y145181D1*
G1X486418Y147354D2*
G1X483678Y147354D1*
G1X486418Y149322D2*
G1X483678Y149322D1*
G1X486418Y151291D2*
G1X483678Y151291D1*
G1X486418Y153259D2*
G1X483678Y153259D1*
G1X486418Y155228D2*
G1X483678Y155228D1*
G1X486418Y157197D2*
G1X483678Y157197D1*
G1X486418Y159165D2*
G1X483678Y159165D1*
G1X486418Y161134D2*
G1X483678Y161134D1*
G1X486418Y163102D2*
G1X483678Y163102D1*
G1X486418Y164948D2*
G1X483678Y164948D1*
G1X486418Y167039D2*
G1X483678Y167039D1*
G1X481505Y169212D2*
G1X481505Y171952D1*
G1X479536Y169212D2*
G1X479536Y171952D1*
G1X477568Y169212D2*
G1X477568Y171952D1*
G1X475599Y169212D2*
G1X475599Y171952D1*
G1X473631Y169212D2*
G1X473631Y171952D1*
G1X471662Y169212D2*
G1X471662Y171952D1*
G1X469694Y169212D2*
G1X469694Y171952D1*
G1X467725Y169212D2*
G1X467725Y171952D1*
G1X465757Y169212D2*
G1X465757Y171952D1*
G1X463788Y169212D2*
G1X463788Y171952D1*
G1X461820Y169212D2*
G1X461820Y171952D1*
G1X459647Y167039D2*
G1X456907Y167039D1*
G1X459647Y165071D2*
G1X456907Y165071D1*
G1X459647Y163102D2*
G1X456907Y163102D1*
G1X459647Y161134D2*
G1X456907Y161134D1*
G1X459647Y159165D2*
G1X456907Y159165D1*
G1X459647Y157197D2*
G1X456907Y157197D1*
G1X459647Y155228D2*
G1X456907Y155228D1*
G1X459647Y153259D2*
G1X456907Y153259D1*
G1X459647Y151291D2*
G1X456907Y151291D1*
G1X459647Y149322D2*
G1X456907Y149322D1*
G1X459647Y147354D2*
G1X456907Y147354D1*
G1X467900Y268997D2*
G54D80*
G1X471483Y268997D1*
G1X467900Y263997D2*
G1X471483Y263997D1*
G1X492900Y263997D2*
G1X496483Y263997D1*
G1X492900Y268997D2*
G1X496483Y268997D1*
G54D81*
G1X471662Y157197D3*
G1X471662Y157197D3*
G1X470686Y451621D2*
G54D11*
G1X470686Y453574D1*
G1X472639Y453574D1*
G1X472639Y451621D1*
G1X470686Y451621D1*
G1X470840Y451621D2*
G1X470840Y453574D1*
G1X471740Y451621D2*
G1X471740Y453574D1*
G54D27*
G1X460315Y422698D3*
G1X454410Y422698D3*
G1X491033Y338598D3*
G1X485128Y338598D3*
G1X490733Y345098D3*
G1X484828Y345098D3*
G1X504133Y370398D3*
G1X498228Y370398D3*
G1X486111Y426386D3*
G1X492016Y426386D3*
G1X456016Y430386D3*
G1X450111Y430386D3*
G1X428033Y410798D3*
G1X422128Y410798D3*
G54D22*
G1X454862Y409345D3*
G1X454862Y415250D3*
G1X473063Y418933D3*
G1X473063Y424838D3*
G1X467063Y428338D3*
G1X467063Y422433D3*
G1X462591Y471545D3*
G1X462591Y477450D3*
G1X448080Y421950D3*
G1X448080Y416045D3*
G1X448080Y411350D3*
G1X448080Y405445D3*
G1X415580Y414945D3*
G1X415580Y420850D3*
G1X435980Y425150D3*
G1X435980Y419245D3*
G1X426563Y440933D3*
G1X426563Y446838D3*
G1X496591Y435745D3*
G1X496591Y441650D3*
G1X490563Y441433D3*
G1X490563Y447338D3*
G1X501691Y435745D3*
G1X501691Y441650D3*
G1X502491Y448745D3*
G1X502491Y454650D3*
G1X497691Y449045D3*
G1X497691Y454950D3*
G54D43*
G1X475430Y381398D3*
G1X469131Y381398D3*
G1X471831Y370298D3*
G1X478130Y370298D3*
G1X491742Y489898D3*
G1X498041Y489898D3*
G54D33*
G1X429480Y417498D3*
G1X429480Y424898D3*
G1X421680Y421198D3*
G1X504591Y475498D3*
G1X504591Y482898D3*
G1X496791Y479198D3*
G1X504391Y461798D3*
G1X504391Y469198D3*
G1X496591Y465498D3*
G54D32*
G1X493380Y355198D3*
G1X480380Y355198D3*
G1X448580Y381198D3*
G1X461580Y381198D3*
G1X448380Y398298D3*
G1X461380Y398298D3*
G1X422240Y563118D3*
G1X435240Y563118D3*
G1X493591Y607098D3*
G1X506591Y607098D3*
G54D31*
G1X438980Y395998D3*
G1X438980Y382998D3*
G1X479991Y600398D3*
G1X479991Y613398D3*
G54D143*
G1X471391Y338198D3*
G1X471391Y348198D3*
G1X444191Y348198D3*
G1X444191Y338198D3*
G54D29*
G1X492780Y370198D3*
G1X485380Y370198D3*
G1X489080Y362398D3*
G1X467762Y417698D3*
G1X460362Y417698D3*
G1X464062Y409898D3*
G1X416180Y408898D3*
G1X408780Y408898D3*
G1X412480Y401098D3*
G54D28*
G1X421063Y440736D3*
G1X421063Y447035D3*
G1X491391Y484247D3*
G1X491391Y477948D3*
G54D46*
G1X492080Y406694D3*
G1X483025Y378748D2*
G54D73*
G1X483025Y384248D1*
G1X501136Y378748D2*
G1X501136Y384248D1*
G1X461820Y437842D2*
G54D79*
G1X461820Y440582D1*
G1X463788Y437842D2*
G1X463788Y440582D1*
G1X465757Y437842D2*
G1X465757Y440582D1*
G1X467725Y437842D2*
G1X467725Y440582D1*
G1X469694Y437842D2*
G1X469694Y440582D1*
G1X471662Y437842D2*
G1X471662Y440582D1*
G1X473631Y437842D2*
G1X473631Y440582D1*
G1X475599Y437842D2*
G1X475599Y440582D1*
G1X477568Y437842D2*
G1X477568Y440582D1*
G1X479536Y437842D2*
G1X479536Y440582D1*
G1X481505Y437842D2*
G1X481505Y440582D1*
G1X486418Y442755D2*
G1X483678Y442755D1*
G1X486418Y444723D2*
G1X483678Y444723D1*
G1X486418Y446692D2*
G1X483678Y446692D1*
G1X486418Y448660D2*
G1X483678Y448660D1*
G1X486418Y450629D2*
G1X483678Y450629D1*
G1X486418Y452598D2*
G1X483678Y452598D1*
G1X486418Y454566D2*
G1X483678Y454566D1*
G1X486418Y456535D2*
G1X483678Y456535D1*
G1X486418Y458503D2*
G1X483678Y458503D1*
G1X486418Y460349D2*
G1X483678Y460349D1*
G1X486418Y462440D2*
G1X483678Y462440D1*
G1X481505Y464613D2*
G1X481505Y467353D1*
G1X479536Y464613D2*
G1X479536Y467353D1*
G1X477568Y464613D2*
G1X477568Y467353D1*
G1X475599Y464613D2*
G1X475599Y467353D1*
G1X473631Y464613D2*
G1X473631Y467353D1*
G1X471662Y464613D2*
G1X471662Y467353D1*
G1X469694Y464613D2*
G1X469694Y467353D1*
G1X467725Y464613D2*
G1X467725Y467353D1*
G1X465757Y464613D2*
G1X465757Y467353D1*
G1X463788Y464613D2*
G1X463788Y467353D1*
G1X461820Y464613D2*
G1X461820Y467353D1*
G1X459647Y462440D2*
G1X456907Y462440D1*
G1X459647Y460472D2*
G1X456907Y460472D1*
G1X459647Y458503D2*
G1X456907Y458503D1*
G1X459647Y456535D2*
G1X456907Y456535D1*
G1X459647Y454566D2*
G1X456907Y454566D1*
G1X459647Y452598D2*
G1X456907Y452598D1*
G1X459647Y450629D2*
G1X456907Y450629D1*
G1X459647Y448660D2*
G1X456907Y448660D1*
G1X459647Y446692D2*
G1X456907Y446692D1*
G1X459647Y444723D2*
G1X456907Y444723D1*
G1X459647Y442755D2*
G1X456907Y442755D1*
G1X467900Y564398D2*
G54D80*
G1X471483Y564398D1*
G1X467900Y559398D2*
G1X471483Y559398D1*
G1X492900Y559398D2*
G1X496483Y559398D1*
G1X492900Y564398D2*
G1X496483Y564398D1*
G54D81*
G1X471662Y452598D3*
G1X471662Y452598D3*
G1X470686Y747023D2*
G54D11*
G1X470686Y748976D1*
G1X472639Y748976D1*
G1X472639Y747023D1*
G1X470686Y747023D1*
G1X470840Y747023D2*
G1X470840Y748976D1*
G1X471740Y747023D2*
G1X471740Y748976D1*
G54D27*
G1X460315Y718100D3*
G1X454410Y718100D3*
G1X491033Y634000D3*
G1X485128Y634000D3*
G1X490733Y640500D3*
G1X484828Y640500D3*
G1X504133Y665800D3*
G1X498228Y665800D3*
G1X486111Y721788D3*
G1X492016Y721788D3*
G1X456016Y725788D3*
G1X450111Y725788D3*
G1X428033Y706200D3*
G1X422128Y706200D3*
G54D22*
G1X454862Y704747D3*
G1X454862Y710652D3*
G1X473063Y714335D3*
G1X473063Y720240D3*
G1X467063Y723740D3*
G1X467063Y717835D3*
G1X462591Y766947D3*
G1X462591Y772852D3*
G1X448080Y717352D3*
G1X448080Y711447D3*
G1X448080Y706752D3*
G1X448080Y700847D3*
G1X415580Y710347D3*
G1X415580Y716252D3*
G1X435980Y720552D3*
G1X435980Y714647D3*
G1X426563Y736335D3*
G1X426563Y742240D3*
G1X496591Y731147D3*
G1X496591Y737052D3*
G1X490563Y736835D3*
G1X490563Y742740D3*
G1X501691Y731147D3*
G1X501691Y737052D3*
G1X502491Y744147D3*
G1X502491Y750052D3*
G1X497691Y744447D3*
G1X497691Y750352D3*
G54D43*
G1X475430Y676800D3*
G1X469131Y676800D3*
G1X471831Y665700D3*
G1X478130Y665700D3*
G1X491742Y785300D3*
G1X498041Y785300D3*
G54D33*
G1X429480Y712900D3*
G1X429480Y720300D3*
G1X421680Y716600D3*
G1X504591Y770900D3*
G1X504591Y778300D3*
G1X496791Y774600D3*
G1X504391Y757200D3*
G1X504391Y764600D3*
G1X496591Y760900D3*
G54D32*
G1X493380Y650600D3*
G1X480380Y650600D3*
G1X448580Y676600D3*
G1X461580Y676600D3*
G1X448380Y693700D3*
G1X461380Y693700D3*
G1X422240Y858520D3*
G1X435240Y858520D3*
G1X493591Y902500D3*
G1X506591Y902500D3*
G54D31*
G1X438980Y691400D3*
G1X438980Y678400D3*
G1X479991Y895800D3*
G1X479991Y908800D3*
G54D143*
G1X471391Y633600D3*
G1X471391Y643600D3*
G1X444191Y643600D3*
G1X444191Y633600D3*
G54D29*
G1X492780Y665600D3*
G1X485380Y665600D3*
G1X489080Y657800D3*
G1X467762Y713100D3*
G1X460362Y713100D3*
G1X464062Y705300D3*
G1X416180Y704300D3*
G1X408780Y704300D3*
G1X412480Y696500D3*
G54D28*
G1X421063Y736138D3*
G1X421063Y742437D3*
G1X491391Y779649D3*
G1X491391Y773350D3*
G54D46*
G1X492080Y702096D3*
G1X483025Y674150D2*
G54D73*
G1X483025Y679650D1*
G1X501136Y674150D2*
G1X501136Y679650D1*
G1X461820Y733244D2*
G54D79*
G1X461820Y735984D1*
G1X463788Y733244D2*
G1X463788Y735984D1*
G1X465757Y733244D2*
G1X465757Y735984D1*
G1X467725Y733244D2*
G1X467725Y735984D1*
G1X469694Y733244D2*
G1X469694Y735984D1*
G1X471662Y733244D2*
G1X471662Y735984D1*
G1X473631Y733244D2*
G1X473631Y735984D1*
G1X475599Y733244D2*
G1X475599Y735984D1*
G1X477568Y733244D2*
G1X477568Y735984D1*
G1X479536Y733244D2*
G1X479536Y735984D1*
G1X481505Y733244D2*
G1X481505Y735984D1*
G1X486418Y738157D2*
G1X483678Y738157D1*
G1X486418Y740125D2*
G1X483678Y740125D1*
G1X486418Y742094D2*
G1X483678Y742094D1*
G1X486418Y744062D2*
G1X483678Y744062D1*
G1X486418Y746031D2*
G1X483678Y746031D1*
G1X486418Y748000D2*
G1X483678Y748000D1*
G1X486418Y749968D2*
G1X483678Y749968D1*
G1X486418Y751937D2*
G1X483678Y751937D1*
G1X486418Y753905D2*
G1X483678Y753905D1*
G1X486418Y755751D2*
G1X483678Y755751D1*
G1X486418Y757842D2*
G1X483678Y757842D1*
G1X481505Y760015D2*
G1X481505Y762755D1*
G1X479536Y760015D2*
G1X479536Y762755D1*
G1X477568Y760015D2*
G1X477568Y762755D1*
G1X475599Y760015D2*
G1X475599Y762755D1*
G1X473631Y760015D2*
G1X473631Y762755D1*
G1X471662Y760015D2*
G1X471662Y762755D1*
G1X469694Y760015D2*
G1X469694Y762755D1*
G1X467725Y760015D2*
G1X467725Y762755D1*
G1X465757Y760015D2*
G1X465757Y762755D1*
G1X463788Y760015D2*
G1X463788Y762755D1*
G1X461820Y760015D2*
G1X461820Y762755D1*
G1X459647Y757842D2*
G1X456907Y757842D1*
G1X459647Y755874D2*
G1X456907Y755874D1*
G1X459647Y753905D2*
G1X456907Y753905D1*
G1X459647Y751937D2*
G1X456907Y751937D1*
G1X459647Y749968D2*
G1X456907Y749968D1*
G1X459647Y748000D2*
G1X456907Y748000D1*
G1X459647Y746031D2*
G1X456907Y746031D1*
G1X459647Y744062D2*
G1X456907Y744062D1*
G1X459647Y742094D2*
G1X456907Y742094D1*
G1X459647Y740125D2*
G1X456907Y740125D1*
G1X459647Y738157D2*
G1X456907Y738157D1*
G1X467900Y859800D2*
G54D80*
G1X471483Y859800D1*
G1X467900Y854800D2*
G1X471483Y854800D1*
G1X492900Y854800D2*
G1X496483Y854800D1*
G1X492900Y859800D2*
G1X496483Y859800D1*
G54D81*
G1X471662Y748000D3*
G1X471662Y748000D3*
G1X308087Y156220D2*
G54D11*
G1X308087Y158173D1*
G1X310040Y158173D1*
G1X310040Y156220D1*
G1X308087Y156220D1*
G1X308241Y156220D2*
G1X308241Y158173D1*
G1X309141Y156220D2*
G1X309141Y158173D1*
G54D27*
G1X297716Y127297D3*
G1X291811Y127297D3*
G1X328434Y43197D3*
G1X322529Y43197D3*
G1X328134Y49697D3*
G1X322229Y49697D3*
G1X341534Y74997D3*
G1X335629Y74997D3*
G1X323512Y130985D3*
G1X329417Y130985D3*
G1X293417Y134985D3*
G1X287512Y134985D3*
G1X265434Y115397D3*
G1X259529Y115397D3*
G54D22*
G1X292263Y113944D3*
G1X292263Y119849D3*
G1X310464Y123532D3*
G1X310464Y129437D3*
G1X304464Y132937D3*
G1X304464Y127032D3*
G1X299992Y176144D3*
G1X299992Y182049D3*
G1X285481Y126549D3*
G1X285481Y120644D3*
G1X285481Y115949D3*
G1X285481Y110044D3*
G1X252981Y119544D3*
G1X252981Y125449D3*
G1X273381Y129749D3*
G1X273381Y123844D3*
G1X263964Y145532D3*
G1X263964Y151437D3*
G1X333992Y140344D3*
G1X333992Y146249D3*
G1X327964Y146032D3*
G1X327964Y151937D3*
G1X339092Y140344D3*
G1X339092Y146249D3*
G1X339892Y153344D3*
G1X339892Y159249D3*
G1X335092Y153644D3*
G1X335092Y159549D3*
G54D43*
G1X312831Y85997D3*
G1X306532Y85997D3*
G1X309232Y74897D3*
G1X315531Y74897D3*
G1X329143Y194497D3*
G1X335442Y194497D3*
G54D33*
G1X266881Y122097D3*
G1X266881Y129497D3*
G1X259081Y125797D3*
G1X341992Y180097D3*
G1X341992Y187497D3*
G1X334192Y183797D3*
G1X341792Y166397D3*
G1X341792Y173797D3*
G1X333992Y170097D3*
G54D32*
G1X330781Y59797D3*
G1X317781Y59797D3*
G1X285981Y85797D3*
G1X298981Y85797D3*
G1X285781Y102897D3*
G1X298781Y102897D3*
G1X259641Y267717D3*
G1X272641Y267717D3*
G1X330992Y311697D3*
G1X343992Y311697D3*
G54D31*
G1X276381Y100597D3*
G1X276381Y87597D3*
G1X317392Y304997D3*
G1X317392Y317997D3*
G54D143*
G1X308792Y42797D3*
G1X308792Y52797D3*
G1X281592Y52797D3*
G1X281592Y42797D3*
G54D29*
G1X330181Y74797D3*
G1X322781Y74797D3*
G1X326481Y66997D3*
G1X305163Y122297D3*
G1X297763Y122297D3*
G1X301463Y114497D3*
G1X253581Y113497D3*
G1X246181Y113497D3*
G1X249881Y105697D3*
G54D28*
G1X258464Y145335D3*
G1X258464Y151634D3*
G1X328792Y188846D3*
G1X328792Y182547D3*
G54D46*
G1X329481Y111293D3*
G1X320426Y83347D2*
G54D73*
G1X320426Y88847D1*
G1X338537Y83347D2*
G1X338537Y88847D1*
G1X299221Y142441D2*
G54D79*
G1X299221Y145181D1*
G1X301189Y142441D2*
G1X301189Y145181D1*
G1X303158Y142441D2*
G1X303158Y145181D1*
G1X305126Y142441D2*
G1X305126Y145181D1*
G1X307095Y142441D2*
G1X307095Y145181D1*
G1X309063Y142441D2*
G1X309063Y145181D1*
G1X311032Y142441D2*
G1X311032Y145181D1*
G1X313000Y142441D2*
G1X313000Y145181D1*
G1X314969Y142441D2*
G1X314969Y145181D1*
G1X316937Y142441D2*
G1X316937Y145181D1*
G1X318906Y142441D2*
G1X318906Y145181D1*
G1X323819Y147354D2*
G1X321079Y147354D1*
G1X323819Y149322D2*
G1X321079Y149322D1*
G1X323819Y151291D2*
G1X321079Y151291D1*
G1X323819Y153259D2*
G1X321079Y153259D1*
G1X323819Y155228D2*
G1X321079Y155228D1*
G1X323819Y157197D2*
G1X321079Y157197D1*
G1X323819Y159165D2*
G1X321079Y159165D1*
G1X323819Y161134D2*
G1X321079Y161134D1*
G1X323819Y163102D2*
G1X321079Y163102D1*
G1X323819Y164948D2*
G1X321079Y164948D1*
G1X323819Y167039D2*
G1X321079Y167039D1*
G1X318906Y169212D2*
G1X318906Y171952D1*
G1X316937Y169212D2*
G1X316937Y171952D1*
G1X314969Y169212D2*
G1X314969Y171952D1*
G1X313000Y169212D2*
G1X313000Y171952D1*
G1X311032Y169212D2*
G1X311032Y171952D1*
G1X309063Y169212D2*
G1X309063Y171952D1*
G1X307095Y169212D2*
G1X307095Y171952D1*
G1X305126Y169212D2*
G1X305126Y171952D1*
G1X303158Y169212D2*
G1X303158Y171952D1*
G1X301189Y169212D2*
G1X301189Y171952D1*
G1X299221Y169212D2*
G1X299221Y171952D1*
G1X297048Y167039D2*
G1X294308Y167039D1*
G1X297048Y165071D2*
G1X294308Y165071D1*
G1X297048Y163102D2*
G1X294308Y163102D1*
G1X297048Y161134D2*
G1X294308Y161134D1*
G1X297048Y159165D2*
G1X294308Y159165D1*
G1X297048Y157197D2*
G1X294308Y157197D1*
G1X297048Y155228D2*
G1X294308Y155228D1*
G1X297048Y153259D2*
G1X294308Y153259D1*
G1X297048Y151291D2*
G1X294308Y151291D1*
G1X297048Y149322D2*
G1X294308Y149322D1*
G1X297048Y147354D2*
G1X294308Y147354D1*
G1X305301Y268997D2*
G54D80*
G1X308884Y268997D1*
G1X305301Y263997D2*
G1X308884Y263997D1*
G1X330301Y263997D2*
G1X333884Y263997D1*
G1X330301Y268997D2*
G1X333884Y268997D1*
G54D81*
G1X309063Y157197D3*
G1X309063Y157197D3*
G1X308087Y451621D2*
G54D11*
G1X308087Y453574D1*
G1X310040Y453574D1*
G1X310040Y451621D1*
G1X308087Y451621D1*
G1X308241Y451621D2*
G1X308241Y453574D1*
G1X309141Y451621D2*
G1X309141Y453574D1*
G54D27*
G1X297716Y422698D3*
G1X291811Y422698D3*
G1X328434Y338598D3*
G1X322529Y338598D3*
G1X328134Y345098D3*
G1X322229Y345098D3*
G1X341534Y370398D3*
G1X335629Y370398D3*
G1X323512Y426386D3*
G1X329417Y426386D3*
G1X293417Y430386D3*
G1X287512Y430386D3*
G1X265434Y410798D3*
G1X259529Y410798D3*
G54D22*
G1X292263Y409345D3*
G1X292263Y415250D3*
G1X310464Y418933D3*
G1X310464Y424838D3*
G1X304464Y428338D3*
G1X304464Y422433D3*
G1X299992Y471545D3*
G1X299992Y477450D3*
G1X285481Y421950D3*
G1X285481Y416045D3*
G1X285481Y411350D3*
G1X285481Y405445D3*
G1X252981Y414945D3*
G1X252981Y420850D3*
G1X273381Y425150D3*
G1X273381Y419245D3*
G1X263964Y440933D3*
G1X263964Y446838D3*
G1X333992Y435745D3*
G1X333992Y441650D3*
G1X327964Y441433D3*
G1X327964Y447338D3*
G1X339092Y435745D3*
G1X339092Y441650D3*
G1X339892Y448745D3*
G1X339892Y454650D3*
G1X335092Y449045D3*
G1X335092Y454950D3*
G54D43*
G1X312831Y381398D3*
G1X306532Y381398D3*
G1X309232Y370298D3*
G1X315531Y370298D3*
G1X329143Y489898D3*
G1X335442Y489898D3*
G54D33*
G1X266881Y417498D3*
G1X266881Y424898D3*
G1X259081Y421198D3*
G1X341992Y475498D3*
G1X341992Y482898D3*
G1X334192Y479198D3*
G1X341792Y461798D3*
G1X341792Y469198D3*
G1X333992Y465498D3*
G54D32*
G1X330781Y355198D3*
G1X317781Y355198D3*
G1X285981Y381198D3*
G1X298981Y381198D3*
G1X285781Y398298D3*
G1X298781Y398298D3*
G1X259641Y563118D3*
G1X272641Y563118D3*
G1X330992Y607098D3*
G1X343992Y607098D3*
G54D31*
G1X276381Y395998D3*
G1X276381Y382998D3*
G1X317392Y600398D3*
G1X317392Y613398D3*
G54D143*
G1X308792Y338198D3*
G1X308792Y348198D3*
G1X281592Y348198D3*
G1X281592Y338198D3*
G54D29*
G1X330181Y370198D3*
G1X322781Y370198D3*
G1X326481Y362398D3*
G1X305163Y417698D3*
G1X297763Y417698D3*
G1X301463Y409898D3*
G1X253581Y408898D3*
G1X246181Y408898D3*
G1X249881Y401098D3*
G54D28*
G1X258464Y440736D3*
G1X258464Y447035D3*
G1X328792Y484247D3*
G1X328792Y477948D3*
G54D46*
G1X329481Y406694D3*
G1X320426Y378748D2*
G54D73*
G1X320426Y384248D1*
G1X338537Y378748D2*
G1X338537Y384248D1*
G1X299221Y437842D2*
G54D79*
G1X299221Y440582D1*
G1X301189Y437842D2*
G1X301189Y440582D1*
G1X303158Y437842D2*
G1X303158Y440582D1*
G1X305126Y437842D2*
G1X305126Y440582D1*
G1X307095Y437842D2*
G1X307095Y440582D1*
G1X309063Y437842D2*
G1X309063Y440582D1*
G1X311032Y437842D2*
G1X311032Y440582D1*
G1X313000Y437842D2*
G1X313000Y440582D1*
G1X314969Y437842D2*
G1X314969Y440582D1*
G1X316937Y437842D2*
G1X316937Y440582D1*
G1X318906Y437842D2*
G1X318906Y440582D1*
G1X323819Y442755D2*
G1X321079Y442755D1*
G1X323819Y444723D2*
G1X321079Y444723D1*
G1X323819Y446692D2*
G1X321079Y446692D1*
G1X323819Y448660D2*
G1X321079Y448660D1*
G1X323819Y450629D2*
G1X321079Y450629D1*
G1X323819Y452598D2*
G1X321079Y452598D1*
G1X323819Y454566D2*
G1X321079Y454566D1*
G1X323819Y456535D2*
G1X321079Y456535D1*
G1X323819Y458503D2*
G1X321079Y458503D1*
G1X323819Y460349D2*
G1X321079Y460349D1*
G1X323819Y462440D2*
G1X321079Y462440D1*
G1X318906Y464613D2*
G1X318906Y467353D1*
G1X316937Y464613D2*
G1X316937Y467353D1*
G1X314969Y464613D2*
G1X314969Y467353D1*
G1X313000Y464613D2*
G1X313000Y467353D1*
G1X311032Y464613D2*
G1X311032Y467353D1*
G1X309063Y464613D2*
G1X309063Y467353D1*
G1X307095Y464613D2*
G1X307095Y467353D1*
G1X305126Y464613D2*
G1X305126Y467353D1*
G1X303158Y464613D2*
G1X303158Y467353D1*
G1X301189Y464613D2*
G1X301189Y467353D1*
G1X299221Y464613D2*
G1X299221Y467353D1*
G1X297048Y462440D2*
G1X294308Y462440D1*
G1X297048Y460472D2*
G1X294308Y460472D1*
G1X297048Y458503D2*
G1X294308Y458503D1*
G1X297048Y456535D2*
G1X294308Y456535D1*
G1X297048Y454566D2*
G1X294308Y454566D1*
G1X297048Y452598D2*
G1X294308Y452598D1*
G1X297048Y450629D2*
G1X294308Y450629D1*
G1X297048Y448660D2*
G1X294308Y448660D1*
G1X297048Y446692D2*
G1X294308Y446692D1*
G1X297048Y444723D2*
G1X294308Y444723D1*
G1X297048Y442755D2*
G1X294308Y442755D1*
G1X305301Y564398D2*
G54D80*
G1X308884Y564398D1*
G1X305301Y559398D2*
G1X308884Y559398D1*
G1X330301Y559398D2*
G1X333884Y559398D1*
G1X330301Y564398D2*
G1X333884Y564398D1*
G54D81*
G1X309063Y452598D3*
G1X309063Y452598D3*
G1X308087Y747023D2*
G54D11*
G1X308087Y748976D1*
G1X310040Y748976D1*
G1X310040Y747023D1*
G1X308087Y747023D1*
G1X308241Y747023D2*
G1X308241Y748976D1*
G1X309141Y747023D2*
G1X309141Y748976D1*
G54D27*
G1X297716Y718100D3*
G1X291811Y718100D3*
G1X328434Y634000D3*
G1X322529Y634000D3*
G1X328134Y640500D3*
G1X322229Y640500D3*
G1X341534Y665800D3*
G1X335629Y665800D3*
G1X323512Y721788D3*
G1X329417Y721788D3*
G1X293417Y725788D3*
G1X287512Y725788D3*
G1X265434Y706200D3*
G1X259529Y706200D3*
G54D22*
G1X292263Y704747D3*
G1X292263Y710652D3*
G1X310464Y714335D3*
G1X310464Y720240D3*
G1X304464Y723740D3*
G1X304464Y717835D3*
G1X299992Y766947D3*
G1X299992Y772852D3*
G1X285481Y717352D3*
G1X285481Y711447D3*
G1X285481Y706752D3*
G1X285481Y700847D3*
G1X252981Y710347D3*
G1X252981Y716252D3*
G1X273381Y720552D3*
G1X273381Y714647D3*
G1X263964Y736335D3*
G1X263964Y742240D3*
G1X333992Y731147D3*
G1X333992Y737052D3*
G1X327964Y736835D3*
G1X327964Y742740D3*
G1X339092Y731147D3*
G1X339092Y737052D3*
G1X339892Y744147D3*
G1X339892Y750052D3*
G1X335092Y744447D3*
G1X335092Y750352D3*
G54D43*
G1X312831Y676800D3*
G1X306532Y676800D3*
G1X309232Y665700D3*
G1X315531Y665700D3*
G1X329143Y785300D3*
G1X335442Y785300D3*
G54D33*
G1X266881Y712900D3*
G1X266881Y720300D3*
G1X259081Y716600D3*
G1X341992Y770900D3*
G1X341992Y778300D3*
G1X334192Y774600D3*
G1X341792Y757200D3*
G1X341792Y764600D3*
G1X333992Y760900D3*
G54D32*
G1X330781Y650600D3*
G1X317781Y650600D3*
G1X285981Y676600D3*
G1X298981Y676600D3*
G1X285781Y693700D3*
G1X298781Y693700D3*
G1X259641Y858520D3*
G1X272641Y858520D3*
G1X330992Y902500D3*
G1X343992Y902500D3*
G54D31*
G1X276381Y691400D3*
G1X276381Y678400D3*
G1X317392Y895800D3*
G1X317392Y908800D3*
G54D143*
G1X308792Y633600D3*
G1X308792Y643600D3*
G1X281592Y643600D3*
G1X281592Y633600D3*
G54D29*
G1X330181Y665600D3*
G1X322781Y665600D3*
G1X326481Y657800D3*
G1X305163Y713100D3*
G1X297763Y713100D3*
G1X301463Y705300D3*
G1X253581Y704300D3*
G1X246181Y704300D3*
G1X249881Y696500D3*
G54D28*
G1X258464Y736138D3*
G1X258464Y742437D3*
G1X328792Y779649D3*
G1X328792Y773350D3*
G54D46*
G1X329481Y702096D3*
G1X320426Y674150D2*
G54D73*
G1X320426Y679650D1*
G1X338537Y674150D2*
G1X338537Y679650D1*
G1X299221Y733244D2*
G54D79*
G1X299221Y735984D1*
G1X301189Y733244D2*
G1X301189Y735984D1*
G1X303158Y733244D2*
G1X303158Y735984D1*
G1X305126Y733244D2*
G1X305126Y735984D1*
G1X307095Y733244D2*
G1X307095Y735984D1*
G1X309063Y733244D2*
G1X309063Y735984D1*
G1X311032Y733244D2*
G1X311032Y735984D1*
G1X313000Y733244D2*
G1X313000Y735984D1*
G1X314969Y733244D2*
G1X314969Y735984D1*
G1X316937Y733244D2*
G1X316937Y735984D1*
G1X318906Y733244D2*
G1X318906Y735984D1*
G1X323819Y738157D2*
G1X321079Y738157D1*
G1X323819Y740125D2*
G1X321079Y740125D1*
G1X323819Y742094D2*
G1X321079Y742094D1*
G1X323819Y744062D2*
G1X321079Y744062D1*
G1X323819Y746031D2*
G1X321079Y746031D1*
G1X323819Y748000D2*
G1X321079Y748000D1*
G1X323819Y749968D2*
G1X321079Y749968D1*
G1X323819Y751937D2*
G1X321079Y751937D1*
G1X323819Y753905D2*
G1X321079Y753905D1*
G1X323819Y755751D2*
G1X321079Y755751D1*
G1X323819Y757842D2*
G1X321079Y757842D1*
G1X318906Y760015D2*
G1X318906Y762755D1*
G1X316937Y760015D2*
G1X316937Y762755D1*
G1X314969Y760015D2*
G1X314969Y762755D1*
G1X313000Y760015D2*
G1X313000Y762755D1*
G1X311032Y760015D2*
G1X311032Y762755D1*
G1X309063Y760015D2*
G1X309063Y762755D1*
G1X307095Y760015D2*
G1X307095Y762755D1*
G1X305126Y760015D2*
G1X305126Y762755D1*
G1X303158Y760015D2*
G1X303158Y762755D1*
G1X301189Y760015D2*
G1X301189Y762755D1*
G1X299221Y760015D2*
G1X299221Y762755D1*
G1X297048Y757842D2*
G1X294308Y757842D1*
G1X297048Y755874D2*
G1X294308Y755874D1*
G1X297048Y753905D2*
G1X294308Y753905D1*
G1X297048Y751937D2*
G1X294308Y751937D1*
G1X297048Y749968D2*
G1X294308Y749968D1*
G1X297048Y748000D2*
G1X294308Y748000D1*
G1X297048Y746031D2*
G1X294308Y746031D1*
G1X297048Y744062D2*
G1X294308Y744062D1*
G1X297048Y742094D2*
G1X294308Y742094D1*
G1X297048Y740125D2*
G1X294308Y740125D1*
G1X297048Y738157D2*
G1X294308Y738157D1*
G1X305301Y859800D2*
G54D80*
G1X308884Y859800D1*
G1X305301Y854800D2*
G1X308884Y854800D1*
G1X330301Y854800D2*
G1X333884Y854800D1*
G1X330301Y859800D2*
G1X333884Y859800D1*
G54D81*
G1X309063Y748000D3*
G1X309063Y748000D3*
G1X145489Y156220D2*
G54D11*
G1X145489Y158173D1*
G1X147442Y158173D1*
G1X147442Y156220D1*
G1X145489Y156220D1*
G1X145643Y156220D2*
G1X145643Y158173D1*
G1X146543Y156220D2*
G1X146543Y158173D1*
G54D27*
G1X135118Y127297D3*
G1X129213Y127297D3*
G1X165836Y43197D3*
G1X159931Y43197D3*
G1X165536Y49697D3*
G1X159631Y49697D3*
G1X178936Y74997D3*
G1X173031Y74997D3*
G1X160914Y130985D3*
G1X166819Y130985D3*
G1X130819Y134985D3*
G1X124914Y134985D3*
G1X102836Y115397D3*
G1X96931Y115397D3*
G54D22*
G1X129665Y113944D3*
G1X129665Y119849D3*
G1X147866Y123532D3*
G1X147866Y129437D3*
G1X141866Y132937D3*
G1X141866Y127032D3*
G1X137394Y176144D3*
G1X137394Y182049D3*
G1X122883Y126549D3*
G1X122883Y120644D3*
G1X122883Y115949D3*
G1X122883Y110044D3*
G1X90383Y119544D3*
G1X90383Y125449D3*
G1X110783Y129749D3*
G1X110783Y123844D3*
G1X101366Y145532D3*
G1X101366Y151437D3*
G1X171394Y140344D3*
G1X171394Y146249D3*
G1X165366Y146032D3*
G1X165366Y151937D3*
G1X176494Y140344D3*
G1X176494Y146249D3*
G1X177294Y153344D3*
G1X177294Y159249D3*
G1X172494Y153644D3*
G1X172494Y159549D3*
G54D43*
G1X150233Y85997D3*
G1X143934Y85997D3*
G1X146634Y74897D3*
G1X152933Y74897D3*
G1X166545Y194497D3*
G1X172844Y194497D3*
G54D33*
G1X104283Y122097D3*
G1X104283Y129497D3*
G1X96483Y125797D3*
G1X179394Y180097D3*
G1X179394Y187497D3*
G1X171594Y183797D3*
G1X179194Y166397D3*
G1X179194Y173797D3*
G1X171394Y170097D3*
G54D32*
G1X168183Y59797D3*
G1X155183Y59797D3*
G1X123383Y85797D3*
G1X136383Y85797D3*
G1X123183Y102897D3*
G1X136183Y102897D3*
G1X97043Y267717D3*
G1X110043Y267717D3*
G1X168394Y311697D3*
G1X181394Y311697D3*
G54D31*
G1X113783Y100597D3*
G1X113783Y87597D3*
G1X154794Y304997D3*
G1X154794Y317997D3*
G54D143*
G1X146194Y42797D3*
G1X146194Y52797D3*
G1X118994Y52797D3*
G1X118994Y42797D3*
G54D29*
G1X167583Y74797D3*
G1X160183Y74797D3*
G1X163883Y66997D3*
G1X142565Y122297D3*
G1X135165Y122297D3*
G1X138865Y114497D3*
G1X90983Y113497D3*
G1X83583Y113497D3*
G1X87283Y105697D3*
G54D28*
G1X95866Y145335D3*
G1X95866Y151634D3*
G1X166194Y188846D3*
G1X166194Y182547D3*
G54D46*
G1X166883Y111293D3*
G1X157828Y83347D2*
G54D73*
G1X157828Y88847D1*
G1X175939Y83347D2*
G1X175939Y88847D1*
G1X136623Y142441D2*
G54D79*
G1X136623Y145181D1*
G1X138591Y142441D2*
G1X138591Y145181D1*
G1X140560Y142441D2*
G1X140560Y145181D1*
G1X142528Y142441D2*
G1X142528Y145181D1*
G1X144497Y142441D2*
G1X144497Y145181D1*
G1X146465Y142441D2*
G1X146465Y145181D1*
G1X148434Y142441D2*
G1X148434Y145181D1*
G1X150402Y142441D2*
G1X150402Y145181D1*
G1X152371Y142441D2*
G1X152371Y145181D1*
G1X154339Y142441D2*
G1X154339Y145181D1*
G1X156308Y142441D2*
G1X156308Y145181D1*
G1X161221Y147354D2*
G1X158481Y147354D1*
G1X161221Y149322D2*
G1X158481Y149322D1*
G1X161221Y151291D2*
G1X158481Y151291D1*
G1X161221Y153259D2*
G1X158481Y153259D1*
G1X161221Y155228D2*
G1X158481Y155228D1*
G1X161221Y157197D2*
G1X158481Y157197D1*
G1X161221Y159165D2*
G1X158481Y159165D1*
G1X161221Y161134D2*
G1X158481Y161134D1*
G1X161221Y163102D2*
G1X158481Y163102D1*
G1X161221Y164948D2*
G1X158481Y164948D1*
G1X161221Y167039D2*
G1X158481Y167039D1*
G1X156308Y169212D2*
G1X156308Y171952D1*
G1X154339Y169212D2*
G1X154339Y171952D1*
G1X152371Y169212D2*
G1X152371Y171952D1*
G1X150402Y169212D2*
G1X150402Y171952D1*
G1X148434Y169212D2*
G1X148434Y171952D1*
G1X146465Y169212D2*
G1X146465Y171952D1*
G1X144497Y169212D2*
G1X144497Y171952D1*
G1X142528Y169212D2*
G1X142528Y171952D1*
G1X140560Y169212D2*
G1X140560Y171952D1*
G1X138591Y169212D2*
G1X138591Y171952D1*
G1X136623Y169212D2*
G1X136623Y171952D1*
G1X134450Y167039D2*
G1X131710Y167039D1*
G1X134450Y165071D2*
G1X131710Y165071D1*
G1X134450Y163102D2*
G1X131710Y163102D1*
G1X134450Y161134D2*
G1X131710Y161134D1*
G1X134450Y159165D2*
G1X131710Y159165D1*
G1X134450Y157197D2*
G1X131710Y157197D1*
G1X134450Y155228D2*
G1X131710Y155228D1*
G1X134450Y153259D2*
G1X131710Y153259D1*
G1X134450Y151291D2*
G1X131710Y151291D1*
G1X134450Y149322D2*
G1X131710Y149322D1*
G1X134450Y147354D2*
G1X131710Y147354D1*
G1X142703Y268997D2*
G54D80*
G1X146286Y268997D1*
G1X142703Y263997D2*
G1X146286Y263997D1*
G1X167703Y263997D2*
G1X171286Y263997D1*
G1X167703Y268997D2*
G1X171286Y268997D1*
G54D81*
G1X146465Y157197D3*
G1X146465Y157197D3*
G1X145489Y451621D2*
G54D11*
G1X145489Y453574D1*
G1X147442Y453574D1*
G1X147442Y451621D1*
G1X145489Y451621D1*
G1X145643Y451621D2*
G1X145643Y453574D1*
G1X146543Y451621D2*
G1X146543Y453574D1*
G54D27*
G1X135118Y422698D3*
G1X129213Y422698D3*
G1X165836Y338598D3*
G1X159931Y338598D3*
G1X165536Y345098D3*
G1X159631Y345098D3*
G1X178936Y370398D3*
G1X173031Y370398D3*
G1X160914Y426386D3*
G1X166819Y426386D3*
G1X130819Y430386D3*
G1X124914Y430386D3*
G1X102836Y410798D3*
G1X96931Y410798D3*
G54D22*
G1X129665Y409345D3*
G1X129665Y415250D3*
G1X147866Y418933D3*
G1X147866Y424838D3*
G1X141866Y428338D3*
G1X141866Y422433D3*
G1X137394Y471545D3*
G1X137394Y477450D3*
G1X122883Y421950D3*
G1X122883Y416045D3*
G1X122883Y411350D3*
G1X122883Y405445D3*
G1X90383Y414945D3*
G1X90383Y420850D3*
G1X110783Y425150D3*
G1X110783Y419245D3*
G1X101366Y440933D3*
G1X101366Y446838D3*
G1X171394Y435745D3*
G1X171394Y441650D3*
G1X165366Y441433D3*
G1X165366Y447338D3*
G1X176494Y435745D3*
G1X176494Y441650D3*
G1X177294Y448745D3*
G1X177294Y454650D3*
G1X172494Y449045D3*
G1X172494Y454950D3*
G54D43*
G1X150233Y381398D3*
G1X143934Y381398D3*
G1X146634Y370298D3*
G1X152933Y370298D3*
G1X166545Y489898D3*
G1X172844Y489898D3*
G54D33*
G1X104283Y417498D3*
G1X104283Y424898D3*
G1X96483Y421198D3*
G1X179394Y475498D3*
G1X179394Y482898D3*
G1X171594Y479198D3*
G1X179194Y461798D3*
G1X179194Y469198D3*
G1X171394Y465498D3*
G54D32*
G1X168183Y355198D3*
G1X155183Y355198D3*
G1X123383Y381198D3*
G1X136383Y381198D3*
G1X123183Y398298D3*
G1X136183Y398298D3*
G1X97043Y563118D3*
G1X110043Y563118D3*
G1X168394Y607098D3*
G1X181394Y607098D3*
G54D31*
G1X113783Y395998D3*
G1X113783Y382998D3*
G1X154794Y600398D3*
G1X154794Y613398D3*
G54D143*
G1X146194Y338198D3*
G1X146194Y348198D3*
G1X118994Y348198D3*
G1X118994Y338198D3*
G54D29*
G1X167583Y370198D3*
G1X160183Y370198D3*
G1X163883Y362398D3*
G1X142565Y417698D3*
G1X135165Y417698D3*
G1X138865Y409898D3*
G1X90983Y408898D3*
G1X83583Y408898D3*
G1X87283Y401098D3*
G54D28*
G1X95866Y440736D3*
G1X95866Y447035D3*
G1X166194Y484247D3*
G1X166194Y477948D3*
G54D46*
G1X166883Y406694D3*
G1X157828Y378748D2*
G54D73*
G1X157828Y384248D1*
G1X175939Y378748D2*
G1X175939Y384248D1*
G1X136623Y437842D2*
G54D79*
G1X136623Y440582D1*
G1X138591Y437842D2*
G1X138591Y440582D1*
G1X140560Y437842D2*
G1X140560Y440582D1*
G1X142528Y437842D2*
G1X142528Y440582D1*
G1X144497Y437842D2*
G1X144497Y440582D1*
G1X146465Y437842D2*
G1X146465Y440582D1*
G1X148434Y437842D2*
G1X148434Y440582D1*
G1X150402Y437842D2*
G1X150402Y440582D1*
G1X152371Y437842D2*
G1X152371Y440582D1*
G1X154339Y437842D2*
G1X154339Y440582D1*
G1X156308Y437842D2*
G1X156308Y440582D1*
G1X161221Y442755D2*
G1X158481Y442755D1*
G1X161221Y444723D2*
G1X158481Y444723D1*
G1X161221Y446692D2*
G1X158481Y446692D1*
G1X161221Y448660D2*
G1X158481Y448660D1*
G1X161221Y450629D2*
G1X158481Y450629D1*
G1X161221Y452598D2*
G1X158481Y452598D1*
G1X161221Y454566D2*
G1X158481Y454566D1*
G1X161221Y456535D2*
G1X158481Y456535D1*
G1X161221Y458503D2*
G1X158481Y458503D1*
G1X161221Y460349D2*
G1X158481Y460349D1*
G1X161221Y462440D2*
G1X158481Y462440D1*
G1X156308Y464613D2*
G1X156308Y467353D1*
G1X154339Y464613D2*
G1X154339Y467353D1*
G1X152371Y464613D2*
G1X152371Y467353D1*
G1X150402Y464613D2*
G1X150402Y467353D1*
G1X148434Y464613D2*
G1X148434Y467353D1*
G1X146465Y464613D2*
G1X146465Y467353D1*
G1X144497Y464613D2*
G1X144497Y467353D1*
G1X142528Y464613D2*
G1X142528Y467353D1*
G1X140560Y464613D2*
G1X140560Y467353D1*
G1X138591Y464613D2*
G1X138591Y467353D1*
G1X136623Y464613D2*
G1X136623Y467353D1*
G1X134450Y462440D2*
G1X131710Y462440D1*
G1X134450Y460472D2*
G1X131710Y460472D1*
G1X134450Y458503D2*
G1X131710Y458503D1*
G1X134450Y456535D2*
G1X131710Y456535D1*
G1X134450Y454566D2*
G1X131710Y454566D1*
G1X134450Y452598D2*
G1X131710Y452598D1*
G1X134450Y450629D2*
G1X131710Y450629D1*
G1X134450Y448660D2*
G1X131710Y448660D1*
G1X134450Y446692D2*
G1X131710Y446692D1*
G1X134450Y444723D2*
G1X131710Y444723D1*
G1X134450Y442755D2*
G1X131710Y442755D1*
G1X142703Y564398D2*
G54D80*
G1X146286Y564398D1*
G1X142703Y559398D2*
G1X146286Y559398D1*
G1X167703Y559398D2*
G1X171286Y559398D1*
G1X167703Y564398D2*
G1X171286Y564398D1*
G54D81*
G1X146465Y452598D3*
G1X146465Y452598D3*
G1X145489Y747023D2*
G54D11*
G1X145489Y748976D1*
G1X147442Y748976D1*
G1X147442Y747023D1*
G1X145489Y747023D1*
G1X145643Y747023D2*
G1X145643Y748976D1*
G1X146543Y747023D2*
G1X146543Y748976D1*
G54D27*
G1X135118Y718100D3*
G1X129213Y718100D3*
G1X165836Y634000D3*
G1X159931Y634000D3*
G1X165536Y640500D3*
G1X159631Y640500D3*
G1X178936Y665800D3*
G1X173031Y665800D3*
G1X160914Y721788D3*
G1X166819Y721788D3*
G1X130819Y725788D3*
G1X124914Y725788D3*
G1X102836Y706200D3*
G1X96931Y706200D3*
G54D22*
G1X129665Y704747D3*
G1X129665Y710652D3*
G1X147866Y714335D3*
G1X147866Y720240D3*
G1X141866Y723740D3*
G1X141866Y717835D3*
G1X137394Y766947D3*
G1X137394Y772852D3*
G1X122883Y717352D3*
G1X122883Y711447D3*
G1X122883Y706752D3*
G1X122883Y700847D3*
G1X90383Y710347D3*
G1X90383Y716252D3*
G1X110783Y720552D3*
G1X110783Y714647D3*
G1X101366Y736335D3*
G1X101366Y742240D3*
G1X171394Y731147D3*
G1X171394Y737052D3*
G1X165366Y736835D3*
G1X165366Y742740D3*
G1X176494Y731147D3*
G1X176494Y737052D3*
G1X177294Y744147D3*
G1X177294Y750052D3*
G1X172494Y744447D3*
G1X172494Y750352D3*
G54D43*
G1X150233Y676800D3*
G1X143934Y676800D3*
G1X146634Y665700D3*
G1X152933Y665700D3*
G1X166545Y785300D3*
G1X172844Y785300D3*
G54D33*
G1X104283Y712900D3*
G1X104283Y720300D3*
G1X96483Y716600D3*
G1X179394Y770900D3*
G1X179394Y778300D3*
G1X171594Y774600D3*
G1X179194Y757200D3*
G1X179194Y764600D3*
G1X171394Y760900D3*
G54D32*
G1X168183Y650600D3*
G1X155183Y650600D3*
G1X123383Y676600D3*
G1X136383Y676600D3*
G1X123183Y693700D3*
G1X136183Y693700D3*
G1X97043Y858520D3*
G1X110043Y858520D3*
G1X168394Y902500D3*
G1X181394Y902500D3*
G54D31*
G1X113783Y691400D3*
G1X113783Y678400D3*
G1X154794Y895800D3*
G1X154794Y908800D3*
G54D143*
G1X146194Y633600D3*
G1X146194Y643600D3*
G1X118994Y643600D3*
G1X118994Y633600D3*
G54D29*
G1X167583Y665600D3*
G1X160183Y665600D3*
G1X163883Y657800D3*
G1X142565Y713100D3*
G1X135165Y713100D3*
G1X138865Y705300D3*
G1X90983Y704300D3*
G1X83583Y704300D3*
G1X87283Y696500D3*
G54D28*
G1X95866Y736138D3*
G1X95866Y742437D3*
G1X166194Y779649D3*
G1X166194Y773350D3*
G54D46*
G1X166883Y702096D3*
G1X157828Y674150D2*
G54D73*
G1X157828Y679650D1*
G1X175939Y674150D2*
G1X175939Y679650D1*
G1X136623Y733244D2*
G54D79*
G1X136623Y735984D1*
G1X138591Y733244D2*
G1X138591Y735984D1*
G1X140560Y733244D2*
G1X140560Y735984D1*
G1X142528Y733244D2*
G1X142528Y735984D1*
G1X144497Y733244D2*
G1X144497Y735984D1*
G1X146465Y733244D2*
G1X146465Y735984D1*
G1X148434Y733244D2*
G1X148434Y735984D1*
G1X150402Y733244D2*
G1X150402Y735984D1*
G1X152371Y733244D2*
G1X152371Y735984D1*
G1X154339Y733244D2*
G1X154339Y735984D1*
G1X156308Y733244D2*
G1X156308Y735984D1*
G1X161221Y738157D2*
G1X158481Y738157D1*
G1X161221Y740125D2*
G1X158481Y740125D1*
G1X161221Y742094D2*
G1X158481Y742094D1*
G1X161221Y744062D2*
G1X158481Y744062D1*
G1X161221Y746031D2*
G1X158481Y746031D1*
G1X161221Y748000D2*
G1X158481Y748000D1*
G1X161221Y749968D2*
G1X158481Y749968D1*
G1X161221Y751937D2*
G1X158481Y751937D1*
G1X161221Y753905D2*
G1X158481Y753905D1*
G1X161221Y755751D2*
G1X158481Y755751D1*
G1X161221Y757842D2*
G1X158481Y757842D1*
G1X156308Y760015D2*
G1X156308Y762755D1*
G1X154339Y760015D2*
G1X154339Y762755D1*
G1X152371Y760015D2*
G1X152371Y762755D1*
G1X150402Y760015D2*
G1X150402Y762755D1*
G1X148434Y760015D2*
G1X148434Y762755D1*
G1X146465Y760015D2*
G1X146465Y762755D1*
G1X144497Y760015D2*
G1X144497Y762755D1*
G1X142528Y760015D2*
G1X142528Y762755D1*
G1X140560Y760015D2*
G1X140560Y762755D1*
G1X138591Y760015D2*
G1X138591Y762755D1*
G1X136623Y760015D2*
G1X136623Y762755D1*
G1X134450Y757842D2*
G1X131710Y757842D1*
G1X134450Y755874D2*
G1X131710Y755874D1*
G1X134450Y753905D2*
G1X131710Y753905D1*
G1X134450Y751937D2*
G1X131710Y751937D1*
G1X134450Y749968D2*
G1X131710Y749968D1*
G1X134450Y748000D2*
G1X131710Y748000D1*
G1X134450Y746031D2*
G1X131710Y746031D1*
G1X134450Y744062D2*
G1X131710Y744062D1*
G1X134450Y742094D2*
G1X131710Y742094D1*
G1X134450Y740125D2*
G1X131710Y740125D1*
G1X134450Y738157D2*
G1X131710Y738157D1*
G1X142703Y859800D2*
G54D80*
G1X146286Y859800D1*
G1X142703Y854800D2*
G1X146286Y854800D1*
G1X167703Y854800D2*
G1X171286Y854800D1*
G1X167703Y859800D2*
G1X171286Y859800D1*
G54D81*
G1X146465Y748000D3*
G1X146465Y748000D3*
M2*
