*
%LPD*%
%LNs2b9624c.gbp*%
%FSLAX24Y24*%
%MOIN*%
%AD*%
%ADD18C,0.005906*%
%ADD19C,0.03937*%
%ADD25R,0.047244X0.066929*%
%ADD26R,0.061024X0.051181*%
%ADD27R,0.066929X0.047244*%
%ADD28R,0.035433X0.059055*%
%ADD29R,0.062992X0.100394*%
%ADD30R,0.019685X0.035433*%
%ADD31R,0.035433X0.019685*%
%ADD32R,0.051181X0.047244*%
%ADD33R,0.047244X0.031496*%
%ADD34R,0.035433X0.031496*%
%ADD35R,0.031496X0.035433*%
%ADD36R,0.051181X0.059055*%
%ADD37R,0.018898X0.04*%
G54D18*
%SRX1Y1I0.0J0.0*%
G1X75590Y3150D2*
G1X75590Y13780D1*
G1X39370Y13780D1*
G1X39370Y3150D1*
G1X75590Y3150D1*
G1X46674Y7349D2*
G1X43990Y7350D1*
G1X43991Y6950D2*
G1X43946Y6949D1*
G1X43903Y6958D1*
G1X43862Y6976D1*
G1X43827Y7003D1*
G1X43798Y7037D1*
G1X43777Y7077D1*
G1X43766Y7120D1*
G1X43764Y7164D1*
G1X43773Y7208D1*
G1X43790Y7249D1*
G1X43816Y7285D1*
G1X43850Y7315D1*
G1X43889Y7336D1*
G1X43931Y7348D1*
G1X43976Y7351D1*
G1X43990Y7350D1*
G1X43990Y6950D2*
G1X46674Y6949D1*
G1X46674Y7349D2*
G1X46718Y7350D1*
G1X46762Y7341D1*
G1X46803Y7322D1*
G1X46838Y7295D1*
G1X46867Y7261D1*
G1X46887Y7222D1*
G1X46899Y7179D1*
G1X46900Y7134D1*
G1X46892Y7091D1*
G1X46874Y7050D1*
G1X46848Y7014D1*
G1X46815Y6984D1*
G1X46776Y6963D1*
G1X46733Y6950D1*
G1X46689Y6948D1*
G1X46674Y6949D1*
G1X49691Y13106D2*
G1X48459Y13114D1*
G1X48488Y12719D2*
G1X48444Y12721D1*
G1X48402Y12732D1*
G1X48362Y12753D1*
G1X48329Y12781D1*
G1X48303Y12817D1*
G1X48285Y12857D1*
G1X48276Y12900D1*
G1X48277Y12944D1*
G1X48288Y12987D1*
G1X48309Y13026D1*
G1X48337Y13060D1*
G1X48372Y13087D1*
G1X48412Y13105D1*
G1X48456Y13114D1*
G1X48459Y13114D1*
G1X48488Y12719D2*
G1X49730Y12722D1*
G1X49691Y13106D2*
G1X49734Y13111D1*
G1X49778Y13106D1*
G1X49819Y13092D1*
G1X49856Y13069D1*
G1X49887Y13038D1*
G1X49910Y13001D1*
G1X49925Y12959D1*
G1X49930Y12916D1*
G1X49925Y12872D1*
G1X49910Y12831D1*
G1X49886Y12794D1*
G1X49855Y12763D1*
G1X49818Y12740D1*
G1X49777Y12726D1*
G1X49733Y12722D1*
G1X49730Y12722D1*
G1X49659Y9760D2*
G1X49659Y11565D1*
G1X48441Y11555D1*
G1X48441Y9750D1*
G1X48679Y9750D2*
G1X48675Y9716D1*
G1X48660Y9685D1*
G1X48638Y9659D1*
G1X48609Y9641D1*
G1X48576Y9632D1*
G1X48542Y9632D1*
G1X48509Y9642D1*
G1X48481Y9661D1*
G1X48459Y9687D1*
G1X48445Y9719D1*
G1X48441Y9750D1*
G1X48679Y9750D2*
G1X48679Y11200D1*
G1X49422Y11200D1*
G1X49422Y9750D1*
G1X49659Y9759D2*
G1X49656Y9726D1*
G1X49643Y9694D1*
G1X49621Y9667D1*
G1X49593Y9648D1*
G1X49561Y9637D1*
G1X49526Y9637D1*
G1X49494Y9645D1*
G1X49464Y9663D1*
G1X49442Y9689D1*
G1X49427Y9719D1*
G1X49422Y9750D1*
G1X75590Y13780D2*
G1X75590Y24409D1*
G1X39370Y24409D1*
G1X39370Y13780D1*
G1X75590Y13780D1*
G1X46674Y17979D2*
G1X43990Y17979D1*
G1X43991Y17579D2*
G1X43946Y17579D1*
G1X43903Y17588D1*
G1X43862Y17606D1*
G1X43827Y17633D1*
G1X43798Y17667D1*
G1X43777Y17707D1*
G1X43766Y17750D1*
G1X43764Y17794D1*
G1X43773Y17838D1*
G1X43790Y17879D1*
G1X43816Y17915D1*
G1X43850Y17944D1*
G1X43889Y17966D1*
G1X43931Y17978D1*
G1X43976Y17981D1*
G1X43990Y17979D1*
G1X43990Y17579D2*
G1X46674Y17579D1*
G1X46674Y17979D2*
G1X46718Y17980D1*
G1X46762Y17971D1*
G1X46803Y17952D1*
G1X46838Y17925D1*
G1X46867Y17891D1*
G1X46887Y17852D1*
G1X46899Y17809D1*
G1X46900Y17764D1*
G1X46892Y17720D1*
G1X46874Y17680D1*
G1X46848Y17643D1*
G1X46815Y17614D1*
G1X46776Y17593D1*
G1X46733Y17580D1*
G1X46689Y17578D1*
G1X46674Y17579D1*
G1X49691Y23736D2*
G1X48459Y23744D1*
G1X48488Y23349D2*
G1X48444Y23351D1*
G1X48402Y23362D1*
G1X48362Y23383D1*
G1X48329Y23411D1*
G1X48303Y23447D1*
G1X48285Y23487D1*
G1X48276Y23530D1*
G1X48277Y23574D1*
G1X48288Y23617D1*
G1X48309Y23656D1*
G1X48337Y23690D1*
G1X48372Y23717D1*
G1X48412Y23735D1*
G1X48456Y23744D1*
G1X48459Y23744D1*
G1X48488Y23349D2*
G1X49730Y23351D1*
G1X49691Y23736D2*
G1X49734Y23741D1*
G1X49778Y23736D1*
G1X49819Y23722D1*
G1X49856Y23699D1*
G1X49887Y23668D1*
G1X49910Y23631D1*
G1X49925Y23589D1*
G1X49930Y23546D1*
G1X49925Y23502D1*
G1X49910Y23461D1*
G1X49886Y23424D1*
G1X49855Y23393D1*
G1X49818Y23370D1*
G1X49777Y23356D1*
G1X49733Y23351D1*
G1X49730Y23351D1*
G1X49659Y20389D2*
G1X49659Y22195D1*
G1X48441Y22185D1*
G1X48441Y20379D1*
G1X48679Y20379D2*
G1X48675Y20346D1*
G1X48660Y20315D1*
G1X48638Y20289D1*
G1X48609Y20271D1*
G1X48576Y20261D1*
G1X48542Y20262D1*
G1X48509Y20272D1*
G1X48481Y20291D1*
G1X48459Y20317D1*
G1X48445Y20349D1*
G1X48441Y20379D1*
G1X48679Y20379D2*
G1X48679Y21830D1*
G1X49422Y21830D1*
G1X49422Y20379D1*
G1X49659Y20389D2*
G1X49656Y20355D1*
G1X49643Y20324D1*
G1X49621Y20297D1*
G1X49593Y20278D1*
G1X49561Y20267D1*
G1X49526Y20266D1*
G1X49494Y20275D1*
G1X49464Y20293D1*
G1X49442Y20318D1*
G1X49427Y20349D1*
G1X49422Y20379D1*
G1X75590Y24409D2*
G1X75590Y35039D1*
G1X39370Y35039D1*
G1X39370Y24409D1*
G1X75590Y24409D1*
G1X46674Y28609D2*
G1X43990Y28609D1*
G1X43991Y28209D2*
G1X43946Y28209D1*
G1X43903Y28218D1*
G1X43862Y28236D1*
G1X43827Y28263D1*
G1X43798Y28297D1*
G1X43777Y28337D1*
G1X43766Y28380D1*
G1X43764Y28424D1*
G1X43773Y28468D1*
G1X43790Y28509D1*
G1X43816Y28545D1*
G1X43850Y28574D1*
G1X43889Y28596D1*
G1X43931Y28608D1*
G1X43976Y28611D1*
G1X43990Y28609D1*
G1X43990Y28209D2*
G1X46674Y28209D1*
G1X46674Y28609D2*
G1X46718Y28610D1*
G1X46762Y28600D1*
G1X46803Y28582D1*
G1X46838Y28555D1*
G1X46867Y28521D1*
G1X46887Y28482D1*
G1X46899Y28439D1*
G1X46900Y28394D1*
G1X46892Y28350D1*
G1X46874Y28309D1*
G1X46848Y28273D1*
G1X46815Y28244D1*
G1X46776Y28223D1*
G1X46733Y28210D1*
G1X46689Y28208D1*
G1X46674Y28209D1*
G1X49691Y34366D2*
G1X48459Y34374D1*
G1X48488Y33979D2*
G1X48444Y33980D1*
G1X48402Y33992D1*
G1X48362Y34012D1*
G1X48329Y34041D1*
G1X48303Y34076D1*
G1X48285Y34117D1*
G1X48276Y34160D1*
G1X48277Y34204D1*
G1X48288Y34247D1*
G1X48309Y34286D1*
G1X48337Y34320D1*
G1X48372Y34346D1*
G1X48412Y34365D1*
G1X48456Y34373D1*
G1X48459Y34374D1*
G1X48488Y33979D2*
G1X49730Y33981D1*
G1X49691Y34366D2*
G1X49734Y34371D1*
G1X49778Y34366D1*
G1X49819Y34352D1*
G1X49856Y34328D1*
G1X49887Y34297D1*
G1X49910Y34260D1*
G1X49925Y34219D1*
G1X49930Y34175D1*
G1X49925Y34132D1*
G1X49910Y34091D1*
G1X49886Y34054D1*
G1X49855Y34023D1*
G1X49818Y34000D1*
G1X49777Y33986D1*
G1X49733Y33981D1*
G1X49730Y33981D1*
G1X49659Y31019D2*
G1X49659Y32825D1*
G1X48441Y32815D1*
G1X48441Y31009D1*
G1X48679Y31009D2*
G1X48675Y30976D1*
G1X48660Y30945D1*
G1X48638Y30919D1*
G1X48609Y30901D1*
G1X48576Y30891D1*
G1X48542Y30892D1*
G1X48509Y30902D1*
G1X48481Y30921D1*
G1X48459Y30947D1*
G1X48445Y30979D1*
G1X48441Y31009D1*
G1X48679Y31009D2*
G1X48679Y32459D1*
G1X49422Y32459D1*
G1X49422Y31009D1*
G1X49659Y31019D2*
G1X49656Y30985D1*
G1X49643Y30954D1*
G1X49621Y30927D1*
G1X49593Y30908D1*
G1X49561Y30897D1*
G1X49526Y30896D1*
G1X49494Y30905D1*
G1X49464Y30923D1*
G1X49442Y30948D1*
G1X49427Y30979D1*
G1X49422Y31009D1*
G1X75590Y35039D2*
G1X75590Y45669D1*
G1X39370Y45669D1*
G1X39370Y35039D1*
G1X75590Y35039D1*
G1X46674Y39239D2*
G1X43990Y39239D1*
G1X43991Y38839D2*
G1X43946Y38839D1*
G1X43903Y38848D1*
G1X43862Y38866D1*
G1X43827Y38893D1*
G1X43798Y38927D1*
G1X43777Y38967D1*
G1X43766Y39010D1*
G1X43764Y39054D1*
G1X43773Y39098D1*
G1X43790Y39139D1*
G1X43816Y39175D1*
G1X43850Y39204D1*
G1X43889Y39226D1*
G1X43931Y39238D1*
G1X43976Y39241D1*
G1X43990Y39239D1*
G1X43990Y38839D2*
G1X46674Y38839D1*
G1X46674Y39239D2*
G1X46718Y39240D1*
G1X46762Y39230D1*
G1X46803Y39212D1*
G1X46838Y39185D1*
G1X46867Y39151D1*
G1X46887Y39111D1*
G1X46899Y39068D1*
G1X46900Y39024D1*
G1X46892Y38980D1*
G1X46874Y38939D1*
G1X46848Y38903D1*
G1X46815Y38874D1*
G1X46776Y38852D1*
G1X46733Y38840D1*
G1X46689Y38838D1*
G1X46674Y38839D1*
G1X49691Y44996D2*
G1X48459Y45004D1*
G1X48488Y44609D2*
G1X48444Y44610D1*
G1X48402Y44622D1*
G1X48362Y44642D1*
G1X48329Y44671D1*
G1X48303Y44706D1*
G1X48285Y44747D1*
G1X48276Y44790D1*
G1X48277Y44834D1*
G1X48288Y44877D1*
G1X48309Y44916D1*
G1X48337Y44950D1*
G1X48372Y44976D1*
G1X48412Y44995D1*
G1X48456Y45003D1*
G1X48459Y45004D1*
G1X48488Y44609D2*
G1X49730Y44611D1*
G1X49691Y44996D2*
G1X49734Y45001D1*
G1X49778Y44996D1*
G1X49819Y44982D1*
G1X49856Y44958D1*
G1X49887Y44927D1*
G1X49910Y44890D1*
G1X49925Y44849D1*
G1X49930Y44805D1*
G1X49925Y44762D1*
G1X49910Y44721D1*
G1X49886Y44684D1*
G1X49855Y44653D1*
G1X49818Y44630D1*
G1X49777Y44616D1*
G1X49733Y44611D1*
G1X49730Y44611D1*
G1X49659Y41649D2*
G1X49659Y43455D1*
G1X48441Y43445D1*
G1X48441Y41639D1*
G1X48679Y41639D2*
G1X48675Y41605D1*
G1X48660Y41574D1*
G1X48638Y41549D1*
G1X48609Y41531D1*
G1X48576Y41521D1*
G1X48542Y41522D1*
G1X48509Y41532D1*
G1X48481Y41551D1*
G1X48459Y41577D1*
G1X48445Y41608D1*
G1X48441Y41639D1*
G1X48679Y41639D2*
G1X48679Y43089D1*
G1X49422Y43089D1*
G1X49422Y41639D1*
G1X49659Y41649D2*
G1X49656Y41615D1*
G1X49643Y41584D1*
G1X49621Y41557D1*
G1X49593Y41538D1*
G1X49561Y41527D1*
G1X49526Y41526D1*
G1X49494Y41535D1*
G1X49464Y41553D1*
G1X49442Y41578D1*
G1X49427Y41609D1*
G1X49422Y41639D1*
G1X75590Y45669D2*
G1X75590Y56299D1*
G1X39370Y56299D1*
G1X39370Y45669D1*
G1X75590Y45669D1*
G1X46674Y49869D2*
G1X43990Y49869D1*
G1X43991Y49469D2*
G1X43946Y49469D1*
G1X43903Y49478D1*
G1X43862Y49496D1*
G1X43827Y49523D1*
G1X43798Y49557D1*
G1X43777Y49597D1*
G1X43766Y49640D1*
G1X43764Y49684D1*
G1X43773Y49728D1*
G1X43790Y49769D1*
G1X43816Y49805D1*
G1X43850Y49834D1*
G1X43889Y49856D1*
G1X43931Y49868D1*
G1X43976Y49871D1*
G1X43990Y49869D1*
G1X43990Y49469D2*
G1X46674Y49469D1*
G1X46674Y49869D2*
G1X46718Y49870D1*
G1X46762Y49860D1*
G1X46803Y49842D1*
G1X46838Y49815D1*
G1X46867Y49781D1*
G1X46887Y49741D1*
G1X46899Y49698D1*
G1X46900Y49654D1*
G1X46892Y49610D1*
G1X46874Y49569D1*
G1X46848Y49533D1*
G1X46815Y49504D1*
G1X46776Y49482D1*
G1X46733Y49470D1*
G1X46689Y49468D1*
G1X46674Y49469D1*
G1X49691Y55626D2*
G1X48459Y55633D1*
G1X48488Y55239D2*
G1X48444Y55240D1*
G1X48402Y55252D1*
G1X48362Y55272D1*
G1X48329Y55301D1*
G1X48303Y55336D1*
G1X48285Y55376D1*
G1X48276Y55420D1*
G1X48277Y55464D1*
G1X48288Y55507D1*
G1X48309Y55546D1*
G1X48337Y55580D1*
G1X48372Y55606D1*
G1X48412Y55624D1*
G1X48456Y55633D1*
G1X48459Y55633D1*
G1X48488Y55239D2*
G1X49730Y55241D1*
G1X49691Y55626D2*
G1X49734Y55631D1*
G1X49778Y55626D1*
G1X49819Y55612D1*
G1X49856Y55588D1*
G1X49887Y55557D1*
G1X49910Y55520D1*
G1X49925Y55479D1*
G1X49930Y55435D1*
G1X49925Y55392D1*
G1X49910Y55351D1*
G1X49886Y55314D1*
G1X49855Y55283D1*
G1X49818Y55260D1*
G1X49777Y55246D1*
G1X49733Y55241D1*
G1X49730Y55241D1*
G1X49659Y52279D2*
G1X49659Y54085D1*
G1X48441Y54075D1*
G1X48441Y52269D1*
G1X48679Y52269D2*
G1X48675Y52235D1*
G1X48660Y52204D1*
G1X48638Y52179D1*
G1X48609Y52161D1*
G1X48576Y52151D1*
G1X48542Y52152D1*
G1X48509Y52162D1*
G1X48481Y52181D1*
G1X48459Y52207D1*
G1X48445Y52238D1*
G1X48441Y52269D1*
G1X48679Y52269D2*
G1X48679Y53719D1*
G1X49422Y53719D1*
G1X49422Y52269D1*
G1X49659Y52279D2*
G1X49656Y52245D1*
G1X49643Y52214D1*
G1X49621Y52187D1*
G1X49593Y52168D1*
G1X49561Y52157D1*
G1X49526Y52156D1*
G1X49494Y52165D1*
G1X49464Y52183D1*
G1X49442Y52208D1*
G1X49427Y52239D1*
G1X49422Y52269D1*
G1X75590Y56299D2*
G1X75590Y66929D1*
G1X39370Y66929D1*
G1X39370Y56299D1*
G1X75590Y56299D1*
G1X46674Y60499D2*
G1X43990Y60499D1*
G1X43991Y60099D2*
G1X43946Y60098D1*
G1X43903Y60107D1*
G1X43862Y60126D1*
G1X43827Y60153D1*
G1X43798Y60187D1*
G1X43777Y60226D1*
G1X43766Y60269D1*
G1X43764Y60314D1*
G1X43773Y60358D1*
G1X43790Y60399D1*
G1X43816Y60435D1*
G1X43850Y60464D1*
G1X43889Y60485D1*
G1X43931Y60498D1*
G1X43976Y60500D1*
G1X43990Y60499D1*
G1X43990Y60099D2*
G1X46674Y60099D1*
G1X46674Y60499D2*
G1X46718Y60499D1*
G1X46762Y60490D1*
G1X46803Y60472D1*
G1X46838Y60445D1*
G1X46867Y60411D1*
G1X46887Y60371D1*
G1X46899Y60328D1*
G1X46900Y60284D1*
G1X46892Y60240D1*
G1X46874Y60199D1*
G1X46848Y60163D1*
G1X46815Y60134D1*
G1X46776Y60112D1*
G1X46733Y60100D1*
G1X46689Y60097D1*
G1X46674Y60099D1*
G1X49691Y66256D2*
G1X48459Y66263D1*
G1X48488Y65869D2*
G1X48444Y65870D1*
G1X48402Y65882D1*
G1X48362Y65902D1*
G1X48329Y65931D1*
G1X48303Y65966D1*
G1X48285Y66006D1*
G1X48276Y66050D1*
G1X48277Y66094D1*
G1X48288Y66136D1*
G1X48309Y66176D1*
G1X48337Y66209D1*
G1X48372Y66236D1*
G1X48412Y66254D1*
G1X48456Y66263D1*
G1X48459Y66263D1*
G1X48488Y65869D2*
G1X49730Y65871D1*
G1X49691Y66256D2*
G1X49734Y66261D1*
G1X49778Y66256D1*
G1X49819Y66241D1*
G1X49856Y66218D1*
G1X49887Y66187D1*
G1X49910Y66150D1*
G1X49925Y66109D1*
G1X49930Y66065D1*
G1X49925Y66022D1*
G1X49910Y65980D1*
G1X49886Y65944D1*
G1X49855Y65913D1*
G1X49818Y65890D1*
G1X49777Y65875D1*
G1X49733Y65871D1*
G1X49730Y65871D1*
G1X49659Y62909D2*
G1X49659Y64715D1*
G1X48441Y64705D1*
G1X48441Y62899D1*
G1X48679Y62899D2*
G1X48675Y62865D1*
G1X48660Y62834D1*
G1X48638Y62809D1*
G1X48609Y62790D1*
G1X48576Y62781D1*
G1X48542Y62782D1*
G1X48509Y62792D1*
G1X48481Y62811D1*
G1X48459Y62837D1*
G1X48445Y62868D1*
G1X48441Y62899D1*
G1X48679Y62899D2*
G1X48679Y64349D1*
G1X49422Y64349D1*
G1X49422Y62899D1*
G1X49659Y62909D2*
G1X49656Y62875D1*
G1X49643Y62843D1*
G1X49621Y62817D1*
G1X49593Y62798D1*
G1X49561Y62787D1*
G1X49526Y62786D1*
G1X49494Y62795D1*
G1X49464Y62813D1*
G1X49442Y62838D1*
G1X49427Y62869D1*
G1X49422Y62899D1*
G1X39370Y3150D2*
G1X39370Y13780D1*
G1X3150Y13780D1*
G1X3150Y3150D1*
G1X39370Y3150D1*
G1X10454Y7349D2*
G1X7770Y7350D1*
G1X7770Y6950D2*
G1X7726Y6949D1*
G1X7682Y6958D1*
G1X7642Y6976D1*
G1X7606Y7003D1*
G1X7577Y7037D1*
G1X7557Y7077D1*
G1X7546Y7120D1*
G1X7544Y7164D1*
G1X7552Y7208D1*
G1X7570Y7249D1*
G1X7596Y7285D1*
G1X7629Y7315D1*
G1X7668Y7336D1*
G1X7711Y7348D1*
G1X7755Y7351D1*
G1X7770Y7350D1*
G1X7770Y6950D2*
G1X10454Y6949D1*
G1X10453Y7349D2*
G1X10498Y7350D1*
G1X10542Y7341D1*
G1X10582Y7322D1*
G1X10618Y7295D1*
G1X10646Y7261D1*
G1X10667Y7222D1*
G1X10678Y7179D1*
G1X10680Y7134D1*
G1X10672Y7091D1*
G1X10654Y7050D1*
G1X10628Y7014D1*
G1X10594Y6984D1*
G1X10555Y6963D1*
G1X10513Y6950D1*
G1X10468Y6948D1*
G1X10454Y6949D1*
G1X13470Y13106D2*
G1X12238Y13114D1*
G1X12268Y12719D2*
G1X12224Y12721D1*
G1X12181Y12732D1*
G1X12142Y12753D1*
G1X12109Y12781D1*
G1X12082Y12817D1*
G1X12064Y12857D1*
G1X12056Y12900D1*
G1X12057Y12944D1*
G1X12068Y12987D1*
G1X12088Y13026D1*
G1X12117Y13060D1*
G1X12152Y13087D1*
G1X12192Y13105D1*
G1X12235Y13114D1*
G1X12238Y13114D1*
G1X12268Y12719D2*
G1X13510Y12722D1*
G1X13471Y13106D2*
G1X13514Y13111D1*
G1X13558Y13106D1*
G1X13599Y13092D1*
G1X13636Y13069D1*
G1X13667Y13038D1*
G1X13690Y13001D1*
G1X13704Y12959D1*
G1X13709Y12916D1*
G1X13704Y12872D1*
G1X13689Y12831D1*
G1X13666Y12794D1*
G1X13635Y12763D1*
G1X13598Y12740D1*
G1X13556Y12726D1*
G1X13513Y12722D1*
G1X13510Y12722D1*
G1X13439Y9760D2*
G1X13439Y11565D1*
G1X12221Y11555D1*
G1X12221Y9750D1*
G1X12459Y9750D2*
G1X12454Y9716D1*
G1X12440Y9685D1*
G1X12417Y9659D1*
G1X12388Y9641D1*
G1X12356Y9632D1*
G1X12321Y9632D1*
G1X12289Y9642D1*
G1X12260Y9661D1*
G1X12239Y9687D1*
G1X12225Y9719D1*
G1X12221Y9750D1*
G1X12459Y9750D2*
G1X12459Y11200D1*
G1X13201Y11200D1*
G1X13201Y9750D1*
G1X13439Y9759D2*
G1X13435Y9726D1*
G1X13422Y9694D1*
G1X13401Y9667D1*
G1X13373Y9648D1*
G1X13340Y9637D1*
G1X13306Y9637D1*
G1X13273Y9645D1*
G1X13244Y9663D1*
G1X13221Y9689D1*
G1X13206Y9719D1*
G1X13201Y9750D1*
G1X39370Y13780D2*
G1X39370Y24409D1*
G1X3150Y24409D1*
G1X3150Y13780D1*
G1X39370Y13780D1*
G1X10454Y17979D2*
G1X7770Y17979D1*
G1X7770Y17579D2*
G1X7726Y17579D1*
G1X7682Y17588D1*
G1X7642Y17606D1*
G1X7606Y17633D1*
G1X7577Y17667D1*
G1X7557Y17707D1*
G1X7546Y17750D1*
G1X7544Y17794D1*
G1X7552Y17838D1*
G1X7570Y17879D1*
G1X7596Y17915D1*
G1X7629Y17944D1*
G1X7668Y17966D1*
G1X7711Y17978D1*
G1X7755Y17981D1*
G1X7770Y17979D1*
G1X7770Y17579D2*
G1X10454Y17579D1*
G1X10453Y17979D2*
G1X10498Y17980D1*
G1X10542Y17971D1*
G1X10582Y17952D1*
G1X10618Y17925D1*
G1X10646Y17891D1*
G1X10667Y17852D1*
G1X10678Y17809D1*
G1X10680Y17764D1*
G1X10672Y17720D1*
G1X10654Y17680D1*
G1X10628Y17643D1*
G1X10594Y17614D1*
G1X10555Y17593D1*
G1X10513Y17580D1*
G1X10468Y17578D1*
G1X10454Y17579D1*
G1X13470Y23736D2*
G1X12238Y23744D1*
G1X12268Y23349D2*
G1X12224Y23351D1*
G1X12181Y23362D1*
G1X12142Y23383D1*
G1X12109Y23411D1*
G1X12082Y23447D1*
G1X12064Y23487D1*
G1X12056Y23530D1*
G1X12057Y23574D1*
G1X12068Y23617D1*
G1X12088Y23656D1*
G1X12117Y23690D1*
G1X12152Y23717D1*
G1X12192Y23735D1*
G1X12235Y23744D1*
G1X12238Y23744D1*
G1X12268Y23349D2*
G1X13510Y23351D1*
G1X13471Y23736D2*
G1X13514Y23741D1*
G1X13558Y23736D1*
G1X13599Y23722D1*
G1X13636Y23699D1*
G1X13667Y23668D1*
G1X13690Y23631D1*
G1X13704Y23589D1*
G1X13709Y23546D1*
G1X13704Y23502D1*
G1X13689Y23461D1*
G1X13666Y23424D1*
G1X13635Y23393D1*
G1X13598Y23370D1*
G1X13556Y23356D1*
G1X13513Y23351D1*
G1X13510Y23351D1*
G1X13439Y20389D2*
G1X13439Y22195D1*
G1X12221Y22185D1*
G1X12221Y20379D1*
G1X12459Y20379D2*
G1X12454Y20346D1*
G1X12440Y20315D1*
G1X12417Y20289D1*
G1X12388Y20271D1*
G1X12356Y20261D1*
G1X12321Y20262D1*
G1X12289Y20272D1*
G1X12260Y20291D1*
G1X12239Y20317D1*
G1X12225Y20349D1*
G1X12221Y20379D1*
G1X12459Y20379D2*
G1X12459Y21830D1*
G1X13201Y21830D1*
G1X13201Y20379D1*
G1X13439Y20389D2*
G1X13435Y20355D1*
G1X13422Y20324D1*
G1X13401Y20297D1*
G1X13373Y20278D1*
G1X13340Y20267D1*
G1X13306Y20266D1*
G1X13273Y20275D1*
G1X13244Y20293D1*
G1X13221Y20318D1*
G1X13206Y20349D1*
G1X13201Y20379D1*
G1X39370Y24409D2*
G1X39370Y35039D1*
G1X3150Y35039D1*
G1X3150Y24409D1*
G1X39370Y24409D1*
G1X10454Y28609D2*
G1X7770Y28609D1*
G1X7770Y28209D2*
G1X7726Y28209D1*
G1X7682Y28218D1*
G1X7642Y28236D1*
G1X7606Y28263D1*
G1X7577Y28297D1*
G1X7557Y28337D1*
G1X7546Y28380D1*
G1X7544Y28424D1*
G1X7552Y28468D1*
G1X7570Y28509D1*
G1X7596Y28545D1*
G1X7629Y28574D1*
G1X7668Y28596D1*
G1X7711Y28608D1*
G1X7755Y28611D1*
G1X7770Y28609D1*
G1X7770Y28209D2*
G1X10454Y28209D1*
G1X10453Y28609D2*
G1X10498Y28610D1*
G1X10542Y28600D1*
G1X10582Y28582D1*
G1X10618Y28555D1*
G1X10646Y28521D1*
G1X10667Y28482D1*
G1X10678Y28439D1*
G1X10680Y28394D1*
G1X10672Y28350D1*
G1X10654Y28309D1*
G1X10628Y28273D1*
G1X10594Y28244D1*
G1X10555Y28223D1*
G1X10513Y28210D1*
G1X10468Y28208D1*
G1X10454Y28209D1*
G1X13470Y34366D2*
G1X12238Y34374D1*
G1X12268Y33979D2*
G1X12224Y33980D1*
G1X12181Y33992D1*
G1X12142Y34012D1*
G1X12109Y34041D1*
G1X12082Y34076D1*
G1X12064Y34117D1*
G1X12056Y34160D1*
G1X12057Y34204D1*
G1X12068Y34247D1*
G1X12088Y34286D1*
G1X12117Y34320D1*
G1X12152Y34346D1*
G1X12192Y34365D1*
G1X12235Y34373D1*
G1X12238Y34374D1*
G1X12268Y33979D2*
G1X13510Y33981D1*
G1X13471Y34366D2*
G1X13514Y34371D1*
G1X13558Y34366D1*
G1X13599Y34352D1*
G1X13636Y34328D1*
G1X13667Y34297D1*
G1X13690Y34260D1*
G1X13704Y34219D1*
G1X13709Y34175D1*
G1X13704Y34132D1*
G1X13689Y34091D1*
G1X13666Y34054D1*
G1X13635Y34023D1*
G1X13598Y34000D1*
G1X13556Y33986D1*
G1X13513Y33981D1*
G1X13510Y33981D1*
G1X13439Y31019D2*
G1X13439Y32825D1*
G1X12221Y32815D1*
G1X12221Y31009D1*
G1X12459Y31009D2*
G1X12454Y30976D1*
G1X12440Y30945D1*
G1X12417Y30919D1*
G1X12388Y30901D1*
G1X12356Y30891D1*
G1X12321Y30892D1*
G1X12289Y30902D1*
G1X12260Y30921D1*
G1X12239Y30947D1*
G1X12225Y30979D1*
G1X12221Y31009D1*
G1X12459Y31009D2*
G1X12459Y32459D1*
G1X13201Y32459D1*
G1X13201Y31009D1*
G1X13439Y31019D2*
G1X13435Y30985D1*
G1X13422Y30954D1*
G1X13401Y30927D1*
G1X13373Y30908D1*
G1X13340Y30897D1*
G1X13306Y30896D1*
G1X13273Y30905D1*
G1X13244Y30923D1*
G1X13221Y30948D1*
G1X13206Y30979D1*
G1X13201Y31009D1*
G1X39370Y35039D2*
G1X39370Y45669D1*
G1X3150Y45669D1*
G1X3150Y35039D1*
G1X39370Y35039D1*
G1X10454Y39239D2*
G1X7770Y39239D1*
G1X7770Y38839D2*
G1X7726Y38839D1*
G1X7682Y38848D1*
G1X7642Y38866D1*
G1X7606Y38893D1*
G1X7577Y38927D1*
G1X7557Y38967D1*
G1X7546Y39010D1*
G1X7544Y39054D1*
G1X7552Y39098D1*
G1X7570Y39139D1*
G1X7596Y39175D1*
G1X7629Y39204D1*
G1X7668Y39226D1*
G1X7711Y39238D1*
G1X7755Y39241D1*
G1X7770Y39239D1*
G1X7770Y38839D2*
G1X10454Y38839D1*
G1X10453Y39239D2*
G1X10498Y39240D1*
G1X10542Y39230D1*
G1X10582Y39212D1*
G1X10618Y39185D1*
G1X10646Y39151D1*
G1X10667Y39111D1*
G1X10678Y39068D1*
G1X10680Y39024D1*
G1X10672Y38980D1*
G1X10654Y38939D1*
G1X10628Y38903D1*
G1X10594Y38874D1*
G1X10555Y38852D1*
G1X10513Y38840D1*
G1X10468Y38838D1*
G1X10454Y38839D1*
G1X13470Y44996D2*
G1X12238Y45004D1*
G1X12268Y44609D2*
G1X12224Y44610D1*
G1X12181Y44622D1*
G1X12142Y44642D1*
G1X12109Y44671D1*
G1X12082Y44706D1*
G1X12064Y44747D1*
G1X12056Y44790D1*
G1X12057Y44834D1*
G1X12068Y44877D1*
G1X12088Y44916D1*
G1X12117Y44950D1*
G1X12152Y44976D1*
G1X12192Y44995D1*
G1X12235Y45003D1*
G1X12238Y45004D1*
G1X12268Y44609D2*
G1X13510Y44611D1*
G1X13471Y44996D2*
G1X13514Y45001D1*
G1X13558Y44996D1*
G1X13599Y44982D1*
G1X13636Y44958D1*
G1X13667Y44927D1*
G1X13690Y44890D1*
G1X13704Y44849D1*
G1X13709Y44805D1*
G1X13704Y44762D1*
G1X13689Y44721D1*
G1X13666Y44684D1*
G1X13635Y44653D1*
G1X13598Y44630D1*
G1X13556Y44616D1*
G1X13513Y44611D1*
G1X13510Y44611D1*
G1X13439Y41649D2*
G1X13439Y43455D1*
G1X12221Y43445D1*
G1X12221Y41639D1*
G1X12459Y41639D2*
G1X12454Y41605D1*
G1X12440Y41574D1*
G1X12417Y41549D1*
G1X12388Y41531D1*
G1X12356Y41521D1*
G1X12321Y41522D1*
G1X12289Y41532D1*
G1X12260Y41551D1*
G1X12239Y41577D1*
G1X12225Y41608D1*
G1X12221Y41639D1*
G1X12459Y41639D2*
G1X12459Y43089D1*
G1X13201Y43089D1*
G1X13201Y41639D1*
G1X13439Y41649D2*
G1X13435Y41615D1*
G1X13422Y41584D1*
G1X13401Y41557D1*
G1X13373Y41538D1*
G1X13340Y41527D1*
G1X13306Y41526D1*
G1X13273Y41535D1*
G1X13244Y41553D1*
G1X13221Y41578D1*
G1X13206Y41609D1*
G1X13201Y41639D1*
G1X39370Y45669D2*
G1X39370Y56299D1*
G1X3150Y56299D1*
G1X3150Y45669D1*
G1X39370Y45669D1*
G1X10454Y49869D2*
G1X7770Y49869D1*
G1X7770Y49469D2*
G1X7726Y49469D1*
G1X7682Y49478D1*
G1X7642Y49496D1*
G1X7606Y49523D1*
G1X7577Y49557D1*
G1X7557Y49597D1*
G1X7546Y49640D1*
G1X7544Y49684D1*
G1X7552Y49728D1*
G1X7570Y49769D1*
G1X7596Y49805D1*
G1X7629Y49834D1*
G1X7668Y49856D1*
G1X7711Y49868D1*
G1X7755Y49871D1*
G1X7770Y49869D1*
G1X7770Y49469D2*
G1X10454Y49469D1*
G1X10453Y49869D2*
G1X10498Y49870D1*
G1X10542Y49860D1*
G1X10582Y49842D1*
G1X10618Y49815D1*
G1X10646Y49781D1*
G1X10667Y49741D1*
G1X10678Y49698D1*
G1X10680Y49654D1*
G1X10672Y49610D1*
G1X10654Y49569D1*
G1X10628Y49533D1*
G1X10594Y49504D1*
G1X10555Y49482D1*
G1X10513Y49470D1*
G1X10468Y49468D1*
G1X10454Y49469D1*
G1X13470Y55626D2*
G1X12238Y55633D1*
G1X12268Y55239D2*
G1X12224Y55240D1*
G1X12181Y55252D1*
G1X12142Y55272D1*
G1X12109Y55301D1*
G1X12082Y55336D1*
G1X12064Y55376D1*
G1X12056Y55420D1*
G1X12057Y55464D1*
G1X12068Y55507D1*
G1X12088Y55546D1*
G1X12117Y55580D1*
G1X12152Y55606D1*
G1X12192Y55624D1*
G1X12235Y55633D1*
G1X12238Y55633D1*
G1X12268Y55239D2*
G1X13510Y55241D1*
G1X13471Y55626D2*
G1X13514Y55631D1*
G1X13558Y55626D1*
G1X13599Y55612D1*
G1X13636Y55588D1*
G1X13667Y55557D1*
G1X13690Y55520D1*
G1X13704Y55479D1*
G1X13709Y55435D1*
G1X13704Y55392D1*
G1X13689Y55351D1*
G1X13666Y55314D1*
G1X13635Y55283D1*
G1X13598Y55260D1*
G1X13556Y55246D1*
G1X13513Y55241D1*
G1X13510Y55241D1*
G1X13439Y52279D2*
G1X13439Y54085D1*
G1X12221Y54075D1*
G1X12221Y52269D1*
G1X12459Y52269D2*
G1X12454Y52235D1*
G1X12440Y52204D1*
G1X12417Y52179D1*
G1X12388Y52161D1*
G1X12356Y52151D1*
G1X12321Y52152D1*
G1X12289Y52162D1*
G1X12260Y52181D1*
G1X12239Y52207D1*
G1X12225Y52238D1*
G1X12221Y52269D1*
G1X12459Y52269D2*
G1X12459Y53719D1*
G1X13201Y53719D1*
G1X13201Y52269D1*
G1X13439Y52279D2*
G1X13435Y52245D1*
G1X13422Y52214D1*
G1X13401Y52187D1*
G1X13373Y52168D1*
G1X13340Y52157D1*
G1X13306Y52156D1*
G1X13273Y52165D1*
G1X13244Y52183D1*
G1X13221Y52208D1*
G1X13206Y52239D1*
G1X13201Y52269D1*
G1X39370Y56299D2*
G1X39370Y66929D1*
G1X3150Y66929D1*
G1X3150Y56299D1*
G1X39370Y56299D1*
G1X10454Y60499D2*
G1X7770Y60499D1*
G1X7770Y60099D2*
G1X7726Y60098D1*
G1X7682Y60107D1*
G1X7642Y60126D1*
G1X7606Y60153D1*
G1X7577Y60187D1*
G1X7557Y60226D1*
G1X7546Y60269D1*
G1X7544Y60314D1*
G1X7552Y60358D1*
G1X7570Y60399D1*
G1X7596Y60435D1*
G1X7629Y60464D1*
G1X7668Y60485D1*
G1X7711Y60498D1*
G1X7755Y60500D1*
G1X7770Y60499D1*
G1X7770Y60099D2*
G1X10454Y60099D1*
G1X10453Y60499D2*
G1X10498Y60499D1*
G1X10542Y60490D1*
G1X10582Y60472D1*
G1X10618Y60445D1*
G1X10646Y60411D1*
G1X10667Y60371D1*
G1X10678Y60328D1*
G1X10680Y60284D1*
G1X10672Y60240D1*
G1X10654Y60199D1*
G1X10628Y60163D1*
G1X10594Y60134D1*
G1X10555Y60112D1*
G1X10513Y60100D1*
G1X10468Y60097D1*
G1X10454Y60099D1*
G1X13470Y66256D2*
G1X12238Y66263D1*
G1X12268Y65869D2*
G1X12224Y65870D1*
G1X12181Y65882D1*
G1X12142Y65902D1*
G1X12109Y65931D1*
G1X12082Y65966D1*
G1X12064Y66006D1*
G1X12056Y66050D1*
G1X12057Y66094D1*
G1X12068Y66136D1*
G1X12088Y66176D1*
G1X12117Y66209D1*
G1X12152Y66236D1*
G1X12192Y66254D1*
G1X12235Y66263D1*
G1X12238Y66263D1*
G1X12268Y65869D2*
G1X13510Y65871D1*
G1X13471Y66256D2*
G1X13514Y66261D1*
G1X13558Y66256D1*
G1X13599Y66241D1*
G1X13636Y66218D1*
G1X13667Y66187D1*
G1X13690Y66150D1*
G1X13704Y66109D1*
G1X13709Y66065D1*
G1X13704Y66022D1*
G1X13689Y65980D1*
G1X13666Y65944D1*
G1X13635Y65913D1*
G1X13598Y65890D1*
G1X13556Y65875D1*
G1X13513Y65871D1*
G1X13510Y65871D1*
G1X13439Y62909D2*
G1X13439Y64715D1*
G1X12221Y64705D1*
G1X12221Y62899D1*
G1X12459Y62899D2*
G1X12454Y62865D1*
G1X12440Y62834D1*
G1X12417Y62809D1*
G1X12388Y62790D1*
G1X12356Y62781D1*
G1X12321Y62782D1*
G1X12289Y62792D1*
G1X12260Y62811D1*
G1X12239Y62837D1*
G1X12225Y62868D1*
G1X12221Y62899D1*
G1X12459Y62899D2*
G1X12459Y64349D1*
G1X13201Y64349D1*
G1X13201Y62899D1*
G1X13439Y62909D2*
G1X13435Y62875D1*
G1X13422Y62843D1*
G1X13401Y62817D1*
G1X13373Y62798D1*
G1X13340Y62787D1*
G1X13306Y62786D1*
G1X13273Y62795D1*
G1X13244Y62813D1*
G1X13221Y62838D1*
G1X13206Y62869D1*
G1X13201Y62899D1*
G1X77559Y0D2*
G1X75590Y0D1*
G1X75590Y70079D1*
G1X77559Y70079D1*
G1X78740Y68897D2*
G1X78740Y1181D1*
G1X3150Y0D2*
G1X3150Y70079D1*
G1X1181Y70079D1*
G1X0Y68897D2*
G1X0Y1181D1*
G1X78740Y1181D2*
G1X78740Y3150D1*
G1X0Y3150D1*
G1X0Y1181D1*
G1X1181Y0D2*
G1X77559Y0D1*
G1X78740Y68897D2*
G1X78740Y66929D1*
G1X0Y66929D1*
G1X0Y68897D1*
G1X1181Y70079D2*
G1X77559Y70079D1*
G1X39370Y66929D2*
G1X39370Y70079D1*
G1X3150Y56299D2*
G1X0Y56299D1*
G1X3150Y45669D2*
G1X0Y45669D1*
G1X3150Y35039D2*
G1X0Y35039D1*
G1X3150Y24409D2*
G1X0Y24409D1*
G1X3150Y13780D2*
G1X0Y13780D1*
G1X75590Y13780D2*
G1X78740Y13780D1*
G1X75590Y24409D2*
G1X78740Y24409D1*
G1X75590Y35039D2*
G1X78740Y35039D1*
G1X75590Y45669D2*
G1X78740Y45669D1*
G1X75590Y56299D2*
G1X78740Y56299D1*
G1X39370Y3150D2*
G1X39370Y0D1*
G1X78740Y1181D2*
G1X77559Y0D1*
G1X78740Y68897D2*
G1X77555Y70083D1*
G1X1181Y70079D2*
G1X0Y68897D1*
G1X1181Y0D2*
G1X0Y1181D1*
G54D19*
G1X72834Y1968D3*
G1X72834Y68110D3*
G1X5906Y68110D3*
G1X5906Y1968D3*
G54D25*
G1X7150Y13230D3*
G1X7150Y23860D3*
G1X7150Y34489D3*
G1X7150Y45119D3*
G1X7150Y55749D3*
G1X7150Y66379D3*
G1X8450Y13230D3*
G1X8450Y23860D3*
G1X8450Y34489D3*
G1X8450Y45119D3*
G1X8450Y55749D3*
G1X8450Y66379D3*
G1X10110Y12740D3*
G1X10110Y23370D3*
G1X10110Y33999D3*
G1X10110Y44629D3*
G1X10110Y55259D3*
G1X10110Y65889D3*
G1X11410Y12740D3*
G1X11410Y23370D3*
G1X11410Y33999D3*
G1X11410Y44629D3*
G1X11410Y55259D3*
G1X11410Y65889D3*
G1X16024Y8040D3*
G1X16024Y8950D3*
G1X16024Y18669D3*
G1X16024Y19579D3*
G1X16024Y29299D3*
G1X16024Y30209D3*
G1X16024Y39929D3*
G1X16024Y40839D3*
G1X16024Y50559D3*
G1X16024Y51469D3*
G1X16024Y61189D3*
G1X16024Y62099D3*
G1X17324Y8040D3*
G1X17324Y8950D3*
G1X17324Y18669D3*
G1X17324Y19579D3*
G1X17324Y29299D3*
G1X17324Y30209D3*
G1X17324Y39929D3*
G1X17324Y40839D3*
G1X17324Y50559D3*
G1X17324Y51469D3*
G1X17324Y61189D3*
G1X17324Y62099D3*
G1X18070Y7850D3*
G1X18070Y8850D3*
G1X18070Y18479D3*
G1X18070Y19479D3*
G1X18070Y29109D3*
G1X18070Y30109D3*
G1X18070Y39739D3*
G1X18070Y40739D3*
G1X18070Y50369D3*
G1X18070Y51369D3*
G1X18070Y60999D3*
G1X18070Y61999D3*
G1X19370Y7850D3*
G1X19370Y8850D3*
G1X19370Y18479D3*
G1X19370Y19479D3*
G1X19370Y29109D3*
G1X19370Y30109D3*
G1X19370Y39739D3*
G1X19370Y40739D3*
G1X19370Y50369D3*
G1X19370Y51369D3*
G1X19370Y60999D3*
G1X19370Y61999D3*
G1X43370Y13230D3*
G1X43370Y23860D3*
G1X43370Y34489D3*
G1X43370Y45119D3*
G1X43370Y55749D3*
G1X43370Y66379D3*
G1X44670Y13230D3*
G1X44670Y23860D3*
G1X44670Y34489D3*
G1X44670Y45119D3*
G1X44670Y55749D3*
G1X44670Y66379D3*
G1X46330Y12740D3*
G1X46330Y23370D3*
G1X46330Y33999D3*
G1X46330Y44629D3*
G1X46330Y55259D3*
G1X46330Y65889D3*
G1X47630Y12740D3*
G1X47630Y23370D3*
G1X47630Y33999D3*
G1X47630Y44629D3*
G1X47630Y55259D3*
G1X47630Y65889D3*
G1X52244Y8040D3*
G1X52244Y8950D3*
G1X52244Y18669D3*
G1X52244Y19579D3*
G1X52244Y29299D3*
G1X52244Y30209D3*
G1X52244Y39929D3*
G1X52244Y40839D3*
G1X52244Y50559D3*
G1X52244Y51469D3*
G1X52244Y61189D3*
G1X52244Y62099D3*
G1X53544Y8040D3*
G1X53544Y8950D3*
G1X53544Y18669D3*
G1X53544Y19579D3*
G1X53544Y29299D3*
G1X53544Y30209D3*
G1X53544Y39929D3*
G1X53544Y40839D3*
G1X53544Y50559D3*
G1X53544Y51469D3*
G1X53544Y61189D3*
G1X53544Y62099D3*
G1X54290Y7850D3*
G1X54290Y8850D3*
G1X54290Y18479D3*
G1X54290Y19479D3*
G1X54290Y29109D3*
G1X54290Y30109D3*
G1X54290Y39739D3*
G1X54290Y40739D3*
G1X54290Y50369D3*
G1X54290Y51369D3*
G1X54290Y60999D3*
G1X54290Y61999D3*
G1X55590Y7850D3*
G1X55590Y8850D3*
G1X55590Y18479D3*
G1X55590Y19479D3*
G1X55590Y29109D3*
G1X55590Y30109D3*
G1X55590Y39739D3*
G1X55590Y40739D3*
G1X55590Y50369D3*
G1X55590Y51369D3*
G1X55590Y60999D3*
G1X55590Y61999D3*
G54D26*
G1X7940Y10820D3*
G1X7940Y12280D3*
G1X7940Y21450D3*
G1X7940Y22910D3*
G1X7940Y32079D3*
G1X7940Y33539D3*
G1X7940Y42709D3*
G1X7940Y44169D3*
G1X7940Y53339D3*
G1X7940Y54799D3*
G1X7940Y63969D3*
G1X7940Y65429D3*
G1X19520Y11830D3*
G1X19520Y13290D3*
G1X19520Y22460D3*
G1X19520Y23920D3*
G1X19520Y33089D3*
G1X19520Y34549D3*
G1X19520Y43719D3*
G1X19520Y45179D3*
G1X19520Y54349D3*
G1X19520Y55809D3*
G1X19520Y64979D3*
G1X19520Y66439D3*
G1X44160Y10820D3*
G1X44160Y12280D3*
G1X44160Y21450D3*
G1X44160Y22910D3*
G1X44160Y32079D3*
G1X44160Y33539D3*
G1X44160Y42709D3*
G1X44160Y44169D3*
G1X44160Y53339D3*
G1X44160Y54799D3*
G1X44160Y63969D3*
G1X44160Y65429D3*
G1X55740Y11830D3*
G1X55740Y13290D3*
G1X55740Y22460D3*
G1X55740Y23920D3*
G1X55740Y33089D3*
G1X55740Y34549D3*
G1X55740Y43719D3*
G1X55740Y45179D3*
G1X55740Y54349D3*
G1X55740Y55809D3*
G1X55740Y64979D3*
G1X55740Y66439D3*
G54D27*
G1X14694Y7290D3*
G1X14694Y8590D3*
G1X14694Y17919D3*
G1X14694Y19219D3*
G1X14694Y28549D3*
G1X14694Y29849D3*
G1X14694Y39179D3*
G1X14694Y40479D3*
G1X14694Y49809D3*
G1X14694Y51109D3*
G1X14694Y60439D3*
G1X14694Y61739D3*
G1X50914Y7290D3*
G1X50914Y8590D3*
G1X50914Y17919D3*
G1X50914Y19219D3*
G1X50914Y28549D3*
G1X50914Y29849D3*
G1X50914Y39179D3*
G1X50914Y40479D3*
G1X50914Y49809D3*
G1X50914Y51109D3*
G1X50914Y60439D3*
G1X50914Y61739D3*
G54D28*
G1X9013Y9524D3*
G1X9013Y11776D3*
G1X9013Y20153D3*
G1X9013Y22405D3*
G1X9013Y30783D3*
G1X9013Y33035D3*
G1X9013Y41413D3*
G1X9013Y43665D3*
G1X9013Y52043D3*
G1X9013Y54295D3*
G1X9013Y62673D3*
G1X9013Y64925D3*
G1X10627Y9524D3*
G1X10627Y11776D3*
G1X10627Y20153D3*
G1X10627Y22405D3*
G1X10627Y30783D3*
G1X10627Y33035D3*
G1X10627Y41413D3*
G1X10627Y43665D3*
G1X10627Y52043D3*
G1X10627Y54295D3*
G1X10627Y62673D3*
G1X10627Y64925D3*
G1X33703Y3824D3*
G1X33703Y6076D3*
G1X33703Y14453D3*
G1X33703Y16705D3*
G1X33703Y25083D3*
G1X33703Y27335D3*
G1X33703Y35713D3*
G1X33703Y37965D3*
G1X33703Y46343D3*
G1X33703Y48595D3*
G1X33703Y56973D3*
G1X33703Y59225D3*
G1X35317Y3824D3*
G1X35317Y6076D3*
G1X35317Y14453D3*
G1X35317Y16705D3*
G1X35317Y25083D3*
G1X35317Y27335D3*
G1X35317Y35713D3*
G1X35317Y37965D3*
G1X35317Y46343D3*
G1X35317Y48595D3*
G1X35317Y56973D3*
G1X35317Y59225D3*
G1X45233Y9524D3*
G1X45233Y11776D3*
G1X45233Y20153D3*
G1X45233Y22405D3*
G1X45233Y30783D3*
G1X45233Y33035D3*
G1X45233Y41413D3*
G1X45233Y43665D3*
G1X45233Y52043D3*
G1X45233Y54295D3*
G1X45233Y62673D3*
G1X45233Y64925D3*
G1X46848Y9524D3*
G1X46848Y11776D3*
G1X46848Y20153D3*
G1X46848Y22405D3*
G1X46848Y30783D3*
G1X46848Y33035D3*
G1X46848Y41413D3*
G1X46848Y43665D3*
G1X46848Y52043D3*
G1X46848Y54295D3*
G1X46848Y62673D3*
G1X46848Y64925D3*
G1X69923Y3824D3*
G1X69923Y6076D3*
G1X69923Y14453D3*
G1X69923Y16705D3*
G1X69923Y25083D3*
G1X69923Y27335D3*
G1X69923Y35713D3*
G1X69923Y37965D3*
G1X69923Y46343D3*
G1X69923Y48595D3*
G1X69923Y56973D3*
G1X69923Y59225D3*
G1X71537Y3824D3*
G1X71537Y6076D3*
G1X71537Y14453D3*
G1X71537Y16705D3*
G1X71537Y25083D3*
G1X71537Y27335D3*
G1X71537Y35713D3*
G1X71537Y37965D3*
G1X71537Y46343D3*
G1X71537Y48595D3*
G1X71537Y56973D3*
G1X71537Y59225D3*
G54D29*
G1X16920Y10075D3*
G1X16920Y11825D3*
G1X16920Y20704D3*
G1X16920Y22455D3*
G1X16920Y31334D3*
G1X16920Y33084D3*
G1X16920Y41964D3*
G1X16920Y43714D3*
G1X16920Y52594D3*
G1X16920Y54344D3*
G1X16920Y63224D3*
G1X16920Y64974D3*
G1X53140Y10075D3*
G1X53140Y11825D3*
G1X53140Y20704D3*
G1X53140Y22455D3*
G1X53140Y31334D3*
G1X53140Y33084D3*
G1X53140Y41964D3*
G1X53140Y43714D3*
G1X53140Y52594D3*
G1X53140Y54344D3*
G1X53140Y63224D3*
G1X53140Y64974D3*
G54D30*
G1X23468Y6538D3*
G1X23468Y7089D3*
G1X23468Y17168D3*
G1X23468Y17719D3*
G1X23468Y27798D3*
G1X23468Y28349D3*
G1X23468Y38428D3*
G1X23468Y38979D3*
G1X23468Y49057D3*
G1X23468Y49609D3*
G1X23468Y59687D3*
G1X23468Y60238D3*
G1X23822Y3506D3*
G1X23822Y4057D3*
G1X23822Y14136D3*
G1X23822Y14687D3*
G1X23822Y24766D3*
G1X23822Y25317D3*
G1X23822Y35396D3*
G1X23822Y35947D3*
G1X23822Y46026D3*
G1X23822Y46577D3*
G1X23822Y56656D3*
G1X23822Y57207D3*
G1X24059Y6538D3*
G1X24059Y7089D3*
G1X24059Y17168D3*
G1X24059Y17719D3*
G1X24059Y27798D3*
G1X24059Y28349D3*
G1X24059Y38428D3*
G1X24059Y38979D3*
G1X24059Y49057D3*
G1X24059Y49609D3*
G1X24059Y59687D3*
G1X24059Y60238D3*
G1X24413Y3506D3*
G1X24413Y4057D3*
G1X24413Y14136D3*
G1X24413Y14687D3*
G1X24413Y24766D3*
G1X24413Y25317D3*
G1X24413Y35396D3*
G1X24413Y35947D3*
G1X24413Y46026D3*
G1X24413Y46577D3*
G1X24413Y56656D3*
G1X24413Y57207D3*
G1X24458Y6981D3*
G1X24458Y17611D3*
G1X24458Y28241D3*
G1X24458Y38870D3*
G1X24458Y49500D3*
G1X24458Y60130D3*
G1X25049Y6981D3*
G1X25049Y17611D3*
G1X25049Y28241D3*
G1X25049Y38870D3*
G1X25049Y49500D3*
G1X25049Y60130D3*
G1X27051Y10593D3*
G1X27051Y11223D3*
G1X27051Y21223D3*
G1X27051Y21853D3*
G1X27051Y31853D3*
G1X27051Y32483D3*
G1X27051Y42483D3*
G1X27051Y43113D3*
G1X27051Y53113D3*
G1X27051Y53742D3*
G1X27051Y63742D3*
G1X27051Y64372D3*
G1X27641Y10593D3*
G1X27641Y11223D3*
G1X27641Y21223D3*
G1X27641Y21853D3*
G1X27641Y31853D3*
G1X27641Y32483D3*
G1X27641Y42483D3*
G1X27641Y43113D3*
G1X27641Y53113D3*
G1X27641Y53742D3*
G1X27641Y63742D3*
G1X27641Y64372D3*
G1X29234Y6232D3*
G1X29234Y16862D3*
G1X29234Y27492D3*
G1X29234Y38122D3*
G1X29234Y48752D3*
G1X29234Y59382D3*
G1X29256Y5709D3*
G1X29256Y16339D3*
G1X29256Y26969D3*
G1X29256Y37599D3*
G1X29256Y48229D3*
G1X29256Y58859D3*
G1X29824Y6232D3*
G1X29824Y16862D3*
G1X29824Y27492D3*
G1X29824Y38122D3*
G1X29824Y48752D3*
G1X29824Y59382D3*
G1X29847Y5709D3*
G1X29847Y16339D3*
G1X29847Y26969D3*
G1X29847Y37599D3*
G1X29847Y48229D3*
G1X29847Y58859D3*
G1X30093Y7285D3*
G1X30093Y17915D3*
G1X30093Y28545D3*
G1X30093Y39175D3*
G1X30093Y49805D3*
G1X30093Y60435D3*
G1X30183Y6665D3*
G1X30183Y17295D3*
G1X30183Y27925D3*
G1X30183Y38555D3*
G1X30183Y49185D3*
G1X30183Y59815D3*
G1X30683Y7285D3*
G1X30683Y17915D3*
G1X30683Y28545D3*
G1X30683Y39175D3*
G1X30683Y49805D3*
G1X30683Y60435D3*
G1X30773Y6665D3*
G1X30773Y17295D3*
G1X30773Y27925D3*
G1X30773Y38555D3*
G1X30773Y49185D3*
G1X30773Y59815D3*
G1X59688Y6538D3*
G1X59688Y7089D3*
G1X59688Y17168D3*
G1X59688Y17719D3*
G1X59688Y27798D3*
G1X59688Y28349D3*
G1X59688Y38428D3*
G1X59688Y38979D3*
G1X59688Y49057D3*
G1X59688Y49609D3*
G1X59688Y59687D3*
G1X59688Y60238D3*
G1X60043Y3506D3*
G1X60043Y4057D3*
G1X60043Y14136D3*
G1X60043Y14687D3*
G1X60043Y24766D3*
G1X60043Y25317D3*
G1X60043Y35396D3*
G1X60043Y35947D3*
G1X60043Y46026D3*
G1X60043Y46577D3*
G1X60043Y56656D3*
G1X60043Y57207D3*
G1X60279Y6538D3*
G1X60279Y7089D3*
G1X60279Y17168D3*
G1X60279Y17719D3*
G1X60279Y27798D3*
G1X60279Y28349D3*
G1X60279Y38428D3*
G1X60279Y38979D3*
G1X60279Y49057D3*
G1X60279Y49609D3*
G1X60279Y59687D3*
G1X60279Y60238D3*
G1X60633Y3506D3*
G1X60633Y4057D3*
G1X60633Y14136D3*
G1X60633Y14687D3*
G1X60633Y24766D3*
G1X60633Y25317D3*
G1X60633Y35396D3*
G1X60633Y35947D3*
G1X60633Y46026D3*
G1X60633Y46577D3*
G1X60633Y56656D3*
G1X60633Y57207D3*
G1X60679Y6981D3*
G1X60679Y17611D3*
G1X60679Y28241D3*
G1X60679Y38870D3*
G1X60679Y49500D3*
G1X60679Y60130D3*
G1X61269Y6981D3*
G1X61269Y17611D3*
G1X61269Y28241D3*
G1X61269Y38870D3*
G1X61269Y49500D3*
G1X61269Y60130D3*
G1X63271Y10593D3*
G1X63271Y11223D3*
G1X63271Y21223D3*
G1X63271Y21853D3*
G1X63271Y31853D3*
G1X63271Y32483D3*
G1X63271Y42483D3*
G1X63271Y43113D3*
G1X63271Y53113D3*
G1X63271Y53742D3*
G1X63271Y63742D3*
G1X63271Y64372D3*
G1X63862Y10593D3*
G1X63862Y11223D3*
G1X63862Y21223D3*
G1X63862Y21853D3*
G1X63862Y31853D3*
G1X63862Y32483D3*
G1X63862Y42483D3*
G1X63862Y43113D3*
G1X63862Y53113D3*
G1X63862Y53742D3*
G1X63862Y63742D3*
G1X63862Y64372D3*
G1X65454Y6232D3*
G1X65454Y16862D3*
G1X65454Y27492D3*
G1X65454Y38122D3*
G1X65454Y48752D3*
G1X65454Y59382D3*
G1X65477Y5709D3*
G1X65477Y16339D3*
G1X65477Y26969D3*
G1X65477Y37599D3*
G1X65477Y48229D3*
G1X65477Y58859D3*
G1X66045Y6232D3*
G1X66045Y16862D3*
G1X66045Y27492D3*
G1X66045Y38122D3*
G1X66045Y48752D3*
G1X66045Y59382D3*
G1X66067Y5709D3*
G1X66067Y16339D3*
G1X66067Y26969D3*
G1X66067Y37599D3*
G1X66067Y48229D3*
G1X66067Y58859D3*
G1X66313Y7285D3*
G1X66313Y17915D3*
G1X66313Y28545D3*
G1X66313Y39175D3*
G1X66313Y49805D3*
G1X66313Y60435D3*
G1X66403Y6665D3*
G1X66403Y17295D3*
G1X66403Y27925D3*
G1X66403Y38555D3*
G1X66403Y49185D3*
G1X66403Y59815D3*
G1X66904Y7285D3*
G1X66904Y17915D3*
G1X66904Y28545D3*
G1X66904Y39175D3*
G1X66904Y49805D3*
G1X66904Y60435D3*
G1X66994Y6665D3*
G1X66994Y17295D3*
G1X66994Y27925D3*
G1X66994Y38555D3*
G1X66994Y49185D3*
G1X66994Y59815D3*
G54D31*
G1X24950Y5774D3*
G1X24950Y6364D3*
G1X24950Y16403D3*
G1X24950Y16994D3*
G1X24950Y27033D3*
G1X24950Y27624D3*
G1X24950Y37663D3*
G1X24950Y38254D3*
G1X24950Y48293D3*
G1X24950Y48884D3*
G1X24950Y58923D3*
G1X24950Y59514D3*
G1X25720Y7654D3*
G1X25720Y8245D3*
G1X25720Y18284D3*
G1X25720Y18875D3*
G1X25720Y28914D3*
G1X25720Y29505D3*
G1X25720Y39544D3*
G1X25720Y40134D3*
G1X25720Y50174D3*
G1X25720Y50764D3*
G1X25720Y60804D3*
G1X25720Y61394D3*
G1X27109Y6594D3*
G1X27109Y7185D3*
G1X27109Y17224D3*
G1X27109Y17815D3*
G1X27109Y27854D3*
G1X27109Y28444D3*
G1X27109Y38484D3*
G1X27109Y39074D3*
G1X27109Y49114D3*
G1X27109Y49704D3*
G1X27109Y59744D3*
G1X27109Y60334D3*
G1X32346Y5928D3*
G1X32346Y6518D3*
G1X32346Y16557D3*
G1X32346Y17148D3*
G1X32346Y27187D3*
G1X32346Y27778D3*
G1X32346Y37817D3*
G1X32346Y38408D3*
G1X32346Y48447D3*
G1X32346Y49038D3*
G1X32346Y59077D3*
G1X32346Y59668D3*
G1X61170Y5774D3*
G1X61170Y6364D3*
G1X61170Y16403D3*
G1X61170Y16994D3*
G1X61170Y27033D3*
G1X61170Y27624D3*
G1X61170Y37663D3*
G1X61170Y38254D3*
G1X61170Y48293D3*
G1X61170Y48884D3*
G1X61170Y58923D3*
G1X61170Y59514D3*
G1X61940Y7654D3*
G1X61940Y8245D3*
G1X61940Y18284D3*
G1X61940Y18875D3*
G1X61940Y28914D3*
G1X61940Y29505D3*
G1X61940Y39544D3*
G1X61940Y40134D3*
G1X61940Y50174D3*
G1X61940Y50764D3*
G1X61940Y60804D3*
G1X61940Y61394D3*
G1X63329Y6594D3*
G1X63329Y7185D3*
G1X63329Y17224D3*
G1X63329Y17815D3*
G1X63329Y27854D3*
G1X63329Y28444D3*
G1X63329Y38484D3*
G1X63329Y39074D3*
G1X63329Y49114D3*
G1X63329Y49704D3*
G1X63329Y59744D3*
G1X63329Y60334D3*
G1X68566Y5928D3*
G1X68566Y6518D3*
G1X68566Y16557D3*
G1X68566Y17148D3*
G1X68566Y27187D3*
G1X68566Y27778D3*
G1X68566Y37817D3*
G1X68566Y38408D3*
G1X68566Y48447D3*
G1X68566Y49038D3*
G1X68566Y59077D3*
G1X68566Y59668D3*
G54D32*
G1X32346Y7013D3*
G1X32346Y7873D3*
G1X32346Y17643D3*
G1X32346Y18503D3*
G1X32346Y28273D3*
G1X32346Y29133D3*
G1X32346Y38903D3*
G1X32346Y39763D3*
G1X32346Y49533D3*
G1X32346Y50393D3*
G1X32346Y60163D3*
G1X32346Y61023D3*
G1X68566Y7013D3*
G1X68566Y7873D3*
G1X68566Y17643D3*
G1X68566Y18503D3*
G1X68566Y28273D3*
G1X68566Y29133D3*
G1X68566Y38903D3*
G1X68566Y39763D3*
G1X68566Y49533D3*
G1X68566Y50393D3*
G1X68566Y60163D3*
G1X68566Y61023D3*
G54D33*
G1X25698Y6590D3*
G1X25698Y7220D3*
G1X25698Y17220D3*
G1X25698Y17850D3*
G1X25698Y27850D3*
G1X25698Y28480D3*
G1X25698Y38480D3*
G1X25698Y39110D3*
G1X25698Y49110D3*
G1X25698Y49740D3*
G1X25698Y59740D3*
G1X25698Y60370D3*
G1X26422Y6403D3*
G1X26422Y7033D3*
G1X26422Y17033D3*
G1X26422Y17663D3*
G1X26422Y27663D3*
G1X26422Y28292D3*
G1X26422Y38292D3*
G1X26422Y38922D3*
G1X26422Y48922D3*
G1X26422Y49552D3*
G1X26422Y59552D3*
G1X26422Y60182D3*
G1X27274Y5641D3*
G1X27274Y6271D3*
G1X27274Y16271D3*
G1X27274Y16901D3*
G1X27274Y26901D3*
G1X27274Y27531D3*
G1X27274Y37531D3*
G1X27274Y38161D3*
G1X27274Y48161D3*
G1X27274Y48791D3*
G1X27274Y58790D3*
G1X27274Y59420D3*
G1X61918Y6590D3*
G1X61918Y7220D3*
G1X61918Y17220D3*
G1X61918Y17850D3*
G1X61918Y27850D3*
G1X61918Y28480D3*
G1X61918Y38480D3*
G1X61918Y39110D3*
G1X61918Y49110D3*
G1X61918Y49740D3*
G1X61918Y59740D3*
G1X61918Y60370D3*
G1X62642Y6403D3*
G1X62642Y7033D3*
G1X62642Y17033D3*
G1X62642Y17663D3*
G1X62642Y27663D3*
G1X62642Y28292D3*
G1X62642Y38292D3*
G1X62642Y38922D3*
G1X62642Y48922D3*
G1X62642Y49552D3*
G1X62642Y59552D3*
G1X62642Y60182D3*
G1X63494Y5641D3*
G1X63494Y6271D3*
G1X63494Y16271D3*
G1X63494Y16901D3*
G1X63494Y26901D3*
G1X63494Y27531D3*
G1X63494Y37531D3*
G1X63494Y38161D3*
G1X63494Y48161D3*
G1X63494Y48791D3*
G1X63494Y58790D3*
G1X63494Y59420D3*
G54D34*
G1X27944Y5840D3*
G1X27944Y6580D3*
G1X27944Y16470D3*
G1X27944Y17210D3*
G1X27944Y27100D3*
G1X27944Y27840D3*
G1X27944Y37730D3*
G1X27944Y38470D3*
G1X27944Y48360D3*
G1X27944Y49100D3*
G1X27944Y58989D3*
G1X27944Y59729D3*
G1X28724Y6210D3*
G1X28724Y16840D3*
G1X28724Y27470D3*
G1X28724Y38100D3*
G1X28724Y48730D3*
G1X28724Y59359D3*
G1X64165Y5840D3*
G1X64165Y6580D3*
G1X64165Y16470D3*
G1X64165Y17210D3*
G1X64165Y27100D3*
G1X64165Y27840D3*
G1X64165Y37730D3*
G1X64165Y38470D3*
G1X64165Y48360D3*
G1X64165Y49100D3*
G1X64165Y58989D3*
G1X64165Y59729D3*
G1X64945Y6210D3*
G1X64945Y16840D3*
G1X64945Y27470D3*
G1X64945Y38100D3*
G1X64945Y48730D3*
G1X64945Y59359D3*
G54D35*
G1X28875Y6881D3*
G1X28875Y17510D3*
G1X28875Y28140D3*
G1X28875Y38770D3*
G1X28875Y49400D3*
G1X28875Y60030D3*
G1X29245Y7660D3*
G1X29245Y18290D3*
G1X29245Y28920D3*
G1X29245Y39550D3*
G1X29245Y50180D3*
G1X29245Y60810D3*
G1X29615Y6881D3*
G1X29615Y17510D3*
G1X29615Y28140D3*
G1X29615Y38770D3*
G1X29615Y49400D3*
G1X29615Y60030D3*
G1X65096Y6881D3*
G1X65096Y17510D3*
G1X65096Y28140D3*
G1X65096Y38770D3*
G1X65096Y49400D3*
G1X65096Y60030D3*
G1X65466Y7660D3*
G1X65466Y18290D3*
G1X65466Y28920D3*
G1X65466Y39550D3*
G1X65466Y50180D3*
G1X65466Y60810D3*
G1X65836Y6881D3*
G1X65836Y17510D3*
G1X65836Y28140D3*
G1X65836Y38770D3*
G1X65836Y49400D3*
G1X65836Y60030D3*
G54D36*
G1X28874Y4150D3*
G1X28874Y4970D3*
G1X28874Y14779D3*
G1X28874Y15599D3*
G1X28874Y25409D3*
G1X28874Y26229D3*
G1X28874Y36039D3*
G1X28874Y36859D3*
G1X28874Y46669D3*
G1X28874Y47489D3*
G1X28874Y57299D3*
G1X28874Y58119D3*
G1X30334Y4150D3*
G1X30334Y4970D3*
G1X30334Y14779D3*
G1X30334Y15599D3*
G1X30334Y25409D3*
G1X30334Y26229D3*
G1X30334Y36039D3*
G1X30334Y36859D3*
G1X30334Y46669D3*
G1X30334Y47489D3*
G1X30334Y57299D3*
G1X30334Y58119D3*
G1X65094Y4150D3*
G1X65094Y4970D3*
G1X65094Y14779D3*
G1X65094Y15599D3*
G1X65094Y25409D3*
G1X65094Y26229D3*
G1X65094Y36039D3*
G1X65094Y36859D3*
G1X65094Y46669D3*
G1X65094Y47489D3*
G1X65094Y57299D3*
G1X65094Y58119D3*
G1X66554Y4150D3*
G1X66554Y4970D3*
G1X66554Y14779D3*
G1X66554Y15599D3*
G1X66554Y25409D3*
G1X66554Y26229D3*
G1X66554Y36039D3*
G1X66554Y36859D3*
G1X66554Y46669D3*
G1X66554Y47489D3*
G1X66554Y57299D3*
G1X66554Y58119D3*
G54D37*
G1X23468Y4727D3*
G1X23468Y5908D3*
G1X23468Y15357D3*
G1X23468Y16538D3*
G1X23468Y25987D3*
G1X23468Y27168D3*
G1X23468Y36616D3*
G1X23468Y37798D3*
G1X23468Y47246D3*
G1X23468Y48428D3*
G1X23468Y57876D3*
G1X23468Y59057D3*
G1X23842Y5908D3*
G1X23842Y16538D3*
G1X23842Y27168D3*
G1X23842Y37798D3*
G1X23842Y48428D3*
G1X23842Y59057D3*
G1X24216Y4727D3*
G1X24216Y5908D3*
G1X24216Y15357D3*
G1X24216Y16538D3*
G1X24216Y25987D3*
G1X24216Y27168D3*
G1X24216Y36616D3*
G1X24216Y37798D3*
G1X24216Y47246D3*
G1X24216Y48428D3*
G1X24216Y57876D3*
G1X24216Y59057D3*
G1X59688Y4727D3*
G1X59688Y5908D3*
G1X59688Y15357D3*
G1X59688Y16538D3*
G1X59688Y25987D3*
G1X59688Y27168D3*
G1X59688Y36616D3*
G1X59688Y37798D3*
G1X59688Y47246D3*
G1X59688Y48428D3*
G1X59688Y57876D3*
G1X59688Y59057D3*
G1X60062Y5908D3*
G1X60062Y16538D3*
G1X60062Y27168D3*
G1X60062Y37798D3*
G1X60062Y48428D3*
G1X60062Y59057D3*
G1X60436Y4727D3*
G1X60436Y5908D3*
G1X60436Y15357D3*
G1X60436Y16538D3*
G1X60436Y25987D3*
G1X60436Y27168D3*
G1X60436Y36616D3*
G1X60436Y37798D3*
G1X60436Y47246D3*
G1X60436Y48428D3*
G1X60436Y57876D3*
G1X60436Y59057D3*
M2*
