G04 CAM350 V10.0.1 (Build 309) Date:  Wed May 18 17:38:44 2016 *
G04 Database: I:\9_Comet\Road safety L26 GPS\Road safety L26 GPS paste.cam *
G04 Layer 9: TextBottom *
%FSLAX24Y24*%
%MOMM*%
%SFA1.000B1.000*%

%MIA0B0*%
%IPPOS*%
%ADD71R,1.97898X0.57944*%
%ADD29C,1.00076*%
%ADD72R,0.78010X0.87916*%
%ADD73R,1.07982X1.22968*%
%ADD58R,0.48038X0.57944*%
%ADD59R,0.98076X0.53118*%
%ADD60C,0.30000*%
%ADD64R,0.53118X0.98076*%
%ADD65R,0.48038X0.27972*%
%ADD66R,0.87916X0.68104*%
%ADD67R,1.13062X0.57944*%
%ADD68R,1.17888X1.37954*%
%ADD69R,0.22000X0.58000*%
%ADD74R,0.87916X0.78010*%
%ADD75R,1.17888X0.78010*%
%ADD76R,1.58020X0.57944*%
%ADD136C,0.00000*%
%LNTextBottom*%
%LPD*%
G54D29*
X-977900Y1073150D03*
X977900Y-1073150D03*
G54D71*
X-782320Y-996823D03*
Y-981837D03*
G54D72*
X-966648Y-992784D03*
X-980643D03*
X-939444Y-819480D03*
X-953440D03*
X-755345Y-858977D03*
X-741350D03*
X-1008151Y-1006475D03*
X-994156D03*
G54D73*
X-711556Y-908279D03*
Y-884784D03*
G54D58*
X-791362Y-896976D03*
Y-886968D03*
G54D59*
X-1001141Y-1023188D03*
Y-1032688D03*
Y-1042187D03*
X-974141Y-1023188D03*
Y-1042187D03*
G54D64*
X-993242Y-846887D03*
X-1012241D03*
X-993242Y-873887D03*
X-1002741D03*
X-1012241D03*
G54D65*
X-791362Y-850468D03*
X-784352D03*
X-992962Y-833069D03*
X-999947D03*
X-957758Y-1042289D03*
X-950747D03*
X-963854Y-969975D03*
X-970839D03*
G54D66*
X-711556Y-945286D03*
Y-930275D03*
G54D67*
X-835101Y-1032586D03*
X-857606Y-1042086D03*
Y-1023087D03*
G54D68*
X-796188Y-1032510D03*
X-814172D03*
G54D69*
X-795350Y-869975D03*
X-791362D03*
X-787349D03*
X-795350Y-861974D03*
X-791362D03*
X-787349D03*
G54D74*
X-769341Y-1025474D03*
Y-1039470D03*
G54D75*
X-950189Y-958672D03*
Y-991692D03*
Y-980669D03*
Y-969670D03*
Y-947674D03*
Y-936676D03*
Y-925678D03*
Y-895680D03*
Y-884682D03*
Y-873684D03*
Y-862686D03*
Y-851687D03*
X-825449D03*
Y-862686D03*
Y-873684D03*
Y-884682D03*
Y-895680D03*
Y-925678D03*
Y-936676D03*
Y-947674D03*
Y-958672D03*
Y-969670D03*
Y-980669D03*
Y-991692D03*
G54D76*
X-946302D03*
Y-980669D03*
Y-969670D03*
Y-958672D03*
Y-947674D03*
Y-936676D03*
Y-925678D03*
Y-895680D03*
Y-884682D03*
Y-873684D03*
Y-862686D03*
Y-851687D03*
X-829462D03*
Y-862686D03*
Y-873684D03*
Y-884682D03*
Y-895680D03*
Y-925678D03*
Y-936676D03*
Y-947674D03*
Y-958672D03*
Y-969670D03*
Y-980669D03*
Y-991692D03*
G54D71*
X-439420Y-996823D03*
Y-981837D03*
G54D72*
X-623748Y-992784D03*
X-637743D03*
X-596544Y-819480D03*
X-610540D03*
X-412445Y-858977D03*
X-398450D03*
X-665251Y-1006475D03*
X-651256D03*
G54D73*
X-368656Y-908279D03*
Y-884784D03*
G54D58*
X-448462Y-896976D03*
Y-886968D03*
G54D59*
X-658241Y-1023188D03*
Y-1032688D03*
Y-1042187D03*
X-631241Y-1023188D03*
Y-1042187D03*
G54D64*
X-650342Y-846887D03*
X-669341D03*
X-650342Y-873887D03*
X-659841D03*
X-669341D03*
G54D65*
X-448462Y-850468D03*
X-441452D03*
X-650062Y-833069D03*
X-657047D03*
X-614858Y-1042289D03*
X-607847D03*
X-620954Y-969975D03*
X-627939D03*
G54D66*
X-368656Y-945286D03*
Y-930275D03*
G54D67*
X-492201Y-1032586D03*
X-514706Y-1042086D03*
Y-1023087D03*
G54D68*
X-453288Y-1032510D03*
X-471272D03*
G54D69*
X-452450Y-869975D03*
X-448462D03*
X-444449D03*
X-452450Y-861974D03*
X-448462D03*
X-444449D03*
G54D74*
X-426441Y-1025474D03*
Y-1039470D03*
G54D75*
X-607289Y-958672D03*
Y-991692D03*
Y-980669D03*
Y-969670D03*
Y-947674D03*
Y-936676D03*
Y-925678D03*
Y-895680D03*
Y-884682D03*
Y-873684D03*
Y-862686D03*
Y-851687D03*
X-482549D03*
Y-862686D03*
Y-873684D03*
Y-884682D03*
Y-895680D03*
Y-925678D03*
Y-936676D03*
Y-947674D03*
Y-958672D03*
Y-969670D03*
Y-980669D03*
Y-991692D03*
G54D76*
X-603402D03*
Y-980669D03*
Y-969670D03*
Y-958672D03*
Y-947674D03*
Y-936676D03*
Y-925678D03*
Y-895680D03*
Y-884682D03*
Y-873684D03*
Y-862686D03*
Y-851687D03*
X-486562D03*
Y-862686D03*
Y-873684D03*
Y-884682D03*
Y-895680D03*
Y-925678D03*
Y-936676D03*
Y-947674D03*
Y-958672D03*
Y-969670D03*
Y-980669D03*
Y-991692D03*
G54D71*
X-96520Y-996823D03*
Y-981837D03*
G54D72*
X-280848Y-992784D03*
X-294843D03*
X-253644Y-819480D03*
X-267640D03*
X-69545Y-858977D03*
X-55550D03*
X-322351Y-1006475D03*
X-308356D03*
G54D73*
X-25756Y-908279D03*
Y-884784D03*
G54D58*
X-105562Y-896976D03*
Y-886968D03*
G54D59*
X-315341Y-1023188D03*
Y-1032688D03*
Y-1042187D03*
X-288341Y-1023188D03*
Y-1042187D03*
G54D64*
X-307442Y-846887D03*
X-326441D03*
X-307442Y-873887D03*
X-316941D03*
X-326441D03*
G54D65*
X-105562Y-850468D03*
X-98552D03*
X-307162Y-833069D03*
X-314147D03*
X-271958Y-1042289D03*
X-264947D03*
X-278054Y-969975D03*
X-285039D03*
G54D66*
X-25756Y-945286D03*
Y-930275D03*
G54D67*
X-149301Y-1032586D03*
X-171806Y-1042086D03*
Y-1023087D03*
G54D68*
X-110388Y-1032510D03*
X-128372D03*
G54D69*
X-109550Y-869975D03*
X-105562D03*
X-101549D03*
X-109550Y-861974D03*
X-105562D03*
X-101549D03*
G54D74*
X-83541Y-1025474D03*
Y-1039470D03*
G54D75*
X-264389Y-958672D03*
Y-991692D03*
Y-980669D03*
Y-969670D03*
Y-947674D03*
Y-936676D03*
Y-925678D03*
Y-895680D03*
Y-884682D03*
Y-873684D03*
Y-862686D03*
Y-851687D03*
X-139649D03*
Y-862686D03*
Y-873684D03*
Y-884682D03*
Y-895680D03*
Y-925678D03*
Y-936676D03*
Y-947674D03*
Y-958672D03*
Y-969670D03*
Y-980669D03*
Y-991692D03*
G54D76*
X-260502D03*
Y-980669D03*
Y-969670D03*
Y-958672D03*
Y-947674D03*
Y-936676D03*
Y-925678D03*
Y-895680D03*
Y-884682D03*
Y-873684D03*
Y-862686D03*
Y-851687D03*
X-143662D03*
Y-862686D03*
Y-873684D03*
Y-884682D03*
Y-895680D03*
Y-925678D03*
Y-936676D03*
Y-947674D03*
Y-958672D03*
Y-969670D03*
Y-980669D03*
Y-991692D03*
G54D71*
X246380Y-996823D03*
Y-981837D03*
G54D72*
X62052Y-992784D03*
X48057D03*
X89256Y-819480D03*
X75260D03*
X273355Y-858977D03*
X287350D03*
X20549Y-1006475D03*
X34544D03*
G54D73*
X317144Y-908279D03*
Y-884784D03*
G54D58*
X237338Y-896976D03*
Y-886968D03*
G54D59*
X27559Y-1023188D03*
Y-1032688D03*
Y-1042187D03*
X54559Y-1023188D03*
Y-1042187D03*
G54D64*
X35458Y-846887D03*
X16459D03*
X35458Y-873887D03*
X25959D03*
X16459D03*
G54D65*
X237338Y-850468D03*
X244348D03*
X35738Y-833069D03*
X28753D03*
X70942Y-1042289D03*
X77953D03*
X64846Y-969975D03*
X57861D03*
G54D66*
X317144Y-945286D03*
Y-930275D03*
G54D67*
X193599Y-1032586D03*
X171094Y-1042086D03*
Y-1023087D03*
G54D68*
X232512Y-1032510D03*
X214528D03*
G54D69*
X233350Y-869975D03*
X237338D03*
X241351D03*
X233350Y-861974D03*
X237338D03*
X241351D03*
G54D74*
X259359Y-1025474D03*
Y-1039470D03*
G54D75*
X78511Y-958672D03*
Y-991692D03*
Y-980669D03*
Y-969670D03*
Y-947674D03*
Y-936676D03*
Y-925678D03*
Y-895680D03*
Y-884682D03*
Y-873684D03*
Y-862686D03*
Y-851687D03*
X203251D03*
Y-862686D03*
Y-873684D03*
Y-884682D03*
Y-895680D03*
Y-925678D03*
Y-936676D03*
Y-947674D03*
Y-958672D03*
Y-969670D03*
Y-980669D03*
Y-991692D03*
G54D76*
X82398D03*
Y-980669D03*
Y-969670D03*
Y-958672D03*
Y-947674D03*
Y-936676D03*
Y-925678D03*
Y-895680D03*
Y-884682D03*
Y-873684D03*
Y-862686D03*
Y-851687D03*
X199238D03*
Y-862686D03*
Y-873684D03*
Y-884682D03*
Y-895680D03*
Y-925678D03*
Y-936676D03*
Y-947674D03*
Y-958672D03*
Y-969670D03*
Y-980669D03*
Y-991692D03*
G54D71*
X589280Y-996823D03*
Y-981837D03*
G54D72*
X404952Y-992784D03*
X390957D03*
X432156Y-819480D03*
X418160D03*
X616255Y-858977D03*
X630250D03*
X363449Y-1006475D03*
X377444D03*
G54D73*
X660044Y-908279D03*
Y-884784D03*
G54D58*
X580238Y-896976D03*
Y-886968D03*
G54D59*
X370459Y-1023188D03*
Y-1032688D03*
Y-1042187D03*
X397459Y-1023188D03*
Y-1042187D03*
G54D64*
X378358Y-846887D03*
X359359D03*
X378358Y-873887D03*
X368859D03*
X359359D03*
G54D65*
X580238Y-850468D03*
X587248D03*
X378638Y-833069D03*
X371653D03*
X413842Y-1042289D03*
X420853D03*
X407746Y-969975D03*
X400761D03*
G54D66*
X660044Y-945286D03*
Y-930275D03*
G54D67*
X536499Y-1032586D03*
X513994Y-1042086D03*
Y-1023087D03*
G54D68*
X575412Y-1032510D03*
X557428D03*
G54D69*
X576250Y-869975D03*
X580238D03*
X584251D03*
X576250Y-861974D03*
X580238D03*
X584251D03*
G54D74*
X602259Y-1025474D03*
Y-1039470D03*
G54D75*
X421411Y-958672D03*
Y-991692D03*
Y-980669D03*
Y-969670D03*
Y-947674D03*
Y-936676D03*
Y-925678D03*
Y-895680D03*
Y-884682D03*
Y-873684D03*
Y-862686D03*
Y-851687D03*
X546151D03*
Y-862686D03*
Y-873684D03*
Y-884682D03*
Y-895680D03*
Y-925678D03*
Y-936676D03*
Y-947674D03*
Y-958672D03*
Y-969670D03*
Y-980669D03*
Y-991692D03*
G54D76*
X425298D03*
Y-980669D03*
Y-969670D03*
Y-958672D03*
Y-947674D03*
Y-936676D03*
Y-925678D03*
Y-895680D03*
Y-884682D03*
Y-873684D03*
Y-862686D03*
Y-851687D03*
X542138D03*
Y-862686D03*
Y-873684D03*
Y-884682D03*
Y-895680D03*
Y-925678D03*
Y-936676D03*
Y-947674D03*
Y-958672D03*
Y-969670D03*
Y-980669D03*
Y-991692D03*
G54D71*
X932180Y-996823D03*
Y-981837D03*
G54D72*
X747852Y-992784D03*
X733857D03*
X775056Y-819480D03*
X761060D03*
X959155Y-858977D03*
X973150D03*
X706349Y-1006475D03*
X720344D03*
G54D73*
X1002944Y-908279D03*
Y-884784D03*
G54D58*
X923138Y-896976D03*
Y-886968D03*
G54D59*
X713359Y-1023188D03*
Y-1032688D03*
Y-1042187D03*
X740359Y-1023188D03*
Y-1042187D03*
G54D64*
X721258Y-846887D03*
X702259D03*
X721258Y-873887D03*
X711759D03*
X702259D03*
G54D65*
X923138Y-850468D03*
X930148D03*
X721538Y-833069D03*
X714553D03*
X756742Y-1042289D03*
X763753D03*
X750646Y-969975D03*
X743661D03*
G54D66*
X1002944Y-945286D03*
Y-930275D03*
G54D67*
X879399Y-1032586D03*
X856894Y-1042086D03*
Y-1023087D03*
G54D68*
X918312Y-1032510D03*
X900328D03*
G54D69*
X919150Y-869975D03*
X923138D03*
X927151D03*
X919150Y-861974D03*
X923138D03*
X927151D03*
G54D74*
X945159Y-1025474D03*
Y-1039470D03*
G54D75*
X764311Y-958672D03*
Y-991692D03*
Y-980669D03*
Y-969670D03*
Y-947674D03*
Y-936676D03*
Y-925678D03*
Y-895680D03*
Y-884682D03*
Y-873684D03*
Y-862686D03*
Y-851687D03*
X889051D03*
Y-862686D03*
Y-873684D03*
Y-884682D03*
Y-895680D03*
Y-925678D03*
Y-936676D03*
Y-947674D03*
Y-958672D03*
Y-969670D03*
Y-980669D03*
Y-991692D03*
G54D76*
X768198D03*
Y-980669D03*
Y-969670D03*
Y-958672D03*
Y-947674D03*
Y-936676D03*
Y-925678D03*
Y-895680D03*
Y-884682D03*
Y-873684D03*
Y-862686D03*
Y-851687D03*
X885038D03*
Y-862686D03*
Y-873684D03*
Y-884682D03*
Y-895680D03*
Y-925678D03*
Y-936676D03*
Y-947674D03*
Y-958672D03*
Y-969670D03*
Y-980669D03*
Y-991692D03*
G54D71*
X-782320Y-732663D03*
Y-717677D03*
G54D72*
X-966648Y-728624D03*
X-980643D03*
X-939444Y-555320D03*
X-953440D03*
X-755345Y-594817D03*
X-741350D03*
X-1008151Y-742315D03*
X-994156D03*
G54D73*
X-711556Y-644119D03*
Y-620624D03*
G54D58*
X-791362Y-632816D03*
Y-622808D03*
G54D59*
X-1001141Y-759028D03*
Y-768528D03*
Y-778027D03*
X-974141Y-759028D03*
Y-778027D03*
G54D64*
X-993242Y-582727D03*
X-1012241D03*
X-993242Y-609727D03*
X-1002741D03*
X-1012241D03*
G54D65*
X-791362Y-586308D03*
X-784352D03*
X-992962Y-568909D03*
X-999947D03*
X-957758Y-778129D03*
X-950747D03*
X-963854Y-705815D03*
X-970839D03*
G54D66*
X-711556Y-681126D03*
Y-666115D03*
G54D67*
X-835101Y-768426D03*
X-857606Y-777926D03*
Y-758927D03*
G54D68*
X-796188Y-768350D03*
X-814172D03*
G54D69*
X-795350Y-605815D03*
X-791362D03*
X-787349D03*
X-795350Y-597814D03*
X-791362D03*
X-787349D03*
G54D74*
X-769341Y-761314D03*
Y-775310D03*
G54D75*
X-950189Y-694512D03*
Y-727532D03*
Y-716509D03*
Y-705510D03*
Y-683514D03*
Y-672516D03*
Y-661518D03*
Y-631520D03*
Y-620522D03*
Y-609524D03*
Y-598526D03*
Y-587527D03*
X-825449D03*
Y-598526D03*
Y-609524D03*
Y-620522D03*
Y-631520D03*
Y-661518D03*
Y-672516D03*
Y-683514D03*
Y-694512D03*
Y-705510D03*
Y-716509D03*
Y-727532D03*
G54D76*
X-946302D03*
Y-716509D03*
Y-705510D03*
Y-694512D03*
Y-683514D03*
Y-672516D03*
Y-661518D03*
Y-631520D03*
Y-620522D03*
Y-609524D03*
Y-598526D03*
Y-587527D03*
X-829462D03*
Y-598526D03*
Y-609524D03*
Y-620522D03*
Y-631520D03*
Y-661518D03*
Y-672516D03*
Y-683514D03*
Y-694512D03*
Y-705510D03*
Y-716509D03*
Y-727532D03*
G54D71*
X-439420Y-732663D03*
Y-717677D03*
G54D72*
X-623748Y-728624D03*
X-637743D03*
X-596544Y-555320D03*
X-610540D03*
X-412445Y-594817D03*
X-398450D03*
X-665251Y-742315D03*
X-651256D03*
G54D73*
X-368656Y-644119D03*
Y-620624D03*
G54D58*
X-448462Y-632816D03*
Y-622808D03*
G54D59*
X-658241Y-759028D03*
Y-768528D03*
Y-778027D03*
X-631241Y-759028D03*
Y-778027D03*
G54D64*
X-650342Y-582727D03*
X-669341D03*
X-650342Y-609727D03*
X-659841D03*
X-669341D03*
G54D65*
X-448462Y-586308D03*
X-441452D03*
X-650062Y-568909D03*
X-657047D03*
X-614858Y-778129D03*
X-607847D03*
X-620954Y-705815D03*
X-627939D03*
G54D66*
X-368656Y-681126D03*
Y-666115D03*
G54D67*
X-492201Y-768426D03*
X-514706Y-777926D03*
Y-758927D03*
G54D68*
X-453288Y-768350D03*
X-471272D03*
G54D69*
X-452450Y-605815D03*
X-448462D03*
X-444449D03*
X-452450Y-597814D03*
X-448462D03*
X-444449D03*
G54D74*
X-426441Y-761314D03*
Y-775310D03*
G54D75*
X-607289Y-694512D03*
Y-727532D03*
Y-716509D03*
Y-705510D03*
Y-683514D03*
Y-672516D03*
Y-661518D03*
Y-631520D03*
Y-620522D03*
Y-609524D03*
Y-598526D03*
Y-587527D03*
X-482549D03*
Y-598526D03*
Y-609524D03*
Y-620522D03*
Y-631520D03*
Y-661518D03*
Y-672516D03*
Y-683514D03*
Y-694512D03*
Y-705510D03*
Y-716509D03*
Y-727532D03*
G54D76*
X-603402D03*
Y-716509D03*
Y-705510D03*
Y-694512D03*
Y-683514D03*
Y-672516D03*
Y-661518D03*
Y-631520D03*
Y-620522D03*
Y-609524D03*
Y-598526D03*
Y-587527D03*
X-486562D03*
Y-598526D03*
Y-609524D03*
Y-620522D03*
Y-631520D03*
Y-661518D03*
Y-672516D03*
Y-683514D03*
Y-694512D03*
Y-705510D03*
Y-716509D03*
Y-727532D03*
G54D71*
X-96520Y-732663D03*
Y-717677D03*
G54D72*
X-280848Y-728624D03*
X-294843D03*
X-253644Y-555320D03*
X-267640D03*
X-69545Y-594817D03*
X-55550D03*
X-322351Y-742315D03*
X-308356D03*
G54D73*
X-25756Y-644119D03*
Y-620624D03*
G54D58*
X-105562Y-632816D03*
Y-622808D03*
G54D59*
X-315341Y-759028D03*
Y-768528D03*
Y-778027D03*
X-288341Y-759028D03*
Y-778027D03*
G54D64*
X-307442Y-582727D03*
X-326441D03*
X-307442Y-609727D03*
X-316941D03*
X-326441D03*
G54D65*
X-105562Y-586308D03*
X-98552D03*
X-307162Y-568909D03*
X-314147D03*
X-271958Y-778129D03*
X-264947D03*
X-278054Y-705815D03*
X-285039D03*
G54D66*
X-25756Y-681126D03*
Y-666115D03*
G54D67*
X-149301Y-768426D03*
X-171806Y-777926D03*
Y-758927D03*
G54D68*
X-110388Y-768350D03*
X-128372D03*
G54D69*
X-109550Y-605815D03*
X-105562D03*
X-101549D03*
X-109550Y-597814D03*
X-105562D03*
X-101549D03*
G54D74*
X-83541Y-761314D03*
Y-775310D03*
G54D75*
X-264389Y-694512D03*
Y-727532D03*
Y-716509D03*
Y-705510D03*
Y-683514D03*
Y-672516D03*
Y-661518D03*
Y-631520D03*
Y-620522D03*
Y-609524D03*
Y-598526D03*
Y-587527D03*
X-139649D03*
Y-598526D03*
Y-609524D03*
Y-620522D03*
Y-631520D03*
Y-661518D03*
Y-672516D03*
Y-683514D03*
Y-694512D03*
Y-705510D03*
Y-716509D03*
Y-727532D03*
G54D76*
X-260502D03*
Y-716509D03*
Y-705510D03*
Y-694512D03*
Y-683514D03*
Y-672516D03*
Y-661518D03*
Y-631520D03*
Y-620522D03*
Y-609524D03*
Y-598526D03*
Y-587527D03*
X-143662D03*
Y-598526D03*
Y-609524D03*
Y-620522D03*
Y-631520D03*
Y-661518D03*
Y-672516D03*
Y-683514D03*
Y-694512D03*
Y-705510D03*
Y-716509D03*
Y-727532D03*
G54D71*
X246380Y-732663D03*
Y-717677D03*
G54D72*
X62052Y-728624D03*
X48057D03*
X89256Y-555320D03*
X75260D03*
X273355Y-594817D03*
X287350D03*
X20549Y-742315D03*
X34544D03*
G54D73*
X317144Y-644119D03*
Y-620624D03*
G54D58*
X237338Y-632816D03*
Y-622808D03*
G54D59*
X27559Y-759028D03*
Y-768528D03*
Y-778027D03*
X54559Y-759028D03*
Y-778027D03*
G54D64*
X35458Y-582727D03*
X16459D03*
X35458Y-609727D03*
X25959D03*
X16459D03*
G54D65*
X237338Y-586308D03*
X244348D03*
X35738Y-568909D03*
X28753D03*
X70942Y-778129D03*
X77953D03*
X64846Y-705815D03*
X57861D03*
G54D66*
X317144Y-681126D03*
Y-666115D03*
G54D67*
X193599Y-768426D03*
X171094Y-777926D03*
Y-758927D03*
G54D68*
X232512Y-768350D03*
X214528D03*
G54D69*
X233350Y-605815D03*
X237338D03*
X241351D03*
X233350Y-597814D03*
X237338D03*
X241351D03*
G54D74*
X259359Y-761314D03*
Y-775310D03*
G54D75*
X78511Y-694512D03*
Y-727532D03*
Y-716509D03*
Y-705510D03*
Y-683514D03*
Y-672516D03*
Y-661518D03*
Y-631520D03*
Y-620522D03*
Y-609524D03*
Y-598526D03*
Y-587527D03*
X203251D03*
Y-598526D03*
Y-609524D03*
Y-620522D03*
Y-631520D03*
Y-661518D03*
Y-672516D03*
Y-683514D03*
Y-694512D03*
Y-705510D03*
Y-716509D03*
Y-727532D03*
G54D76*
X82398D03*
Y-716509D03*
Y-705510D03*
Y-694512D03*
Y-683514D03*
Y-672516D03*
Y-661518D03*
Y-631520D03*
Y-620522D03*
Y-609524D03*
Y-598526D03*
Y-587527D03*
X199238D03*
Y-598526D03*
Y-609524D03*
Y-620522D03*
Y-631520D03*
Y-661518D03*
Y-672516D03*
Y-683514D03*
Y-694512D03*
Y-705510D03*
Y-716509D03*
Y-727532D03*
G54D71*
X589280Y-732663D03*
Y-717677D03*
G54D72*
X404952Y-728624D03*
X390957D03*
X432156Y-555320D03*
X418160D03*
X616255Y-594817D03*
X630250D03*
X363449Y-742315D03*
X377444D03*
G54D73*
X660044Y-644119D03*
Y-620624D03*
G54D58*
X580238Y-632816D03*
Y-622808D03*
G54D59*
X370459Y-759028D03*
Y-768528D03*
Y-778027D03*
X397459Y-759028D03*
Y-778027D03*
G54D64*
X378358Y-582727D03*
X359359D03*
X378358Y-609727D03*
X368859D03*
X359359D03*
G54D65*
X580238Y-586308D03*
X587248D03*
X378638Y-568909D03*
X371653D03*
X413842Y-778129D03*
X420853D03*
X407746Y-705815D03*
X400761D03*
G54D66*
X660044Y-681126D03*
Y-666115D03*
G54D67*
X536499Y-768426D03*
X513994Y-777926D03*
Y-758927D03*
G54D68*
X575412Y-768350D03*
X557428D03*
G54D69*
X576250Y-605815D03*
X580238D03*
X584251D03*
X576250Y-597814D03*
X580238D03*
X584251D03*
G54D74*
X602259Y-761314D03*
Y-775310D03*
G54D75*
X421411Y-694512D03*
Y-727532D03*
Y-716509D03*
Y-705510D03*
Y-683514D03*
Y-672516D03*
Y-661518D03*
Y-631520D03*
Y-620522D03*
Y-609524D03*
Y-598526D03*
Y-587527D03*
X546151D03*
Y-598526D03*
Y-609524D03*
Y-620522D03*
Y-631520D03*
Y-661518D03*
Y-672516D03*
Y-683514D03*
Y-694512D03*
Y-705510D03*
Y-716509D03*
Y-727532D03*
G54D76*
X425298D03*
Y-716509D03*
Y-705510D03*
Y-694512D03*
Y-683514D03*
Y-672516D03*
Y-661518D03*
Y-631520D03*
Y-620522D03*
Y-609524D03*
Y-598526D03*
Y-587527D03*
X542138D03*
Y-598526D03*
Y-609524D03*
Y-620522D03*
Y-631520D03*
Y-661518D03*
Y-672516D03*
Y-683514D03*
Y-694512D03*
Y-705510D03*
Y-716509D03*
Y-727532D03*
G54D71*
X932180Y-732663D03*
Y-717677D03*
G54D72*
X747852Y-728624D03*
X733857D03*
X775056Y-555320D03*
X761060D03*
X959155Y-594817D03*
X973150D03*
X706349Y-742315D03*
X720344D03*
G54D73*
X1002944Y-644119D03*
Y-620624D03*
G54D58*
X923138Y-632816D03*
Y-622808D03*
G54D59*
X713359Y-759028D03*
Y-768528D03*
Y-778027D03*
X740359Y-759028D03*
Y-778027D03*
G54D64*
X721258Y-582727D03*
X702259D03*
X721258Y-609727D03*
X711759D03*
X702259D03*
G54D65*
X923138Y-586308D03*
X930148D03*
X721538Y-568909D03*
X714553D03*
X756742Y-778129D03*
X763753D03*
X750646Y-705815D03*
X743661D03*
G54D66*
X1002944Y-681126D03*
Y-666115D03*
G54D67*
X879399Y-768426D03*
X856894Y-777926D03*
Y-758927D03*
G54D68*
X918312Y-768350D03*
X900328D03*
G54D69*
X919150Y-605815D03*
X923138D03*
X927151D03*
X919150Y-597814D03*
X923138D03*
X927151D03*
G54D74*
X945159Y-761314D03*
Y-775310D03*
G54D75*
X764311Y-694512D03*
Y-727532D03*
Y-716509D03*
Y-705510D03*
Y-683514D03*
Y-672516D03*
Y-661518D03*
Y-631520D03*
Y-620522D03*
Y-609524D03*
Y-598526D03*
Y-587527D03*
X889051D03*
Y-598526D03*
Y-609524D03*
Y-620522D03*
Y-631520D03*
Y-661518D03*
Y-672516D03*
Y-683514D03*
Y-694512D03*
Y-705510D03*
Y-716509D03*
Y-727532D03*
G54D76*
X768198D03*
Y-716509D03*
Y-705510D03*
Y-694512D03*
Y-683514D03*
Y-672516D03*
Y-661518D03*
Y-631520D03*
Y-620522D03*
Y-609524D03*
Y-598526D03*
Y-587527D03*
X885038D03*
Y-598526D03*
Y-609524D03*
Y-620522D03*
Y-631520D03*
Y-661518D03*
Y-672516D03*
Y-683514D03*
Y-694512D03*
Y-705510D03*
Y-716509D03*
Y-727532D03*
G54D71*
X-782320Y-468503D03*
Y-453517D03*
G54D72*
X-966648Y-464464D03*
X-980643D03*
X-939444Y-291160D03*
X-953440D03*
X-755345Y-330657D03*
X-741350D03*
X-1008151Y-478155D03*
X-994156D03*
G54D73*
X-711556Y-379959D03*
Y-356464D03*
G54D58*
X-791362Y-368656D03*
Y-358648D03*
G54D59*
X-1001141Y-494868D03*
Y-504368D03*
Y-513867D03*
X-974141Y-494868D03*
Y-513867D03*
G54D64*
X-993242Y-318567D03*
X-1012241D03*
X-993242Y-345567D03*
X-1002741D03*
X-1012241D03*
G54D65*
X-791362Y-322148D03*
X-784352D03*
X-992962Y-304749D03*
X-999947D03*
X-957758Y-513969D03*
X-950747D03*
X-963854Y-441655D03*
X-970839D03*
G54D66*
X-711556Y-416966D03*
Y-401955D03*
G54D67*
X-835101Y-504266D03*
X-857606Y-513766D03*
Y-494767D03*
G54D68*
X-796188Y-504190D03*
X-814172D03*
G54D69*
X-795350Y-341655D03*
X-791362D03*
X-787349D03*
X-795350Y-333654D03*
X-791362D03*
X-787349D03*
G54D74*
X-769341Y-497154D03*
Y-511150D03*
G54D75*
X-950189Y-430352D03*
Y-463372D03*
Y-452349D03*
Y-441350D03*
Y-419354D03*
Y-408356D03*
Y-397358D03*
Y-367360D03*
Y-356362D03*
Y-345364D03*
Y-334366D03*
Y-323367D03*
X-825449D03*
Y-334366D03*
Y-345364D03*
Y-356362D03*
Y-367360D03*
Y-397358D03*
Y-408356D03*
Y-419354D03*
Y-430352D03*
Y-441350D03*
Y-452349D03*
Y-463372D03*
G54D76*
X-946302D03*
Y-452349D03*
Y-441350D03*
Y-430352D03*
Y-419354D03*
Y-408356D03*
Y-397358D03*
Y-367360D03*
Y-356362D03*
Y-345364D03*
Y-334366D03*
Y-323367D03*
X-829462D03*
Y-334366D03*
Y-345364D03*
Y-356362D03*
Y-367360D03*
Y-397358D03*
Y-408356D03*
Y-419354D03*
Y-430352D03*
Y-441350D03*
Y-452349D03*
Y-463372D03*
G54D71*
X-439420Y-468503D03*
Y-453517D03*
G54D72*
X-623748Y-464464D03*
X-637743D03*
X-596544Y-291160D03*
X-610540D03*
X-412445Y-330657D03*
X-398450D03*
X-665251Y-478155D03*
X-651256D03*
G54D73*
X-368656Y-379959D03*
Y-356464D03*
G54D58*
X-448462Y-368656D03*
Y-358648D03*
G54D59*
X-658241Y-494868D03*
Y-504368D03*
Y-513867D03*
X-631241Y-494868D03*
Y-513867D03*
G54D64*
X-650342Y-318567D03*
X-669341D03*
X-650342Y-345567D03*
X-659841D03*
X-669341D03*
G54D65*
X-448462Y-322148D03*
X-441452D03*
X-650062Y-304749D03*
X-657047D03*
X-614858Y-513969D03*
X-607847D03*
X-620954Y-441655D03*
X-627939D03*
G54D66*
X-368656Y-416966D03*
Y-401955D03*
G54D67*
X-492201Y-504266D03*
X-514706Y-513766D03*
Y-494767D03*
G54D68*
X-453288Y-504190D03*
X-471272D03*
G54D69*
X-452450Y-341655D03*
X-448462D03*
X-444449D03*
X-452450Y-333654D03*
X-448462D03*
X-444449D03*
G54D74*
X-426441Y-497154D03*
Y-511150D03*
G54D75*
X-607289Y-430352D03*
Y-463372D03*
Y-452349D03*
Y-441350D03*
Y-419354D03*
Y-408356D03*
Y-397358D03*
Y-367360D03*
Y-356362D03*
Y-345364D03*
Y-334366D03*
Y-323367D03*
X-482549D03*
Y-334366D03*
Y-345364D03*
Y-356362D03*
Y-367360D03*
Y-397358D03*
Y-408356D03*
Y-419354D03*
Y-430352D03*
Y-441350D03*
Y-452349D03*
Y-463372D03*
G54D76*
X-603402D03*
Y-452349D03*
Y-441350D03*
Y-430352D03*
Y-419354D03*
Y-408356D03*
Y-397358D03*
Y-367360D03*
Y-356362D03*
Y-345364D03*
Y-334366D03*
Y-323367D03*
X-486562D03*
Y-334366D03*
Y-345364D03*
Y-356362D03*
Y-367360D03*
Y-397358D03*
Y-408356D03*
Y-419354D03*
Y-430352D03*
Y-441350D03*
Y-452349D03*
Y-463372D03*
G54D71*
X-96520Y-468503D03*
Y-453517D03*
G54D72*
X-280848Y-464464D03*
X-294843D03*
X-253644Y-291160D03*
X-267640D03*
X-69545Y-330657D03*
X-55550D03*
X-322351Y-478155D03*
X-308356D03*
G54D73*
X-25756Y-379959D03*
Y-356464D03*
G54D58*
X-105562Y-368656D03*
Y-358648D03*
G54D59*
X-315341Y-494868D03*
Y-504368D03*
Y-513867D03*
X-288341Y-494868D03*
Y-513867D03*
G54D64*
X-307442Y-318567D03*
X-326441D03*
X-307442Y-345567D03*
X-316941D03*
X-326441D03*
G54D65*
X-105562Y-322148D03*
X-98552D03*
X-307162Y-304749D03*
X-314147D03*
X-271958Y-513969D03*
X-264947D03*
X-278054Y-441655D03*
X-285039D03*
G54D66*
X-25756Y-416966D03*
Y-401955D03*
G54D67*
X-149301Y-504266D03*
X-171806Y-513766D03*
Y-494767D03*
G54D68*
X-110388Y-504190D03*
X-128372D03*
G54D69*
X-109550Y-341655D03*
X-105562D03*
X-101549D03*
X-109550Y-333654D03*
X-105562D03*
X-101549D03*
G54D74*
X-83541Y-497154D03*
Y-511150D03*
G54D75*
X-264389Y-430352D03*
Y-463372D03*
Y-452349D03*
Y-441350D03*
Y-419354D03*
Y-408356D03*
Y-397358D03*
Y-367360D03*
Y-356362D03*
Y-345364D03*
Y-334366D03*
Y-323367D03*
X-139649D03*
Y-334366D03*
Y-345364D03*
Y-356362D03*
Y-367360D03*
Y-397358D03*
Y-408356D03*
Y-419354D03*
Y-430352D03*
Y-441350D03*
Y-452349D03*
Y-463372D03*
G54D76*
X-260502D03*
Y-452349D03*
Y-441350D03*
Y-430352D03*
Y-419354D03*
Y-408356D03*
Y-397358D03*
Y-367360D03*
Y-356362D03*
Y-345364D03*
Y-334366D03*
Y-323367D03*
X-143662D03*
Y-334366D03*
Y-345364D03*
Y-356362D03*
Y-367360D03*
Y-397358D03*
Y-408356D03*
Y-419354D03*
Y-430352D03*
Y-441350D03*
Y-452349D03*
Y-463372D03*
G54D71*
X246380Y-468503D03*
Y-453517D03*
G54D72*
X62052Y-464464D03*
X48057D03*
X89256Y-291160D03*
X75260D03*
X273355Y-330657D03*
X287350D03*
X20549Y-478155D03*
X34544D03*
G54D73*
X317144Y-379959D03*
Y-356464D03*
G54D58*
X237338Y-368656D03*
Y-358648D03*
G54D59*
X27559Y-494868D03*
Y-504368D03*
Y-513867D03*
X54559Y-494868D03*
Y-513867D03*
G54D64*
X35458Y-318567D03*
X16459D03*
X35458Y-345567D03*
X25959D03*
X16459D03*
G54D65*
X237338Y-322148D03*
X244348D03*
X35738Y-304749D03*
X28753D03*
X70942Y-513969D03*
X77953D03*
X64846Y-441655D03*
X57861D03*
G54D66*
X317144Y-416966D03*
Y-401955D03*
G54D67*
X193599Y-504266D03*
X171094Y-513766D03*
Y-494767D03*
G54D68*
X232512Y-504190D03*
X214528D03*
G54D69*
X233350Y-341655D03*
X237338D03*
X241351D03*
X233350Y-333654D03*
X237338D03*
X241351D03*
G54D74*
X259359Y-497154D03*
Y-511150D03*
G54D75*
X78511Y-430352D03*
Y-463372D03*
Y-452349D03*
Y-441350D03*
Y-419354D03*
Y-408356D03*
Y-397358D03*
Y-367360D03*
Y-356362D03*
Y-345364D03*
Y-334366D03*
Y-323367D03*
X203251D03*
Y-334366D03*
Y-345364D03*
Y-356362D03*
Y-367360D03*
Y-397358D03*
Y-408356D03*
Y-419354D03*
Y-430352D03*
Y-441350D03*
Y-452349D03*
Y-463372D03*
G54D76*
X82398D03*
Y-452349D03*
Y-441350D03*
Y-430352D03*
Y-419354D03*
Y-408356D03*
Y-397358D03*
Y-367360D03*
Y-356362D03*
Y-345364D03*
Y-334366D03*
Y-323367D03*
X199238D03*
Y-334366D03*
Y-345364D03*
Y-356362D03*
Y-367360D03*
Y-397358D03*
Y-408356D03*
Y-419354D03*
Y-430352D03*
Y-441350D03*
Y-452349D03*
Y-463372D03*
G54D71*
X589280Y-468503D03*
Y-453517D03*
G54D72*
X404952Y-464464D03*
X390957D03*
X432156Y-291160D03*
X418160D03*
X616255Y-330657D03*
X630250D03*
X363449Y-478155D03*
X377444D03*
G54D73*
X660044Y-379959D03*
Y-356464D03*
G54D58*
X580238Y-368656D03*
Y-358648D03*
G54D59*
X370459Y-494868D03*
Y-504368D03*
Y-513867D03*
X397459Y-494868D03*
Y-513867D03*
G54D64*
X378358Y-318567D03*
X359359D03*
X378358Y-345567D03*
X368859D03*
X359359D03*
G54D65*
X580238Y-322148D03*
X587248D03*
X378638Y-304749D03*
X371653D03*
X413842Y-513969D03*
X420853D03*
X407746Y-441655D03*
X400761D03*
G54D66*
X660044Y-416966D03*
Y-401955D03*
G54D67*
X536499Y-504266D03*
X513994Y-513766D03*
Y-494767D03*
G54D68*
X575412Y-504190D03*
X557428D03*
G54D69*
X576250Y-341655D03*
X580238D03*
X584251D03*
X576250Y-333654D03*
X580238D03*
X584251D03*
G54D74*
X602259Y-497154D03*
Y-511150D03*
G54D75*
X421411Y-430352D03*
Y-463372D03*
Y-452349D03*
Y-441350D03*
Y-419354D03*
Y-408356D03*
Y-397358D03*
Y-367360D03*
Y-356362D03*
Y-345364D03*
Y-334366D03*
Y-323367D03*
X546151D03*
Y-334366D03*
Y-345364D03*
Y-356362D03*
Y-367360D03*
Y-397358D03*
Y-408356D03*
Y-419354D03*
Y-430352D03*
Y-441350D03*
Y-452349D03*
Y-463372D03*
G54D76*
X425298D03*
Y-452349D03*
Y-441350D03*
Y-430352D03*
Y-419354D03*
Y-408356D03*
Y-397358D03*
Y-367360D03*
Y-356362D03*
Y-345364D03*
Y-334366D03*
Y-323367D03*
X542138D03*
Y-334366D03*
Y-345364D03*
Y-356362D03*
Y-367360D03*
Y-397358D03*
Y-408356D03*
Y-419354D03*
Y-430352D03*
Y-441350D03*
Y-452349D03*
Y-463372D03*
G54D71*
X932180Y-468503D03*
Y-453517D03*
G54D72*
X747852Y-464464D03*
X733857D03*
X775056Y-291160D03*
X761060D03*
X959155Y-330657D03*
X973150D03*
X706349Y-478155D03*
X720344D03*
G54D73*
X1002944Y-379959D03*
Y-356464D03*
G54D58*
X923138Y-368656D03*
Y-358648D03*
G54D59*
X713359Y-494868D03*
Y-504368D03*
Y-513867D03*
X740359Y-494868D03*
Y-513867D03*
G54D64*
X721258Y-318567D03*
X702259D03*
X721258Y-345567D03*
X711759D03*
X702259D03*
G54D65*
X923138Y-322148D03*
X930148D03*
X721538Y-304749D03*
X714553D03*
X756742Y-513969D03*
X763753D03*
X750646Y-441655D03*
X743661D03*
G54D66*
X1002944Y-416966D03*
Y-401955D03*
G54D67*
X879399Y-504266D03*
X856894Y-513766D03*
Y-494767D03*
G54D68*
X918312Y-504190D03*
X900328D03*
G54D69*
X919150Y-341655D03*
X923138D03*
X927151D03*
X919150Y-333654D03*
X923138D03*
X927151D03*
G54D74*
X945159Y-497154D03*
Y-511150D03*
G54D75*
X764311Y-430352D03*
Y-463372D03*
Y-452349D03*
Y-441350D03*
Y-419354D03*
Y-408356D03*
Y-397358D03*
Y-367360D03*
Y-356362D03*
Y-345364D03*
Y-334366D03*
Y-323367D03*
X889051D03*
Y-334366D03*
Y-345364D03*
Y-356362D03*
Y-367360D03*
Y-397358D03*
Y-408356D03*
Y-419354D03*
Y-430352D03*
Y-441350D03*
Y-452349D03*
Y-463372D03*
G54D76*
X768198D03*
Y-452349D03*
Y-441350D03*
Y-430352D03*
Y-419354D03*
Y-408356D03*
Y-397358D03*
Y-367360D03*
Y-356362D03*
Y-345364D03*
Y-334366D03*
Y-323367D03*
X885038D03*
Y-334366D03*
Y-345364D03*
Y-356362D03*
Y-367360D03*
Y-397358D03*
Y-408356D03*
Y-419354D03*
Y-430352D03*
Y-441350D03*
Y-452349D03*
Y-463372D03*
G54D71*
X-782320Y-204343D03*
Y-189357D03*
G54D72*
X-966648Y-200304D03*
X-980643D03*
X-939444Y-27000D03*
X-953440D03*
X-755345Y-66497D03*
X-741350D03*
X-1008151Y-213995D03*
X-994156D03*
G54D73*
X-711556Y-115799D03*
Y-92304D03*
G54D58*
X-791362Y-104496D03*
Y-94488D03*
G54D59*
X-1001141Y-230708D03*
Y-240208D03*
Y-249707D03*
X-974141Y-230708D03*
Y-249707D03*
G54D64*
X-993242Y-54407D03*
X-1012241D03*
X-993242Y-81407D03*
X-1002741D03*
X-1012241D03*
G54D65*
X-791362Y-57988D03*
X-784352D03*
X-992962Y-40589D03*
X-999947D03*
X-957758Y-249809D03*
X-950747D03*
X-963854Y-177495D03*
X-970839D03*
G54D66*
X-711556Y-152806D03*
Y-137795D03*
G54D67*
X-835101Y-240106D03*
X-857606Y-249606D03*
Y-230607D03*
G54D68*
X-796188Y-240030D03*
X-814172D03*
G54D69*
X-795350Y-77495D03*
X-791362D03*
X-787349D03*
X-795350Y-69494D03*
X-791362D03*
X-787349D03*
G54D74*
X-769341Y-232994D03*
Y-246990D03*
G54D75*
X-950189Y-166192D03*
Y-199212D03*
Y-188189D03*
Y-177190D03*
Y-155194D03*
Y-144196D03*
Y-133198D03*
Y-103200D03*
Y-92202D03*
Y-81204D03*
Y-70206D03*
Y-59207D03*
X-825449D03*
Y-70206D03*
Y-81204D03*
Y-92202D03*
Y-103200D03*
Y-133198D03*
Y-144196D03*
Y-155194D03*
Y-166192D03*
Y-177190D03*
Y-188189D03*
Y-199212D03*
G54D76*
X-946302D03*
Y-188189D03*
Y-177190D03*
Y-166192D03*
Y-155194D03*
Y-144196D03*
Y-133198D03*
Y-103200D03*
Y-92202D03*
Y-81204D03*
Y-70206D03*
Y-59207D03*
X-829462D03*
Y-70206D03*
Y-81204D03*
Y-92202D03*
Y-103200D03*
Y-133198D03*
Y-144196D03*
Y-155194D03*
Y-166192D03*
Y-177190D03*
Y-188189D03*
Y-199212D03*
G54D71*
X-439420Y-204343D03*
Y-189357D03*
G54D72*
X-623748Y-200304D03*
X-637743D03*
X-596544Y-27000D03*
X-610540D03*
X-412445Y-66497D03*
X-398450D03*
X-665251Y-213995D03*
X-651256D03*
G54D73*
X-368656Y-115799D03*
Y-92304D03*
G54D58*
X-448462Y-104496D03*
Y-94488D03*
G54D59*
X-658241Y-230708D03*
Y-240208D03*
Y-249707D03*
X-631241Y-230708D03*
Y-249707D03*
G54D64*
X-650342Y-54407D03*
X-669341D03*
X-650342Y-81407D03*
X-659841D03*
X-669341D03*
G54D65*
X-448462Y-57988D03*
X-441452D03*
X-650062Y-40589D03*
X-657047D03*
X-614858Y-249809D03*
X-607847D03*
X-620954Y-177495D03*
X-627939D03*
G54D66*
X-368656Y-152806D03*
Y-137795D03*
G54D67*
X-492201Y-240106D03*
X-514706Y-249606D03*
Y-230607D03*
G54D68*
X-453288Y-240030D03*
X-471272D03*
G54D69*
X-452450Y-77495D03*
X-448462D03*
X-444449D03*
X-452450Y-69494D03*
X-448462D03*
X-444449D03*
G54D74*
X-426441Y-232994D03*
Y-246990D03*
G54D75*
X-607289Y-166192D03*
Y-199212D03*
Y-188189D03*
Y-177190D03*
Y-155194D03*
Y-144196D03*
Y-133198D03*
Y-103200D03*
Y-92202D03*
Y-81204D03*
Y-70206D03*
Y-59207D03*
X-482549D03*
Y-70206D03*
Y-81204D03*
Y-92202D03*
Y-103200D03*
Y-133198D03*
Y-144196D03*
Y-155194D03*
Y-166192D03*
Y-177190D03*
Y-188189D03*
Y-199212D03*
G54D76*
X-603402D03*
Y-188189D03*
Y-177190D03*
Y-166192D03*
Y-155194D03*
Y-144196D03*
Y-133198D03*
Y-103200D03*
Y-92202D03*
Y-81204D03*
Y-70206D03*
Y-59207D03*
X-486562D03*
Y-70206D03*
Y-81204D03*
Y-92202D03*
Y-103200D03*
Y-133198D03*
Y-144196D03*
Y-155194D03*
Y-166192D03*
Y-177190D03*
Y-188189D03*
Y-199212D03*
G54D71*
X-96520Y-204343D03*
Y-189357D03*
G54D72*
X-280848Y-200304D03*
X-294843D03*
X-253644Y-27000D03*
X-267640D03*
X-69545Y-66497D03*
X-55550D03*
X-322351Y-213995D03*
X-308356D03*
G54D73*
X-25756Y-115799D03*
Y-92304D03*
G54D58*
X-105562Y-104496D03*
Y-94488D03*
G54D59*
X-315341Y-230708D03*
Y-240208D03*
Y-249707D03*
X-288341Y-230708D03*
Y-249707D03*
G54D64*
X-307442Y-54407D03*
X-326441D03*
X-307442Y-81407D03*
X-316941D03*
X-326441D03*
G54D65*
X-105562Y-57988D03*
X-98552D03*
X-307162Y-40589D03*
X-314147D03*
X-271958Y-249809D03*
X-264947D03*
X-278054Y-177495D03*
X-285039D03*
G54D66*
X-25756Y-152806D03*
Y-137795D03*
G54D67*
X-149301Y-240106D03*
X-171806Y-249606D03*
Y-230607D03*
G54D68*
X-110388Y-240030D03*
X-128372D03*
G54D69*
X-109550Y-77495D03*
X-105562D03*
X-101549D03*
X-109550Y-69494D03*
X-105562D03*
X-101549D03*
G54D74*
X-83541Y-232994D03*
Y-246990D03*
G54D75*
X-264389Y-166192D03*
Y-199212D03*
Y-188189D03*
Y-177190D03*
Y-155194D03*
Y-144196D03*
Y-133198D03*
Y-103200D03*
Y-92202D03*
Y-81204D03*
Y-70206D03*
Y-59207D03*
X-139649D03*
Y-70206D03*
Y-81204D03*
Y-92202D03*
Y-103200D03*
Y-133198D03*
Y-144196D03*
Y-155194D03*
Y-166192D03*
Y-177190D03*
Y-188189D03*
Y-199212D03*
G54D76*
X-260502D03*
Y-188189D03*
Y-177190D03*
Y-166192D03*
Y-155194D03*
Y-144196D03*
Y-133198D03*
Y-103200D03*
Y-92202D03*
Y-81204D03*
Y-70206D03*
Y-59207D03*
X-143662D03*
Y-70206D03*
Y-81204D03*
Y-92202D03*
Y-103200D03*
Y-133198D03*
Y-144196D03*
Y-155194D03*
Y-166192D03*
Y-177190D03*
Y-188189D03*
Y-199212D03*
G54D71*
X246380Y-204343D03*
Y-189357D03*
G54D72*
X62052Y-200304D03*
X48057D03*
X89256Y-27000D03*
X75260D03*
X273355Y-66497D03*
X287350D03*
X20549Y-213995D03*
X34544D03*
G54D73*
X317144Y-115799D03*
Y-92304D03*
G54D58*
X237338Y-104496D03*
Y-94488D03*
G54D59*
X27559Y-230708D03*
Y-240208D03*
Y-249707D03*
X54559Y-230708D03*
Y-249707D03*
G54D64*
X35458Y-54407D03*
X16459D03*
X35458Y-81407D03*
X25959D03*
X16459D03*
G54D65*
X237338Y-57988D03*
X244348D03*
X35738Y-40589D03*
X28753D03*
X70942Y-249809D03*
X77953D03*
X64846Y-177495D03*
X57861D03*
G54D66*
X317144Y-152806D03*
Y-137795D03*
G54D67*
X193599Y-240106D03*
X171094Y-249606D03*
Y-230607D03*
G54D68*
X232512Y-240030D03*
X214528D03*
G54D69*
X233350Y-77495D03*
X237338D03*
X241351D03*
X233350Y-69494D03*
X237338D03*
X241351D03*
G54D74*
X259359Y-232994D03*
Y-246990D03*
G54D75*
X78511Y-166192D03*
Y-199212D03*
Y-188189D03*
Y-177190D03*
Y-155194D03*
Y-144196D03*
Y-133198D03*
Y-103200D03*
Y-92202D03*
Y-81204D03*
Y-70206D03*
Y-59207D03*
X203251D03*
Y-70206D03*
Y-81204D03*
Y-92202D03*
Y-103200D03*
Y-133198D03*
Y-144196D03*
Y-155194D03*
Y-166192D03*
Y-177190D03*
Y-188189D03*
Y-199212D03*
G54D76*
X82398D03*
Y-188189D03*
Y-177190D03*
Y-166192D03*
Y-155194D03*
Y-144196D03*
Y-133198D03*
Y-103200D03*
Y-92202D03*
Y-81204D03*
Y-70206D03*
Y-59207D03*
X199238D03*
Y-70206D03*
Y-81204D03*
Y-92202D03*
Y-103200D03*
Y-133198D03*
Y-144196D03*
Y-155194D03*
Y-166192D03*
Y-177190D03*
Y-188189D03*
Y-199212D03*
G54D71*
X589280Y-204343D03*
Y-189357D03*
G54D72*
X404952Y-200304D03*
X390957D03*
X432156Y-27000D03*
X418160D03*
X616255Y-66497D03*
X630250D03*
X363449Y-213995D03*
X377444D03*
G54D73*
X660044Y-115799D03*
Y-92304D03*
G54D58*
X580238Y-104496D03*
Y-94488D03*
G54D59*
X370459Y-230708D03*
Y-240208D03*
Y-249707D03*
X397459Y-230708D03*
Y-249707D03*
G54D64*
X378358Y-54407D03*
X359359D03*
X378358Y-81407D03*
X368859D03*
X359359D03*
G54D65*
X580238Y-57988D03*
X587248D03*
X378638Y-40589D03*
X371653D03*
X413842Y-249809D03*
X420853D03*
X407746Y-177495D03*
X400761D03*
G54D66*
X660044Y-152806D03*
Y-137795D03*
G54D67*
X536499Y-240106D03*
X513994Y-249606D03*
Y-230607D03*
G54D68*
X575412Y-240030D03*
X557428D03*
G54D69*
X576250Y-77495D03*
X580238D03*
X584251D03*
X576250Y-69494D03*
X580238D03*
X584251D03*
G54D74*
X602259Y-232994D03*
Y-246990D03*
G54D75*
X421411Y-166192D03*
Y-199212D03*
Y-188189D03*
Y-177190D03*
Y-155194D03*
Y-144196D03*
Y-133198D03*
Y-103200D03*
Y-92202D03*
Y-81204D03*
Y-70206D03*
Y-59207D03*
X546151D03*
Y-70206D03*
Y-81204D03*
Y-92202D03*
Y-103200D03*
Y-133198D03*
Y-144196D03*
Y-155194D03*
Y-166192D03*
Y-177190D03*
Y-188189D03*
Y-199212D03*
G54D76*
X425298D03*
Y-188189D03*
Y-177190D03*
Y-166192D03*
Y-155194D03*
Y-144196D03*
Y-133198D03*
Y-103200D03*
Y-92202D03*
Y-81204D03*
Y-70206D03*
Y-59207D03*
X542138D03*
Y-70206D03*
Y-81204D03*
Y-92202D03*
Y-103200D03*
Y-133198D03*
Y-144196D03*
Y-155194D03*
Y-166192D03*
Y-177190D03*
Y-188189D03*
Y-199212D03*
G54D71*
X932180Y-204343D03*
Y-189357D03*
G54D72*
X747852Y-200304D03*
X733857D03*
X775056Y-27000D03*
X761060D03*
X959155Y-66497D03*
X973150D03*
X706349Y-213995D03*
X720344D03*
G54D73*
X1002944Y-115799D03*
Y-92304D03*
G54D58*
X923138Y-104496D03*
Y-94488D03*
G54D59*
X713359Y-230708D03*
Y-240208D03*
Y-249707D03*
X740359Y-230708D03*
Y-249707D03*
G54D64*
X721258Y-54407D03*
X702259D03*
X721258Y-81407D03*
X711759D03*
X702259D03*
G54D65*
X923138Y-57988D03*
X930148D03*
X721538Y-40589D03*
X714553D03*
X756742Y-249809D03*
X763753D03*
X750646Y-177495D03*
X743661D03*
G54D66*
X1002944Y-152806D03*
Y-137795D03*
G54D67*
X879399Y-240106D03*
X856894Y-249606D03*
Y-230607D03*
G54D68*
X918312Y-240030D03*
X900328D03*
G54D69*
X919150Y-77495D03*
X923138D03*
X927151D03*
X919150Y-69494D03*
X923138D03*
X927151D03*
G54D74*
X945159Y-232994D03*
Y-246990D03*
G54D75*
X764311Y-166192D03*
Y-199212D03*
Y-188189D03*
Y-177190D03*
Y-155194D03*
Y-144196D03*
Y-133198D03*
Y-103200D03*
Y-92202D03*
Y-81204D03*
Y-70206D03*
Y-59207D03*
X889051D03*
Y-70206D03*
Y-81204D03*
Y-92202D03*
Y-103200D03*
Y-133198D03*
Y-144196D03*
Y-155194D03*
Y-166192D03*
Y-177190D03*
Y-188189D03*
Y-199212D03*
G54D76*
X768198D03*
Y-188189D03*
Y-177190D03*
Y-166192D03*
Y-155194D03*
Y-144196D03*
Y-133198D03*
Y-103200D03*
Y-92202D03*
Y-81204D03*
Y-70206D03*
Y-59207D03*
X885038D03*
Y-70206D03*
Y-81204D03*
Y-92202D03*
Y-103200D03*
Y-133198D03*
Y-144196D03*
Y-155194D03*
Y-166192D03*
Y-177190D03*
Y-188189D03*
Y-199212D03*
G54D71*
X-782320Y59817D03*
Y74803D03*
G54D72*
X-966648Y63856D03*
X-980643D03*
X-939444Y237160D03*
X-953440D03*
X-755345Y197663D03*
X-741350D03*
X-1008151Y50165D03*
X-994156D03*
G54D73*
X-711556Y148361D03*
Y171856D03*
G54D58*
X-791362Y159664D03*
Y169672D03*
G54D59*
X-1001141Y33452D03*
Y23952D03*
Y14453D03*
X-974141Y33452D03*
Y14453D03*
G54D64*
X-993242Y209753D03*
X-1012241D03*
X-993242Y182753D03*
X-1002741D03*
X-1012241D03*
G54D65*
X-791362Y206172D03*
X-784352D03*
X-992962Y223571D03*
X-999947D03*
X-957758Y14351D03*
X-950747D03*
X-963854Y86665D03*
X-970839D03*
G54D66*
X-711556Y111354D03*
Y126365D03*
G54D67*
X-835101Y24054D03*
X-857606Y14554D03*
Y33553D03*
G54D68*
X-796188Y24130D03*
X-814172D03*
G54D69*
X-795350Y186665D03*
X-791362D03*
X-787349D03*
X-795350Y194666D03*
X-791362D03*
X-787349D03*
G54D74*
X-769341Y31166D03*
Y17170D03*
G54D75*
X-950189Y97968D03*
Y64948D03*
Y75971D03*
Y86970D03*
Y108966D03*
Y119964D03*
Y130962D03*
Y160960D03*
Y171958D03*
Y182956D03*
Y193954D03*
Y204953D03*
X-825449D03*
Y193954D03*
Y182956D03*
Y171958D03*
Y160960D03*
Y130962D03*
Y119964D03*
Y108966D03*
Y97968D03*
Y86970D03*
Y75971D03*
Y64948D03*
G54D76*
X-946302D03*
Y75971D03*
Y86970D03*
Y97968D03*
Y108966D03*
Y119964D03*
Y130962D03*
Y160960D03*
Y171958D03*
Y182956D03*
Y193954D03*
Y204953D03*
X-829462D03*
Y193954D03*
Y182956D03*
Y171958D03*
Y160960D03*
Y130962D03*
Y119964D03*
Y108966D03*
Y97968D03*
Y86970D03*
Y75971D03*
Y64948D03*
G54D71*
X-439420Y59817D03*
Y74803D03*
G54D72*
X-623748Y63856D03*
X-637743D03*
X-596544Y237160D03*
X-610540D03*
X-412445Y197663D03*
X-398450D03*
X-665251Y50165D03*
X-651256D03*
G54D73*
X-368656Y148361D03*
Y171856D03*
G54D58*
X-448462Y159664D03*
Y169672D03*
G54D59*
X-658241Y33452D03*
Y23952D03*
Y14453D03*
X-631241Y33452D03*
Y14453D03*
G54D64*
X-650342Y209753D03*
X-669341D03*
X-650342Y182753D03*
X-659841D03*
X-669341D03*
G54D65*
X-448462Y206172D03*
X-441452D03*
X-650062Y223571D03*
X-657047D03*
X-614858Y14351D03*
X-607847D03*
X-620954Y86665D03*
X-627939D03*
G54D66*
X-368656Y111354D03*
Y126365D03*
G54D67*
X-492201Y24054D03*
X-514706Y14554D03*
Y33553D03*
G54D68*
X-453288Y24130D03*
X-471272D03*
G54D69*
X-452450Y186665D03*
X-448462D03*
X-444449D03*
X-452450Y194666D03*
X-448462D03*
X-444449D03*
G54D74*
X-426441Y31166D03*
Y17170D03*
G54D75*
X-607289Y97968D03*
Y64948D03*
Y75971D03*
Y86970D03*
Y108966D03*
Y119964D03*
Y130962D03*
Y160960D03*
Y171958D03*
Y182956D03*
Y193954D03*
Y204953D03*
X-482549D03*
Y193954D03*
Y182956D03*
Y171958D03*
Y160960D03*
Y130962D03*
Y119964D03*
Y108966D03*
Y97968D03*
Y86970D03*
Y75971D03*
Y64948D03*
G54D76*
X-603402D03*
Y75971D03*
Y86970D03*
Y97968D03*
Y108966D03*
Y119964D03*
Y130962D03*
Y160960D03*
Y171958D03*
Y182956D03*
Y193954D03*
Y204953D03*
X-486562D03*
Y193954D03*
Y182956D03*
Y171958D03*
Y160960D03*
Y130962D03*
Y119964D03*
Y108966D03*
Y97968D03*
Y86970D03*
Y75971D03*
Y64948D03*
G54D71*
X-96520Y59817D03*
Y74803D03*
G54D72*
X-280848Y63856D03*
X-294843D03*
X-253644Y237160D03*
X-267640D03*
X-69545Y197663D03*
X-55550D03*
X-322351Y50165D03*
X-308356D03*
G54D73*
X-25756Y148361D03*
Y171856D03*
G54D58*
X-105562Y159664D03*
Y169672D03*
G54D59*
X-315341Y33452D03*
Y23952D03*
Y14453D03*
X-288341Y33452D03*
Y14453D03*
G54D64*
X-307442Y209753D03*
X-326441D03*
X-307442Y182753D03*
X-316941D03*
X-326441D03*
G54D65*
X-105562Y206172D03*
X-98552D03*
X-307162Y223571D03*
X-314147D03*
X-271958Y14351D03*
X-264947D03*
X-278054Y86665D03*
X-285039D03*
G54D66*
X-25756Y111354D03*
Y126365D03*
G54D67*
X-149301Y24054D03*
X-171806Y14554D03*
Y33553D03*
G54D68*
X-110388Y24130D03*
X-128372D03*
G54D69*
X-109550Y186665D03*
X-105562D03*
X-101549D03*
X-109550Y194666D03*
X-105562D03*
X-101549D03*
G54D74*
X-83541Y31166D03*
Y17170D03*
G54D75*
X-264389Y97968D03*
Y64948D03*
Y75971D03*
Y86970D03*
Y108966D03*
Y119964D03*
Y130962D03*
Y160960D03*
Y171958D03*
Y182956D03*
Y193954D03*
Y204953D03*
X-139649D03*
Y193954D03*
Y182956D03*
Y171958D03*
Y160960D03*
Y130962D03*
Y119964D03*
Y108966D03*
Y97968D03*
Y86970D03*
Y75971D03*
Y64948D03*
G54D76*
X-260502D03*
Y75971D03*
Y86970D03*
Y97968D03*
Y108966D03*
Y119964D03*
Y130962D03*
Y160960D03*
Y171958D03*
Y182956D03*
Y193954D03*
Y204953D03*
X-143662D03*
Y193954D03*
Y182956D03*
Y171958D03*
Y160960D03*
Y130962D03*
Y119964D03*
Y108966D03*
Y97968D03*
Y86970D03*
Y75971D03*
Y64948D03*
G54D71*
X246380Y59817D03*
Y74803D03*
G54D72*
X62052Y63856D03*
X48057D03*
X89256Y237160D03*
X75260D03*
X273355Y197663D03*
X287350D03*
X20549Y50165D03*
X34544D03*
G54D73*
X317144Y148361D03*
Y171856D03*
G54D58*
X237338Y159664D03*
Y169672D03*
G54D59*
X27559Y33452D03*
Y23952D03*
Y14453D03*
X54559Y33452D03*
Y14453D03*
G54D64*
X35458Y209753D03*
X16459D03*
X35458Y182753D03*
X25959D03*
X16459D03*
G54D65*
X237338Y206172D03*
X244348D03*
X35738Y223571D03*
X28753D03*
X70942Y14351D03*
X77953D03*
X64846Y86665D03*
X57861D03*
G54D66*
X317144Y111354D03*
Y126365D03*
G54D67*
X193599Y24054D03*
X171094Y14554D03*
Y33553D03*
G54D68*
X232512Y24130D03*
X214528D03*
G54D69*
X233350Y186665D03*
X237338D03*
X241351D03*
X233350Y194666D03*
X237338D03*
X241351D03*
G54D74*
X259359Y31166D03*
Y17170D03*
G54D75*
X78511Y97968D03*
Y64948D03*
Y75971D03*
Y86970D03*
Y108966D03*
Y119964D03*
Y130962D03*
Y160960D03*
Y171958D03*
Y182956D03*
Y193954D03*
Y204953D03*
X203251D03*
Y193954D03*
Y182956D03*
Y171958D03*
Y160960D03*
Y130962D03*
Y119964D03*
Y108966D03*
Y97968D03*
Y86970D03*
Y75971D03*
Y64948D03*
G54D76*
X82398D03*
Y75971D03*
Y86970D03*
Y97968D03*
Y108966D03*
Y119964D03*
Y130962D03*
Y160960D03*
Y171958D03*
Y182956D03*
Y193954D03*
Y204953D03*
X199238D03*
Y193954D03*
Y182956D03*
Y171958D03*
Y160960D03*
Y130962D03*
Y119964D03*
Y108966D03*
Y97968D03*
Y86970D03*
Y75971D03*
Y64948D03*
G54D71*
X589280Y59817D03*
Y74803D03*
G54D72*
X404952Y63856D03*
X390957D03*
X432156Y237160D03*
X418160D03*
X616255Y197663D03*
X630250D03*
X363449Y50165D03*
X377444D03*
G54D73*
X660044Y148361D03*
Y171856D03*
G54D58*
X580238Y159664D03*
Y169672D03*
G54D59*
X370459Y33452D03*
Y23952D03*
Y14453D03*
X397459Y33452D03*
Y14453D03*
G54D64*
X378358Y209753D03*
X359359D03*
X378358Y182753D03*
X368859D03*
X359359D03*
G54D65*
X580238Y206172D03*
X587248D03*
X378638Y223571D03*
X371653D03*
X413842Y14351D03*
X420853D03*
X407746Y86665D03*
X400761D03*
G54D66*
X660044Y111354D03*
Y126365D03*
G54D67*
X536499Y24054D03*
X513994Y14554D03*
Y33553D03*
G54D68*
X575412Y24130D03*
X557428D03*
G54D69*
X576250Y186665D03*
X580238D03*
X584251D03*
X576250Y194666D03*
X580238D03*
X584251D03*
G54D74*
X602259Y31166D03*
Y17170D03*
G54D75*
X421411Y97968D03*
Y64948D03*
Y75971D03*
Y86970D03*
Y108966D03*
Y119964D03*
Y130962D03*
Y160960D03*
Y171958D03*
Y182956D03*
Y193954D03*
Y204953D03*
X546151D03*
Y193954D03*
Y182956D03*
Y171958D03*
Y160960D03*
Y130962D03*
Y119964D03*
Y108966D03*
Y97968D03*
Y86970D03*
Y75971D03*
Y64948D03*
G54D76*
X425298D03*
Y75971D03*
Y86970D03*
Y97968D03*
Y108966D03*
Y119964D03*
Y130962D03*
Y160960D03*
Y171958D03*
Y182956D03*
Y193954D03*
Y204953D03*
X542138D03*
Y193954D03*
Y182956D03*
Y171958D03*
Y160960D03*
Y130962D03*
Y119964D03*
Y108966D03*
Y97968D03*
Y86970D03*
Y75971D03*
Y64948D03*
G54D71*
X932180Y59817D03*
Y74803D03*
G54D72*
X747852Y63856D03*
X733857D03*
X775056Y237160D03*
X761060D03*
X959155Y197663D03*
X973150D03*
X706349Y50165D03*
X720344D03*
G54D73*
X1002944Y148361D03*
Y171856D03*
G54D58*
X923138Y159664D03*
Y169672D03*
G54D59*
X713359Y33452D03*
Y23952D03*
Y14453D03*
X740359Y33452D03*
Y14453D03*
G54D64*
X721258Y209753D03*
X702259D03*
X721258Y182753D03*
X711759D03*
X702259D03*
G54D65*
X923138Y206172D03*
X930148D03*
X721538Y223571D03*
X714553D03*
X756742Y14351D03*
X763753D03*
X750646Y86665D03*
X743661D03*
G54D66*
X1002944Y111354D03*
Y126365D03*
G54D67*
X879399Y24054D03*
X856894Y14554D03*
Y33553D03*
G54D68*
X918312Y24130D03*
X900328D03*
G54D69*
X919150Y186665D03*
X923138D03*
X927151D03*
X919150Y194666D03*
X923138D03*
X927151D03*
G54D74*
X945159Y31166D03*
Y17170D03*
G54D75*
X764311Y97968D03*
Y64948D03*
Y75971D03*
Y86970D03*
Y108966D03*
Y119964D03*
Y130962D03*
Y160960D03*
Y171958D03*
Y182956D03*
Y193954D03*
Y204953D03*
X889051D03*
Y193954D03*
Y182956D03*
Y171958D03*
Y160960D03*
Y130962D03*
Y119964D03*
Y108966D03*
Y97968D03*
Y86970D03*
Y75971D03*
Y64948D03*
G54D76*
X768198D03*
Y75971D03*
Y86970D03*
Y97968D03*
Y108966D03*
Y119964D03*
Y130962D03*
Y160960D03*
Y171958D03*
Y182956D03*
Y193954D03*
Y204953D03*
X885038D03*
Y193954D03*
Y182956D03*
Y171958D03*
Y160960D03*
Y130962D03*
Y119964D03*
Y108966D03*
Y97968D03*
Y86970D03*
Y75971D03*
Y64948D03*
G54D71*
X-782320Y323977D03*
Y338963D03*
G54D72*
X-966648Y328016D03*
X-980643D03*
X-939444Y501320D03*
X-953440D03*
X-755345Y461823D03*
X-741350D03*
X-1008151Y314325D03*
X-994156D03*
G54D73*
X-711556Y412521D03*
Y436016D03*
G54D58*
X-791362Y423824D03*
Y433832D03*
G54D59*
X-1001141Y297612D03*
Y288112D03*
Y278613D03*
X-974141Y297612D03*
Y278613D03*
G54D64*
X-993242Y473913D03*
X-1012241D03*
X-993242Y446913D03*
X-1002741D03*
X-1012241D03*
G54D65*
X-791362Y470332D03*
X-784352D03*
X-992962Y487731D03*
X-999947D03*
X-957758Y278511D03*
X-950747D03*
X-963854Y350825D03*
X-970839D03*
G54D66*
X-711556Y375514D03*
Y390525D03*
G54D67*
X-835101Y288214D03*
X-857606Y278714D03*
Y297713D03*
G54D68*
X-796188Y288290D03*
X-814172D03*
G54D69*
X-795350Y450825D03*
X-791362D03*
X-787349D03*
X-795350Y458826D03*
X-791362D03*
X-787349D03*
G54D74*
X-769341Y295326D03*
Y281330D03*
G54D75*
X-950189Y362128D03*
Y329108D03*
Y340131D03*
Y351130D03*
Y373126D03*
Y384124D03*
Y395122D03*
Y425120D03*
Y436118D03*
Y447116D03*
Y458114D03*
Y469113D03*
X-825449D03*
Y458114D03*
Y447116D03*
Y436118D03*
Y425120D03*
Y395122D03*
Y384124D03*
Y373126D03*
Y362128D03*
Y351130D03*
Y340131D03*
Y329108D03*
G54D76*
X-946302D03*
Y340131D03*
Y351130D03*
Y362128D03*
Y373126D03*
Y384124D03*
Y395122D03*
Y425120D03*
Y436118D03*
Y447116D03*
Y458114D03*
Y469113D03*
X-829462D03*
Y458114D03*
Y447116D03*
Y436118D03*
Y425120D03*
Y395122D03*
Y384124D03*
Y373126D03*
Y362128D03*
Y351130D03*
Y340131D03*
Y329108D03*
G54D71*
X-439420Y323977D03*
Y338963D03*
G54D72*
X-623748Y328016D03*
X-637743D03*
X-596544Y501320D03*
X-610540D03*
X-412445Y461823D03*
X-398450D03*
X-665251Y314325D03*
X-651256D03*
G54D73*
X-368656Y412521D03*
Y436016D03*
G54D58*
X-448462Y423824D03*
Y433832D03*
G54D59*
X-658241Y297612D03*
Y288112D03*
Y278613D03*
X-631241Y297612D03*
Y278613D03*
G54D64*
X-650342Y473913D03*
X-669341D03*
X-650342Y446913D03*
X-659841D03*
X-669341D03*
G54D65*
X-448462Y470332D03*
X-441452D03*
X-650062Y487731D03*
X-657047D03*
X-614858Y278511D03*
X-607847D03*
X-620954Y350825D03*
X-627939D03*
G54D66*
X-368656Y375514D03*
Y390525D03*
G54D67*
X-492201Y288214D03*
X-514706Y278714D03*
Y297713D03*
G54D68*
X-453288Y288290D03*
X-471272D03*
G54D69*
X-452450Y450825D03*
X-448462D03*
X-444449D03*
X-452450Y458826D03*
X-448462D03*
X-444449D03*
G54D74*
X-426441Y295326D03*
Y281330D03*
G54D75*
X-607289Y362128D03*
Y329108D03*
Y340131D03*
Y351130D03*
Y373126D03*
Y384124D03*
Y395122D03*
Y425120D03*
Y436118D03*
Y447116D03*
Y458114D03*
Y469113D03*
X-482549D03*
Y458114D03*
Y447116D03*
Y436118D03*
Y425120D03*
Y395122D03*
Y384124D03*
Y373126D03*
Y362128D03*
Y351130D03*
Y340131D03*
Y329108D03*
G54D76*
X-603402D03*
Y340131D03*
Y351130D03*
Y362128D03*
Y373126D03*
Y384124D03*
Y395122D03*
Y425120D03*
Y436118D03*
Y447116D03*
Y458114D03*
Y469113D03*
X-486562D03*
Y458114D03*
Y447116D03*
Y436118D03*
Y425120D03*
Y395122D03*
Y384124D03*
Y373126D03*
Y362128D03*
Y351130D03*
Y340131D03*
Y329108D03*
G54D71*
X-96520Y323977D03*
Y338963D03*
G54D72*
X-280848Y328016D03*
X-294843D03*
X-253644Y501320D03*
X-267640D03*
X-69545Y461823D03*
X-55550D03*
X-322351Y314325D03*
X-308356D03*
G54D73*
X-25756Y412521D03*
Y436016D03*
G54D58*
X-105562Y423824D03*
Y433832D03*
G54D59*
X-315341Y297612D03*
Y288112D03*
Y278613D03*
X-288341Y297612D03*
Y278613D03*
G54D64*
X-307442Y473913D03*
X-326441D03*
X-307442Y446913D03*
X-316941D03*
X-326441D03*
G54D65*
X-105562Y470332D03*
X-98552D03*
X-307162Y487731D03*
X-314147D03*
X-271958Y278511D03*
X-264947D03*
X-278054Y350825D03*
X-285039D03*
G54D66*
X-25756Y375514D03*
Y390525D03*
G54D67*
X-149301Y288214D03*
X-171806Y278714D03*
Y297713D03*
G54D68*
X-110388Y288290D03*
X-128372D03*
G54D69*
X-109550Y450825D03*
X-105562D03*
X-101549D03*
X-109550Y458826D03*
X-105562D03*
X-101549D03*
G54D74*
X-83541Y295326D03*
Y281330D03*
G54D75*
X-264389Y362128D03*
Y329108D03*
Y340131D03*
Y351130D03*
Y373126D03*
Y384124D03*
Y395122D03*
Y425120D03*
Y436118D03*
Y447116D03*
Y458114D03*
Y469113D03*
X-139649D03*
Y458114D03*
Y447116D03*
Y436118D03*
Y425120D03*
Y395122D03*
Y384124D03*
Y373126D03*
Y362128D03*
Y351130D03*
Y340131D03*
Y329108D03*
G54D76*
X-260502D03*
Y340131D03*
Y351130D03*
Y362128D03*
Y373126D03*
Y384124D03*
Y395122D03*
Y425120D03*
Y436118D03*
Y447116D03*
Y458114D03*
Y469113D03*
X-143662D03*
Y458114D03*
Y447116D03*
Y436118D03*
Y425120D03*
Y395122D03*
Y384124D03*
Y373126D03*
Y362128D03*
Y351130D03*
Y340131D03*
Y329108D03*
G54D71*
X246380Y323977D03*
Y338963D03*
G54D72*
X62052Y328016D03*
X48057D03*
X89256Y501320D03*
X75260D03*
X273355Y461823D03*
X287350D03*
X20549Y314325D03*
X34544D03*
G54D73*
X317144Y412521D03*
Y436016D03*
G54D58*
X237338Y423824D03*
Y433832D03*
G54D59*
X27559Y297612D03*
Y288112D03*
Y278613D03*
X54559Y297612D03*
Y278613D03*
G54D64*
X35458Y473913D03*
X16459D03*
X35458Y446913D03*
X25959D03*
X16459D03*
G54D65*
X237338Y470332D03*
X244348D03*
X35738Y487731D03*
X28753D03*
X70942Y278511D03*
X77953D03*
X64846Y350825D03*
X57861D03*
G54D66*
X317144Y375514D03*
Y390525D03*
G54D67*
X193599Y288214D03*
X171094Y278714D03*
Y297713D03*
G54D68*
X232512Y288290D03*
X214528D03*
G54D69*
X233350Y450825D03*
X237338D03*
X241351D03*
X233350Y458826D03*
X237338D03*
X241351D03*
G54D74*
X259359Y295326D03*
Y281330D03*
G54D75*
X78511Y362128D03*
Y329108D03*
Y340131D03*
Y351130D03*
Y373126D03*
Y384124D03*
Y395122D03*
Y425120D03*
Y436118D03*
Y447116D03*
Y458114D03*
Y469113D03*
X203251D03*
Y458114D03*
Y447116D03*
Y436118D03*
Y425120D03*
Y395122D03*
Y384124D03*
Y373126D03*
Y362128D03*
Y351130D03*
Y340131D03*
Y329108D03*
G54D76*
X82398D03*
Y340131D03*
Y351130D03*
Y362128D03*
Y373126D03*
Y384124D03*
Y395122D03*
Y425120D03*
Y436118D03*
Y447116D03*
Y458114D03*
Y469113D03*
X199238D03*
Y458114D03*
Y447116D03*
Y436118D03*
Y425120D03*
Y395122D03*
Y384124D03*
Y373126D03*
Y362128D03*
Y351130D03*
Y340131D03*
Y329108D03*
G54D71*
X589280Y323977D03*
Y338963D03*
G54D72*
X404952Y328016D03*
X390957D03*
X432156Y501320D03*
X418160D03*
X616255Y461823D03*
X630250D03*
X363449Y314325D03*
X377444D03*
G54D73*
X660044Y412521D03*
Y436016D03*
G54D58*
X580238Y423824D03*
Y433832D03*
G54D59*
X370459Y297612D03*
Y288112D03*
Y278613D03*
X397459Y297612D03*
Y278613D03*
G54D64*
X378358Y473913D03*
X359359D03*
X378358Y446913D03*
X368859D03*
X359359D03*
G54D65*
X580238Y470332D03*
X587248D03*
X378638Y487731D03*
X371653D03*
X413842Y278511D03*
X420853D03*
X407746Y350825D03*
X400761D03*
G54D66*
X660044Y375514D03*
Y390525D03*
G54D67*
X536499Y288214D03*
X513994Y278714D03*
Y297713D03*
G54D68*
X575412Y288290D03*
X557428D03*
G54D69*
X576250Y450825D03*
X580238D03*
X584251D03*
X576250Y458826D03*
X580238D03*
X584251D03*
G54D74*
X602259Y295326D03*
Y281330D03*
G54D75*
X421411Y362128D03*
Y329108D03*
Y340131D03*
Y351130D03*
Y373126D03*
Y384124D03*
Y395122D03*
Y425120D03*
Y436118D03*
Y447116D03*
Y458114D03*
Y469113D03*
X546151D03*
Y458114D03*
Y447116D03*
Y436118D03*
Y425120D03*
Y395122D03*
Y384124D03*
Y373126D03*
Y362128D03*
Y351130D03*
Y340131D03*
Y329108D03*
G54D76*
X425298D03*
Y340131D03*
Y351130D03*
Y362128D03*
Y373126D03*
Y384124D03*
Y395122D03*
Y425120D03*
Y436118D03*
Y447116D03*
Y458114D03*
Y469113D03*
X542138D03*
Y458114D03*
Y447116D03*
Y436118D03*
Y425120D03*
Y395122D03*
Y384124D03*
Y373126D03*
Y362128D03*
Y351130D03*
Y340131D03*
Y329108D03*
G54D71*
X932180Y323977D03*
Y338963D03*
G54D72*
X747852Y328016D03*
X733857D03*
X775056Y501320D03*
X761060D03*
X959155Y461823D03*
X973150D03*
X706349Y314325D03*
X720344D03*
G54D73*
X1002944Y412521D03*
Y436016D03*
G54D58*
X923138Y423824D03*
Y433832D03*
G54D59*
X713359Y297612D03*
Y288112D03*
Y278613D03*
X740359Y297612D03*
Y278613D03*
G54D64*
X721258Y473913D03*
X702259D03*
X721258Y446913D03*
X711759D03*
X702259D03*
G54D65*
X923138Y470332D03*
X930148D03*
X721538Y487731D03*
X714553D03*
X756742Y278511D03*
X763753D03*
X750646Y350825D03*
X743661D03*
G54D66*
X1002944Y375514D03*
Y390525D03*
G54D67*
X879399Y288214D03*
X856894Y278714D03*
Y297713D03*
G54D68*
X918312Y288290D03*
X900328D03*
G54D69*
X919150Y450825D03*
X923138D03*
X927151D03*
X919150Y458826D03*
X923138D03*
X927151D03*
G54D74*
X945159Y295326D03*
Y281330D03*
G54D75*
X764311Y362128D03*
Y329108D03*
Y340131D03*
Y351130D03*
Y373126D03*
Y384124D03*
Y395122D03*
Y425120D03*
Y436118D03*
Y447116D03*
Y458114D03*
Y469113D03*
X889051D03*
Y458114D03*
Y447116D03*
Y436118D03*
Y425120D03*
Y395122D03*
Y384124D03*
Y373126D03*
Y362128D03*
Y351130D03*
Y340131D03*
Y329108D03*
G54D76*
X768198D03*
Y340131D03*
Y351130D03*
Y362128D03*
Y373126D03*
Y384124D03*
Y395122D03*
Y425120D03*
Y436118D03*
Y447116D03*
Y458114D03*
Y469113D03*
X885038D03*
Y458114D03*
Y447116D03*
Y436118D03*
Y425120D03*
Y395122D03*
Y384124D03*
Y373126D03*
Y362128D03*
Y351130D03*
Y340131D03*
Y329108D03*
G54D71*
X-782320Y588137D03*
Y603123D03*
G54D72*
X-966648Y592176D03*
X-980643D03*
X-939444Y765480D03*
X-953440D03*
X-755345Y725983D03*
X-741350D03*
X-1008151Y578485D03*
X-994156D03*
G54D73*
X-711556Y676681D03*
Y700176D03*
G54D58*
X-791362Y687984D03*
Y697992D03*
G54D59*
X-1001141Y561772D03*
Y552272D03*
Y542773D03*
X-974141Y561772D03*
Y542773D03*
G54D64*
X-993242Y738073D03*
X-1012241D03*
X-993242Y711073D03*
X-1002741D03*
X-1012241D03*
G54D65*
X-791362Y734492D03*
X-784352D03*
X-992962Y751891D03*
X-999947D03*
X-957758Y542671D03*
X-950747D03*
X-963854Y614985D03*
X-970839D03*
G54D66*
X-711556Y639674D03*
Y654685D03*
G54D67*
X-835101Y552374D03*
X-857606Y542874D03*
Y561873D03*
G54D68*
X-796188Y552450D03*
X-814172D03*
G54D69*
X-795350Y714985D03*
X-791362D03*
X-787349D03*
X-795350Y722986D03*
X-791362D03*
X-787349D03*
G54D74*
X-769341Y559486D03*
Y545490D03*
G54D75*
X-950189Y626288D03*
Y593268D03*
Y604291D03*
Y615290D03*
Y637286D03*
Y648284D03*
Y659282D03*
Y689280D03*
Y700278D03*
Y711276D03*
Y722274D03*
Y733273D03*
X-825449D03*
Y722274D03*
Y711276D03*
Y700278D03*
Y689280D03*
Y659282D03*
Y648284D03*
Y637286D03*
Y626288D03*
Y615290D03*
Y604291D03*
Y593268D03*
G54D76*
X-946302D03*
Y604291D03*
Y615290D03*
Y626288D03*
Y637286D03*
Y648284D03*
Y659282D03*
Y689280D03*
Y700278D03*
Y711276D03*
Y722274D03*
Y733273D03*
X-829462D03*
Y722274D03*
Y711276D03*
Y700278D03*
Y689280D03*
Y659282D03*
Y648284D03*
Y637286D03*
Y626288D03*
Y615290D03*
Y604291D03*
Y593268D03*
G54D71*
X-439420Y588137D03*
Y603123D03*
G54D72*
X-623748Y592176D03*
X-637743D03*
X-596544Y765480D03*
X-610540D03*
X-412445Y725983D03*
X-398450D03*
X-665251Y578485D03*
X-651256D03*
G54D73*
X-368656Y676681D03*
Y700176D03*
G54D58*
X-448462Y687984D03*
Y697992D03*
G54D59*
X-658241Y561772D03*
Y552272D03*
Y542773D03*
X-631241Y561772D03*
Y542773D03*
G54D64*
X-650342Y738073D03*
X-669341D03*
X-650342Y711073D03*
X-659841D03*
X-669341D03*
G54D65*
X-448462Y734492D03*
X-441452D03*
X-650062Y751891D03*
X-657047D03*
X-614858Y542671D03*
X-607847D03*
X-620954Y614985D03*
X-627939D03*
G54D66*
X-368656Y639674D03*
Y654685D03*
G54D67*
X-492201Y552374D03*
X-514706Y542874D03*
Y561873D03*
G54D68*
X-453288Y552450D03*
X-471272D03*
G54D69*
X-452450Y714985D03*
X-448462D03*
X-444449D03*
X-452450Y722986D03*
X-448462D03*
X-444449D03*
G54D74*
X-426441Y559486D03*
Y545490D03*
G54D75*
X-607289Y626288D03*
Y593268D03*
Y604291D03*
Y615290D03*
Y637286D03*
Y648284D03*
Y659282D03*
Y689280D03*
Y700278D03*
Y711276D03*
Y722274D03*
Y733273D03*
X-482549D03*
Y722274D03*
Y711276D03*
Y700278D03*
Y689280D03*
Y659282D03*
Y648284D03*
Y637286D03*
Y626288D03*
Y615290D03*
Y604291D03*
Y593268D03*
G54D76*
X-603402D03*
Y604291D03*
Y615290D03*
Y626288D03*
Y637286D03*
Y648284D03*
Y659282D03*
Y689280D03*
Y700278D03*
Y711276D03*
Y722274D03*
Y733273D03*
X-486562D03*
Y722274D03*
Y711276D03*
Y700278D03*
Y689280D03*
Y659282D03*
Y648284D03*
Y637286D03*
Y626288D03*
Y615290D03*
Y604291D03*
Y593268D03*
G54D71*
X-96520Y588137D03*
Y603123D03*
G54D72*
X-280848Y592176D03*
X-294843D03*
X-253644Y765480D03*
X-267640D03*
X-69545Y725983D03*
X-55550D03*
X-322351Y578485D03*
X-308356D03*
G54D73*
X-25756Y676681D03*
Y700176D03*
G54D58*
X-105562Y687984D03*
Y697992D03*
G54D59*
X-315341Y561772D03*
Y552272D03*
Y542773D03*
X-288341Y561772D03*
Y542773D03*
G54D64*
X-307442Y738073D03*
X-326441D03*
X-307442Y711073D03*
X-316941D03*
X-326441D03*
G54D65*
X-105562Y734492D03*
X-98552D03*
X-307162Y751891D03*
X-314147D03*
X-271958Y542671D03*
X-264947D03*
X-278054Y614985D03*
X-285039D03*
G54D66*
X-25756Y639674D03*
Y654685D03*
G54D67*
X-149301Y552374D03*
X-171806Y542874D03*
Y561873D03*
G54D68*
X-110388Y552450D03*
X-128372D03*
G54D69*
X-109550Y714985D03*
X-105562D03*
X-101549D03*
X-109550Y722986D03*
X-105562D03*
X-101549D03*
G54D74*
X-83541Y559486D03*
Y545490D03*
G54D75*
X-264389Y626288D03*
Y593268D03*
Y604291D03*
Y615290D03*
Y637286D03*
Y648284D03*
Y659282D03*
Y689280D03*
Y700278D03*
Y711276D03*
Y722274D03*
Y733273D03*
X-139649D03*
Y722274D03*
Y711276D03*
Y700278D03*
Y689280D03*
Y659282D03*
Y648284D03*
Y637286D03*
Y626288D03*
Y615290D03*
Y604291D03*
Y593268D03*
G54D76*
X-260502D03*
Y604291D03*
Y615290D03*
Y626288D03*
Y637286D03*
Y648284D03*
Y659282D03*
Y689280D03*
Y700278D03*
Y711276D03*
Y722274D03*
Y733273D03*
X-143662D03*
Y722274D03*
Y711276D03*
Y700278D03*
Y689280D03*
Y659282D03*
Y648284D03*
Y637286D03*
Y626288D03*
Y615290D03*
Y604291D03*
Y593268D03*
G54D71*
X246380Y588137D03*
Y603123D03*
G54D72*
X62052Y592176D03*
X48057D03*
X89256Y765480D03*
X75260D03*
X273355Y725983D03*
X287350D03*
X20549Y578485D03*
X34544D03*
G54D73*
X317144Y676681D03*
Y700176D03*
G54D58*
X237338Y687984D03*
Y697992D03*
G54D59*
X27559Y561772D03*
Y552272D03*
Y542773D03*
X54559Y561772D03*
Y542773D03*
G54D64*
X35458Y738073D03*
X16459D03*
X35458Y711073D03*
X25959D03*
X16459D03*
G54D65*
X237338Y734492D03*
X244348D03*
X35738Y751891D03*
X28753D03*
X70942Y542671D03*
X77953D03*
X64846Y614985D03*
X57861D03*
G54D66*
X317144Y639674D03*
Y654685D03*
G54D67*
X193599Y552374D03*
X171094Y542874D03*
Y561873D03*
G54D68*
X232512Y552450D03*
X214528D03*
G54D69*
X233350Y714985D03*
X237338D03*
X241351D03*
X233350Y722986D03*
X237338D03*
X241351D03*
G54D74*
X259359Y559486D03*
Y545490D03*
G54D75*
X78511Y626288D03*
Y593268D03*
Y604291D03*
Y615290D03*
Y637286D03*
Y648284D03*
Y659282D03*
Y689280D03*
Y700278D03*
Y711276D03*
Y722274D03*
Y733273D03*
X203251D03*
Y722274D03*
Y711276D03*
Y700278D03*
Y689280D03*
Y659282D03*
Y648284D03*
Y637286D03*
Y626288D03*
Y615290D03*
Y604291D03*
Y593268D03*
G54D76*
X82398D03*
Y604291D03*
Y615290D03*
Y626288D03*
Y637286D03*
Y648284D03*
Y659282D03*
Y689280D03*
Y700278D03*
Y711276D03*
Y722274D03*
Y733273D03*
X199238D03*
Y722274D03*
Y711276D03*
Y700278D03*
Y689280D03*
Y659282D03*
Y648284D03*
Y637286D03*
Y626288D03*
Y615290D03*
Y604291D03*
Y593268D03*
G54D71*
X589280Y588137D03*
Y603123D03*
G54D72*
X404952Y592176D03*
X390957D03*
X432156Y765480D03*
X418160D03*
X616255Y725983D03*
X630250D03*
X363449Y578485D03*
X377444D03*
G54D73*
X660044Y676681D03*
Y700176D03*
G54D58*
X580238Y687984D03*
Y697992D03*
G54D59*
X370459Y561772D03*
Y552272D03*
Y542773D03*
X397459Y561772D03*
Y542773D03*
G54D64*
X378358Y738073D03*
X359359D03*
X378358Y711073D03*
X368859D03*
X359359D03*
G54D65*
X580238Y734492D03*
X587248D03*
X378638Y751891D03*
X371653D03*
X413842Y542671D03*
X420853D03*
X407746Y614985D03*
X400761D03*
G54D66*
X660044Y639674D03*
Y654685D03*
G54D67*
X536499Y552374D03*
X513994Y542874D03*
Y561873D03*
G54D68*
X575412Y552450D03*
X557428D03*
G54D69*
X576250Y714985D03*
X580238D03*
X584251D03*
X576250Y722986D03*
X580238D03*
X584251D03*
G54D74*
X602259Y559486D03*
Y545490D03*
G54D75*
X421411Y626288D03*
Y593268D03*
Y604291D03*
Y615290D03*
Y637286D03*
Y648284D03*
Y659282D03*
Y689280D03*
Y700278D03*
Y711276D03*
Y722274D03*
Y733273D03*
X546151D03*
Y722274D03*
Y711276D03*
Y700278D03*
Y689280D03*
Y659282D03*
Y648284D03*
Y637286D03*
Y626288D03*
Y615290D03*
Y604291D03*
Y593268D03*
G54D76*
X425298D03*
Y604291D03*
Y615290D03*
Y626288D03*
Y637286D03*
Y648284D03*
Y659282D03*
Y689280D03*
Y700278D03*
Y711276D03*
Y722274D03*
Y733273D03*
X542138D03*
Y722274D03*
Y711276D03*
Y700278D03*
Y689280D03*
Y659282D03*
Y648284D03*
Y637286D03*
Y626288D03*
Y615290D03*
Y604291D03*
Y593268D03*
G54D71*
X932180Y588137D03*
Y603123D03*
G54D72*
X747852Y592176D03*
X733857D03*
X775056Y765480D03*
X761060D03*
X959155Y725983D03*
X973150D03*
X706349Y578485D03*
X720344D03*
G54D73*
X1002944Y676681D03*
Y700176D03*
G54D58*
X923138Y687984D03*
Y697992D03*
G54D59*
X713359Y561772D03*
Y552272D03*
Y542773D03*
X740359Y561772D03*
Y542773D03*
G54D64*
X721258Y738073D03*
X702259D03*
X721258Y711073D03*
X711759D03*
X702259D03*
G54D65*
X923138Y734492D03*
X930148D03*
X721538Y751891D03*
X714553D03*
X756742Y542671D03*
X763753D03*
X750646Y614985D03*
X743661D03*
G54D66*
X1002944Y639674D03*
Y654685D03*
G54D67*
X879399Y552374D03*
X856894Y542874D03*
Y561873D03*
G54D68*
X918312Y552450D03*
X900328D03*
G54D69*
X919150Y714985D03*
X923138D03*
X927151D03*
X919150Y722986D03*
X923138D03*
X927151D03*
G54D74*
X945159Y559486D03*
Y545490D03*
G54D75*
X764311Y626288D03*
Y593268D03*
Y604291D03*
Y615290D03*
Y637286D03*
Y648284D03*
Y659282D03*
Y689280D03*
Y700278D03*
Y711276D03*
Y722274D03*
Y733273D03*
X889051D03*
Y722274D03*
Y711276D03*
Y700278D03*
Y689280D03*
Y659282D03*
Y648284D03*
Y637286D03*
Y626288D03*
Y615290D03*
Y604291D03*
Y593268D03*
G54D76*
X768198D03*
Y604291D03*
Y615290D03*
Y626288D03*
Y637286D03*
Y648284D03*
Y659282D03*
Y689280D03*
Y700278D03*
Y711276D03*
Y722274D03*
Y733273D03*
X885038D03*
Y722274D03*
Y711276D03*
Y700278D03*
Y689280D03*
Y659282D03*
Y648284D03*
Y637286D03*
Y626288D03*
Y615290D03*
Y604291D03*
Y593268D03*
G54D71*
X-782320Y852297D03*
Y867283D03*
G54D72*
X-966648Y856336D03*
X-980643D03*
X-939444Y1029640D03*
X-953440D03*
X-755345Y990143D03*
X-741350D03*
X-1008151Y842645D03*
X-994156D03*
G54D73*
X-711556Y940841D03*
Y964336D03*
G54D58*
X-791362Y952144D03*
Y962152D03*
G54D59*
X-1001141Y825932D03*
Y816432D03*
Y806933D03*
X-974141Y825932D03*
Y806933D03*
G54D64*
X-993242Y1002233D03*
X-1012241D03*
X-993242Y975233D03*
X-1002741D03*
X-1012241D03*
G54D65*
X-791362Y998652D03*
X-784352D03*
X-992962Y1016051D03*
X-999947D03*
X-957758Y806831D03*
X-950747D03*
X-963854Y879145D03*
X-970839D03*
G54D66*
X-711556Y903834D03*
Y918845D03*
G54D67*
X-835101Y816534D03*
X-857606Y807034D03*
Y826033D03*
G54D68*
X-796188Y816610D03*
X-814172D03*
G54D69*
X-795350Y979145D03*
X-791362D03*
X-787349D03*
X-795350Y987146D03*
X-791362D03*
X-787349D03*
G54D74*
X-769341Y823646D03*
Y809650D03*
G54D75*
X-950189Y890448D03*
Y857428D03*
Y868451D03*
Y879450D03*
Y901446D03*
Y912444D03*
Y923442D03*
Y953440D03*
Y964438D03*
Y975436D03*
Y986434D03*
Y997433D03*
X-825449D03*
Y986434D03*
Y975436D03*
Y964438D03*
Y953440D03*
Y923442D03*
Y912444D03*
Y901446D03*
Y890448D03*
Y879450D03*
Y868451D03*
Y857428D03*
G54D76*
X-946302D03*
Y868451D03*
Y879450D03*
Y890448D03*
Y901446D03*
Y912444D03*
Y923442D03*
Y953440D03*
Y964438D03*
Y975436D03*
Y986434D03*
Y997433D03*
X-829462D03*
Y986434D03*
Y975436D03*
Y964438D03*
Y953440D03*
Y923442D03*
Y912444D03*
Y901446D03*
Y890448D03*
Y879450D03*
Y868451D03*
Y857428D03*
G54D71*
X-439420Y852297D03*
Y867283D03*
G54D72*
X-623748Y856336D03*
X-637743D03*
X-596544Y1029640D03*
X-610540D03*
X-412445Y990143D03*
X-398450D03*
X-665251Y842645D03*
X-651256D03*
G54D73*
X-368656Y940841D03*
Y964336D03*
G54D58*
X-448462Y952144D03*
Y962152D03*
G54D59*
X-658241Y825932D03*
Y816432D03*
Y806933D03*
X-631241Y825932D03*
Y806933D03*
G54D64*
X-650342Y1002233D03*
X-669341D03*
X-650342Y975233D03*
X-659841D03*
X-669341D03*
G54D65*
X-448462Y998652D03*
X-441452D03*
X-650062Y1016051D03*
X-657047D03*
X-614858Y806831D03*
X-607847D03*
X-620954Y879145D03*
X-627939D03*
G54D66*
X-368656Y903834D03*
Y918845D03*
G54D67*
X-492201Y816534D03*
X-514706Y807034D03*
Y826033D03*
G54D68*
X-453288Y816610D03*
X-471272D03*
G54D69*
X-452450Y979145D03*
X-448462D03*
X-444449D03*
X-452450Y987146D03*
X-448462D03*
X-444449D03*
G54D74*
X-426441Y823646D03*
Y809650D03*
G54D75*
X-607289Y890448D03*
Y857428D03*
Y868451D03*
Y879450D03*
Y901446D03*
Y912444D03*
Y923442D03*
Y953440D03*
Y964438D03*
Y975436D03*
Y986434D03*
Y997433D03*
X-482549D03*
Y986434D03*
Y975436D03*
Y964438D03*
Y953440D03*
Y923442D03*
Y912444D03*
Y901446D03*
Y890448D03*
Y879450D03*
Y868451D03*
Y857428D03*
G54D76*
X-603402D03*
Y868451D03*
Y879450D03*
Y890448D03*
Y901446D03*
Y912444D03*
Y923442D03*
Y953440D03*
Y964438D03*
Y975436D03*
Y986434D03*
Y997433D03*
X-486562D03*
Y986434D03*
Y975436D03*
Y964438D03*
Y953440D03*
Y923442D03*
Y912444D03*
Y901446D03*
Y890448D03*
Y879450D03*
Y868451D03*
Y857428D03*
G54D71*
X-96520Y852297D03*
Y867283D03*
G54D72*
X-280848Y856336D03*
X-294843D03*
X-253644Y1029640D03*
X-267640D03*
X-69545Y990143D03*
X-55550D03*
X-322351Y842645D03*
X-308356D03*
G54D73*
X-25756Y940841D03*
Y964336D03*
G54D58*
X-105562Y952144D03*
Y962152D03*
G54D59*
X-315341Y825932D03*
Y816432D03*
Y806933D03*
X-288341Y825932D03*
Y806933D03*
G54D64*
X-307442Y1002233D03*
X-326441D03*
X-307442Y975233D03*
X-316941D03*
X-326441D03*
G54D65*
X-105562Y998652D03*
X-98552D03*
X-307162Y1016051D03*
X-314147D03*
X-271958Y806831D03*
X-264947D03*
X-278054Y879145D03*
X-285039D03*
G54D66*
X-25756Y903834D03*
Y918845D03*
G54D67*
X-149301Y816534D03*
X-171806Y807034D03*
Y826033D03*
G54D68*
X-110388Y816610D03*
X-128372D03*
G54D69*
X-109550Y979145D03*
X-105562D03*
X-101549D03*
X-109550Y987146D03*
X-105562D03*
X-101549D03*
G54D74*
X-83541Y823646D03*
Y809650D03*
G54D75*
X-264389Y890448D03*
Y857428D03*
Y868451D03*
Y879450D03*
Y901446D03*
Y912444D03*
Y923442D03*
Y953440D03*
Y964438D03*
Y975436D03*
Y986434D03*
Y997433D03*
X-139649D03*
Y986434D03*
Y975436D03*
Y964438D03*
Y953440D03*
Y923442D03*
Y912444D03*
Y901446D03*
Y890448D03*
Y879450D03*
Y868451D03*
Y857428D03*
G54D76*
X-260502D03*
Y868451D03*
Y879450D03*
Y890448D03*
Y901446D03*
Y912444D03*
Y923442D03*
Y953440D03*
Y964438D03*
Y975436D03*
Y986434D03*
Y997433D03*
X-143662D03*
Y986434D03*
Y975436D03*
Y964438D03*
Y953440D03*
Y923442D03*
Y912444D03*
Y901446D03*
Y890448D03*
Y879450D03*
Y868451D03*
Y857428D03*
G54D71*
X246380Y852297D03*
Y867283D03*
G54D72*
X62052Y856336D03*
X48057D03*
X89256Y1029640D03*
X75260D03*
X273355Y990143D03*
X287350D03*
X20549Y842645D03*
X34544D03*
G54D73*
X317144Y940841D03*
Y964336D03*
G54D58*
X237338Y952144D03*
Y962152D03*
G54D59*
X27559Y825932D03*
Y816432D03*
Y806933D03*
X54559Y825932D03*
Y806933D03*
G54D64*
X35458Y1002233D03*
X16459D03*
X35458Y975233D03*
X25959D03*
X16459D03*
G54D65*
X237338Y998652D03*
X244348D03*
X35738Y1016051D03*
X28753D03*
X70942Y806831D03*
X77953D03*
X64846Y879145D03*
X57861D03*
G54D66*
X317144Y903834D03*
Y918845D03*
G54D67*
X193599Y816534D03*
X171094Y807034D03*
Y826033D03*
G54D68*
X232512Y816610D03*
X214528D03*
G54D69*
X233350Y979145D03*
X237338D03*
X241351D03*
X233350Y987146D03*
X237338D03*
X241351D03*
G54D74*
X259359Y823646D03*
Y809650D03*
G54D75*
X78511Y890448D03*
Y857428D03*
Y868451D03*
Y879450D03*
Y901446D03*
Y912444D03*
Y923442D03*
Y953440D03*
Y964438D03*
Y975436D03*
Y986434D03*
Y997433D03*
X203251D03*
Y986434D03*
Y975436D03*
Y964438D03*
Y953440D03*
Y923442D03*
Y912444D03*
Y901446D03*
Y890448D03*
Y879450D03*
Y868451D03*
Y857428D03*
G54D76*
X82398D03*
Y868451D03*
Y879450D03*
Y890448D03*
Y901446D03*
Y912444D03*
Y923442D03*
Y953440D03*
Y964438D03*
Y975436D03*
Y986434D03*
Y997433D03*
X199238D03*
Y986434D03*
Y975436D03*
Y964438D03*
Y953440D03*
Y923442D03*
Y912444D03*
Y901446D03*
Y890448D03*
Y879450D03*
Y868451D03*
Y857428D03*
G54D71*
X589280Y852297D03*
Y867283D03*
G54D72*
X404952Y856336D03*
X390957D03*
X432156Y1029640D03*
X418160D03*
X616255Y990143D03*
X630250D03*
X363449Y842645D03*
X377444D03*
G54D73*
X660044Y940841D03*
Y964336D03*
G54D58*
X580238Y952144D03*
Y962152D03*
G54D59*
X370459Y825932D03*
Y816432D03*
Y806933D03*
X397459Y825932D03*
Y806933D03*
G54D64*
X378358Y1002233D03*
X359359D03*
X378358Y975233D03*
X368859D03*
X359359D03*
G54D65*
X580238Y998652D03*
X587248D03*
X378638Y1016051D03*
X371653D03*
X413842Y806831D03*
X420853D03*
X407746Y879145D03*
X400761D03*
G54D66*
X660044Y903834D03*
Y918845D03*
G54D67*
X536499Y816534D03*
X513994Y807034D03*
Y826033D03*
G54D68*
X575412Y816610D03*
X557428D03*
G54D69*
X576250Y979145D03*
X580238D03*
X584251D03*
X576250Y987146D03*
X580238D03*
X584251D03*
G54D74*
X602259Y823646D03*
Y809650D03*
G54D75*
X421411Y890448D03*
Y857428D03*
Y868451D03*
Y879450D03*
Y901446D03*
Y912444D03*
Y923442D03*
Y953440D03*
Y964438D03*
Y975436D03*
Y986434D03*
Y997433D03*
X546151D03*
Y986434D03*
Y975436D03*
Y964438D03*
Y953440D03*
Y923442D03*
Y912444D03*
Y901446D03*
Y890448D03*
Y879450D03*
Y868451D03*
Y857428D03*
G54D76*
X425298D03*
Y868451D03*
Y879450D03*
Y890448D03*
Y901446D03*
Y912444D03*
Y923442D03*
Y953440D03*
Y964438D03*
Y975436D03*
Y986434D03*
Y997433D03*
X542138D03*
Y986434D03*
Y975436D03*
Y964438D03*
Y953440D03*
Y923442D03*
Y912444D03*
Y901446D03*
Y890448D03*
Y879450D03*
Y868451D03*
Y857428D03*
G54D71*
X932180Y852297D03*
Y867283D03*
G54D72*
X747852Y856336D03*
X733857D03*
X775056Y1029640D03*
X761060D03*
X959155Y990143D03*
X973150D03*
X706349Y842645D03*
X720344D03*
G54D73*
X1002944Y940841D03*
Y964336D03*
G54D58*
X923138Y952144D03*
Y962152D03*
G54D59*
X713359Y825932D03*
Y816432D03*
Y806933D03*
X740359Y825932D03*
Y806933D03*
G54D64*
X721258Y1002233D03*
X702259D03*
X721258Y975233D03*
X711759D03*
X702259D03*
G54D65*
X923138Y998652D03*
X930148D03*
X721538Y1016051D03*
X714553D03*
X756742Y806831D03*
X763753D03*
X750646Y879145D03*
X743661D03*
G54D66*
X1002944Y903834D03*
Y918845D03*
G54D67*
X879399Y816534D03*
X856894Y807034D03*
Y826033D03*
G54D68*
X918312Y816610D03*
X900328D03*
G54D69*
X919150Y979145D03*
X923138D03*
X927151D03*
X919150Y987146D03*
X923138D03*
X927151D03*
G54D74*
X945159Y823646D03*
Y809650D03*
G54D75*
X764311Y890448D03*
Y857428D03*
Y868451D03*
Y879450D03*
Y901446D03*
Y912444D03*
Y923442D03*
Y953440D03*
Y964438D03*
Y975436D03*
Y986434D03*
Y997433D03*
X889051D03*
Y986434D03*
Y975436D03*
Y964438D03*
Y953440D03*
Y923442D03*
Y912444D03*
Y901446D03*
Y890448D03*
Y879450D03*
Y868451D03*
Y857428D03*
G54D76*
X768198D03*
Y868451D03*
Y879450D03*
Y890448D03*
Y901446D03*
Y912444D03*
Y923442D03*
Y953440D03*
Y964438D03*
Y975436D03*
Y986434D03*
Y997433D03*
X885038D03*
Y986434D03*
Y975436D03*
Y964438D03*
Y953440D03*
Y923442D03*
Y912444D03*
Y901446D03*
Y890448D03*
Y879450D03*
Y868451D03*
Y857428D03*
G54D136*
X329999Y-2740000D02*
G75*
G03X329999Y-2850000J-55000D01*
X479999D02*
G01X329999D01*
X479999D02*
G03X479999Y-2740000J55000D01*
X329999D02*
G01X479999D01*
X1290000D02*
G03X1290000Y-2850000J-55000D01*
X1439999D02*
G01X1290000D01*
X1439999D02*
G03X1439999Y-2740000J55000D01*
X1290000D02*
G01X1439999D01*
X-630001D02*
G03X-630001Y-2850000J-55000D01*
X-480001D02*
G01X-630001D01*
X-480001D02*
G03X-480001Y-2740000J55000D01*
X-630001D02*
G01X-480001D01*
X2849999Y480000D02*
G03X2739999Y480000I-55000D01*
Y330000D02*
G01Y480000D01*
Y330000D02*
G03X2849999Y330000I55000D01*
Y480000D02*
G01Y330000D01*
Y1440000D02*
G03X2739999Y1440000I-55000D01*
Y1290000D02*
G01Y1440000D01*
Y1290000D02*
G03X2849999Y1290000I55000D01*
Y1440000D02*
G01Y1290000D01*
Y-1440000D02*
G03X2739999Y-1440000I-55000D01*
Y-1590000D02*
G01Y-1440000D01*
Y-1590000D02*
G03X2849999Y-1590000I55000D01*
Y-1440000D02*
G01Y-1590000D01*
Y-480000D02*
G03X2739999Y-480000I-55000D01*
Y-630000D02*
G01Y-480000D01*
Y-630000D02*
G03X2849999Y-630000I55000D01*
Y-480000D02*
G01Y-630000D01*
X2347499Y2795000D02*
G03X2292499Y2795000I-27500D01*
Y2795000D02*
G03X2347499Y2795000I27500D01*
X2822499Y2320000D02*
G03X2767499Y2320000I-27500D01*
Y2320000D02*
G03X2822499Y2320000I27500D01*
X2347499Y-2795001D02*
G03X2292499Y-2795001I-27500D01*
Y-2795001D02*
G03X2347499Y-2795001I27500D01*
X2822499Y-2320000D02*
G03X2767499Y-2320000I-27500D01*
Y-2320000D02*
G03X2822499Y-2320000I27500D01*
X-2292501Y-2795001D02*
G03X-2347501Y-2795001I-27500D01*
Y-2795001D02*
G03X-2292501Y-2795001I27500D01*
X-2767501Y-2320000D02*
G03X-2822501Y-2320000I-27500D01*
Y-2320000D02*
G03X-2767501Y-2320000I27500D01*
Y2320000D02*
G03X-2822501Y2320000I-27500D01*
Y2320000D02*
G03X-2767501Y2320000I27500D01*
X-2292501Y2795000D02*
G03X-2347501Y2795000I-27500D01*
Y2795000D02*
G03X-2292501Y2795000I27500D01*
X-95001Y-2795001D02*
G03X-145001Y-2795001I-25000D01*
Y-2795001D02*
G03X-95001Y-2795001I25000D01*
X144999D02*
G03X94999Y-2795001I-25000D01*
Y-2795001D02*
G03X144999Y-2795001I25000D01*
X-2770001Y-120000D02*
G03X-2820001Y-120000I-25000D01*
Y-120000D02*
G03X-2770001Y-120000I25000D01*
Y120000D02*
G03X-2820001Y120000I-25000D01*
Y120000D02*
G03X-2770001Y120000I25000D01*
X-95001Y2795000D02*
G03X-145001Y2795000I-25000D01*
Y2795000D02*
G03X-95001Y2795000I25000D01*
X144999D02*
G03X94999Y2795000I-25000D01*
Y2795000D02*
G03X144999Y2795000I25000D01*
X2819999Y-120000D02*
G03X2769999Y-120000I-25000D01*
Y-120000D02*
G03X2819999Y-120000I25000D01*
Y120000D02*
G03X2769999Y120000I-25000D01*
Y120000D02*
G03X2819999Y120000I25000D01*
X-2657501Y-2062501D02*
G01X-2685001D01*
X-2657501D02*
G03X-2657501Y-2017500J22501D01*
X-2685001D02*
G01X-2657501D01*
X-2685001Y-2062501D02*
G01Y-2017500D01*
X-2657501Y-1942500D02*
G01X-2685001D01*
X-2657501D02*
G03X-2657501Y-1897501J22500D01*
X-2685001D02*
G01X-2657501D01*
X-2685001Y-1942500D02*
G01Y-1897501D01*
X-2657501Y-1822500D02*
G01X-2685001D01*
X-2657501D02*
G03X-2657501Y-1777500J22500D01*
X-2685001D02*
G01X-2657501D01*
X-2685001Y-1822500D02*
G01Y-1777500D01*
X-2657501Y-1702500D02*
G01X-2685001D01*
X-2657501D02*
G03X-2657501Y-1657500J22500D01*
X-2685001D02*
G01X-2657501D01*
X-2685001Y-1702500D02*
G01Y-1657500D01*
X-2657501Y-1582500D02*
G01X-2685001D01*
X-2657501D02*
G03X-2657501Y-1537501J22500D01*
X-2685001D02*
G01X-2657501D01*
X-2685001Y-1582500D02*
G01Y-1537501D01*
X-2657501Y-1462501D02*
G01X-2685001D01*
X-2657501D02*
G03X-2657501Y-1417500J22501D01*
X-2685001D02*
G01X-2657501D01*
X-2685001Y-1462501D02*
G01Y-1417500D01*
X-2657501Y-1342500D02*
G01X-2685001D01*
X-2657501D02*
G03X-2657501Y-1297501J22500D01*
X-2685001D02*
G01X-2657501D01*
X-2685001Y-1342500D02*
G01Y-1297501D01*
X-2657501Y-1222500D02*
G01X-2685001D01*
X-2657501D02*
G03X-2657501Y-1177500J22500D01*
X-2685001D02*
G01X-2657501D01*
X-2685001Y-1222500D02*
G01Y-1177500D01*
X-2657501Y-1102500D02*
G01X-2685001D01*
X-2657501D02*
G03X-2657501Y-1057500J22500D01*
X-2685001D02*
G01X-2657501D01*
X-2685001Y-1102500D02*
G01Y-1057500D01*
X-2657501Y-982500D02*
G01X-2685001D01*
X-2657501D02*
G03X-2657501Y-937501J22500D01*
X-2685001D02*
G01X-2657501D01*
X-2685001Y-982500D02*
G01Y-937501D01*
X-2657501Y-862501D02*
G01X-2685001D01*
X-2657501D02*
G03X-2657501Y-817500J22501D01*
X-2685001D02*
G01X-2657501D01*
X-2685001Y-862501D02*
G01Y-817500D01*
X-2657501Y-742500D02*
G01X-2685001D01*
X-2657501D02*
G03X-2657501Y-697501J22500D01*
X-2685001D02*
G01X-2657501D01*
X-2685001Y-742500D02*
G01Y-697501D01*
X-2657501Y-622500D02*
G01X-2685001D01*
X-2657501D02*
G03X-2657501Y-577500J22500D01*
X-2685001D02*
G01X-2657501D01*
X-2685001Y-622500D02*
G01Y-577500D01*
X-2657501Y-502500D02*
G01X-2685001D01*
X-2657501D02*
G03X-2657501Y-457500J22500D01*
X-2685001D02*
G01X-2657501D01*
X-2685001Y-502500D02*
G01Y-457500D01*
X-2657501Y-382500D02*
G01X-2685001D01*
X-2657501D02*
G03X-2657501Y-337500J22500D01*
X-2685001D02*
G01X-2657501D01*
X-2685001Y-382500D02*
G01Y-337500D01*
X-2657501Y-262500D02*
G01X-2685001D01*
X-2657501D02*
G03X-2657501Y-217500J22500D01*
X-2685001D02*
G01X-2657501D01*
X-2685001Y-262500D02*
G01Y-217500D01*
X-2657501Y-142500D02*
G01X-2685001D01*
X-2657501D02*
G03X-2657501Y-97500J22500D01*
X-2685001D02*
G01X-2657501D01*
X-2685001Y-142500D02*
G01Y-97500D01*
X-2657501Y-2182500D02*
G01X-2685001D01*
X-2657501D02*
G03X-2657501Y-2137501J22500D01*
X-2685001D02*
G01X-2657501D01*
X-2685001Y-2182500D02*
G01Y-2137501D01*
X-2657501Y2017500D02*
G01X-2685001D01*
X-2657501D02*
G03X-2657501Y2062500J22500D01*
X-2685001D02*
G01X-2657501D01*
X-2685001Y2017500D02*
G01Y2062500D01*
X-2657501Y1897500D02*
G01X-2685001D01*
X-2657501D02*
G03X-2657501Y1942500J22500D01*
X-2685001D02*
G01X-2657501D01*
X-2685001Y1897500D02*
G01Y1942500D01*
X-2657501Y1777500D02*
G01X-2685001D01*
X-2657501D02*
G03X-2657501Y1822500J22500D01*
X-2685001D02*
G01X-2657501D01*
X-2685001Y1777500D02*
G01Y1822500D01*
X-2657501Y1657500D02*
G01X-2685001D01*
X-2657501D02*
G03X-2657501Y1702500J22500D01*
X-2685001D02*
G01X-2657501D01*
X-2685001Y1657500D02*
G01Y1702500D01*
X-2657501Y1537500D02*
G01X-2685001D01*
X-2657501D02*
G03X-2657501Y1582500J22500D01*
X-2685001D02*
G01X-2657501D01*
X-2685001Y1537500D02*
G01Y1582500D01*
X-2657501Y1417500D02*
G01X-2685001D01*
X-2657501D02*
G03X-2657501Y1462500J22500D01*
X-2685001D02*
G01X-2657501D01*
X-2685001Y1417500D02*
G01Y1462500D01*
X-2657501Y1297500D02*
G01X-2685001D01*
X-2657501D02*
G03X-2657501Y1342500J22500D01*
X-2685001D02*
G01X-2657501D01*
X-2685001Y1297500D02*
G01Y1342500D01*
X-2657501Y1177500D02*
G01X-2685001D01*
X-2657501D02*
G03X-2657501Y1222500J22500D01*
X-2685001D02*
G01X-2657501D01*
X-2685001Y1177500D02*
G01Y1222500D01*
X-2657501Y1057500D02*
G01X-2685001D01*
X-2657501D02*
G03X-2657501Y1102500J22500D01*
X-2685001D02*
G01X-2657501D01*
X-2685001Y1057500D02*
G01Y1102500D01*
X-2657501Y937500D02*
G01X-2685001D01*
X-2657501D02*
G03X-2657501Y982500J22500D01*
X-2685001D02*
G01X-2657501D01*
X-2685001Y937500D02*
G01Y982500D01*
X-2657501Y817500D02*
G01X-2685001D01*
X-2657501D02*
G03X-2657501Y862500J22500D01*
X-2685001D02*
G01X-2657501D01*
X-2685001Y817500D02*
G01Y862500D01*
X-2657501Y697500D02*
G01X-2685001D01*
X-2657501D02*
G03X-2657501Y742500J22500D01*
X-2685001D02*
G01X-2657501D01*
X-2685001Y697500D02*
G01Y742500D01*
X-2657501Y577500D02*
G01X-2685001D01*
X-2657501D02*
G03X-2657501Y622500J22500D01*
X-2685001D02*
G01X-2657501D01*
X-2685001Y577500D02*
G01Y622500D01*
X-2657501Y457500D02*
G01X-2685001D01*
X-2657501D02*
G03X-2657501Y502500J22500D01*
X-2685001D02*
G01X-2657501D01*
X-2685001Y457500D02*
G01Y502500D01*
X-2657501Y337500D02*
G01X-2685001D01*
X-2657501D02*
G03X-2657501Y382500J22500D01*
X-2685001D02*
G01X-2657501D01*
X-2685001Y337500D02*
G01Y382500D01*
X-2657501Y217500D02*
G01X-2685001D01*
X-2657501D02*
G03X-2657501Y262500J22500D01*
X-2685001D02*
G01X-2657501D01*
X-2685001Y217500D02*
G01Y262500D01*
X-2657501Y97500D02*
G01X-2685001D01*
X-2657501D02*
G03X-2657501Y142500J22500D01*
X-2685001D02*
G01X-2657501D01*
X-2685001Y97500D02*
G01Y142500D01*
X-2657501Y2137500D02*
G01X-2685001D01*
X-2657501D02*
G03X-2657501Y2182500J22500D01*
X-2685001D02*
G01X-2657501D01*
X-2685001Y2137500D02*
G01Y2182500D01*
X2657499Y-2017500D02*
G01X2684999D01*
X2657499D02*
G03X2657499Y-2062501J-22500D01*
X2684999D02*
G01X2657499D01*
X2684999Y-2017500D02*
G01Y-2062501D01*
X2657499Y-1897501D02*
G01X2684999D01*
X2657499D02*
G03X2657499Y-1942500J-22499D01*
X2684999D02*
G01X2657499D01*
X2684999Y-1897501D02*
G01Y-1942500D01*
X2657499Y-1777500D02*
G01X2684999D01*
X2657499D02*
G03X2657499Y-1822500J-22500D01*
X2684999D02*
G01X2657499D01*
X2684999Y-1777500D02*
G01Y-1822500D01*
X2657499Y-1657500D02*
G01X2684999D01*
X2657499D02*
G03X2657499Y-1702500J-22500D01*
X2684999D02*
G01X2657499D01*
X2684999Y-1657500D02*
G01Y-1702500D01*
X2657499Y-1537501D02*
G01X2684999D01*
X2657499D02*
G03X2657499Y-1582500J-22499D01*
X2684999D02*
G01X2657499D01*
X2684999Y-1537501D02*
G01Y-1582500D01*
X2657499Y-1417500D02*
G01X2684999D01*
X2657499D02*
G03X2657499Y-1462501J-22500D01*
X2684999D02*
G01X2657499D01*
X2684999Y-1417500D02*
G01Y-1462501D01*
X2657499Y-1297501D02*
G01X2684999D01*
X2657499D02*
G03X2657499Y-1342500J-22499D01*
X2684999D02*
G01X2657499D01*
X2684999Y-1297501D02*
G01Y-1342500D01*
X2657499Y-1177500D02*
G01X2684999D01*
X2657499D02*
G03X2657499Y-1222500J-22500D01*
X2684999D02*
G01X2657499D01*
X2684999Y-1177500D02*
G01Y-1222500D01*
X2657499Y-1057500D02*
G01X2684999D01*
X2657499D02*
G03X2657499Y-1102500J-22500D01*
X2684999D02*
G01X2657499D01*
X2684999Y-1057500D02*
G01Y-1102500D01*
X2657499Y-937501D02*
G01X2684999D01*
X2657499D02*
G03X2657499Y-982500J-22499D01*
X2684999D02*
G01X2657499D01*
X2684999Y-937501D02*
G01Y-982500D01*
X2657499Y-817500D02*
G01X2684999D01*
X2657499D02*
G03X2657499Y-862501J-22500D01*
X2684999D02*
G01X2657499D01*
X2684999Y-817500D02*
G01Y-862501D01*
X2657499Y-697501D02*
G01X2684999D01*
X2657499D02*
G03X2657499Y-742500J-22499D01*
X2684999D02*
G01X2657499D01*
X2684999Y-697501D02*
G01Y-742500D01*
X2657499Y-577500D02*
G01X2684999D01*
X2657499D02*
G03X2657499Y-622500J-22500D01*
X2684999D02*
G01X2657499D01*
X2684999Y-577500D02*
G01Y-622500D01*
X2657499Y-457500D02*
G01X2684999D01*
X2657499D02*
G03X2657499Y-502500J-22500D01*
X2684999D02*
G01X2657499D01*
X2684999Y-457500D02*
G01Y-502500D01*
X2657499Y-337500D02*
G01X2684999D01*
X2657499D02*
G03X2657499Y-382500J-22500D01*
X2684999D02*
G01X2657499D01*
X2684999Y-337500D02*
G01Y-382500D01*
X2657499Y-217500D02*
G01X2684999D01*
X2657499D02*
G03X2657499Y-262500J-22500D01*
X2684999D02*
G01X2657499D01*
X2684999Y-217500D02*
G01Y-262500D01*
X2657499Y-97500D02*
G01X2684999D01*
X2657499D02*
G03X2657499Y-142500J-22500D01*
X2684999D02*
G01X2657499D01*
X2684999Y-97500D02*
G01Y-142500D01*
X2657499Y-2137501D02*
G01X2684999D01*
X2657499D02*
G03X2657499Y-2182500J-22499D01*
X2684999D02*
G01X2657499D01*
X2684999Y-2137501D02*
G01Y-2182500D01*
X2657499Y2062500D02*
G01X2684999D01*
X2657499D02*
G03X2657499Y2017500J-22500D01*
X2684999D02*
G01X2657499D01*
X2684999Y2062500D02*
G01Y2017500D01*
X2657499Y1942500D02*
G01X2684999D01*
X2657499D02*
G03X2657499Y1897500J-22500D01*
X2684999D02*
G01X2657499D01*
X2684999Y1942500D02*
G01Y1897500D01*
X2657499Y1822500D02*
G01X2684999D01*
X2657499D02*
G03X2657499Y1777500J-22500D01*
X2684999D02*
G01X2657499D01*
X2684999Y1822500D02*
G01Y1777500D01*
X2657499Y1702500D02*
G01X2684999D01*
X2657499D02*
G03X2657499Y1657500J-22500D01*
X2684999D02*
G01X2657499D01*
X2684999Y1702500D02*
G01Y1657500D01*
X2657499Y1582500D02*
G01X2684999D01*
X2657499D02*
G03X2657499Y1537500J-22500D01*
X2684999D02*
G01X2657499D01*
X2684999Y1582500D02*
G01Y1537500D01*
X2657499Y1462500D02*
G01X2684999D01*
X2657499D02*
G03X2657499Y1417500J-22500D01*
X2684999D02*
G01X2657499D01*
X2684999Y1462500D02*
G01Y1417500D01*
X2657499Y1342500D02*
G01X2684999D01*
X2657499D02*
G03X2657499Y1297500J-22500D01*
X2684999D02*
G01X2657499D01*
X2684999Y1342500D02*
G01Y1297500D01*
X2657499Y1222500D02*
G01X2684999D01*
X2657499D02*
G03X2657499Y1177500J-22500D01*
X2684999D02*
G01X2657499D01*
X2684999Y1222500D02*
G01Y1177500D01*
X2657499Y1102500D02*
G01X2684999D01*
X2657499D02*
G03X2657499Y1057500J-22500D01*
X2684999D02*
G01X2657499D01*
X2684999Y1102500D02*
G01Y1057500D01*
X2657499Y982500D02*
G01X2684999D01*
X2657499D02*
G03X2657499Y937500J-22500D01*
X2684999D02*
G01X2657499D01*
X2684999Y982500D02*
G01Y937500D01*
X2657499Y862500D02*
G01X2684999D01*
X2657499D02*
G03X2657499Y817500J-22500D01*
X2684999D02*
G01X2657499D01*
X2684999Y862500D02*
G01Y817500D01*
X2657499Y742500D02*
G01X2684999D01*
X2657499D02*
G03X2657499Y697500J-22500D01*
X2684999D02*
G01X2657499D01*
X2684999Y742500D02*
G01Y697500D01*
X2657499Y622500D02*
G01X2684999D01*
X2657499D02*
G03X2657499Y577500J-22500D01*
X2684999D02*
G01X2657499D01*
X2684999Y622500D02*
G01Y577500D01*
X2657499Y502500D02*
G01X2684999D01*
X2657499D02*
G03X2657499Y457500J-22500D01*
X2684999D02*
G01X2657499D01*
X2684999Y502500D02*
G01Y457500D01*
X2657499Y382500D02*
G01X2684999D01*
X2657499D02*
G03X2657499Y337500J-22500D01*
X2684999D02*
G01X2657499D01*
X2684999Y382500D02*
G01Y337500D01*
X2657499Y262500D02*
G01X2684999D01*
X2657499D02*
G03X2657499Y217500J-22500D01*
X2684999D02*
G01X2657499D01*
X2684999Y262500D02*
G01Y217500D01*
X2657499Y142500D02*
G01X2684999D01*
X2657499D02*
G03X2657499Y97500J-22500D01*
X2684999D02*
G01X2657499D01*
X2684999Y142500D02*
G01Y97500D01*
X2657499Y2182500D02*
G01X2684999D01*
X2657499D02*
G03X2657499Y2137500J-22500D01*
X2684999D02*
G01X2657499D01*
X2684999Y2182500D02*
G01Y2137500D01*
X2062500Y-2657500D02*
G01Y-2685000D01*
Y-2657500D02*
G03X2017499Y-2657500I-22500D01*
Y-2685000D02*
G01Y-2657500D01*
X2062500Y-2685000D02*
G01X2017499D01*
X1942499Y-2657500D02*
G01Y-2685000D01*
Y-2657500D02*
G03X1897499Y-2657500I-22500D01*
Y-2685000D02*
G01Y-2657500D01*
X1942499Y-2685000D02*
G01X1897499D01*
X1822499Y-2657500D02*
G01Y-2685000D01*
Y-2657500D02*
G03X1777499Y-2657500I-22500D01*
Y-2685000D02*
G01Y-2657500D01*
X1822499Y-2685000D02*
G01X1777499D01*
X1702499Y-2657500D02*
G01Y-2685000D01*
Y-2657500D02*
G03X1657499Y-2657500I-22500D01*
Y-2685000D02*
G01Y-2657500D01*
X1702499Y-2685000D02*
G01X1657499D01*
X1582499Y-2657500D02*
G01Y-2685000D01*
Y-2657500D02*
G03X1537499Y-2657500I-22500D01*
Y-2685000D02*
G01Y-2657500D01*
X1582499Y-2685000D02*
G01X1537499D01*
X1462500Y-2657500D02*
G01Y-2685000D01*
Y-2657500D02*
G03X1417499Y-2657500I-22500D01*
Y-2685000D02*
G01Y-2657500D01*
X1462500Y-2685000D02*
G01X1417499D01*
X1342499Y-2657500D02*
G01Y-2685000D01*
Y-2657500D02*
G03X1297499Y-2657500I-22500D01*
Y-2685000D02*
G01Y-2657500D01*
X1342499Y-2685000D02*
G01X1297499D01*
X1222499Y-2657500D02*
G01Y-2685000D01*
Y-2657500D02*
G03X1177499Y-2657500I-22500D01*
Y-2685000D02*
G01Y-2657500D01*
X1222499Y-2685000D02*
G01X1177499D01*
X1102499Y-2657500D02*
G01Y-2685000D01*
Y-2657500D02*
G03X1057499Y-2657500I-22500D01*
Y-2685000D02*
G01Y-2657500D01*
X1102499Y-2685000D02*
G01X1057499D01*
X982499Y-2657500D02*
G01Y-2685000D01*
Y-2657500D02*
G03X937499Y-2657500I-22500D01*
Y-2685000D02*
G01Y-2657500D01*
X982499Y-2685000D02*
G01X937499D01*
X862500Y-2657500D02*
G01Y-2685000D01*
Y-2657500D02*
G03X817499Y-2657500I-22500D01*
Y-2685000D02*
G01Y-2657500D01*
X862500Y-2685000D02*
G01X817499D01*
X742499Y-2657500D02*
G01Y-2685000D01*
Y-2657500D02*
G03X697499Y-2657500I-22500D01*
Y-2685000D02*
G01Y-2657500D01*
X742499Y-2685000D02*
G01X697499D01*
X622499Y-2657500D02*
G01Y-2685000D01*
Y-2657500D02*
G03X577499Y-2657500I-22500D01*
Y-2685000D02*
G01Y-2657500D01*
X622499Y-2685000D02*
G01X577499D01*
X502499Y-2657500D02*
G01Y-2685000D01*
Y-2657500D02*
G03X457499Y-2657500I-22500D01*
Y-2685000D02*
G01Y-2657500D01*
X502499Y-2685000D02*
G01X457499D01*
X382499Y-2657500D02*
G01Y-2685000D01*
Y-2657500D02*
G03X337499Y-2657500I-22500D01*
Y-2685000D02*
G01Y-2657500D01*
X382499Y-2685000D02*
G01X337499D01*
X262500Y-2657500D02*
G01Y-2685000D01*
Y-2657500D02*
G03X217499Y-2657500I-22500D01*
Y-2685000D02*
G01Y-2657500D01*
X262500Y-2685000D02*
G01X217499D01*
X142499Y-2657500D02*
G01Y-2685000D01*
Y-2657500D02*
G03X97499Y-2657500I-22500D01*
Y-2685000D02*
G01Y-2657500D01*
X142499Y-2685000D02*
G01X97499D01*
X2182499Y-2657500D02*
G01Y-2685000D01*
Y-2657500D02*
G03X2137500Y-2657500I-22499D01*
Y-2685000D02*
G01Y-2657500D01*
X2182499Y-2685000D02*
G01X2137500D01*
X-2017501Y-2657500D02*
G01Y-2685000D01*
Y-2657500D02*
G03X-2062501Y-2657500I-22500D01*
Y-2685000D02*
G01Y-2657500D01*
X-2017501Y-2685000D02*
G01X-2062501D01*
X-1897501Y-2657500D02*
G01Y-2685000D01*
Y-2657500D02*
G03X-1942501Y-2657500I-22500D01*
Y-2685000D02*
G01Y-2657500D01*
X-1897501Y-2685000D02*
G01X-1942501D01*
X-1777501Y-2657500D02*
G01Y-2685000D01*
Y-2657500D02*
G03X-1822501Y-2657500I-22500D01*
Y-2685000D02*
G01Y-2657500D01*
X-1777501Y-2685000D02*
G01X-1822501D01*
X-1657501Y-2657500D02*
G01Y-2685000D01*
Y-2657500D02*
G03X-1702501Y-2657500I-22500D01*
Y-2685000D02*
G01Y-2657500D01*
X-1657501Y-2685000D02*
G01X-1702501D01*
X-1537501Y-2657500D02*
G01Y-2685000D01*
Y-2657500D02*
G03X-1582501Y-2657500I-22500D01*
Y-2685000D02*
G01Y-2657500D01*
X-1537501Y-2685000D02*
G01X-1582501D01*
X-1417501Y-2657500D02*
G01Y-2685000D01*
Y-2657500D02*
G03X-1462501Y-2657500I-22500D01*
Y-2685000D02*
G01Y-2657500D01*
X-1417501Y-2685000D02*
G01X-1462501D01*
X-1297501Y-2657500D02*
G01Y-2685000D01*
Y-2657500D02*
G03X-1342501Y-2657500I-22500D01*
Y-2685000D02*
G01Y-2657500D01*
X-1297501Y-2685000D02*
G01X-1342501D01*
X-1177501Y-2657500D02*
G01Y-2685000D01*
Y-2657500D02*
G03X-1222501Y-2657500I-22500D01*
Y-2685000D02*
G01Y-2657500D01*
X-1177501Y-2685000D02*
G01X-1222501D01*
X-1057501Y-2657500D02*
G01Y-2685000D01*
Y-2657500D02*
G03X-1102501Y-2657500I-22500D01*
Y-2685000D02*
G01Y-2657500D01*
X-1057501Y-2685000D02*
G01X-1102501D01*
X-937501Y-2657500D02*
G01Y-2685000D01*
Y-2657500D02*
G03X-982501Y-2657500I-22500D01*
Y-2685000D02*
G01Y-2657500D01*
X-937501Y-2685000D02*
G01X-982501D01*
X-817501Y-2657500D02*
G01Y-2685000D01*
Y-2657500D02*
G03X-862501Y-2657500I-22500D01*
Y-2685000D02*
G01Y-2657500D01*
X-817501Y-2685000D02*
G01X-862501D01*
X-697501Y-2657500D02*
G01Y-2685000D01*
Y-2657500D02*
G03X-742501Y-2657500I-22500D01*
Y-2685000D02*
G01Y-2657500D01*
X-697501Y-2685000D02*
G01X-742501D01*
X-577501Y-2657500D02*
G01Y-2685000D01*
Y-2657500D02*
G03X-622501Y-2657500I-22500D01*
Y-2685000D02*
G01Y-2657500D01*
X-577501Y-2685000D02*
G01X-622501D01*
X-457501Y-2657500D02*
G01Y-2685000D01*
Y-2657500D02*
G03X-502501Y-2657500I-22500D01*
Y-2685000D02*
G01Y-2657500D01*
X-457501Y-2685000D02*
G01X-502501D01*
X-337501Y-2657500D02*
G01Y-2685000D01*
Y-2657500D02*
G03X-382501Y-2657500I-22500D01*
Y-2685000D02*
G01Y-2657500D01*
X-337501Y-2685000D02*
G01X-382501D01*
X-217501Y-2657500D02*
G01Y-2685000D01*
Y-2657500D02*
G03X-262501Y-2657500I-22500D01*
Y-2685000D02*
G01Y-2657500D01*
X-217501Y-2685000D02*
G01X-262501D01*
X-97501Y-2657500D02*
G01Y-2685000D01*
Y-2657500D02*
G03X-142501Y-2657500I-22500D01*
Y-2685000D02*
G01Y-2657500D01*
X-97501Y-2685000D02*
G01X-142501D01*
X-2137501Y-2657500D02*
G01Y-2685000D01*
Y-2657500D02*
G03X-2182501Y-2657500I-22500D01*
Y-2685000D02*
G01Y-2657500D01*
X-2137501Y-2685000D02*
G01X-2182501D01*
X2017499Y2657500D02*
G01Y2684999D01*
Y2657500D02*
G03X2062500Y2657500I22501D01*
Y2684999D02*
G01Y2657500D01*
X2017499Y2684999D02*
G01X2062500D01*
X1897499Y2657500D02*
G01Y2684999D01*
Y2657500D02*
G03X1942499Y2657500I22500D01*
Y2684999D02*
G01Y2657500D01*
X1897499Y2684999D02*
G01X1942499D01*
X1777499Y2657500D02*
G01Y2684999D01*
Y2657500D02*
G03X1822499Y2657500I22500D01*
Y2684999D02*
G01Y2657500D01*
X1777499Y2684999D02*
G01X1822499D01*
X1657499Y2657500D02*
G01Y2684999D01*
Y2657500D02*
G03X1702499Y2657500I22500D01*
Y2684999D02*
G01Y2657500D01*
X1657499Y2684999D02*
G01X1702499D01*
X1537499Y2657500D02*
G01Y2684999D01*
Y2657500D02*
G03X1582499Y2657500I22500D01*
Y2684999D02*
G01Y2657500D01*
X1537499Y2684999D02*
G01X1582499D01*
X1417499Y2657500D02*
G01Y2684999D01*
Y2657500D02*
G03X1462500Y2657500I22501D01*
Y2684999D02*
G01Y2657500D01*
X1417499Y2684999D02*
G01X1462500D01*
X1297499Y2657500D02*
G01Y2684999D01*
Y2657500D02*
G03X1342499Y2657500I22500D01*
Y2684999D02*
G01Y2657500D01*
X1297499Y2684999D02*
G01X1342499D01*
X1177499Y2657500D02*
G01Y2684999D01*
Y2657500D02*
G03X1222499Y2657500I22500D01*
Y2684999D02*
G01Y2657500D01*
X1177499Y2684999D02*
G01X1222499D01*
X1057499Y2657500D02*
G01Y2684999D01*
Y2657500D02*
G03X1102499Y2657500I22500D01*
Y2684999D02*
G01Y2657500D01*
X1057499Y2684999D02*
G01X1102499D01*
X937499Y2657500D02*
G01Y2684999D01*
Y2657500D02*
G03X982499Y2657500I22500D01*
Y2684999D02*
G01Y2657500D01*
X937499Y2684999D02*
G01X982499D01*
X817499Y2657500D02*
G01Y2684999D01*
Y2657500D02*
G03X862500Y2657500I22501D01*
Y2684999D02*
G01Y2657500D01*
X817499Y2684999D02*
G01X862500D01*
X697499Y2657500D02*
G01Y2684999D01*
Y2657500D02*
G03X742499Y2657500I22500D01*
Y2684999D02*
G01Y2657500D01*
X697499Y2684999D02*
G01X742499D01*
X577499Y2657500D02*
G01Y2684999D01*
Y2657500D02*
G03X622499Y2657500I22500D01*
Y2684999D02*
G01Y2657500D01*
X577499Y2684999D02*
G01X622499D01*
X457499Y2657500D02*
G01Y2684999D01*
Y2657500D02*
G03X502499Y2657500I22500D01*
Y2684999D02*
G01Y2657500D01*
X457499Y2684999D02*
G01X502499D01*
X337499Y2657500D02*
G01Y2684999D01*
Y2657500D02*
G03X382499Y2657500I22500D01*
Y2684999D02*
G01Y2657500D01*
X337499Y2684999D02*
G01X382499D01*
X217499Y2657500D02*
G01Y2684999D01*
Y2657500D02*
G03X262500Y2657500I22501D01*
Y2684999D02*
G01Y2657500D01*
X217499Y2684999D02*
G01X262500D01*
X97499Y2657500D02*
G01Y2684999D01*
Y2657500D02*
G03X142499Y2657500I22500D01*
Y2684999D02*
G01Y2657500D01*
X97499Y2684999D02*
G01X142499D01*
X2137500Y2657500D02*
G01Y2684999D01*
Y2657500D02*
G03X2182499Y2657500I22500D01*
Y2684999D02*
G01Y2657500D01*
X2137500Y2684999D02*
G01X2182499D01*
X-2062501Y2657500D02*
G01Y2684999D01*
Y2657500D02*
G03X-2017501Y2657500I22500D01*
Y2684999D02*
G01Y2657500D01*
X-2062501Y2684999D02*
G01X-2017501D01*
X-1942501Y2657500D02*
G01Y2684999D01*
Y2657500D02*
G03X-1897501Y2657500I22500D01*
Y2684999D02*
G01Y2657500D01*
X-1942501Y2684999D02*
G01X-1897501D01*
X-1822501Y2657500D02*
G01Y2684999D01*
Y2657500D02*
G03X-1777501Y2657500I22500D01*
Y2684999D02*
G01Y2657500D01*
X-1822501Y2684999D02*
G01X-1777501D01*
X-1702501Y2657500D02*
G01Y2684999D01*
Y2657500D02*
G03X-1657501Y2657500I22500D01*
Y2684999D02*
G01Y2657500D01*
X-1702501Y2684999D02*
G01X-1657501D01*
X-1582501Y2657500D02*
G01Y2684999D01*
Y2657500D02*
G03X-1537501Y2657500I22500D01*
Y2684999D02*
G01Y2657500D01*
X-1582501Y2684999D02*
G01X-1537501D01*
X-1462501Y2657500D02*
G01Y2684999D01*
Y2657500D02*
G03X-1417501Y2657500I22500D01*
Y2684999D02*
G01Y2657500D01*
X-1462501Y2684999D02*
G01X-1417501D01*
X-1342501Y2657500D02*
G01Y2684999D01*
Y2657500D02*
G03X-1297501Y2657500I22500D01*
Y2684999D02*
G01Y2657500D01*
X-1342501Y2684999D02*
G01X-1297501D01*
X-1222501Y2657500D02*
G01Y2684999D01*
Y2657500D02*
G03X-1177501Y2657500I22500D01*
Y2684999D02*
G01Y2657500D01*
X-1222501Y2684999D02*
G01X-1177501D01*
X-1102501Y2657500D02*
G01Y2684999D01*
Y2657500D02*
G03X-1057501Y2657500I22500D01*
Y2684999D02*
G01Y2657500D01*
X-1102501Y2684999D02*
G01X-1057501D01*
X-982501Y2657500D02*
G01Y2684999D01*
Y2657500D02*
G03X-937501Y2657500I22500D01*
Y2684999D02*
G01Y2657500D01*
X-982501Y2684999D02*
G01X-937501D01*
X-862501Y2657500D02*
G01Y2684999D01*
Y2657500D02*
G03X-817501Y2657500I22500D01*
Y2684999D02*
G01Y2657500D01*
X-862501Y2684999D02*
G01X-817501D01*
X-742501Y2657500D02*
G01Y2684999D01*
Y2657500D02*
G03X-697501Y2657500I22500D01*
Y2684999D02*
G01Y2657500D01*
X-742501Y2684999D02*
G01X-697501D01*
X-622501Y2657500D02*
G01Y2684999D01*
Y2657500D02*
G03X-577501Y2657500I22500D01*
Y2684999D02*
G01Y2657500D01*
X-622501Y2684999D02*
G01X-577501D01*
X-502501Y2657500D02*
G01Y2684999D01*
Y2657500D02*
G03X-457501Y2657500I22500D01*
Y2684999D02*
G01Y2657500D01*
X-502501Y2684999D02*
G01X-457501D01*
X-382501Y2657500D02*
G01Y2684999D01*
Y2657500D02*
G03X-337501Y2657500I22500D01*
Y2684999D02*
G01Y2657500D01*
X-382501Y2684999D02*
G01X-337501D01*
X-262501Y2657500D02*
G01Y2684999D01*
Y2657500D02*
G03X-217501Y2657500I22500D01*
Y2684999D02*
G01Y2657500D01*
X-262501Y2684999D02*
G01X-217501D01*
X-142501Y2657500D02*
G01Y2684999D01*
Y2657500D02*
G03X-97501Y2657500I22500D01*
Y2684999D02*
G01Y2657500D01*
X-142501Y2684999D02*
G01X-97501D01*
X-2182501Y2657500D02*
G01Y2684999D01*
Y2657500D02*
G03X-2137501Y2657500I22500D01*
Y2684999D02*
G01Y2657500D01*
X-2182501Y2684999D02*
G01X-2137501D01*
X-2657501Y-22500D02*
G01X-2685001D01*
X-2657501D02*
G03X-2657501Y22500J22500D01*
X-2685001D02*
G01X-2657501D01*
X-2685001Y-22500D02*
G01Y22500D01*
X2657499D02*
G01X2684999D01*
X2657499D02*
G03X2657499Y-22500J-22500D01*
X2684999D02*
G01X2657499D01*
X2684999Y22500D02*
G01Y-22500D01*
X22499Y-2657500D02*
G01Y-2685000D01*
Y-2657500D02*
G03X-22501Y-2657500I-22500D01*
Y-2685000D02*
G01Y-2657500D01*
X22499Y-2685000D02*
G01X-22501D01*
Y2657500D02*
G01Y2684999D01*
Y2657500D02*
G03X22499Y2657500I22500D01*
Y2684999D02*
G01Y2657500D01*
X-22501Y2684999D02*
G01X22499D01*
X887499Y-2795001D02*
G03X832499Y-2795001I-27500D01*
Y-2795001D02*
G03X887499Y-2795001I27500D01*
X1747499D02*
G03X1692499Y-2795001I-27500D01*
Y-2795001D02*
G03X1747499Y-2795001I27500D01*
X-832501D02*
G03X-887501Y-2795001I-27500D01*
Y-2795001D02*
G03X-832501Y-2795001I27500D01*
X-1692501D02*
G03X-1747501Y-2795001I-27500D01*
Y-2795001D02*
G03X-1692501Y-2795001I27500D01*
X887499Y2795000D02*
G03X832499Y2795000I-27500D01*
Y2795000D02*
G03X887499Y2795000I27500D01*
X1747499D02*
G03X1692499Y2795000I-27500D01*
Y2795000D02*
G03X1747499Y2795000I27500D01*
X-832501D02*
G03X-887501Y2795000I-27500D01*
Y2795000D02*
G03X-832501Y2795000I27500D01*
X-1692501D02*
G03X-1747501Y2795000I-27500D01*
Y2795000D02*
G03X-1692501Y2795000I27500D01*
X27499Y-2795001D02*
G03X-27501Y-2795001I-27500D01*
Y-2795001D02*
G03X27499Y-2795001I27500D01*
Y2795000D02*
G03X-27501Y2795000I-27500D01*
Y2795000D02*
G03X27499Y2795000I27500D01*
X2822499Y860000D02*
G03X2767499Y860000I-27500D01*
Y860000D02*
G03X2822499Y860000I27500D01*
Y1720000D02*
G03X2767499Y1720000I-27500D01*
Y1720000D02*
G03X2822499Y1720000I27500D01*
Y-860000D02*
G03X2767499Y-860000I-27500D01*
Y-860000D02*
G03X2822499Y-860000I27500D01*
Y-1720000D02*
G03X2767499Y-1720000I-27500D01*
Y-1720000D02*
G03X2822499Y-1720000I27500D01*
Y0D02*
G03X2767499Y0I-27500D01*
Y0D02*
G03X2822499Y0I27500D01*
X-2767501Y860000D02*
G03X-2822501Y860000I-27500D01*
Y860000D02*
G03X-2767501Y860000I27500D01*
Y1720000D02*
G03X-2822501Y1720000I-27500D01*
Y1720000D02*
G03X-2767501Y1720000I27500D01*
Y-860000D02*
G03X-2822501Y-860000I-27500D01*
Y-860000D02*
G03X-2767501Y-860000I27500D01*
Y-1720000D02*
G03X-2822501Y-1720000I-27500D01*
Y-1720000D02*
G03X-2767501Y-1720000I27500D01*
Y0D02*
G03X-2822501Y0I-27500D01*
Y0D02*
G03X-2767501Y0I27500D01*
X-1440001Y2849999D02*
G03X-1440001Y2740000J-54999D01*
X-480001Y2849999D02*
G03X-480001Y2740000J-54999D01*
X479999Y2849999D02*
G03X479999Y2740000J-54999D01*
X1439999Y2849999D02*
G03X1439999Y2740000J-54999D01*
X-2850001Y1440000D02*
G03X-2740001Y1440000I55000D01*
X-2850001Y480000D02*
G03X-2740001Y480000I55000D01*
X-2850001Y-480000D02*
G03X-2740001Y-480000I55000D01*
X-2850001Y-1440000D02*
G03X-2740001Y-1440000I55000D01*
X-1590001Y-2740000D02*
G03X-1590001Y-2850000J-55000D01*
X-1440001D02*
G01X-1590001D01*
X-1440001D02*
G03X-1440001Y-2740000J55000D01*
X-1590001D02*
G01X-1440001D01*
X-2740001Y-1290001D02*
G01Y-1440000D01*
Y-1290001D02*
G03X-2850001Y-1290001I-55000D01*
Y-1440000D02*
G01Y-1290001D01*
X-2740001Y-330000D02*
G01Y-480000D01*
Y-330000D02*
G03X-2850001Y-330000I-55000D01*
Y-480000D02*
G01Y-330000D01*
X-2740001Y630000D02*
G01Y480000D01*
Y630000D02*
G03X-2850001Y630000I-55000D01*
Y480000D02*
G01Y630000D01*
X-2740001Y1590000D02*
G01Y1440000D01*
Y1590000D02*
G03X-2850001Y1590000I-55000D01*
Y1440000D02*
G01Y1590000D01*
X1589999Y2740000D02*
G01X1439999D01*
X1589999D02*
G03X1589999Y2849999J55000D01*
X1439999D02*
G01X1589999D01*
X629999Y2740000D02*
G01X479999D01*
X629999D02*
G03X629999Y2849999J55000D01*
X479999D02*
G01X629999D01*
X-330001Y2740000D02*
G01X-480001D01*
X-330001D02*
G03X-330001Y2849999J55000D01*
X-480001D02*
G01X-330001D01*
X-1290001Y2740000D02*
G01X-1440001D01*
X-1290001D02*
G03X-1290001Y2849999J55000D01*
X-1440001D02*
G01X-1290001D01*
X-2774501Y280000D02*
G03X-2815501Y280000I-20500D01*
Y280000D02*
G03X-2774501Y280000I20500D01*
X-259501Y-2795001D02*
G03X-300501Y-2795001I-20500D01*
Y-2795001D02*
G03X-259501Y-2795001I20500D01*
X2815499Y-280000D02*
G03X2774499Y-280000I-20500D01*
Y-280000D02*
G03X2815499Y-280000I20500D01*
X300499Y2795000D02*
G03X259499Y2795000I-20500D01*
Y2795000D02*
G03X300499Y2795000I20500D01*
X-2545400Y-2520000D02*
G01X-2543186Y-2520097D01*
X-2540989Y-2520386*
X-2538826Y-2520865*
X-2536713Y-2521532*
X-2534665Y-2522380*
X-2532700Y-2523403*
X-2530831Y-2524594*
X-2529073Y-2525942*
X-2527439Y-2527439*
X-2525942Y-2529073*
X-2524594Y-2530831*
X-2523403Y-2532700*
X-2522380Y-2534665*
X-2521532Y-2536713*
X-2520865Y-2538826*
X-2520386Y-2540989*
X-2520097Y-2543186*
X-2520000Y-2545400*
Y-2860000*
X-2500000Y-2880000*
X2500000*
X2520000Y-2860000*
Y-2545400*
X2545400Y-2520000D02*
G03X2520000Y-2545400J-25400D01*
X2545400Y-2520000D02*
G01X2860000D01*
X2880000Y-2500000*
Y2500000*
X2860000Y2520000*
X2545400*
X2520000Y2545400D02*
G03X2545400Y2520000I25400D01*
X2520000Y2545400D02*
G01Y2860000D01*
X2500000Y2880000*
X-2500000*
X-2520000Y2860000*
Y2545400*
X-2545400Y2520000D02*
G03X-2520000Y2545400J25400D01*
X-2545400Y2520000D02*
G01X-2860000D01*
X-2880000Y2500000*
Y-2500000*
X-2860000Y-2520000*
X-2545400*
G54D60*
G01G01X-397000Y-1747500D02*
Y-1800000D01*
Y-1747500D02*
X-374500D01*
X-367000Y-1750000D01*
X-364500Y-1752500D01*
X-362000Y-1757500D01*
Y-1762500D01*
X-364500Y-1767500D01*
X-367000Y-1770000D01*
X-374500Y-1772500D01*
X-397000D01*
X-379500D02*
X-362000Y-1800000D01*
X-334500Y-1765000D02*
X-339500Y-1767500D01*
X-344500Y-1772500D01*
X-347000Y-1780000D01*
Y-1785000D01*
X-344500Y-1792500D01*
X-339500Y-1797500D01*
X-334500Y-1800000D01*
X-327000D01*
X-322000Y-1797500D01*
X-317000Y-1792500D01*
X-314500Y-1785000D01*
Y-1780000D01*
X-317000Y-1772500D01*
X-322000Y-1767500D01*
X-327000Y-1765000D01*
X-334500D01*
X-269500D02*
Y-1800000D01*
Y-1772500D02*
X-274500Y-1767500D01*
X-279500Y-1765000D01*
X-287000D01*
X-292000Y-1767500D01*
X-297000Y-1772500D01*
X-299500Y-1780000D01*
Y-1785000D01*
X-297000Y-1792500D01*
X-292000Y-1797500D01*
X-287000Y-1800000D01*
X-279500D01*
X-274500Y-1797500D01*
X-269500Y-1792500D01*
X-222000Y-1747500D02*
Y-1800000D01*
Y-1772500D02*
X-227000Y-1767500D01*
X-232000Y-1765000D01*
X-239500D01*
X-244500Y-1767500D01*
X-249500Y-1772500D01*
X-252000Y-1780000D01*
Y-1785000D01*
X-249500Y-1792500D01*
X-244500Y-1797500D01*
X-239500Y-1800000D01*
X-232000D01*
X-227000Y-1797500D01*
X-222000Y-1792500D01*
X-137000Y-1772500D02*
X-139500Y-1767500D01*
X-147000Y-1765000D01*
X-154500D01*
X-162000Y-1767500D01*
X-164500Y-1772500D01*
X-162000Y-1777500D01*
X-157000Y-1780000D01*
X-144500Y-1782500D01*
X-139500Y-1785000D01*
X-137000Y-1790000D01*
Y-1792500D01*
X-139500Y-1797500D01*
X-147000Y-1800000D01*
X-154500D01*
X-162000Y-1797500D01*
X-164500Y-1792500D01*
X-92000Y-1765000D02*
Y-1800000D01*
Y-1772500D02*
X-97000Y-1767500D01*
X-102000Y-1765000D01*
X-109500D01*
X-114500Y-1767500D01*
X-119500Y-1772500D01*
X-122000Y-1780000D01*
Y-1785000D01*
X-119500Y-1792500D01*
X-114500Y-1797500D01*
X-109500Y-1800000D01*
X-102000D01*
X-97000Y-1797500D01*
X-92000Y-1792500D01*
X-57000Y-1747500D02*
X-62000D01*
X-67000Y-1750000D01*
X-69500Y-1757500D01*
Y-1800000D01*
X-77000Y-1765000D02*
X-59500D01*
X-44500Y-1780000D02*
X-14500D01*
Y-1775000D01*
X-17000Y-1770000D01*
X-19500Y-1767500D01*
X-24500Y-1765000D01*
X-32000D01*
X-37000Y-1767500D01*
X-42000Y-1772500D01*
X-44500Y-1780000D01*
Y-1785000D01*
X-42000Y-1792500D01*
X-37000Y-1797500D01*
X-32000Y-1800000D01*
X-24500D01*
X-19500Y-1797500D01*
X-14500Y-1792500D01*
X5500Y-1747500D02*
Y-1790000D01*
X8000Y-1797500D01*
X13000Y-1800000D01*
X18000D01*
X-2000Y-1765000D02*
X15500D01*
X28000D02*
X43000Y-1800000D01*
X58000Y-1765000D02*
X43000Y-1800000D01*
X38000Y-1810000D01*
X33000Y-1815000D01*
X28000Y-1817500D01*
X25500D01*
X113000Y-1747500D02*
Y-1800000D01*
Y-1800000D02*
X143000D01*
X155500Y-1760000D02*
Y-1757500D01*
X158000Y-1752500D01*
X160500Y-1750000D01*
X165500Y-1747500D01*
X175500D01*
X180500Y-1750000D01*
X183000Y-1752500D01*
X185500Y-1757500D01*
Y-1762500D01*
X183000Y-1767500D01*
X178000Y-1775000D01*
X153000Y-1800000D01*
X188000D01*
X235500Y-1755000D02*
X233000Y-1750000D01*
X225500Y-1747500D01*
X220500D01*
X213000Y-1750000D01*
X208000Y-1757500D01*
X205500Y-1770000D01*
Y-1782500D01*
X208000Y-1792500D01*
X213000Y-1797500D01*
X220500Y-1800000D01*
X223000D01*
X230500Y-1797500D01*
X235500Y-1792500D01*
X238000Y-1785000D01*
Y-1782500D01*
X235500Y-1775000D01*
X230500Y-1770000D01*
X223000Y-1767500D01*
X220500D01*
X213000Y-1770000D01*
X208000Y-1775000D01*
X205500Y-1782500D01*
X330500Y-1760000D02*
X328000Y-1755000D01*
X323000Y-1750000D01*
X318000Y-1747500D01*
X308000D01*
X303000Y-1750000D01*
X298000Y-1755000D01*
X295500Y-1760000D01*
X293000Y-1767500D01*
Y-1780000D01*
X295500Y-1787500D01*
X298000Y-1792500D01*
X303000Y-1797500D01*
X308000Y-1800000D01*
X318000D01*
X323000Y-1797500D01*
X328000Y-1792500D01*
X330500Y-1787500D01*
Y-1780000D01*
X318000D02*
X330500D01*
X348000Y-1747500D02*
Y-1800000D01*
Y-1747500D02*
X370500D01*
X378000Y-1750000D01*
X380500Y-1752500D01*
X383000Y-1757500D01*
Y-1765000D01*
X380500Y-1770000D01*
X378000Y-1772500D01*
X370500Y-1775000D01*
X348000D01*
X433000Y-1755000D02*
X428000Y-1750000D01*
X420500Y-1747500D01*
X410500D01*
X403000Y-1750000D01*
X398000Y-1755000D01*
Y-1760000D01*
X400500Y-1765000D01*
X403000Y-1767500D01*
X408000Y-1770000D01*
X423000Y-1775000D01*
X428000Y-1777500D01*
X430500Y-1780000D01*
X433000Y-1785000D01*
Y-1792500D01*
X428000Y-1797500D01*
X420500Y-1800000D01*
X410500D01*
X403000Y-1797500D01*
X398000Y-1792500D01*
M02*
