*
%FSLAX36Y36*%
%MOIN*%
%ADD10R,0.033500X0.033500*%
%ADD11R,0.027600X0.027600*%
%ADD12C,0.027600*%
%ADD13C,0.009800*%
%ADD14R,0.009800X0.009800*%
%ADD15R,0.011800X0.011800*%
%ADD16C,0.011800*%
%ADD17C,0.023600*%
%ADD18R,0.023600X0.023600*%
%ADD19C,0.011000*%
%ADD20R,0.011000X0.011000*%
%ADD21R,0.043300X0.043300*%
%ADD22C,0.039370*%
%ADD23C,0.002126*%
%ADD24C,0.002000*%
%IPPOS*%
%LN037377s04ua0k.gbp*%
%LPD*%
G75*
G54D10*
X641150Y376131D02*
X654850D01*
X641150Y301131D02*
X654850D01*
X550150Y338131D02*
X563850D01*
G54D11*
X1943050Y634131D02*
X1946950D01*
X1943050Y693131D02*
X1946950D01*
X128050Y325131D02*
X131950D01*
X128050Y384131D02*
X131950D01*
X1943050Y523131D02*
X1946950D01*
X1943050Y582131D02*
X1946950D01*
X723050Y309131D02*
X726950D01*
X723050Y368131D02*
X726950D01*
X1998050Y582131D02*
X2001950D01*
X1998050Y523131D02*
X2001950D01*
X2038050Y274131D02*
X2041950D01*
X2038050Y215131D02*
X2041950D01*
X1278050Y618131D02*
X1281950D01*
X1278050Y559131D02*
X1281950D01*
X1833050Y693131D02*
X1836950D01*
X1833050Y634131D02*
X1836950D01*
X1998050D02*
X2001950D01*
X1998050Y693131D02*
X2001950D01*
X1658050Y725131D02*
X1661950D01*
X1658050Y784131D02*
X1661950D01*
X1713050D02*
X1716950D01*
X1713050Y725131D02*
X1716950D01*
X1888050Y693131D02*
X1891950D01*
X1888050Y634131D02*
X1891950D01*
X1888050Y582131D02*
X1891950D01*
X1888050Y523131D02*
X1891950D01*
X493050Y309131D02*
X496950D01*
X493050Y368131D02*
X496950D01*
X383050Y309131D02*
X386950D01*
X383050Y368131D02*
X386950D01*
X438050Y309131D02*
X441950D01*
X438050Y368131D02*
X441950D01*
X1223050Y618131D02*
X1226950D01*
X1223050Y559131D02*
X1226950D01*
G54D12*
X1218950Y799131D02*
X1333050D01*
X1218950Y849131D02*
X1333050D01*
X1218950Y899131D02*
X1333050D01*
X1484450Y749131D02*
X1539550D01*
X1484450Y799131D02*
X1539550D01*
X1484450Y849131D02*
X1539550D01*
X1484450Y899131D02*
X1539550D01*
G54D11*
X1218950Y749131D02*
X1333050D01*
G54D13*
X1138300Y237131D02*
X1181700D01*
X1022300D02*
X1065700D01*
X1022300Y315131D02*
X1065700D01*
X1138300Y256131D02*
X1181700D01*
X1022300D02*
X1065700D01*
X1138300Y276131D02*
X1181700D01*
X1022300D02*
X1065700D01*
X1138300Y296131D02*
X1181700D01*
X1022300D02*
X1065700D01*
G54D14*
X1138300Y315131D02*
X1181700D01*
X296150Y354131D02*
X315850D01*
G54D13*
X174150Y334131D02*
X193850D01*
X296150D02*
X315850D01*
X174150Y315131D02*
X193850D01*
X296150D02*
X315850D01*
X174150Y295131D02*
X193850D01*
X296150D02*
X315850D01*
X174150Y354131D02*
X193850D01*
G54D15*
X1788300Y793131D02*
X1823700D01*
G54D16*
X1788300Y799031D02*
X1823700D01*
X1788300Y787231D02*
X1823700D01*
G54D15*
X2036300Y793131D02*
X2071700D01*
G54D16*
X2036300Y799031D02*
X2071700D01*
X2036300Y787231D02*
X2071700D01*
G54D15*
X1788300Y756131D02*
X1823700D01*
G54D16*
X1788300Y762031D02*
X1823700D01*
X1788300Y750231D02*
X1823700D01*
G54D15*
X2036300Y756131D02*
X2071700D01*
G54D16*
X2036300Y762031D02*
X2071700D01*
X2036300Y750231D02*
X2071700D01*
G54D17*
X945000Y173531D02*
Y226731D01*
X895000Y173531D02*
Y226731D01*
X845000Y173531D02*
Y226731D01*
X795000Y173531D02*
Y226731D01*
X945000Y442531D02*
Y495731D01*
X895000Y442531D02*
Y495731D01*
X845000Y442531D02*
Y495731D01*
G54D18*
X795000Y442531D02*
Y495731D01*
G54D10*
X1975000Y187281D02*
Y200981D01*
X1900000Y187281D02*
Y200981D01*
X1937000Y278281D02*
Y291981D01*
G54D19*
X1730000Y589131D02*
Y643131D01*
X1710000Y589131D02*
Y643131D01*
X1690000Y589131D02*
Y643131D01*
X1671000Y589131D02*
Y643131D01*
X1651000Y589131D02*
Y643131D01*
X1631000Y589131D02*
Y643131D01*
X1612000Y589131D02*
Y643131D01*
X1592000Y589131D02*
Y643131D01*
X1572000Y589131D02*
Y643131D01*
X1553000Y589131D02*
Y643131D01*
X1533000Y589131D02*
Y643131D01*
X1513000Y589131D02*
Y643131D01*
X1494000Y589131D02*
Y643131D01*
X1474000Y589131D02*
Y643131D01*
X1454000Y589131D02*
Y643131D01*
X1435000Y589131D02*
Y643131D01*
Y154131D02*
Y208131D01*
X1454000Y154131D02*
Y208131D01*
X1474000Y154131D02*
Y208131D01*
X1494000Y154131D02*
Y208131D01*
X1513000Y154131D02*
Y208131D01*
X1533000Y154131D02*
Y208131D01*
X1553000Y154131D02*
Y208131D01*
X1572000Y154131D02*
Y208131D01*
X1592000Y154131D02*
Y208131D01*
X1612000Y154131D02*
Y208131D01*
X1631000Y154131D02*
Y208131D01*
X1651000Y154131D02*
Y208131D01*
X1671000Y154131D02*
Y208131D01*
X1690000Y154131D02*
Y208131D01*
X1710000Y154131D02*
Y208131D01*
X1730000Y154131D02*
Y208131D01*
X1338000Y547131D02*
X1392000D01*
X1338000Y527131D02*
X1392000D01*
X1338000Y507131D02*
X1392000D01*
X1338000Y487131D02*
X1392000D01*
X1338000Y468131D02*
X1392000D01*
X1338000Y448131D02*
X1392000D01*
X1338000Y428131D02*
X1392000D01*
X1338000Y409131D02*
X1392000D01*
X1338000Y389131D02*
X1392000D01*
X1338000Y369131D02*
X1392000D01*
X1338000Y350131D02*
X1392000D01*
X1338000Y330131D02*
X1392000D01*
X1338000Y310131D02*
X1392000D01*
X1338000Y291131D02*
X1392000D01*
X1338000Y271131D02*
X1392000D01*
X1338000Y251131D02*
X1392000D01*
X1773000D02*
X1827000D01*
X1773000Y271131D02*
X1827000D01*
X1773000Y291131D02*
X1827000D01*
X1773000Y310131D02*
X1827000D01*
X1773000Y330131D02*
X1827000D01*
X1773000Y350131D02*
X1827000D01*
X1773000Y369131D02*
X1827000D01*
X1773000Y389131D02*
X1827000D01*
X1773000Y409131D02*
X1827000D01*
X1773000Y428131D02*
X1827000D01*
X1773000Y448131D02*
X1827000D01*
X1773000Y468131D02*
X1827000D01*
X1773000Y487131D02*
X1827000D01*
X1773000Y507131D02*
X1827000D01*
X1773000Y527131D02*
X1827000D01*
G54D20*
X1773000Y547131D02*
X1827000D01*
G54D21*
X2102300Y344131D02*
X2137700D01*
X1922300D02*
X1957700D01*
X1922300Y459131D02*
X1957700D01*
X2102300D02*
X2137700D01*
G54D11*
X1974000Y127181D02*
Y131081D01*
X1915000Y127181D02*
Y131081D01*
X1834000Y127181D02*
Y131081D01*
X1775000Y127181D02*
Y131081D01*
X200000Y421181D02*
Y425081D01*
X259000Y421181D02*
Y425081D01*
X1290000Y151181D02*
Y155081D01*
X1349000Y151181D02*
Y155081D01*
G54D10*
X641150Y1439130D02*
X654850D01*
X641150Y1364130D02*
X654850D01*
X550150Y1401130D02*
X563850D01*
G54D11*
X1943050Y1697130D02*
X1946950D01*
X1943050Y1756130D02*
X1946950D01*
X128050Y1388130D02*
X131950D01*
X128050Y1447130D02*
X131950D01*
X1943050Y1586130D02*
X1946950D01*
X1943050Y1645130D02*
X1946950D01*
X723050Y1372130D02*
X726950D01*
X723050Y1431130D02*
X726950D01*
X1998050Y1645130D02*
X2001950D01*
X1998050Y1586130D02*
X2001950D01*
X2038050Y1337130D02*
X2041950D01*
X2038050Y1278130D02*
X2041950D01*
X1278050Y1681130D02*
X1281950D01*
X1278050Y1622130D02*
X1281950D01*
X1833050Y1756130D02*
X1836950D01*
X1833050Y1697130D02*
X1836950D01*
X1998050D02*
X2001950D01*
X1998050Y1756130D02*
X2001950D01*
X1658050Y1788130D02*
X1661950D01*
X1658050Y1847130D02*
X1661950D01*
X1713050D02*
X1716950D01*
X1713050Y1788130D02*
X1716950D01*
X1888050Y1756130D02*
X1891950D01*
X1888050Y1697130D02*
X1891950D01*
X1888050Y1645130D02*
X1891950D01*
X1888050Y1586130D02*
X1891950D01*
X493050Y1372130D02*
X496950D01*
X493050Y1431130D02*
X496950D01*
X383050Y1372130D02*
X386950D01*
X383050Y1431130D02*
X386950D01*
X438050Y1372130D02*
X441950D01*
X438050Y1431130D02*
X441950D01*
X1223050Y1681130D02*
X1226950D01*
X1223050Y1622130D02*
X1226950D01*
G54D12*
X1218950Y1862130D02*
X1333050D01*
X1218950Y1912130D02*
X1333050D01*
X1218950Y1962130D02*
X1333050D01*
X1484450Y1812130D02*
X1539550D01*
X1484450Y1862130D02*
X1539550D01*
X1484450Y1912130D02*
X1539550D01*
X1484450Y1962130D02*
X1539550D01*
G54D11*
X1218950Y1812130D02*
X1333050D01*
G54D13*
X1138300Y1300130D02*
X1181700D01*
X1022300D02*
X1065700D01*
X1022300Y1378130D02*
X1065700D01*
X1138300Y1319130D02*
X1181700D01*
X1022300D02*
X1065700D01*
X1138300Y1339130D02*
X1181700D01*
X1022300D02*
X1065700D01*
X1138300Y1359130D02*
X1181700D01*
X1022300D02*
X1065700D01*
G54D14*
X1138300Y1378130D02*
X1181700D01*
X296150Y1417130D02*
X315850D01*
G54D13*
X174150Y1397130D02*
X193850D01*
X296150D02*
X315850D01*
X174150Y1378130D02*
X193850D01*
X296150D02*
X315850D01*
X174150Y1358130D02*
X193850D01*
X296150D02*
X315850D01*
X174150Y1417130D02*
X193850D01*
G54D15*
X1788300Y1856130D02*
X1823700D01*
G54D16*
X1788300Y1862030D02*
X1823700D01*
X1788300Y1850230D02*
X1823700D01*
G54D15*
X2036300Y1856130D02*
X2071700D01*
G54D16*
X2036300Y1862030D02*
X2071700D01*
X2036300Y1850230D02*
X2071700D01*
G54D15*
X1788300Y1819130D02*
X1823700D01*
G54D16*
X1788300Y1825030D02*
X1823700D01*
X1788300Y1813230D02*
X1823700D01*
G54D15*
X2036300Y1819130D02*
X2071700D01*
G54D16*
X2036300Y1825030D02*
X2071700D01*
X2036300Y1813230D02*
X2071700D01*
G54D17*
X945000Y1236530D02*
Y1289730D01*
X895000Y1236530D02*
Y1289730D01*
X845000Y1236530D02*
Y1289730D01*
X795000Y1236530D02*
Y1289730D01*
X945000Y1505530D02*
Y1558730D01*
X895000Y1505530D02*
Y1558730D01*
X845000Y1505530D02*
Y1558730D01*
G54D18*
X795000Y1505530D02*
Y1558730D01*
G54D10*
X1975000Y1250280D02*
Y1263980D01*
X1900000Y1250280D02*
Y1263980D01*
X1937000Y1341280D02*
Y1354980D01*
G54D19*
X1730000Y1652130D02*
Y1706130D01*
X1710000Y1652130D02*
Y1706130D01*
X1690000Y1652130D02*
Y1706130D01*
X1671000Y1652130D02*
Y1706130D01*
X1651000Y1652130D02*
Y1706130D01*
X1631000Y1652130D02*
Y1706130D01*
X1612000Y1652130D02*
Y1706130D01*
X1592000Y1652130D02*
Y1706130D01*
X1572000Y1652130D02*
Y1706130D01*
X1553000Y1652130D02*
Y1706130D01*
X1533000Y1652130D02*
Y1706130D01*
X1513000Y1652130D02*
Y1706130D01*
X1494000Y1652130D02*
Y1706130D01*
X1474000Y1652130D02*
Y1706130D01*
X1454000Y1652130D02*
Y1706130D01*
X1435000Y1652130D02*
Y1706130D01*
Y1217130D02*
Y1271130D01*
X1454000Y1217130D02*
Y1271130D01*
X1474000Y1217130D02*
Y1271130D01*
X1494000Y1217130D02*
Y1271130D01*
X1513000Y1217130D02*
Y1271130D01*
X1533000Y1217130D02*
Y1271130D01*
X1553000Y1217130D02*
Y1271130D01*
X1572000Y1217130D02*
Y1271130D01*
X1592000Y1217130D02*
Y1271130D01*
X1612000Y1217130D02*
Y1271130D01*
X1631000Y1217130D02*
Y1271130D01*
X1651000Y1217130D02*
Y1271130D01*
X1671000Y1217130D02*
Y1271130D01*
X1690000Y1217130D02*
Y1271130D01*
X1710000Y1217130D02*
Y1271130D01*
X1730000Y1217130D02*
Y1271130D01*
X1338000Y1610130D02*
X1392000D01*
X1338000Y1590130D02*
X1392000D01*
X1338000Y1570130D02*
X1392000D01*
X1338000Y1550130D02*
X1392000D01*
X1338000Y1531130D02*
X1392000D01*
X1338000Y1511130D02*
X1392000D01*
X1338000Y1491130D02*
X1392000D01*
X1338000Y1472130D02*
X1392000D01*
X1338000Y1452130D02*
X1392000D01*
X1338000Y1432130D02*
X1392000D01*
X1338000Y1413130D02*
X1392000D01*
X1338000Y1393130D02*
X1392000D01*
X1338000Y1373130D02*
X1392000D01*
X1338000Y1354130D02*
X1392000D01*
X1338000Y1334130D02*
X1392000D01*
X1338000Y1314130D02*
X1392000D01*
X1773000D02*
X1827000D01*
X1773000Y1334130D02*
X1827000D01*
X1773000Y1354130D02*
X1827000D01*
X1773000Y1373130D02*
X1827000D01*
X1773000Y1393130D02*
X1827000D01*
X1773000Y1413130D02*
X1827000D01*
X1773000Y1432130D02*
X1827000D01*
X1773000Y1452130D02*
X1827000D01*
X1773000Y1472130D02*
X1827000D01*
X1773000Y1491130D02*
X1827000D01*
X1773000Y1511130D02*
X1827000D01*
X1773000Y1531130D02*
X1827000D01*
X1773000Y1550130D02*
X1827000D01*
X1773000Y1570130D02*
X1827000D01*
X1773000Y1590130D02*
X1827000D01*
G54D20*
X1773000Y1610130D02*
X1827000D01*
G54D21*
X2102300Y1407130D02*
X2137700D01*
X1922300D02*
X1957700D01*
X1922300Y1522130D02*
X1957700D01*
X2102300D02*
X2137700D01*
G54D11*
X1974000Y1190180D02*
Y1194080D01*
X1915000Y1190180D02*
Y1194080D01*
X1834000Y1190180D02*
Y1194080D01*
X1775000Y1190180D02*
Y1194080D01*
X200000Y1484180D02*
Y1488080D01*
X259000Y1484180D02*
Y1488080D01*
X1290000Y1214180D02*
Y1218080D01*
X1349000Y1214180D02*
Y1218080D01*
G54D10*
X641150Y2502130D02*
X654850D01*
X641150Y2427130D02*
X654850D01*
X550150Y2464130D02*
X563850D01*
G54D11*
X1943050Y2760130D02*
X1946950D01*
X1943050Y2819130D02*
X1946950D01*
X128050Y2451130D02*
X131950D01*
X128050Y2510130D02*
X131950D01*
X1943050Y2649130D02*
X1946950D01*
X1943050Y2708130D02*
X1946950D01*
X723050Y2435130D02*
X726950D01*
X723050Y2494130D02*
X726950D01*
X1998050Y2708130D02*
X2001950D01*
X1998050Y2649130D02*
X2001950D01*
X2038050Y2400130D02*
X2041950D01*
X2038050Y2341130D02*
X2041950D01*
X1278050Y2744130D02*
X1281950D01*
X1278050Y2685130D02*
X1281950D01*
X1833050Y2819130D02*
X1836950D01*
X1833050Y2760130D02*
X1836950D01*
X1998050D02*
X2001950D01*
X1998050Y2819130D02*
X2001950D01*
X1658050Y2851130D02*
X1661950D01*
X1658050Y2910130D02*
X1661950D01*
X1713050D02*
X1716950D01*
X1713050Y2851130D02*
X1716950D01*
X1888050Y2819130D02*
X1891950D01*
X1888050Y2760130D02*
X1891950D01*
X1888050Y2708130D02*
X1891950D01*
X1888050Y2649130D02*
X1891950D01*
X493050Y2435130D02*
X496950D01*
X493050Y2494130D02*
X496950D01*
X383050Y2435130D02*
X386950D01*
X383050Y2494130D02*
X386950D01*
X438050Y2435130D02*
X441950D01*
X438050Y2494130D02*
X441950D01*
X1223050Y2744130D02*
X1226950D01*
X1223050Y2685130D02*
X1226950D01*
G54D12*
X1218950Y2925130D02*
X1333050D01*
X1218950Y2975130D02*
X1333050D01*
X1218950Y3025130D02*
X1333050D01*
X1484450Y2875130D02*
X1539550D01*
X1484450Y2925130D02*
X1539550D01*
X1484450Y2975130D02*
X1539550D01*
X1484450Y3025130D02*
X1539550D01*
G54D11*
X1218950Y2875130D02*
X1333050D01*
G54D13*
X1138300Y2363130D02*
X1181700D01*
X1022300D02*
X1065700D01*
X1022300Y2441130D02*
X1065700D01*
X1138300Y2382130D02*
X1181700D01*
X1022300D02*
X1065700D01*
X1138300Y2402130D02*
X1181700D01*
X1022300D02*
X1065700D01*
X1138300Y2422130D02*
X1181700D01*
X1022300D02*
X1065700D01*
G54D14*
X1138300Y2441130D02*
X1181700D01*
X296150Y2480130D02*
X315850D01*
G54D13*
X174150Y2460130D02*
X193850D01*
X296150D02*
X315850D01*
X174150Y2441130D02*
X193850D01*
X296150D02*
X315850D01*
X174150Y2421130D02*
X193850D01*
X296150D02*
X315850D01*
X174150Y2480130D02*
X193850D01*
G54D15*
X1788300Y2919130D02*
X1823700D01*
G54D16*
X1788300Y2925030D02*
X1823700D01*
X1788300Y2913230D02*
X1823700D01*
G54D15*
X2036300Y2919130D02*
X2071700D01*
G54D16*
X2036300Y2925030D02*
X2071700D01*
X2036300Y2913230D02*
X2071700D01*
G54D15*
X1788300Y2882130D02*
X1823700D01*
G54D16*
X1788300Y2888030D02*
X1823700D01*
X1788300Y2876230D02*
X1823700D01*
G54D15*
X2036300Y2882130D02*
X2071700D01*
G54D16*
X2036300Y2888030D02*
X2071700D01*
X2036300Y2876230D02*
X2071700D01*
G54D17*
X945000Y2299530D02*
Y2352730D01*
X895000Y2299530D02*
Y2352730D01*
X845000Y2299530D02*
Y2352730D01*
X795000Y2299530D02*
Y2352730D01*
X945000Y2568530D02*
Y2621730D01*
X895000Y2568530D02*
Y2621730D01*
X845000Y2568530D02*
Y2621730D01*
G54D18*
X795000Y2568530D02*
Y2621730D01*
G54D10*
X1975000Y2313280D02*
Y2326980D01*
X1900000Y2313280D02*
Y2326980D01*
X1937000Y2404280D02*
Y2417980D01*
G54D19*
X1730000Y2715130D02*
Y2769130D01*
X1710000Y2715130D02*
Y2769130D01*
X1690000Y2715130D02*
Y2769130D01*
X1671000Y2715130D02*
Y2769130D01*
X1651000Y2715130D02*
Y2769130D01*
X1631000Y2715130D02*
Y2769130D01*
X1612000Y2715130D02*
Y2769130D01*
X1592000Y2715130D02*
Y2769130D01*
X1572000Y2715130D02*
Y2769130D01*
X1553000Y2715130D02*
Y2769130D01*
X1533000Y2715130D02*
Y2769130D01*
X1513000Y2715130D02*
Y2769130D01*
X1494000Y2715130D02*
Y2769130D01*
X1474000Y2715130D02*
Y2769130D01*
X1454000Y2715130D02*
Y2769130D01*
X1435000Y2715130D02*
Y2769130D01*
Y2280130D02*
Y2334130D01*
X1454000Y2280130D02*
Y2334130D01*
X1474000Y2280130D02*
Y2334130D01*
X1494000Y2280130D02*
Y2334130D01*
X1513000Y2280130D02*
Y2334130D01*
X1533000Y2280130D02*
Y2334130D01*
X1553000Y2280130D02*
Y2334130D01*
X1572000Y2280130D02*
Y2334130D01*
X1592000Y2280130D02*
Y2334130D01*
X1612000Y2280130D02*
Y2334130D01*
X1631000Y2280130D02*
Y2334130D01*
X1651000Y2280130D02*
Y2334130D01*
X1671000Y2280130D02*
Y2334130D01*
X1690000Y2280130D02*
Y2334130D01*
X1710000Y2280130D02*
Y2334130D01*
X1730000Y2280130D02*
Y2334130D01*
X1338000Y2673130D02*
X1392000D01*
X1338000Y2653130D02*
X1392000D01*
X1338000Y2633130D02*
X1392000D01*
X1338000Y2613130D02*
X1392000D01*
X1338000Y2594130D02*
X1392000D01*
X1338000Y2574130D02*
X1392000D01*
X1338000Y2554130D02*
X1392000D01*
X1338000Y2535130D02*
X1392000D01*
X1338000Y2515130D02*
X1392000D01*
X1338000Y2495130D02*
X1392000D01*
X1338000Y2476130D02*
X1392000D01*
X1338000Y2456130D02*
X1392000D01*
X1338000Y2436130D02*
X1392000D01*
X1338000Y2417130D02*
X1392000D01*
X1338000Y2397130D02*
X1392000D01*
X1338000Y2377130D02*
X1392000D01*
X1773000D02*
X1827000D01*
X1773000Y2397130D02*
X1827000D01*
X1773000Y2417130D02*
X1827000D01*
X1773000Y2436130D02*
X1827000D01*
X1773000Y2456130D02*
X1827000D01*
X1773000Y2476130D02*
X1827000D01*
X1773000Y2495130D02*
X1827000D01*
X1773000Y2515130D02*
X1827000D01*
X1773000Y2535130D02*
X1827000D01*
X1773000Y2554130D02*
X1827000D01*
X1773000Y2574130D02*
X1827000D01*
X1773000Y2594130D02*
X1827000D01*
X1773000Y2613130D02*
X1827000D01*
X1773000Y2633130D02*
X1827000D01*
X1773000Y2653130D02*
X1827000D01*
G54D20*
X1773000Y2673130D02*
X1827000D01*
G54D21*
X2102300Y2470130D02*
X2137700D01*
X1922300D02*
X1957700D01*
X1922300Y2585130D02*
X1957700D01*
X2102300D02*
X2137700D01*
G54D11*
X1974000Y2253180D02*
Y2257080D01*
X1915000Y2253180D02*
Y2257080D01*
X1834000Y2253180D02*
Y2257080D01*
X1775000Y2253180D02*
Y2257080D01*
X200000Y2547180D02*
Y2551080D01*
X259000Y2547180D02*
Y2551080D01*
X1290000Y2277180D02*
Y2281080D01*
X1349000Y2277180D02*
Y2281080D01*
G54D10*
X641150Y3565129D02*
X654850D01*
X641150Y3490129D02*
X654850D01*
X550150Y3527129D02*
X563850D01*
G54D11*
X1943050Y3823129D02*
X1946950D01*
X1943050Y3882129D02*
X1946950D01*
X128050Y3514129D02*
X131950D01*
X128050Y3573129D02*
X131950D01*
X1943050Y3712129D02*
X1946950D01*
X1943050Y3771129D02*
X1946950D01*
X723050Y3498129D02*
X726950D01*
X723050Y3557129D02*
X726950D01*
X1998050Y3771129D02*
X2001950D01*
X1998050Y3712129D02*
X2001950D01*
X2038050Y3463129D02*
X2041950D01*
X2038050Y3404129D02*
X2041950D01*
X1278050Y3807129D02*
X1281950D01*
X1278050Y3748129D02*
X1281950D01*
X1833050Y3882129D02*
X1836950D01*
X1833050Y3823129D02*
X1836950D01*
X1998050D02*
X2001950D01*
X1998050Y3882129D02*
X2001950D01*
X1658050Y3914129D02*
X1661950D01*
X1658050Y3973129D02*
X1661950D01*
X1713050D02*
X1716950D01*
X1713050Y3914129D02*
X1716950D01*
X1888050Y3882129D02*
X1891950D01*
X1888050Y3823129D02*
X1891950D01*
X1888050Y3771129D02*
X1891950D01*
X1888050Y3712129D02*
X1891950D01*
X493050Y3498129D02*
X496950D01*
X493050Y3557129D02*
X496950D01*
X383050Y3498129D02*
X386950D01*
X383050Y3557129D02*
X386950D01*
X438050Y3498129D02*
X441950D01*
X438050Y3557129D02*
X441950D01*
X1223050Y3807129D02*
X1226950D01*
X1223050Y3748129D02*
X1226950D01*
G54D12*
X1218950Y3988129D02*
X1333050D01*
X1218950Y4038129D02*
X1333050D01*
X1218950Y4088129D02*
X1333050D01*
X1484450Y3938129D02*
X1539550D01*
X1484450Y3988129D02*
X1539550D01*
X1484450Y4038129D02*
X1539550D01*
X1484450Y4088129D02*
X1539550D01*
G54D11*
X1218950Y3938129D02*
X1333050D01*
G54D13*
X1138300Y3426129D02*
X1181700D01*
X1022300D02*
X1065700D01*
X1022300Y3504129D02*
X1065700D01*
X1138300Y3445129D02*
X1181700D01*
X1022300D02*
X1065700D01*
X1138300Y3465129D02*
X1181700D01*
X1022300D02*
X1065700D01*
X1138300Y3485129D02*
X1181700D01*
X1022300D02*
X1065700D01*
G54D14*
X1138300Y3504129D02*
X1181700D01*
X296150Y3543129D02*
X315850D01*
G54D13*
X174150Y3523129D02*
X193850D01*
X296150D02*
X315850D01*
X174150Y3504129D02*
X193850D01*
X296150D02*
X315850D01*
X174150Y3484129D02*
X193850D01*
X296150D02*
X315850D01*
X174150Y3543129D02*
X193850D01*
G54D15*
X1788300Y3982129D02*
X1823700D01*
G54D16*
X1788300Y3988029D02*
X1823700D01*
X1788300Y3976229D02*
X1823700D01*
G54D15*
X2036300Y3982129D02*
X2071700D01*
G54D16*
X2036300Y3988029D02*
X2071700D01*
X2036300Y3976229D02*
X2071700D01*
G54D15*
X1788300Y3945129D02*
X1823700D01*
G54D16*
X1788300Y3951029D02*
X1823700D01*
X1788300Y3939229D02*
X1823700D01*
G54D15*
X2036300Y3945129D02*
X2071700D01*
G54D16*
X2036300Y3951029D02*
X2071700D01*
X2036300Y3939229D02*
X2071700D01*
G54D17*
X945000Y3362529D02*
Y3415729D01*
X895000Y3362529D02*
Y3415729D01*
X845000Y3362529D02*
Y3415729D01*
X795000Y3362529D02*
Y3415729D01*
X945000Y3631529D02*
Y3684729D01*
X895000Y3631529D02*
Y3684729D01*
X845000Y3631529D02*
Y3684729D01*
G54D18*
X795000Y3631529D02*
Y3684729D01*
G54D10*
X1975000Y3376279D02*
Y3389979D01*
X1900000Y3376279D02*
Y3389979D01*
X1937000Y3467279D02*
Y3480979D01*
G54D19*
X1730000Y3778129D02*
Y3832129D01*
X1710000Y3778129D02*
Y3832129D01*
X1690000Y3778129D02*
Y3832129D01*
X1671000Y3778129D02*
Y3832129D01*
X1651000Y3778129D02*
Y3832129D01*
X1631000Y3778129D02*
Y3832129D01*
X1612000Y3778129D02*
Y3832129D01*
X1592000Y3778129D02*
Y3832129D01*
X1572000Y3778129D02*
Y3832129D01*
X1553000Y3778129D02*
Y3832129D01*
X1533000Y3778129D02*
Y3832129D01*
X1513000Y3778129D02*
Y3832129D01*
X1494000Y3778129D02*
Y3832129D01*
X1474000Y3778129D02*
Y3832129D01*
X1454000Y3778129D02*
Y3832129D01*
X1435000Y3778129D02*
Y3832129D01*
Y3343129D02*
Y3397129D01*
X1454000Y3343129D02*
Y3397129D01*
X1474000Y3343129D02*
Y3397129D01*
X1494000Y3343129D02*
Y3397129D01*
X1513000Y3343129D02*
Y3397129D01*
X1533000Y3343129D02*
Y3397129D01*
X1553000Y3343129D02*
Y3397129D01*
X1572000Y3343129D02*
Y3397129D01*
X1592000Y3343129D02*
Y3397129D01*
X1612000Y3343129D02*
Y3397129D01*
X1631000Y3343129D02*
Y3397129D01*
X1651000Y3343129D02*
Y3397129D01*
X1671000Y3343129D02*
Y3397129D01*
X1690000Y3343129D02*
Y3397129D01*
X1710000Y3343129D02*
Y3397129D01*
X1730000Y3343129D02*
Y3397129D01*
X1338000Y3736129D02*
X1392000D01*
X1338000Y3716129D02*
X1392000D01*
X1338000Y3696129D02*
X1392000D01*
X1338000Y3676129D02*
X1392000D01*
X1338000Y3657129D02*
X1392000D01*
X1338000Y3637129D02*
X1392000D01*
X1338000Y3617129D02*
X1392000D01*
X1338000Y3598129D02*
X1392000D01*
X1338000Y3578129D02*
X1392000D01*
X1338000Y3558129D02*
X1392000D01*
X1338000Y3539129D02*
X1392000D01*
X1338000Y3519129D02*
X1392000D01*
X1338000Y3499129D02*
X1392000D01*
X1338000Y3480129D02*
X1392000D01*
X1338000Y3460129D02*
X1392000D01*
X1338000Y3440129D02*
X1392000D01*
X1773000D02*
X1827000D01*
X1773000Y3460129D02*
X1827000D01*
X1773000Y3480129D02*
X1827000D01*
X1773000Y3499129D02*
X1827000D01*
X1773000Y3519129D02*
X1827000D01*
X1773000Y3539129D02*
X1827000D01*
X1773000Y3558129D02*
X1827000D01*
X1773000Y3578129D02*
X1827000D01*
X1773000Y3598129D02*
X1827000D01*
X1773000Y3617129D02*
X1827000D01*
X1773000Y3637129D02*
X1827000D01*
X1773000Y3657129D02*
X1827000D01*
X1773000Y3676129D02*
X1827000D01*
X1773000Y3696129D02*
X1827000D01*
X1773000Y3716129D02*
X1827000D01*
G54D20*
X1773000Y3736129D02*
X1827000D01*
G54D21*
X2102300Y3533129D02*
X2137700D01*
X1922300D02*
X1957700D01*
X1922300Y3648129D02*
X1957700D01*
X2102300D02*
X2137700D01*
G54D11*
X1974000Y3316179D02*
Y3320079D01*
X1915000Y3316179D02*
Y3320079D01*
X1834000Y3316179D02*
Y3320079D01*
X1775000Y3316179D02*
Y3320079D01*
X200000Y3610179D02*
Y3614079D01*
X259000Y3610179D02*
Y3614079D01*
X1290000Y3340179D02*
Y3344079D01*
X1349000Y3340179D02*
Y3344079D01*
G54D10*
X641150Y4628129D02*
X654850D01*
X641150Y4553129D02*
X654850D01*
X550150Y4590129D02*
X563850D01*
G54D11*
X1943050Y4886129D02*
X1946950D01*
X1943050Y4945129D02*
X1946950D01*
X128050Y4577129D02*
X131950D01*
X128050Y4636129D02*
X131950D01*
X1943050Y4775129D02*
X1946950D01*
X1943050Y4834129D02*
X1946950D01*
X723050Y4561129D02*
X726950D01*
X723050Y4620129D02*
X726950D01*
X1998050Y4834129D02*
X2001950D01*
X1998050Y4775129D02*
X2001950D01*
X2038050Y4526129D02*
X2041950D01*
X2038050Y4467129D02*
X2041950D01*
X1278050Y4870129D02*
X1281950D01*
X1278050Y4811129D02*
X1281950D01*
X1833050Y4945129D02*
X1836950D01*
X1833050Y4886129D02*
X1836950D01*
X1998050D02*
X2001950D01*
X1998050Y4945129D02*
X2001950D01*
X1658050Y4977129D02*
X1661950D01*
X1658050Y5036129D02*
X1661950D01*
X1713050D02*
X1716950D01*
X1713050Y4977129D02*
X1716950D01*
X1888050Y4945129D02*
X1891950D01*
X1888050Y4886129D02*
X1891950D01*
X1888050Y4834129D02*
X1891950D01*
X1888050Y4775129D02*
X1891950D01*
X493050Y4561129D02*
X496950D01*
X493050Y4620129D02*
X496950D01*
X383050Y4561129D02*
X386950D01*
X383050Y4620129D02*
X386950D01*
X438050Y4561129D02*
X441950D01*
X438050Y4620129D02*
X441950D01*
X1223050Y4870129D02*
X1226950D01*
X1223050Y4811129D02*
X1226950D01*
G54D12*
X1218950Y5051129D02*
X1333050D01*
X1218950Y5101129D02*
X1333050D01*
X1218950Y5151129D02*
X1333050D01*
X1484450Y5001129D02*
X1539550D01*
X1484450Y5051129D02*
X1539550D01*
X1484450Y5101129D02*
X1539550D01*
X1484450Y5151129D02*
X1539550D01*
G54D11*
X1218950Y5001129D02*
X1333050D01*
G54D13*
X1138300Y4489129D02*
X1181700D01*
X1022300D02*
X1065700D01*
X1022300Y4567129D02*
X1065700D01*
X1138300Y4508129D02*
X1181700D01*
X1022300D02*
X1065700D01*
X1138300Y4528129D02*
X1181700D01*
X1022300D02*
X1065700D01*
X1138300Y4548129D02*
X1181700D01*
X1022300D02*
X1065700D01*
G54D14*
X1138300Y4567129D02*
X1181700D01*
X296150Y4606129D02*
X315850D01*
G54D13*
X174150Y4586129D02*
X193850D01*
X296150D02*
X315850D01*
X174150Y4567129D02*
X193850D01*
X296150D02*
X315850D01*
X174150Y4547129D02*
X193850D01*
X296150D02*
X315850D01*
X174150Y4606129D02*
X193850D01*
G54D15*
X1788300Y5045129D02*
X1823700D01*
G54D16*
X1788300Y5051029D02*
X1823700D01*
X1788300Y5039229D02*
X1823700D01*
G54D15*
X2036300Y5045129D02*
X2071700D01*
G54D16*
X2036300Y5051029D02*
X2071700D01*
X2036300Y5039229D02*
X2071700D01*
G54D15*
X1788300Y5008129D02*
X1823700D01*
G54D16*
X1788300Y5014029D02*
X1823700D01*
X1788300Y5002229D02*
X1823700D01*
G54D15*
X2036300Y5008129D02*
X2071700D01*
G54D16*
X2036300Y5014029D02*
X2071700D01*
X2036300Y5002229D02*
X2071700D01*
G54D17*
X945000Y4425529D02*
Y4478729D01*
X895000Y4425529D02*
Y4478729D01*
X845000Y4425529D02*
Y4478729D01*
X795000Y4425529D02*
Y4478729D01*
X945000Y4694529D02*
Y4747729D01*
X895000Y4694529D02*
Y4747729D01*
X845000Y4694529D02*
Y4747729D01*
G54D18*
X795000Y4694529D02*
Y4747729D01*
G54D10*
X1975000Y4439279D02*
Y4452979D01*
X1900000Y4439279D02*
Y4452979D01*
X1937000Y4530279D02*
Y4543979D01*
G54D19*
X1730000Y4841129D02*
Y4895129D01*
X1710000Y4841129D02*
Y4895129D01*
X1690000Y4841129D02*
Y4895129D01*
X1671000Y4841129D02*
Y4895129D01*
X1651000Y4841129D02*
Y4895129D01*
X1631000Y4841129D02*
Y4895129D01*
X1612000Y4841129D02*
Y4895129D01*
X1592000Y4841129D02*
Y4895129D01*
X1572000Y4841129D02*
Y4895129D01*
X1553000Y4841129D02*
Y4895129D01*
X1533000Y4841129D02*
Y4895129D01*
X1513000Y4841129D02*
Y4895129D01*
X1494000Y4841129D02*
Y4895129D01*
X1474000Y4841129D02*
Y4895129D01*
X1454000Y4841129D02*
Y4895129D01*
X1435000Y4841129D02*
Y4895129D01*
Y4406129D02*
Y4460129D01*
X1454000Y4406129D02*
Y4460129D01*
X1474000Y4406129D02*
Y4460129D01*
X1494000Y4406129D02*
Y4460129D01*
X1513000Y4406129D02*
Y4460129D01*
X1533000Y4406129D02*
Y4460129D01*
X1553000Y4406129D02*
Y4460129D01*
X1572000Y4406129D02*
Y4460129D01*
X1592000Y4406129D02*
Y4460129D01*
X1612000Y4406129D02*
Y4460129D01*
X1631000Y4406129D02*
Y4460129D01*
X1651000Y4406129D02*
Y4460129D01*
X1671000Y4406129D02*
Y4460129D01*
X1690000Y4406129D02*
Y4460129D01*
X1710000Y4406129D02*
Y4460129D01*
X1730000Y4406129D02*
Y4460129D01*
X1338000Y4799129D02*
X1392000D01*
X1338000Y4779129D02*
X1392000D01*
X1338000Y4759129D02*
X1392000D01*
X1338000Y4739129D02*
X1392000D01*
X1338000Y4720129D02*
X1392000D01*
X1338000Y4700129D02*
X1392000D01*
X1338000Y4680129D02*
X1392000D01*
X1338000Y4661129D02*
X1392000D01*
X1338000Y4641129D02*
X1392000D01*
X1338000Y4621129D02*
X1392000D01*
X1338000Y4602129D02*
X1392000D01*
X1338000Y4582129D02*
X1392000D01*
X1338000Y4562129D02*
X1392000D01*
X1338000Y4543129D02*
X1392000D01*
X1338000Y4523129D02*
X1392000D01*
X1338000Y4503129D02*
X1392000D01*
X1773000D02*
X1827000D01*
X1773000Y4523129D02*
X1827000D01*
X1773000Y4543129D02*
X1827000D01*
X1773000Y4562129D02*
X1827000D01*
X1773000Y4582129D02*
X1827000D01*
X1773000Y4602129D02*
X1827000D01*
X1773000Y4621129D02*
X1827000D01*
X1773000Y4641129D02*
X1827000D01*
X1773000Y4661129D02*
X1827000D01*
X1773000Y4680129D02*
X1827000D01*
X1773000Y4700129D02*
X1827000D01*
X1773000Y4720129D02*
X1827000D01*
X1773000Y4739129D02*
X1827000D01*
X1773000Y4759129D02*
X1827000D01*
X1773000Y4779129D02*
X1827000D01*
G54D20*
X1773000Y4799129D02*
X1827000D01*
G54D21*
X2102300Y4596129D02*
X2137700D01*
X1922300D02*
X1957700D01*
X1922300Y4711129D02*
X1957700D01*
X2102300D02*
X2137700D01*
G54D11*
X1974000Y4379179D02*
Y4383079D01*
X1915000Y4379179D02*
Y4383079D01*
X1834000Y4379179D02*
Y4383079D01*
X1775000Y4379179D02*
Y4383079D01*
X200000Y4673179D02*
Y4677079D01*
X259000Y4673179D02*
Y4677079D01*
X1290000Y4403179D02*
Y4407079D01*
X1349000Y4403179D02*
Y4407079D01*
G54D10*
X2924650Y376131D02*
X2938350D01*
X2924650Y301131D02*
X2938350D01*
X2833650Y338131D02*
X2847350D01*
G54D11*
X4226550Y634131D02*
X4230450D01*
X4226550Y693131D02*
X4230450D01*
X2411550Y325131D02*
X2415450D01*
X2411550Y384131D02*
X2415450D01*
X4226550Y523131D02*
X4230450D01*
X4226550Y582131D02*
X4230450D01*
X3006550Y309131D02*
X3010450D01*
X3006550Y368131D02*
X3010450D01*
X4281550Y582131D02*
X4285450D01*
X4281550Y523131D02*
X4285450D01*
X4321550Y274131D02*
X4325450D01*
X4321550Y215131D02*
X4325450D01*
X3561550Y618131D02*
X3565450D01*
X3561550Y559131D02*
X3565450D01*
X4116550Y693131D02*
X4120450D01*
X4116550Y634131D02*
X4120450D01*
X4281550D02*
X4285450D01*
X4281550Y693131D02*
X4285450D01*
X3941550Y725131D02*
X3945450D01*
X3941550Y784131D02*
X3945450D01*
X3996550D02*
X4000450D01*
X3996550Y725131D02*
X4000450D01*
X4171550Y693131D02*
X4175450D01*
X4171550Y634131D02*
X4175450D01*
X4171550Y582131D02*
X4175450D01*
X4171550Y523131D02*
X4175450D01*
X2776550Y309131D02*
X2780450D01*
X2776550Y368131D02*
X2780450D01*
X2666550Y309131D02*
X2670450D01*
X2666550Y368131D02*
X2670450D01*
X2721550Y309131D02*
X2725450D01*
X2721550Y368131D02*
X2725450D01*
X3506550Y618131D02*
X3510450D01*
X3506550Y559131D02*
X3510450D01*
G54D12*
X3502450Y799131D02*
X3616550D01*
X3502450Y849131D02*
X3616550D01*
X3502450Y899131D02*
X3616550D01*
X3767950Y749131D02*
X3823050D01*
X3767950Y799131D02*
X3823050D01*
X3767950Y849131D02*
X3823050D01*
X3767950Y899131D02*
X3823050D01*
G54D11*
X3502450Y749131D02*
X3616550D01*
G54D13*
X3421800Y237131D02*
X3465200D01*
X3305800D02*
X3349200D01*
X3305800Y315131D02*
X3349200D01*
X3421800Y256131D02*
X3465200D01*
X3305800D02*
X3349200D01*
X3421800Y276131D02*
X3465200D01*
X3305800D02*
X3349200D01*
X3421800Y296131D02*
X3465200D01*
X3305800D02*
X3349200D01*
G54D14*
X3421800Y315131D02*
X3465200D01*
X2579650Y354131D02*
X2599350D01*
G54D13*
X2457650Y334131D02*
X2477350D01*
X2579650D02*
X2599350D01*
X2457650Y315131D02*
X2477350D01*
X2579650D02*
X2599350D01*
X2457650Y295131D02*
X2477350D01*
X2579650D02*
X2599350D01*
X2457650Y354131D02*
X2477350D01*
G54D15*
X4071800Y793131D02*
X4107200D01*
G54D16*
X4071800Y799031D02*
X4107200D01*
X4071800Y787231D02*
X4107200D01*
G54D15*
X4319800Y793131D02*
X4355200D01*
G54D16*
X4319800Y799031D02*
X4355200D01*
X4319800Y787231D02*
X4355200D01*
G54D15*
X4071800Y756131D02*
X4107200D01*
G54D16*
X4071800Y762031D02*
X4107200D01*
X4071800Y750231D02*
X4107200D01*
G54D15*
X4319800Y756131D02*
X4355200D01*
G54D16*
X4319800Y762031D02*
X4355200D01*
X4319800Y750231D02*
X4355200D01*
G54D17*
X3228500Y173531D02*
Y226731D01*
X3178500Y173531D02*
Y226731D01*
X3128500Y173531D02*
Y226731D01*
X3078500Y173531D02*
Y226731D01*
X3228500Y442531D02*
Y495731D01*
X3178500Y442531D02*
Y495731D01*
X3128500Y442531D02*
Y495731D01*
G54D18*
X3078500Y442531D02*
Y495731D01*
G54D10*
X4258500Y187281D02*
Y200981D01*
X4183500Y187281D02*
Y200981D01*
X4220500Y278281D02*
Y291981D01*
G54D19*
X4013500Y589131D02*
Y643131D01*
X3993500Y589131D02*
Y643131D01*
X3973500Y589131D02*
Y643131D01*
X3954500Y589131D02*
Y643131D01*
X3934500Y589131D02*
Y643131D01*
X3914500Y589131D02*
Y643131D01*
X3895500Y589131D02*
Y643131D01*
X3875500Y589131D02*
Y643131D01*
X3855500Y589131D02*
Y643131D01*
X3836500Y589131D02*
Y643131D01*
X3816500Y589131D02*
Y643131D01*
X3796500Y589131D02*
Y643131D01*
X3777500Y589131D02*
Y643131D01*
X3757500Y589131D02*
Y643131D01*
X3737500Y589131D02*
Y643131D01*
X3718500Y589131D02*
Y643131D01*
Y154131D02*
Y208131D01*
X3737500Y154131D02*
Y208131D01*
X3757500Y154131D02*
Y208131D01*
X3777500Y154131D02*
Y208131D01*
X3796500Y154131D02*
Y208131D01*
X3816500Y154131D02*
Y208131D01*
X3836500Y154131D02*
Y208131D01*
X3855500Y154131D02*
Y208131D01*
X3875500Y154131D02*
Y208131D01*
X3895500Y154131D02*
Y208131D01*
X3914500Y154131D02*
Y208131D01*
X3934500Y154131D02*
Y208131D01*
X3954500Y154131D02*
Y208131D01*
X3973500Y154131D02*
Y208131D01*
X3993500Y154131D02*
Y208131D01*
X4013500Y154131D02*
Y208131D01*
X3621500Y547131D02*
X3675500D01*
X3621500Y527131D02*
X3675500D01*
X3621500Y507131D02*
X3675500D01*
X3621500Y487131D02*
X3675500D01*
X3621500Y468131D02*
X3675500D01*
X3621500Y448131D02*
X3675500D01*
X3621500Y428131D02*
X3675500D01*
X3621500Y409131D02*
X3675500D01*
X3621500Y389131D02*
X3675500D01*
X3621500Y369131D02*
X3675500D01*
X3621500Y350131D02*
X3675500D01*
X3621500Y330131D02*
X3675500D01*
X3621500Y310131D02*
X3675500D01*
X3621500Y291131D02*
X3675500D01*
X3621500Y271131D02*
X3675500D01*
X3621500Y251131D02*
X3675500D01*
X4056500D02*
X4110500D01*
X4056500Y271131D02*
X4110500D01*
X4056500Y291131D02*
X4110500D01*
X4056500Y310131D02*
X4110500D01*
X4056500Y330131D02*
X4110500D01*
X4056500Y350131D02*
X4110500D01*
X4056500Y369131D02*
X4110500D01*
X4056500Y389131D02*
X4110500D01*
X4056500Y409131D02*
X4110500D01*
X4056500Y428131D02*
X4110500D01*
X4056500Y448131D02*
X4110500D01*
X4056500Y468131D02*
X4110500D01*
X4056500Y487131D02*
X4110500D01*
X4056500Y507131D02*
X4110500D01*
X4056500Y527131D02*
X4110500D01*
G54D20*
X4056500Y547131D02*
X4110500D01*
G54D21*
X4385800Y344131D02*
X4421200D01*
X4205800D02*
X4241200D01*
X4205800Y459131D02*
X4241200D01*
X4385800D02*
X4421200D01*
G54D11*
X4257500Y127181D02*
Y131081D01*
X4198500Y127181D02*
Y131081D01*
X4117500Y127181D02*
Y131081D01*
X4058500Y127181D02*
Y131081D01*
X2483500Y421181D02*
Y425081D01*
X2542500Y421181D02*
Y425081D01*
X3573500Y151181D02*
Y155081D01*
X3632500Y151181D02*
Y155081D01*
G54D10*
X2924650Y1439130D02*
X2938350D01*
X2924650Y1364130D02*
X2938350D01*
X2833650Y1401130D02*
X2847350D01*
G54D11*
X4226550Y1697130D02*
X4230450D01*
X4226550Y1756130D02*
X4230450D01*
X2411550Y1388130D02*
X2415450D01*
X2411550Y1447130D02*
X2415450D01*
X4226550Y1586130D02*
X4230450D01*
X4226550Y1645130D02*
X4230450D01*
X3006550Y1372130D02*
X3010450D01*
X3006550Y1431130D02*
X3010450D01*
X4281550Y1645130D02*
X4285450D01*
X4281550Y1586130D02*
X4285450D01*
X4321550Y1337130D02*
X4325450D01*
X4321550Y1278130D02*
X4325450D01*
X3561550Y1681130D02*
X3565450D01*
X3561550Y1622130D02*
X3565450D01*
X4116550Y1756130D02*
X4120450D01*
X4116550Y1697130D02*
X4120450D01*
X4281550D02*
X4285450D01*
X4281550Y1756130D02*
X4285450D01*
X3941550Y1788130D02*
X3945450D01*
X3941550Y1847130D02*
X3945450D01*
X3996550D02*
X4000450D01*
X3996550Y1788130D02*
X4000450D01*
X4171550Y1756130D02*
X4175450D01*
X4171550Y1697130D02*
X4175450D01*
X4171550Y1645130D02*
X4175450D01*
X4171550Y1586130D02*
X4175450D01*
X2776550Y1372130D02*
X2780450D01*
X2776550Y1431130D02*
X2780450D01*
X2666550Y1372130D02*
X2670450D01*
X2666550Y1431130D02*
X2670450D01*
X2721550Y1372130D02*
X2725450D01*
X2721550Y1431130D02*
X2725450D01*
X3506550Y1681130D02*
X3510450D01*
X3506550Y1622130D02*
X3510450D01*
G54D12*
X3502450Y1862130D02*
X3616550D01*
X3502450Y1912130D02*
X3616550D01*
X3502450Y1962130D02*
X3616550D01*
X3767950Y1812130D02*
X3823050D01*
X3767950Y1862130D02*
X3823050D01*
X3767950Y1912130D02*
X3823050D01*
X3767950Y1962130D02*
X3823050D01*
G54D11*
X3502450Y1812130D02*
X3616550D01*
G54D13*
X3421800Y1300130D02*
X3465200D01*
X3305800D02*
X3349200D01*
X3305800Y1378130D02*
X3349200D01*
X3421800Y1319130D02*
X3465200D01*
X3305800D02*
X3349200D01*
X3421800Y1339130D02*
X3465200D01*
X3305800D02*
X3349200D01*
X3421800Y1359130D02*
X3465200D01*
X3305800D02*
X3349200D01*
G54D14*
X3421800Y1378130D02*
X3465200D01*
X2579650Y1417130D02*
X2599350D01*
G54D13*
X2457650Y1397130D02*
X2477350D01*
X2579650D02*
X2599350D01*
X2457650Y1378130D02*
X2477350D01*
X2579650D02*
X2599350D01*
X2457650Y1358130D02*
X2477350D01*
X2579650D02*
X2599350D01*
X2457650Y1417130D02*
X2477350D01*
G54D15*
X4071800Y1856130D02*
X4107200D01*
G54D16*
X4071800Y1862030D02*
X4107200D01*
X4071800Y1850230D02*
X4107200D01*
G54D15*
X4319800Y1856130D02*
X4355200D01*
G54D16*
X4319800Y1862030D02*
X4355200D01*
X4319800Y1850230D02*
X4355200D01*
G54D15*
X4071800Y1819130D02*
X4107200D01*
G54D16*
X4071800Y1825030D02*
X4107200D01*
X4071800Y1813230D02*
X4107200D01*
G54D15*
X4319800Y1819130D02*
X4355200D01*
G54D16*
X4319800Y1825030D02*
X4355200D01*
X4319800Y1813230D02*
X4355200D01*
G54D17*
X3228500Y1236530D02*
Y1289730D01*
X3178500Y1236530D02*
Y1289730D01*
X3128500Y1236530D02*
Y1289730D01*
X3078500Y1236530D02*
Y1289730D01*
X3228500Y1505530D02*
Y1558730D01*
X3178500Y1505530D02*
Y1558730D01*
X3128500Y1505530D02*
Y1558730D01*
G54D18*
X3078500Y1505530D02*
Y1558730D01*
G54D10*
X4258500Y1250280D02*
Y1263980D01*
X4183500Y1250280D02*
Y1263980D01*
X4220500Y1341280D02*
Y1354980D01*
G54D19*
X4013500Y1652130D02*
Y1706130D01*
X3993500Y1652130D02*
Y1706130D01*
X3973500Y1652130D02*
Y1706130D01*
X3954500Y1652130D02*
Y1706130D01*
X3934500Y1652130D02*
Y1706130D01*
X3914500Y1652130D02*
Y1706130D01*
X3895500Y1652130D02*
Y1706130D01*
X3875500Y1652130D02*
Y1706130D01*
X3855500Y1652130D02*
Y1706130D01*
X3836500Y1652130D02*
Y1706130D01*
X3816500Y1652130D02*
Y1706130D01*
X3796500Y1652130D02*
Y1706130D01*
X3777500Y1652130D02*
Y1706130D01*
X3757500Y1652130D02*
Y1706130D01*
X3737500Y1652130D02*
Y1706130D01*
X3718500Y1652130D02*
Y1706130D01*
Y1217130D02*
Y1271130D01*
X3737500Y1217130D02*
Y1271130D01*
X3757500Y1217130D02*
Y1271130D01*
X3777500Y1217130D02*
Y1271130D01*
X3796500Y1217130D02*
Y1271130D01*
X3816500Y1217130D02*
Y1271130D01*
X3836500Y1217130D02*
Y1271130D01*
X3855500Y1217130D02*
Y1271130D01*
X3875500Y1217130D02*
Y1271130D01*
X3895500Y1217130D02*
Y1271130D01*
X3914500Y1217130D02*
Y1271130D01*
X3934500Y1217130D02*
Y1271130D01*
X3954500Y1217130D02*
Y1271130D01*
X3973500Y1217130D02*
Y1271130D01*
X3993500Y1217130D02*
Y1271130D01*
X4013500Y1217130D02*
Y1271130D01*
X3621500Y1610130D02*
X3675500D01*
X3621500Y1590130D02*
X3675500D01*
X3621500Y1570130D02*
X3675500D01*
X3621500Y1550130D02*
X3675500D01*
X3621500Y1531130D02*
X3675500D01*
X3621500Y1511130D02*
X3675500D01*
X3621500Y1491130D02*
X3675500D01*
X3621500Y1472130D02*
X3675500D01*
X3621500Y1452130D02*
X3675500D01*
X3621500Y1432130D02*
X3675500D01*
X3621500Y1413130D02*
X3675500D01*
X3621500Y1393130D02*
X3675500D01*
X3621500Y1373130D02*
X3675500D01*
X3621500Y1354130D02*
X3675500D01*
X3621500Y1334130D02*
X3675500D01*
X3621500Y1314130D02*
X3675500D01*
X4056500D02*
X4110500D01*
X4056500Y1334130D02*
X4110500D01*
X4056500Y1354130D02*
X4110500D01*
X4056500Y1373130D02*
X4110500D01*
X4056500Y1393130D02*
X4110500D01*
X4056500Y1413130D02*
X4110500D01*
X4056500Y1432130D02*
X4110500D01*
X4056500Y1452130D02*
X4110500D01*
X4056500Y1472130D02*
X4110500D01*
X4056500Y1491130D02*
X4110500D01*
X4056500Y1511130D02*
X4110500D01*
X4056500Y1531130D02*
X4110500D01*
X4056500Y1550130D02*
X4110500D01*
X4056500Y1570130D02*
X4110500D01*
X4056500Y1590130D02*
X4110500D01*
G54D20*
X4056500Y1610130D02*
X4110500D01*
G54D21*
X4385800Y1407130D02*
X4421200D01*
X4205800D02*
X4241200D01*
X4205800Y1522130D02*
X4241200D01*
X4385800D02*
X4421200D01*
G54D11*
X4257500Y1190180D02*
Y1194080D01*
X4198500Y1190180D02*
Y1194080D01*
X4117500Y1190180D02*
Y1194080D01*
X4058500Y1190180D02*
Y1194080D01*
X2483500Y1484180D02*
Y1488080D01*
X2542500Y1484180D02*
Y1488080D01*
X3573500Y1214180D02*
Y1218080D01*
X3632500Y1214180D02*
Y1218080D01*
G54D10*
X2924650Y2502130D02*
X2938350D01*
X2924650Y2427130D02*
X2938350D01*
X2833650Y2464130D02*
X2847350D01*
G54D11*
X4226550Y2760130D02*
X4230450D01*
X4226550Y2819130D02*
X4230450D01*
X2411550Y2451130D02*
X2415450D01*
X2411550Y2510130D02*
X2415450D01*
X4226550Y2649130D02*
X4230450D01*
X4226550Y2708130D02*
X4230450D01*
X3006550Y2435130D02*
X3010450D01*
X3006550Y2494130D02*
X3010450D01*
X4281550Y2708130D02*
X4285450D01*
X4281550Y2649130D02*
X4285450D01*
X4321550Y2400130D02*
X4325450D01*
X4321550Y2341130D02*
X4325450D01*
X3561550Y2744130D02*
X3565450D01*
X3561550Y2685130D02*
X3565450D01*
X4116550Y2819130D02*
X4120450D01*
X4116550Y2760130D02*
X4120450D01*
X4281550D02*
X4285450D01*
X4281550Y2819130D02*
X4285450D01*
X3941550Y2851130D02*
X3945450D01*
X3941550Y2910130D02*
X3945450D01*
X3996550D02*
X4000450D01*
X3996550Y2851130D02*
X4000450D01*
X4171550Y2819130D02*
X4175450D01*
X4171550Y2760130D02*
X4175450D01*
X4171550Y2708130D02*
X4175450D01*
X4171550Y2649130D02*
X4175450D01*
X2776550Y2435130D02*
X2780450D01*
X2776550Y2494130D02*
X2780450D01*
X2666550Y2435130D02*
X2670450D01*
X2666550Y2494130D02*
X2670450D01*
X2721550Y2435130D02*
X2725450D01*
X2721550Y2494130D02*
X2725450D01*
X3506550Y2744130D02*
X3510450D01*
X3506550Y2685130D02*
X3510450D01*
G54D12*
X3502450Y2925130D02*
X3616550D01*
X3502450Y2975130D02*
X3616550D01*
X3502450Y3025130D02*
X3616550D01*
X3767950Y2875130D02*
X3823050D01*
X3767950Y2925130D02*
X3823050D01*
X3767950Y2975130D02*
X3823050D01*
X3767950Y3025130D02*
X3823050D01*
G54D11*
X3502450Y2875130D02*
X3616550D01*
G54D13*
X3421800Y2363130D02*
X3465200D01*
X3305800D02*
X3349200D01*
X3305800Y2441130D02*
X3349200D01*
X3421800Y2382130D02*
X3465200D01*
X3305800D02*
X3349200D01*
X3421800Y2402130D02*
X3465200D01*
X3305800D02*
X3349200D01*
X3421800Y2422130D02*
X3465200D01*
X3305800D02*
X3349200D01*
G54D14*
X3421800Y2441130D02*
X3465200D01*
X2579650Y2480130D02*
X2599350D01*
G54D13*
X2457650Y2460130D02*
X2477350D01*
X2579650D02*
X2599350D01*
X2457650Y2441130D02*
X2477350D01*
X2579650D02*
X2599350D01*
X2457650Y2421130D02*
X2477350D01*
X2579650D02*
X2599350D01*
X2457650Y2480130D02*
X2477350D01*
G54D15*
X4071800Y2919130D02*
X4107200D01*
G54D16*
X4071800Y2925030D02*
X4107200D01*
X4071800Y2913230D02*
X4107200D01*
G54D15*
X4319800Y2919130D02*
X4355200D01*
G54D16*
X4319800Y2925030D02*
X4355200D01*
X4319800Y2913230D02*
X4355200D01*
G54D15*
X4071800Y2882130D02*
X4107200D01*
G54D16*
X4071800Y2888030D02*
X4107200D01*
X4071800Y2876230D02*
X4107200D01*
G54D15*
X4319800Y2882130D02*
X4355200D01*
G54D16*
X4319800Y2888030D02*
X4355200D01*
X4319800Y2876230D02*
X4355200D01*
G54D17*
X3228500Y2299530D02*
Y2352730D01*
X3178500Y2299530D02*
Y2352730D01*
X3128500Y2299530D02*
Y2352730D01*
X3078500Y2299530D02*
Y2352730D01*
X3228500Y2568530D02*
Y2621730D01*
X3178500Y2568530D02*
Y2621730D01*
X3128500Y2568530D02*
Y2621730D01*
G54D18*
X3078500Y2568530D02*
Y2621730D01*
G54D10*
X4258500Y2313280D02*
Y2326980D01*
X4183500Y2313280D02*
Y2326980D01*
X4220500Y2404280D02*
Y2417980D01*
G54D19*
X4013500Y2715130D02*
Y2769130D01*
X3993500Y2715130D02*
Y2769130D01*
X3973500Y2715130D02*
Y2769130D01*
X3954500Y2715130D02*
Y2769130D01*
X3934500Y2715130D02*
Y2769130D01*
X3914500Y2715130D02*
Y2769130D01*
X3895500Y2715130D02*
Y2769130D01*
X3875500Y2715130D02*
Y2769130D01*
X3855500Y2715130D02*
Y2769130D01*
X3836500Y2715130D02*
Y2769130D01*
X3816500Y2715130D02*
Y2769130D01*
X3796500Y2715130D02*
Y2769130D01*
X3777500Y2715130D02*
Y2769130D01*
X3757500Y2715130D02*
Y2769130D01*
X3737500Y2715130D02*
Y2769130D01*
X3718500Y2715130D02*
Y2769130D01*
Y2280130D02*
Y2334130D01*
X3737500Y2280130D02*
Y2334130D01*
X3757500Y2280130D02*
Y2334130D01*
X3777500Y2280130D02*
Y2334130D01*
X3796500Y2280130D02*
Y2334130D01*
X3816500Y2280130D02*
Y2334130D01*
X3836500Y2280130D02*
Y2334130D01*
X3855500Y2280130D02*
Y2334130D01*
X3875500Y2280130D02*
Y2334130D01*
X3895500Y2280130D02*
Y2334130D01*
X3914500Y2280130D02*
Y2334130D01*
X3934500Y2280130D02*
Y2334130D01*
X3954500Y2280130D02*
Y2334130D01*
X3973500Y2280130D02*
Y2334130D01*
X3993500Y2280130D02*
Y2334130D01*
X4013500Y2280130D02*
Y2334130D01*
X3621500Y2673130D02*
X3675500D01*
X3621500Y2653130D02*
X3675500D01*
X3621500Y2633130D02*
X3675500D01*
X3621500Y2613130D02*
X3675500D01*
X3621500Y2594130D02*
X3675500D01*
X3621500Y2574130D02*
X3675500D01*
X3621500Y2554130D02*
X3675500D01*
X3621500Y2535130D02*
X3675500D01*
X3621500Y2515130D02*
X3675500D01*
X3621500Y2495130D02*
X3675500D01*
X3621500Y2476130D02*
X3675500D01*
X3621500Y2456130D02*
X3675500D01*
X3621500Y2436130D02*
X3675500D01*
X3621500Y2417130D02*
X3675500D01*
X3621500Y2397130D02*
X3675500D01*
X3621500Y2377130D02*
X3675500D01*
X4056500D02*
X4110500D01*
X4056500Y2397130D02*
X4110500D01*
X4056500Y2417130D02*
X4110500D01*
X4056500Y2436130D02*
X4110500D01*
X4056500Y2456130D02*
X4110500D01*
X4056500Y2476130D02*
X4110500D01*
X4056500Y2495130D02*
X4110500D01*
X4056500Y2515130D02*
X4110500D01*
X4056500Y2535130D02*
X4110500D01*
X4056500Y2554130D02*
X4110500D01*
X4056500Y2574130D02*
X4110500D01*
X4056500Y2594130D02*
X4110500D01*
X4056500Y2613130D02*
X4110500D01*
X4056500Y2633130D02*
X4110500D01*
X4056500Y2653130D02*
X4110500D01*
G54D20*
X4056500Y2673130D02*
X4110500D01*
G54D21*
X4385800Y2470130D02*
X4421200D01*
X4205800D02*
X4241200D01*
X4205800Y2585130D02*
X4241200D01*
X4385800D02*
X4421200D01*
G54D11*
X4257500Y2253180D02*
Y2257080D01*
X4198500Y2253180D02*
Y2257080D01*
X4117500Y2253180D02*
Y2257080D01*
X4058500Y2253180D02*
Y2257080D01*
X2483500Y2547180D02*
Y2551080D01*
X2542500Y2547180D02*
Y2551080D01*
X3573500Y2277180D02*
Y2281080D01*
X3632500Y2277180D02*
Y2281080D01*
G54D10*
X2924650Y3565129D02*
X2938350D01*
X2924650Y3490129D02*
X2938350D01*
X2833650Y3527129D02*
X2847350D01*
G54D11*
X4226550Y3823129D02*
X4230450D01*
X4226550Y3882129D02*
X4230450D01*
X2411550Y3514129D02*
X2415450D01*
X2411550Y3573129D02*
X2415450D01*
X4226550Y3712129D02*
X4230450D01*
X4226550Y3771129D02*
X4230450D01*
X3006550Y3498129D02*
X3010450D01*
X3006550Y3557129D02*
X3010450D01*
X4281550Y3771129D02*
X4285450D01*
X4281550Y3712129D02*
X4285450D01*
X4321550Y3463129D02*
X4325450D01*
X4321550Y3404129D02*
X4325450D01*
X3561550Y3807129D02*
X3565450D01*
X3561550Y3748129D02*
X3565450D01*
X4116550Y3882129D02*
X4120450D01*
X4116550Y3823129D02*
X4120450D01*
X4281550D02*
X4285450D01*
X4281550Y3882129D02*
X4285450D01*
X3941550Y3914129D02*
X3945450D01*
X3941550Y3973129D02*
X3945450D01*
X3996550D02*
X4000450D01*
X3996550Y3914129D02*
X4000450D01*
X4171550Y3882129D02*
X4175450D01*
X4171550Y3823129D02*
X4175450D01*
X4171550Y3771129D02*
X4175450D01*
X4171550Y3712129D02*
X4175450D01*
X2776550Y3498129D02*
X2780450D01*
X2776550Y3557129D02*
X2780450D01*
X2666550Y3498129D02*
X2670450D01*
X2666550Y3557129D02*
X2670450D01*
X2721550Y3498129D02*
X2725450D01*
X2721550Y3557129D02*
X2725450D01*
X3506550Y3807129D02*
X3510450D01*
X3506550Y3748129D02*
X3510450D01*
G54D12*
X3502450Y3988129D02*
X3616550D01*
X3502450Y4038129D02*
X3616550D01*
X3502450Y4088129D02*
X3616550D01*
X3767950Y3938129D02*
X3823050D01*
X3767950Y3988129D02*
X3823050D01*
X3767950Y4038129D02*
X3823050D01*
X3767950Y4088129D02*
X3823050D01*
G54D11*
X3502450Y3938129D02*
X3616550D01*
G54D13*
X3421800Y3426129D02*
X3465200D01*
X3305800D02*
X3349200D01*
X3305800Y3504129D02*
X3349200D01*
X3421800Y3445129D02*
X3465200D01*
X3305800D02*
X3349200D01*
X3421800Y3465129D02*
X3465200D01*
X3305800D02*
X3349200D01*
X3421800Y3485129D02*
X3465200D01*
X3305800D02*
X3349200D01*
G54D14*
X3421800Y3504129D02*
X3465200D01*
X2579650Y3543129D02*
X2599350D01*
G54D13*
X2457650Y3523129D02*
X2477350D01*
X2579650D02*
X2599350D01*
X2457650Y3504129D02*
X2477350D01*
X2579650D02*
X2599350D01*
X2457650Y3484129D02*
X2477350D01*
X2579650D02*
X2599350D01*
X2457650Y3543129D02*
X2477350D01*
G54D15*
X4071800Y3982129D02*
X4107200D01*
G54D16*
X4071800Y3988029D02*
X4107200D01*
X4071800Y3976229D02*
X4107200D01*
G54D15*
X4319800Y3982129D02*
X4355200D01*
G54D16*
X4319800Y3988029D02*
X4355200D01*
X4319800Y3976229D02*
X4355200D01*
G54D15*
X4071800Y3945129D02*
X4107200D01*
G54D16*
X4071800Y3951029D02*
X4107200D01*
X4071800Y3939229D02*
X4107200D01*
G54D15*
X4319800Y3945129D02*
X4355200D01*
G54D16*
X4319800Y3951029D02*
X4355200D01*
X4319800Y3939229D02*
X4355200D01*
G54D17*
X3228500Y3362529D02*
Y3415729D01*
X3178500Y3362529D02*
Y3415729D01*
X3128500Y3362529D02*
Y3415729D01*
X3078500Y3362529D02*
Y3415729D01*
X3228500Y3631529D02*
Y3684729D01*
X3178500Y3631529D02*
Y3684729D01*
X3128500Y3631529D02*
Y3684729D01*
G54D18*
X3078500Y3631529D02*
Y3684729D01*
G54D10*
X4258500Y3376279D02*
Y3389979D01*
X4183500Y3376279D02*
Y3389979D01*
X4220500Y3467279D02*
Y3480979D01*
G54D19*
X4013500Y3778129D02*
Y3832129D01*
X3993500Y3778129D02*
Y3832129D01*
X3973500Y3778129D02*
Y3832129D01*
X3954500Y3778129D02*
Y3832129D01*
X3934500Y3778129D02*
Y3832129D01*
X3914500Y3778129D02*
Y3832129D01*
X3895500Y3778129D02*
Y3832129D01*
X3875500Y3778129D02*
Y3832129D01*
X3855500Y3778129D02*
Y3832129D01*
X3836500Y3778129D02*
Y3832129D01*
X3816500Y3778129D02*
Y3832129D01*
X3796500Y3778129D02*
Y3832129D01*
X3777500Y3778129D02*
Y3832129D01*
X3757500Y3778129D02*
Y3832129D01*
X3737500Y3778129D02*
Y3832129D01*
X3718500Y3778129D02*
Y3832129D01*
Y3343129D02*
Y3397129D01*
X3737500Y3343129D02*
Y3397129D01*
X3757500Y3343129D02*
Y3397129D01*
X3777500Y3343129D02*
Y3397129D01*
X3796500Y3343129D02*
Y3397129D01*
X3816500Y3343129D02*
Y3397129D01*
X3836500Y3343129D02*
Y3397129D01*
X3855500Y3343129D02*
Y3397129D01*
X3875500Y3343129D02*
Y3397129D01*
X3895500Y3343129D02*
Y3397129D01*
X3914500Y3343129D02*
Y3397129D01*
X3934500Y3343129D02*
Y3397129D01*
X3954500Y3343129D02*
Y3397129D01*
X3973500Y3343129D02*
Y3397129D01*
X3993500Y3343129D02*
Y3397129D01*
X4013500Y3343129D02*
Y3397129D01*
X3621500Y3736129D02*
X3675500D01*
X3621500Y3716129D02*
X3675500D01*
X3621500Y3696129D02*
X3675500D01*
X3621500Y3676129D02*
X3675500D01*
X3621500Y3657129D02*
X3675500D01*
X3621500Y3637129D02*
X3675500D01*
X3621500Y3617129D02*
X3675500D01*
X3621500Y3598129D02*
X3675500D01*
X3621500Y3578129D02*
X3675500D01*
X3621500Y3558129D02*
X3675500D01*
X3621500Y3539129D02*
X3675500D01*
X3621500Y3519129D02*
X3675500D01*
X3621500Y3499129D02*
X3675500D01*
X3621500Y3480129D02*
X3675500D01*
X3621500Y3460129D02*
X3675500D01*
X3621500Y3440129D02*
X3675500D01*
X4056500D02*
X4110500D01*
X4056500Y3460129D02*
X4110500D01*
X4056500Y3480129D02*
X4110500D01*
X4056500Y3499129D02*
X4110500D01*
X4056500Y3519129D02*
X4110500D01*
X4056500Y3539129D02*
X4110500D01*
X4056500Y3558129D02*
X4110500D01*
X4056500Y3578129D02*
X4110500D01*
X4056500Y3598129D02*
X4110500D01*
X4056500Y3617129D02*
X4110500D01*
X4056500Y3637129D02*
X4110500D01*
X4056500Y3657129D02*
X4110500D01*
X4056500Y3676129D02*
X4110500D01*
X4056500Y3696129D02*
X4110500D01*
X4056500Y3716129D02*
X4110500D01*
G54D20*
X4056500Y3736129D02*
X4110500D01*
G54D21*
X4385800Y3533129D02*
X4421200D01*
X4205800D02*
X4241200D01*
X4205800Y3648129D02*
X4241200D01*
X4385800D02*
X4421200D01*
G54D11*
X4257500Y3316179D02*
Y3320079D01*
X4198500Y3316179D02*
Y3320079D01*
X4117500Y3316179D02*
Y3320079D01*
X4058500Y3316179D02*
Y3320079D01*
X2483500Y3610179D02*
Y3614079D01*
X2542500Y3610179D02*
Y3614079D01*
X3573500Y3340179D02*
Y3344079D01*
X3632500Y3340179D02*
Y3344079D01*
G54D10*
X2924650Y4628129D02*
X2938350D01*
X2924650Y4553129D02*
X2938350D01*
X2833650Y4590129D02*
X2847350D01*
G54D11*
X4226550Y4886129D02*
X4230450D01*
X4226550Y4945129D02*
X4230450D01*
X2411550Y4577129D02*
X2415450D01*
X2411550Y4636129D02*
X2415450D01*
X4226550Y4775129D02*
X4230450D01*
X4226550Y4834129D02*
X4230450D01*
X3006550Y4561129D02*
X3010450D01*
X3006550Y4620129D02*
X3010450D01*
X4281550Y4834129D02*
X4285450D01*
X4281550Y4775129D02*
X4285450D01*
X4321550Y4526129D02*
X4325450D01*
X4321550Y4467129D02*
X4325450D01*
X3561550Y4870129D02*
X3565450D01*
X3561550Y4811129D02*
X3565450D01*
X4116550Y4945129D02*
X4120450D01*
X4116550Y4886129D02*
X4120450D01*
X4281550D02*
X4285450D01*
X4281550Y4945129D02*
X4285450D01*
X3941550Y4977129D02*
X3945450D01*
X3941550Y5036129D02*
X3945450D01*
X3996550D02*
X4000450D01*
X3996550Y4977129D02*
X4000450D01*
X4171550Y4945129D02*
X4175450D01*
X4171550Y4886129D02*
X4175450D01*
X4171550Y4834129D02*
X4175450D01*
X4171550Y4775129D02*
X4175450D01*
X2776550Y4561129D02*
X2780450D01*
X2776550Y4620129D02*
X2780450D01*
X2666550Y4561129D02*
X2670450D01*
X2666550Y4620129D02*
X2670450D01*
X2721550Y4561129D02*
X2725450D01*
X2721550Y4620129D02*
X2725450D01*
X3506550Y4870129D02*
X3510450D01*
X3506550Y4811129D02*
X3510450D01*
G54D12*
X3502450Y5051129D02*
X3616550D01*
X3502450Y5101129D02*
X3616550D01*
X3502450Y5151129D02*
X3616550D01*
X3767950Y5001129D02*
X3823050D01*
X3767950Y5051129D02*
X3823050D01*
X3767950Y5101129D02*
X3823050D01*
X3767950Y5151129D02*
X3823050D01*
G54D11*
X3502450Y5001129D02*
X3616550D01*
G54D13*
X3421800Y4489129D02*
X3465200D01*
X3305800D02*
X3349200D01*
X3305800Y4567129D02*
X3349200D01*
X3421800Y4508129D02*
X3465200D01*
X3305800D02*
X3349200D01*
X3421800Y4528129D02*
X3465200D01*
X3305800D02*
X3349200D01*
X3421800Y4548129D02*
X3465200D01*
X3305800D02*
X3349200D01*
G54D14*
X3421800Y4567129D02*
X3465200D01*
X2579650Y4606129D02*
X2599350D01*
G54D13*
X2457650Y4586129D02*
X2477350D01*
X2579650D02*
X2599350D01*
X2457650Y4567129D02*
X2477350D01*
X2579650D02*
X2599350D01*
X2457650Y4547129D02*
X2477350D01*
X2579650D02*
X2599350D01*
X2457650Y4606129D02*
X2477350D01*
G54D15*
X4071800Y5045129D02*
X4107200D01*
G54D16*
X4071800Y5051029D02*
X4107200D01*
X4071800Y5039229D02*
X4107200D01*
G54D15*
X4319800Y5045129D02*
X4355200D01*
G54D16*
X4319800Y5051029D02*
X4355200D01*
X4319800Y5039229D02*
X4355200D01*
G54D15*
X4071800Y5008129D02*
X4107200D01*
G54D16*
X4071800Y5014029D02*
X4107200D01*
X4071800Y5002229D02*
X4107200D01*
G54D15*
X4319800Y5008129D02*
X4355200D01*
G54D16*
X4319800Y5014029D02*
X4355200D01*
X4319800Y5002229D02*
X4355200D01*
G54D17*
X3228500Y4425529D02*
Y4478729D01*
X3178500Y4425529D02*
Y4478729D01*
X3128500Y4425529D02*
Y4478729D01*
X3078500Y4425529D02*
Y4478729D01*
X3228500Y4694529D02*
Y4747729D01*
X3178500Y4694529D02*
Y4747729D01*
X3128500Y4694529D02*
Y4747729D01*
G54D18*
X3078500Y4694529D02*
Y4747729D01*
G54D10*
X4258500Y4439279D02*
Y4452979D01*
X4183500Y4439279D02*
Y4452979D01*
X4220500Y4530279D02*
Y4543979D01*
G54D19*
X4013500Y4841129D02*
Y4895129D01*
X3993500Y4841129D02*
Y4895129D01*
X3973500Y4841129D02*
Y4895129D01*
X3954500Y4841129D02*
Y4895129D01*
X3934500Y4841129D02*
Y4895129D01*
X3914500Y4841129D02*
Y4895129D01*
X3895500Y4841129D02*
Y4895129D01*
X3875500Y4841129D02*
Y4895129D01*
X3855500Y4841129D02*
Y4895129D01*
X3836500Y4841129D02*
Y4895129D01*
X3816500Y4841129D02*
Y4895129D01*
X3796500Y4841129D02*
Y4895129D01*
X3777500Y4841129D02*
Y4895129D01*
X3757500Y4841129D02*
Y4895129D01*
X3737500Y4841129D02*
Y4895129D01*
X3718500Y4841129D02*
Y4895129D01*
Y4406129D02*
Y4460129D01*
X3737500Y4406129D02*
Y4460129D01*
X3757500Y4406129D02*
Y4460129D01*
X3777500Y4406129D02*
Y4460129D01*
X3796500Y4406129D02*
Y4460129D01*
X3816500Y4406129D02*
Y4460129D01*
X3836500Y4406129D02*
Y4460129D01*
X3855500Y4406129D02*
Y4460129D01*
X3875500Y4406129D02*
Y4460129D01*
X3895500Y4406129D02*
Y4460129D01*
X3914500Y4406129D02*
Y4460129D01*
X3934500Y4406129D02*
Y4460129D01*
X3954500Y4406129D02*
Y4460129D01*
X3973500Y4406129D02*
Y4460129D01*
X3993500Y4406129D02*
Y4460129D01*
X4013500Y4406129D02*
Y4460129D01*
X3621500Y4799129D02*
X3675500D01*
X3621500Y4779129D02*
X3675500D01*
X3621500Y4759129D02*
X3675500D01*
X3621500Y4739129D02*
X3675500D01*
X3621500Y4720129D02*
X3675500D01*
X3621500Y4700129D02*
X3675500D01*
X3621500Y4680129D02*
X3675500D01*
X3621500Y4661129D02*
X3675500D01*
X3621500Y4641129D02*
X3675500D01*
X3621500Y4621129D02*
X3675500D01*
X3621500Y4602129D02*
X3675500D01*
X3621500Y4582129D02*
X3675500D01*
X3621500Y4562129D02*
X3675500D01*
X3621500Y4543129D02*
X3675500D01*
X3621500Y4523129D02*
X3675500D01*
X3621500Y4503129D02*
X3675500D01*
X4056500D02*
X4110500D01*
X4056500Y4523129D02*
X4110500D01*
X4056500Y4543129D02*
X4110500D01*
X4056500Y4562129D02*
X4110500D01*
X4056500Y4582129D02*
X4110500D01*
X4056500Y4602129D02*
X4110500D01*
X4056500Y4621129D02*
X4110500D01*
X4056500Y4641129D02*
X4110500D01*
X4056500Y4661129D02*
X4110500D01*
X4056500Y4680129D02*
X4110500D01*
X4056500Y4700129D02*
X4110500D01*
X4056500Y4720129D02*
X4110500D01*
X4056500Y4739129D02*
X4110500D01*
X4056500Y4759129D02*
X4110500D01*
X4056500Y4779129D02*
X4110500D01*
G54D20*
X4056500Y4799129D02*
X4110500D01*
G54D21*
X4385800Y4596129D02*
X4421200D01*
X4205800D02*
X4241200D01*
X4205800Y4711129D02*
X4241200D01*
X4385800D02*
X4421200D01*
G54D11*
X4257500Y4379179D02*
Y4383079D01*
X4198500Y4379179D02*
Y4383079D01*
X4117500Y4379179D02*
Y4383079D01*
X4058500Y4379179D02*
Y4383079D01*
X2483500Y4673179D02*
Y4677079D01*
X2542500Y4673179D02*
Y4677079D01*
X3573500Y4403179D02*
Y4407079D01*
X3632500Y4403179D02*
Y4407079D01*
G54D10*
X5208150Y376131D02*
X5221850D01*
X5208150Y301131D02*
X5221850D01*
X5117150Y338131D02*
X5130850D01*
G54D11*
X6510050Y634131D02*
X6513950D01*
X6510050Y693131D02*
X6513950D01*
X4695050Y325131D02*
X4698950D01*
X4695050Y384131D02*
X4698950D01*
X6510050Y523131D02*
X6513950D01*
X6510050Y582131D02*
X6513950D01*
X5290050Y309131D02*
X5293950D01*
X5290050Y368131D02*
X5293950D01*
X6565050Y582131D02*
X6568950D01*
X6565050Y523131D02*
X6568950D01*
X6605050Y274131D02*
X6608950D01*
X6605050Y215131D02*
X6608950D01*
X5845050Y618131D02*
X5848950D01*
X5845050Y559131D02*
X5848950D01*
X6400050Y693131D02*
X6403950D01*
X6400050Y634131D02*
X6403950D01*
X6565050D02*
X6568950D01*
X6565050Y693131D02*
X6568950D01*
X6225050Y725131D02*
X6228950D01*
X6225050Y784131D02*
X6228950D01*
X6280050D02*
X6283950D01*
X6280050Y725131D02*
X6283950D01*
X6455050Y693131D02*
X6458950D01*
X6455050Y634131D02*
X6458950D01*
X6455050Y582131D02*
X6458950D01*
X6455050Y523131D02*
X6458950D01*
X5060050Y309131D02*
X5063950D01*
X5060050Y368131D02*
X5063950D01*
X4950050Y309131D02*
X4953950D01*
X4950050Y368131D02*
X4953950D01*
X5005050Y309131D02*
X5008950D01*
X5005050Y368131D02*
X5008950D01*
X5790050Y618131D02*
X5793950D01*
X5790050Y559131D02*
X5793950D01*
G54D12*
X5785950Y799131D02*
X5900050D01*
X5785950Y849131D02*
X5900050D01*
X5785950Y899131D02*
X5900050D01*
X6051450Y749131D02*
X6106550D01*
X6051450Y799131D02*
X6106550D01*
X6051450Y849131D02*
X6106550D01*
X6051450Y899131D02*
X6106550D01*
G54D11*
X5785950Y749131D02*
X5900050D01*
G54D13*
X5705300Y237131D02*
X5748700D01*
X5589300D02*
X5632700D01*
X5589300Y315131D02*
X5632700D01*
X5705300Y256131D02*
X5748700D01*
X5589300D02*
X5632700D01*
X5705300Y276131D02*
X5748700D01*
X5589300D02*
X5632700D01*
X5705300Y296131D02*
X5748700D01*
X5589300D02*
X5632700D01*
G54D14*
X5705300Y315131D02*
X5748700D01*
X4863150Y354131D02*
X4882850D01*
G54D13*
X4741150Y334131D02*
X4760850D01*
X4863150D02*
X4882850D01*
X4741150Y315131D02*
X4760850D01*
X4863150D02*
X4882850D01*
X4741150Y295131D02*
X4760850D01*
X4863150D02*
X4882850D01*
X4741150Y354131D02*
X4760850D01*
G54D15*
X6355300Y793131D02*
X6390700D01*
G54D16*
X6355300Y799031D02*
X6390700D01*
X6355300Y787231D02*
X6390700D01*
G54D15*
X6603300Y793131D02*
X6638700D01*
G54D16*
X6603300Y799031D02*
X6638700D01*
X6603300Y787231D02*
X6638700D01*
G54D15*
X6355300Y756131D02*
X6390700D01*
G54D16*
X6355300Y762031D02*
X6390700D01*
X6355300Y750231D02*
X6390700D01*
G54D15*
X6603300Y756131D02*
X6638700D01*
G54D16*
X6603300Y762031D02*
X6638700D01*
X6603300Y750231D02*
X6638700D01*
G54D17*
X5512000Y173531D02*
Y226731D01*
X5462000Y173531D02*
Y226731D01*
X5412000Y173531D02*
Y226731D01*
X5362000Y173531D02*
Y226731D01*
X5512000Y442531D02*
Y495731D01*
X5462000Y442531D02*
Y495731D01*
X5412000Y442531D02*
Y495731D01*
G54D18*
X5362000Y442531D02*
Y495731D01*
G54D10*
X6542000Y187281D02*
Y200981D01*
X6467000Y187281D02*
Y200981D01*
X6504000Y278281D02*
Y291981D01*
G54D19*
X6297000Y589131D02*
Y643131D01*
X6277000Y589131D02*
Y643131D01*
X6257000Y589131D02*
Y643131D01*
X6238000Y589131D02*
Y643131D01*
X6218000Y589131D02*
Y643131D01*
X6198000Y589131D02*
Y643131D01*
X6179000Y589131D02*
Y643131D01*
X6159000Y589131D02*
Y643131D01*
X6139000Y589131D02*
Y643131D01*
X6120000Y589131D02*
Y643131D01*
X6100000Y589131D02*
Y643131D01*
X6080000Y589131D02*
Y643131D01*
X6061000Y589131D02*
Y643131D01*
X6041000Y589131D02*
Y643131D01*
X6021000Y589131D02*
Y643131D01*
X6002000Y589131D02*
Y643131D01*
Y154131D02*
Y208131D01*
X6021000Y154131D02*
Y208131D01*
X6041000Y154131D02*
Y208131D01*
X6061000Y154131D02*
Y208131D01*
X6080000Y154131D02*
Y208131D01*
X6100000Y154131D02*
Y208131D01*
X6120000Y154131D02*
Y208131D01*
X6139000Y154131D02*
Y208131D01*
X6159000Y154131D02*
Y208131D01*
X6179000Y154131D02*
Y208131D01*
X6198000Y154131D02*
Y208131D01*
X6218000Y154131D02*
Y208131D01*
X6238000Y154131D02*
Y208131D01*
X6257000Y154131D02*
Y208131D01*
X6277000Y154131D02*
Y208131D01*
X6297000Y154131D02*
Y208131D01*
X5905000Y547131D02*
X5959000D01*
X5905000Y527131D02*
X5959000D01*
X5905000Y507131D02*
X5959000D01*
X5905000Y487131D02*
X5959000D01*
X5905000Y468131D02*
X5959000D01*
X5905000Y448131D02*
X5959000D01*
X5905000Y428131D02*
X5959000D01*
X5905000Y409131D02*
X5959000D01*
X5905000Y389131D02*
X5959000D01*
X5905000Y369131D02*
X5959000D01*
X5905000Y350131D02*
X5959000D01*
X5905000Y330131D02*
X5959000D01*
X5905000Y310131D02*
X5959000D01*
X5905000Y291131D02*
X5959000D01*
X5905000Y271131D02*
X5959000D01*
X5905000Y251131D02*
X5959000D01*
X6340000D02*
X6394000D01*
X6340000Y271131D02*
X6394000D01*
X6340000Y291131D02*
X6394000D01*
X6340000Y310131D02*
X6394000D01*
X6340000Y330131D02*
X6394000D01*
X6340000Y350131D02*
X6394000D01*
X6340000Y369131D02*
X6394000D01*
X6340000Y389131D02*
X6394000D01*
X6340000Y409131D02*
X6394000D01*
X6340000Y428131D02*
X6394000D01*
X6340000Y448131D02*
X6394000D01*
X6340000Y468131D02*
X6394000D01*
X6340000Y487131D02*
X6394000D01*
X6340000Y507131D02*
X6394000D01*
X6340000Y527131D02*
X6394000D01*
G54D20*
X6340000Y547131D02*
X6394000D01*
G54D21*
X6669300Y344131D02*
X6704700D01*
X6489300D02*
X6524700D01*
X6489300Y459131D02*
X6524700D01*
X6669300D02*
X6704700D01*
G54D11*
X6541000Y127181D02*
Y131081D01*
X6482000Y127181D02*
Y131081D01*
X6401000Y127181D02*
Y131081D01*
X6342000Y127181D02*
Y131081D01*
X4767000Y421181D02*
Y425081D01*
X4826000Y421181D02*
Y425081D01*
X5857000Y151181D02*
Y155081D01*
X5916000Y151181D02*
Y155081D01*
G54D10*
X5208150Y1439130D02*
X5221850D01*
X5208150Y1364130D02*
X5221850D01*
X5117150Y1401130D02*
X5130850D01*
G54D11*
X6510050Y1697130D02*
X6513950D01*
X6510050Y1756130D02*
X6513950D01*
X4695050Y1388130D02*
X4698950D01*
X4695050Y1447130D02*
X4698950D01*
X6510050Y1586130D02*
X6513950D01*
X6510050Y1645130D02*
X6513950D01*
X5290050Y1372130D02*
X5293950D01*
X5290050Y1431130D02*
X5293950D01*
X6565050Y1645130D02*
X6568950D01*
X6565050Y1586130D02*
X6568950D01*
X6605050Y1337130D02*
X6608950D01*
X6605050Y1278130D02*
X6608950D01*
X5845050Y1681130D02*
X5848950D01*
X5845050Y1622130D02*
X5848950D01*
X6400050Y1756130D02*
X6403950D01*
X6400050Y1697130D02*
X6403950D01*
X6565050D02*
X6568950D01*
X6565050Y1756130D02*
X6568950D01*
X6225050Y1788130D02*
X6228950D01*
X6225050Y1847130D02*
X6228950D01*
X6280050D02*
X6283950D01*
X6280050Y1788130D02*
X6283950D01*
X6455050Y1756130D02*
X6458950D01*
X6455050Y1697130D02*
X6458950D01*
X6455050Y1645130D02*
X6458950D01*
X6455050Y1586130D02*
X6458950D01*
X5060050Y1372130D02*
X5063950D01*
X5060050Y1431130D02*
X5063950D01*
X4950050Y1372130D02*
X4953950D01*
X4950050Y1431130D02*
X4953950D01*
X5005050Y1372130D02*
X5008950D01*
X5005050Y1431130D02*
X5008950D01*
X5790050Y1681130D02*
X5793950D01*
X5790050Y1622130D02*
X5793950D01*
G54D12*
X5785950Y1862130D02*
X5900050D01*
X5785950Y1912130D02*
X5900050D01*
X5785950Y1962130D02*
X5900050D01*
X6051450Y1812130D02*
X6106550D01*
X6051450Y1862130D02*
X6106550D01*
X6051450Y1912130D02*
X6106550D01*
X6051450Y1962130D02*
X6106550D01*
G54D11*
X5785950Y1812130D02*
X5900050D01*
G54D13*
X5705300Y1300130D02*
X5748700D01*
X5589300D02*
X5632700D01*
X5589300Y1378130D02*
X5632700D01*
X5705300Y1319130D02*
X5748700D01*
X5589300D02*
X5632700D01*
X5705300Y1339130D02*
X5748700D01*
X5589300D02*
X5632700D01*
X5705300Y1359130D02*
X5748700D01*
X5589300D02*
X5632700D01*
G54D14*
X5705300Y1378130D02*
X5748700D01*
X4863150Y1417130D02*
X4882850D01*
G54D13*
X4741150Y1397130D02*
X4760850D01*
X4863150D02*
X4882850D01*
X4741150Y1378130D02*
X4760850D01*
X4863150D02*
X4882850D01*
X4741150Y1358130D02*
X4760850D01*
X4863150D02*
X4882850D01*
X4741150Y1417130D02*
X4760850D01*
G54D15*
X6355300Y1856130D02*
X6390700D01*
G54D16*
X6355300Y1862030D02*
X6390700D01*
X6355300Y1850230D02*
X6390700D01*
G54D15*
X6603300Y1856130D02*
X6638700D01*
G54D16*
X6603300Y1862030D02*
X6638700D01*
X6603300Y1850230D02*
X6638700D01*
G54D15*
X6355300Y1819130D02*
X6390700D01*
G54D16*
X6355300Y1825030D02*
X6390700D01*
X6355300Y1813230D02*
X6390700D01*
G54D15*
X6603300Y1819130D02*
X6638700D01*
G54D16*
X6603300Y1825030D02*
X6638700D01*
X6603300Y1813230D02*
X6638700D01*
G54D17*
X5512000Y1236530D02*
Y1289730D01*
X5462000Y1236530D02*
Y1289730D01*
X5412000Y1236530D02*
Y1289730D01*
X5362000Y1236530D02*
Y1289730D01*
X5512000Y1505530D02*
Y1558730D01*
X5462000Y1505530D02*
Y1558730D01*
X5412000Y1505530D02*
Y1558730D01*
G54D18*
X5362000Y1505530D02*
Y1558730D01*
G54D10*
X6542000Y1250280D02*
Y1263980D01*
X6467000Y1250280D02*
Y1263980D01*
X6504000Y1341280D02*
Y1354980D01*
G54D19*
X6297000Y1652130D02*
Y1706130D01*
X6277000Y1652130D02*
Y1706130D01*
X6257000Y1652130D02*
Y1706130D01*
X6238000Y1652130D02*
Y1706130D01*
X6218000Y1652130D02*
Y1706130D01*
X6198000Y1652130D02*
Y1706130D01*
X6179000Y1652130D02*
Y1706130D01*
X6159000Y1652130D02*
Y1706130D01*
X6139000Y1652130D02*
Y1706130D01*
X6120000Y1652130D02*
Y1706130D01*
X6100000Y1652130D02*
Y1706130D01*
X6080000Y1652130D02*
Y1706130D01*
X6061000Y1652130D02*
Y1706130D01*
X6041000Y1652130D02*
Y1706130D01*
X6021000Y1652130D02*
Y1706130D01*
X6002000Y1652130D02*
Y1706130D01*
Y1217130D02*
Y1271130D01*
X6021000Y1217130D02*
Y1271130D01*
X6041000Y1217130D02*
Y1271130D01*
X6061000Y1217130D02*
Y1271130D01*
X6080000Y1217130D02*
Y1271130D01*
X6100000Y1217130D02*
Y1271130D01*
X6120000Y1217130D02*
Y1271130D01*
X6139000Y1217130D02*
Y1271130D01*
X6159000Y1217130D02*
Y1271130D01*
X6179000Y1217130D02*
Y1271130D01*
X6198000Y1217130D02*
Y1271130D01*
X6218000Y1217130D02*
Y1271130D01*
X6238000Y1217130D02*
Y1271130D01*
X6257000Y1217130D02*
Y1271130D01*
X6277000Y1217130D02*
Y1271130D01*
X6297000Y1217130D02*
Y1271130D01*
X5905000Y1610130D02*
X5959000D01*
X5905000Y1590130D02*
X5959000D01*
X5905000Y1570130D02*
X5959000D01*
X5905000Y1550130D02*
X5959000D01*
X5905000Y1531130D02*
X5959000D01*
X5905000Y1511130D02*
X5959000D01*
X5905000Y1491130D02*
X5959000D01*
X5905000Y1472130D02*
X5959000D01*
X5905000Y1452130D02*
X5959000D01*
X5905000Y1432130D02*
X5959000D01*
X5905000Y1413130D02*
X5959000D01*
X5905000Y1393130D02*
X5959000D01*
X5905000Y1373130D02*
X5959000D01*
X5905000Y1354130D02*
X5959000D01*
X5905000Y1334130D02*
X5959000D01*
X5905000Y1314130D02*
X5959000D01*
X6340000D02*
X6394000D01*
X6340000Y1334130D02*
X6394000D01*
X6340000Y1354130D02*
X6394000D01*
X6340000Y1373130D02*
X6394000D01*
X6340000Y1393130D02*
X6394000D01*
X6340000Y1413130D02*
X6394000D01*
X6340000Y1432130D02*
X6394000D01*
X6340000Y1452130D02*
X6394000D01*
X6340000Y1472130D02*
X6394000D01*
X6340000Y1491130D02*
X6394000D01*
X6340000Y1511130D02*
X6394000D01*
X6340000Y1531130D02*
X6394000D01*
X6340000Y1550130D02*
X6394000D01*
X6340000Y1570130D02*
X6394000D01*
X6340000Y1590130D02*
X6394000D01*
G54D20*
X6340000Y1610130D02*
X6394000D01*
G54D21*
X6669300Y1407130D02*
X6704700D01*
X6489300D02*
X6524700D01*
X6489300Y1522130D02*
X6524700D01*
X6669300D02*
X6704700D01*
G54D11*
X6541000Y1190180D02*
Y1194080D01*
X6482000Y1190180D02*
Y1194080D01*
X6401000Y1190180D02*
Y1194080D01*
X6342000Y1190180D02*
Y1194080D01*
X4767000Y1484180D02*
Y1488080D01*
X4826000Y1484180D02*
Y1488080D01*
X5857000Y1214180D02*
Y1218080D01*
X5916000Y1214180D02*
Y1218080D01*
G54D10*
X5208150Y2502130D02*
X5221850D01*
X5208150Y2427130D02*
X5221850D01*
X5117150Y2464130D02*
X5130850D01*
G54D11*
X6510050Y2760130D02*
X6513950D01*
X6510050Y2819130D02*
X6513950D01*
X4695050Y2451130D02*
X4698950D01*
X4695050Y2510130D02*
X4698950D01*
X6510050Y2649130D02*
X6513950D01*
X6510050Y2708130D02*
X6513950D01*
X5290050Y2435130D02*
X5293950D01*
X5290050Y2494130D02*
X5293950D01*
X6565050Y2708130D02*
X6568950D01*
X6565050Y2649130D02*
X6568950D01*
X6605050Y2400130D02*
X6608950D01*
X6605050Y2341130D02*
X6608950D01*
X5845050Y2744130D02*
X5848950D01*
X5845050Y2685130D02*
X5848950D01*
X6400050Y2819130D02*
X6403950D01*
X6400050Y2760130D02*
X6403950D01*
X6565050D02*
X6568950D01*
X6565050Y2819130D02*
X6568950D01*
X6225050Y2851130D02*
X6228950D01*
X6225050Y2910130D02*
X6228950D01*
X6280050D02*
X6283950D01*
X6280050Y2851130D02*
X6283950D01*
X6455050Y2819130D02*
X6458950D01*
X6455050Y2760130D02*
X6458950D01*
X6455050Y2708130D02*
X6458950D01*
X6455050Y2649130D02*
X6458950D01*
X5060050Y2435130D02*
X5063950D01*
X5060050Y2494130D02*
X5063950D01*
X4950050Y2435130D02*
X4953950D01*
X4950050Y2494130D02*
X4953950D01*
X5005050Y2435130D02*
X5008950D01*
X5005050Y2494130D02*
X5008950D01*
X5790050Y2744130D02*
X5793950D01*
X5790050Y2685130D02*
X5793950D01*
G54D12*
X5785950Y2925130D02*
X5900050D01*
X5785950Y2975130D02*
X5900050D01*
X5785950Y3025130D02*
X5900050D01*
X6051450Y2875130D02*
X6106550D01*
X6051450Y2925130D02*
X6106550D01*
X6051450Y2975130D02*
X6106550D01*
X6051450Y3025130D02*
X6106550D01*
G54D11*
X5785950Y2875130D02*
X5900050D01*
G54D13*
X5705300Y2363130D02*
X5748700D01*
X5589300D02*
X5632700D01*
X5589300Y2441130D02*
X5632700D01*
X5705300Y2382130D02*
X5748700D01*
X5589300D02*
X5632700D01*
X5705300Y2402130D02*
X5748700D01*
X5589300D02*
X5632700D01*
X5705300Y2422130D02*
X5748700D01*
X5589300D02*
X5632700D01*
G54D14*
X5705300Y2441130D02*
X5748700D01*
X4863150Y2480130D02*
X4882850D01*
G54D13*
X4741150Y2460130D02*
X4760850D01*
X4863150D02*
X4882850D01*
X4741150Y2441130D02*
X4760850D01*
X4863150D02*
X4882850D01*
X4741150Y2421130D02*
X4760850D01*
X4863150D02*
X4882850D01*
X4741150Y2480130D02*
X4760850D01*
G54D15*
X6355300Y2919130D02*
X6390700D01*
G54D16*
X6355300Y2925030D02*
X6390700D01*
X6355300Y2913230D02*
X6390700D01*
G54D15*
X6603300Y2919130D02*
X6638700D01*
G54D16*
X6603300Y2925030D02*
X6638700D01*
X6603300Y2913230D02*
X6638700D01*
G54D15*
X6355300Y2882130D02*
X6390700D01*
G54D16*
X6355300Y2888030D02*
X6390700D01*
X6355300Y2876230D02*
X6390700D01*
G54D15*
X6603300Y2882130D02*
X6638700D01*
G54D16*
X6603300Y2888030D02*
X6638700D01*
X6603300Y2876230D02*
X6638700D01*
G54D17*
X5512000Y2299530D02*
Y2352730D01*
X5462000Y2299530D02*
Y2352730D01*
X5412000Y2299530D02*
Y2352730D01*
X5362000Y2299530D02*
Y2352730D01*
X5512000Y2568530D02*
Y2621730D01*
X5462000Y2568530D02*
Y2621730D01*
X5412000Y2568530D02*
Y2621730D01*
G54D18*
X5362000Y2568530D02*
Y2621730D01*
G54D10*
X6542000Y2313280D02*
Y2326980D01*
X6467000Y2313280D02*
Y2326980D01*
X6504000Y2404280D02*
Y2417980D01*
G54D19*
X6297000Y2715130D02*
Y2769130D01*
X6277000Y2715130D02*
Y2769130D01*
X6257000Y2715130D02*
Y2769130D01*
X6238000Y2715130D02*
Y2769130D01*
X6218000Y2715130D02*
Y2769130D01*
X6198000Y2715130D02*
Y2769130D01*
X6179000Y2715130D02*
Y2769130D01*
X6159000Y2715130D02*
Y2769130D01*
X6139000Y2715130D02*
Y2769130D01*
X6120000Y2715130D02*
Y2769130D01*
X6100000Y2715130D02*
Y2769130D01*
X6080000Y2715130D02*
Y2769130D01*
X6061000Y2715130D02*
Y2769130D01*
X6041000Y2715130D02*
Y2769130D01*
X6021000Y2715130D02*
Y2769130D01*
X6002000Y2715130D02*
Y2769130D01*
Y2280130D02*
Y2334130D01*
X6021000Y2280130D02*
Y2334130D01*
X6041000Y2280130D02*
Y2334130D01*
X6061000Y2280130D02*
Y2334130D01*
X6080000Y2280130D02*
Y2334130D01*
X6100000Y2280130D02*
Y2334130D01*
X6120000Y2280130D02*
Y2334130D01*
X6139000Y2280130D02*
Y2334130D01*
X6159000Y2280130D02*
Y2334130D01*
X6179000Y2280130D02*
Y2334130D01*
X6198000Y2280130D02*
Y2334130D01*
X6218000Y2280130D02*
Y2334130D01*
X6238000Y2280130D02*
Y2334130D01*
X6257000Y2280130D02*
Y2334130D01*
X6277000Y2280130D02*
Y2334130D01*
X6297000Y2280130D02*
Y2334130D01*
X5905000Y2673130D02*
X5959000D01*
X5905000Y2653130D02*
X5959000D01*
X5905000Y2633130D02*
X5959000D01*
X5905000Y2613130D02*
X5959000D01*
X5905000Y2594130D02*
X5959000D01*
X5905000Y2574130D02*
X5959000D01*
X5905000Y2554130D02*
X5959000D01*
X5905000Y2535130D02*
X5959000D01*
X5905000Y2515130D02*
X5959000D01*
X5905000Y2495130D02*
X5959000D01*
X5905000Y2476130D02*
X5959000D01*
X5905000Y2456130D02*
X5959000D01*
X5905000Y2436130D02*
X5959000D01*
X5905000Y2417130D02*
X5959000D01*
X5905000Y2397130D02*
X5959000D01*
X5905000Y2377130D02*
X5959000D01*
X6340000D02*
X6394000D01*
X6340000Y2397130D02*
X6394000D01*
X6340000Y2417130D02*
X6394000D01*
X6340000Y2436130D02*
X6394000D01*
X6340000Y2456130D02*
X6394000D01*
X6340000Y2476130D02*
X6394000D01*
X6340000Y2495130D02*
X6394000D01*
X6340000Y2515130D02*
X6394000D01*
X6340000Y2535130D02*
X6394000D01*
X6340000Y2554130D02*
X6394000D01*
X6340000Y2574130D02*
X6394000D01*
X6340000Y2594130D02*
X6394000D01*
X6340000Y2613130D02*
X6394000D01*
X6340000Y2633130D02*
X6394000D01*
X6340000Y2653130D02*
X6394000D01*
G54D20*
X6340000Y2673130D02*
X6394000D01*
G54D21*
X6669300Y2470130D02*
X6704700D01*
X6489300D02*
X6524700D01*
X6489300Y2585130D02*
X6524700D01*
X6669300D02*
X6704700D01*
G54D11*
X6541000Y2253180D02*
Y2257080D01*
X6482000Y2253180D02*
Y2257080D01*
X6401000Y2253180D02*
Y2257080D01*
X6342000Y2253180D02*
Y2257080D01*
X4767000Y2547180D02*
Y2551080D01*
X4826000Y2547180D02*
Y2551080D01*
X5857000Y2277180D02*
Y2281080D01*
X5916000Y2277180D02*
Y2281080D01*
G54D10*
X5208150Y3565129D02*
X5221850D01*
X5208150Y3490129D02*
X5221850D01*
X5117150Y3527129D02*
X5130850D01*
G54D11*
X6510050Y3823129D02*
X6513950D01*
X6510050Y3882129D02*
X6513950D01*
X4695050Y3514129D02*
X4698950D01*
X4695050Y3573129D02*
X4698950D01*
X6510050Y3712129D02*
X6513950D01*
X6510050Y3771129D02*
X6513950D01*
X5290050Y3498129D02*
X5293950D01*
X5290050Y3557129D02*
X5293950D01*
X6565050Y3771129D02*
X6568950D01*
X6565050Y3712129D02*
X6568950D01*
X6605050Y3463129D02*
X6608950D01*
X6605050Y3404129D02*
X6608950D01*
X5845050Y3807129D02*
X5848950D01*
X5845050Y3748129D02*
X5848950D01*
X6400050Y3882129D02*
X6403950D01*
X6400050Y3823129D02*
X6403950D01*
X6565050D02*
X6568950D01*
X6565050Y3882129D02*
X6568950D01*
X6225050Y3914129D02*
X6228950D01*
X6225050Y3973129D02*
X6228950D01*
X6280050D02*
X6283950D01*
X6280050Y3914129D02*
X6283950D01*
X6455050Y3882129D02*
X6458950D01*
X6455050Y3823129D02*
X6458950D01*
X6455050Y3771129D02*
X6458950D01*
X6455050Y3712129D02*
X6458950D01*
X5060050Y3498129D02*
X5063950D01*
X5060050Y3557129D02*
X5063950D01*
X4950050Y3498129D02*
X4953950D01*
X4950050Y3557129D02*
X4953950D01*
X5005050Y3498129D02*
X5008950D01*
X5005050Y3557129D02*
X5008950D01*
X5790050Y3807129D02*
X5793950D01*
X5790050Y3748129D02*
X5793950D01*
G54D12*
X5785950Y3988129D02*
X5900050D01*
X5785950Y4038129D02*
X5900050D01*
X5785950Y4088129D02*
X5900050D01*
X6051450Y3938129D02*
X6106550D01*
X6051450Y3988129D02*
X6106550D01*
X6051450Y4038129D02*
X6106550D01*
X6051450Y4088129D02*
X6106550D01*
G54D11*
X5785950Y3938129D02*
X5900050D01*
G54D13*
X5705300Y3426129D02*
X5748700D01*
X5589300D02*
X5632700D01*
X5589300Y3504129D02*
X5632700D01*
X5705300Y3445129D02*
X5748700D01*
X5589300D02*
X5632700D01*
X5705300Y3465129D02*
X5748700D01*
X5589300D02*
X5632700D01*
X5705300Y3485129D02*
X5748700D01*
X5589300D02*
X5632700D01*
G54D14*
X5705300Y3504129D02*
X5748700D01*
X4863150Y3543129D02*
X4882850D01*
G54D13*
X4741150Y3523129D02*
X4760850D01*
X4863150D02*
X4882850D01*
X4741150Y3504129D02*
X4760850D01*
X4863150D02*
X4882850D01*
X4741150Y3484129D02*
X4760850D01*
X4863150D02*
X4882850D01*
X4741150Y3543129D02*
X4760850D01*
G54D15*
X6355300Y3982129D02*
X6390700D01*
G54D16*
X6355300Y3988029D02*
X6390700D01*
X6355300Y3976229D02*
X6390700D01*
G54D15*
X6603300Y3982129D02*
X6638700D01*
G54D16*
X6603300Y3988029D02*
X6638700D01*
X6603300Y3976229D02*
X6638700D01*
G54D15*
X6355300Y3945129D02*
X6390700D01*
G54D16*
X6355300Y3951029D02*
X6390700D01*
X6355300Y3939229D02*
X6390700D01*
G54D15*
X6603300Y3945129D02*
X6638700D01*
G54D16*
X6603300Y3951029D02*
X6638700D01*
X6603300Y3939229D02*
X6638700D01*
G54D17*
X5512000Y3362529D02*
Y3415729D01*
X5462000Y3362529D02*
Y3415729D01*
X5412000Y3362529D02*
Y3415729D01*
X5362000Y3362529D02*
Y3415729D01*
X5512000Y3631529D02*
Y3684729D01*
X5462000Y3631529D02*
Y3684729D01*
X5412000Y3631529D02*
Y3684729D01*
G54D18*
X5362000Y3631529D02*
Y3684729D01*
G54D10*
X6542000Y3376279D02*
Y3389979D01*
X6467000Y3376279D02*
Y3389979D01*
X6504000Y3467279D02*
Y3480979D01*
G54D19*
X6297000Y3778129D02*
Y3832129D01*
X6277000Y3778129D02*
Y3832129D01*
X6257000Y3778129D02*
Y3832129D01*
X6238000Y3778129D02*
Y3832129D01*
X6218000Y3778129D02*
Y3832129D01*
X6198000Y3778129D02*
Y3832129D01*
X6179000Y3778129D02*
Y3832129D01*
X6159000Y3778129D02*
Y3832129D01*
X6139000Y3778129D02*
Y3832129D01*
X6120000Y3778129D02*
Y3832129D01*
X6100000Y3778129D02*
Y3832129D01*
X6080000Y3778129D02*
Y3832129D01*
X6061000Y3778129D02*
Y3832129D01*
X6041000Y3778129D02*
Y3832129D01*
X6021000Y3778129D02*
Y3832129D01*
X6002000Y3778129D02*
Y3832129D01*
Y3343129D02*
Y3397129D01*
X6021000Y3343129D02*
Y3397129D01*
X6041000Y3343129D02*
Y3397129D01*
X6061000Y3343129D02*
Y3397129D01*
X6080000Y3343129D02*
Y3397129D01*
X6100000Y3343129D02*
Y3397129D01*
X6120000Y3343129D02*
Y3397129D01*
X6139000Y3343129D02*
Y3397129D01*
X6159000Y3343129D02*
Y3397129D01*
X6179000Y3343129D02*
Y3397129D01*
X6198000Y3343129D02*
Y3397129D01*
X6218000Y3343129D02*
Y3397129D01*
X6238000Y3343129D02*
Y3397129D01*
X6257000Y3343129D02*
Y3397129D01*
X6277000Y3343129D02*
Y3397129D01*
X6297000Y3343129D02*
Y3397129D01*
X5905000Y3736129D02*
X5959000D01*
X5905000Y3716129D02*
X5959000D01*
X5905000Y3696129D02*
X5959000D01*
X5905000Y3676129D02*
X5959000D01*
X5905000Y3657129D02*
X5959000D01*
X5905000Y3637129D02*
X5959000D01*
X5905000Y3617129D02*
X5959000D01*
X5905000Y3598129D02*
X5959000D01*
X5905000Y3578129D02*
X5959000D01*
X5905000Y3558129D02*
X5959000D01*
X5905000Y3539129D02*
X5959000D01*
X5905000Y3519129D02*
X5959000D01*
X5905000Y3499129D02*
X5959000D01*
X5905000Y3480129D02*
X5959000D01*
X5905000Y3460129D02*
X5959000D01*
X5905000Y3440129D02*
X5959000D01*
X6340000D02*
X6394000D01*
X6340000Y3460129D02*
X6394000D01*
X6340000Y3480129D02*
X6394000D01*
X6340000Y3499129D02*
X6394000D01*
X6340000Y3519129D02*
X6394000D01*
X6340000Y3539129D02*
X6394000D01*
X6340000Y3558129D02*
X6394000D01*
X6340000Y3578129D02*
X6394000D01*
X6340000Y3598129D02*
X6394000D01*
X6340000Y3617129D02*
X6394000D01*
X6340000Y3637129D02*
X6394000D01*
X6340000Y3657129D02*
X6394000D01*
X6340000Y3676129D02*
X6394000D01*
X6340000Y3696129D02*
X6394000D01*
X6340000Y3716129D02*
X6394000D01*
G54D20*
X6340000Y3736129D02*
X6394000D01*
G54D21*
X6669300Y3533129D02*
X6704700D01*
X6489300D02*
X6524700D01*
X6489300Y3648129D02*
X6524700D01*
X6669300D02*
X6704700D01*
G54D11*
X6541000Y3316179D02*
Y3320079D01*
X6482000Y3316179D02*
Y3320079D01*
X6401000Y3316179D02*
Y3320079D01*
X6342000Y3316179D02*
Y3320079D01*
X4767000Y3610179D02*
Y3614079D01*
X4826000Y3610179D02*
Y3614079D01*
X5857000Y3340179D02*
Y3344079D01*
X5916000Y3340179D02*
Y3344079D01*
G54D10*
X5208150Y4628129D02*
X5221850D01*
X5208150Y4553129D02*
X5221850D01*
X5117150Y4590129D02*
X5130850D01*
G54D11*
X6510050Y4886129D02*
X6513950D01*
X6510050Y4945129D02*
X6513950D01*
X4695050Y4577129D02*
X4698950D01*
X4695050Y4636129D02*
X4698950D01*
X6510050Y4775129D02*
X6513950D01*
X6510050Y4834129D02*
X6513950D01*
X5290050Y4561129D02*
X5293950D01*
X5290050Y4620129D02*
X5293950D01*
X6565050Y4834129D02*
X6568950D01*
X6565050Y4775129D02*
X6568950D01*
X6605050Y4526129D02*
X6608950D01*
X6605050Y4467129D02*
X6608950D01*
X5845050Y4870129D02*
X5848950D01*
X5845050Y4811129D02*
X5848950D01*
X6400050Y4945129D02*
X6403950D01*
X6400050Y4886129D02*
X6403950D01*
X6565050D02*
X6568950D01*
X6565050Y4945129D02*
X6568950D01*
X6225050Y4977129D02*
X6228950D01*
X6225050Y5036129D02*
X6228950D01*
X6280050D02*
X6283950D01*
X6280050Y4977129D02*
X6283950D01*
X6455050Y4945129D02*
X6458950D01*
X6455050Y4886129D02*
X6458950D01*
X6455050Y4834129D02*
X6458950D01*
X6455050Y4775129D02*
X6458950D01*
X5060050Y4561129D02*
X5063950D01*
X5060050Y4620129D02*
X5063950D01*
X4950050Y4561129D02*
X4953950D01*
X4950050Y4620129D02*
X4953950D01*
X5005050Y4561129D02*
X5008950D01*
X5005050Y4620129D02*
X5008950D01*
X5790050Y4870129D02*
X5793950D01*
X5790050Y4811129D02*
X5793950D01*
G54D12*
X5785950Y5051129D02*
X5900050D01*
X5785950Y5101129D02*
X5900050D01*
X5785950Y5151129D02*
X5900050D01*
X6051450Y5001129D02*
X6106550D01*
X6051450Y5051129D02*
X6106550D01*
X6051450Y5101129D02*
X6106550D01*
X6051450Y5151129D02*
X6106550D01*
G54D11*
X5785950Y5001129D02*
X5900050D01*
G54D13*
X5705300Y4489129D02*
X5748700D01*
X5589300D02*
X5632700D01*
X5589300Y4567129D02*
X5632700D01*
X5705300Y4508129D02*
X5748700D01*
X5589300D02*
X5632700D01*
X5705300Y4528129D02*
X5748700D01*
X5589300D02*
X5632700D01*
X5705300Y4548129D02*
X5748700D01*
X5589300D02*
X5632700D01*
G54D14*
X5705300Y4567129D02*
X5748700D01*
X4863150Y4606129D02*
X4882850D01*
G54D13*
X4741150Y4586129D02*
X4760850D01*
X4863150D02*
X4882850D01*
X4741150Y4567129D02*
X4760850D01*
X4863150D02*
X4882850D01*
X4741150Y4547129D02*
X4760850D01*
X4863150D02*
X4882850D01*
X4741150Y4606129D02*
X4760850D01*
G54D15*
X6355300Y5045129D02*
X6390700D01*
G54D16*
X6355300Y5051029D02*
X6390700D01*
X6355300Y5039229D02*
X6390700D01*
G54D15*
X6603300Y5045129D02*
X6638700D01*
G54D16*
X6603300Y5051029D02*
X6638700D01*
X6603300Y5039229D02*
X6638700D01*
G54D15*
X6355300Y5008129D02*
X6390700D01*
G54D16*
X6355300Y5014029D02*
X6390700D01*
X6355300Y5002229D02*
X6390700D01*
G54D15*
X6603300Y5008129D02*
X6638700D01*
G54D16*
X6603300Y5014029D02*
X6638700D01*
X6603300Y5002229D02*
X6638700D01*
G54D17*
X5512000Y4425529D02*
Y4478729D01*
X5462000Y4425529D02*
Y4478729D01*
X5412000Y4425529D02*
Y4478729D01*
X5362000Y4425529D02*
Y4478729D01*
X5512000Y4694529D02*
Y4747729D01*
X5462000Y4694529D02*
Y4747729D01*
X5412000Y4694529D02*
Y4747729D01*
G54D18*
X5362000Y4694529D02*
Y4747729D01*
G54D10*
X6542000Y4439279D02*
Y4452979D01*
X6467000Y4439279D02*
Y4452979D01*
X6504000Y4530279D02*
Y4543979D01*
G54D19*
X6297000Y4841129D02*
Y4895129D01*
X6277000Y4841129D02*
Y4895129D01*
X6257000Y4841129D02*
Y4895129D01*
X6238000Y4841129D02*
Y4895129D01*
X6218000Y4841129D02*
Y4895129D01*
X6198000Y4841129D02*
Y4895129D01*
X6179000Y4841129D02*
Y4895129D01*
X6159000Y4841129D02*
Y4895129D01*
X6139000Y4841129D02*
Y4895129D01*
X6120000Y4841129D02*
Y4895129D01*
X6100000Y4841129D02*
Y4895129D01*
X6080000Y4841129D02*
Y4895129D01*
X6061000Y4841129D02*
Y4895129D01*
X6041000Y4841129D02*
Y4895129D01*
X6021000Y4841129D02*
Y4895129D01*
X6002000Y4841129D02*
Y4895129D01*
Y4406129D02*
Y4460129D01*
X6021000Y4406129D02*
Y4460129D01*
X6041000Y4406129D02*
Y4460129D01*
X6061000Y4406129D02*
Y4460129D01*
X6080000Y4406129D02*
Y4460129D01*
X6100000Y4406129D02*
Y4460129D01*
X6120000Y4406129D02*
Y4460129D01*
X6139000Y4406129D02*
Y4460129D01*
X6159000Y4406129D02*
Y4460129D01*
X6179000Y4406129D02*
Y4460129D01*
X6198000Y4406129D02*
Y4460129D01*
X6218000Y4406129D02*
Y4460129D01*
X6238000Y4406129D02*
Y4460129D01*
X6257000Y4406129D02*
Y4460129D01*
X6277000Y4406129D02*
Y4460129D01*
X6297000Y4406129D02*
Y4460129D01*
X5905000Y4799129D02*
X5959000D01*
X5905000Y4779129D02*
X5959000D01*
X5905000Y4759129D02*
X5959000D01*
X5905000Y4739129D02*
X5959000D01*
X5905000Y4720129D02*
X5959000D01*
X5905000Y4700129D02*
X5959000D01*
X5905000Y4680129D02*
X5959000D01*
X5905000Y4661129D02*
X5959000D01*
X5905000Y4641129D02*
X5959000D01*
X5905000Y4621129D02*
X5959000D01*
X5905000Y4602129D02*
X5959000D01*
X5905000Y4582129D02*
X5959000D01*
X5905000Y4562129D02*
X5959000D01*
X5905000Y4543129D02*
X5959000D01*
X5905000Y4523129D02*
X5959000D01*
X5905000Y4503129D02*
X5959000D01*
X6340000D02*
X6394000D01*
X6340000Y4523129D02*
X6394000D01*
X6340000Y4543129D02*
X6394000D01*
X6340000Y4562129D02*
X6394000D01*
X6340000Y4582129D02*
X6394000D01*
X6340000Y4602129D02*
X6394000D01*
X6340000Y4621129D02*
X6394000D01*
X6340000Y4641129D02*
X6394000D01*
X6340000Y4661129D02*
X6394000D01*
X6340000Y4680129D02*
X6394000D01*
X6340000Y4700129D02*
X6394000D01*
X6340000Y4720129D02*
X6394000D01*
X6340000Y4739129D02*
X6394000D01*
X6340000Y4759129D02*
X6394000D01*
X6340000Y4779129D02*
X6394000D01*
G54D20*
X6340000Y4799129D02*
X6394000D01*
G54D21*
X6669300Y4596129D02*
X6704700D01*
X6489300D02*
X6524700D01*
X6489300Y4711129D02*
X6524700D01*
X6669300D02*
X6704700D01*
G54D11*
X6541000Y4379179D02*
Y4383079D01*
X6482000Y4379179D02*
Y4383079D01*
X6401000Y4379179D02*
Y4383079D01*
X6342000Y4379179D02*
Y4383079D01*
X4767000Y4673179D02*
Y4677079D01*
X4826000Y4673179D02*
Y4677079D01*
X5857000Y4403179D02*
Y4407079D01*
X5916000Y4403179D02*
Y4407079D01*
G54D22*
X-98425Y4921296D03*
X6948925D03*
X-98425Y393701D03*
X6948925Y590551D03*
G54D23*
X78700Y1062999D02*
X70549Y1062662D01*
X62300Y1061299D01*
X54046Y1059103D01*
X46600Y1056199D01*
X38929Y1052294D01*
X32381Y1048000D01*
X25496Y1042343D01*
X20200Y1036999D01*
X14848Y1030334D01*
X11531Y1025247D01*
X7005Y1016677D01*
X5047Y1012162D01*
X2347Y1003573D01*
X1677Y1000739D01*
X335Y992238D01*
X0Y987099D01*
Y78699D01*
X463Y69969D01*
X1905Y61347D01*
X4309Y52942D01*
X7036Y46158D01*
X11162Y38307D01*
X16133Y30963D01*
X21889Y24215D01*
X22000Y24099D01*
X28428Y18125D01*
X34600Y13499D01*
X42493Y8884D01*
X50838Y5146D01*
X59604Y2366D01*
X67793Y793D01*
X70400Y499D01*
X78700Y-1D01*
X2204700D01*
X2215600Y799D01*
X2224178Y2494D01*
X2232510Y5143D01*
X2237582Y7286D01*
X2245657Y11629D01*
X2249046Y13806D01*
X2255980Y19088D01*
X2259300Y22099D01*
X2265271Y28524D01*
X2266700Y30299D01*
X2271775Y37698D01*
X2276007Y45609D01*
X2279345Y53936D01*
X2281000Y59699D01*
X2282624Y68148D01*
X2282900Y70499D01*
X2283500Y78699D01*
Y984299D01*
X2282700Y995299D01*
X2281006Y1003876D01*
X2278356Y1012209D01*
X2276213Y1017281D01*
X2271929Y1025232D01*
X2268077Y1030977D01*
X2262498Y1037755D01*
X2257400Y1042799D01*
X2253200Y1046399D01*
X2245802Y1051474D01*
X2237891Y1055705D01*
X2229563Y1059044D01*
X2221135Y1061300D01*
X2212851Y1062650D01*
X2207500Y1062999D01*
X78700D01*
X2362200D02*
X2354049Y1062662D01*
X2345800Y1061299D01*
X2337546Y1059103D01*
X2330100Y1056199D01*
X2322429Y1052294D01*
X2315881Y1048000D01*
X2308996Y1042343D01*
X2303700Y1036999D01*
X2298348Y1030334D01*
X2295031Y1025247D01*
X2290505Y1016677D01*
X2288547Y1012162D01*
X2285847Y1003573D01*
X2285177Y1000739D01*
X2283835Y992238D01*
X2283500Y987099D01*
Y78699D01*
X2283963Y69969D01*
X2285405Y61347D01*
X2287809Y52942D01*
X2290537Y46158D01*
X2294663Y38306D01*
X2299635Y30961D01*
X2305392Y24213D01*
X2305500Y24099D01*
X2311928Y18125D01*
X2318100Y13499D01*
X2325994Y8884D01*
X2334338Y5146D01*
X2343104Y2366D01*
X2351293Y793D01*
X2353900Y499D01*
X2362200Y-1D01*
X4488200D01*
X4499100Y799D01*
X4507678Y2494D01*
X4516010Y5143D01*
X4521082Y7286D01*
X4529157Y11629D01*
X4532546Y13806D01*
X4539480Y19088D01*
X4542800Y22099D01*
X4548771Y28524D01*
X4550200Y30299D01*
X4555275Y37698D01*
X4559507Y45609D01*
X4562845Y53936D01*
X4564500Y59699D01*
X4566124Y68148D01*
X4566400Y70499D01*
X4567000Y78699D01*
Y984299D01*
X4566200Y995299D01*
X4564506Y1003876D01*
X4561856Y1012209D01*
X4559713Y1017281D01*
X4555429Y1025232D01*
X4551577Y1030977D01*
X4545998Y1037755D01*
X4540900Y1042799D01*
X4536700Y1046399D01*
X4529302Y1051474D01*
X4521391Y1055705D01*
X4513063Y1059044D01*
X4504635Y1061300D01*
X4496351Y1062650D01*
X4491000Y1062999D01*
X2362200D01*
X4645700D02*
X4637549Y1062662D01*
X4629300Y1061299D01*
X4621046Y1059103D01*
X4613600Y1056199D01*
X4605929Y1052294D01*
X4599381Y1048000D01*
X4592496Y1042343D01*
X4587200Y1036999D01*
X4581848Y1030334D01*
X4578531Y1025247D01*
X4574005Y1016677D01*
X4572047Y1012162D01*
X4569347Y1003573D01*
X4568677Y1000739D01*
X4567335Y992238D01*
X4567000Y987099D01*
Y78699D01*
X4567463Y69969D01*
X4568905Y61347D01*
X4571309Y52942D01*
X4574037Y46158D01*
X4578163Y38306D01*
X4583135Y30961D01*
X4588892Y24213D01*
X4589000Y24099D01*
X4595428Y18125D01*
X4601600Y13499D01*
X4609494Y8884D01*
X4617838Y5146D01*
X4626604Y2366D01*
X4634793Y793D01*
X4637400Y499D01*
X4645700Y-1D01*
X6771700D01*
X6782600Y799D01*
X6791178Y2494D01*
X6799510Y5143D01*
X6804582Y7286D01*
X6812657Y11629D01*
X6816046Y13806D01*
X6822980Y19088D01*
X6826300Y22099D01*
X6832271Y28524D01*
X6833700Y30299D01*
X6838775Y37698D01*
X6843007Y45609D01*
X6846345Y53936D01*
X6848000Y59699D01*
X6849624Y68148D01*
X6849900Y70499D01*
X6850500Y78699D01*
Y984299D01*
X6849700Y995299D01*
X6848006Y1003876D01*
X6845356Y1012209D01*
X6843213Y1017281D01*
X6838929Y1025232D01*
X6835077Y1030977D01*
X6829498Y1037755D01*
X6824400Y1042799D01*
X6820200Y1046399D01*
X6812802Y1051474D01*
X6804891Y1055705D01*
X6796563Y1059044D01*
X6788135Y1061300D01*
X6779851Y1062650D01*
X6774500Y1062999D01*
X4645700D01*
X78700Y2126011D02*
X70549Y2125674D01*
X62300Y2124311D01*
X54046Y2122115D01*
X46600Y2119211D01*
X38929Y2115306D01*
X32381Y2111012D01*
X25496Y2105355D01*
X20200Y2100011D01*
X14848Y2093346D01*
X11531Y2088259D01*
X7005Y2079689D01*
X5047Y2075174D01*
X2347Y2066585D01*
X1677Y2063751D01*
X335Y2055250D01*
X0Y2050111D01*
Y1141711D01*
X463Y1132981D01*
X1905Y1124359D01*
X4309Y1115954D01*
X7036Y1109170D01*
X11162Y1101319D01*
X16134Y1093974D01*
X21891Y1087226D01*
X22000Y1087111D01*
X28428Y1081137D01*
X34600Y1076511D01*
X42493Y1071896D01*
X50838Y1068158D01*
X59604Y1065378D01*
X67792Y1063805D01*
X70400Y1063511D01*
X78700Y1063011D01*
X2204700D01*
X2215600Y1063811D01*
X2224178Y1065506D01*
X2232510Y1068155D01*
X2237582Y1070299D01*
X2245660Y1074644D01*
X2249046Y1076818D01*
X2255979Y1082099D01*
X2259300Y1085111D01*
X2265271Y1091536D01*
X2266700Y1093311D01*
X2271775Y1100710D01*
X2276007Y1108621D01*
X2279345Y1116948D01*
X2281000Y1122711D01*
X2282624Y1131160D01*
X2282900Y1133511D01*
X2283500Y1141711D01*
Y2047311D01*
X2282700Y2058311D01*
X2281006Y2066889D01*
X2278356Y2075221D01*
X2276213Y2080293D01*
X2271929Y2088244D01*
X2268077Y2093989D01*
X2262498Y2100767D01*
X2257400Y2105811D01*
X2253200Y2109411D01*
X2245802Y2114486D01*
X2237891Y2118718D01*
X2229563Y2122056D01*
X2221135Y2124312D01*
X2212851Y2125662D01*
X2207500Y2126011D01*
X78700D01*
X2362200D02*
X2354049Y2125674D01*
X2345800Y2124311D01*
X2337546Y2122115D01*
X2330100Y2119211D01*
X2322429Y2115306D01*
X2315881Y2111012D01*
X2308996Y2105355D01*
X2303700Y2100011D01*
X2298348Y2093346D01*
X2295031Y2088259D01*
X2290505Y2079689D01*
X2288547Y2075174D01*
X2285847Y2066585D01*
X2285177Y2063751D01*
X2283835Y2055250D01*
X2283500Y2050111D01*
Y1141711D01*
X2283963Y1132981D01*
X2285405Y1124359D01*
X2287809Y1115954D01*
X2290537Y1109170D01*
X2294663Y1101318D01*
X2299636Y1093972D01*
X2305393Y1087223D01*
X2305500Y1087111D01*
X2311928Y1081137D01*
X2318100Y1076511D01*
X2325994Y1071896D01*
X2334338Y1068158D01*
X2343104Y1065378D01*
X2351292Y1063805D01*
X2353900Y1063511D01*
X2362200Y1063011D01*
X4488200D01*
X4499100Y1063811D01*
X4507678Y1065506D01*
X4516010Y1068155D01*
X4521082Y1070299D01*
X4529160Y1074644D01*
X4532546Y1076818D01*
X4539479Y1082099D01*
X4542800Y1085111D01*
X4548771Y1091536D01*
X4550200Y1093311D01*
X4555275Y1100710D01*
X4559507Y1108621D01*
X4562845Y1116948D01*
X4564500Y1122711D01*
X4566124Y1131160D01*
X4566400Y1133511D01*
X4567000Y1141711D01*
Y2047311D01*
X4566200Y2058311D01*
X4564506Y2066889D01*
X4561856Y2075221D01*
X4559713Y2080293D01*
X4555429Y2088244D01*
X4551577Y2093989D01*
X4545998Y2100767D01*
X4540900Y2105811D01*
X4536700Y2109411D01*
X4529302Y2114486D01*
X4521391Y2118718D01*
X4513063Y2122056D01*
X4504635Y2124312D01*
X4496351Y2125662D01*
X4491000Y2126011D01*
X2362200D01*
X4645700D02*
X4637549Y2125674D01*
X4629300Y2124311D01*
X4621046Y2122115D01*
X4613600Y2119211D01*
X4605929Y2115306D01*
X4599381Y2111012D01*
X4592496Y2105355D01*
X4587200Y2100011D01*
X4581848Y2093346D01*
X4578531Y2088259D01*
X4574005Y2079689D01*
X4572047Y2075174D01*
X4569347Y2066585D01*
X4568677Y2063751D01*
X4567335Y2055250D01*
X4567000Y2050111D01*
Y1141711D01*
X4567463Y1132981D01*
X4568905Y1124359D01*
X4571309Y1115954D01*
X4574037Y1109170D01*
X4578163Y1101318D01*
X4583136Y1093972D01*
X4588893Y1087223D01*
X4589000Y1087111D01*
X4595428Y1081137D01*
X4601600Y1076511D01*
X4609494Y1071896D01*
X4617838Y1068158D01*
X4626604Y1065378D01*
X4634792Y1063805D01*
X4637400Y1063511D01*
X4645700Y1063011D01*
X6771700D01*
X6782600Y1063811D01*
X6791178Y1065506D01*
X6799510Y1068155D01*
X6804582Y1070299D01*
X6812660Y1074644D01*
X6816046Y1076818D01*
X6822979Y1082099D01*
X6826300Y1085111D01*
X6832271Y1091536D01*
X6833700Y1093311D01*
X6838775Y1100710D01*
X6843007Y1108621D01*
X6846345Y1116948D01*
X6848000Y1122711D01*
X6849624Y1131160D01*
X6849900Y1133511D01*
X6850500Y1141711D01*
Y2047311D01*
X6849700Y2058311D01*
X6848006Y2066889D01*
X6845356Y2075221D01*
X6843213Y2080293D01*
X6838929Y2088244D01*
X6835077Y2093989D01*
X6829498Y2100767D01*
X6824400Y2105811D01*
X6820200Y2109411D01*
X6812802Y2114486D01*
X6804891Y2118718D01*
X6796563Y2122056D01*
X6788135Y2124312D01*
X6779851Y2125662D01*
X6774500Y2126011D01*
X4645700D01*
X78700Y3189024D02*
X70549Y3188687D01*
X62300Y3187324D01*
X54046Y3185127D01*
X46600Y3182224D01*
X38930Y3178320D01*
X32381Y3174026D01*
X25495Y3168368D01*
X20200Y3163024D01*
X14849Y3156360D01*
X11532Y3151271D01*
X7004Y3142698D01*
X5047Y3138186D01*
X2347Y3129600D01*
X1677Y3126764D01*
X335Y3118262D01*
X0Y3113124D01*
Y2204724D01*
X463Y2195994D01*
X1905Y2187372D01*
X4309Y2178967D01*
X7036Y2172182D01*
X11161Y2164332D01*
X16133Y2156988D01*
X21888Y2150241D01*
X22000Y2150124D01*
X28428Y2144150D01*
X34600Y2139524D01*
X42493Y2134908D01*
X50838Y2131170D01*
X59604Y2128391D01*
X67791Y2126818D01*
X70400Y2126524D01*
X78700Y2126024D01*
X2204700D01*
X2215600Y2126824D01*
X2224178Y2128518D01*
X2232510Y2131168D01*
X2237582Y2133311D01*
X2245657Y2137654D01*
X2249046Y2139831D01*
X2255980Y2145113D01*
X2259300Y2148124D01*
X2265271Y2154549D01*
X2266700Y2156324D01*
X2271775Y2163722D01*
X2276007Y2171633D01*
X2279345Y2179961D01*
X2281000Y2185724D01*
X2282624Y2194173D01*
X2282900Y2196524D01*
X2283500Y2204724D01*
Y3110324D01*
X2282700Y3121324D01*
X2281006Y3129901D01*
X2278356Y3138233D01*
X2276213Y3143305D01*
X2271929Y3151256D01*
X2268077Y3157002D01*
X2262498Y3163780D01*
X2257400Y3168824D01*
X2253200Y3172424D01*
X2245802Y3177498D01*
X2237891Y3181730D01*
X2229563Y3185068D01*
X2221135Y3187327D01*
X2212834Y3188676D01*
X2207500Y3189024D01*
X78700D01*
X2362200D02*
X2354049Y3188687D01*
X2345800Y3187324D01*
X2337546Y3185127D01*
X2330100Y3182224D01*
X2322430Y3178320D01*
X2315881Y3174026D01*
X2308995Y3168368D01*
X2303700Y3163024D01*
X2298349Y3156360D01*
X2295032Y3151271D01*
X2290504Y3142698D01*
X2288547Y3138186D01*
X2285847Y3129600D01*
X2285177Y3126764D01*
X2283835Y3118262D01*
X2283500Y3113124D01*
Y2204724D01*
X2283963Y2195994D01*
X2285405Y2187372D01*
X2287809Y2178967D01*
X2290537Y2172182D01*
X2294663Y2164331D01*
X2299635Y2156986D01*
X2305391Y2150239D01*
X2305500Y2150124D01*
X2311928Y2144150D01*
X2318100Y2139524D01*
X2325994Y2134908D01*
X2334338Y2131170D01*
X2343104Y2128391D01*
X2351291Y2126818D01*
X2353900Y2126524D01*
X2362200Y2126024D01*
X4488200D01*
X4499100Y2126824D01*
X4507678Y2128518D01*
X4516010Y2131168D01*
X4521082Y2133311D01*
X4529157Y2137654D01*
X4532546Y2139831D01*
X4539480Y2145113D01*
X4542800Y2148124D01*
X4548771Y2154549D01*
X4550200Y2156324D01*
X4555275Y2163722D01*
X4559507Y2171633D01*
X4562845Y2179961D01*
X4564500Y2185724D01*
X4566124Y2194173D01*
X4566400Y2196524D01*
X4567000Y2204724D01*
Y3110324D01*
X4566200Y3121324D01*
X4564506Y3129901D01*
X4561856Y3138233D01*
X4559713Y3143305D01*
X4555429Y3151256D01*
X4551577Y3157002D01*
X4545998Y3163780D01*
X4540900Y3168824D01*
X4536700Y3172424D01*
X4529302Y3177498D01*
X4521391Y3181730D01*
X4513063Y3185068D01*
X4504635Y3187327D01*
X4496334Y3188676D01*
X4491000Y3189024D01*
X2362200D01*
X4645700D02*
X4637549Y3188687D01*
X4629300Y3187324D01*
X4621046Y3185127D01*
X4613600Y3182224D01*
X4605930Y3178320D01*
X4599381Y3174026D01*
X4592495Y3168368D01*
X4587200Y3163024D01*
X4581849Y3156360D01*
X4578532Y3151271D01*
X4574004Y3142698D01*
X4572047Y3138186D01*
X4569347Y3129600D01*
X4568677Y3126764D01*
X4567335Y3118262D01*
X4567000Y3113124D01*
Y2204724D01*
X4567463Y2195994D01*
X4568905Y2187372D01*
X4571309Y2178967D01*
X4574037Y2172182D01*
X4578163Y2164331D01*
X4583135Y2156986D01*
X4588891Y2150239D01*
X4589000Y2150124D01*
X4595428Y2144150D01*
X4601600Y2139524D01*
X4609494Y2134908D01*
X4617838Y2131170D01*
X4626604Y2128391D01*
X4634791Y2126818D01*
X4637400Y2126524D01*
X4645700Y2126024D01*
X6771700D01*
X6782600Y2126824D01*
X6791178Y2128518D01*
X6799510Y2131168D01*
X6804582Y2133311D01*
X6812657Y2137654D01*
X6816046Y2139831D01*
X6822980Y2145113D01*
X6826300Y2148124D01*
X6832271Y2154549D01*
X6833700Y2156324D01*
X6838775Y2163722D01*
X6843007Y2171633D01*
X6846345Y2179961D01*
X6848000Y2185724D01*
X6849624Y2194173D01*
X6849900Y2196524D01*
X6850500Y2204724D01*
Y3110324D01*
X6849700Y3121324D01*
X6848006Y3129901D01*
X6845356Y3138233D01*
X6843213Y3143305D01*
X6838929Y3151256D01*
X6835077Y3157002D01*
X6829498Y3163780D01*
X6824400Y3168824D01*
X6820200Y3172424D01*
X6812802Y3177498D01*
X6804891Y3181730D01*
X6796563Y3185068D01*
X6788135Y3187327D01*
X6779834Y3188676D01*
X6774500Y3189024D01*
X4645700D01*
X78700Y4252036D02*
X70549Y4251699D01*
X62300Y4250336D01*
X54046Y4248140D01*
X46600Y4245236D01*
X38929Y4241331D01*
X32381Y4237037D01*
X25496Y4231380D01*
X20200Y4226036D01*
X14848Y4219371D01*
X11531Y4214284D01*
X7005Y4205714D01*
X5047Y4201199D01*
X2347Y4192610D01*
X1677Y4189776D01*
X335Y4181275D01*
X0Y4176136D01*
Y3267736D01*
X463Y3259006D01*
X1905Y3250384D01*
X4309Y3241979D01*
X7036Y3235195D01*
X11162Y3227344D01*
X16133Y3220000D01*
X21889Y3213252D01*
X22000Y3213136D01*
X28428Y3207162D01*
X34600Y3202536D01*
X42493Y3197921D01*
X50838Y3194182D01*
X59604Y3191403D01*
X67791Y3189830D01*
X70400Y3189536D01*
X78700Y3189036D01*
X2204700D01*
X2215600Y3189836D01*
X2224178Y3191530D01*
X2232510Y3194180D01*
X2237582Y3196323D01*
X2245657Y3200666D01*
X2249046Y3202843D01*
X2255980Y3208125D01*
X2259300Y3211136D01*
X2265271Y3217561D01*
X2266700Y3219336D01*
X2271775Y3226735D01*
X2276007Y3234645D01*
X2279345Y3242973D01*
X2281000Y3248736D01*
X2282624Y3257185D01*
X2282900Y3259536D01*
X2283500Y3267736D01*
Y4173336D01*
X2282700Y4184336D01*
X2281006Y4192913D01*
X2278356Y4201245D01*
X2276213Y4206318D01*
X2271930Y4214268D01*
X2268077Y4220014D01*
X2262498Y4226793D01*
X2257400Y4231836D01*
X2253200Y4235436D01*
X2245802Y4240510D01*
X2237891Y4244742D01*
X2229563Y4248081D01*
X2221135Y4250337D01*
X2212851Y4251687D01*
X2207500Y4252036D01*
X78700D01*
X2362200D02*
X2354049Y4251699D01*
X2345800Y4250336D01*
X2337546Y4248140D01*
X2330100Y4245236D01*
X2322429Y4241331D01*
X2315881Y4237037D01*
X2308996Y4231380D01*
X2303700Y4226036D01*
X2298348Y4219371D01*
X2295031Y4214284D01*
X2290505Y4205714D01*
X2288547Y4201199D01*
X2285847Y4192610D01*
X2285177Y4189776D01*
X2283835Y4181275D01*
X2283500Y4176136D01*
Y3267736D01*
X2283963Y3259006D01*
X2285405Y3250384D01*
X2287809Y3241979D01*
X2290537Y3235195D01*
X2294663Y3227344D01*
X2299635Y3219998D01*
X2305392Y3213250D01*
X2305500Y3213136D01*
X2311928Y3207162D01*
X2318100Y3202536D01*
X2325994Y3197921D01*
X2334338Y3194182D01*
X2343104Y3191403D01*
X2351291Y3189830D01*
X2353900Y3189536D01*
X2362200Y3189036D01*
X4488200D01*
X4499100Y3189836D01*
X4507678Y3191530D01*
X4516010Y3194180D01*
X4521082Y3196323D01*
X4529157Y3200666D01*
X4532546Y3202843D01*
X4539480Y3208125D01*
X4542800Y3211136D01*
X4548771Y3217561D01*
X4550200Y3219336D01*
X4555275Y3226735D01*
X4559507Y3234645D01*
X4562845Y3242973D01*
X4564500Y3248736D01*
X4566124Y3257185D01*
X4566400Y3259536D01*
X4567000Y3267736D01*
Y4173336D01*
X4566200Y4184336D01*
X4564506Y4192913D01*
X4561856Y4201245D01*
X4559713Y4206318D01*
X4555430Y4214268D01*
X4551577Y4220014D01*
X4545998Y4226793D01*
X4540900Y4231836D01*
X4536700Y4235436D01*
X4529302Y4240510D01*
X4521391Y4244742D01*
X4513063Y4248081D01*
X4504635Y4250337D01*
X4496351Y4251687D01*
X4491000Y4252036D01*
X2362200D01*
X4645700D02*
X4637549Y4251699D01*
X4629300Y4250336D01*
X4621046Y4248140D01*
X4613600Y4245236D01*
X4605929Y4241331D01*
X4599381Y4237037D01*
X4592496Y4231380D01*
X4587200Y4226036D01*
X4581848Y4219371D01*
X4578531Y4214284D01*
X4574005Y4205714D01*
X4572047Y4201199D01*
X4569347Y4192610D01*
X4568677Y4189776D01*
X4567335Y4181275D01*
X4567000Y4176136D01*
Y3267736D01*
X4567463Y3259006D01*
X4568905Y3250384D01*
X4571309Y3241979D01*
X4574037Y3235195D01*
X4578163Y3227344D01*
X4583135Y3219998D01*
X4588892Y3213250D01*
X4589000Y3213136D01*
X4595428Y3207162D01*
X4601600Y3202536D01*
X4609494Y3197921D01*
X4617838Y3194182D01*
X4626604Y3191403D01*
X4634791Y3189830D01*
X4637400Y3189536D01*
X4645700Y3189036D01*
X6771700D01*
X6782600Y3189836D01*
X6791178Y3191530D01*
X6799510Y3194180D01*
X6804582Y3196323D01*
X6812657Y3200666D01*
X6816046Y3202843D01*
X6822980Y3208125D01*
X6826300Y3211136D01*
X6832271Y3217561D01*
X6833700Y3219336D01*
X6838775Y3226735D01*
X6843007Y3234645D01*
X6846345Y3242973D01*
X6848000Y3248736D01*
X6849624Y3257185D01*
X6849900Y3259536D01*
X6850500Y3267736D01*
Y4173336D01*
X6849700Y4184336D01*
X6848006Y4192913D01*
X6845356Y4201245D01*
X6843213Y4206318D01*
X6838930Y4214268D01*
X6835077Y4220014D01*
X6829498Y4226793D01*
X6824400Y4231836D01*
X6820200Y4235436D01*
X6812802Y4240510D01*
X6804891Y4244742D01*
X6796563Y4248081D01*
X6788135Y4250337D01*
X6779851Y4251687D01*
X6774500Y4252036D01*
X4645700D01*
X78700Y5315048D02*
X70549Y5314711D01*
X62300Y5313348D01*
X54046Y5311152D01*
X46600Y5308248D01*
X38929Y5304343D01*
X32381Y5300049D01*
X25496Y5294392D01*
X20200Y5289048D01*
X14848Y5282383D01*
X11531Y5277296D01*
X7005Y5268726D01*
X5047Y5264211D01*
X2347Y5255622D01*
X1677Y5252788D01*
X335Y5244287D01*
X0Y5239148D01*
Y4330748D01*
X463Y4322018D01*
X1905Y4313396D01*
X4309Y4304991D01*
X7036Y4298207D01*
X11162Y4290356D01*
X16134Y4283011D01*
X21891Y4276263D01*
X22000Y4276148D01*
X28428Y4270174D01*
X34600Y4265548D01*
X42493Y4260933D01*
X50838Y4257195D01*
X59604Y4254415D01*
X67792Y4252842D01*
X70400Y4252548D01*
X78700Y4252048D01*
X2204700D01*
X2215600Y4252848D01*
X2224178Y4254543D01*
X2232510Y4257192D01*
X2237582Y4259336D01*
X2245660Y4263681D01*
X2249046Y4265855D01*
X2255979Y4271136D01*
X2259300Y4274148D01*
X2265271Y4280573D01*
X2266700Y4282348D01*
X2271775Y4289747D01*
X2276007Y4297658D01*
X2279345Y4305985D01*
X2281000Y4311748D01*
X2282624Y4320197D01*
X2282900Y4322548D01*
X2283500Y4330748D01*
Y5236348D01*
X2282700Y5247348D01*
X2281006Y5255926D01*
X2278356Y5264258D01*
X2276213Y5269330D01*
X2271929Y5277281D01*
X2268077Y5283026D01*
X2262498Y5289804D01*
X2257400Y5294848D01*
X2253200Y5298448D01*
X2245802Y5303523D01*
X2237891Y5307755D01*
X2229563Y5311093D01*
X2221135Y5313349D01*
X2212851Y5314699D01*
X2207500Y5315048D01*
X78700D01*
X2362200D02*
X2354049Y5314711D01*
X2345800Y5313348D01*
X2337546Y5311152D01*
X2330100Y5308248D01*
X2322429Y5304343D01*
X2315881Y5300049D01*
X2308996Y5294392D01*
X2303700Y5289048D01*
X2298348Y5282383D01*
X2295031Y5277296D01*
X2290505Y5268726D01*
X2288547Y5264211D01*
X2285847Y5255622D01*
X2285177Y5252788D01*
X2283835Y5244287D01*
X2283500Y5239148D01*
Y4330748D01*
X2283963Y4322018D01*
X2285405Y4313396D01*
X2287809Y4304991D01*
X2290537Y4298207D01*
X2294663Y4290355D01*
X2299636Y4283009D01*
X2305393Y4276260D01*
X2305500Y4276148D01*
X2311928Y4270174D01*
X2318100Y4265548D01*
X2325994Y4260933D01*
X2334338Y4257195D01*
X2343104Y4254415D01*
X2351292Y4252842D01*
X2353900Y4252548D01*
X2362200Y4252048D01*
X4488200D01*
X4499100Y4252848D01*
X4507678Y4254543D01*
X4516010Y4257192D01*
X4521082Y4259336D01*
X4529160Y4263681D01*
X4532546Y4265855D01*
X4539479Y4271136D01*
X4542800Y4274148D01*
X4548771Y4280573D01*
X4550200Y4282348D01*
X4555275Y4289747D01*
X4559507Y4297658D01*
X4562845Y4305985D01*
X4564500Y4311748D01*
X4566124Y4320197D01*
X4566400Y4322548D01*
X4567000Y4330748D01*
Y5236348D01*
X4566200Y5247348D01*
X4564506Y5255926D01*
X4561856Y5264258D01*
X4559713Y5269330D01*
X4555429Y5277281D01*
X4551577Y5283026D01*
X4545998Y5289804D01*
X4540900Y5294848D01*
X4536700Y5298448D01*
X4529302Y5303523D01*
X4521391Y5307755D01*
X4513063Y5311093D01*
X4504635Y5313349D01*
X4496351Y5314699D01*
X4491000Y5315048D01*
X2362200D01*
X4645700D02*
X4637549Y5314711D01*
X4629300Y5313348D01*
X4621046Y5311152D01*
X4613600Y5308248D01*
X4605929Y5304343D01*
X4599381Y5300049D01*
X4592496Y5294392D01*
X4587200Y5289048D01*
X4581848Y5282383D01*
X4578531Y5277296D01*
X4574005Y5268726D01*
X4572047Y5264211D01*
X4569347Y5255622D01*
X4568677Y5252788D01*
X4567335Y5244287D01*
X4567000Y5239148D01*
Y4330748D01*
X4567463Y4322018D01*
X4568905Y4313396D01*
X4571309Y4304991D01*
X4574037Y4298207D01*
X4578163Y4290355D01*
X4583136Y4283009D01*
X4588893Y4276260D01*
X4589000Y4276148D01*
X4595428Y4270174D01*
X4601600Y4265548D01*
X4609494Y4260933D01*
X4617838Y4257195D01*
X4626604Y4254415D01*
X4634792Y4252842D01*
X4637400Y4252548D01*
X4645700Y4252048D01*
X6771700D01*
X6782600Y4252848D01*
X6791178Y4254543D01*
X6799510Y4257192D01*
X6804582Y4259336D01*
X6812660Y4263681D01*
X6816046Y4265855D01*
X6822979Y4271136D01*
X6826300Y4274148D01*
X6832271Y4280573D01*
X6833700Y4282348D01*
X6838775Y4289747D01*
X6843007Y4297658D01*
X6846345Y4305985D01*
X6848000Y4311748D01*
X6849624Y4320197D01*
X6849900Y4322548D01*
X6850500Y4330748D01*
Y5236348D01*
X6849700Y5247348D01*
X6848006Y5255926D01*
X6845356Y5264258D01*
X6843213Y5269330D01*
X6838929Y5277281D01*
X6835077Y5283026D01*
X6829498Y5289804D01*
X6824400Y5294848D01*
X6820200Y5298448D01*
X6812802Y5303523D01*
X6804891Y5307755D01*
X6796563Y5311093D01*
X6788135Y5313349D01*
X6779851Y5314699D01*
X6774500Y5315048D01*
X4645700D01*
X2362200Y2126011D02*
X2354049Y2125674D01*
X2345800Y2124311D01*
X2337546Y2122115D01*
X2330100Y2119211D01*
X2322699Y2115424D01*
X2320994Y2114387D01*
X2313169Y2108890D01*
X2312585Y2108429D01*
X2306361Y2102848D01*
X2303700Y2100011D01*
X2298348Y2093346D01*
X2295031Y2088259D01*
X2290505Y2079689D01*
X2288547Y2075174D01*
X2285847Y2066585D01*
X2285177Y2063751D01*
X2283835Y2055250D01*
X2283500Y2050111D01*
Y1141711D01*
X2283963Y1132981D01*
X2285405Y1124359D01*
X2287809Y1115954D01*
X2290537Y1109170D01*
X2294663Y1101318D01*
X2299636Y1093972D01*
X2305393Y1087223D01*
X2305500Y1087111D01*
X2311928Y1081137D01*
X2318100Y1076511D01*
X2325994Y1071896D01*
X2334338Y1068158D01*
X2343104Y1065378D01*
X2351292Y1063805D01*
X2353900Y1063511D01*
X2362200Y1063011D01*
X4488200D01*
X4499100Y1063811D01*
X4507678Y1065506D01*
X4516010Y1068155D01*
X4521082Y1070299D01*
X4529160Y1074644D01*
X4532546Y1076818D01*
X4539479Y1082099D01*
X4542800Y1085111D01*
X4548771Y1091536D01*
X4550200Y1093311D01*
X4555275Y1100710D01*
X4559507Y1108621D01*
X4562845Y1116948D01*
X4564500Y1122711D01*
X4566124Y1131160D01*
X4566400Y1133511D01*
X4567000Y1141711D01*
Y2047311D01*
X4566200Y2058311D01*
X4564506Y2066889D01*
X4561856Y2075221D01*
X4559713Y2080293D01*
X4555429Y2088244D01*
X4551577Y2093989D01*
X4545998Y2100767D01*
X4540900Y2105811D01*
X4536700Y2109411D01*
X4529302Y2114486D01*
X4521391Y2118718D01*
X4513063Y2122056D01*
X4504635Y2124312D01*
X4496351Y2125662D01*
X4491000Y2126011D01*
X2362200D01*
Y3189024D02*
X2354049Y3188687D01*
X2345800Y3187324D01*
X2337546Y3185127D01*
X2330100Y3182224D01*
X2322701Y3178439D01*
X2320994Y3177400D01*
X2313169Y3171903D01*
X2312585Y3171442D01*
X2306361Y3165861D01*
X2303700Y3163024D01*
X2298349Y3156360D01*
X2295032Y3151271D01*
X2290504Y3142698D01*
X2288547Y3138186D01*
X2285847Y3129600D01*
X2285177Y3126764D01*
X2283835Y3118262D01*
X2283500Y3113124D01*
Y2204724D01*
X2283963Y2195994D01*
X2285405Y2187372D01*
X2287809Y2178967D01*
X2290537Y2172182D01*
X2294663Y2164331D01*
X2299635Y2156986D01*
X2305391Y2150239D01*
X2305500Y2150124D01*
X2311928Y2144150D01*
X2318100Y2139524D01*
X2325994Y2134908D01*
X2334338Y2131170D01*
X2343104Y2128391D01*
X2351291Y2126818D01*
X2353900Y2126524D01*
X2362200Y2126024D01*
X4488200D01*
X4499100Y2126824D01*
X4507678Y2128518D01*
X4516010Y2131168D01*
X4521082Y2133311D01*
X4529157Y2137654D01*
X4532546Y2139831D01*
X4539480Y2145113D01*
X4542800Y2148124D01*
X4548771Y2154549D01*
X4550200Y2156324D01*
X4555275Y2163722D01*
X4559507Y2171633D01*
X4562845Y2179961D01*
X4564500Y2185724D01*
X4566124Y2194173D01*
X4566400Y2196524D01*
X4567000Y2204724D01*
Y3110324D01*
X4566200Y3121324D01*
X4564506Y3129901D01*
X4561856Y3138233D01*
X4559713Y3143305D01*
X4555429Y3151256D01*
X4551577Y3157002D01*
X4545998Y3163780D01*
X4540900Y3168824D01*
X4536700Y3172424D01*
X4529302Y3177498D01*
X4521391Y3181730D01*
X4513063Y3185068D01*
X4504635Y3187327D01*
X4496334Y3188676D01*
X4491000Y3189024D01*
X2362200D01*
Y4252036D02*
X2354049Y4251699D01*
X2345800Y4250336D01*
X2337546Y4248140D01*
X2330100Y4245236D01*
X2322699Y4241449D01*
X2320994Y4240412D01*
X2313169Y4234915D01*
X2312585Y4234454D01*
X2306361Y4228873D01*
X2303700Y4226036D01*
X2298348Y4219371D01*
X2295031Y4214284D01*
X2290505Y4205714D01*
X2288547Y4201199D01*
X2285847Y4192610D01*
X2285177Y4189776D01*
X2283835Y4181275D01*
X2283500Y4176136D01*
Y3267736D01*
X2283963Y3259006D01*
X2285405Y3250384D01*
X2287809Y3241979D01*
X2290537Y3235195D01*
X2294663Y3227344D01*
X2299635Y3219998D01*
X2305392Y3213250D01*
X2305500Y3213136D01*
X2311928Y3207162D01*
X2318100Y3202536D01*
X2325994Y3197921D01*
X2334338Y3194182D01*
X2343104Y3191403D01*
X2351291Y3189830D01*
X2353900Y3189536D01*
X2362200Y3189036D01*
X4488200D01*
X4499100Y3189836D01*
X4507678Y3191530D01*
X4516010Y3194180D01*
X4521082Y3196323D01*
X4529157Y3200666D01*
X4532546Y3202843D01*
X4539480Y3208125D01*
X4542800Y3211136D01*
X4548771Y3217561D01*
X4550200Y3219336D01*
X4555275Y3226735D01*
X4559507Y3234645D01*
X4562845Y3242973D01*
X4564500Y3248736D01*
X4566124Y3257185D01*
X4566400Y3259536D01*
X4567000Y3267736D01*
Y4173336D01*
X4566200Y4184336D01*
X4564506Y4192913D01*
X4561856Y4201245D01*
X4559713Y4206318D01*
X4555430Y4214268D01*
X4551577Y4220014D01*
X4545998Y4226793D01*
X4540900Y4231836D01*
X4536700Y4235436D01*
X4529302Y4240510D01*
X4521391Y4244742D01*
X4513063Y4248081D01*
X4504635Y4250337D01*
X4496351Y4251687D01*
X4491000Y4252036D01*
X2362200D01*
X0Y78699D02*
X463Y69969D01*
X1905Y61347D01*
X4309Y52942D01*
X7036Y46158D01*
X11139Y38357D01*
X15193Y32257D01*
X20815Y25430D01*
X26000Y20299D01*
X32664Y14949D01*
X37753Y11631D01*
X46327Y7103D01*
X50838Y5146D01*
X58002Y2788D01*
X59600Y2399D01*
X65000Y1199D01*
X70400Y499D01*
X78700Y-1D01*
Y-39371D01*
X-39370D01*
Y78699D01*
X0D01*
X6771700Y-1D02*
X6780297Y497D01*
X6782600Y799D01*
X6791178Y2494D01*
X6799510Y5143D01*
X6804582Y7286D01*
X6812533Y11571D01*
X6818278Y15422D01*
X6825056Y21001D01*
X6830100Y26099D01*
X6833700Y30299D01*
X6838775Y37698D01*
X6843007Y45609D01*
X6846345Y53936D01*
X6848018Y59707D01*
X6849576Y67607D01*
X6849900Y70499D01*
X6850500Y78699D01*
X6889871D01*
Y-39371D01*
X6771700D01*
Y-1D01*
X78700Y5315048D02*
X70549Y5314711D01*
X62300Y5313348D01*
X54046Y5311152D01*
X46600Y5308248D01*
X39199Y5304461D01*
X37494Y5303424D01*
X29670Y5297928D01*
X29085Y5297466D01*
X22861Y5291885D01*
X20200Y5289048D01*
X14470Y5281964D01*
X13400Y5280448D01*
X8785Y5272555D01*
X5047Y5264211D01*
X2688Y5257047D01*
X2300Y5255448D01*
X649Y5246892D01*
X0Y5239148D01*
X-39370D01*
Y5354418D01*
X78700D01*
Y5315048D01*
X6850500Y5236348D02*
X6850014Y5244944D01*
X6849700Y5247348D01*
X6848006Y5255926D01*
X6845356Y5264258D01*
X6841524Y5272695D01*
X6839271Y5276758D01*
X6834253Y5284134D01*
X6832000Y5286948D01*
X6825683Y5293650D01*
X6820200Y5298448D01*
X6812802Y5303523D01*
X6804891Y5307755D01*
X6796563Y5311093D01*
X6790800Y5312748D01*
X6782243Y5314400D01*
X6774500Y5315048D01*
Y5354418D01*
X6889871D01*
Y5236348D01*
X6850500D01*
X6774500Y2126011D02*
X6782700Y2125217D01*
X6790575Y2123768D01*
X6790800Y2123711D01*
X6796100Y2122211D01*
X6804448Y2118923D01*
X6812384Y2114738D01*
X6820200Y2109411D01*
X6824400Y2105811D01*
X6828400Y2102011D01*
X6832000Y2097911D01*
X6837119Y2091235D01*
X6841422Y2084005D01*
X6843213Y2080293D01*
X6846447Y2072170D01*
X6848746Y2063734D01*
X6849700Y2058311D01*
X6850470Y2048726D01*
X6850500Y2047311D01*
Y1141711D01*
X6849900Y1133511D01*
X6848533Y1124910D01*
X6846500Y1117411D01*
X6843212Y1109064D01*
X6839027Y1101128D01*
X6833700Y1093311D01*
X6830100Y1089111D01*
X6823877Y1082952D01*
X6822200Y1081511D01*
X6815524Y1076393D01*
X6808295Y1072090D01*
X6804582Y1070299D01*
X6796459Y1067065D01*
X6788023Y1064765D01*
X6782600Y1063811D01*
X6773004Y1063040D01*
X6771700Y1063011D01*
X4645700D01*
X4637400Y1063511D01*
X4629183Y1064786D01*
X4621175Y1067023D01*
X4620464Y1067273D01*
X4611475Y1071002D01*
X4604716Y1074552D01*
X4597416Y1079559D01*
X4595022Y1081480D01*
X4588675Y1087503D01*
X4585400Y1091211D01*
X4580282Y1097888D01*
X4575979Y1105117D01*
X4574037Y1109170D01*
X4570851Y1117311D01*
X4568603Y1125759D01*
X4567320Y1134406D01*
X4567000Y1141711D01*
Y2050111D01*
X4567813Y2058920D01*
X4569300Y2066411D01*
X4570800Y2071711D01*
X4574173Y2080210D01*
X4578441Y2088296D01*
X4582654Y2094609D01*
X4583600Y2095811D01*
X4589636Y2102655D01*
X4591000Y2104011D01*
X4598391Y2110235D01*
X4603900Y2114111D01*
X4608700Y2116811D01*
X4617051Y2120644D01*
X4621570Y2122285D01*
X4629300Y2124311D01*
X4637347Y2125653D01*
X4645700Y2126011D01*
X6774500D01*
Y3189024D02*
X6782700Y3188230D01*
X6790575Y3186781D01*
X6790800Y3186724D01*
X6796100Y3185224D01*
X6804448Y3181935D01*
X6812384Y3177751D01*
X6820200Y3172424D01*
X6824400Y3168824D01*
X6828400Y3165024D01*
X6832000Y3160924D01*
X6837119Y3154247D01*
X6841422Y3147018D01*
X6843213Y3143305D01*
X6846447Y3135182D01*
X6848746Y3126747D01*
X6849700Y3121324D01*
X6850470Y3111739D01*
X6850500Y3110324D01*
Y2204724D01*
X6849900Y2196524D01*
X6848533Y2187923D01*
X6846500Y2180424D01*
X6843212Y2172076D01*
X6839027Y2164140D01*
X6833700Y2156324D01*
X6830100Y2152124D01*
X6823877Y2145965D01*
X6822200Y2144524D01*
X6815524Y2139405D01*
X6808295Y2135102D01*
X6804582Y2133311D01*
X6796459Y2130077D01*
X6788023Y2127778D01*
X6782600Y2126824D01*
X6773004Y2126053D01*
X6771700Y2126024D01*
X4645700D01*
X4637400Y2126524D01*
X4629183Y2127799D01*
X4621175Y2130036D01*
X4620464Y2130286D01*
X4611477Y2134014D01*
X4604716Y2137565D01*
X4597417Y2142571D01*
X4595022Y2144493D01*
X4588675Y2150516D01*
X4585400Y2154224D01*
X4580282Y2160900D01*
X4575979Y2168129D01*
X4574037Y2172182D01*
X4570851Y2180323D01*
X4568603Y2188771D01*
X4567320Y2197418D01*
X4567000Y2204724D01*
Y3113124D01*
X4567813Y3121933D01*
X4569300Y3129424D01*
X4570800Y3134724D01*
X4574173Y3143222D01*
X4578441Y3151308D01*
X4582653Y3157621D01*
X4583600Y3158824D01*
X4589636Y3165668D01*
X4591000Y3167024D01*
X4598391Y3173247D01*
X4603900Y3177124D01*
X4608700Y3179824D01*
X4617047Y3183655D01*
X4621570Y3185297D01*
X4629300Y3187324D01*
X4637347Y3188666D01*
X4645700Y3189024D01*
X6774500D01*
Y4252036D02*
X6782700Y4251242D01*
X6790575Y4249793D01*
X6790800Y4249736D01*
X6796100Y4248236D01*
X6804448Y4244947D01*
X6812384Y4240763D01*
X6820200Y4235436D01*
X6824400Y4231836D01*
X6828400Y4228036D01*
X6832000Y4223936D01*
X6837119Y4217260D01*
X6841422Y4210030D01*
X6843213Y4206318D01*
X6846447Y4198194D01*
X6848746Y4189759D01*
X6849700Y4184336D01*
X6850470Y4174751D01*
X6850500Y4173336D01*
Y3267736D01*
X6849900Y3259536D01*
X6848533Y3250935D01*
X6846500Y3243436D01*
X6843212Y3235089D01*
X6839027Y3227153D01*
X6833700Y3219336D01*
X6830100Y3215136D01*
X6823877Y3208977D01*
X6822200Y3207536D01*
X6815524Y3202417D01*
X6808295Y3198114D01*
X6804582Y3196323D01*
X6796459Y3193089D01*
X6788023Y3190790D01*
X6782600Y3189836D01*
X6773004Y3189065D01*
X6771700Y3189036D01*
X4645700D01*
X4637400Y3189536D01*
X4629183Y3190811D01*
X4621175Y3193048D01*
X4620464Y3193298D01*
X4611475Y3197027D01*
X4604716Y3200577D01*
X4597416Y3205584D01*
X4595022Y3207505D01*
X4588675Y3213528D01*
X4585400Y3217236D01*
X4580282Y3223912D01*
X4575979Y3231142D01*
X4574037Y3235195D01*
X4570851Y3243336D01*
X4568603Y3251783D01*
X4567320Y3260431D01*
X4567000Y3267736D01*
Y4176136D01*
X4567813Y4184945D01*
X4569300Y4192436D01*
X4570800Y4197736D01*
X4574173Y4206234D01*
X4578441Y4214320D01*
X4582653Y4220633D01*
X4583600Y4221836D01*
X4589636Y4228680D01*
X4591000Y4230036D01*
X4598391Y4236259D01*
X4603900Y4240136D01*
X4608700Y4242836D01*
X4617051Y4246669D01*
X4621570Y4248310D01*
X4629300Y4250336D01*
X4637347Y4251678D01*
X4645700Y4252036D01*
X6774500D01*
X78700Y2126017D02*
X70549Y2125677D01*
X62300Y2124311D01*
X54046Y2122115D01*
X46600Y2119211D01*
X39199Y2115424D01*
X37494Y2114387D01*
X29669Y2108890D01*
X29085Y2108429D01*
X22861Y2102848D01*
X20200Y2100011D01*
X14848Y2093346D01*
X11531Y2088259D01*
X7005Y2079689D01*
X5047Y2075174D01*
X2347Y2066585D01*
X1677Y2063751D01*
X335Y2055250D01*
X0Y2050111D01*
Y1141711D01*
X463Y1132981D01*
X1905Y1124359D01*
X4309Y1115954D01*
X7036Y1109170D01*
X11162Y1101319D01*
X16134Y1093974D01*
X21891Y1087226D01*
X22000Y1087111D01*
X28428Y1081137D01*
X34600Y1076511D01*
X42493Y1071896D01*
X50838Y1068158D01*
X59604Y1065378D01*
X67792Y1063805D01*
X70400Y1063511D01*
X78700Y1063011D01*
X2204700D01*
X2215600Y1063811D01*
X2224178Y1065506D01*
X2232510Y1068155D01*
X2237582Y1070299D01*
X2245660Y1074644D01*
X2249046Y1076818D01*
X2255979Y1082099D01*
X2259300Y1085111D01*
X2265271Y1091536D01*
X2266700Y1093311D01*
X2271775Y1100710D01*
X2276007Y1108621D01*
X2279345Y1116948D01*
X2281000Y1122711D01*
X2282624Y1131160D01*
X2282900Y1133511D01*
X2283500Y1141711D01*
Y2047311D01*
X2282700Y2058311D01*
X2281006Y2066889D01*
X2278356Y2075221D01*
X2276213Y2080293D01*
X2271929Y2088244D01*
X2268077Y2093989D01*
X2262498Y2100767D01*
X2257400Y2105811D01*
X2253200Y2109411D01*
X2245802Y2114486D01*
X2237891Y2118718D01*
X2229563Y2122056D01*
X2221135Y2124312D01*
X2212851Y2125662D01*
X2207500Y2126011D01*
X76124Y2126095D01*
X70400Y2126524D01*
X61764Y2127903D01*
X54300Y2129924D01*
X45802Y2133296D01*
X37716Y2137565D01*
X30417Y2142571D01*
X28022Y2144493D01*
X21675Y2150516D01*
X18400Y2154224D01*
X13281Y2160900D01*
X8979Y2168130D01*
X7036Y2172182D01*
X3851Y2180323D01*
X1603Y2188771D01*
X320Y2197418D01*
X0Y2204724D01*
Y3113124D01*
X813Y3121933D01*
X2300Y3129424D01*
X3800Y3134724D01*
X7173Y3143222D01*
X11441Y3151308D01*
X15653Y3157621D01*
X16600Y3158824D01*
X22636Y3165668D01*
X24000Y3167024D01*
X31391Y3173247D01*
X36900Y3177124D01*
X41700Y3179824D01*
X50048Y3183655D01*
X54569Y3185297D01*
X62300Y3187324D01*
X70347Y3188666D01*
X78700Y3189024D01*
X2207500D01*
X2216309Y3188211D01*
X2223800Y3186724D01*
X2229100Y3185224D01*
X2237447Y3181935D01*
X2245384Y3177751D01*
X2253200Y3172424D01*
X2257400Y3168824D01*
X2261400Y3165024D01*
X2265000Y3160924D01*
X2270119Y3154247D01*
X2274422Y3147018D01*
X2276213Y3143305D01*
X2279447Y3135182D01*
X2281746Y3126747D01*
X2282700Y3121324D01*
X2283470Y3111739D01*
X2283500Y3110324D01*
Y2204724D01*
X2282900Y2196524D01*
X2281533Y2187923D01*
X2279500Y2180424D01*
X2276212Y2172076D01*
X2272027Y2164140D01*
X2266700Y2156324D01*
X2263100Y2152124D01*
X2256877Y2145965D01*
X2255200Y2144524D01*
X2248524Y2139405D01*
X2241294Y2135102D01*
X2237582Y2133311D01*
X2229459Y2130077D01*
X2221023Y2127778D01*
X2215600Y2126824D01*
X2206004Y2126053D01*
X2204700Y2126024D01*
X78700Y2126017D01*
X-196850Y5492214D02*
Y-177166D01*
X-196359Y-181537D01*
X-194909Y-185690D01*
X-192573Y-189417D01*
X-189468Y-192533D01*
X-185749Y-194881D01*
X-181601Y-196345D01*
X-177232Y-196851D01*
X7027733D01*
X7032102Y-196345D01*
X7036250Y-194881D01*
X7039969Y-192533D01*
X7043074Y-189417D01*
X7045410Y-185690D01*
X7046859Y-181537D01*
X7047351Y-177166D01*
Y5492280D01*
X7046844Y5496650D01*
X7045381Y5500798D01*
X7043032Y5504517D01*
X7039917Y5507622D01*
X7036190Y5509957D01*
X7032037Y5511407D01*
X7027666Y5511899D01*
X-177165D01*
X-181536Y5511407D01*
X-185689Y5509957D01*
X-189416Y5507622D01*
X-192532Y5504517D01*
X-194880Y5500798D01*
X-196344Y5496650D01*
X-196850Y5492280D01*
Y5492214D01*
X0Y4162641D02*
X-59055D01*
Y4330748D01*
X0D01*
X463Y4322018D01*
X1905Y4313396D01*
X4309Y4304991D01*
X7036Y4298207D01*
X11162Y4290356D01*
X16134Y4283011D01*
X21891Y4276263D01*
X22000Y4276148D01*
X28428Y4270174D01*
X34600Y4265548D01*
X42493Y4260933D01*
X50838Y4257195D01*
X59604Y4254415D01*
X67792Y4252842D01*
X70400Y4252548D01*
X76124Y4252119D01*
X2207500Y4252036D01*
X2216310Y4251223D01*
X2223800Y4249736D01*
X2229100Y4248236D01*
X2237447Y4244947D01*
X2245384Y4240763D01*
X2253200Y4235436D01*
X2257400Y4231836D01*
X2261400Y4228036D01*
X2265000Y4223936D01*
X2270119Y4217260D01*
X2274422Y4210030D01*
X2276213Y4206318D01*
X2279447Y4198194D01*
X2281746Y4189759D01*
X2282700Y4184336D01*
X2283470Y4174751D01*
X2283500Y4173336D01*
Y3267736D01*
X2282900Y3259536D01*
X2281533Y3250935D01*
X2279500Y3243436D01*
X2276212Y3235089D01*
X2272027Y3227153D01*
X2266700Y3219336D01*
X2263100Y3215136D01*
X2256877Y3208977D01*
X2255200Y3207536D01*
X2248524Y3202417D01*
X2241294Y3198114D01*
X2237582Y3196323D01*
X2229459Y3193089D01*
X2221023Y3190790D01*
X2215600Y3189836D01*
X2206004Y3189065D01*
X2204700Y3189036D01*
X78700D01*
X70400Y3189536D01*
X62183Y3190811D01*
X54175Y3193048D01*
X53464Y3193298D01*
X44475Y3197027D01*
X37716Y3200577D01*
X30416Y3205584D01*
X28022Y3207505D01*
X21675Y3213528D01*
X18400Y3217236D01*
X13281Y3223912D01*
X8979Y3231142D01*
X7036Y3235195D01*
X3851Y3243336D01*
X1603Y3251783D01*
X320Y3260431D01*
X0Y3267736D01*
Y4176136D01*
X813Y4184945D01*
X2300Y4192436D01*
X3800Y4197736D01*
X7173Y4206235D01*
X11441Y4214321D01*
X15654Y4220634D01*
X16600Y4221836D01*
X22636Y4228680D01*
X24000Y4230036D01*
X31391Y4236259D01*
X36900Y4240136D01*
X41700Y4242836D01*
X50052Y4246669D01*
X54569Y4248310D01*
X62300Y4250336D01*
X70347Y4251681D01*
X78700Y4252042D01*
X2204700Y4252048D01*
X2215600Y4252848D01*
X2224178Y4254543D01*
X2232510Y4257192D01*
X2237582Y4259336D01*
X2245535Y4263622D01*
X2251277Y4267472D01*
X2258055Y4273050D01*
X2263100Y4278148D01*
X2266700Y4282348D01*
X2271775Y4289747D01*
X2276007Y4297658D01*
X2279345Y4305985D01*
X2281018Y4311756D01*
X2282576Y4319656D01*
X2282900Y4322548D01*
X2283500Y4330748D01*
X2283963Y4322018D01*
X2285405Y4313396D01*
X2287809Y4304991D01*
X2290537Y4298207D01*
X2294663Y4290355D01*
X2299636Y4283009D01*
X2305393Y4276260D01*
X2305500Y4276148D01*
X2311928Y4270174D01*
X2318100Y4265548D01*
X2325994Y4260933D01*
X2334338Y4257195D01*
X2343104Y4254415D01*
X2351292Y4252842D01*
X2353900Y4252548D01*
X2362200Y4252048D01*
X4488200D01*
X4499100Y4252848D01*
X4507678Y4254543D01*
X4516010Y4257192D01*
X4521082Y4259336D01*
X4529035Y4263622D01*
X4534777Y4267472D01*
X4541555Y4273050D01*
X4546600Y4278148D01*
X4550200Y4282348D01*
X4555275Y4289747D01*
X4559507Y4297658D01*
X4562845Y4305985D01*
X4564518Y4311756D01*
X4566076Y4319656D01*
X4566400Y4322548D01*
X4567000Y4330748D01*
X4567463Y4322018D01*
X4568905Y4313396D01*
X4571309Y4304991D01*
X4574037Y4298207D01*
X4578163Y4290355D01*
X4583136Y4283009D01*
X4588893Y4276260D01*
X4589000Y4276148D01*
X4595428Y4270174D01*
X4601600Y4265548D01*
X4609494Y4260933D01*
X4617838Y4257195D01*
X4626604Y4254415D01*
X4634792Y4252842D01*
X4637400Y4252548D01*
X4645700Y4252048D01*
X6771700D01*
X6782600Y4252848D01*
X6791178Y4254543D01*
X6799510Y4257192D01*
X6804582Y4259336D01*
X6812660Y4263681D01*
X6816046Y4265855D01*
X6822979Y4271136D01*
X6826300Y4274148D01*
X6832271Y4280573D01*
X6833700Y4282348D01*
X6838775Y4289747D01*
X6843007Y4297658D01*
X6846345Y4305985D01*
X6848000Y4311748D01*
X6849624Y4320197D01*
X6849900Y4322548D01*
X6850500Y4330748D01*
Y5236469D01*
X0Y78157D02*
Y987099D01*
X813Y995908D01*
X2300Y1003399D01*
X3800Y1008699D01*
X7173Y1017198D01*
X11441Y1025284D01*
X15654Y1031597D01*
X16600Y1032799D01*
X22636Y1039643D01*
X24000Y1040999D01*
X31391Y1047222D01*
X36900Y1051099D01*
X41700Y1053799D01*
X50052Y1057632D01*
X54569Y1059273D01*
X62300Y1061299D01*
X70347Y1062641D01*
X78700Y1062999D01*
X2207500D01*
X2216309Y1062186D01*
X2223800Y1060699D01*
X2229100Y1059199D01*
X2237447Y1055911D01*
X2245384Y1051726D01*
X2253200Y1046399D01*
X2257400Y1042799D01*
X2261400Y1038999D01*
X2265000Y1034899D01*
X2270119Y1028223D01*
X2274422Y1020993D01*
X2276213Y1017281D01*
X2279447Y1009158D01*
X2281746Y1000722D01*
X2282700Y995299D01*
X2283470Y985714D01*
X2283500Y984299D01*
Y78158D01*
X2284024Y69431D01*
X2285526Y60819D01*
X2287989Y52432D01*
X2290537Y46158D01*
X2294695Y38272D01*
X2299699Y30894D01*
X2305487Y24113D01*
X2305500Y24099D01*
X2311928Y18125D01*
X2318100Y13499D01*
X2325994Y8884D01*
X2334338Y5146D01*
X2343104Y2366D01*
X2351293Y793D01*
X2353900Y499D01*
X2362200Y-1D01*
X4488200D01*
X4499100Y799D01*
X4507678Y2494D01*
X4516010Y5143D01*
X4521082Y7286D01*
X4529033Y11571D01*
X4534778Y15422D01*
X4541556Y21001D01*
X4546600Y26099D01*
X4550200Y30299D01*
X4555275Y37698D01*
X4559507Y45609D01*
X4562845Y53936D01*
X4564518Y59707D01*
X4566076Y67607D01*
X4566400Y70499D01*
X4567000Y78699D01*
X4567463Y69969D01*
X4568905Y61347D01*
X4571309Y52942D01*
X4574037Y46158D01*
X4578163Y38306D01*
X4583135Y30961D01*
X4588892Y24213D01*
X4589000Y24099D01*
X4595428Y18125D01*
X4601600Y13499D01*
X4609494Y8884D01*
X4617838Y5146D01*
X4626604Y2366D01*
X4634793Y793D01*
X4637400Y499D01*
X4645700Y-1D01*
X6771700D01*
X2283500Y78699D02*
X2282900Y70499D01*
X2281533Y61898D01*
X2279500Y54399D01*
X2276212Y46052D01*
X2272027Y38116D01*
X2266700Y30299D01*
X2263100Y26099D01*
X2256877Y19940D01*
X2255200Y18499D01*
X2248524Y13380D01*
X2241294Y9078D01*
X2237582Y7286D01*
X2229459Y4052D01*
X2221023Y1753D01*
X2215600Y799D01*
X2206004Y28D01*
X2204700Y-1D01*
Y-58976D01*
X2362200D01*
Y-1D01*
X4645700D02*
Y-58976D01*
X4488200D01*
Y-1D01*
X0Y973665D02*
X-59055D01*
Y1141711D01*
X0D01*
Y2036657D02*
X-59055D01*
Y2204724D01*
X0D01*
Y3099649D02*
X-59055D01*
Y3267736D01*
X0D01*
X6850500Y2036657D02*
X6909484D01*
Y2204724D01*
X6850500D01*
Y3099649D02*
X6909484D01*
Y3267736D01*
X6850500D01*
Y4162641D02*
X6909484D01*
Y4330748D01*
X6850500D01*
X2283500D02*
Y5236348D01*
X2282700Y5247348D01*
X2281006Y5255926D01*
X2278356Y5264258D01*
X2276213Y5269330D01*
X2271929Y5277281D01*
X2268077Y5283026D01*
X2262498Y5289804D01*
X2257400Y5294848D01*
X2253200Y5298448D01*
X2245802Y5303523D01*
X2237891Y5307755D01*
X2229563Y5311093D01*
X2221135Y5313349D01*
X2212851Y5314699D01*
X2207500Y5315048D01*
X76119D01*
X2204700D02*
Y5374103D01*
X2362200D01*
Y5315048D01*
X4491000D01*
X4499200Y5314254D01*
X4507075Y5312805D01*
X4507300Y5312748D01*
X4512600Y5311248D01*
X4520948Y5307960D01*
X4528884Y5303775D01*
X4536700Y5298448D01*
X4540900Y5294848D01*
X4544900Y5291048D01*
X4548500Y5286948D01*
X4553619Y5280272D01*
X4557922Y5273042D01*
X4559713Y5269330D01*
X4562947Y5261207D01*
X4565246Y5252771D01*
X4566200Y5247348D01*
X4566963Y5238772D01*
X4567000Y5236348D01*
X4488165Y5315048D02*
Y5374103D01*
X4645700D01*
Y5315048D01*
X4637549Y5314711D01*
X4629300Y5313348D01*
X4621046Y5311152D01*
X4613600Y5308248D01*
X4606201Y5304462D01*
X4604494Y5303424D01*
X4596668Y5297926D01*
X4596086Y5297466D01*
X4589860Y5291884D01*
X4587200Y5289048D01*
X4581848Y5282383D01*
X4578531Y5277296D01*
X4574005Y5268726D01*
X4572047Y5264211D01*
X4569347Y5255622D01*
X4568677Y5252788D01*
X4567335Y5244287D01*
X4567000Y5239148D01*
Y4330748D01*
X2283500Y5239148D02*
X2284294Y5247349D01*
X2285744Y5255223D01*
X2285800Y5255448D01*
X2287300Y5260748D01*
X2290673Y5269247D01*
X2294941Y5277333D01*
X2299154Y5283646D01*
X2300100Y5284848D01*
X2306136Y5291692D01*
X2307500Y5293048D01*
X2314891Y5299272D01*
X2320400Y5303148D01*
X2325200Y5305848D01*
X2333552Y5309681D01*
X2338069Y5311322D01*
X2345800Y5313348D01*
X2353847Y5314690D01*
X2362200Y5315048D01*
X6850500Y78699D02*
Y984299D01*
X6849939Y993189D01*
X6848399Y1001963D01*
X6845899Y1010512D01*
X6843600Y1016293D01*
X6839588Y1024130D01*
X6834725Y1031468D01*
X6829071Y1038217D01*
X6824400Y1042799D01*
X6819813Y1046696D01*
X6812384Y1051726D01*
X6804448Y1055911D01*
X6796100Y1059199D01*
X6787782Y1061440D01*
X6779262Y1062715D01*
X6774500Y1062999D01*
X4645700D01*
X4637227Y1062591D01*
X4629290Y1061298D01*
X4620487Y1058856D01*
X4613600Y1056199D01*
X4606000Y1052333D01*
X4599415Y1048001D01*
X4592208Y1042012D01*
X4587200Y1036999D01*
X4581645Y1030109D01*
X4578441Y1025284D01*
X4574173Y1017198D01*
X4570800Y1008699D01*
X4568560Y1000381D01*
X4567284Y991861D01*
X4567000Y987099D01*
Y78158D01*
X6850500Y973665D02*
X6909484D01*
Y1141711D01*
X6850500D01*
X2283500Y987099D02*
X2284294Y995300D01*
X2285744Y1003174D01*
X2285800Y1003399D01*
X2287300Y1008699D01*
X2290673Y1017198D01*
X2294941Y1025284D01*
X2299154Y1031597D01*
X2300100Y1032799D01*
X2306136Y1039643D01*
X2307500Y1040999D01*
X2314891Y1047222D01*
X2320400Y1051099D01*
X2325200Y1053799D01*
X2333552Y1057632D01*
X2338069Y1059273D01*
X2345800Y1061299D01*
X2353847Y1062641D01*
X2362200Y1062999D01*
X4491000D01*
X4499809Y1062186D01*
X4507300Y1060699D01*
X4512600Y1059199D01*
X4520948Y1055911D01*
X4528884Y1051726D01*
X4536700Y1046399D01*
X4540900Y1042799D01*
X4544900Y1038999D01*
X4548500Y1034899D01*
X4553619Y1028223D01*
X4557922Y1020993D01*
X4559713Y1017281D01*
X4562947Y1009158D01*
X4565246Y1000722D01*
X4566200Y995299D01*
X4566963Y986723D01*
X4567000Y984299D01*
X-39370Y-1D02*
X-196850D01*
X2283500Y-58976D02*
Y-196851D01*
X6850500Y-39371D02*
Y-196851D01*
X0Y5354418D02*
Y5511899D01*
X6889871Y5315048D02*
X7047351D01*
X2283500Y5374103D02*
Y5511899D01*
X4567000Y5374103D02*
Y5511899D01*
X-39370Y5315048D02*
X-196850D01*
X0Y-39371D02*
Y-196851D01*
X2204700Y-1D02*
X78700D01*
X-196850Y1062999D02*
X-59055D01*
X-196850Y2126011D02*
X-59055D01*
X-196850Y3189024D02*
X-59055D01*
X-196850Y4252036D02*
X-59055D01*
X0Y5239148D02*
Y4330748D01*
X6850500Y5511899D02*
Y5354418D01*
X4645700Y5315048D02*
X6774500D01*
X6909484Y4252036D02*
X7047351D01*
X6909484Y3189024D02*
X7047351D01*
X6909484Y2126011D02*
X7047351D01*
X6909484Y1062999D02*
X7047351D01*
Y-1D02*
X6889871D01*
X4567000Y-58976D02*
Y-196851D01*
G54D24*
X78700Y1062999D02*
X70549Y1062662D01*
X62300Y1061299D01*
X54046Y1059103D01*
X46600Y1056199D01*
X38929Y1052294D01*
X32381Y1048000D01*
X25496Y1042343D01*
X20200Y1036999D01*
X14848Y1030334D01*
X11531Y1025247D01*
X7005Y1016677D01*
X5047Y1012162D01*
X2347Y1003573D01*
X1677Y1000739D01*
X335Y992238D01*
X0Y987099D01*
Y78699D01*
X463Y69969D01*
X1905Y61347D01*
X4309Y52942D01*
X7036Y46158D01*
X11162Y38307D01*
X16133Y30963D01*
X21889Y24215D01*
X22000Y24099D01*
X28428Y18125D01*
X34600Y13499D01*
X42493Y8884D01*
X50838Y5146D01*
X59604Y2366D01*
X67793Y793D01*
X70400Y499D01*
X78700Y-1D01*
X2204700D01*
X2215600Y799D01*
X2224178Y2494D01*
X2232510Y5143D01*
X2237582Y7286D01*
X2245657Y11629D01*
X2249046Y13806D01*
X2255980Y19088D01*
X2259300Y22099D01*
X2265271Y28524D01*
X2266700Y30299D01*
X2271775Y37698D01*
X2276007Y45609D01*
X2279345Y53936D01*
X2281000Y59699D01*
X2282624Y68148D01*
X2282900Y70499D01*
X2283500Y78699D01*
Y984299D01*
X2282700Y995299D01*
X2281006Y1003876D01*
X2278356Y1012209D01*
X2276213Y1017281D01*
X2271929Y1025233D01*
X2268077Y1030977D01*
X2262498Y1037755D01*
X2257400Y1042799D01*
X2253200Y1046399D01*
X2245802Y1051474D01*
X2237891Y1055705D01*
X2229563Y1059044D01*
X2221135Y1061300D01*
X2212851Y1062650D01*
X2207500Y1062999D01*
X78700D01*
Y2125999D02*
X70549Y2125662D01*
X62300Y2124299D01*
X54046Y2122103D01*
X46600Y2119199D01*
X38929Y2115293D01*
X32381Y2111000D01*
X25496Y2105342D01*
X20200Y2099999D01*
X14848Y2093333D01*
X11531Y2088246D01*
X7005Y2079676D01*
X5047Y2075162D01*
X2347Y2066572D01*
X1677Y2063738D01*
X335Y2055237D01*
X0Y2050099D01*
Y1141699D01*
X463Y1132969D01*
X1905Y1124347D01*
X4309Y1115942D01*
X7036Y1109158D01*
X11162Y1101307D01*
X16133Y1093962D01*
X21889Y1087215D01*
X22000Y1087099D01*
X28428Y1081125D01*
X34600Y1076499D01*
X42493Y1071884D01*
X50838Y1068146D01*
X59604Y1065366D01*
X67793Y1063792D01*
X70400Y1063499D01*
X78700Y1062999D01*
X2204700D01*
X2215600Y1063799D01*
X2224178Y1065494D01*
X2232510Y1068143D01*
X2237582Y1070286D01*
X2245657Y1074629D01*
X2249046Y1076805D01*
X2255980Y1082088D01*
X2259300Y1085099D01*
X2265271Y1091524D01*
X2266700Y1093299D01*
X2271775Y1100698D01*
X2276007Y1108609D01*
X2279345Y1116936D01*
X2281000Y1122699D01*
X2282624Y1131148D01*
X2282900Y1133499D01*
X2283500Y1141699D01*
Y2047299D01*
X2282700Y2058299D01*
X2281006Y2066876D01*
X2278356Y2075209D01*
X2276213Y2080281D01*
X2271929Y2088232D01*
X2268077Y2093976D01*
X2262498Y2100755D01*
X2257400Y2105799D01*
X2253200Y2109399D01*
X2245802Y2114474D01*
X2237891Y2118705D01*
X2229563Y2122044D01*
X2221135Y2124299D01*
X2212851Y2125649D01*
X2207500Y2125999D01*
X78700D01*
Y3188998D02*
X70549Y3188661D01*
X62300Y3187298D01*
X54046Y3185102D01*
X46600Y3182198D01*
X38929Y3178292D01*
X32381Y3173999D01*
X25496Y3168342D01*
X20200Y3162998D01*
X14848Y3156333D01*
X11531Y3151246D01*
X7005Y3142676D01*
X5047Y3138161D01*
X2347Y3129571D01*
X1677Y3126738D01*
X335Y3118236D01*
X0Y3113098D01*
Y2204698D01*
X463Y2195968D01*
X1905Y2187346D01*
X4309Y2178941D01*
X7036Y2172157D01*
X11162Y2164306D01*
X16133Y2156962D01*
X21889Y2150214D01*
X22000Y2150098D01*
X28428Y2144124D01*
X34600Y2139498D01*
X42493Y2134883D01*
X50838Y2131145D01*
X59604Y2128365D01*
X67793Y2126792D01*
X70400Y2126498D01*
X78700Y2125998D01*
X2204700D01*
X2215600Y2126798D01*
X2224178Y2128493D01*
X2232510Y2131142D01*
X2237582Y2133285D01*
X2245657Y2137628D01*
X2249046Y2139804D01*
X2255980Y2145087D01*
X2259300Y2148098D01*
X2265271Y2154523D01*
X2266700Y2156298D01*
X2271775Y2163697D01*
X2276007Y2171608D01*
X2279345Y2179935D01*
X2281000Y2185698D01*
X2282624Y2194147D01*
X2282900Y2196498D01*
X2283500Y2204698D01*
Y3110298D01*
X2282700Y3121298D01*
X2281006Y3129875D01*
X2278356Y3138208D01*
X2276213Y3143280D01*
X2271929Y3151231D01*
X2268077Y3156976D01*
X2262498Y3163754D01*
X2257400Y3168798D01*
X2253200Y3172398D01*
X2245802Y3177473D01*
X2237891Y3181704D01*
X2229563Y3185043D01*
X2221135Y3187298D01*
X2212851Y3188649D01*
X2207500Y3188998D01*
X78700D01*
Y4251998D02*
X70549Y4251661D01*
X62300Y4250298D01*
X54046Y4248102D01*
X46600Y4245198D01*
X38929Y4241292D01*
X32381Y4236999D01*
X25496Y4231341D01*
X20200Y4225998D01*
X14848Y4219332D01*
X11531Y4214245D01*
X7005Y4205675D01*
X5047Y4201161D01*
X2347Y4192571D01*
X1677Y4189737D01*
X335Y4181236D01*
X0Y4176098D01*
Y3267698D01*
X463Y3258968D01*
X1905Y3250346D01*
X4309Y3241941D01*
X7036Y3235157D01*
X11162Y3227306D01*
X16133Y3219961D01*
X21889Y3213214D01*
X22000Y3213098D01*
X28428Y3207124D01*
X34600Y3202498D01*
X42493Y3197883D01*
X50838Y3194145D01*
X59604Y3191364D01*
X67793Y3189791D01*
X70400Y3189498D01*
X78700Y3188998D01*
X2204700D01*
X2215600Y3189798D01*
X2224178Y3191493D01*
X2232510Y3194142D01*
X2237582Y3196285D01*
X2245657Y3200627D01*
X2249046Y3202804D01*
X2255980Y3208086D01*
X2259300Y3211098D01*
X2265271Y3217522D01*
X2266700Y3219298D01*
X2271775Y3226697D01*
X2276007Y3234608D01*
X2279345Y3242935D01*
X2281000Y3248698D01*
X2282624Y3257146D01*
X2282900Y3259498D01*
X2283500Y3267698D01*
Y4173298D01*
X2282700Y4184298D01*
X2281006Y4192875D01*
X2278356Y4201208D01*
X2276213Y4206280D01*
X2271929Y4214231D01*
X2268077Y4219975D01*
X2262498Y4226753D01*
X2257400Y4231798D01*
X2253200Y4235398D01*
X2245802Y4240473D01*
X2237891Y4244704D01*
X2229563Y4248043D01*
X2221135Y4250298D01*
X2212851Y4251648D01*
X2207500Y4251998D01*
X78700D01*
Y5314997D02*
X70549Y5314660D01*
X62300Y5313297D01*
X54046Y5311101D01*
X46600Y5308197D01*
X38929Y5304291D01*
X32381Y5299998D01*
X25496Y5294340D01*
X20200Y5288997D01*
X14848Y5282332D01*
X11531Y5277245D01*
X7005Y5268675D01*
X5047Y5264160D01*
X2347Y5255570D01*
X1677Y5252736D01*
X335Y5244235D01*
X0Y5239097D01*
Y4330697D01*
X463Y4321967D01*
X1905Y4313345D01*
X4309Y4304940D01*
X7036Y4298156D01*
X11162Y4290305D01*
X16133Y4282960D01*
X21889Y4276213D01*
X22000Y4276097D01*
X28428Y4270123D01*
X34600Y4265497D01*
X42493Y4260882D01*
X50838Y4257144D01*
X59604Y4254364D01*
X67793Y4252790D01*
X70400Y4252497D01*
X78700Y4251997D01*
X2204700D01*
X2215600Y4252797D01*
X2224178Y4254492D01*
X2232510Y4257141D01*
X2237582Y4259284D01*
X2245657Y4263627D01*
X2249046Y4265803D01*
X2255980Y4271086D01*
X2259300Y4274097D01*
X2265271Y4280522D01*
X2266700Y4282297D01*
X2271775Y4289696D01*
X2276007Y4297607D01*
X2279345Y4305934D01*
X2281000Y4311697D01*
X2282624Y4320146D01*
X2282900Y4322497D01*
X2283500Y4330697D01*
Y5236297D01*
X2282700Y5247297D01*
X2281006Y5255874D01*
X2278356Y5264207D01*
X2276213Y5269279D01*
X2271929Y5277230D01*
X2268077Y5282975D01*
X2262498Y5289753D01*
X2257400Y5294797D01*
X2253200Y5298397D01*
X2245802Y5303472D01*
X2237891Y5307703D01*
X2229563Y5311042D01*
X2221135Y5313297D01*
X2212851Y5314647D01*
X2207500Y5314997D01*
X78700D01*
X2362200Y1062999D02*
X2354049Y1062662D01*
X2345800Y1061299D01*
X2337546Y1059103D01*
X2330100Y1056199D01*
X2322429Y1052294D01*
X2315881Y1048000D01*
X2308996Y1042343D01*
X2303700Y1036999D01*
X2298348Y1030334D01*
X2295031Y1025247D01*
X2290505Y1016677D01*
X2288547Y1012162D01*
X2285847Y1003573D01*
X2285177Y1000739D01*
X2283835Y992238D01*
X2283500Y987099D01*
Y78699D01*
X2283963Y69969D01*
X2285405Y61347D01*
X2287809Y52942D01*
X2290536Y46158D01*
X2294662Y38307D01*
X2299633Y30963D01*
X2305389Y24215D01*
X2305500Y24099D01*
X2311928Y18125D01*
X2318100Y13499D01*
X2325993Y8884D01*
X2334338Y5146D01*
X2343104Y2366D01*
X2351293Y793D01*
X2353900Y499D01*
X2362200Y-1D01*
X4488200D01*
X4499100Y799D01*
X4507678Y2494D01*
X4516010Y5143D01*
X4521082Y7286D01*
X4529157Y11629D01*
X4532546Y13806D01*
X4539480Y19088D01*
X4542800Y22099D01*
X4548771Y28524D01*
X4550200Y30299D01*
X4555275Y37698D01*
X4559507Y45609D01*
X4562845Y53936D01*
X4564500Y59699D01*
X4566124Y68148D01*
X4566400Y70499D01*
X4567000Y78699D01*
Y984299D01*
X4566200Y995299D01*
X4564506Y1003876D01*
X4561856Y1012209D01*
X4559713Y1017281D01*
X4555429Y1025233D01*
X4551577Y1030977D01*
X4545998Y1037755D01*
X4540900Y1042799D01*
X4536700Y1046399D01*
X4529302Y1051474D01*
X4521391Y1055705D01*
X4513063Y1059044D01*
X4504635Y1061300D01*
X4496351Y1062650D01*
X4491000Y1062999D01*
X2362200D01*
Y2125999D02*
X2354049Y2125662D01*
X2345800Y2124299D01*
X2337546Y2122103D01*
X2330100Y2119199D01*
X2322429Y2115293D01*
X2315881Y2111000D01*
X2308996Y2105342D01*
X2303700Y2099999D01*
X2298348Y2093333D01*
X2295031Y2088246D01*
X2290505Y2079676D01*
X2288547Y2075162D01*
X2285847Y2066572D01*
X2285177Y2063738D01*
X2283835Y2055237D01*
X2283500Y2050099D01*
Y1141699D01*
X2283963Y1132969D01*
X2285405Y1124347D01*
X2287809Y1115942D01*
X2290536Y1109158D01*
X2294662Y1101307D01*
X2299633Y1093962D01*
X2305389Y1087215D01*
X2305500Y1087099D01*
X2311928Y1081125D01*
X2318100Y1076499D01*
X2325993Y1071884D01*
X2334338Y1068146D01*
X2343104Y1065366D01*
X2351293Y1063792D01*
X2353900Y1063499D01*
X2362200Y1062999D01*
X4488200D01*
X4499100Y1063799D01*
X4507678Y1065494D01*
X4516010Y1068143D01*
X4521082Y1070286D01*
X4529157Y1074629D01*
X4532546Y1076805D01*
X4539480Y1082088D01*
X4542800Y1085099D01*
X4548771Y1091524D01*
X4550200Y1093299D01*
X4555275Y1100698D01*
X4559507Y1108609D01*
X4562845Y1116936D01*
X4564500Y1122699D01*
X4566124Y1131148D01*
X4566400Y1133499D01*
X4567000Y1141699D01*
Y2047299D01*
X4566200Y2058299D01*
X4564506Y2066876D01*
X4561856Y2075209D01*
X4559713Y2080281D01*
X4555429Y2088232D01*
X4551577Y2093976D01*
X4545998Y2100755D01*
X4540900Y2105799D01*
X4536700Y2109399D01*
X4529302Y2114474D01*
X4521391Y2118705D01*
X4513063Y2122044D01*
X4504635Y2124299D01*
X4496351Y2125649D01*
X4491000Y2125999D01*
X2362200D01*
Y3188998D02*
X2354049Y3188661D01*
X2345800Y3187298D01*
X2337546Y3185102D01*
X2330100Y3182198D01*
X2322429Y3178292D01*
X2315881Y3173999D01*
X2308996Y3168342D01*
X2303700Y3162998D01*
X2298348Y3156333D01*
X2295031Y3151246D01*
X2290505Y3142676D01*
X2288547Y3138161D01*
X2285847Y3129571D01*
X2285177Y3126738D01*
X2283835Y3118236D01*
X2283500Y3113098D01*
Y2204698D01*
X2283963Y2195968D01*
X2285405Y2187346D01*
X2287809Y2178941D01*
X2290536Y2172157D01*
X2294662Y2164306D01*
X2299633Y2156962D01*
X2305389Y2150214D01*
X2305500Y2150098D01*
X2311928Y2144124D01*
X2318100Y2139498D01*
X2325993Y2134883D01*
X2334338Y2131145D01*
X2343104Y2128365D01*
X2351293Y2126792D01*
X2353900Y2126498D01*
X2362200Y2125998D01*
X4488200D01*
X4499100Y2126798D01*
X4507678Y2128493D01*
X4516010Y2131142D01*
X4521082Y2133285D01*
X4529157Y2137628D01*
X4532546Y2139804D01*
X4539480Y2145087D01*
X4542800Y2148098D01*
X4548771Y2154523D01*
X4550200Y2156298D01*
X4555275Y2163697D01*
X4559507Y2171608D01*
X4562845Y2179935D01*
X4564500Y2185698D01*
X4566124Y2194147D01*
X4566400Y2196498D01*
X4567000Y2204698D01*
Y3110298D01*
X4566200Y3121298D01*
X4564506Y3129875D01*
X4561856Y3138208D01*
X4559713Y3143280D01*
X4555429Y3151231D01*
X4551577Y3156976D01*
X4545998Y3163754D01*
X4540900Y3168798D01*
X4536700Y3172398D01*
X4529302Y3177473D01*
X4521391Y3181704D01*
X4513063Y3185043D01*
X4504635Y3187298D01*
X4496351Y3188649D01*
X4491000Y3188998D01*
X2362200D01*
Y4251998D02*
X2354049Y4251661D01*
X2345800Y4250298D01*
X2337546Y4248102D01*
X2330100Y4245198D01*
X2322429Y4241292D01*
X2315881Y4236999D01*
X2308996Y4231341D01*
X2303700Y4225998D01*
X2298348Y4219332D01*
X2295031Y4214245D01*
X2290505Y4205675D01*
X2288547Y4201161D01*
X2285847Y4192571D01*
X2285177Y4189737D01*
X2283835Y4181236D01*
X2283500Y4176098D01*
Y3267698D01*
X2283963Y3258968D01*
X2285405Y3250346D01*
X2287809Y3241941D01*
X2290536Y3235157D01*
X2294662Y3227306D01*
X2299633Y3219961D01*
X2305389Y3213214D01*
X2305500Y3213098D01*
X2311928Y3207124D01*
X2318100Y3202498D01*
X2325993Y3197883D01*
X2334338Y3194145D01*
X2343104Y3191364D01*
X2351293Y3189791D01*
X2353900Y3189498D01*
X2362200Y3188998D01*
X4488200D01*
X4499100Y3189798D01*
X4507678Y3191493D01*
X4516010Y3194142D01*
X4521082Y3196285D01*
X4529157Y3200627D01*
X4532546Y3202804D01*
X4539480Y3208086D01*
X4542800Y3211098D01*
X4548771Y3217522D01*
X4550200Y3219298D01*
X4555275Y3226697D01*
X4559507Y3234608D01*
X4562845Y3242935D01*
X4564500Y3248698D01*
X4566124Y3257146D01*
X4566400Y3259498D01*
X4567000Y3267698D01*
Y4173298D01*
X4566200Y4184298D01*
X4564506Y4192875D01*
X4561856Y4201208D01*
X4559713Y4206280D01*
X4555429Y4214231D01*
X4551577Y4219975D01*
X4545998Y4226753D01*
X4540900Y4231798D01*
X4536700Y4235398D01*
X4529302Y4240473D01*
X4521391Y4244704D01*
X4513063Y4248043D01*
X4504635Y4250298D01*
X4496351Y4251648D01*
X4491000Y4251998D01*
X2362200D01*
Y5314997D02*
X2354049Y5314660D01*
X2345800Y5313297D01*
X2337546Y5311101D01*
X2330100Y5308197D01*
X2322429Y5304291D01*
X2315881Y5299998D01*
X2308996Y5294340D01*
X2303700Y5288997D01*
X2298348Y5282332D01*
X2295031Y5277245D01*
X2290505Y5268675D01*
X2288547Y5264160D01*
X2285847Y5255570D01*
X2285177Y5252736D01*
X2283835Y5244235D01*
X2283500Y5239097D01*
Y4330697D01*
X2283963Y4321967D01*
X2285405Y4313345D01*
X2287809Y4304940D01*
X2290536Y4298156D01*
X2294662Y4290305D01*
X2299633Y4282960D01*
X2305389Y4276213D01*
X2305500Y4276097D01*
X2311928Y4270123D01*
X2318100Y4265497D01*
X2325993Y4260882D01*
X2334338Y4257144D01*
X2343104Y4254364D01*
X2351293Y4252790D01*
X2353900Y4252497D01*
X2362200Y4251997D01*
X4488200D01*
X4499100Y4252797D01*
X4507678Y4254492D01*
X4516010Y4257141D01*
X4521082Y4259284D01*
X4529157Y4263627D01*
X4532546Y4265803D01*
X4539480Y4271086D01*
X4542800Y4274097D01*
X4548771Y4280522D01*
X4550200Y4282297D01*
X4555275Y4289696D01*
X4559507Y4297607D01*
X4562845Y4305934D01*
X4564500Y4311697D01*
X4566124Y4320146D01*
X4566400Y4322497D01*
X4567000Y4330697D01*
Y5236297D01*
X4566200Y5247297D01*
X4564506Y5255874D01*
X4561856Y5264207D01*
X4559713Y5269279D01*
X4555429Y5277230D01*
X4551577Y5282975D01*
X4545998Y5289753D01*
X4540900Y5294797D01*
X4536700Y5298397D01*
X4529302Y5303472D01*
X4521391Y5307703D01*
X4513063Y5311042D01*
X4504635Y5313297D01*
X4496351Y5314647D01*
X4491000Y5314997D01*
X2362200D01*
X4645700Y1062999D02*
X4637549Y1062662D01*
X4629300Y1061299D01*
X4621046Y1059103D01*
X4613600Y1056199D01*
X4605929Y1052294D01*
X4599381Y1048000D01*
X4592496Y1042343D01*
X4587200Y1036999D01*
X4581848Y1030334D01*
X4578531Y1025247D01*
X4574005Y1016677D01*
X4572047Y1012162D01*
X4569347Y1003573D01*
X4568677Y1000739D01*
X4567335Y992238D01*
X4567000Y987099D01*
Y78699D01*
X4567463Y69969D01*
X4568905Y61347D01*
X4571309Y52942D01*
X4574036Y46158D01*
X4578162Y38307D01*
X4583133Y30963D01*
X4588889Y24215D01*
X4589000Y24099D01*
X4595428Y18125D01*
X4601600Y13499D01*
X4609493Y8884D01*
X4617838Y5146D01*
X4626604Y2366D01*
X4634793Y793D01*
X4637400Y499D01*
X4645700Y-1D01*
X6771700D01*
X6782600Y799D01*
X6791178Y2494D01*
X6799510Y5143D01*
X6804582Y7286D01*
X6812657Y11629D01*
X6816046Y13806D01*
X6822980Y19088D01*
X6826300Y22099D01*
X6832271Y28524D01*
X6833700Y30299D01*
X6838775Y37698D01*
X6843007Y45609D01*
X6846345Y53936D01*
X6848000Y59699D01*
X6849624Y68148D01*
X6849900Y70499D01*
X6850500Y78699D01*
Y984299D01*
X6849700Y995299D01*
X6848006Y1003876D01*
X6845356Y1012209D01*
X6843213Y1017281D01*
X6838929Y1025233D01*
X6835077Y1030977D01*
X6829498Y1037755D01*
X6824400Y1042799D01*
X6820200Y1046399D01*
X6812802Y1051474D01*
X6804891Y1055705D01*
X6796563Y1059044D01*
X6788135Y1061300D01*
X6779851Y1062650D01*
X6774500Y1062999D01*
X4645700D01*
Y2125999D02*
X4637549Y2125662D01*
X4629300Y2124299D01*
X4621046Y2122103D01*
X4613600Y2119199D01*
X4605929Y2115293D01*
X4599381Y2111000D01*
X4592496Y2105342D01*
X4587200Y2099999D01*
X4581848Y2093333D01*
X4578531Y2088246D01*
X4574005Y2079676D01*
X4572047Y2075162D01*
X4569347Y2066572D01*
X4568677Y2063738D01*
X4567335Y2055237D01*
X4567000Y2050099D01*
Y1141699D01*
X4567463Y1132969D01*
X4568905Y1124347D01*
X4571309Y1115942D01*
X4574036Y1109158D01*
X4578162Y1101307D01*
X4583133Y1093962D01*
X4588889Y1087215D01*
X4589000Y1087099D01*
X4595428Y1081125D01*
X4601600Y1076499D01*
X4609493Y1071884D01*
X4617838Y1068146D01*
X4626604Y1065366D01*
X4634793Y1063792D01*
X4637400Y1063499D01*
X4645700Y1062999D01*
X6771700D01*
X6782600Y1063799D01*
X6791178Y1065494D01*
X6799510Y1068143D01*
X6804582Y1070286D01*
X6812657Y1074629D01*
X6816046Y1076805D01*
X6822980Y1082088D01*
X6826300Y1085099D01*
X6832271Y1091524D01*
X6833700Y1093299D01*
X6838775Y1100698D01*
X6843007Y1108609D01*
X6846345Y1116936D01*
X6848000Y1122699D01*
X6849624Y1131148D01*
X6849900Y1133499D01*
X6850500Y1141699D01*
Y2047299D01*
X6849700Y2058299D01*
X6848006Y2066876D01*
X6845356Y2075209D01*
X6843213Y2080281D01*
X6838929Y2088232D01*
X6835077Y2093976D01*
X6829498Y2100755D01*
X6824400Y2105799D01*
X6820200Y2109399D01*
X6812802Y2114474D01*
X6804891Y2118705D01*
X6796563Y2122044D01*
X6788135Y2124299D01*
X6779851Y2125649D01*
X6774500Y2125999D01*
X4645700D01*
Y3188998D02*
X4637549Y3188661D01*
X4629300Y3187298D01*
X4621046Y3185102D01*
X4613600Y3182198D01*
X4605929Y3178292D01*
X4599381Y3173999D01*
X4592496Y3168342D01*
X4587200Y3162998D01*
X4581848Y3156333D01*
X4578531Y3151246D01*
X4574005Y3142676D01*
X4572047Y3138161D01*
X4569347Y3129571D01*
X4568677Y3126738D01*
X4567335Y3118236D01*
X4567000Y3113098D01*
Y2204698D01*
X4567463Y2195968D01*
X4568905Y2187346D01*
X4571309Y2178941D01*
X4574036Y2172157D01*
X4578162Y2164306D01*
X4583133Y2156962D01*
X4588889Y2150214D01*
X4589000Y2150098D01*
X4595428Y2144124D01*
X4601600Y2139498D01*
X4609493Y2134883D01*
X4617838Y2131145D01*
X4626604Y2128365D01*
X4634793Y2126792D01*
X4637400Y2126498D01*
X4645700Y2125998D01*
X6771700D01*
X6782600Y2126798D01*
X6791178Y2128493D01*
X6799510Y2131142D01*
X6804582Y2133285D01*
X6812657Y2137628D01*
X6816046Y2139804D01*
X6822980Y2145087D01*
X6826300Y2148098D01*
X6832271Y2154523D01*
X6833700Y2156298D01*
X6838775Y2163697D01*
X6843007Y2171608D01*
X6846345Y2179935D01*
X6848000Y2185698D01*
X6849624Y2194147D01*
X6849900Y2196498D01*
X6850500Y2204698D01*
Y3110298D01*
X6849700Y3121298D01*
X6848006Y3129875D01*
X6845356Y3138208D01*
X6843213Y3143280D01*
X6838929Y3151231D01*
X6835077Y3156976D01*
X6829498Y3163754D01*
X6824400Y3168798D01*
X6820200Y3172398D01*
X6812802Y3177473D01*
X6804891Y3181704D01*
X6796563Y3185043D01*
X6788135Y3187298D01*
X6779851Y3188649D01*
X6774500Y3188998D01*
X4645700D01*
Y4251998D02*
X4637549Y4251661D01*
X4629300Y4250298D01*
X4621046Y4248102D01*
X4613600Y4245198D01*
X4605929Y4241292D01*
X4599381Y4236999D01*
X4592496Y4231341D01*
X4587200Y4225998D01*
X4581848Y4219332D01*
X4578531Y4214245D01*
X4574005Y4205675D01*
X4572047Y4201161D01*
X4569347Y4192571D01*
X4568677Y4189737D01*
X4567335Y4181236D01*
X4567000Y4176098D01*
Y3267698D01*
X4567463Y3258968D01*
X4568905Y3250346D01*
X4571309Y3241941D01*
X4574036Y3235157D01*
X4578162Y3227306D01*
X4583133Y3219961D01*
X4588889Y3213214D01*
X4589000Y3213098D01*
X4595428Y3207124D01*
X4601600Y3202498D01*
X4609493Y3197883D01*
X4617838Y3194145D01*
X4626604Y3191364D01*
X4634793Y3189791D01*
X4637400Y3189498D01*
X4645700Y3188998D01*
X6771700D01*
X6782600Y3189798D01*
X6791178Y3191493D01*
X6799510Y3194142D01*
X6804582Y3196285D01*
X6812657Y3200627D01*
X6816046Y3202804D01*
X6822980Y3208086D01*
X6826300Y3211098D01*
X6832271Y3217522D01*
X6833700Y3219298D01*
X6838775Y3226697D01*
X6843007Y3234608D01*
X6846345Y3242935D01*
X6848000Y3248698D01*
X6849624Y3257146D01*
X6849900Y3259498D01*
X6850500Y3267698D01*
Y4173298D01*
X6849700Y4184298D01*
X6848006Y4192875D01*
X6845356Y4201208D01*
X6843213Y4206280D01*
X6838929Y4214231D01*
X6835077Y4219975D01*
X6829498Y4226753D01*
X6824400Y4231798D01*
X6820200Y4235398D01*
X6812802Y4240473D01*
X6804891Y4244704D01*
X6796563Y4248043D01*
X6788135Y4250298D01*
X6779851Y4251648D01*
X6774500Y4251998D01*
X4645700D01*
Y5314997D02*
X4637549Y5314660D01*
X4629300Y5313297D01*
X4621046Y5311101D01*
X4613600Y5308197D01*
X4605929Y5304291D01*
X4599381Y5299998D01*
X4592496Y5294340D01*
X4587200Y5288997D01*
X4581848Y5282332D01*
X4578531Y5277245D01*
X4574005Y5268675D01*
X4572047Y5264160D01*
X4569347Y5255570D01*
X4568677Y5252736D01*
X4567335Y5244235D01*
X4567000Y5239097D01*
Y4330697D01*
X4567463Y4321967D01*
X4568905Y4313345D01*
X4571309Y4304940D01*
X4574036Y4298156D01*
X4578162Y4290305D01*
X4583133Y4282960D01*
X4588889Y4276213D01*
X4589000Y4276097D01*
X4595428Y4270123D01*
X4601600Y4265497D01*
X4609493Y4260882D01*
X4617838Y4257144D01*
X4626604Y4254364D01*
X4634793Y4252790D01*
X4637400Y4252497D01*
X4645700Y4251997D01*
X6771700D01*
X6782600Y4252797D01*
X6791178Y4254492D01*
X6799510Y4257141D01*
X6804582Y4259284D01*
X6812657Y4263627D01*
X6816046Y4265803D01*
X6822980Y4271086D01*
X6826300Y4274097D01*
X6832271Y4280522D01*
X6833700Y4282297D01*
X6838775Y4289696D01*
X6843007Y4297607D01*
X6846345Y4305934D01*
X6848000Y4311697D01*
X6849624Y4320146D01*
X6849900Y4322497D01*
X6850500Y4330697D01*
Y5236297D01*
X6849700Y5247297D01*
X6848006Y5255874D01*
X6845356Y5264207D01*
X6843213Y5269279D01*
X6838929Y5277230D01*
X6835077Y5282975D01*
X6829498Y5289753D01*
X6824400Y5294797D01*
X6820200Y5298397D01*
X6812802Y5303472D01*
X6804891Y5307703D01*
X6796563Y5311042D01*
X6788135Y5313297D01*
X6779851Y5314647D01*
X6774500Y5314997D01*
X4645700D01*
X-98425Y4921296D03*
X6948925D03*
X-98425Y393701D03*
X6948925Y590551D03*
X-98425Y5118147D03*
X6948925D03*
X-98425Y196850D03*
X6948925Y393701D03*
X78700Y1062999D02*
X70549Y1062662D01*
X62300Y1061299D01*
X54046Y1059103D01*
X46600Y1056199D01*
X38929Y1052294D01*
X32381Y1048000D01*
X25496Y1042343D01*
X20200Y1036999D01*
X14848Y1030334D01*
X11531Y1025247D01*
X7005Y1016677D01*
X5047Y1012162D01*
X2347Y1003573D01*
X1677Y1000739D01*
X335Y992238D01*
X0Y987099D01*
Y78699D01*
X463Y69969D01*
X1905Y61347D01*
X4309Y52942D01*
X7036Y46158D01*
X11162Y38307D01*
X16133Y30963D01*
X21889Y24215D01*
X22000Y24099D01*
X28428Y18125D01*
X34600Y13499D01*
X42493Y8884D01*
X50838Y5146D01*
X59604Y2366D01*
X67793Y793D01*
X70400Y499D01*
X78700Y-1D01*
X2204700D01*
X2215600Y799D01*
X2224178Y2494D01*
X2232510Y5143D01*
X2237582Y7286D01*
X2245657Y11629D01*
X2249046Y13806D01*
X2255980Y19088D01*
X2259300Y22099D01*
X2265271Y28524D01*
X2266700Y30299D01*
X2271775Y37698D01*
X2276007Y45609D01*
X2279345Y53936D01*
X2281000Y59699D01*
X2282624Y68148D01*
X2282900Y70499D01*
X2283500Y78699D01*
Y984299D01*
X2282700Y995299D01*
X2281006Y1003876D01*
X2278356Y1012209D01*
X2276213Y1017281D01*
X2271929Y1025232D01*
X2268077Y1030977D01*
X2262498Y1037755D01*
X2257400Y1042799D01*
X2253200Y1046399D01*
X2245802Y1051474D01*
X2237891Y1055705D01*
X2229563Y1059044D01*
X2221135Y1061300D01*
X2212851Y1062650D01*
X2207500Y1062999D01*
X78700D01*
X2362200D02*
X2354049Y1062662D01*
X2345800Y1061299D01*
X2337546Y1059103D01*
X2330100Y1056199D01*
X2322429Y1052294D01*
X2315881Y1048000D01*
X2308996Y1042343D01*
X2303700Y1036999D01*
X2298348Y1030334D01*
X2295031Y1025247D01*
X2290505Y1016677D01*
X2288547Y1012162D01*
X2285847Y1003573D01*
X2285177Y1000739D01*
X2283835Y992238D01*
X2283500Y987099D01*
Y78699D01*
X2283963Y69969D01*
X2285405Y61347D01*
X2287809Y52942D01*
X2290537Y46158D01*
X2294663Y38306D01*
X2299635Y30961D01*
X2305392Y24213D01*
X2305500Y24099D01*
X2311928Y18125D01*
X2318100Y13499D01*
X2325994Y8884D01*
X2334338Y5146D01*
X2343104Y2366D01*
X2351293Y793D01*
X2353900Y499D01*
X2362200Y-1D01*
X4488200D01*
X4499100Y799D01*
X4507678Y2494D01*
X4516010Y5143D01*
X4521082Y7286D01*
X4529157Y11629D01*
X4532546Y13806D01*
X4539480Y19088D01*
X4542800Y22099D01*
X4548771Y28524D01*
X4550200Y30299D01*
X4555275Y37698D01*
X4559507Y45609D01*
X4562845Y53936D01*
X4564500Y59699D01*
X4566124Y68148D01*
X4566400Y70499D01*
X4567000Y78699D01*
Y984299D01*
X4566200Y995299D01*
X4564506Y1003876D01*
X4561856Y1012209D01*
X4559713Y1017281D01*
X4555429Y1025232D01*
X4551577Y1030977D01*
X4545998Y1037755D01*
X4540900Y1042799D01*
X4536700Y1046399D01*
X4529302Y1051474D01*
X4521391Y1055705D01*
X4513063Y1059044D01*
X4504635Y1061300D01*
X4496351Y1062650D01*
X4491000Y1062999D01*
X2362200D01*
X4645700D02*
X4637549Y1062662D01*
X4629300Y1061299D01*
X4621046Y1059103D01*
X4613600Y1056199D01*
X4605929Y1052294D01*
X4599381Y1048000D01*
X4592496Y1042343D01*
X4587200Y1036999D01*
X4581848Y1030334D01*
X4578531Y1025247D01*
X4574005Y1016677D01*
X4572047Y1012162D01*
X4569347Y1003573D01*
X4568677Y1000739D01*
X4567335Y992238D01*
X4567000Y987099D01*
Y78699D01*
X4567463Y69969D01*
X4568905Y61347D01*
X4571309Y52942D01*
X4574037Y46158D01*
X4578163Y38306D01*
X4583135Y30961D01*
X4588892Y24213D01*
X4589000Y24099D01*
X4595428Y18125D01*
X4601600Y13499D01*
X4609494Y8884D01*
X4617838Y5146D01*
X4626604Y2366D01*
X4634793Y793D01*
X4637400Y499D01*
X4645700Y-1D01*
X6771700D01*
X6782600Y799D01*
X6791178Y2494D01*
X6799510Y5143D01*
X6804582Y7286D01*
X6812657Y11629D01*
X6816046Y13806D01*
X6822980Y19088D01*
X6826300Y22099D01*
X6832271Y28524D01*
X6833700Y30299D01*
X6838775Y37698D01*
X6843007Y45609D01*
X6846345Y53936D01*
X6848000Y59699D01*
X6849624Y68148D01*
X6849900Y70499D01*
X6850500Y78699D01*
Y984299D01*
X6849700Y995299D01*
X6848006Y1003876D01*
X6845356Y1012209D01*
X6843213Y1017281D01*
X6838929Y1025232D01*
X6835077Y1030977D01*
X6829498Y1037755D01*
X6824400Y1042799D01*
X6820200Y1046399D01*
X6812802Y1051474D01*
X6804891Y1055705D01*
X6796563Y1059044D01*
X6788135Y1061300D01*
X6779851Y1062650D01*
X6774500Y1062999D01*
X4645700D01*
X78700Y2126011D02*
X70549Y2125674D01*
X62300Y2124311D01*
X54046Y2122115D01*
X46600Y2119211D01*
X38929Y2115306D01*
X32381Y2111012D01*
X25496Y2105355D01*
X20200Y2100011D01*
X14848Y2093346D01*
X11531Y2088259D01*
X7005Y2079689D01*
X5047Y2075174D01*
X2347Y2066585D01*
X1677Y2063751D01*
X335Y2055250D01*
X0Y2050111D01*
Y1141711D01*
X463Y1132981D01*
X1905Y1124359D01*
X4309Y1115954D01*
X7036Y1109170D01*
X11162Y1101319D01*
X16134Y1093974D01*
X21891Y1087226D01*
X22000Y1087111D01*
X28428Y1081137D01*
X34600Y1076511D01*
X42493Y1071896D01*
X50838Y1068158D01*
X59604Y1065378D01*
X67792Y1063805D01*
X70400Y1063511D01*
X78700Y1063011D01*
X2204700D01*
X2215600Y1063811D01*
X2224178Y1065506D01*
X2232510Y1068155D01*
X2237582Y1070299D01*
X2245660Y1074644D01*
X2249046Y1076818D01*
X2255979Y1082099D01*
X2259300Y1085111D01*
X2265271Y1091536D01*
X2266700Y1093311D01*
X2271775Y1100710D01*
X2276007Y1108621D01*
X2279345Y1116948D01*
X2281000Y1122711D01*
X2282624Y1131160D01*
X2282900Y1133511D01*
X2283500Y1141711D01*
Y2047311D01*
X2282700Y2058311D01*
X2281006Y2066889D01*
X2278356Y2075221D01*
X2276213Y2080293D01*
X2271929Y2088244D01*
X2268077Y2093989D01*
X2262498Y2100767D01*
X2257400Y2105811D01*
X2253200Y2109411D01*
X2245802Y2114486D01*
X2237891Y2118718D01*
X2229563Y2122056D01*
X2221135Y2124312D01*
X2212851Y2125662D01*
X2207500Y2126011D01*
X78700D01*
X2362200D02*
X2354049Y2125674D01*
X2345800Y2124311D01*
X2337546Y2122115D01*
X2330100Y2119211D01*
X2322429Y2115306D01*
X2315881Y2111012D01*
X2308996Y2105355D01*
X2303700Y2100011D01*
X2298348Y2093346D01*
X2295031Y2088259D01*
X2290505Y2079689D01*
X2288547Y2075174D01*
X2285847Y2066585D01*
X2285177Y2063751D01*
X2283835Y2055250D01*
X2283500Y2050111D01*
Y1141711D01*
X2283963Y1132981D01*
X2285405Y1124359D01*
X2287809Y1115954D01*
X2290537Y1109170D01*
X2294663Y1101318D01*
X2299636Y1093972D01*
X2305393Y1087223D01*
X2305500Y1087111D01*
X2311928Y1081137D01*
X2318100Y1076511D01*
X2325994Y1071896D01*
X2334338Y1068158D01*
X2343104Y1065378D01*
X2351292Y1063805D01*
X2353900Y1063511D01*
X2362200Y1063011D01*
X4488200D01*
X4499100Y1063811D01*
X4507678Y1065506D01*
X4516010Y1068155D01*
X4521082Y1070299D01*
X4529160Y1074644D01*
X4532546Y1076818D01*
X4539479Y1082099D01*
X4542800Y1085111D01*
X4548771Y1091536D01*
X4550200Y1093311D01*
X4555275Y1100710D01*
X4559507Y1108621D01*
X4562845Y1116948D01*
X4564500Y1122711D01*
X4566124Y1131160D01*
X4566400Y1133511D01*
X4567000Y1141711D01*
Y2047311D01*
X4566200Y2058311D01*
X4564506Y2066889D01*
X4561856Y2075221D01*
X4559713Y2080293D01*
X4555429Y2088244D01*
X4551577Y2093989D01*
X4545998Y2100767D01*
X4540900Y2105811D01*
X4536700Y2109411D01*
X4529302Y2114486D01*
X4521391Y2118718D01*
X4513063Y2122056D01*
X4504635Y2124312D01*
X4496351Y2125662D01*
X4491000Y2126011D01*
X2362200D01*
X4645700D02*
X4637549Y2125674D01*
X4629300Y2124311D01*
X4621046Y2122115D01*
X4613600Y2119211D01*
X4605929Y2115306D01*
X4599381Y2111012D01*
X4592496Y2105355D01*
X4587200Y2100011D01*
X4581848Y2093346D01*
X4578531Y2088259D01*
X4574005Y2079689D01*
X4572047Y2075174D01*
X4569347Y2066585D01*
X4568677Y2063751D01*
X4567335Y2055250D01*
X4567000Y2050111D01*
Y1141711D01*
X4567463Y1132981D01*
X4568905Y1124359D01*
X4571309Y1115954D01*
X4574037Y1109170D01*
X4578163Y1101318D01*
X4583136Y1093972D01*
X4588893Y1087223D01*
X4589000Y1087111D01*
X4595428Y1081137D01*
X4601600Y1076511D01*
X4609494Y1071896D01*
X4617838Y1068158D01*
X4626604Y1065378D01*
X4634792Y1063805D01*
X4637400Y1063511D01*
X4645700Y1063011D01*
X6771700D01*
X6782600Y1063811D01*
X6791178Y1065506D01*
X6799510Y1068155D01*
X6804582Y1070299D01*
X6812660Y1074644D01*
X6816046Y1076818D01*
X6822979Y1082099D01*
X6826300Y1085111D01*
X6832271Y1091536D01*
X6833700Y1093311D01*
X6838775Y1100710D01*
X6843007Y1108621D01*
X6846345Y1116948D01*
X6848000Y1122711D01*
X6849624Y1131160D01*
X6849900Y1133511D01*
X6850500Y1141711D01*
Y2047311D01*
X6849700Y2058311D01*
X6848006Y2066889D01*
X6845356Y2075221D01*
X6843213Y2080293D01*
X6838929Y2088244D01*
X6835077Y2093989D01*
X6829498Y2100767D01*
X6824400Y2105811D01*
X6820200Y2109411D01*
X6812802Y2114486D01*
X6804891Y2118718D01*
X6796563Y2122056D01*
X6788135Y2124312D01*
X6779851Y2125662D01*
X6774500Y2126011D01*
X4645700D01*
X78700Y3189024D02*
X70549Y3188687D01*
X62300Y3187324D01*
X54046Y3185127D01*
X46600Y3182224D01*
X38930Y3178320D01*
X32381Y3174026D01*
X25495Y3168368D01*
X20200Y3163024D01*
X14849Y3156360D01*
X11532Y3151271D01*
X7004Y3142698D01*
X5047Y3138186D01*
X2347Y3129600D01*
X1677Y3126764D01*
X335Y3118262D01*
X0Y3113124D01*
Y2204724D01*
X463Y2195994D01*
X1905Y2187372D01*
X4309Y2178967D01*
X7036Y2172182D01*
X11161Y2164332D01*
X16133Y2156988D01*
X21888Y2150241D01*
X22000Y2150124D01*
X28428Y2144150D01*
X34600Y2139524D01*
X42493Y2134908D01*
X50838Y2131170D01*
X59604Y2128391D01*
X67791Y2126818D01*
X70400Y2126524D01*
X78700Y2126024D01*
X2204700D01*
X2215600Y2126824D01*
X2224178Y2128518D01*
X2232510Y2131168D01*
X2237582Y2133311D01*
X2245657Y2137654D01*
X2249046Y2139831D01*
X2255980Y2145113D01*
X2259300Y2148124D01*
X2265271Y2154549D01*
X2266700Y2156324D01*
X2271775Y2163722D01*
X2276007Y2171633D01*
X2279345Y2179961D01*
X2281000Y2185724D01*
X2282624Y2194173D01*
X2282900Y2196524D01*
X2283500Y2204724D01*
Y3110324D01*
X2282700Y3121324D01*
X2281006Y3129901D01*
X2278356Y3138233D01*
X2276213Y3143305D01*
X2271929Y3151256D01*
X2268077Y3157002D01*
X2262498Y3163780D01*
X2257400Y3168824D01*
X2253200Y3172424D01*
X2245802Y3177498D01*
X2237891Y3181730D01*
X2229563Y3185068D01*
X2221135Y3187327D01*
X2212834Y3188676D01*
X2207500Y3189024D01*
X78700D01*
X2362200D02*
X2354049Y3188687D01*
X2345800Y3187324D01*
X2337546Y3185127D01*
X2330100Y3182224D01*
X2322430Y3178320D01*
X2315881Y3174026D01*
X2308995Y3168368D01*
X2303700Y3163024D01*
X2298349Y3156360D01*
X2295032Y3151271D01*
X2290504Y3142698D01*
X2288547Y3138186D01*
X2285847Y3129600D01*
X2285177Y3126764D01*
X2283835Y3118262D01*
X2283500Y3113124D01*
Y2204724D01*
X2283963Y2195994D01*
X2285405Y2187372D01*
X2287809Y2178967D01*
X2290537Y2172182D01*
X2294663Y2164331D01*
X2299635Y2156986D01*
X2305391Y2150239D01*
X2305500Y2150124D01*
X2311928Y2144150D01*
X2318100Y2139524D01*
X2325994Y2134908D01*
X2334338Y2131170D01*
X2343104Y2128391D01*
X2351291Y2126818D01*
X2353900Y2126524D01*
X2362200Y2126024D01*
X4488200D01*
X4499100Y2126824D01*
X4507678Y2128518D01*
X4516010Y2131168D01*
X4521082Y2133311D01*
X4529157Y2137654D01*
X4532546Y2139831D01*
X4539480Y2145113D01*
X4542800Y2148124D01*
X4548771Y2154549D01*
X4550200Y2156324D01*
X4555275Y2163722D01*
X4559507Y2171633D01*
X4562845Y2179961D01*
X4564500Y2185724D01*
X4566124Y2194173D01*
X4566400Y2196524D01*
X4567000Y2204724D01*
Y3110324D01*
X4566200Y3121324D01*
X4564506Y3129901D01*
X4561856Y3138233D01*
X4559713Y3143305D01*
X4555429Y3151256D01*
X4551577Y3157002D01*
X4545998Y3163780D01*
X4540900Y3168824D01*
X4536700Y3172424D01*
X4529302Y3177498D01*
X4521391Y3181730D01*
X4513063Y3185068D01*
X4504635Y3187327D01*
X4496334Y3188676D01*
X4491000Y3189024D01*
X2362200D01*
X4645700D02*
X4637549Y3188687D01*
X4629300Y3187324D01*
X4621046Y3185127D01*
X4613600Y3182224D01*
X4605930Y3178320D01*
X4599381Y3174026D01*
X4592495Y3168368D01*
X4587200Y3163024D01*
X4581849Y3156360D01*
X4578532Y3151271D01*
X4574004Y3142698D01*
X4572047Y3138186D01*
X4569347Y3129600D01*
X4568677Y3126764D01*
X4567335Y3118262D01*
X4567000Y3113124D01*
Y2204724D01*
X4567463Y2195994D01*
X4568905Y2187372D01*
X4571309Y2178967D01*
X4574037Y2172182D01*
X4578163Y2164331D01*
X4583135Y2156986D01*
X4588891Y2150239D01*
X4589000Y2150124D01*
X4595428Y2144150D01*
X4601600Y2139524D01*
X4609494Y2134908D01*
X4617838Y2131170D01*
X4626604Y2128391D01*
X4634791Y2126818D01*
X4637400Y2126524D01*
X4645700Y2126024D01*
X6771700D01*
X6782600Y2126824D01*
X6791178Y2128518D01*
X6799510Y2131168D01*
X6804582Y2133311D01*
X6812657Y2137654D01*
X6816046Y2139831D01*
X6822980Y2145113D01*
X6826300Y2148124D01*
X6832271Y2154549D01*
X6833700Y2156324D01*
X6838775Y2163722D01*
X6843007Y2171633D01*
X6846345Y2179961D01*
X6848000Y2185724D01*
X6849624Y2194173D01*
X6849900Y2196524D01*
X6850500Y2204724D01*
Y3110324D01*
X6849700Y3121324D01*
X6848006Y3129901D01*
X6845356Y3138233D01*
X6843213Y3143305D01*
X6838929Y3151256D01*
X6835077Y3157002D01*
X6829498Y3163780D01*
X6824400Y3168824D01*
X6820200Y3172424D01*
X6812802Y3177498D01*
X6804891Y3181730D01*
X6796563Y3185068D01*
X6788135Y3187327D01*
X6779834Y3188676D01*
X6774500Y3189024D01*
X4645700D01*
X78700Y4252036D02*
X70549Y4251699D01*
X62300Y4250336D01*
X54046Y4248140D01*
X46600Y4245236D01*
X38929Y4241331D01*
X32381Y4237037D01*
X25496Y4231380D01*
X20200Y4226036D01*
X14848Y4219371D01*
X11531Y4214284D01*
X7005Y4205714D01*
X5047Y4201199D01*
X2347Y4192610D01*
X1677Y4189776D01*
X335Y4181275D01*
X0Y4176136D01*
Y3267736D01*
X463Y3259006D01*
X1905Y3250384D01*
X4309Y3241979D01*
X7036Y3235195D01*
X11162Y3227344D01*
X16133Y3220000D01*
X21889Y3213252D01*
X22000Y3213136D01*
X28428Y3207162D01*
X34600Y3202536D01*
X42493Y3197921D01*
X50838Y3194182D01*
X59604Y3191403D01*
X67791Y3189830D01*
X70400Y3189536D01*
X78700Y3189036D01*
X2204700D01*
X2215600Y3189836D01*
X2224178Y3191530D01*
X2232510Y3194180D01*
X2237582Y3196323D01*
X2245657Y3200666D01*
X2249046Y3202843D01*
X2255980Y3208125D01*
X2259300Y3211136D01*
X2265271Y3217561D01*
X2266700Y3219336D01*
X2271775Y3226735D01*
X2276007Y3234645D01*
X2279345Y3242973D01*
X2281000Y3248736D01*
X2282624Y3257185D01*
X2282900Y3259536D01*
X2283500Y3267736D01*
Y4173336D01*
X2282700Y4184336D01*
X2281006Y4192913D01*
X2278356Y4201245D01*
X2276213Y4206318D01*
X2271930Y4214268D01*
X2268077Y4220014D01*
X2262498Y4226793D01*
X2257400Y4231836D01*
X2253200Y4235436D01*
X2245802Y4240510D01*
X2237891Y4244742D01*
X2229563Y4248081D01*
X2221135Y4250337D01*
X2212851Y4251687D01*
X2207500Y4252036D01*
X78700D01*
X2362200D02*
X2354049Y4251699D01*
X2345800Y4250336D01*
X2337546Y4248140D01*
X2330100Y4245236D01*
X2322429Y4241331D01*
X2315881Y4237037D01*
X2308996Y4231380D01*
X2303700Y4226036D01*
X2298348Y4219371D01*
X2295031Y4214284D01*
X2290505Y4205714D01*
X2288547Y4201199D01*
X2285847Y4192610D01*
X2285177Y4189776D01*
X2283835Y4181275D01*
X2283500Y4176136D01*
Y3267736D01*
X2283963Y3259006D01*
X2285405Y3250384D01*
X2287809Y3241979D01*
X2290537Y3235195D01*
X2294663Y3227344D01*
X2299635Y3219998D01*
X2305392Y3213250D01*
X2305500Y3213136D01*
X2311928Y3207162D01*
X2318100Y3202536D01*
X2325994Y3197921D01*
X2334338Y3194182D01*
X2343104Y3191403D01*
X2351291Y3189830D01*
X2353900Y3189536D01*
X2362200Y3189036D01*
X4488200D01*
X4499100Y3189836D01*
X4507678Y3191530D01*
X4516010Y3194180D01*
X4521082Y3196323D01*
X4529157Y3200666D01*
X4532546Y3202843D01*
X4539480Y3208125D01*
X4542800Y3211136D01*
X4548771Y3217561D01*
X4550200Y3219336D01*
X4555275Y3226735D01*
X4559507Y3234645D01*
X4562845Y3242973D01*
X4564500Y3248736D01*
X4566124Y3257185D01*
X4566400Y3259536D01*
X4567000Y3267736D01*
Y4173336D01*
X4566200Y4184336D01*
X4564506Y4192913D01*
X4561856Y4201245D01*
X4559713Y4206318D01*
X4555430Y4214268D01*
X4551577Y4220014D01*
X4545998Y4226793D01*
X4540900Y4231836D01*
X4536700Y4235436D01*
X4529302Y4240510D01*
X4521391Y4244742D01*
X4513063Y4248081D01*
X4504635Y4250337D01*
X4496351Y4251687D01*
X4491000Y4252036D01*
X2362200D01*
X4645700D02*
X4637549Y4251699D01*
X4629300Y4250336D01*
X4621046Y4248140D01*
X4613600Y4245236D01*
X4605929Y4241331D01*
X4599381Y4237037D01*
X4592496Y4231380D01*
X4587200Y4226036D01*
X4581848Y4219371D01*
X4578531Y4214284D01*
X4574005Y4205714D01*
X4572047Y4201199D01*
X4569347Y4192610D01*
X4568677Y4189776D01*
X4567335Y4181275D01*
X4567000Y4176136D01*
Y3267736D01*
X4567463Y3259006D01*
X4568905Y3250384D01*
X4571309Y3241979D01*
X4574037Y3235195D01*
X4578163Y3227344D01*
X4583135Y3219998D01*
X4588892Y3213250D01*
X4589000Y3213136D01*
X4595428Y3207162D01*
X4601600Y3202536D01*
X4609494Y3197921D01*
X4617838Y3194182D01*
X4626604Y3191403D01*
X4634791Y3189830D01*
X4637400Y3189536D01*
X4645700Y3189036D01*
X6771700D01*
X6782600Y3189836D01*
X6791178Y3191530D01*
X6799510Y3194180D01*
X6804582Y3196323D01*
X6812657Y3200666D01*
X6816046Y3202843D01*
X6822980Y3208125D01*
X6826300Y3211136D01*
X6832271Y3217561D01*
X6833700Y3219336D01*
X6838775Y3226735D01*
X6843007Y3234645D01*
X6846345Y3242973D01*
X6848000Y3248736D01*
X6849624Y3257185D01*
X6849900Y3259536D01*
X6850500Y3267736D01*
Y4173336D01*
X6849700Y4184336D01*
X6848006Y4192913D01*
X6845356Y4201245D01*
X6843213Y4206318D01*
X6838930Y4214268D01*
X6835077Y4220014D01*
X6829498Y4226793D01*
X6824400Y4231836D01*
X6820200Y4235436D01*
X6812802Y4240510D01*
X6804891Y4244742D01*
X6796563Y4248081D01*
X6788135Y4250337D01*
X6779851Y4251687D01*
X6774500Y4252036D01*
X4645700D01*
X78700Y5315048D02*
X70549Y5314711D01*
X62300Y5313348D01*
X54046Y5311152D01*
X46600Y5308248D01*
X38929Y5304343D01*
X32381Y5300049D01*
X25496Y5294392D01*
X20200Y5289048D01*
X14848Y5282383D01*
X11531Y5277296D01*
X7005Y5268726D01*
X5047Y5264211D01*
X2347Y5255622D01*
X1677Y5252788D01*
X335Y5244287D01*
X0Y5239148D01*
Y4330748D01*
X463Y4322018D01*
X1905Y4313396D01*
X4309Y4304991D01*
X7036Y4298207D01*
X11162Y4290356D01*
X16134Y4283011D01*
X21891Y4276263D01*
X22000Y4276148D01*
X28428Y4270174D01*
X34600Y4265548D01*
X42493Y4260933D01*
X50838Y4257195D01*
X59604Y4254415D01*
X67792Y4252842D01*
X70400Y4252548D01*
X78700Y4252048D01*
X2204700D01*
X2215600Y4252848D01*
X2224178Y4254543D01*
X2232510Y4257192D01*
X2237582Y4259336D01*
X2245660Y4263681D01*
X2249046Y4265855D01*
X2255979Y4271136D01*
X2259300Y4274148D01*
X2265271Y4280573D01*
X2266700Y4282348D01*
X2271775Y4289747D01*
X2276007Y4297658D01*
X2279345Y4305985D01*
X2281000Y4311748D01*
X2282624Y4320197D01*
X2282900Y4322548D01*
X2283500Y4330748D01*
Y5236348D01*
X2282700Y5247348D01*
X2281006Y5255926D01*
X2278356Y5264258D01*
X2276213Y5269330D01*
X2271929Y5277281D01*
X2268077Y5283026D01*
X2262498Y5289804D01*
X2257400Y5294848D01*
X2253200Y5298448D01*
X2245802Y5303523D01*
X2237891Y5307755D01*
X2229563Y5311093D01*
X2221135Y5313349D01*
X2212851Y5314699D01*
X2207500Y5315048D01*
X78700D01*
X2362200D02*
X2354049Y5314711D01*
X2345800Y5313348D01*
X2337546Y5311152D01*
X2330100Y5308248D01*
X2322429Y5304343D01*
X2315881Y5300049D01*
X2308996Y5294392D01*
X2303700Y5289048D01*
X2298348Y5282383D01*
X2295031Y5277296D01*
X2290505Y5268726D01*
X2288547Y5264211D01*
X2285847Y5255622D01*
X2285177Y5252788D01*
X2283835Y5244287D01*
X2283500Y5239148D01*
Y4330748D01*
X2283963Y4322018D01*
X2285405Y4313396D01*
X2287809Y4304991D01*
X2290537Y4298207D01*
X2294663Y4290355D01*
X2299636Y4283009D01*
X2305393Y4276260D01*
X2305500Y4276148D01*
X2311928Y4270174D01*
X2318100Y4265548D01*
X2325994Y4260933D01*
X2334338Y4257195D01*
X2343104Y4254415D01*
X2351292Y4252842D01*
X2353900Y4252548D01*
X2362200Y4252048D01*
X4488200D01*
X4499100Y4252848D01*
X4507678Y4254543D01*
X4516010Y4257192D01*
X4521082Y4259336D01*
X4529160Y4263681D01*
X4532546Y4265855D01*
X4539479Y4271136D01*
X4542800Y4274148D01*
X4548771Y4280573D01*
X4550200Y4282348D01*
X4555275Y4289747D01*
X4559507Y4297658D01*
X4562845Y4305985D01*
X4564500Y4311748D01*
X4566124Y4320197D01*
X4566400Y4322548D01*
X4567000Y4330748D01*
Y5236348D01*
X4566200Y5247348D01*
X4564506Y5255926D01*
X4561856Y5264258D01*
X4559713Y5269330D01*
X4555429Y5277281D01*
X4551577Y5283026D01*
X4545998Y5289804D01*
X4540900Y5294848D01*
X4536700Y5298448D01*
X4529302Y5303523D01*
X4521391Y5307755D01*
X4513063Y5311093D01*
X4504635Y5313349D01*
X4496351Y5314699D01*
X4491000Y5315048D01*
X2362200D01*
X4645700D02*
X4637549Y5314711D01*
X4629300Y5313348D01*
X4621046Y5311152D01*
X4613600Y5308248D01*
X4605929Y5304343D01*
X4599381Y5300049D01*
X4592496Y5294392D01*
X4587200Y5289048D01*
X4581848Y5282383D01*
X4578531Y5277296D01*
X4574005Y5268726D01*
X4572047Y5264211D01*
X4569347Y5255622D01*
X4568677Y5252788D01*
X4567335Y5244287D01*
X4567000Y5239148D01*
Y4330748D01*
X4567463Y4322018D01*
X4568905Y4313396D01*
X4571309Y4304991D01*
X4574037Y4298207D01*
X4578163Y4290355D01*
X4583136Y4283009D01*
X4588893Y4276260D01*
X4589000Y4276148D01*
X4595428Y4270174D01*
X4601600Y4265548D01*
X4609494Y4260933D01*
X4617838Y4257195D01*
X4626604Y4254415D01*
X4634792Y4252842D01*
X4637400Y4252548D01*
X4645700Y4252048D01*
X6771700D01*
X6782600Y4252848D01*
X6791178Y4254543D01*
X6799510Y4257192D01*
X6804582Y4259336D01*
X6812660Y4263681D01*
X6816046Y4265855D01*
X6822979Y4271136D01*
X6826300Y4274148D01*
X6832271Y4280573D01*
X6833700Y4282348D01*
X6838775Y4289747D01*
X6843007Y4297658D01*
X6846345Y4305985D01*
X6848000Y4311748D01*
X6849624Y4320197D01*
X6849900Y4322548D01*
X6850500Y4330748D01*
Y5236348D01*
X6849700Y5247348D01*
X6848006Y5255926D01*
X6845356Y5264258D01*
X6843213Y5269330D01*
X6838929Y5277281D01*
X6835077Y5283026D01*
X6829498Y5289804D01*
X6824400Y5294848D01*
X6820200Y5298448D01*
X6812802Y5303523D01*
X6804891Y5307755D01*
X6796563Y5311093D01*
X6788135Y5313349D01*
X6779851Y5314699D01*
X6774500Y5315048D01*
X4645700D01*
X2362200Y2126011D02*
X2354049Y2125674D01*
X2345800Y2124311D01*
X2337546Y2122115D01*
X2330100Y2119211D01*
X2322699Y2115424D01*
X2320994Y2114387D01*
X2313169Y2108890D01*
X2312585Y2108429D01*
X2306361Y2102848D01*
X2303700Y2100011D01*
X2298348Y2093346D01*
X2295031Y2088259D01*
X2290505Y2079689D01*
X2288547Y2075174D01*
X2285847Y2066585D01*
X2285177Y2063751D01*
X2283835Y2055250D01*
X2283500Y2050111D01*
Y1141711D01*
X2283963Y1132981D01*
X2285405Y1124359D01*
X2287809Y1115954D01*
X2290537Y1109170D01*
X2294663Y1101318D01*
X2299636Y1093972D01*
X2305393Y1087223D01*
X2305500Y1087111D01*
X2311928Y1081137D01*
X2318100Y1076511D01*
X2325994Y1071896D01*
X2334338Y1068158D01*
X2343104Y1065378D01*
X2351292Y1063805D01*
X2353900Y1063511D01*
X2362200Y1063011D01*
X4488200D01*
X4499100Y1063811D01*
X4507678Y1065506D01*
X4516010Y1068155D01*
X4521082Y1070299D01*
X4529160Y1074644D01*
X4532546Y1076818D01*
X4539479Y1082099D01*
X4542800Y1085111D01*
X4548771Y1091536D01*
X4550200Y1093311D01*
X4555275Y1100710D01*
X4559507Y1108621D01*
X4562845Y1116948D01*
X4564500Y1122711D01*
X4566124Y1131160D01*
X4566400Y1133511D01*
X4567000Y1141711D01*
Y2047311D01*
X4566200Y2058311D01*
X4564506Y2066889D01*
X4561856Y2075221D01*
X4559713Y2080293D01*
X4555429Y2088244D01*
X4551577Y2093989D01*
X4545998Y2100767D01*
X4540900Y2105811D01*
X4536700Y2109411D01*
X4529302Y2114486D01*
X4521391Y2118718D01*
X4513063Y2122056D01*
X4504635Y2124312D01*
X4496351Y2125662D01*
X4491000Y2126011D01*
X2362200D01*
Y3189024D02*
X2354049Y3188687D01*
X2345800Y3187324D01*
X2337546Y3185127D01*
X2330100Y3182224D01*
X2322701Y3178439D01*
X2320994Y3177400D01*
X2313169Y3171903D01*
X2312585Y3171442D01*
X2306361Y3165861D01*
X2303700Y3163024D01*
X2298349Y3156360D01*
X2295032Y3151271D01*
X2290504Y3142698D01*
X2288547Y3138186D01*
X2285847Y3129600D01*
X2285177Y3126764D01*
X2283835Y3118262D01*
X2283500Y3113124D01*
Y2204724D01*
X2283963Y2195994D01*
X2285405Y2187372D01*
X2287809Y2178967D01*
X2290537Y2172182D01*
X2294663Y2164331D01*
X2299635Y2156986D01*
X2305391Y2150239D01*
X2305500Y2150124D01*
X2311928Y2144150D01*
X2318100Y2139524D01*
X2325994Y2134908D01*
X2334338Y2131170D01*
X2343104Y2128391D01*
X2351291Y2126818D01*
X2353900Y2126524D01*
X2362200Y2126024D01*
X4488200D01*
X4499100Y2126824D01*
X4507678Y2128518D01*
X4516010Y2131168D01*
X4521082Y2133311D01*
X4529157Y2137654D01*
X4532546Y2139831D01*
X4539480Y2145113D01*
X4542800Y2148124D01*
X4548771Y2154549D01*
X4550200Y2156324D01*
X4555275Y2163722D01*
X4559507Y2171633D01*
X4562845Y2179961D01*
X4564500Y2185724D01*
X4566124Y2194173D01*
X4566400Y2196524D01*
X4567000Y2204724D01*
Y3110324D01*
X4566200Y3121324D01*
X4564506Y3129901D01*
X4561856Y3138233D01*
X4559713Y3143305D01*
X4555429Y3151256D01*
X4551577Y3157002D01*
X4545998Y3163780D01*
X4540900Y3168824D01*
X4536700Y3172424D01*
X4529302Y3177498D01*
X4521391Y3181730D01*
X4513063Y3185068D01*
X4504635Y3187327D01*
X4496334Y3188676D01*
X4491000Y3189024D01*
X2362200D01*
Y4252036D02*
X2354049Y4251699D01*
X2345800Y4250336D01*
X2337546Y4248140D01*
X2330100Y4245236D01*
X2322699Y4241449D01*
X2320994Y4240412D01*
X2313169Y4234915D01*
X2312585Y4234454D01*
X2306361Y4228873D01*
X2303700Y4226036D01*
X2298348Y4219371D01*
X2295031Y4214284D01*
X2290505Y4205714D01*
X2288547Y4201199D01*
X2285847Y4192610D01*
X2285177Y4189776D01*
X2283835Y4181275D01*
X2283500Y4176136D01*
Y3267736D01*
X2283963Y3259006D01*
X2285405Y3250384D01*
X2287809Y3241979D01*
X2290537Y3235195D01*
X2294663Y3227344D01*
X2299635Y3219998D01*
X2305392Y3213250D01*
X2305500Y3213136D01*
X2311928Y3207162D01*
X2318100Y3202536D01*
X2325994Y3197921D01*
X2334338Y3194182D01*
X2343104Y3191403D01*
X2351291Y3189830D01*
X2353900Y3189536D01*
X2362200Y3189036D01*
X4488200D01*
X4499100Y3189836D01*
X4507678Y3191530D01*
X4516010Y3194180D01*
X4521082Y3196323D01*
X4529157Y3200666D01*
X4532546Y3202843D01*
X4539480Y3208125D01*
X4542800Y3211136D01*
X4548771Y3217561D01*
X4550200Y3219336D01*
X4555275Y3226735D01*
X4559507Y3234645D01*
X4562845Y3242973D01*
X4564500Y3248736D01*
X4566124Y3257185D01*
X4566400Y3259536D01*
X4567000Y3267736D01*
Y4173336D01*
X4566200Y4184336D01*
X4564506Y4192913D01*
X4561856Y4201245D01*
X4559713Y4206318D01*
X4555430Y4214268D01*
X4551577Y4220014D01*
X4545998Y4226793D01*
X4540900Y4231836D01*
X4536700Y4235436D01*
X4529302Y4240510D01*
X4521391Y4244742D01*
X4513063Y4248081D01*
X4504635Y4250337D01*
X4496351Y4251687D01*
X4491000Y4252036D01*
X2362200D01*
X0Y78699D02*
X463Y69969D01*
X1905Y61347D01*
X4309Y52942D01*
X7036Y46158D01*
X11139Y38357D01*
X15193Y32257D01*
X20815Y25430D01*
X26000Y20299D01*
X32664Y14949D01*
X37753Y11631D01*
X46327Y7103D01*
X50838Y5146D01*
X58002Y2788D01*
X59600Y2399D01*
X65000Y1199D01*
X70400Y499D01*
X78700Y-1D01*
Y-39371D01*
X-39370D01*
Y78699D01*
X0D01*
X6771700Y-1D02*
X6780297Y497D01*
X6782600Y799D01*
X6791178Y2494D01*
X6799510Y5143D01*
X6804582Y7286D01*
X6812533Y11571D01*
X6818278Y15422D01*
X6825056Y21001D01*
X6830100Y26099D01*
X6833700Y30299D01*
X6838775Y37698D01*
X6843007Y45609D01*
X6846345Y53936D01*
X6848018Y59707D01*
X6849576Y67607D01*
X6849900Y70499D01*
X6850500Y78699D01*
X6889871D01*
Y-39371D01*
X6771700D01*
Y-1D01*
X78700Y5315048D02*
X70549Y5314711D01*
X62300Y5313348D01*
X54046Y5311152D01*
X46600Y5308248D01*
X39199Y5304461D01*
X37494Y5303424D01*
X29670Y5297928D01*
X29085Y5297466D01*
X22861Y5291885D01*
X20200Y5289048D01*
X14470Y5281964D01*
X13400Y5280448D01*
X8785Y5272555D01*
X5047Y5264211D01*
X2688Y5257047D01*
X2300Y5255448D01*
X649Y5246892D01*
X0Y5239148D01*
X-39370D01*
Y5354418D01*
X78700D01*
Y5315048D01*
X6850500Y5236348D02*
X6850014Y5244944D01*
X6849700Y5247348D01*
X6848006Y5255926D01*
X6845356Y5264258D01*
X6841524Y5272695D01*
X6839271Y5276758D01*
X6834253Y5284134D01*
X6832000Y5286948D01*
X6825683Y5293650D01*
X6820200Y5298448D01*
X6812802Y5303523D01*
X6804891Y5307755D01*
X6796563Y5311093D01*
X6790800Y5312748D01*
X6782243Y5314400D01*
X6774500Y5315048D01*
Y5354418D01*
X6889871D01*
Y5236348D01*
X6850500D01*
X6774500Y2126011D02*
X6782700Y2125217D01*
X6790575Y2123768D01*
X6790800Y2123711D01*
X6796100Y2122211D01*
X6804448Y2118923D01*
X6812384Y2114738D01*
X6820200Y2109411D01*
X6824400Y2105811D01*
X6828400Y2102011D01*
X6832000Y2097911D01*
X6837119Y2091235D01*
X6841422Y2084005D01*
X6843213Y2080293D01*
X6846447Y2072170D01*
X6848746Y2063734D01*
X6849700Y2058311D01*
X6850470Y2048726D01*
X6850500Y2047311D01*
Y1141711D01*
X6849900Y1133511D01*
X6848533Y1124910D01*
X6846500Y1117411D01*
X6843212Y1109064D01*
X6839027Y1101128D01*
X6833700Y1093311D01*
X6830100Y1089111D01*
X6823877Y1082952D01*
X6822200Y1081511D01*
X6815524Y1076393D01*
X6808295Y1072090D01*
X6804582Y1070299D01*
X6796459Y1067065D01*
X6788023Y1064765D01*
X6782600Y1063811D01*
X6773004Y1063040D01*
X6771700Y1063011D01*
X4645700D01*
X4637400Y1063511D01*
X4629183Y1064786D01*
X4621175Y1067023D01*
X4620464Y1067273D01*
X4611475Y1071002D01*
X4604716Y1074552D01*
X4597416Y1079559D01*
X4595022Y1081480D01*
X4588675Y1087503D01*
X4585400Y1091211D01*
X4580282Y1097888D01*
X4575979Y1105117D01*
X4574037Y1109170D01*
X4570851Y1117311D01*
X4568603Y1125759D01*
X4567320Y1134406D01*
X4567000Y1141711D01*
Y2050111D01*
X4567813Y2058920D01*
X4569300Y2066411D01*
X4570800Y2071711D01*
X4574173Y2080210D01*
X4578441Y2088296D01*
X4582654Y2094609D01*
X4583600Y2095811D01*
X4589636Y2102655D01*
X4591000Y2104011D01*
X4598391Y2110235D01*
X4603900Y2114111D01*
X4608700Y2116811D01*
X4617051Y2120644D01*
X4621570Y2122285D01*
X4629300Y2124311D01*
X4637347Y2125653D01*
X4645700Y2126011D01*
X6774500D01*
Y3189024D02*
X6782700Y3188230D01*
X6790575Y3186781D01*
X6790800Y3186724D01*
X6796100Y3185224D01*
X6804448Y3181935D01*
X6812384Y3177751D01*
X6820200Y3172424D01*
X6824400Y3168824D01*
X6828400Y3165024D01*
X6832000Y3160924D01*
X6837119Y3154247D01*
X6841422Y3147018D01*
X6843213Y3143305D01*
X6846447Y3135182D01*
X6848746Y3126747D01*
X6849700Y3121324D01*
X6850470Y3111739D01*
X6850500Y3110324D01*
Y2204724D01*
X6849900Y2196524D01*
X6848533Y2187923D01*
X6846500Y2180424D01*
X6843212Y2172076D01*
X6839027Y2164140D01*
X6833700Y2156324D01*
X6830100Y2152124D01*
X6823877Y2145965D01*
X6822200Y2144524D01*
X6815524Y2139405D01*
X6808295Y2135102D01*
X6804582Y2133311D01*
X6796459Y2130077D01*
X6788023Y2127778D01*
X6782600Y2126824D01*
X6773004Y2126053D01*
X6771700Y2126024D01*
X4645700D01*
X4637400Y2126524D01*
X4629183Y2127799D01*
X4621175Y2130036D01*
X4620464Y2130286D01*
X4611477Y2134014D01*
X4604716Y2137565D01*
X4597417Y2142571D01*
X4595022Y2144493D01*
X4588675Y2150516D01*
X4585400Y2154224D01*
X4580282Y2160900D01*
X4575979Y2168129D01*
X4574037Y2172182D01*
X4570851Y2180323D01*
X4568603Y2188771D01*
X4567320Y2197418D01*
X4567000Y2204724D01*
Y3113124D01*
X4567813Y3121933D01*
X4569300Y3129424D01*
X4570800Y3134724D01*
X4574173Y3143222D01*
X4578441Y3151308D01*
X4582653Y3157621D01*
X4583600Y3158824D01*
X4589636Y3165668D01*
X4591000Y3167024D01*
X4598391Y3173247D01*
X4603900Y3177124D01*
X4608700Y3179824D01*
X4617047Y3183655D01*
X4621570Y3185297D01*
X4629300Y3187324D01*
X4637347Y3188666D01*
X4645700Y3189024D01*
X6774500D01*
Y4252036D02*
X6782700Y4251242D01*
X6790575Y4249793D01*
X6790800Y4249736D01*
X6796100Y4248236D01*
X6804448Y4244947D01*
X6812384Y4240763D01*
X6820200Y4235436D01*
X6824400Y4231836D01*
X6828400Y4228036D01*
X6832000Y4223936D01*
X6837119Y4217260D01*
X6841422Y4210030D01*
X6843213Y4206318D01*
X6846447Y4198194D01*
X6848746Y4189759D01*
X6849700Y4184336D01*
X6850470Y4174751D01*
X6850500Y4173336D01*
Y3267736D01*
X6849900Y3259536D01*
X6848533Y3250935D01*
X6846500Y3243436D01*
X6843212Y3235089D01*
X6839027Y3227153D01*
X6833700Y3219336D01*
X6830100Y3215136D01*
X6823877Y3208977D01*
X6822200Y3207536D01*
X6815524Y3202417D01*
X6808295Y3198114D01*
X6804582Y3196323D01*
X6796459Y3193089D01*
X6788023Y3190790D01*
X6782600Y3189836D01*
X6773004Y3189065D01*
X6771700Y3189036D01*
X4645700D01*
X4637400Y3189536D01*
X4629183Y3190811D01*
X4621175Y3193048D01*
X4620464Y3193298D01*
X4611475Y3197027D01*
X4604716Y3200577D01*
X4597416Y3205584D01*
X4595022Y3207505D01*
X4588675Y3213528D01*
X4585400Y3217236D01*
X4580282Y3223912D01*
X4575979Y3231142D01*
X4574037Y3235195D01*
X4570851Y3243336D01*
X4568603Y3251783D01*
X4567320Y3260431D01*
X4567000Y3267736D01*
Y4176136D01*
X4567813Y4184945D01*
X4569300Y4192436D01*
X4570800Y4197736D01*
X4574173Y4206234D01*
X4578441Y4214320D01*
X4582653Y4220633D01*
X4583600Y4221836D01*
X4589636Y4228680D01*
X4591000Y4230036D01*
X4598391Y4236259D01*
X4603900Y4240136D01*
X4608700Y4242836D01*
X4617051Y4246669D01*
X4621570Y4248310D01*
X4629300Y4250336D01*
X4637347Y4251678D01*
X4645700Y4252036D01*
X6774500D01*
X78700Y2126017D02*
X70549Y2125677D01*
X62300Y2124311D01*
X54046Y2122115D01*
X46600Y2119211D01*
X39199Y2115424D01*
X37494Y2114387D01*
X29669Y2108890D01*
X29085Y2108429D01*
X22861Y2102848D01*
X20200Y2100011D01*
X14848Y2093346D01*
X11531Y2088259D01*
X7005Y2079689D01*
X5047Y2075174D01*
X2347Y2066585D01*
X1677Y2063751D01*
X335Y2055250D01*
X0Y2050111D01*
Y1141711D01*
X463Y1132981D01*
X1905Y1124359D01*
X4309Y1115954D01*
X7036Y1109170D01*
X11162Y1101319D01*
X16134Y1093974D01*
X21891Y1087226D01*
X22000Y1087111D01*
X28428Y1081137D01*
X34600Y1076511D01*
X42493Y1071896D01*
X50838Y1068158D01*
X59604Y1065378D01*
X67792Y1063805D01*
X70400Y1063511D01*
X78700Y1063011D01*
X2204700D01*
X2215600Y1063811D01*
X2224178Y1065506D01*
X2232510Y1068155D01*
X2237582Y1070299D01*
X2245660Y1074644D01*
X2249046Y1076818D01*
X2255979Y1082099D01*
X2259300Y1085111D01*
X2265271Y1091536D01*
X2266700Y1093311D01*
X2271775Y1100710D01*
X2276007Y1108621D01*
X2279345Y1116948D01*
X2281000Y1122711D01*
X2282624Y1131160D01*
X2282900Y1133511D01*
X2283500Y1141711D01*
Y2047311D01*
X2282700Y2058311D01*
X2281006Y2066889D01*
X2278356Y2075221D01*
X2276213Y2080293D01*
X2271929Y2088244D01*
X2268077Y2093989D01*
X2262498Y2100767D01*
X2257400Y2105811D01*
X2253200Y2109411D01*
X2245802Y2114486D01*
X2237891Y2118718D01*
X2229563Y2122056D01*
X2221135Y2124312D01*
X2212851Y2125662D01*
X2207500Y2126011D01*
X76124Y2126095D01*
X70400Y2126524D01*
X61764Y2127903D01*
X54300Y2129924D01*
X45802Y2133296D01*
X37716Y2137565D01*
X30417Y2142571D01*
X28022Y2144493D01*
X21675Y2150516D01*
X18400Y2154224D01*
X13281Y2160900D01*
X8979Y2168130D01*
X7036Y2172182D01*
X3851Y2180323D01*
X1603Y2188771D01*
X320Y2197418D01*
X0Y2204724D01*
Y3113124D01*
X813Y3121933D01*
X2300Y3129424D01*
X3800Y3134724D01*
X7173Y3143222D01*
X11441Y3151308D01*
X15653Y3157621D01*
X16600Y3158824D01*
X22636Y3165668D01*
X24000Y3167024D01*
X31391Y3173247D01*
X36900Y3177124D01*
X41700Y3179824D01*
X50048Y3183655D01*
X54569Y3185297D01*
X62300Y3187324D01*
X70347Y3188666D01*
X78700Y3189024D01*
X2207500D01*
X2216309Y3188211D01*
X2223800Y3186724D01*
X2229100Y3185224D01*
X2237447Y3181935D01*
X2245384Y3177751D01*
X2253200Y3172424D01*
X2257400Y3168824D01*
X2261400Y3165024D01*
X2265000Y3160924D01*
X2270119Y3154247D01*
X2274422Y3147018D01*
X2276213Y3143305D01*
X2279447Y3135182D01*
X2281746Y3126747D01*
X2282700Y3121324D01*
X2283470Y3111739D01*
X2283500Y3110324D01*
Y2204724D01*
X2282900Y2196524D01*
X2281533Y2187923D01*
X2279500Y2180424D01*
X2276212Y2172076D01*
X2272027Y2164140D01*
X2266700Y2156324D01*
X2263100Y2152124D01*
X2256877Y2145965D01*
X2255200Y2144524D01*
X2248524Y2139405D01*
X2241294Y2135102D01*
X2237582Y2133311D01*
X2229459Y2130077D01*
X2221023Y2127778D01*
X2215600Y2126824D01*
X2206004Y2126053D01*
X2204700Y2126024D01*
X78700Y2126017D01*
X-196850Y5492214D02*
Y-177166D01*
X-196359Y-181537D01*
X-194909Y-185690D01*
X-192573Y-189417D01*
X-189468Y-192533D01*
X-185749Y-194881D01*
X-181601Y-196345D01*
X-177232Y-196851D01*
X7027733D01*
X7032102Y-196345D01*
X7036250Y-194881D01*
X7039969Y-192533D01*
X7043074Y-189417D01*
X7045410Y-185690D01*
X7046859Y-181537D01*
X7047351Y-177166D01*
Y5492280D01*
X7046844Y5496650D01*
X7045381Y5500798D01*
X7043032Y5504517D01*
X7039917Y5507622D01*
X7036190Y5509957D01*
X7032037Y5511407D01*
X7027666Y5511899D01*
X-177165D01*
X-181536Y5511407D01*
X-185689Y5509957D01*
X-189416Y5507622D01*
X-192532Y5504517D01*
X-194880Y5500798D01*
X-196344Y5496650D01*
X-196850Y5492280D01*
Y5492214D01*
X0Y4162641D02*
X-59055D01*
Y4330748D01*
X0D01*
X463Y4322018D01*
X1905Y4313396D01*
X4309Y4304991D01*
X7036Y4298207D01*
X11162Y4290356D01*
X16134Y4283011D01*
X21891Y4276263D01*
X22000Y4276148D01*
X28428Y4270174D01*
X34600Y4265548D01*
X42493Y4260933D01*
X50838Y4257195D01*
X59604Y4254415D01*
X67792Y4252842D01*
X70400Y4252548D01*
X76124Y4252119D01*
X2207500Y4252036D01*
X2216310Y4251223D01*
X2223800Y4249736D01*
X2229100Y4248236D01*
X2237447Y4244947D01*
X2245384Y4240763D01*
X2253200Y4235436D01*
X2257400Y4231836D01*
X2261400Y4228036D01*
X2265000Y4223936D01*
X2270119Y4217260D01*
X2274422Y4210030D01*
X2276213Y4206318D01*
X2279447Y4198194D01*
X2281746Y4189759D01*
X2282700Y4184336D01*
X2283470Y4174751D01*
X2283500Y4173336D01*
Y3267736D01*
X2282900Y3259536D01*
X2281533Y3250935D01*
X2279500Y3243436D01*
X2276212Y3235089D01*
X2272027Y3227153D01*
X2266700Y3219336D01*
X2263100Y3215136D01*
X2256877Y3208977D01*
X2255200Y3207536D01*
X2248524Y3202417D01*
X2241294Y3198114D01*
X2237582Y3196323D01*
X2229459Y3193089D01*
X2221023Y3190790D01*
X2215600Y3189836D01*
X2206004Y3189065D01*
X2204700Y3189036D01*
X78700D01*
X70400Y3189536D01*
X62183Y3190811D01*
X54175Y3193048D01*
X53464Y3193298D01*
X44475Y3197027D01*
X37716Y3200577D01*
X30416Y3205584D01*
X28022Y3207505D01*
X21675Y3213528D01*
X18400Y3217236D01*
X13281Y3223912D01*
X8979Y3231142D01*
X7036Y3235195D01*
X3851Y3243336D01*
X1603Y3251783D01*
X320Y3260431D01*
X0Y3267736D01*
Y4176136D01*
X813Y4184945D01*
X2300Y4192436D01*
X3800Y4197736D01*
X7173Y4206235D01*
X11441Y4214321D01*
X15654Y4220634D01*
X16600Y4221836D01*
X22636Y4228680D01*
X24000Y4230036D01*
X31391Y4236259D01*
X36900Y4240136D01*
X41700Y4242836D01*
X50052Y4246669D01*
X54569Y4248310D01*
X62300Y4250336D01*
X70347Y4251681D01*
X78700Y4252042D01*
X2204700Y4252048D01*
X2215600Y4252848D01*
X2224178Y4254543D01*
X2232510Y4257192D01*
X2237582Y4259336D01*
X2245535Y4263622D01*
X2251277Y4267472D01*
X2258055Y4273050D01*
X2263100Y4278148D01*
X2266700Y4282348D01*
X2271775Y4289747D01*
X2276007Y4297658D01*
X2279345Y4305985D01*
X2281018Y4311756D01*
X2282576Y4319656D01*
X2282900Y4322548D01*
X2283500Y4330748D01*
X2283963Y4322018D01*
X2285405Y4313396D01*
X2287809Y4304991D01*
X2290537Y4298207D01*
X2294663Y4290355D01*
X2299636Y4283009D01*
X2305393Y4276260D01*
X2305500Y4276148D01*
X2311928Y4270174D01*
X2318100Y4265548D01*
X2325994Y4260933D01*
X2334338Y4257195D01*
X2343104Y4254415D01*
X2351292Y4252842D01*
X2353900Y4252548D01*
X2362200Y4252048D01*
X4488200D01*
X4499100Y4252848D01*
X4507678Y4254543D01*
X4516010Y4257192D01*
X4521082Y4259336D01*
X4529035Y4263622D01*
X4534777Y4267472D01*
X4541555Y4273050D01*
X4546600Y4278148D01*
X4550200Y4282348D01*
X4555275Y4289747D01*
X4559507Y4297658D01*
X4562845Y4305985D01*
X4564518Y4311756D01*
X4566076Y4319656D01*
X4566400Y4322548D01*
X4567000Y4330748D01*
X4567463Y4322018D01*
X4568905Y4313396D01*
X4571309Y4304991D01*
X4574037Y4298207D01*
X4578163Y4290355D01*
X4583136Y4283009D01*
X4588893Y4276260D01*
X4589000Y4276148D01*
X4595428Y4270174D01*
X4601600Y4265548D01*
X4609494Y4260933D01*
X4617838Y4257195D01*
X4626604Y4254415D01*
X4634792Y4252842D01*
X4637400Y4252548D01*
X4645700Y4252048D01*
X6771700D01*
X6782600Y4252848D01*
X6791178Y4254543D01*
X6799510Y4257192D01*
X6804582Y4259336D01*
X6812660Y4263681D01*
X6816046Y4265855D01*
X6822979Y4271136D01*
X6826300Y4274148D01*
X6832271Y4280573D01*
X6833700Y4282348D01*
X6838775Y4289747D01*
X6843007Y4297658D01*
X6846345Y4305985D01*
X6848000Y4311748D01*
X6849624Y4320197D01*
X6849900Y4322548D01*
X6850500Y4330748D01*
Y5236469D01*
X0Y78157D02*
Y987099D01*
X813Y995908D01*
X2300Y1003399D01*
X3800Y1008699D01*
X7173Y1017198D01*
X11441Y1025284D01*
X15654Y1031597D01*
X16600Y1032799D01*
X22636Y1039643D01*
X24000Y1040999D01*
X31391Y1047222D01*
X36900Y1051099D01*
X41700Y1053799D01*
X50052Y1057632D01*
X54569Y1059273D01*
X62300Y1061299D01*
X70347Y1062641D01*
X78700Y1062999D01*
X2207500D01*
X2216309Y1062186D01*
X2223800Y1060699D01*
X2229100Y1059199D01*
X2237447Y1055911D01*
X2245384Y1051726D01*
X2253200Y1046399D01*
X2257400Y1042799D01*
X2261400Y1038999D01*
X2265000Y1034899D01*
X2270119Y1028223D01*
X2274422Y1020993D01*
X2276213Y1017281D01*
X2279447Y1009158D01*
X2281746Y1000722D01*
X2282700Y995299D01*
X2283470Y985714D01*
X2283500Y984299D01*
Y78158D01*
X2284024Y69431D01*
X2285526Y60819D01*
X2287989Y52432D01*
X2290537Y46158D01*
X2294695Y38272D01*
X2299699Y30894D01*
X2305487Y24113D01*
X2305500Y24099D01*
X2311928Y18125D01*
X2318100Y13499D01*
X2325994Y8884D01*
X2334338Y5146D01*
X2343104Y2366D01*
X2351293Y793D01*
X2353900Y499D01*
X2362200Y-1D01*
X4488200D01*
X4499100Y799D01*
X4507678Y2494D01*
X4516010Y5143D01*
X4521082Y7286D01*
X4529033Y11571D01*
X4534778Y15422D01*
X4541556Y21001D01*
X4546600Y26099D01*
X4550200Y30299D01*
X4555275Y37698D01*
X4559507Y45609D01*
X4562845Y53936D01*
X4564518Y59707D01*
X4566076Y67607D01*
X4566400Y70499D01*
X4567000Y78699D01*
X4567463Y69969D01*
X4568905Y61347D01*
X4571309Y52942D01*
X4574037Y46158D01*
X4578163Y38306D01*
X4583135Y30961D01*
X4588892Y24213D01*
X4589000Y24099D01*
X4595428Y18125D01*
X4601600Y13499D01*
X4609494Y8884D01*
X4617838Y5146D01*
X4626604Y2366D01*
X4634793Y793D01*
X4637400Y499D01*
X4645700Y-1D01*
X6771700D01*
X2283500Y78699D02*
X2282900Y70499D01*
X2281533Y61898D01*
X2279500Y54399D01*
X2276212Y46052D01*
X2272027Y38116D01*
X2266700Y30299D01*
X2263100Y26099D01*
X2256877Y19940D01*
X2255200Y18499D01*
X2248524Y13380D01*
X2241294Y9078D01*
X2237582Y7286D01*
X2229459Y4052D01*
X2221023Y1753D01*
X2215600Y799D01*
X2206004Y28D01*
X2204700Y-1D01*
Y-58976D01*
X2362200D01*
Y-1D01*
X4645700D02*
Y-58976D01*
X4488200D01*
Y-1D01*
X0Y973665D02*
X-59055D01*
Y1141711D01*
X0D01*
Y2036657D02*
X-59055D01*
Y2204724D01*
X0D01*
Y3099649D02*
X-59055D01*
Y3267736D01*
X0D01*
X6850500Y2036657D02*
X6909484D01*
Y2204724D01*
X6850500D01*
Y3099649D02*
X6909484D01*
Y3267736D01*
X6850500D01*
Y4162641D02*
X6909484D01*
Y4330748D01*
X6850500D01*
X2283500D02*
Y5236348D01*
X2282700Y5247348D01*
X2281006Y5255926D01*
X2278356Y5264258D01*
X2276213Y5269330D01*
X2271929Y5277281D01*
X2268077Y5283026D01*
X2262498Y5289804D01*
X2257400Y5294848D01*
X2253200Y5298448D01*
X2245802Y5303523D01*
X2237891Y5307755D01*
X2229563Y5311093D01*
X2221135Y5313349D01*
X2212851Y5314699D01*
X2207500Y5315048D01*
X76119D01*
X2204700D02*
Y5374103D01*
X2362200D01*
Y5315048D01*
X4491000D01*
X4499200Y5314254D01*
X4507075Y5312805D01*
X4507300Y5312748D01*
X4512600Y5311248D01*
X4520948Y5307960D01*
X4528884Y5303775D01*
X4536700Y5298448D01*
X4540900Y5294848D01*
X4544900Y5291048D01*
X4548500Y5286948D01*
X4553619Y5280272D01*
X4557922Y5273042D01*
X4559713Y5269330D01*
X4562947Y5261207D01*
X4565246Y5252771D01*
X4566200Y5247348D01*
X4566963Y5238772D01*
X4567000Y5236348D01*
X4488165Y5315048D02*
Y5374103D01*
X4645700D01*
Y5315048D01*
X4637549Y5314711D01*
X4629300Y5313348D01*
X4621046Y5311152D01*
X4613600Y5308248D01*
X4606201Y5304462D01*
X4604494Y5303424D01*
X4596668Y5297926D01*
X4596086Y5297466D01*
X4589860Y5291884D01*
X4587200Y5289048D01*
X4581848Y5282383D01*
X4578531Y5277296D01*
X4574005Y5268726D01*
X4572047Y5264211D01*
X4569347Y5255622D01*
X4568677Y5252788D01*
X4567335Y5244287D01*
X4567000Y5239148D01*
Y4330748D01*
X2283500Y5239148D02*
X2284294Y5247349D01*
X2285744Y5255223D01*
X2285800Y5255448D01*
X2287300Y5260748D01*
X2290673Y5269247D01*
X2294941Y5277333D01*
X2299154Y5283646D01*
X2300100Y5284848D01*
X2306136Y5291692D01*
X2307500Y5293048D01*
X2314891Y5299272D01*
X2320400Y5303148D01*
X2325200Y5305848D01*
X2333552Y5309681D01*
X2338069Y5311322D01*
X2345800Y5313348D01*
X2353847Y5314690D01*
X2362200Y5315048D01*
X6850500Y78699D02*
Y984299D01*
X6849939Y993189D01*
X6848399Y1001963D01*
X6845899Y1010512D01*
X6843600Y1016293D01*
X6839588Y1024130D01*
X6834725Y1031468D01*
X6829071Y1038217D01*
X6824400Y1042799D01*
X6819813Y1046696D01*
X6812384Y1051726D01*
X6804448Y1055911D01*
X6796100Y1059199D01*
X6787782Y1061440D01*
X6779262Y1062715D01*
X6774500Y1062999D01*
X4645700D01*
X4637227Y1062591D01*
X4629290Y1061298D01*
X4620487Y1058856D01*
X4613600Y1056199D01*
X4606000Y1052333D01*
X4599415Y1048001D01*
X4592208Y1042012D01*
X4587200Y1036999D01*
X4581645Y1030109D01*
X4578441Y1025284D01*
X4574173Y1017198D01*
X4570800Y1008699D01*
X4568560Y1000381D01*
X4567284Y991861D01*
X4567000Y987099D01*
Y78158D01*
X6850500Y973665D02*
X6909484D01*
Y1141711D01*
X6850500D01*
X2283500Y987099D02*
X2284294Y995300D01*
X2285744Y1003174D01*
X2285800Y1003399D01*
X2287300Y1008699D01*
X2290673Y1017198D01*
X2294941Y1025284D01*
X2299154Y1031597D01*
X2300100Y1032799D01*
X2306136Y1039643D01*
X2307500Y1040999D01*
X2314891Y1047222D01*
X2320400Y1051099D01*
X2325200Y1053799D01*
X2333552Y1057632D01*
X2338069Y1059273D01*
X2345800Y1061299D01*
X2353847Y1062641D01*
X2362200Y1062999D01*
X4491000D01*
X4499809Y1062186D01*
X4507300Y1060699D01*
X4512600Y1059199D01*
X4520948Y1055911D01*
X4528884Y1051726D01*
X4536700Y1046399D01*
X4540900Y1042799D01*
X4544900Y1038999D01*
X4548500Y1034899D01*
X4553619Y1028223D01*
X4557922Y1020993D01*
X4559713Y1017281D01*
X4562947Y1009158D01*
X4565246Y1000722D01*
X4566200Y995299D01*
X4566963Y986723D01*
X4567000Y984299D01*
X-39370Y-1D02*
X-196850D01*
X2283500Y-58976D02*
Y-196851D01*
X6850500Y-39371D02*
Y-196851D01*
X0Y5354418D02*
Y5511899D01*
X6889871Y5315048D02*
X7047351D01*
X2283500Y5374103D02*
Y5511899D01*
X4567000Y5374103D02*
Y5511899D01*
X-39370Y5315048D02*
X-196850D01*
X0Y-39371D02*
Y-196851D01*
X2204700Y-1D02*
X78700D01*
X-196850Y1062999D02*
X-59055D01*
X-196850Y2126011D02*
X-59055D01*
X-196850Y3189024D02*
X-59055D01*
X-196850Y4252036D02*
X-59055D01*
X0Y5239148D02*
Y4330748D01*
X6850500Y5511899D02*
Y5354418D01*
X4645700Y5315048D02*
X6774500D01*
X6909484Y4252036D02*
X7047351D01*
X6909484Y3189024D02*
X7047351D01*
X6909484Y2126011D02*
X7047351D01*
X6909484Y1062999D02*
X7047351D01*
Y-1D02*
X6889871D01*
X4567000Y-58976D02*
Y-196851D01*
M02*
