*
%FSLAX36Y36*%
%MOIN*%
%ADD10R,0.063000X0.063000*%
%ADD11R,0.051200X0.051200*%
%ADD12C,0.023600*%
%ADD13R,0.023600X0.023600*%
%ADD14R,0.033500X0.033500*%
%ADD15R,0.015700X0.015700*%
%ADD16C,0.009100*%
%ADD17R,0.009100X0.009100*%
%ADD18R,0.011800X0.011800*%
%ADD19C,0.011800*%
%ADD20R,0.017700X0.017700*%
%ADD21R,0.032300X0.032300*%
%ADD22R,0.028400X0.028400*%
%ADD23C,0.028600*%
%ADD24R,0.027600X0.027600*%
%ADD25C,0.039370*%
%ADD26C,0.002126*%
%ADD27C,0.002000*%
%IPPOS*%
%LN037377s04ua0k.gtp*%
%LPD*%
G75*
G54D10*
X1937600Y498131D02*
X2012400D01*
X1957300Y723131D02*
X1992700D01*
G54D11*
X841050Y618131D02*
X848950D01*
X841050Y543131D02*
X848950D01*
X1916050Y341131D02*
X1923950D01*
X1916050Y416131D02*
X1923950D01*
G54D12*
X1818400Y724131D02*
X1871600D01*
X1818400Y774131D02*
X1871600D01*
X1818400Y824131D02*
X1871600D01*
X1818400Y874131D02*
X1871600D01*
X1548400Y724131D02*
X1601600D01*
X1548400Y774131D02*
X1601600D01*
X1548400Y824131D02*
X1601600D01*
X1458400Y724131D02*
X1511600D01*
X1458400Y774131D02*
X1511600D01*
X1458400Y824131D02*
X1511600D01*
X1458400Y874131D02*
X1511600D01*
X1188400Y724131D02*
X1241600D01*
X1188400Y774131D02*
X1241600D01*
X1188400Y824131D02*
X1241600D01*
G54D13*
X1548400Y874131D02*
X1601600D01*
X1188400D02*
X1241600D01*
G54D11*
X1157000Y405181D02*
Y413081D01*
X1232000Y405181D02*
Y413081D01*
G54D14*
X1228150Y590131D02*
X1241850D01*
X1228150Y664131D02*
X1241850D01*
X1137150Y627131D02*
X1150850D01*
G54D15*
X1164000Y548181D02*
Y556081D01*
Y473181D02*
Y481081D01*
X1190000Y473181D02*
Y481081D01*
X1215000Y473181D02*
Y481081D01*
Y548181D02*
Y556081D01*
X1190000Y548181D02*
Y556081D01*
G54D16*
X350000Y579981D02*
Y610281D01*
X366000Y713981D02*
Y744281D01*
Y579981D02*
Y610281D01*
X381000Y713981D02*
Y744281D01*
Y579981D02*
Y610281D01*
X397000Y713981D02*
Y744281D01*
Y579981D02*
Y610281D01*
X350000Y713981D02*
Y744281D01*
X413000Y713981D02*
Y744281D01*
Y579981D02*
Y610281D01*
X429000Y713981D02*
Y744281D01*
Y579981D02*
Y610281D01*
X444000Y713981D02*
Y744281D01*
Y579981D02*
Y610281D01*
X460000Y713981D02*
Y744281D01*
Y579981D02*
Y610281D01*
X476000Y713981D02*
Y744281D01*
Y579981D02*
Y610281D01*
X492000Y713981D02*
Y744281D01*
Y579981D02*
Y610281D01*
X507000Y713981D02*
Y744281D01*
Y579981D02*
Y610281D01*
X523000Y713981D02*
Y744281D01*
Y579981D02*
Y610281D01*
X539000Y713981D02*
Y744281D01*
Y579981D02*
Y610281D01*
X555000Y713981D02*
Y744281D01*
G54D17*
Y579981D02*
Y610281D01*
G54D18*
X212300Y434131D02*
X243700D01*
G54D19*
X212300Y440031D02*
X243700D01*
X212300Y428231D02*
X243700D01*
G54D18*
X212300Y292131D02*
X243700D01*
G54D19*
X212300Y298031D02*
X243700D01*
X212300Y286231D02*
X243700D01*
G54D18*
X31300Y292131D02*
X62700D01*
G54D19*
X31300Y298031D02*
X62700D01*
X31300Y286231D02*
X62700D01*
G54D18*
X31300Y434131D02*
X62700D01*
G54D19*
X31300Y440031D02*
X62700D01*
X31300Y428231D02*
X62700D01*
G54D20*
X126150Y461131D02*
X147850D01*
X126150Y264131D02*
X147850D01*
G54D21*
X1445000Y440731D02*
Y467531D01*
X1488000Y440731D02*
Y467531D01*
X1532000Y440731D02*
Y467531D01*
X1575000Y440731D02*
Y467531D01*
X1618000Y440731D02*
Y467531D01*
X1661000Y440731D02*
Y467531D01*
X1705000Y440731D02*
Y467531D01*
X1748000Y440731D02*
Y467531D01*
G54D22*
X1842000Y529031D02*
Y579231D01*
G54D23*
X1827800Y529131D02*
Y579131D01*
X1856200Y529131D02*
Y579131D01*
G54D22*
X1300000Y529031D02*
Y579231D01*
G54D23*
X1285800Y529131D02*
Y579131D01*
X1314200Y529131D02*
Y579131D01*
G54D22*
X1300000Y202031D02*
Y252231D01*
G54D23*
X1285800Y202131D02*
Y252131D01*
X1314200Y202131D02*
Y252131D01*
G54D22*
X1842000Y202031D02*
Y252231D01*
G54D23*
X1827800Y202131D02*
Y252131D01*
X1856200Y202131D02*
Y252131D01*
G54D24*
X1138050Y775131D02*
X1141950D01*
X1138050Y834131D02*
X1141950D01*
X1933050Y795131D02*
X1936950D01*
X1933050Y854131D02*
X1936950D01*
X1028050Y369131D02*
X1031950D01*
X1028050Y310131D02*
X1031950D01*
X973050Y529131D02*
X976950D01*
X973050Y588131D02*
X976950D01*
X973050Y478131D02*
X976950D01*
X973050Y419131D02*
X976950D01*
X318050Y353131D02*
X321950D01*
X318050Y294131D02*
X321950D01*
X918050Y698131D02*
X921950D01*
X918050Y639131D02*
X921950D01*
X918050Y529131D02*
X921950D01*
X918050Y588131D02*
X921950D01*
X973050Y639131D02*
X976950D01*
X973050Y698131D02*
X976950D01*
X1028050Y529131D02*
X1031950D01*
X1028050Y588131D02*
X1031950D01*
X1028050Y478131D02*
X1031950D01*
X1028050Y419131D02*
X1031950D01*
G54D10*
X1937600Y1561130D02*
X2012400D01*
X1957300Y1786130D02*
X1992700D01*
G54D11*
X841050Y1681130D02*
X848950D01*
X841050Y1606130D02*
X848950D01*
X1916050Y1404130D02*
X1923950D01*
X1916050Y1479130D02*
X1923950D01*
G54D12*
X1818400Y1787130D02*
X1871600D01*
X1818400Y1837130D02*
X1871600D01*
X1818400Y1887130D02*
X1871600D01*
X1818400Y1937130D02*
X1871600D01*
X1548400Y1787130D02*
X1601600D01*
X1548400Y1837130D02*
X1601600D01*
X1548400Y1887130D02*
X1601600D01*
X1458400Y1787130D02*
X1511600D01*
X1458400Y1837130D02*
X1511600D01*
X1458400Y1887130D02*
X1511600D01*
X1458400Y1937130D02*
X1511600D01*
X1188400Y1787130D02*
X1241600D01*
X1188400Y1837130D02*
X1241600D01*
X1188400Y1887130D02*
X1241600D01*
G54D13*
X1548400Y1937130D02*
X1601600D01*
X1188400D02*
X1241600D01*
G54D11*
X1157000Y1468180D02*
Y1476080D01*
X1232000Y1468180D02*
Y1476080D01*
G54D14*
X1228150Y1653130D02*
X1241850D01*
X1228150Y1727130D02*
X1241850D01*
X1137150Y1690130D02*
X1150850D01*
G54D15*
X1164000Y1611180D02*
Y1619080D01*
Y1536180D02*
Y1544080D01*
X1190000Y1536180D02*
Y1544080D01*
X1215000Y1536180D02*
Y1544080D01*
Y1611180D02*
Y1619080D01*
X1190000Y1611180D02*
Y1619080D01*
G54D16*
X350000Y1642981D02*
Y1673280D01*
X366000Y1776981D02*
Y1807280D01*
Y1642981D02*
Y1673280D01*
X381000Y1776981D02*
Y1807280D01*
Y1642981D02*
Y1673280D01*
X397000Y1776981D02*
Y1807280D01*
Y1642981D02*
Y1673280D01*
X350000Y1776981D02*
Y1807280D01*
X413000Y1776981D02*
Y1807280D01*
Y1642981D02*
Y1673280D01*
X429000Y1776981D02*
Y1807280D01*
Y1642981D02*
Y1673280D01*
X444000Y1776981D02*
Y1807280D01*
Y1642981D02*
Y1673280D01*
X460000Y1776981D02*
Y1807280D01*
Y1642981D02*
Y1673280D01*
X476000Y1776981D02*
Y1807280D01*
Y1642981D02*
Y1673280D01*
X492000Y1776981D02*
Y1807280D01*
Y1642981D02*
Y1673280D01*
X507000Y1776981D02*
Y1807280D01*
Y1642981D02*
Y1673280D01*
X523000Y1776981D02*
Y1807280D01*
Y1642981D02*
Y1673280D01*
X539000Y1776981D02*
Y1807280D01*
Y1642981D02*
Y1673280D01*
X555000Y1776981D02*
Y1807280D01*
G54D17*
Y1642981D02*
Y1673280D01*
G54D18*
X212300Y1497130D02*
X243700D01*
G54D19*
X212300Y1503030D02*
X243700D01*
X212300Y1491230D02*
X243700D01*
G54D18*
X212300Y1355130D02*
X243700D01*
G54D19*
X212300Y1361030D02*
X243700D01*
X212300Y1349230D02*
X243700D01*
G54D18*
X31300Y1355130D02*
X62700D01*
G54D19*
X31300Y1361030D02*
X62700D01*
X31300Y1349230D02*
X62700D01*
G54D18*
X31300Y1497130D02*
X62700D01*
G54D19*
X31300Y1503030D02*
X62700D01*
X31300Y1491230D02*
X62700D01*
G54D20*
X126150Y1524130D02*
X147850D01*
X126150Y1327130D02*
X147850D01*
G54D21*
X1445000Y1503730D02*
Y1530530D01*
X1488000Y1503730D02*
Y1530530D01*
X1532000Y1503730D02*
Y1530530D01*
X1575000Y1503730D02*
Y1530530D01*
X1618000Y1503730D02*
Y1530530D01*
X1661000Y1503730D02*
Y1530530D01*
X1705000Y1503730D02*
Y1530530D01*
X1748000Y1503730D02*
Y1530530D01*
G54D22*
X1842000Y1592030D02*
Y1642230D01*
G54D23*
X1827800Y1592130D02*
Y1642130D01*
X1856200Y1592130D02*
Y1642130D01*
G54D22*
X1300000Y1592030D02*
Y1642230D01*
G54D23*
X1285800Y1592130D02*
Y1642130D01*
X1314200Y1592130D02*
Y1642130D01*
G54D22*
X1300000Y1265030D02*
Y1315230D01*
G54D23*
X1285800Y1265130D02*
Y1315130D01*
X1314200Y1265130D02*
Y1315130D01*
G54D22*
X1842000Y1265030D02*
Y1315230D01*
G54D23*
X1827800Y1265130D02*
Y1315130D01*
X1856200Y1265130D02*
Y1315130D01*
G54D24*
X1138050Y1838130D02*
X1141950D01*
X1138050Y1897130D02*
X1141950D01*
X1933050Y1858130D02*
X1936950D01*
X1933050Y1917130D02*
X1936950D01*
X1028050Y1432130D02*
X1031950D01*
X1028050Y1373130D02*
X1031950D01*
X973050Y1592130D02*
X976950D01*
X973050Y1651130D02*
X976950D01*
X973050Y1541130D02*
X976950D01*
X973050Y1482130D02*
X976950D01*
X318050Y1416130D02*
X321950D01*
X318050Y1357130D02*
X321950D01*
X918050Y1761130D02*
X921950D01*
X918050Y1702130D02*
X921950D01*
X918050Y1592130D02*
X921950D01*
X918050Y1651130D02*
X921950D01*
X973050Y1702130D02*
X976950D01*
X973050Y1761130D02*
X976950D01*
X1028050Y1592130D02*
X1031950D01*
X1028050Y1651130D02*
X1031950D01*
X1028050Y1541130D02*
X1031950D01*
X1028050Y1482130D02*
X1031950D01*
G54D10*
X1937600Y2624130D02*
X2012400D01*
X1957300Y2849130D02*
X1992700D01*
G54D11*
X841050Y2744130D02*
X848950D01*
X841050Y2669130D02*
X848950D01*
X1916050Y2467130D02*
X1923950D01*
X1916050Y2542130D02*
X1923950D01*
G54D12*
X1818400Y2850130D02*
X1871600D01*
X1818400Y2900130D02*
X1871600D01*
X1818400Y2950130D02*
X1871600D01*
X1818400Y3000130D02*
X1871600D01*
X1548400Y2850130D02*
X1601600D01*
X1548400Y2900130D02*
X1601600D01*
X1548400Y2950130D02*
X1601600D01*
X1458400Y2850130D02*
X1511600D01*
X1458400Y2900130D02*
X1511600D01*
X1458400Y2950130D02*
X1511600D01*
X1458400Y3000130D02*
X1511600D01*
X1188400Y2850130D02*
X1241600D01*
X1188400Y2900130D02*
X1241600D01*
X1188400Y2950130D02*
X1241600D01*
G54D13*
X1548400Y3000130D02*
X1601600D01*
X1188400D02*
X1241600D01*
G54D11*
X1157000Y2531180D02*
Y2539080D01*
X1232000Y2531180D02*
Y2539080D01*
G54D14*
X1228150Y2716130D02*
X1241850D01*
X1228150Y2790130D02*
X1241850D01*
X1137150Y2753130D02*
X1150850D01*
G54D15*
X1164000Y2674180D02*
Y2682080D01*
Y2599180D02*
Y2607080D01*
X1190000Y2599180D02*
Y2607080D01*
X1215000Y2599180D02*
Y2607080D01*
Y2674180D02*
Y2682080D01*
X1190000Y2674180D02*
Y2682080D01*
G54D16*
X350000Y2705980D02*
Y2736280D01*
X366000Y2839980D02*
Y2870280D01*
Y2705980D02*
Y2736280D01*
X381000Y2839980D02*
Y2870280D01*
Y2705980D02*
Y2736280D01*
X397000Y2839980D02*
Y2870280D01*
Y2705980D02*
Y2736280D01*
X350000Y2839980D02*
Y2870280D01*
X413000Y2839980D02*
Y2870280D01*
Y2705980D02*
Y2736280D01*
X429000Y2839980D02*
Y2870280D01*
Y2705980D02*
Y2736280D01*
X444000Y2839980D02*
Y2870280D01*
Y2705980D02*
Y2736280D01*
X460000Y2839980D02*
Y2870280D01*
Y2705980D02*
Y2736280D01*
X476000Y2839980D02*
Y2870280D01*
Y2705980D02*
Y2736280D01*
X492000Y2839980D02*
Y2870280D01*
Y2705980D02*
Y2736280D01*
X507000Y2839980D02*
Y2870280D01*
Y2705980D02*
Y2736280D01*
X523000Y2839980D02*
Y2870280D01*
Y2705980D02*
Y2736280D01*
X539000Y2839980D02*
Y2870280D01*
Y2705980D02*
Y2736280D01*
X555000Y2839980D02*
Y2870280D01*
G54D17*
Y2705980D02*
Y2736280D01*
G54D18*
X212300Y2560130D02*
X243700D01*
G54D19*
X212300Y2566030D02*
X243700D01*
X212300Y2554230D02*
X243700D01*
G54D18*
X212300Y2418130D02*
X243700D01*
G54D19*
X212300Y2424030D02*
X243700D01*
X212300Y2412230D02*
X243700D01*
G54D18*
X31300Y2418130D02*
X62700D01*
G54D19*
X31300Y2424030D02*
X62700D01*
X31300Y2412230D02*
X62700D01*
G54D18*
X31300Y2560130D02*
X62700D01*
G54D19*
X31300Y2566030D02*
X62700D01*
X31300Y2554230D02*
X62700D01*
G54D20*
X126150Y2587130D02*
X147850D01*
X126150Y2390130D02*
X147850D01*
G54D21*
X1445000Y2566730D02*
Y2593530D01*
X1488000Y2566730D02*
Y2593530D01*
X1532000Y2566730D02*
Y2593530D01*
X1575000Y2566730D02*
Y2593530D01*
X1618000Y2566730D02*
Y2593530D01*
X1661000Y2566730D02*
Y2593530D01*
X1705000Y2566730D02*
Y2593530D01*
X1748000Y2566730D02*
Y2593530D01*
G54D22*
X1842000Y2655030D02*
Y2705230D01*
G54D23*
X1827800Y2655130D02*
Y2705130D01*
X1856200Y2655130D02*
Y2705130D01*
G54D22*
X1300000Y2655030D02*
Y2705230D01*
G54D23*
X1285800Y2655130D02*
Y2705130D01*
X1314200Y2655130D02*
Y2705130D01*
G54D22*
X1300000Y2328030D02*
Y2378230D01*
G54D23*
X1285800Y2328130D02*
Y2378130D01*
X1314200Y2328130D02*
Y2378130D01*
G54D22*
X1842000Y2328030D02*
Y2378230D01*
G54D23*
X1827800Y2328130D02*
Y2378130D01*
X1856200Y2328130D02*
Y2378130D01*
G54D24*
X1138050Y2901130D02*
X1141950D01*
X1138050Y2960130D02*
X1141950D01*
X1933050Y2921130D02*
X1936950D01*
X1933050Y2980130D02*
X1936950D01*
X1028050Y2495130D02*
X1031950D01*
X1028050Y2436130D02*
X1031950D01*
X973050Y2655130D02*
X976950D01*
X973050Y2714130D02*
X976950D01*
X973050Y2604130D02*
X976950D01*
X973050Y2545130D02*
X976950D01*
X318050Y2479130D02*
X321950D01*
X318050Y2420130D02*
X321950D01*
X918050Y2824130D02*
X921950D01*
X918050Y2765130D02*
X921950D01*
X918050Y2655130D02*
X921950D01*
X918050Y2714130D02*
X921950D01*
X973050Y2765130D02*
X976950D01*
X973050Y2824130D02*
X976950D01*
X1028050Y2655130D02*
X1031950D01*
X1028050Y2714130D02*
X1031950D01*
X1028050Y2604130D02*
X1031950D01*
X1028050Y2545130D02*
X1031950D01*
G54D10*
X1937600Y3687129D02*
X2012400D01*
X1957300Y3912129D02*
X1992700D01*
G54D11*
X841050Y3807129D02*
X848950D01*
X841050Y3732129D02*
X848950D01*
X1916050Y3530129D02*
X1923950D01*
X1916050Y3605129D02*
X1923950D01*
G54D12*
X1818400Y3913129D02*
X1871600D01*
X1818400Y3963129D02*
X1871600D01*
X1818400Y4013129D02*
X1871600D01*
X1818400Y4063129D02*
X1871600D01*
X1548400Y3913129D02*
X1601600D01*
X1548400Y3963129D02*
X1601600D01*
X1548400Y4013129D02*
X1601600D01*
X1458400Y3913129D02*
X1511600D01*
X1458400Y3963129D02*
X1511600D01*
X1458400Y4013129D02*
X1511600D01*
X1458400Y4063129D02*
X1511600D01*
X1188400Y3913129D02*
X1241600D01*
X1188400Y3963129D02*
X1241600D01*
X1188400Y4013129D02*
X1241600D01*
G54D13*
X1548400Y4063129D02*
X1601600D01*
X1188400D02*
X1241600D01*
G54D11*
X1157000Y3594179D02*
Y3602079D01*
X1232000Y3594179D02*
Y3602079D01*
G54D14*
X1228150Y3779129D02*
X1241850D01*
X1228150Y3853129D02*
X1241850D01*
X1137150Y3816129D02*
X1150850D01*
G54D15*
X1164000Y3737179D02*
Y3745079D01*
Y3662179D02*
Y3670079D01*
X1190000Y3662179D02*
Y3670079D01*
X1215000Y3662179D02*
Y3670079D01*
Y3737179D02*
Y3745079D01*
X1190000Y3737179D02*
Y3745079D01*
G54D16*
X350000Y3768979D02*
Y3799279D01*
X366000Y3902979D02*
Y3933279D01*
Y3768979D02*
Y3799279D01*
X381000Y3902979D02*
Y3933279D01*
Y3768979D02*
Y3799279D01*
X397000Y3902979D02*
Y3933279D01*
Y3768979D02*
Y3799279D01*
X350000Y3902979D02*
Y3933279D01*
X413000Y3902979D02*
Y3933279D01*
Y3768979D02*
Y3799279D01*
X429000Y3902979D02*
Y3933279D01*
Y3768979D02*
Y3799279D01*
X444000Y3902979D02*
Y3933279D01*
Y3768979D02*
Y3799279D01*
X460000Y3902979D02*
Y3933279D01*
Y3768979D02*
Y3799279D01*
X476000Y3902979D02*
Y3933279D01*
Y3768979D02*
Y3799279D01*
X492000Y3902979D02*
Y3933279D01*
Y3768979D02*
Y3799279D01*
X507000Y3902979D02*
Y3933279D01*
Y3768979D02*
Y3799279D01*
X523000Y3902979D02*
Y3933279D01*
Y3768979D02*
Y3799279D01*
X539000Y3902979D02*
Y3933279D01*
Y3768979D02*
Y3799279D01*
X555000Y3902979D02*
Y3933279D01*
G54D17*
Y3768979D02*
Y3799279D01*
G54D18*
X212300Y3623129D02*
X243700D01*
G54D19*
X212300Y3629029D02*
X243700D01*
X212300Y3617229D02*
X243700D01*
G54D18*
X212300Y3481129D02*
X243700D01*
G54D19*
X212300Y3487029D02*
X243700D01*
X212300Y3475229D02*
X243700D01*
G54D18*
X31300Y3481129D02*
X62700D01*
G54D19*
X31300Y3487029D02*
X62700D01*
X31300Y3475229D02*
X62700D01*
G54D18*
X31300Y3623129D02*
X62700D01*
G54D19*
X31300Y3629029D02*
X62700D01*
X31300Y3617229D02*
X62700D01*
G54D20*
X126150Y3650129D02*
X147850D01*
X126150Y3453129D02*
X147850D01*
G54D21*
X1445000Y3629729D02*
Y3656529D01*
X1488000Y3629729D02*
Y3656529D01*
X1532000Y3629729D02*
Y3656529D01*
X1575000Y3629729D02*
Y3656529D01*
X1618000Y3629729D02*
Y3656529D01*
X1661000Y3629729D02*
Y3656529D01*
X1705000Y3629729D02*
Y3656529D01*
X1748000Y3629729D02*
Y3656529D01*
G54D22*
X1842000Y3718029D02*
Y3768229D01*
G54D23*
X1827800Y3718129D02*
Y3768129D01*
X1856200Y3718129D02*
Y3768129D01*
G54D22*
X1300000Y3718029D02*
Y3768229D01*
G54D23*
X1285800Y3718129D02*
Y3768129D01*
X1314200Y3718129D02*
Y3768129D01*
G54D22*
X1300000Y3391029D02*
Y3441229D01*
G54D23*
X1285800Y3391129D02*
Y3441129D01*
X1314200Y3391129D02*
Y3441129D01*
G54D22*
X1842000Y3391029D02*
Y3441229D01*
G54D23*
X1827800Y3391129D02*
Y3441129D01*
X1856200Y3391129D02*
Y3441129D01*
G54D24*
X1138050Y3964129D02*
X1141950D01*
X1138050Y4023129D02*
X1141950D01*
X1933050Y3984129D02*
X1936950D01*
X1933050Y4043129D02*
X1936950D01*
X1028050Y3558129D02*
X1031950D01*
X1028050Y3499129D02*
X1031950D01*
X973050Y3718129D02*
X976950D01*
X973050Y3777129D02*
X976950D01*
X973050Y3667129D02*
X976950D01*
X973050Y3608129D02*
X976950D01*
X318050Y3542129D02*
X321950D01*
X318050Y3483129D02*
X321950D01*
X918050Y3887129D02*
X921950D01*
X918050Y3828129D02*
X921950D01*
X918050Y3718129D02*
X921950D01*
X918050Y3777129D02*
X921950D01*
X973050Y3828129D02*
X976950D01*
X973050Y3887129D02*
X976950D01*
X1028050Y3718129D02*
X1031950D01*
X1028050Y3777129D02*
X1031950D01*
X1028050Y3667129D02*
X1031950D01*
X1028050Y3608129D02*
X1031950D01*
G54D10*
X1937600Y4750129D02*
X2012400D01*
X1957300Y4975129D02*
X1992700D01*
G54D11*
X841050Y4870129D02*
X848950D01*
X841050Y4795129D02*
X848950D01*
X1916050Y4593129D02*
X1923950D01*
X1916050Y4668129D02*
X1923950D01*
G54D12*
X1818400Y4976129D02*
X1871600D01*
X1818400Y5026129D02*
X1871600D01*
X1818400Y5076129D02*
X1871600D01*
X1818400Y5126129D02*
X1871600D01*
X1548400Y4976129D02*
X1601600D01*
X1548400Y5026129D02*
X1601600D01*
X1548400Y5076129D02*
X1601600D01*
X1458400Y4976129D02*
X1511600D01*
X1458400Y5026129D02*
X1511600D01*
X1458400Y5076129D02*
X1511600D01*
X1458400Y5126129D02*
X1511600D01*
X1188400Y4976129D02*
X1241600D01*
X1188400Y5026129D02*
X1241600D01*
X1188400Y5076129D02*
X1241600D01*
G54D13*
X1548400Y5126129D02*
X1601600D01*
X1188400D02*
X1241600D01*
G54D11*
X1157000Y4657179D02*
Y4665079D01*
X1232000Y4657179D02*
Y4665079D01*
G54D14*
X1228150Y4842129D02*
X1241850D01*
X1228150Y4916129D02*
X1241850D01*
X1137150Y4879129D02*
X1150850D01*
G54D15*
X1164000Y4800179D02*
Y4808079D01*
Y4725179D02*
Y4733079D01*
X1190000Y4725179D02*
Y4733079D01*
X1215000Y4725179D02*
Y4733079D01*
Y4800179D02*
Y4808079D01*
X1190000Y4800179D02*
Y4808079D01*
G54D16*
X350000Y4831979D02*
Y4862278D01*
X366000Y4965979D02*
Y4996278D01*
Y4831979D02*
Y4862278D01*
X381000Y4965979D02*
Y4996278D01*
Y4831979D02*
Y4862278D01*
X397000Y4965979D02*
Y4996278D01*
Y4831979D02*
Y4862278D01*
X350000Y4965979D02*
Y4996278D01*
X413000Y4965979D02*
Y4996278D01*
Y4831979D02*
Y4862278D01*
X429000Y4965979D02*
Y4996278D01*
Y4831979D02*
Y4862278D01*
X444000Y4965979D02*
Y4996278D01*
Y4831979D02*
Y4862278D01*
X460000Y4965979D02*
Y4996278D01*
Y4831979D02*
Y4862278D01*
X476000Y4965979D02*
Y4996278D01*
Y4831979D02*
Y4862278D01*
X492000Y4965979D02*
Y4996278D01*
Y4831979D02*
Y4862278D01*
X507000Y4965979D02*
Y4996278D01*
Y4831979D02*
Y4862278D01*
X523000Y4965979D02*
Y4996278D01*
Y4831979D02*
Y4862278D01*
X539000Y4965979D02*
Y4996278D01*
Y4831979D02*
Y4862278D01*
X555000Y4965979D02*
Y4996278D01*
G54D17*
Y4831979D02*
Y4862278D01*
G54D18*
X212300Y4686129D02*
X243700D01*
G54D19*
X212300Y4692029D02*
X243700D01*
X212300Y4680229D02*
X243700D01*
G54D18*
X212300Y4544129D02*
X243700D01*
G54D19*
X212300Y4550029D02*
X243700D01*
X212300Y4538229D02*
X243700D01*
G54D18*
X31300Y4544129D02*
X62700D01*
G54D19*
X31300Y4550029D02*
X62700D01*
X31300Y4538229D02*
X62700D01*
G54D18*
X31300Y4686129D02*
X62700D01*
G54D19*
X31300Y4692029D02*
X62700D01*
X31300Y4680229D02*
X62700D01*
G54D20*
X126150Y4713129D02*
X147850D01*
X126150Y4516129D02*
X147850D01*
G54D21*
X1445000Y4692729D02*
Y4719529D01*
X1488000Y4692729D02*
Y4719529D01*
X1532000Y4692729D02*
Y4719529D01*
X1575000Y4692729D02*
Y4719529D01*
X1618000Y4692729D02*
Y4719529D01*
X1661000Y4692729D02*
Y4719529D01*
X1705000Y4692729D02*
Y4719529D01*
X1748000Y4692729D02*
Y4719529D01*
G54D22*
X1842000Y4781029D02*
Y4831229D01*
G54D23*
X1827800Y4781129D02*
Y4831129D01*
X1856200Y4781129D02*
Y4831129D01*
G54D22*
X1300000Y4781029D02*
Y4831229D01*
G54D23*
X1285800Y4781129D02*
Y4831129D01*
X1314200Y4781129D02*
Y4831129D01*
G54D22*
X1300000Y4454029D02*
Y4504229D01*
G54D23*
X1285800Y4454129D02*
Y4504129D01*
X1314200Y4454129D02*
Y4504129D01*
G54D22*
X1842000Y4454029D02*
Y4504229D01*
G54D23*
X1827800Y4454129D02*
Y4504129D01*
X1856200Y4454129D02*
Y4504129D01*
G54D24*
X1138050Y5027129D02*
X1141950D01*
X1138050Y5086129D02*
X1141950D01*
X1933050Y5047129D02*
X1936950D01*
X1933050Y5106129D02*
X1936950D01*
X1028050Y4621129D02*
X1031950D01*
X1028050Y4562129D02*
X1031950D01*
X973050Y4781129D02*
X976950D01*
X973050Y4840129D02*
X976950D01*
X973050Y4730129D02*
X976950D01*
X973050Y4671129D02*
X976950D01*
X318050Y4605129D02*
X321950D01*
X318050Y4546129D02*
X321950D01*
X918050Y4950129D02*
X921950D01*
X918050Y4891129D02*
X921950D01*
X918050Y4781129D02*
X921950D01*
X918050Y4840129D02*
X921950D01*
X973050Y4891129D02*
X976950D01*
X973050Y4950129D02*
X976950D01*
X1028050Y4781129D02*
X1031950D01*
X1028050Y4840129D02*
X1031950D01*
X1028050Y4730129D02*
X1031950D01*
X1028050Y4671129D02*
X1031950D01*
G54D10*
X4221100Y498131D02*
X4295900D01*
X4240800Y723131D02*
X4276200D01*
G54D11*
X3124550Y618131D02*
X3132450D01*
X3124550Y543131D02*
X3132450D01*
X4199550Y341131D02*
X4207450D01*
X4199550Y416131D02*
X4207450D01*
G54D12*
X4101900Y724131D02*
X4155100D01*
X4101900Y774131D02*
X4155100D01*
X4101900Y824131D02*
X4155100D01*
X4101900Y874131D02*
X4155100D01*
X3831900Y724131D02*
X3885100D01*
X3831900Y774131D02*
X3885100D01*
X3831900Y824131D02*
X3885100D01*
X3741900Y724131D02*
X3795100D01*
X3741900Y774131D02*
X3795100D01*
X3741900Y824131D02*
X3795100D01*
X3741900Y874131D02*
X3795100D01*
X3471900Y724131D02*
X3525100D01*
X3471900Y774131D02*
X3525100D01*
X3471900Y824131D02*
X3525100D01*
G54D13*
X3831900Y874131D02*
X3885100D01*
X3471900D02*
X3525100D01*
G54D11*
X3440500Y405181D02*
Y413081D01*
X3515500Y405181D02*
Y413081D01*
G54D14*
X3511650Y590131D02*
X3525350D01*
X3511650Y664131D02*
X3525350D01*
X3420650Y627131D02*
X3434350D01*
G54D15*
X3447500Y548181D02*
Y556081D01*
Y473181D02*
Y481081D01*
X3473500Y473181D02*
Y481081D01*
X3498500Y473181D02*
Y481081D01*
Y548181D02*
Y556081D01*
X3473500Y548181D02*
Y556081D01*
G54D16*
X2633500Y579981D02*
Y610281D01*
X2649500Y713981D02*
Y744281D01*
Y579981D02*
Y610281D01*
X2664500Y713981D02*
Y744281D01*
Y579981D02*
Y610281D01*
X2680500Y713981D02*
Y744281D01*
Y579981D02*
Y610281D01*
X2633500Y713981D02*
Y744281D01*
X2696500Y713981D02*
Y744281D01*
Y579981D02*
Y610281D01*
X2712500Y713981D02*
Y744281D01*
Y579981D02*
Y610281D01*
X2727500Y713981D02*
Y744281D01*
Y579981D02*
Y610281D01*
X2743500Y713981D02*
Y744281D01*
Y579981D02*
Y610281D01*
X2759500Y713981D02*
Y744281D01*
Y579981D02*
Y610281D01*
X2775500Y713981D02*
Y744281D01*
Y579981D02*
Y610281D01*
X2790500Y713981D02*
Y744281D01*
Y579981D02*
Y610281D01*
X2806500Y713981D02*
Y744281D01*
Y579981D02*
Y610281D01*
X2822500Y713981D02*
Y744281D01*
Y579981D02*
Y610281D01*
X2838500Y713981D02*
Y744281D01*
G54D17*
Y579981D02*
Y610281D01*
G54D18*
X2495800Y434131D02*
X2527200D01*
G54D19*
X2495800Y440031D02*
X2527200D01*
X2495800Y428231D02*
X2527200D01*
G54D18*
X2495800Y292131D02*
X2527200D01*
G54D19*
X2495800Y298031D02*
X2527200D01*
X2495800Y286231D02*
X2527200D01*
G54D18*
X2314800Y292131D02*
X2346200D01*
G54D19*
X2314800Y298031D02*
X2346200D01*
X2314800Y286231D02*
X2346200D01*
G54D18*
X2314800Y434131D02*
X2346200D01*
G54D19*
X2314800Y440031D02*
X2346200D01*
X2314800Y428231D02*
X2346200D01*
G54D20*
X2409650Y461131D02*
X2431350D01*
X2409650Y264131D02*
X2431350D01*
G54D21*
X3728500Y440731D02*
Y467531D01*
X3771500Y440731D02*
Y467531D01*
X3815500Y440731D02*
Y467531D01*
X3858500Y440731D02*
Y467531D01*
X3901500Y440731D02*
Y467531D01*
X3944500Y440731D02*
Y467531D01*
X3988500Y440731D02*
Y467531D01*
X4031500Y440731D02*
Y467531D01*
G54D22*
X4125500Y529031D02*
Y579231D01*
G54D23*
X4111300Y529131D02*
Y579131D01*
X4139700Y529131D02*
Y579131D01*
G54D22*
X3583500Y529031D02*
Y579231D01*
G54D23*
X3569300Y529131D02*
Y579131D01*
X3597700Y529131D02*
Y579131D01*
G54D22*
X3583500Y202031D02*
Y252231D01*
G54D23*
X3569300Y202131D02*
Y252131D01*
X3597700Y202131D02*
Y252131D01*
G54D22*
X4125500Y202031D02*
Y252231D01*
G54D23*
X4111300Y202131D02*
Y252131D01*
X4139700Y202131D02*
Y252131D01*
G54D24*
X3421550Y775131D02*
X3425450D01*
X3421550Y834131D02*
X3425450D01*
X4216550Y795131D02*
X4220450D01*
X4216550Y854131D02*
X4220450D01*
X3311550Y369131D02*
X3315450D01*
X3311550Y310131D02*
X3315450D01*
X3256550Y529131D02*
X3260450D01*
X3256550Y588131D02*
X3260450D01*
X3256550Y478131D02*
X3260450D01*
X3256550Y419131D02*
X3260450D01*
X2601550Y353131D02*
X2605450D01*
X2601550Y294131D02*
X2605450D01*
X3201550Y698131D02*
X3205450D01*
X3201550Y639131D02*
X3205450D01*
X3201550Y529131D02*
X3205450D01*
X3201550Y588131D02*
X3205450D01*
X3256550Y639131D02*
X3260450D01*
X3256550Y698131D02*
X3260450D01*
X3311550Y529131D02*
X3315450D01*
X3311550Y588131D02*
X3315450D01*
X3311550Y478131D02*
X3315450D01*
X3311550Y419131D02*
X3315450D01*
G54D10*
X4221100Y1561130D02*
X4295900D01*
X4240800Y1786130D02*
X4276200D01*
G54D11*
X3124550Y1681130D02*
X3132450D01*
X3124550Y1606130D02*
X3132450D01*
X4199550Y1404130D02*
X4207450D01*
X4199550Y1479130D02*
X4207450D01*
G54D12*
X4101900Y1787130D02*
X4155100D01*
X4101900Y1837130D02*
X4155100D01*
X4101900Y1887130D02*
X4155100D01*
X4101900Y1937130D02*
X4155100D01*
X3831900Y1787130D02*
X3885100D01*
X3831900Y1837130D02*
X3885100D01*
X3831900Y1887130D02*
X3885100D01*
X3741900Y1787130D02*
X3795100D01*
X3741900Y1837130D02*
X3795100D01*
X3741900Y1887130D02*
X3795100D01*
X3741900Y1937130D02*
X3795100D01*
X3471900Y1787130D02*
X3525100D01*
X3471900Y1837130D02*
X3525100D01*
X3471900Y1887130D02*
X3525100D01*
G54D13*
X3831900Y1937130D02*
X3885100D01*
X3471900D02*
X3525100D01*
G54D11*
X3440500Y1468180D02*
Y1476080D01*
X3515500Y1468180D02*
Y1476080D01*
G54D14*
X3511650Y1653130D02*
X3525350D01*
X3511650Y1727130D02*
X3525350D01*
X3420650Y1690130D02*
X3434350D01*
G54D15*
X3447500Y1611180D02*
Y1619080D01*
Y1536180D02*
Y1544080D01*
X3473500Y1536180D02*
Y1544080D01*
X3498500Y1536180D02*
Y1544080D01*
Y1611180D02*
Y1619080D01*
X3473500Y1611180D02*
Y1619080D01*
G54D16*
X2633500Y1642981D02*
Y1673280D01*
X2649500Y1776981D02*
Y1807280D01*
Y1642981D02*
Y1673280D01*
X2664500Y1776981D02*
Y1807280D01*
Y1642981D02*
Y1673280D01*
X2680500Y1776981D02*
Y1807280D01*
Y1642981D02*
Y1673280D01*
X2633500Y1776981D02*
Y1807280D01*
X2696500Y1776981D02*
Y1807280D01*
Y1642981D02*
Y1673280D01*
X2712500Y1776981D02*
Y1807280D01*
Y1642981D02*
Y1673280D01*
X2727500Y1776981D02*
Y1807280D01*
Y1642981D02*
Y1673280D01*
X2743500Y1776981D02*
Y1807280D01*
Y1642981D02*
Y1673280D01*
X2759500Y1776981D02*
Y1807280D01*
Y1642981D02*
Y1673280D01*
X2775500Y1776981D02*
Y1807280D01*
Y1642981D02*
Y1673280D01*
X2790500Y1776981D02*
Y1807280D01*
Y1642981D02*
Y1673280D01*
X2806500Y1776981D02*
Y1807280D01*
Y1642981D02*
Y1673280D01*
X2822500Y1776981D02*
Y1807280D01*
Y1642981D02*
Y1673280D01*
X2838500Y1776981D02*
Y1807280D01*
G54D17*
Y1642981D02*
Y1673280D01*
G54D18*
X2495800Y1497130D02*
X2527200D01*
G54D19*
X2495800Y1503030D02*
X2527200D01*
X2495800Y1491230D02*
X2527200D01*
G54D18*
X2495800Y1355130D02*
X2527200D01*
G54D19*
X2495800Y1361030D02*
X2527200D01*
X2495800Y1349230D02*
X2527200D01*
G54D18*
X2314800Y1355130D02*
X2346200D01*
G54D19*
X2314800Y1361030D02*
X2346200D01*
X2314800Y1349230D02*
X2346200D01*
G54D18*
X2314800Y1497130D02*
X2346200D01*
G54D19*
X2314800Y1503030D02*
X2346200D01*
X2314800Y1491230D02*
X2346200D01*
G54D20*
X2409650Y1524130D02*
X2431350D01*
X2409650Y1327130D02*
X2431350D01*
G54D21*
X3728500Y1503730D02*
Y1530530D01*
X3771500Y1503730D02*
Y1530530D01*
X3815500Y1503730D02*
Y1530530D01*
X3858500Y1503730D02*
Y1530530D01*
X3901500Y1503730D02*
Y1530530D01*
X3944500Y1503730D02*
Y1530530D01*
X3988500Y1503730D02*
Y1530530D01*
X4031500Y1503730D02*
Y1530530D01*
G54D22*
X4125500Y1592030D02*
Y1642230D01*
G54D23*
X4111300Y1592130D02*
Y1642130D01*
X4139700Y1592130D02*
Y1642130D01*
G54D22*
X3583500Y1592030D02*
Y1642230D01*
G54D23*
X3569300Y1592130D02*
Y1642130D01*
X3597700Y1592130D02*
Y1642130D01*
G54D22*
X3583500Y1265030D02*
Y1315230D01*
G54D23*
X3569300Y1265130D02*
Y1315130D01*
X3597700Y1265130D02*
Y1315130D01*
G54D22*
X4125500Y1265030D02*
Y1315230D01*
G54D23*
X4111300Y1265130D02*
Y1315130D01*
X4139700Y1265130D02*
Y1315130D01*
G54D24*
X3421550Y1838130D02*
X3425450D01*
X3421550Y1897130D02*
X3425450D01*
X4216550Y1858130D02*
X4220450D01*
X4216550Y1917130D02*
X4220450D01*
X3311550Y1432130D02*
X3315450D01*
X3311550Y1373130D02*
X3315450D01*
X3256550Y1592130D02*
X3260450D01*
X3256550Y1651130D02*
X3260450D01*
X3256550Y1541130D02*
X3260450D01*
X3256550Y1482130D02*
X3260450D01*
X2601550Y1416130D02*
X2605450D01*
X2601550Y1357130D02*
X2605450D01*
X3201550Y1761130D02*
X3205450D01*
X3201550Y1702130D02*
X3205450D01*
X3201550Y1592130D02*
X3205450D01*
X3201550Y1651130D02*
X3205450D01*
X3256550Y1702130D02*
X3260450D01*
X3256550Y1761130D02*
X3260450D01*
X3311550Y1592130D02*
X3315450D01*
X3311550Y1651130D02*
X3315450D01*
X3311550Y1541130D02*
X3315450D01*
X3311550Y1482130D02*
X3315450D01*
G54D10*
X4221100Y2624130D02*
X4295900D01*
X4240800Y2849130D02*
X4276200D01*
G54D11*
X3124550Y2744130D02*
X3132450D01*
X3124550Y2669130D02*
X3132450D01*
X4199550Y2467130D02*
X4207450D01*
X4199550Y2542130D02*
X4207450D01*
G54D12*
X4101900Y2850130D02*
X4155100D01*
X4101900Y2900130D02*
X4155100D01*
X4101900Y2950130D02*
X4155100D01*
X4101900Y3000130D02*
X4155100D01*
X3831900Y2850130D02*
X3885100D01*
X3831900Y2900130D02*
X3885100D01*
X3831900Y2950130D02*
X3885100D01*
X3741900Y2850130D02*
X3795100D01*
X3741900Y2900130D02*
X3795100D01*
X3741900Y2950130D02*
X3795100D01*
X3741900Y3000130D02*
X3795100D01*
X3471900Y2850130D02*
X3525100D01*
X3471900Y2900130D02*
X3525100D01*
X3471900Y2950130D02*
X3525100D01*
G54D13*
X3831900Y3000130D02*
X3885100D01*
X3471900D02*
X3525100D01*
G54D11*
X3440500Y2531180D02*
Y2539080D01*
X3515500Y2531180D02*
Y2539080D01*
G54D14*
X3511650Y2716130D02*
X3525350D01*
X3511650Y2790130D02*
X3525350D01*
X3420650Y2753130D02*
X3434350D01*
G54D15*
X3447500Y2674180D02*
Y2682080D01*
Y2599180D02*
Y2607080D01*
X3473500Y2599180D02*
Y2607080D01*
X3498500Y2599180D02*
Y2607080D01*
Y2674180D02*
Y2682080D01*
X3473500Y2674180D02*
Y2682080D01*
G54D16*
X2633500Y2705980D02*
Y2736280D01*
X2649500Y2839980D02*
Y2870280D01*
Y2705980D02*
Y2736280D01*
X2664500Y2839980D02*
Y2870280D01*
Y2705980D02*
Y2736280D01*
X2680500Y2839980D02*
Y2870280D01*
Y2705980D02*
Y2736280D01*
X2633500Y2839980D02*
Y2870280D01*
X2696500Y2839980D02*
Y2870280D01*
Y2705980D02*
Y2736280D01*
X2712500Y2839980D02*
Y2870280D01*
Y2705980D02*
Y2736280D01*
X2727500Y2839980D02*
Y2870280D01*
Y2705980D02*
Y2736280D01*
X2743500Y2839980D02*
Y2870280D01*
Y2705980D02*
Y2736280D01*
X2759500Y2839980D02*
Y2870280D01*
Y2705980D02*
Y2736280D01*
X2775500Y2839980D02*
Y2870280D01*
Y2705980D02*
Y2736280D01*
X2790500Y2839980D02*
Y2870280D01*
Y2705980D02*
Y2736280D01*
X2806500Y2839980D02*
Y2870280D01*
Y2705980D02*
Y2736280D01*
X2822500Y2839980D02*
Y2870280D01*
Y2705980D02*
Y2736280D01*
X2838500Y2839980D02*
Y2870280D01*
G54D17*
Y2705980D02*
Y2736280D01*
G54D18*
X2495800Y2560130D02*
X2527200D01*
G54D19*
X2495800Y2566030D02*
X2527200D01*
X2495800Y2554230D02*
X2527200D01*
G54D18*
X2495800Y2418130D02*
X2527200D01*
G54D19*
X2495800Y2424030D02*
X2527200D01*
X2495800Y2412230D02*
X2527200D01*
G54D18*
X2314800Y2418130D02*
X2346200D01*
G54D19*
X2314800Y2424030D02*
X2346200D01*
X2314800Y2412230D02*
X2346200D01*
G54D18*
X2314800Y2560130D02*
X2346200D01*
G54D19*
X2314800Y2566030D02*
X2346200D01*
X2314800Y2554230D02*
X2346200D01*
G54D20*
X2409650Y2587130D02*
X2431350D01*
X2409650Y2390130D02*
X2431350D01*
G54D21*
X3728500Y2566730D02*
Y2593530D01*
X3771500Y2566730D02*
Y2593530D01*
X3815500Y2566730D02*
Y2593530D01*
X3858500Y2566730D02*
Y2593530D01*
X3901500Y2566730D02*
Y2593530D01*
X3944500Y2566730D02*
Y2593530D01*
X3988500Y2566730D02*
Y2593530D01*
X4031500Y2566730D02*
Y2593530D01*
G54D22*
X4125500Y2655030D02*
Y2705230D01*
G54D23*
X4111300Y2655130D02*
Y2705130D01*
X4139700Y2655130D02*
Y2705130D01*
G54D22*
X3583500Y2655030D02*
Y2705230D01*
G54D23*
X3569300Y2655130D02*
Y2705130D01*
X3597700Y2655130D02*
Y2705130D01*
G54D22*
X3583500Y2328030D02*
Y2378230D01*
G54D23*
X3569300Y2328130D02*
Y2378130D01*
X3597700Y2328130D02*
Y2378130D01*
G54D22*
X4125500Y2328030D02*
Y2378230D01*
G54D23*
X4111300Y2328130D02*
Y2378130D01*
X4139700Y2328130D02*
Y2378130D01*
G54D24*
X3421550Y2901130D02*
X3425450D01*
X3421550Y2960130D02*
X3425450D01*
X4216550Y2921130D02*
X4220450D01*
X4216550Y2980130D02*
X4220450D01*
X3311550Y2495130D02*
X3315450D01*
X3311550Y2436130D02*
X3315450D01*
X3256550Y2655130D02*
X3260450D01*
X3256550Y2714130D02*
X3260450D01*
X3256550Y2604130D02*
X3260450D01*
X3256550Y2545130D02*
X3260450D01*
X2601550Y2479130D02*
X2605450D01*
X2601550Y2420130D02*
X2605450D01*
X3201550Y2824130D02*
X3205450D01*
X3201550Y2765130D02*
X3205450D01*
X3201550Y2655130D02*
X3205450D01*
X3201550Y2714130D02*
X3205450D01*
X3256550Y2765130D02*
X3260450D01*
X3256550Y2824130D02*
X3260450D01*
X3311550Y2655130D02*
X3315450D01*
X3311550Y2714130D02*
X3315450D01*
X3311550Y2604130D02*
X3315450D01*
X3311550Y2545130D02*
X3315450D01*
G54D10*
X4221100Y3687129D02*
X4295900D01*
X4240800Y3912129D02*
X4276200D01*
G54D11*
X3124550Y3807129D02*
X3132450D01*
X3124550Y3732129D02*
X3132450D01*
X4199550Y3530129D02*
X4207450D01*
X4199550Y3605129D02*
X4207450D01*
G54D12*
X4101900Y3913129D02*
X4155100D01*
X4101900Y3963129D02*
X4155100D01*
X4101900Y4013129D02*
X4155100D01*
X4101900Y4063129D02*
X4155100D01*
X3831900Y3913129D02*
X3885100D01*
X3831900Y3963129D02*
X3885100D01*
X3831900Y4013129D02*
X3885100D01*
X3741900Y3913129D02*
X3795100D01*
X3741900Y3963129D02*
X3795100D01*
X3741900Y4013129D02*
X3795100D01*
X3741900Y4063129D02*
X3795100D01*
X3471900Y3913129D02*
X3525100D01*
X3471900Y3963129D02*
X3525100D01*
X3471900Y4013129D02*
X3525100D01*
G54D13*
X3831900Y4063129D02*
X3885100D01*
X3471900D02*
X3525100D01*
G54D11*
X3440500Y3594179D02*
Y3602079D01*
X3515500Y3594179D02*
Y3602079D01*
G54D14*
X3511650Y3779129D02*
X3525350D01*
X3511650Y3853129D02*
X3525350D01*
X3420650Y3816129D02*
X3434350D01*
G54D15*
X3447500Y3737179D02*
Y3745079D01*
Y3662179D02*
Y3670079D01*
X3473500Y3662179D02*
Y3670079D01*
X3498500Y3662179D02*
Y3670079D01*
Y3737179D02*
Y3745079D01*
X3473500Y3737179D02*
Y3745079D01*
G54D16*
X2633500Y3768979D02*
Y3799279D01*
X2649500Y3902979D02*
Y3933279D01*
Y3768979D02*
Y3799279D01*
X2664500Y3902979D02*
Y3933279D01*
Y3768979D02*
Y3799279D01*
X2680500Y3902979D02*
Y3933279D01*
Y3768979D02*
Y3799279D01*
X2633500Y3902979D02*
Y3933279D01*
X2696500Y3902979D02*
Y3933279D01*
Y3768979D02*
Y3799279D01*
X2712500Y3902979D02*
Y3933279D01*
Y3768979D02*
Y3799279D01*
X2727500Y3902979D02*
Y3933279D01*
Y3768979D02*
Y3799279D01*
X2743500Y3902979D02*
Y3933279D01*
Y3768979D02*
Y3799279D01*
X2759500Y3902979D02*
Y3933279D01*
Y3768979D02*
Y3799279D01*
X2775500Y3902979D02*
Y3933279D01*
Y3768979D02*
Y3799279D01*
X2790500Y3902979D02*
Y3933279D01*
Y3768979D02*
Y3799279D01*
X2806500Y3902979D02*
Y3933279D01*
Y3768979D02*
Y3799279D01*
X2822500Y3902979D02*
Y3933279D01*
Y3768979D02*
Y3799279D01*
X2838500Y3902979D02*
Y3933279D01*
G54D17*
Y3768979D02*
Y3799279D01*
G54D18*
X2495800Y3623129D02*
X2527200D01*
G54D19*
X2495800Y3629029D02*
X2527200D01*
X2495800Y3617229D02*
X2527200D01*
G54D18*
X2495800Y3481129D02*
X2527200D01*
G54D19*
X2495800Y3487029D02*
X2527200D01*
X2495800Y3475229D02*
X2527200D01*
G54D18*
X2314800Y3481129D02*
X2346200D01*
G54D19*
X2314800Y3487029D02*
X2346200D01*
X2314800Y3475229D02*
X2346200D01*
G54D18*
X2314800Y3623129D02*
X2346200D01*
G54D19*
X2314800Y3629029D02*
X2346200D01*
X2314800Y3617229D02*
X2346200D01*
G54D20*
X2409650Y3650129D02*
X2431350D01*
X2409650Y3453129D02*
X2431350D01*
G54D21*
X3728500Y3629729D02*
Y3656529D01*
X3771500Y3629729D02*
Y3656529D01*
X3815500Y3629729D02*
Y3656529D01*
X3858500Y3629729D02*
Y3656529D01*
X3901500Y3629729D02*
Y3656529D01*
X3944500Y3629729D02*
Y3656529D01*
X3988500Y3629729D02*
Y3656529D01*
X4031500Y3629729D02*
Y3656529D01*
G54D22*
X4125500Y3718029D02*
Y3768229D01*
G54D23*
X4111300Y3718129D02*
Y3768129D01*
X4139700Y3718129D02*
Y3768129D01*
G54D22*
X3583500Y3718029D02*
Y3768229D01*
G54D23*
X3569300Y3718129D02*
Y3768129D01*
X3597700Y3718129D02*
Y3768129D01*
G54D22*
X3583500Y3391029D02*
Y3441229D01*
G54D23*
X3569300Y3391129D02*
Y3441129D01*
X3597700Y3391129D02*
Y3441129D01*
G54D22*
X4125500Y3391029D02*
Y3441229D01*
G54D23*
X4111300Y3391129D02*
Y3441129D01*
X4139700Y3391129D02*
Y3441129D01*
G54D24*
X3421550Y3964129D02*
X3425450D01*
X3421550Y4023129D02*
X3425450D01*
X4216550Y3984129D02*
X4220450D01*
X4216550Y4043129D02*
X4220450D01*
X3311550Y3558129D02*
X3315450D01*
X3311550Y3499129D02*
X3315450D01*
X3256550Y3718129D02*
X3260450D01*
X3256550Y3777129D02*
X3260450D01*
X3256550Y3667129D02*
X3260450D01*
X3256550Y3608129D02*
X3260450D01*
X2601550Y3542129D02*
X2605450D01*
X2601550Y3483129D02*
X2605450D01*
X3201550Y3887129D02*
X3205450D01*
X3201550Y3828129D02*
X3205450D01*
X3201550Y3718129D02*
X3205450D01*
X3201550Y3777129D02*
X3205450D01*
X3256550Y3828129D02*
X3260450D01*
X3256550Y3887129D02*
X3260450D01*
X3311550Y3718129D02*
X3315450D01*
X3311550Y3777129D02*
X3315450D01*
X3311550Y3667129D02*
X3315450D01*
X3311550Y3608129D02*
X3315450D01*
G54D10*
X4221100Y4750129D02*
X4295900D01*
X4240800Y4975129D02*
X4276200D01*
G54D11*
X3124550Y4870129D02*
X3132450D01*
X3124550Y4795129D02*
X3132450D01*
X4199550Y4593129D02*
X4207450D01*
X4199550Y4668129D02*
X4207450D01*
G54D12*
X4101900Y4976129D02*
X4155100D01*
X4101900Y5026129D02*
X4155100D01*
X4101900Y5076129D02*
X4155100D01*
X4101900Y5126129D02*
X4155100D01*
X3831900Y4976129D02*
X3885100D01*
X3831900Y5026129D02*
X3885100D01*
X3831900Y5076129D02*
X3885100D01*
X3741900Y4976129D02*
X3795100D01*
X3741900Y5026129D02*
X3795100D01*
X3741900Y5076129D02*
X3795100D01*
X3741900Y5126129D02*
X3795100D01*
X3471900Y4976129D02*
X3525100D01*
X3471900Y5026129D02*
X3525100D01*
X3471900Y5076129D02*
X3525100D01*
G54D13*
X3831900Y5126129D02*
X3885100D01*
X3471900D02*
X3525100D01*
G54D11*
X3440500Y4657179D02*
Y4665079D01*
X3515500Y4657179D02*
Y4665079D01*
G54D14*
X3511650Y4842129D02*
X3525350D01*
X3511650Y4916129D02*
X3525350D01*
X3420650Y4879129D02*
X3434350D01*
G54D15*
X3447500Y4800179D02*
Y4808079D01*
Y4725179D02*
Y4733079D01*
X3473500Y4725179D02*
Y4733079D01*
X3498500Y4725179D02*
Y4733079D01*
Y4800179D02*
Y4808079D01*
X3473500Y4800179D02*
Y4808079D01*
G54D16*
X2633500Y4831979D02*
Y4862278D01*
X2649500Y4965979D02*
Y4996278D01*
Y4831979D02*
Y4862278D01*
X2664500Y4965979D02*
Y4996278D01*
Y4831979D02*
Y4862278D01*
X2680500Y4965979D02*
Y4996278D01*
Y4831979D02*
Y4862278D01*
X2633500Y4965979D02*
Y4996278D01*
X2696500Y4965979D02*
Y4996278D01*
Y4831979D02*
Y4862278D01*
X2712500Y4965979D02*
Y4996278D01*
Y4831979D02*
Y4862278D01*
X2727500Y4965979D02*
Y4996278D01*
Y4831979D02*
Y4862278D01*
X2743500Y4965979D02*
Y4996278D01*
Y4831979D02*
Y4862278D01*
X2759500Y4965979D02*
Y4996278D01*
Y4831979D02*
Y4862278D01*
X2775500Y4965979D02*
Y4996278D01*
Y4831979D02*
Y4862278D01*
X2790500Y4965979D02*
Y4996278D01*
Y4831979D02*
Y4862278D01*
X2806500Y4965979D02*
Y4996278D01*
Y4831979D02*
Y4862278D01*
X2822500Y4965979D02*
Y4996278D01*
Y4831979D02*
Y4862278D01*
X2838500Y4965979D02*
Y4996278D01*
G54D17*
Y4831979D02*
Y4862278D01*
G54D18*
X2495800Y4686129D02*
X2527200D01*
G54D19*
X2495800Y4692029D02*
X2527200D01*
X2495800Y4680229D02*
X2527200D01*
G54D18*
X2495800Y4544129D02*
X2527200D01*
G54D19*
X2495800Y4550029D02*
X2527200D01*
X2495800Y4538229D02*
X2527200D01*
G54D18*
X2314800Y4544129D02*
X2346200D01*
G54D19*
X2314800Y4550029D02*
X2346200D01*
X2314800Y4538229D02*
X2346200D01*
G54D18*
X2314800Y4686129D02*
X2346200D01*
G54D19*
X2314800Y4692029D02*
X2346200D01*
X2314800Y4680229D02*
X2346200D01*
G54D20*
X2409650Y4713129D02*
X2431350D01*
X2409650Y4516129D02*
X2431350D01*
G54D21*
X3728500Y4692729D02*
Y4719529D01*
X3771500Y4692729D02*
Y4719529D01*
X3815500Y4692729D02*
Y4719529D01*
X3858500Y4692729D02*
Y4719529D01*
X3901500Y4692729D02*
Y4719529D01*
X3944500Y4692729D02*
Y4719529D01*
X3988500Y4692729D02*
Y4719529D01*
X4031500Y4692729D02*
Y4719529D01*
G54D22*
X4125500Y4781029D02*
Y4831229D01*
G54D23*
X4111300Y4781129D02*
Y4831129D01*
X4139700Y4781129D02*
Y4831129D01*
G54D22*
X3583500Y4781029D02*
Y4831229D01*
G54D23*
X3569300Y4781129D02*
Y4831129D01*
X3597700Y4781129D02*
Y4831129D01*
G54D22*
X3583500Y4454029D02*
Y4504229D01*
G54D23*
X3569300Y4454129D02*
Y4504129D01*
X3597700Y4454129D02*
Y4504129D01*
G54D22*
X4125500Y4454029D02*
Y4504229D01*
G54D23*
X4111300Y4454129D02*
Y4504129D01*
X4139700Y4454129D02*
Y4504129D01*
G54D24*
X3421550Y5027129D02*
X3425450D01*
X3421550Y5086129D02*
X3425450D01*
X4216550Y5047129D02*
X4220450D01*
X4216550Y5106129D02*
X4220450D01*
X3311550Y4621129D02*
X3315450D01*
X3311550Y4562129D02*
X3315450D01*
X3256550Y4781129D02*
X3260450D01*
X3256550Y4840129D02*
X3260450D01*
X3256550Y4730129D02*
X3260450D01*
X3256550Y4671129D02*
X3260450D01*
X2601550Y4605129D02*
X2605450D01*
X2601550Y4546129D02*
X2605450D01*
X3201550Y4950129D02*
X3205450D01*
X3201550Y4891129D02*
X3205450D01*
X3201550Y4781129D02*
X3205450D01*
X3201550Y4840129D02*
X3205450D01*
X3256550Y4891129D02*
X3260450D01*
X3256550Y4950129D02*
X3260450D01*
X3311550Y4781129D02*
X3315450D01*
X3311550Y4840129D02*
X3315450D01*
X3311550Y4730129D02*
X3315450D01*
X3311550Y4671129D02*
X3315450D01*
G54D10*
X6504600Y498131D02*
X6579400D01*
X6524300Y723131D02*
X6559700D01*
G54D11*
X5408050Y618131D02*
X5415950D01*
X5408050Y543131D02*
X5415950D01*
X6483050Y341131D02*
X6490950D01*
X6483050Y416131D02*
X6490950D01*
G54D12*
X6385400Y724131D02*
X6438600D01*
X6385400Y774131D02*
X6438600D01*
X6385400Y824131D02*
X6438600D01*
X6385400Y874131D02*
X6438600D01*
X6115400Y724131D02*
X6168600D01*
X6115400Y774131D02*
X6168600D01*
X6115400Y824131D02*
X6168600D01*
X6025400Y724131D02*
X6078600D01*
X6025400Y774131D02*
X6078600D01*
X6025400Y824131D02*
X6078600D01*
X6025400Y874131D02*
X6078600D01*
X5755400Y724131D02*
X5808600D01*
X5755400Y774131D02*
X5808600D01*
X5755400Y824131D02*
X5808600D01*
G54D13*
X6115400Y874131D02*
X6168600D01*
X5755400D02*
X5808600D01*
G54D11*
X5724000Y405181D02*
Y413081D01*
X5799000Y405181D02*
Y413081D01*
G54D14*
X5795150Y590131D02*
X5808850D01*
X5795150Y664131D02*
X5808850D01*
X5704150Y627131D02*
X5717850D01*
G54D15*
X5731000Y548181D02*
Y556081D01*
Y473181D02*
Y481081D01*
X5757000Y473181D02*
Y481081D01*
X5782000Y473181D02*
Y481081D01*
Y548181D02*
Y556081D01*
X5757000Y548181D02*
Y556081D01*
G54D16*
X4917000Y579981D02*
Y610281D01*
X4933000Y713981D02*
Y744281D01*
Y579981D02*
Y610281D01*
X4948000Y713981D02*
Y744281D01*
Y579981D02*
Y610281D01*
X4964000Y713981D02*
Y744281D01*
Y579981D02*
Y610281D01*
X4917000Y713981D02*
Y744281D01*
X4980000Y713981D02*
Y744281D01*
Y579981D02*
Y610281D01*
X4996000Y713981D02*
Y744281D01*
Y579981D02*
Y610281D01*
X5011000Y713981D02*
Y744281D01*
Y579981D02*
Y610281D01*
X5027000Y713981D02*
Y744281D01*
Y579981D02*
Y610281D01*
X5043000Y713981D02*
Y744281D01*
Y579981D02*
Y610281D01*
X5059000Y713981D02*
Y744281D01*
Y579981D02*
Y610281D01*
X5074000Y713981D02*
Y744281D01*
Y579981D02*
Y610281D01*
X5090000Y713981D02*
Y744281D01*
Y579981D02*
Y610281D01*
X5106000Y713981D02*
Y744281D01*
Y579981D02*
Y610281D01*
X5122000Y713981D02*
Y744281D01*
G54D17*
Y579981D02*
Y610281D01*
G54D18*
X4779300Y434131D02*
X4810700D01*
G54D19*
X4779300Y440031D02*
X4810700D01*
X4779300Y428231D02*
X4810700D01*
G54D18*
X4779300Y292131D02*
X4810700D01*
G54D19*
X4779300Y298031D02*
X4810700D01*
X4779300Y286231D02*
X4810700D01*
G54D18*
X4598300Y292131D02*
X4629700D01*
G54D19*
X4598300Y298031D02*
X4629700D01*
X4598300Y286231D02*
X4629700D01*
G54D18*
X4598300Y434131D02*
X4629700D01*
G54D19*
X4598300Y440031D02*
X4629700D01*
X4598300Y428231D02*
X4629700D01*
G54D20*
X4693150Y461131D02*
X4714850D01*
X4693150Y264131D02*
X4714850D01*
G54D21*
X6012000Y440731D02*
Y467531D01*
X6055000Y440731D02*
Y467531D01*
X6099000Y440731D02*
Y467531D01*
X6142000Y440731D02*
Y467531D01*
X6185000Y440731D02*
Y467531D01*
X6228000Y440731D02*
Y467531D01*
X6272000Y440731D02*
Y467531D01*
X6315000Y440731D02*
Y467531D01*
G54D22*
X6409000Y529031D02*
Y579231D01*
G54D23*
X6394800Y529131D02*
Y579131D01*
X6423200Y529131D02*
Y579131D01*
G54D22*
X5867000Y529031D02*
Y579231D01*
G54D23*
X5852800Y529131D02*
Y579131D01*
X5881200Y529131D02*
Y579131D01*
G54D22*
X5867000Y202031D02*
Y252231D01*
G54D23*
X5852800Y202131D02*
Y252131D01*
X5881200Y202131D02*
Y252131D01*
G54D22*
X6409000Y202031D02*
Y252231D01*
G54D23*
X6394800Y202131D02*
Y252131D01*
X6423200Y202131D02*
Y252131D01*
G54D24*
X5705050Y775131D02*
X5708950D01*
X5705050Y834131D02*
X5708950D01*
X6500050Y795131D02*
X6503950D01*
X6500050Y854131D02*
X6503950D01*
X5595050Y369131D02*
X5598950D01*
X5595050Y310131D02*
X5598950D01*
X5540050Y529131D02*
X5543950D01*
X5540050Y588131D02*
X5543950D01*
X5540050Y478131D02*
X5543950D01*
X5540050Y419131D02*
X5543950D01*
X4885050Y353131D02*
X4888950D01*
X4885050Y294131D02*
X4888950D01*
X5485050Y698131D02*
X5488950D01*
X5485050Y639131D02*
X5488950D01*
X5485050Y529131D02*
X5488950D01*
X5485050Y588131D02*
X5488950D01*
X5540050Y639131D02*
X5543950D01*
X5540050Y698131D02*
X5543950D01*
X5595050Y529131D02*
X5598950D01*
X5595050Y588131D02*
X5598950D01*
X5595050Y478131D02*
X5598950D01*
X5595050Y419131D02*
X5598950D01*
G54D10*
X6504600Y1561130D02*
X6579400D01*
X6524300Y1786130D02*
X6559700D01*
G54D11*
X5408050Y1681130D02*
X5415950D01*
X5408050Y1606130D02*
X5415950D01*
X6483050Y1404130D02*
X6490950D01*
X6483050Y1479130D02*
X6490950D01*
G54D12*
X6385400Y1787130D02*
X6438600D01*
X6385400Y1837130D02*
X6438600D01*
X6385400Y1887130D02*
X6438600D01*
X6385400Y1937130D02*
X6438600D01*
X6115400Y1787130D02*
X6168600D01*
X6115400Y1837130D02*
X6168600D01*
X6115400Y1887130D02*
X6168600D01*
X6025400Y1787130D02*
X6078600D01*
X6025400Y1837130D02*
X6078600D01*
X6025400Y1887130D02*
X6078600D01*
X6025400Y1937130D02*
X6078600D01*
X5755400Y1787130D02*
X5808600D01*
X5755400Y1837130D02*
X5808600D01*
X5755400Y1887130D02*
X5808600D01*
G54D13*
X6115400Y1937130D02*
X6168600D01*
X5755400D02*
X5808600D01*
G54D11*
X5724000Y1468180D02*
Y1476080D01*
X5799000Y1468180D02*
Y1476080D01*
G54D14*
X5795150Y1653130D02*
X5808850D01*
X5795150Y1727130D02*
X5808850D01*
X5704150Y1690130D02*
X5717850D01*
G54D15*
X5731000Y1611180D02*
Y1619080D01*
Y1536180D02*
Y1544080D01*
X5757000Y1536180D02*
Y1544080D01*
X5782000Y1536180D02*
Y1544080D01*
Y1611180D02*
Y1619080D01*
X5757000Y1611180D02*
Y1619080D01*
G54D16*
X4917000Y1642981D02*
Y1673280D01*
X4933000Y1776981D02*
Y1807280D01*
Y1642981D02*
Y1673280D01*
X4948000Y1776981D02*
Y1807280D01*
Y1642981D02*
Y1673280D01*
X4964000Y1776981D02*
Y1807280D01*
Y1642981D02*
Y1673280D01*
X4917000Y1776981D02*
Y1807280D01*
X4980000Y1776981D02*
Y1807280D01*
Y1642981D02*
Y1673280D01*
X4996000Y1776981D02*
Y1807280D01*
Y1642981D02*
Y1673280D01*
X5011000Y1776981D02*
Y1807280D01*
Y1642981D02*
Y1673280D01*
X5027000Y1776981D02*
Y1807280D01*
Y1642981D02*
Y1673280D01*
X5043000Y1776981D02*
Y1807280D01*
Y1642981D02*
Y1673280D01*
X5059000Y1776981D02*
Y1807280D01*
Y1642981D02*
Y1673280D01*
X5074000Y1776981D02*
Y1807280D01*
Y1642981D02*
Y1673280D01*
X5090000Y1776981D02*
Y1807280D01*
Y1642981D02*
Y1673280D01*
X5106000Y1776981D02*
Y1807280D01*
Y1642981D02*
Y1673280D01*
X5122000Y1776981D02*
Y1807280D01*
G54D17*
Y1642981D02*
Y1673280D01*
G54D18*
X4779300Y1497130D02*
X4810700D01*
G54D19*
X4779300Y1503030D02*
X4810700D01*
X4779300Y1491230D02*
X4810700D01*
G54D18*
X4779300Y1355130D02*
X4810700D01*
G54D19*
X4779300Y1361030D02*
X4810700D01*
X4779300Y1349230D02*
X4810700D01*
G54D18*
X4598300Y1355130D02*
X4629700D01*
G54D19*
X4598300Y1361030D02*
X4629700D01*
X4598300Y1349230D02*
X4629700D01*
G54D18*
X4598300Y1497130D02*
X4629700D01*
G54D19*
X4598300Y1503030D02*
X4629700D01*
X4598300Y1491230D02*
X4629700D01*
G54D20*
X4693150Y1524130D02*
X4714850D01*
X4693150Y1327130D02*
X4714850D01*
G54D21*
X6012000Y1503730D02*
Y1530530D01*
X6055000Y1503730D02*
Y1530530D01*
X6099000Y1503730D02*
Y1530530D01*
X6142000Y1503730D02*
Y1530530D01*
X6185000Y1503730D02*
Y1530530D01*
X6228000Y1503730D02*
Y1530530D01*
X6272000Y1503730D02*
Y1530530D01*
X6315000Y1503730D02*
Y1530530D01*
G54D22*
X6409000Y1592030D02*
Y1642230D01*
G54D23*
X6394800Y1592130D02*
Y1642130D01*
X6423200Y1592130D02*
Y1642130D01*
G54D22*
X5867000Y1592030D02*
Y1642230D01*
G54D23*
X5852800Y1592130D02*
Y1642130D01*
X5881200Y1592130D02*
Y1642130D01*
G54D22*
X5867000Y1265030D02*
Y1315230D01*
G54D23*
X5852800Y1265130D02*
Y1315130D01*
X5881200Y1265130D02*
Y1315130D01*
G54D22*
X6409000Y1265030D02*
Y1315230D01*
G54D23*
X6394800Y1265130D02*
Y1315130D01*
X6423200Y1265130D02*
Y1315130D01*
G54D24*
X5705050Y1838130D02*
X5708950D01*
X5705050Y1897130D02*
X5708950D01*
X6500050Y1858130D02*
X6503950D01*
X6500050Y1917130D02*
X6503950D01*
X5595050Y1432130D02*
X5598950D01*
X5595050Y1373130D02*
X5598950D01*
X5540050Y1592130D02*
X5543950D01*
X5540050Y1651130D02*
X5543950D01*
X5540050Y1541130D02*
X5543950D01*
X5540050Y1482130D02*
X5543950D01*
X4885050Y1416130D02*
X4888950D01*
X4885050Y1357130D02*
X4888950D01*
X5485050Y1761130D02*
X5488950D01*
X5485050Y1702130D02*
X5488950D01*
X5485050Y1592130D02*
X5488950D01*
X5485050Y1651130D02*
X5488950D01*
X5540050Y1702130D02*
X5543950D01*
X5540050Y1761130D02*
X5543950D01*
X5595050Y1592130D02*
X5598950D01*
X5595050Y1651130D02*
X5598950D01*
X5595050Y1541130D02*
X5598950D01*
X5595050Y1482130D02*
X5598950D01*
G54D10*
X6504600Y2624130D02*
X6579400D01*
X6524300Y2849130D02*
X6559700D01*
G54D11*
X5408050Y2744130D02*
X5415950D01*
X5408050Y2669130D02*
X5415950D01*
X6483050Y2467130D02*
X6490950D01*
X6483050Y2542130D02*
X6490950D01*
G54D12*
X6385400Y2850130D02*
X6438600D01*
X6385400Y2900130D02*
X6438600D01*
X6385400Y2950130D02*
X6438600D01*
X6385400Y3000130D02*
X6438600D01*
X6115400Y2850130D02*
X6168600D01*
X6115400Y2900130D02*
X6168600D01*
X6115400Y2950130D02*
X6168600D01*
X6025400Y2850130D02*
X6078600D01*
X6025400Y2900130D02*
X6078600D01*
X6025400Y2950130D02*
X6078600D01*
X6025400Y3000130D02*
X6078600D01*
X5755400Y2850130D02*
X5808600D01*
X5755400Y2900130D02*
X5808600D01*
X5755400Y2950130D02*
X5808600D01*
G54D13*
X6115400Y3000130D02*
X6168600D01*
X5755400D02*
X5808600D01*
G54D11*
X5724000Y2531180D02*
Y2539080D01*
X5799000Y2531180D02*
Y2539080D01*
G54D14*
X5795150Y2716130D02*
X5808850D01*
X5795150Y2790130D02*
X5808850D01*
X5704150Y2753130D02*
X5717850D01*
G54D15*
X5731000Y2674180D02*
Y2682080D01*
Y2599180D02*
Y2607080D01*
X5757000Y2599180D02*
Y2607080D01*
X5782000Y2599180D02*
Y2607080D01*
Y2674180D02*
Y2682080D01*
X5757000Y2674180D02*
Y2682080D01*
G54D16*
X4917000Y2705980D02*
Y2736280D01*
X4933000Y2839980D02*
Y2870280D01*
Y2705980D02*
Y2736280D01*
X4948000Y2839980D02*
Y2870280D01*
Y2705980D02*
Y2736280D01*
X4964000Y2839980D02*
Y2870280D01*
Y2705980D02*
Y2736280D01*
X4917000Y2839980D02*
Y2870280D01*
X4980000Y2839980D02*
Y2870280D01*
Y2705980D02*
Y2736280D01*
X4996000Y2839980D02*
Y2870280D01*
Y2705980D02*
Y2736280D01*
X5011000Y2839980D02*
Y2870280D01*
Y2705980D02*
Y2736280D01*
X5027000Y2839980D02*
Y2870280D01*
Y2705980D02*
Y2736280D01*
X5043000Y2839980D02*
Y2870280D01*
Y2705980D02*
Y2736280D01*
X5059000Y2839980D02*
Y2870280D01*
Y2705980D02*
Y2736280D01*
X5074000Y2839980D02*
Y2870280D01*
Y2705980D02*
Y2736280D01*
X5090000Y2839980D02*
Y2870280D01*
Y2705980D02*
Y2736280D01*
X5106000Y2839980D02*
Y2870280D01*
Y2705980D02*
Y2736280D01*
X5122000Y2839980D02*
Y2870280D01*
G54D17*
Y2705980D02*
Y2736280D01*
G54D18*
X4779300Y2560130D02*
X4810700D01*
G54D19*
X4779300Y2566030D02*
X4810700D01*
X4779300Y2554230D02*
X4810700D01*
G54D18*
X4779300Y2418130D02*
X4810700D01*
G54D19*
X4779300Y2424030D02*
X4810700D01*
X4779300Y2412230D02*
X4810700D01*
G54D18*
X4598300Y2418130D02*
X4629700D01*
G54D19*
X4598300Y2424030D02*
X4629700D01*
X4598300Y2412230D02*
X4629700D01*
G54D18*
X4598300Y2560130D02*
X4629700D01*
G54D19*
X4598300Y2566030D02*
X4629700D01*
X4598300Y2554230D02*
X4629700D01*
G54D20*
X4693150Y2587130D02*
X4714850D01*
X4693150Y2390130D02*
X4714850D01*
G54D21*
X6012000Y2566730D02*
Y2593530D01*
X6055000Y2566730D02*
Y2593530D01*
X6099000Y2566730D02*
Y2593530D01*
X6142000Y2566730D02*
Y2593530D01*
X6185000Y2566730D02*
Y2593530D01*
X6228000Y2566730D02*
Y2593530D01*
X6272000Y2566730D02*
Y2593530D01*
X6315000Y2566730D02*
Y2593530D01*
G54D22*
X6409000Y2655030D02*
Y2705230D01*
G54D23*
X6394800Y2655130D02*
Y2705130D01*
X6423200Y2655130D02*
Y2705130D01*
G54D22*
X5867000Y2655030D02*
Y2705230D01*
G54D23*
X5852800Y2655130D02*
Y2705130D01*
X5881200Y2655130D02*
Y2705130D01*
G54D22*
X5867000Y2328030D02*
Y2378230D01*
G54D23*
X5852800Y2328130D02*
Y2378130D01*
X5881200Y2328130D02*
Y2378130D01*
G54D22*
X6409000Y2328030D02*
Y2378230D01*
G54D23*
X6394800Y2328130D02*
Y2378130D01*
X6423200Y2328130D02*
Y2378130D01*
G54D24*
X5705050Y2901130D02*
X5708950D01*
X5705050Y2960130D02*
X5708950D01*
X6500050Y2921130D02*
X6503950D01*
X6500050Y2980130D02*
X6503950D01*
X5595050Y2495130D02*
X5598950D01*
X5595050Y2436130D02*
X5598950D01*
X5540050Y2655130D02*
X5543950D01*
X5540050Y2714130D02*
X5543950D01*
X5540050Y2604130D02*
X5543950D01*
X5540050Y2545130D02*
X5543950D01*
X4885050Y2479130D02*
X4888950D01*
X4885050Y2420130D02*
X4888950D01*
X5485050Y2824130D02*
X5488950D01*
X5485050Y2765130D02*
X5488950D01*
X5485050Y2655130D02*
X5488950D01*
X5485050Y2714130D02*
X5488950D01*
X5540050Y2765130D02*
X5543950D01*
X5540050Y2824130D02*
X5543950D01*
X5595050Y2655130D02*
X5598950D01*
X5595050Y2714130D02*
X5598950D01*
X5595050Y2604130D02*
X5598950D01*
X5595050Y2545130D02*
X5598950D01*
G54D10*
X6504600Y3687129D02*
X6579400D01*
X6524300Y3912129D02*
X6559700D01*
G54D11*
X5408050Y3807129D02*
X5415950D01*
X5408050Y3732129D02*
X5415950D01*
X6483050Y3530129D02*
X6490950D01*
X6483050Y3605129D02*
X6490950D01*
G54D12*
X6385400Y3913129D02*
X6438600D01*
X6385400Y3963129D02*
X6438600D01*
X6385400Y4013129D02*
X6438600D01*
X6385400Y4063129D02*
X6438600D01*
X6115400Y3913129D02*
X6168600D01*
X6115400Y3963129D02*
X6168600D01*
X6115400Y4013129D02*
X6168600D01*
X6025400Y3913129D02*
X6078600D01*
X6025400Y3963129D02*
X6078600D01*
X6025400Y4013129D02*
X6078600D01*
X6025400Y4063129D02*
X6078600D01*
X5755400Y3913129D02*
X5808600D01*
X5755400Y3963129D02*
X5808600D01*
X5755400Y4013129D02*
X5808600D01*
G54D13*
X6115400Y4063129D02*
X6168600D01*
X5755400D02*
X5808600D01*
G54D11*
X5724000Y3594179D02*
Y3602079D01*
X5799000Y3594179D02*
Y3602079D01*
G54D14*
X5795150Y3779129D02*
X5808850D01*
X5795150Y3853129D02*
X5808850D01*
X5704150Y3816129D02*
X5717850D01*
G54D15*
X5731000Y3737179D02*
Y3745079D01*
Y3662179D02*
Y3670079D01*
X5757000Y3662179D02*
Y3670079D01*
X5782000Y3662179D02*
Y3670079D01*
Y3737179D02*
Y3745079D01*
X5757000Y3737179D02*
Y3745079D01*
G54D16*
X4917000Y3768979D02*
Y3799279D01*
X4933000Y3902979D02*
Y3933279D01*
Y3768979D02*
Y3799279D01*
X4948000Y3902979D02*
Y3933279D01*
Y3768979D02*
Y3799279D01*
X4964000Y3902979D02*
Y3933279D01*
Y3768979D02*
Y3799279D01*
X4917000Y3902979D02*
Y3933279D01*
X4980000Y3902979D02*
Y3933279D01*
Y3768979D02*
Y3799279D01*
X4996000Y3902979D02*
Y3933279D01*
Y3768979D02*
Y3799279D01*
X5011000Y3902979D02*
Y3933279D01*
Y3768979D02*
Y3799279D01*
X5027000Y3902979D02*
Y3933279D01*
Y3768979D02*
Y3799279D01*
X5043000Y3902979D02*
Y3933279D01*
Y3768979D02*
Y3799279D01*
X5059000Y3902979D02*
Y3933279D01*
Y3768979D02*
Y3799279D01*
X5074000Y3902979D02*
Y3933279D01*
Y3768979D02*
Y3799279D01*
X5090000Y3902979D02*
Y3933279D01*
Y3768979D02*
Y3799279D01*
X5106000Y3902979D02*
Y3933279D01*
Y3768979D02*
Y3799279D01*
X5122000Y3902979D02*
Y3933279D01*
G54D17*
Y3768979D02*
Y3799279D01*
G54D18*
X4779300Y3623129D02*
X4810700D01*
G54D19*
X4779300Y3629029D02*
X4810700D01*
X4779300Y3617229D02*
X4810700D01*
G54D18*
X4779300Y3481129D02*
X4810700D01*
G54D19*
X4779300Y3487029D02*
X4810700D01*
X4779300Y3475229D02*
X4810700D01*
G54D18*
X4598300Y3481129D02*
X4629700D01*
G54D19*
X4598300Y3487029D02*
X4629700D01*
X4598300Y3475229D02*
X4629700D01*
G54D18*
X4598300Y3623129D02*
X4629700D01*
G54D19*
X4598300Y3629029D02*
X4629700D01*
X4598300Y3617229D02*
X4629700D01*
G54D20*
X4693150Y3650129D02*
X4714850D01*
X4693150Y3453129D02*
X4714850D01*
G54D21*
X6012000Y3629729D02*
Y3656529D01*
X6055000Y3629729D02*
Y3656529D01*
X6099000Y3629729D02*
Y3656529D01*
X6142000Y3629729D02*
Y3656529D01*
X6185000Y3629729D02*
Y3656529D01*
X6228000Y3629729D02*
Y3656529D01*
X6272000Y3629729D02*
Y3656529D01*
X6315000Y3629729D02*
Y3656529D01*
G54D22*
X6409000Y3718029D02*
Y3768229D01*
G54D23*
X6394800Y3718129D02*
Y3768129D01*
X6423200Y3718129D02*
Y3768129D01*
G54D22*
X5867000Y3718029D02*
Y3768229D01*
G54D23*
X5852800Y3718129D02*
Y3768129D01*
X5881200Y3718129D02*
Y3768129D01*
G54D22*
X5867000Y3391029D02*
Y3441229D01*
G54D23*
X5852800Y3391129D02*
Y3441129D01*
X5881200Y3391129D02*
Y3441129D01*
G54D22*
X6409000Y3391029D02*
Y3441229D01*
G54D23*
X6394800Y3391129D02*
Y3441129D01*
X6423200Y3391129D02*
Y3441129D01*
G54D24*
X5705050Y3964129D02*
X5708950D01*
X5705050Y4023129D02*
X5708950D01*
X6500050Y3984129D02*
X6503950D01*
X6500050Y4043129D02*
X6503950D01*
X5595050Y3558129D02*
X5598950D01*
X5595050Y3499129D02*
X5598950D01*
X5540050Y3718129D02*
X5543950D01*
X5540050Y3777129D02*
X5543950D01*
X5540050Y3667129D02*
X5543950D01*
X5540050Y3608129D02*
X5543950D01*
X4885050Y3542129D02*
X4888950D01*
X4885050Y3483129D02*
X4888950D01*
X5485050Y3887129D02*
X5488950D01*
X5485050Y3828129D02*
X5488950D01*
X5485050Y3718129D02*
X5488950D01*
X5485050Y3777129D02*
X5488950D01*
X5540050Y3828129D02*
X5543950D01*
X5540050Y3887129D02*
X5543950D01*
X5595050Y3718129D02*
X5598950D01*
X5595050Y3777129D02*
X5598950D01*
X5595050Y3667129D02*
X5598950D01*
X5595050Y3608129D02*
X5598950D01*
G54D10*
X6504600Y4750129D02*
X6579400D01*
X6524300Y4975129D02*
X6559700D01*
G54D11*
X5408050Y4870129D02*
X5415950D01*
X5408050Y4795129D02*
X5415950D01*
X6483050Y4593129D02*
X6490950D01*
X6483050Y4668129D02*
X6490950D01*
G54D12*
X6385400Y4976129D02*
X6438600D01*
X6385400Y5026129D02*
X6438600D01*
X6385400Y5076129D02*
X6438600D01*
X6385400Y5126129D02*
X6438600D01*
X6115400Y4976129D02*
X6168600D01*
X6115400Y5026129D02*
X6168600D01*
X6115400Y5076129D02*
X6168600D01*
X6025400Y4976129D02*
X6078600D01*
X6025400Y5026129D02*
X6078600D01*
X6025400Y5076129D02*
X6078600D01*
X6025400Y5126129D02*
X6078600D01*
X5755400Y4976129D02*
X5808600D01*
X5755400Y5026129D02*
X5808600D01*
X5755400Y5076129D02*
X5808600D01*
G54D13*
X6115400Y5126129D02*
X6168600D01*
X5755400D02*
X5808600D01*
G54D11*
X5724000Y4657179D02*
Y4665079D01*
X5799000Y4657179D02*
Y4665079D01*
G54D14*
X5795150Y4842129D02*
X5808850D01*
X5795150Y4916129D02*
X5808850D01*
X5704150Y4879129D02*
X5717850D01*
G54D15*
X5731000Y4800179D02*
Y4808079D01*
Y4725179D02*
Y4733079D01*
X5757000Y4725179D02*
Y4733079D01*
X5782000Y4725179D02*
Y4733079D01*
Y4800179D02*
Y4808079D01*
X5757000Y4800179D02*
Y4808079D01*
G54D16*
X4917000Y4831979D02*
Y4862278D01*
X4933000Y4965979D02*
Y4996278D01*
Y4831979D02*
Y4862278D01*
X4948000Y4965979D02*
Y4996278D01*
Y4831979D02*
Y4862278D01*
X4964000Y4965979D02*
Y4996278D01*
Y4831979D02*
Y4862278D01*
X4917000Y4965979D02*
Y4996278D01*
X4980000Y4965979D02*
Y4996278D01*
Y4831979D02*
Y4862278D01*
X4996000Y4965979D02*
Y4996278D01*
Y4831979D02*
Y4862278D01*
X5011000Y4965979D02*
Y4996278D01*
Y4831979D02*
Y4862278D01*
X5027000Y4965979D02*
Y4996278D01*
Y4831979D02*
Y4862278D01*
X5043000Y4965979D02*
Y4996278D01*
Y4831979D02*
Y4862278D01*
X5059000Y4965979D02*
Y4996278D01*
Y4831979D02*
Y4862278D01*
X5074000Y4965979D02*
Y4996278D01*
Y4831979D02*
Y4862278D01*
X5090000Y4965979D02*
Y4996278D01*
Y4831979D02*
Y4862278D01*
X5106000Y4965979D02*
Y4996278D01*
Y4831979D02*
Y4862278D01*
X5122000Y4965979D02*
Y4996278D01*
G54D17*
Y4831979D02*
Y4862278D01*
G54D18*
X4779300Y4686129D02*
X4810700D01*
G54D19*
X4779300Y4692029D02*
X4810700D01*
X4779300Y4680229D02*
X4810700D01*
G54D18*
X4779300Y4544129D02*
X4810700D01*
G54D19*
X4779300Y4550029D02*
X4810700D01*
X4779300Y4538229D02*
X4810700D01*
G54D18*
X4598300Y4544129D02*
X4629700D01*
G54D19*
X4598300Y4550029D02*
X4629700D01*
X4598300Y4538229D02*
X4629700D01*
G54D18*
X4598300Y4686129D02*
X4629700D01*
G54D19*
X4598300Y4692029D02*
X4629700D01*
X4598300Y4680229D02*
X4629700D01*
G54D20*
X4693150Y4713129D02*
X4714850D01*
X4693150Y4516129D02*
X4714850D01*
G54D21*
X6012000Y4692729D02*
Y4719529D01*
X6055000Y4692729D02*
Y4719529D01*
X6099000Y4692729D02*
Y4719529D01*
X6142000Y4692729D02*
Y4719529D01*
X6185000Y4692729D02*
Y4719529D01*
X6228000Y4692729D02*
Y4719529D01*
X6272000Y4692729D02*
Y4719529D01*
X6315000Y4692729D02*
Y4719529D01*
G54D22*
X6409000Y4781029D02*
Y4831229D01*
G54D23*
X6394800Y4781129D02*
Y4831129D01*
X6423200Y4781129D02*
Y4831129D01*
G54D22*
X5867000Y4781029D02*
Y4831229D01*
G54D23*
X5852800Y4781129D02*
Y4831129D01*
X5881200Y4781129D02*
Y4831129D01*
G54D22*
X5867000Y4454029D02*
Y4504229D01*
G54D23*
X5852800Y4454129D02*
Y4504129D01*
X5881200Y4454129D02*
Y4504129D01*
G54D22*
X6409000Y4454029D02*
Y4504229D01*
G54D23*
X6394800Y4454129D02*
Y4504129D01*
X6423200Y4454129D02*
Y4504129D01*
G54D24*
X5705050Y5027129D02*
X5708950D01*
X5705050Y5086129D02*
X5708950D01*
X6500050Y5047129D02*
X6503950D01*
X6500050Y5106129D02*
X6503950D01*
X5595050Y4621129D02*
X5598950D01*
X5595050Y4562129D02*
X5598950D01*
X5540050Y4781129D02*
X5543950D01*
X5540050Y4840129D02*
X5543950D01*
X5540050Y4730129D02*
X5543950D01*
X5540050Y4671129D02*
X5543950D01*
X4885050Y4605129D02*
X4888950D01*
X4885050Y4546129D02*
X4888950D01*
X5485050Y4950129D02*
X5488950D01*
X5485050Y4891129D02*
X5488950D01*
X5485050Y4781129D02*
X5488950D01*
X5485050Y4840129D02*
X5488950D01*
X5540050Y4891129D02*
X5543950D01*
X5540050Y4950129D02*
X5543950D01*
X5595050Y4781129D02*
X5598950D01*
X5595050Y4840129D02*
X5598950D01*
X5595050Y4730129D02*
X5598950D01*
X5595050Y4671129D02*
X5598950D01*
G54D25*
X-98425Y4921296D03*
X6948925D03*
X-98425Y393701D03*
X6948925Y590551D03*
G54D26*
X78700Y1062999D02*
X70549Y1062662D01*
X62300Y1061299D01*
X54046Y1059103D01*
X46600Y1056199D01*
X38929Y1052294D01*
X32381Y1048000D01*
X25496Y1042343D01*
X20200Y1036999D01*
X14848Y1030334D01*
X11531Y1025247D01*
X7005Y1016677D01*
X5047Y1012162D01*
X2347Y1003573D01*
X1677Y1000739D01*
X335Y992238D01*
X0Y987099D01*
Y78699D01*
X463Y69969D01*
X1905Y61347D01*
X4309Y52942D01*
X7036Y46158D01*
X11162Y38307D01*
X16133Y30963D01*
X21889Y24215D01*
X22000Y24099D01*
X28428Y18125D01*
X34600Y13499D01*
X42493Y8884D01*
X50838Y5146D01*
X59604Y2366D01*
X67793Y793D01*
X70400Y499D01*
X78700Y-1D01*
X2204700D01*
X2215600Y799D01*
X2224178Y2494D01*
X2232510Y5143D01*
X2237582Y7286D01*
X2245657Y11629D01*
X2249046Y13806D01*
X2255980Y19088D01*
X2259300Y22099D01*
X2265271Y28524D01*
X2266700Y30299D01*
X2271775Y37698D01*
X2276007Y45609D01*
X2279345Y53936D01*
X2281000Y59699D01*
X2282624Y68148D01*
X2282900Y70499D01*
X2283500Y78699D01*
Y984299D01*
X2282700Y995299D01*
X2281006Y1003876D01*
X2278356Y1012209D01*
X2276213Y1017281D01*
X2271929Y1025232D01*
X2268077Y1030977D01*
X2262498Y1037755D01*
X2257400Y1042799D01*
X2253200Y1046399D01*
X2245802Y1051474D01*
X2237891Y1055705D01*
X2229563Y1059044D01*
X2221135Y1061300D01*
X2212851Y1062650D01*
X2207500Y1062999D01*
X78700D01*
X2362200D02*
X2354049Y1062662D01*
X2345800Y1061299D01*
X2337546Y1059103D01*
X2330100Y1056199D01*
X2322429Y1052294D01*
X2315881Y1048000D01*
X2308996Y1042343D01*
X2303700Y1036999D01*
X2298348Y1030334D01*
X2295031Y1025247D01*
X2290505Y1016677D01*
X2288547Y1012162D01*
X2285847Y1003573D01*
X2285177Y1000739D01*
X2283835Y992238D01*
X2283500Y987099D01*
Y78699D01*
X2283963Y69969D01*
X2285405Y61347D01*
X2287809Y52942D01*
X2290537Y46158D01*
X2294663Y38306D01*
X2299635Y30961D01*
X2305392Y24213D01*
X2305500Y24099D01*
X2311928Y18125D01*
X2318100Y13499D01*
X2325994Y8884D01*
X2334338Y5146D01*
X2343104Y2366D01*
X2351293Y793D01*
X2353900Y499D01*
X2362200Y-1D01*
X4488200D01*
X4499100Y799D01*
X4507678Y2494D01*
X4516010Y5143D01*
X4521082Y7286D01*
X4529157Y11629D01*
X4532546Y13806D01*
X4539480Y19088D01*
X4542800Y22099D01*
X4548771Y28524D01*
X4550200Y30299D01*
X4555275Y37698D01*
X4559507Y45609D01*
X4562845Y53936D01*
X4564500Y59699D01*
X4566124Y68148D01*
X4566400Y70499D01*
X4567000Y78699D01*
Y984299D01*
X4566200Y995299D01*
X4564506Y1003876D01*
X4561856Y1012209D01*
X4559713Y1017281D01*
X4555429Y1025232D01*
X4551577Y1030977D01*
X4545998Y1037755D01*
X4540900Y1042799D01*
X4536700Y1046399D01*
X4529302Y1051474D01*
X4521391Y1055705D01*
X4513063Y1059044D01*
X4504635Y1061300D01*
X4496351Y1062650D01*
X4491000Y1062999D01*
X2362200D01*
X4645700D02*
X4637549Y1062662D01*
X4629300Y1061299D01*
X4621046Y1059103D01*
X4613600Y1056199D01*
X4605929Y1052294D01*
X4599381Y1048000D01*
X4592496Y1042343D01*
X4587200Y1036999D01*
X4581848Y1030334D01*
X4578531Y1025247D01*
X4574005Y1016677D01*
X4572047Y1012162D01*
X4569347Y1003573D01*
X4568677Y1000739D01*
X4567335Y992238D01*
X4567000Y987099D01*
Y78699D01*
X4567463Y69969D01*
X4568905Y61347D01*
X4571309Y52942D01*
X4574037Y46158D01*
X4578163Y38306D01*
X4583135Y30961D01*
X4588892Y24213D01*
X4589000Y24099D01*
X4595428Y18125D01*
X4601600Y13499D01*
X4609494Y8884D01*
X4617838Y5146D01*
X4626604Y2366D01*
X4634793Y793D01*
X4637400Y499D01*
X4645700Y-1D01*
X6771700D01*
X6782600Y799D01*
X6791178Y2494D01*
X6799510Y5143D01*
X6804582Y7286D01*
X6812657Y11629D01*
X6816046Y13806D01*
X6822980Y19088D01*
X6826300Y22099D01*
X6832271Y28524D01*
X6833700Y30299D01*
X6838775Y37698D01*
X6843007Y45609D01*
X6846345Y53936D01*
X6848000Y59699D01*
X6849624Y68148D01*
X6849900Y70499D01*
X6850500Y78699D01*
Y984299D01*
X6849700Y995299D01*
X6848006Y1003876D01*
X6845356Y1012209D01*
X6843213Y1017281D01*
X6838929Y1025232D01*
X6835077Y1030977D01*
X6829498Y1037755D01*
X6824400Y1042799D01*
X6820200Y1046399D01*
X6812802Y1051474D01*
X6804891Y1055705D01*
X6796563Y1059044D01*
X6788135Y1061300D01*
X6779851Y1062650D01*
X6774500Y1062999D01*
X4645700D01*
X78700Y2126011D02*
X70549Y2125674D01*
X62300Y2124311D01*
X54046Y2122115D01*
X46600Y2119211D01*
X38929Y2115306D01*
X32381Y2111012D01*
X25496Y2105355D01*
X20200Y2100011D01*
X14848Y2093346D01*
X11531Y2088259D01*
X7005Y2079689D01*
X5047Y2075174D01*
X2347Y2066585D01*
X1677Y2063751D01*
X335Y2055250D01*
X0Y2050111D01*
Y1141711D01*
X463Y1132981D01*
X1905Y1124359D01*
X4309Y1115954D01*
X7036Y1109170D01*
X11162Y1101319D01*
X16134Y1093974D01*
X21891Y1087226D01*
X22000Y1087111D01*
X28428Y1081137D01*
X34600Y1076511D01*
X42493Y1071896D01*
X50838Y1068158D01*
X59604Y1065378D01*
X67792Y1063805D01*
X70400Y1063511D01*
X78700Y1063011D01*
X2204700D01*
X2215600Y1063811D01*
X2224178Y1065506D01*
X2232510Y1068155D01*
X2237582Y1070299D01*
X2245660Y1074644D01*
X2249046Y1076818D01*
X2255979Y1082099D01*
X2259300Y1085111D01*
X2265271Y1091536D01*
X2266700Y1093311D01*
X2271775Y1100710D01*
X2276007Y1108621D01*
X2279345Y1116948D01*
X2281000Y1122711D01*
X2282624Y1131160D01*
X2282900Y1133511D01*
X2283500Y1141711D01*
Y2047311D01*
X2282700Y2058311D01*
X2281006Y2066889D01*
X2278356Y2075221D01*
X2276213Y2080293D01*
X2271929Y2088244D01*
X2268077Y2093989D01*
X2262498Y2100767D01*
X2257400Y2105811D01*
X2253200Y2109411D01*
X2245802Y2114486D01*
X2237891Y2118718D01*
X2229563Y2122056D01*
X2221135Y2124312D01*
X2212851Y2125662D01*
X2207500Y2126011D01*
X78700D01*
X2362200D02*
X2354049Y2125674D01*
X2345800Y2124311D01*
X2337546Y2122115D01*
X2330100Y2119211D01*
X2322429Y2115306D01*
X2315881Y2111012D01*
X2308996Y2105355D01*
X2303700Y2100011D01*
X2298348Y2093346D01*
X2295031Y2088259D01*
X2290505Y2079689D01*
X2288547Y2075174D01*
X2285847Y2066585D01*
X2285177Y2063751D01*
X2283835Y2055250D01*
X2283500Y2050111D01*
Y1141711D01*
X2283963Y1132981D01*
X2285405Y1124359D01*
X2287809Y1115954D01*
X2290537Y1109170D01*
X2294663Y1101318D01*
X2299636Y1093972D01*
X2305393Y1087223D01*
X2305500Y1087111D01*
X2311928Y1081137D01*
X2318100Y1076511D01*
X2325994Y1071896D01*
X2334338Y1068158D01*
X2343104Y1065378D01*
X2351292Y1063805D01*
X2353900Y1063511D01*
X2362200Y1063011D01*
X4488200D01*
X4499100Y1063811D01*
X4507678Y1065506D01*
X4516010Y1068155D01*
X4521082Y1070299D01*
X4529160Y1074644D01*
X4532546Y1076818D01*
X4539479Y1082099D01*
X4542800Y1085111D01*
X4548771Y1091536D01*
X4550200Y1093311D01*
X4555275Y1100710D01*
X4559507Y1108621D01*
X4562845Y1116948D01*
X4564500Y1122711D01*
X4566124Y1131160D01*
X4566400Y1133511D01*
X4567000Y1141711D01*
Y2047311D01*
X4566200Y2058311D01*
X4564506Y2066889D01*
X4561856Y2075221D01*
X4559713Y2080293D01*
X4555429Y2088244D01*
X4551577Y2093989D01*
X4545998Y2100767D01*
X4540900Y2105811D01*
X4536700Y2109411D01*
X4529302Y2114486D01*
X4521391Y2118718D01*
X4513063Y2122056D01*
X4504635Y2124312D01*
X4496351Y2125662D01*
X4491000Y2126011D01*
X2362200D01*
X4645700D02*
X4637549Y2125674D01*
X4629300Y2124311D01*
X4621046Y2122115D01*
X4613600Y2119211D01*
X4605929Y2115306D01*
X4599381Y2111012D01*
X4592496Y2105355D01*
X4587200Y2100011D01*
X4581848Y2093346D01*
X4578531Y2088259D01*
X4574005Y2079689D01*
X4572047Y2075174D01*
X4569347Y2066585D01*
X4568677Y2063751D01*
X4567335Y2055250D01*
X4567000Y2050111D01*
Y1141711D01*
X4567463Y1132981D01*
X4568905Y1124359D01*
X4571309Y1115954D01*
X4574037Y1109170D01*
X4578163Y1101318D01*
X4583136Y1093972D01*
X4588893Y1087223D01*
X4589000Y1087111D01*
X4595428Y1081137D01*
X4601600Y1076511D01*
X4609494Y1071896D01*
X4617838Y1068158D01*
X4626604Y1065378D01*
X4634792Y1063805D01*
X4637400Y1063511D01*
X4645700Y1063011D01*
X6771700D01*
X6782600Y1063811D01*
X6791178Y1065506D01*
X6799510Y1068155D01*
X6804582Y1070299D01*
X6812660Y1074644D01*
X6816046Y1076818D01*
X6822979Y1082099D01*
X6826300Y1085111D01*
X6832271Y1091536D01*
X6833700Y1093311D01*
X6838775Y1100710D01*
X6843007Y1108621D01*
X6846345Y1116948D01*
X6848000Y1122711D01*
X6849624Y1131160D01*
X6849900Y1133511D01*
X6850500Y1141711D01*
Y2047311D01*
X6849700Y2058311D01*
X6848006Y2066889D01*
X6845356Y2075221D01*
X6843213Y2080293D01*
X6838929Y2088244D01*
X6835077Y2093989D01*
X6829498Y2100767D01*
X6824400Y2105811D01*
X6820200Y2109411D01*
X6812802Y2114486D01*
X6804891Y2118718D01*
X6796563Y2122056D01*
X6788135Y2124312D01*
X6779851Y2125662D01*
X6774500Y2126011D01*
X4645700D01*
X78700Y3189024D02*
X70549Y3188687D01*
X62300Y3187324D01*
X54046Y3185127D01*
X46600Y3182224D01*
X38930Y3178320D01*
X32381Y3174026D01*
X25495Y3168368D01*
X20200Y3163024D01*
X14849Y3156360D01*
X11532Y3151271D01*
X7004Y3142698D01*
X5047Y3138186D01*
X2347Y3129600D01*
X1677Y3126764D01*
X335Y3118262D01*
X0Y3113124D01*
Y2204724D01*
X463Y2195994D01*
X1905Y2187372D01*
X4309Y2178967D01*
X7036Y2172182D01*
X11161Y2164332D01*
X16133Y2156988D01*
X21888Y2150241D01*
X22000Y2150124D01*
X28428Y2144150D01*
X34600Y2139524D01*
X42493Y2134908D01*
X50838Y2131170D01*
X59604Y2128391D01*
X67791Y2126818D01*
X70400Y2126524D01*
X78700Y2126024D01*
X2204700D01*
X2215600Y2126824D01*
X2224178Y2128518D01*
X2232510Y2131168D01*
X2237582Y2133311D01*
X2245657Y2137654D01*
X2249046Y2139831D01*
X2255980Y2145113D01*
X2259300Y2148124D01*
X2265271Y2154549D01*
X2266700Y2156324D01*
X2271775Y2163722D01*
X2276007Y2171633D01*
X2279345Y2179961D01*
X2281000Y2185724D01*
X2282624Y2194173D01*
X2282900Y2196524D01*
X2283500Y2204724D01*
Y3110324D01*
X2282700Y3121324D01*
X2281006Y3129901D01*
X2278356Y3138233D01*
X2276213Y3143305D01*
X2271929Y3151256D01*
X2268077Y3157002D01*
X2262498Y3163780D01*
X2257400Y3168824D01*
X2253200Y3172424D01*
X2245802Y3177498D01*
X2237891Y3181730D01*
X2229563Y3185068D01*
X2221135Y3187327D01*
X2212834Y3188676D01*
X2207500Y3189024D01*
X78700D01*
X2362200D02*
X2354049Y3188687D01*
X2345800Y3187324D01*
X2337546Y3185127D01*
X2330100Y3182224D01*
X2322430Y3178320D01*
X2315881Y3174026D01*
X2308995Y3168368D01*
X2303700Y3163024D01*
X2298349Y3156360D01*
X2295032Y3151271D01*
X2290504Y3142698D01*
X2288547Y3138186D01*
X2285847Y3129600D01*
X2285177Y3126764D01*
X2283835Y3118262D01*
X2283500Y3113124D01*
Y2204724D01*
X2283963Y2195994D01*
X2285405Y2187372D01*
X2287809Y2178967D01*
X2290537Y2172182D01*
X2294663Y2164331D01*
X2299635Y2156986D01*
X2305391Y2150239D01*
X2305500Y2150124D01*
X2311928Y2144150D01*
X2318100Y2139524D01*
X2325994Y2134908D01*
X2334338Y2131170D01*
X2343104Y2128391D01*
X2351291Y2126818D01*
X2353900Y2126524D01*
X2362200Y2126024D01*
X4488200D01*
X4499100Y2126824D01*
X4507678Y2128518D01*
X4516010Y2131168D01*
X4521082Y2133311D01*
X4529157Y2137654D01*
X4532546Y2139831D01*
X4539480Y2145113D01*
X4542800Y2148124D01*
X4548771Y2154549D01*
X4550200Y2156324D01*
X4555275Y2163722D01*
X4559507Y2171633D01*
X4562845Y2179961D01*
X4564500Y2185724D01*
X4566124Y2194173D01*
X4566400Y2196524D01*
X4567000Y2204724D01*
Y3110324D01*
X4566200Y3121324D01*
X4564506Y3129901D01*
X4561856Y3138233D01*
X4559713Y3143305D01*
X4555429Y3151256D01*
X4551577Y3157002D01*
X4545998Y3163780D01*
X4540900Y3168824D01*
X4536700Y3172424D01*
X4529302Y3177498D01*
X4521391Y3181730D01*
X4513063Y3185068D01*
X4504635Y3187327D01*
X4496334Y3188676D01*
X4491000Y3189024D01*
X2362200D01*
X4645700D02*
X4637549Y3188687D01*
X4629300Y3187324D01*
X4621046Y3185127D01*
X4613600Y3182224D01*
X4605930Y3178320D01*
X4599381Y3174026D01*
X4592495Y3168368D01*
X4587200Y3163024D01*
X4581849Y3156360D01*
X4578532Y3151271D01*
X4574004Y3142698D01*
X4572047Y3138186D01*
X4569347Y3129600D01*
X4568677Y3126764D01*
X4567335Y3118262D01*
X4567000Y3113124D01*
Y2204724D01*
X4567463Y2195994D01*
X4568905Y2187372D01*
X4571309Y2178967D01*
X4574037Y2172182D01*
X4578163Y2164331D01*
X4583135Y2156986D01*
X4588891Y2150239D01*
X4589000Y2150124D01*
X4595428Y2144150D01*
X4601600Y2139524D01*
X4609494Y2134908D01*
X4617838Y2131170D01*
X4626604Y2128391D01*
X4634791Y2126818D01*
X4637400Y2126524D01*
X4645700Y2126024D01*
X6771700D01*
X6782600Y2126824D01*
X6791178Y2128518D01*
X6799510Y2131168D01*
X6804582Y2133311D01*
X6812657Y2137654D01*
X6816046Y2139831D01*
X6822980Y2145113D01*
X6826300Y2148124D01*
X6832271Y2154549D01*
X6833700Y2156324D01*
X6838775Y2163722D01*
X6843007Y2171633D01*
X6846345Y2179961D01*
X6848000Y2185724D01*
X6849624Y2194173D01*
X6849900Y2196524D01*
X6850500Y2204724D01*
Y3110324D01*
X6849700Y3121324D01*
X6848006Y3129901D01*
X6845356Y3138233D01*
X6843213Y3143305D01*
X6838929Y3151256D01*
X6835077Y3157002D01*
X6829498Y3163780D01*
X6824400Y3168824D01*
X6820200Y3172424D01*
X6812802Y3177498D01*
X6804891Y3181730D01*
X6796563Y3185068D01*
X6788135Y3187327D01*
X6779834Y3188676D01*
X6774500Y3189024D01*
X4645700D01*
X78700Y4252036D02*
X70549Y4251699D01*
X62300Y4250336D01*
X54046Y4248140D01*
X46600Y4245236D01*
X38929Y4241331D01*
X32381Y4237037D01*
X25496Y4231380D01*
X20200Y4226036D01*
X14848Y4219371D01*
X11531Y4214284D01*
X7005Y4205714D01*
X5047Y4201199D01*
X2347Y4192610D01*
X1677Y4189776D01*
X335Y4181275D01*
X0Y4176136D01*
Y3267736D01*
X463Y3259006D01*
X1905Y3250384D01*
X4309Y3241979D01*
X7036Y3235195D01*
X11162Y3227344D01*
X16133Y3220000D01*
X21889Y3213252D01*
X22000Y3213136D01*
X28428Y3207162D01*
X34600Y3202536D01*
X42493Y3197921D01*
X50838Y3194182D01*
X59604Y3191403D01*
X67791Y3189830D01*
X70400Y3189536D01*
X78700Y3189036D01*
X2204700D01*
X2215600Y3189836D01*
X2224178Y3191530D01*
X2232510Y3194180D01*
X2237582Y3196323D01*
X2245657Y3200666D01*
X2249046Y3202843D01*
X2255980Y3208125D01*
X2259300Y3211136D01*
X2265271Y3217561D01*
X2266700Y3219336D01*
X2271775Y3226735D01*
X2276007Y3234645D01*
X2279345Y3242973D01*
X2281000Y3248736D01*
X2282624Y3257185D01*
X2282900Y3259536D01*
X2283500Y3267736D01*
Y4173336D01*
X2282700Y4184336D01*
X2281006Y4192913D01*
X2278356Y4201245D01*
X2276213Y4206318D01*
X2271930Y4214268D01*
X2268077Y4220014D01*
X2262498Y4226793D01*
X2257400Y4231836D01*
X2253200Y4235436D01*
X2245802Y4240510D01*
X2237891Y4244742D01*
X2229563Y4248081D01*
X2221135Y4250337D01*
X2212851Y4251687D01*
X2207500Y4252036D01*
X78700D01*
X2362200D02*
X2354049Y4251699D01*
X2345800Y4250336D01*
X2337546Y4248140D01*
X2330100Y4245236D01*
X2322429Y4241331D01*
X2315881Y4237037D01*
X2308996Y4231380D01*
X2303700Y4226036D01*
X2298348Y4219371D01*
X2295031Y4214284D01*
X2290505Y4205714D01*
X2288547Y4201199D01*
X2285847Y4192610D01*
X2285177Y4189776D01*
X2283835Y4181275D01*
X2283500Y4176136D01*
Y3267736D01*
X2283963Y3259006D01*
X2285405Y3250384D01*
X2287809Y3241979D01*
X2290537Y3235195D01*
X2294663Y3227344D01*
X2299635Y3219998D01*
X2305392Y3213250D01*
X2305500Y3213136D01*
X2311928Y3207162D01*
X2318100Y3202536D01*
X2325994Y3197921D01*
X2334338Y3194182D01*
X2343104Y3191403D01*
X2351291Y3189830D01*
X2353900Y3189536D01*
X2362200Y3189036D01*
X4488200D01*
X4499100Y3189836D01*
X4507678Y3191530D01*
X4516010Y3194180D01*
X4521082Y3196323D01*
X4529157Y3200666D01*
X4532546Y3202843D01*
X4539480Y3208125D01*
X4542800Y3211136D01*
X4548771Y3217561D01*
X4550200Y3219336D01*
X4555275Y3226735D01*
X4559507Y3234645D01*
X4562845Y3242973D01*
X4564500Y3248736D01*
X4566124Y3257185D01*
X4566400Y3259536D01*
X4567000Y3267736D01*
Y4173336D01*
X4566200Y4184336D01*
X4564506Y4192913D01*
X4561856Y4201245D01*
X4559713Y4206318D01*
X4555430Y4214268D01*
X4551577Y4220014D01*
X4545998Y4226793D01*
X4540900Y4231836D01*
X4536700Y4235436D01*
X4529302Y4240510D01*
X4521391Y4244742D01*
X4513063Y4248081D01*
X4504635Y4250337D01*
X4496351Y4251687D01*
X4491000Y4252036D01*
X2362200D01*
X4645700D02*
X4637549Y4251699D01*
X4629300Y4250336D01*
X4621046Y4248140D01*
X4613600Y4245236D01*
X4605929Y4241331D01*
X4599381Y4237037D01*
X4592496Y4231380D01*
X4587200Y4226036D01*
X4581848Y4219371D01*
X4578531Y4214284D01*
X4574005Y4205714D01*
X4572047Y4201199D01*
X4569347Y4192610D01*
X4568677Y4189776D01*
X4567335Y4181275D01*
X4567000Y4176136D01*
Y3267736D01*
X4567463Y3259006D01*
X4568905Y3250384D01*
X4571309Y3241979D01*
X4574037Y3235195D01*
X4578163Y3227344D01*
X4583135Y3219998D01*
X4588892Y3213250D01*
X4589000Y3213136D01*
X4595428Y3207162D01*
X4601600Y3202536D01*
X4609494Y3197921D01*
X4617838Y3194182D01*
X4626604Y3191403D01*
X4634791Y3189830D01*
X4637400Y3189536D01*
X4645700Y3189036D01*
X6771700D01*
X6782600Y3189836D01*
X6791178Y3191530D01*
X6799510Y3194180D01*
X6804582Y3196323D01*
X6812657Y3200666D01*
X6816046Y3202843D01*
X6822980Y3208125D01*
X6826300Y3211136D01*
X6832271Y3217561D01*
X6833700Y3219336D01*
X6838775Y3226735D01*
X6843007Y3234645D01*
X6846345Y3242973D01*
X6848000Y3248736D01*
X6849624Y3257185D01*
X6849900Y3259536D01*
X6850500Y3267736D01*
Y4173336D01*
X6849700Y4184336D01*
X6848006Y4192913D01*
X6845356Y4201245D01*
X6843213Y4206318D01*
X6838930Y4214268D01*
X6835077Y4220014D01*
X6829498Y4226793D01*
X6824400Y4231836D01*
X6820200Y4235436D01*
X6812802Y4240510D01*
X6804891Y4244742D01*
X6796563Y4248081D01*
X6788135Y4250337D01*
X6779851Y4251687D01*
X6774500Y4252036D01*
X4645700D01*
X78700Y5315048D02*
X70549Y5314711D01*
X62300Y5313348D01*
X54046Y5311152D01*
X46600Y5308248D01*
X38929Y5304343D01*
X32381Y5300049D01*
X25496Y5294392D01*
X20200Y5289048D01*
X14848Y5282383D01*
X11531Y5277296D01*
X7005Y5268726D01*
X5047Y5264211D01*
X2347Y5255622D01*
X1677Y5252788D01*
X335Y5244287D01*
X0Y5239148D01*
Y4330748D01*
X463Y4322018D01*
X1905Y4313396D01*
X4309Y4304991D01*
X7036Y4298207D01*
X11162Y4290356D01*
X16134Y4283011D01*
X21891Y4276263D01*
X22000Y4276148D01*
X28428Y4270174D01*
X34600Y4265548D01*
X42493Y4260933D01*
X50838Y4257195D01*
X59604Y4254415D01*
X67792Y4252842D01*
X70400Y4252548D01*
X78700Y4252048D01*
X2204700D01*
X2215600Y4252848D01*
X2224178Y4254543D01*
X2232510Y4257192D01*
X2237582Y4259336D01*
X2245660Y4263681D01*
X2249046Y4265855D01*
X2255979Y4271136D01*
X2259300Y4274148D01*
X2265271Y4280573D01*
X2266700Y4282348D01*
X2271775Y4289747D01*
X2276007Y4297658D01*
X2279345Y4305985D01*
X2281000Y4311748D01*
X2282624Y4320197D01*
X2282900Y4322548D01*
X2283500Y4330748D01*
Y5236348D01*
X2282700Y5247348D01*
X2281006Y5255926D01*
X2278356Y5264258D01*
X2276213Y5269330D01*
X2271929Y5277281D01*
X2268077Y5283026D01*
X2262498Y5289804D01*
X2257400Y5294848D01*
X2253200Y5298448D01*
X2245802Y5303523D01*
X2237891Y5307755D01*
X2229563Y5311093D01*
X2221135Y5313349D01*
X2212851Y5314699D01*
X2207500Y5315048D01*
X78700D01*
X2362200D02*
X2354049Y5314711D01*
X2345800Y5313348D01*
X2337546Y5311152D01*
X2330100Y5308248D01*
X2322429Y5304343D01*
X2315881Y5300049D01*
X2308996Y5294392D01*
X2303700Y5289048D01*
X2298348Y5282383D01*
X2295031Y5277296D01*
X2290505Y5268726D01*
X2288547Y5264211D01*
X2285847Y5255622D01*
X2285177Y5252788D01*
X2283835Y5244287D01*
X2283500Y5239148D01*
Y4330748D01*
X2283963Y4322018D01*
X2285405Y4313396D01*
X2287809Y4304991D01*
X2290537Y4298207D01*
X2294663Y4290355D01*
X2299636Y4283009D01*
X2305393Y4276260D01*
X2305500Y4276148D01*
X2311928Y4270174D01*
X2318100Y4265548D01*
X2325994Y4260933D01*
X2334338Y4257195D01*
X2343104Y4254415D01*
X2351292Y4252842D01*
X2353900Y4252548D01*
X2362200Y4252048D01*
X4488200D01*
X4499100Y4252848D01*
X4507678Y4254543D01*
X4516010Y4257192D01*
X4521082Y4259336D01*
X4529160Y4263681D01*
X4532546Y4265855D01*
X4539479Y4271136D01*
X4542800Y4274148D01*
X4548771Y4280573D01*
X4550200Y4282348D01*
X4555275Y4289747D01*
X4559507Y4297658D01*
X4562845Y4305985D01*
X4564500Y4311748D01*
X4566124Y4320197D01*
X4566400Y4322548D01*
X4567000Y4330748D01*
Y5236348D01*
X4566200Y5247348D01*
X4564506Y5255926D01*
X4561856Y5264258D01*
X4559713Y5269330D01*
X4555429Y5277281D01*
X4551577Y5283026D01*
X4545998Y5289804D01*
X4540900Y5294848D01*
X4536700Y5298448D01*
X4529302Y5303523D01*
X4521391Y5307755D01*
X4513063Y5311093D01*
X4504635Y5313349D01*
X4496351Y5314699D01*
X4491000Y5315048D01*
X2362200D01*
X4645700D02*
X4637549Y5314711D01*
X4629300Y5313348D01*
X4621046Y5311152D01*
X4613600Y5308248D01*
X4605929Y5304343D01*
X4599381Y5300049D01*
X4592496Y5294392D01*
X4587200Y5289048D01*
X4581848Y5282383D01*
X4578531Y5277296D01*
X4574005Y5268726D01*
X4572047Y5264211D01*
X4569347Y5255622D01*
X4568677Y5252788D01*
X4567335Y5244287D01*
X4567000Y5239148D01*
Y4330748D01*
X4567463Y4322018D01*
X4568905Y4313396D01*
X4571309Y4304991D01*
X4574037Y4298207D01*
X4578163Y4290355D01*
X4583136Y4283009D01*
X4588893Y4276260D01*
X4589000Y4276148D01*
X4595428Y4270174D01*
X4601600Y4265548D01*
X4609494Y4260933D01*
X4617838Y4257195D01*
X4626604Y4254415D01*
X4634792Y4252842D01*
X4637400Y4252548D01*
X4645700Y4252048D01*
X6771700D01*
X6782600Y4252848D01*
X6791178Y4254543D01*
X6799510Y4257192D01*
X6804582Y4259336D01*
X6812660Y4263681D01*
X6816046Y4265855D01*
X6822979Y4271136D01*
X6826300Y4274148D01*
X6832271Y4280573D01*
X6833700Y4282348D01*
X6838775Y4289747D01*
X6843007Y4297658D01*
X6846345Y4305985D01*
X6848000Y4311748D01*
X6849624Y4320197D01*
X6849900Y4322548D01*
X6850500Y4330748D01*
Y5236348D01*
X6849700Y5247348D01*
X6848006Y5255926D01*
X6845356Y5264258D01*
X6843213Y5269330D01*
X6838929Y5277281D01*
X6835077Y5283026D01*
X6829498Y5289804D01*
X6824400Y5294848D01*
X6820200Y5298448D01*
X6812802Y5303523D01*
X6804891Y5307755D01*
X6796563Y5311093D01*
X6788135Y5313349D01*
X6779851Y5314699D01*
X6774500Y5315048D01*
X4645700D01*
X2362200Y2126011D02*
X2354049Y2125674D01*
X2345800Y2124311D01*
X2337546Y2122115D01*
X2330100Y2119211D01*
X2322699Y2115424D01*
X2320994Y2114387D01*
X2313169Y2108890D01*
X2312585Y2108429D01*
X2306361Y2102848D01*
X2303700Y2100011D01*
X2298348Y2093346D01*
X2295031Y2088259D01*
X2290505Y2079689D01*
X2288547Y2075174D01*
X2285847Y2066585D01*
X2285177Y2063751D01*
X2283835Y2055250D01*
X2283500Y2050111D01*
Y1141711D01*
X2283963Y1132981D01*
X2285405Y1124359D01*
X2287809Y1115954D01*
X2290537Y1109170D01*
X2294663Y1101318D01*
X2299636Y1093972D01*
X2305393Y1087223D01*
X2305500Y1087111D01*
X2311928Y1081137D01*
X2318100Y1076511D01*
X2325994Y1071896D01*
X2334338Y1068158D01*
X2343104Y1065378D01*
X2351292Y1063805D01*
X2353900Y1063511D01*
X2362200Y1063011D01*
X4488200D01*
X4499100Y1063811D01*
X4507678Y1065506D01*
X4516010Y1068155D01*
X4521082Y1070299D01*
X4529160Y1074644D01*
X4532546Y1076818D01*
X4539479Y1082099D01*
X4542800Y1085111D01*
X4548771Y1091536D01*
X4550200Y1093311D01*
X4555275Y1100710D01*
X4559507Y1108621D01*
X4562845Y1116948D01*
X4564500Y1122711D01*
X4566124Y1131160D01*
X4566400Y1133511D01*
X4567000Y1141711D01*
Y2047311D01*
X4566200Y2058311D01*
X4564506Y2066889D01*
X4561856Y2075221D01*
X4559713Y2080293D01*
X4555429Y2088244D01*
X4551577Y2093989D01*
X4545998Y2100767D01*
X4540900Y2105811D01*
X4536700Y2109411D01*
X4529302Y2114486D01*
X4521391Y2118718D01*
X4513063Y2122056D01*
X4504635Y2124312D01*
X4496351Y2125662D01*
X4491000Y2126011D01*
X2362200D01*
Y3189024D02*
X2354049Y3188687D01*
X2345800Y3187324D01*
X2337546Y3185127D01*
X2330100Y3182224D01*
X2322701Y3178439D01*
X2320994Y3177400D01*
X2313169Y3171903D01*
X2312585Y3171442D01*
X2306361Y3165861D01*
X2303700Y3163024D01*
X2298349Y3156360D01*
X2295032Y3151271D01*
X2290504Y3142698D01*
X2288547Y3138186D01*
X2285847Y3129600D01*
X2285177Y3126764D01*
X2283835Y3118262D01*
X2283500Y3113124D01*
Y2204724D01*
X2283963Y2195994D01*
X2285405Y2187372D01*
X2287809Y2178967D01*
X2290537Y2172182D01*
X2294663Y2164331D01*
X2299635Y2156986D01*
X2305391Y2150239D01*
X2305500Y2150124D01*
X2311928Y2144150D01*
X2318100Y2139524D01*
X2325994Y2134908D01*
X2334338Y2131170D01*
X2343104Y2128391D01*
X2351291Y2126818D01*
X2353900Y2126524D01*
X2362200Y2126024D01*
X4488200D01*
X4499100Y2126824D01*
X4507678Y2128518D01*
X4516010Y2131168D01*
X4521082Y2133311D01*
X4529157Y2137654D01*
X4532546Y2139831D01*
X4539480Y2145113D01*
X4542800Y2148124D01*
X4548771Y2154549D01*
X4550200Y2156324D01*
X4555275Y2163722D01*
X4559507Y2171633D01*
X4562845Y2179961D01*
X4564500Y2185724D01*
X4566124Y2194173D01*
X4566400Y2196524D01*
X4567000Y2204724D01*
Y3110324D01*
X4566200Y3121324D01*
X4564506Y3129901D01*
X4561856Y3138233D01*
X4559713Y3143305D01*
X4555429Y3151256D01*
X4551577Y3157002D01*
X4545998Y3163780D01*
X4540900Y3168824D01*
X4536700Y3172424D01*
X4529302Y3177498D01*
X4521391Y3181730D01*
X4513063Y3185068D01*
X4504635Y3187327D01*
X4496334Y3188676D01*
X4491000Y3189024D01*
X2362200D01*
Y4252036D02*
X2354049Y4251699D01*
X2345800Y4250336D01*
X2337546Y4248140D01*
X2330100Y4245236D01*
X2322699Y4241449D01*
X2320994Y4240412D01*
X2313169Y4234915D01*
X2312585Y4234454D01*
X2306361Y4228873D01*
X2303700Y4226036D01*
X2298348Y4219371D01*
X2295031Y4214284D01*
X2290505Y4205714D01*
X2288547Y4201199D01*
X2285847Y4192610D01*
X2285177Y4189776D01*
X2283835Y4181275D01*
X2283500Y4176136D01*
Y3267736D01*
X2283963Y3259006D01*
X2285405Y3250384D01*
X2287809Y3241979D01*
X2290537Y3235195D01*
X2294663Y3227344D01*
X2299635Y3219998D01*
X2305392Y3213250D01*
X2305500Y3213136D01*
X2311928Y3207162D01*
X2318100Y3202536D01*
X2325994Y3197921D01*
X2334338Y3194182D01*
X2343104Y3191403D01*
X2351291Y3189830D01*
X2353900Y3189536D01*
X2362200Y3189036D01*
X4488200D01*
X4499100Y3189836D01*
X4507678Y3191530D01*
X4516010Y3194180D01*
X4521082Y3196323D01*
X4529157Y3200666D01*
X4532546Y3202843D01*
X4539480Y3208125D01*
X4542800Y3211136D01*
X4548771Y3217561D01*
X4550200Y3219336D01*
X4555275Y3226735D01*
X4559507Y3234645D01*
X4562845Y3242973D01*
X4564500Y3248736D01*
X4566124Y3257185D01*
X4566400Y3259536D01*
X4567000Y3267736D01*
Y4173336D01*
X4566200Y4184336D01*
X4564506Y4192913D01*
X4561856Y4201245D01*
X4559713Y4206318D01*
X4555430Y4214268D01*
X4551577Y4220014D01*
X4545998Y4226793D01*
X4540900Y4231836D01*
X4536700Y4235436D01*
X4529302Y4240510D01*
X4521391Y4244742D01*
X4513063Y4248081D01*
X4504635Y4250337D01*
X4496351Y4251687D01*
X4491000Y4252036D01*
X2362200D01*
X0Y78699D02*
X463Y69969D01*
X1905Y61347D01*
X4309Y52942D01*
X7036Y46158D01*
X11139Y38357D01*
X15193Y32257D01*
X20815Y25430D01*
X26000Y20299D01*
X32664Y14949D01*
X37753Y11631D01*
X46327Y7103D01*
X50838Y5146D01*
X58002Y2788D01*
X59600Y2399D01*
X65000Y1199D01*
X70400Y499D01*
X78700Y-1D01*
Y-39371D01*
X-39370D01*
Y78699D01*
X0D01*
X6771700Y-1D02*
X6780297Y497D01*
X6782600Y799D01*
X6791178Y2494D01*
X6799510Y5143D01*
X6804582Y7286D01*
X6812533Y11571D01*
X6818278Y15422D01*
X6825056Y21001D01*
X6830100Y26099D01*
X6833700Y30299D01*
X6838775Y37698D01*
X6843007Y45609D01*
X6846345Y53936D01*
X6848018Y59707D01*
X6849576Y67607D01*
X6849900Y70499D01*
X6850500Y78699D01*
X6889871D01*
Y-39371D01*
X6771700D01*
Y-1D01*
X78700Y5315048D02*
X70549Y5314711D01*
X62300Y5313348D01*
X54046Y5311152D01*
X46600Y5308248D01*
X39199Y5304461D01*
X37494Y5303424D01*
X29670Y5297928D01*
X29085Y5297466D01*
X22861Y5291885D01*
X20200Y5289048D01*
X14470Y5281964D01*
X13400Y5280448D01*
X8785Y5272555D01*
X5047Y5264211D01*
X2688Y5257047D01*
X2300Y5255448D01*
X649Y5246892D01*
X0Y5239148D01*
X-39370D01*
Y5354418D01*
X78700D01*
Y5315048D01*
X6850500Y5236348D02*
X6850014Y5244944D01*
X6849700Y5247348D01*
X6848006Y5255926D01*
X6845356Y5264258D01*
X6841524Y5272695D01*
X6839271Y5276758D01*
X6834253Y5284134D01*
X6832000Y5286948D01*
X6825683Y5293650D01*
X6820200Y5298448D01*
X6812802Y5303523D01*
X6804891Y5307755D01*
X6796563Y5311093D01*
X6790800Y5312748D01*
X6782243Y5314400D01*
X6774500Y5315048D01*
Y5354418D01*
X6889871D01*
Y5236348D01*
X6850500D01*
X6774500Y2126011D02*
X6782700Y2125217D01*
X6790575Y2123768D01*
X6790800Y2123711D01*
X6796100Y2122211D01*
X6804448Y2118923D01*
X6812384Y2114738D01*
X6820200Y2109411D01*
X6824400Y2105811D01*
X6828400Y2102011D01*
X6832000Y2097911D01*
X6837119Y2091235D01*
X6841422Y2084005D01*
X6843213Y2080293D01*
X6846447Y2072170D01*
X6848746Y2063734D01*
X6849700Y2058311D01*
X6850470Y2048726D01*
X6850500Y2047311D01*
Y1141711D01*
X6849900Y1133511D01*
X6848533Y1124910D01*
X6846500Y1117411D01*
X6843212Y1109064D01*
X6839027Y1101128D01*
X6833700Y1093311D01*
X6830100Y1089111D01*
X6823877Y1082952D01*
X6822200Y1081511D01*
X6815524Y1076393D01*
X6808295Y1072090D01*
X6804582Y1070299D01*
X6796459Y1067065D01*
X6788023Y1064765D01*
X6782600Y1063811D01*
X6773004Y1063040D01*
X6771700Y1063011D01*
X4645700D01*
X4637400Y1063511D01*
X4629183Y1064786D01*
X4621175Y1067023D01*
X4620464Y1067273D01*
X4611475Y1071002D01*
X4604716Y1074552D01*
X4597416Y1079559D01*
X4595022Y1081480D01*
X4588675Y1087503D01*
X4585400Y1091211D01*
X4580282Y1097888D01*
X4575979Y1105117D01*
X4574037Y1109170D01*
X4570851Y1117311D01*
X4568603Y1125759D01*
X4567320Y1134406D01*
X4567000Y1141711D01*
Y2050111D01*
X4567813Y2058920D01*
X4569300Y2066411D01*
X4570800Y2071711D01*
X4574173Y2080210D01*
X4578441Y2088296D01*
X4582654Y2094609D01*
X4583600Y2095811D01*
X4589636Y2102655D01*
X4591000Y2104011D01*
X4598391Y2110235D01*
X4603900Y2114111D01*
X4608700Y2116811D01*
X4617051Y2120644D01*
X4621570Y2122285D01*
X4629300Y2124311D01*
X4637347Y2125653D01*
X4645700Y2126011D01*
X6774500D01*
Y3189024D02*
X6782700Y3188230D01*
X6790575Y3186781D01*
X6790800Y3186724D01*
X6796100Y3185224D01*
X6804448Y3181935D01*
X6812384Y3177751D01*
X6820200Y3172424D01*
X6824400Y3168824D01*
X6828400Y3165024D01*
X6832000Y3160924D01*
X6837119Y3154247D01*
X6841422Y3147018D01*
X6843213Y3143305D01*
X6846447Y3135182D01*
X6848746Y3126747D01*
X6849700Y3121324D01*
X6850470Y3111739D01*
X6850500Y3110324D01*
Y2204724D01*
X6849900Y2196524D01*
X6848533Y2187923D01*
X6846500Y2180424D01*
X6843212Y2172076D01*
X6839027Y2164140D01*
X6833700Y2156324D01*
X6830100Y2152124D01*
X6823877Y2145965D01*
X6822200Y2144524D01*
X6815524Y2139405D01*
X6808295Y2135102D01*
X6804582Y2133311D01*
X6796459Y2130077D01*
X6788023Y2127778D01*
X6782600Y2126824D01*
X6773004Y2126053D01*
X6771700Y2126024D01*
X4645700D01*
X4637400Y2126524D01*
X4629183Y2127799D01*
X4621175Y2130036D01*
X4620464Y2130286D01*
X4611477Y2134014D01*
X4604716Y2137565D01*
X4597417Y2142571D01*
X4595022Y2144493D01*
X4588675Y2150516D01*
X4585400Y2154224D01*
X4580282Y2160900D01*
X4575979Y2168129D01*
X4574037Y2172182D01*
X4570851Y2180323D01*
X4568603Y2188771D01*
X4567320Y2197418D01*
X4567000Y2204724D01*
Y3113124D01*
X4567813Y3121933D01*
X4569300Y3129424D01*
X4570800Y3134724D01*
X4574173Y3143222D01*
X4578441Y3151308D01*
X4582653Y3157621D01*
X4583600Y3158824D01*
X4589636Y3165668D01*
X4591000Y3167024D01*
X4598391Y3173247D01*
X4603900Y3177124D01*
X4608700Y3179824D01*
X4617047Y3183655D01*
X4621570Y3185297D01*
X4629300Y3187324D01*
X4637347Y3188666D01*
X4645700Y3189024D01*
X6774500D01*
Y4252036D02*
X6782700Y4251242D01*
X6790575Y4249793D01*
X6790800Y4249736D01*
X6796100Y4248236D01*
X6804448Y4244947D01*
X6812384Y4240763D01*
X6820200Y4235436D01*
X6824400Y4231836D01*
X6828400Y4228036D01*
X6832000Y4223936D01*
X6837119Y4217260D01*
X6841422Y4210030D01*
X6843213Y4206318D01*
X6846447Y4198194D01*
X6848746Y4189759D01*
X6849700Y4184336D01*
X6850470Y4174751D01*
X6850500Y4173336D01*
Y3267736D01*
X6849900Y3259536D01*
X6848533Y3250935D01*
X6846500Y3243436D01*
X6843212Y3235089D01*
X6839027Y3227153D01*
X6833700Y3219336D01*
X6830100Y3215136D01*
X6823877Y3208977D01*
X6822200Y3207536D01*
X6815524Y3202417D01*
X6808295Y3198114D01*
X6804582Y3196323D01*
X6796459Y3193089D01*
X6788023Y3190790D01*
X6782600Y3189836D01*
X6773004Y3189065D01*
X6771700Y3189036D01*
X4645700D01*
X4637400Y3189536D01*
X4629183Y3190811D01*
X4621175Y3193048D01*
X4620464Y3193298D01*
X4611475Y3197027D01*
X4604716Y3200577D01*
X4597416Y3205584D01*
X4595022Y3207505D01*
X4588675Y3213528D01*
X4585400Y3217236D01*
X4580282Y3223912D01*
X4575979Y3231142D01*
X4574037Y3235195D01*
X4570851Y3243336D01*
X4568603Y3251783D01*
X4567320Y3260431D01*
X4567000Y3267736D01*
Y4176136D01*
X4567813Y4184945D01*
X4569300Y4192436D01*
X4570800Y4197736D01*
X4574173Y4206234D01*
X4578441Y4214320D01*
X4582653Y4220633D01*
X4583600Y4221836D01*
X4589636Y4228680D01*
X4591000Y4230036D01*
X4598391Y4236259D01*
X4603900Y4240136D01*
X4608700Y4242836D01*
X4617051Y4246669D01*
X4621570Y4248310D01*
X4629300Y4250336D01*
X4637347Y4251678D01*
X4645700Y4252036D01*
X6774500D01*
X78700Y2126017D02*
X70549Y2125677D01*
X62300Y2124311D01*
X54046Y2122115D01*
X46600Y2119211D01*
X39199Y2115424D01*
X37494Y2114387D01*
X29669Y2108890D01*
X29085Y2108429D01*
X22861Y2102848D01*
X20200Y2100011D01*
X14848Y2093346D01*
X11531Y2088259D01*
X7005Y2079689D01*
X5047Y2075174D01*
X2347Y2066585D01*
X1677Y2063751D01*
X335Y2055250D01*
X0Y2050111D01*
Y1141711D01*
X463Y1132981D01*
X1905Y1124359D01*
X4309Y1115954D01*
X7036Y1109170D01*
X11162Y1101319D01*
X16134Y1093974D01*
X21891Y1087226D01*
X22000Y1087111D01*
X28428Y1081137D01*
X34600Y1076511D01*
X42493Y1071896D01*
X50838Y1068158D01*
X59604Y1065378D01*
X67792Y1063805D01*
X70400Y1063511D01*
X78700Y1063011D01*
X2204700D01*
X2215600Y1063811D01*
X2224178Y1065506D01*
X2232510Y1068155D01*
X2237582Y1070299D01*
X2245660Y1074644D01*
X2249046Y1076818D01*
X2255979Y1082099D01*
X2259300Y1085111D01*
X2265271Y1091536D01*
X2266700Y1093311D01*
X2271775Y1100710D01*
X2276007Y1108621D01*
X2279345Y1116948D01*
X2281000Y1122711D01*
X2282624Y1131160D01*
X2282900Y1133511D01*
X2283500Y1141711D01*
Y2047311D01*
X2282700Y2058311D01*
X2281006Y2066889D01*
X2278356Y2075221D01*
X2276213Y2080293D01*
X2271929Y2088244D01*
X2268077Y2093989D01*
X2262498Y2100767D01*
X2257400Y2105811D01*
X2253200Y2109411D01*
X2245802Y2114486D01*
X2237891Y2118718D01*
X2229563Y2122056D01*
X2221135Y2124312D01*
X2212851Y2125662D01*
X2207500Y2126011D01*
X76124Y2126095D01*
X70400Y2126524D01*
X61764Y2127903D01*
X54300Y2129924D01*
X45802Y2133296D01*
X37716Y2137565D01*
X30417Y2142571D01*
X28022Y2144493D01*
X21675Y2150516D01*
X18400Y2154224D01*
X13281Y2160900D01*
X8979Y2168130D01*
X7036Y2172182D01*
X3851Y2180323D01*
X1603Y2188771D01*
X320Y2197418D01*
X0Y2204724D01*
Y3113124D01*
X813Y3121933D01*
X2300Y3129424D01*
X3800Y3134724D01*
X7173Y3143222D01*
X11441Y3151308D01*
X15653Y3157621D01*
X16600Y3158824D01*
X22636Y3165668D01*
X24000Y3167024D01*
X31391Y3173247D01*
X36900Y3177124D01*
X41700Y3179824D01*
X50048Y3183655D01*
X54569Y3185297D01*
X62300Y3187324D01*
X70347Y3188666D01*
X78700Y3189024D01*
X2207500D01*
X2216309Y3188211D01*
X2223800Y3186724D01*
X2229100Y3185224D01*
X2237447Y3181935D01*
X2245384Y3177751D01*
X2253200Y3172424D01*
X2257400Y3168824D01*
X2261400Y3165024D01*
X2265000Y3160924D01*
X2270119Y3154247D01*
X2274422Y3147018D01*
X2276213Y3143305D01*
X2279447Y3135182D01*
X2281746Y3126747D01*
X2282700Y3121324D01*
X2283470Y3111739D01*
X2283500Y3110324D01*
Y2204724D01*
X2282900Y2196524D01*
X2281533Y2187923D01*
X2279500Y2180424D01*
X2276212Y2172076D01*
X2272027Y2164140D01*
X2266700Y2156324D01*
X2263100Y2152124D01*
X2256877Y2145965D01*
X2255200Y2144524D01*
X2248524Y2139405D01*
X2241294Y2135102D01*
X2237582Y2133311D01*
X2229459Y2130077D01*
X2221023Y2127778D01*
X2215600Y2126824D01*
X2206004Y2126053D01*
X2204700Y2126024D01*
X78700Y2126017D01*
X-196850Y5492214D02*
Y-177166D01*
X-196359Y-181537D01*
X-194909Y-185690D01*
X-192573Y-189417D01*
X-189468Y-192533D01*
X-185749Y-194881D01*
X-181601Y-196345D01*
X-177232Y-196851D01*
X7027733D01*
X7032102Y-196345D01*
X7036250Y-194881D01*
X7039969Y-192533D01*
X7043074Y-189417D01*
X7045410Y-185690D01*
X7046859Y-181537D01*
X7047351Y-177166D01*
Y5492280D01*
X7046844Y5496650D01*
X7045381Y5500798D01*
X7043032Y5504517D01*
X7039917Y5507622D01*
X7036190Y5509957D01*
X7032037Y5511407D01*
X7027666Y5511899D01*
X-177165D01*
X-181536Y5511407D01*
X-185689Y5509957D01*
X-189416Y5507622D01*
X-192532Y5504517D01*
X-194880Y5500798D01*
X-196344Y5496650D01*
X-196850Y5492280D01*
Y5492214D01*
X0Y4162641D02*
X-59055D01*
Y4330748D01*
X0D01*
X463Y4322018D01*
X1905Y4313396D01*
X4309Y4304991D01*
X7036Y4298207D01*
X11162Y4290356D01*
X16134Y4283011D01*
X21891Y4276263D01*
X22000Y4276148D01*
X28428Y4270174D01*
X34600Y4265548D01*
X42493Y4260933D01*
X50838Y4257195D01*
X59604Y4254415D01*
X67792Y4252842D01*
X70400Y4252548D01*
X76124Y4252119D01*
X2207500Y4252036D01*
X2216310Y4251223D01*
X2223800Y4249736D01*
X2229100Y4248236D01*
X2237447Y4244947D01*
X2245384Y4240763D01*
X2253200Y4235436D01*
X2257400Y4231836D01*
X2261400Y4228036D01*
X2265000Y4223936D01*
X2270119Y4217260D01*
X2274422Y4210030D01*
X2276213Y4206318D01*
X2279447Y4198194D01*
X2281746Y4189759D01*
X2282700Y4184336D01*
X2283470Y4174751D01*
X2283500Y4173336D01*
Y3267736D01*
X2282900Y3259536D01*
X2281533Y3250935D01*
X2279500Y3243436D01*
X2276212Y3235089D01*
X2272027Y3227153D01*
X2266700Y3219336D01*
X2263100Y3215136D01*
X2256877Y3208977D01*
X2255200Y3207536D01*
X2248524Y3202417D01*
X2241294Y3198114D01*
X2237582Y3196323D01*
X2229459Y3193089D01*
X2221023Y3190790D01*
X2215600Y3189836D01*
X2206004Y3189065D01*
X2204700Y3189036D01*
X78700D01*
X70400Y3189536D01*
X62183Y3190811D01*
X54175Y3193048D01*
X53464Y3193298D01*
X44475Y3197027D01*
X37716Y3200577D01*
X30416Y3205584D01*
X28022Y3207505D01*
X21675Y3213528D01*
X18400Y3217236D01*
X13281Y3223912D01*
X8979Y3231142D01*
X7036Y3235195D01*
X3851Y3243336D01*
X1603Y3251783D01*
X320Y3260431D01*
X0Y3267736D01*
Y4176136D01*
X813Y4184945D01*
X2300Y4192436D01*
X3800Y4197736D01*
X7173Y4206235D01*
X11441Y4214321D01*
X15654Y4220634D01*
X16600Y4221836D01*
X22636Y4228680D01*
X24000Y4230036D01*
X31391Y4236259D01*
X36900Y4240136D01*
X41700Y4242836D01*
X50052Y4246669D01*
X54569Y4248310D01*
X62300Y4250336D01*
X70347Y4251681D01*
X78700Y4252042D01*
X2204700Y4252048D01*
X2215600Y4252848D01*
X2224178Y4254543D01*
X2232510Y4257192D01*
X2237582Y4259336D01*
X2245535Y4263622D01*
X2251277Y4267472D01*
X2258055Y4273050D01*
X2263100Y4278148D01*
X2266700Y4282348D01*
X2271775Y4289747D01*
X2276007Y4297658D01*
X2279345Y4305985D01*
X2281018Y4311756D01*
X2282576Y4319656D01*
X2282900Y4322548D01*
X2283500Y4330748D01*
X2283963Y4322018D01*
X2285405Y4313396D01*
X2287809Y4304991D01*
X2290537Y4298207D01*
X2294663Y4290355D01*
X2299636Y4283009D01*
X2305393Y4276260D01*
X2305500Y4276148D01*
X2311928Y4270174D01*
X2318100Y4265548D01*
X2325994Y4260933D01*
X2334338Y4257195D01*
X2343104Y4254415D01*
X2351292Y4252842D01*
X2353900Y4252548D01*
X2362200Y4252048D01*
X4488200D01*
X4499100Y4252848D01*
X4507678Y4254543D01*
X4516010Y4257192D01*
X4521082Y4259336D01*
X4529035Y4263622D01*
X4534777Y4267472D01*
X4541555Y4273050D01*
X4546600Y4278148D01*
X4550200Y4282348D01*
X4555275Y4289747D01*
X4559507Y4297658D01*
X4562845Y4305985D01*
X4564518Y4311756D01*
X4566076Y4319656D01*
X4566400Y4322548D01*
X4567000Y4330748D01*
X4567463Y4322018D01*
X4568905Y4313396D01*
X4571309Y4304991D01*
X4574037Y4298207D01*
X4578163Y4290355D01*
X4583136Y4283009D01*
X4588893Y4276260D01*
X4589000Y4276148D01*
X4595428Y4270174D01*
X4601600Y4265548D01*
X4609494Y4260933D01*
X4617838Y4257195D01*
X4626604Y4254415D01*
X4634792Y4252842D01*
X4637400Y4252548D01*
X4645700Y4252048D01*
X6771700D01*
X6782600Y4252848D01*
X6791178Y4254543D01*
X6799510Y4257192D01*
X6804582Y4259336D01*
X6812660Y4263681D01*
X6816046Y4265855D01*
X6822979Y4271136D01*
X6826300Y4274148D01*
X6832271Y4280573D01*
X6833700Y4282348D01*
X6838775Y4289747D01*
X6843007Y4297658D01*
X6846345Y4305985D01*
X6848000Y4311748D01*
X6849624Y4320197D01*
X6849900Y4322548D01*
X6850500Y4330748D01*
Y5236469D01*
X0Y78157D02*
Y987099D01*
X813Y995908D01*
X2300Y1003399D01*
X3800Y1008699D01*
X7173Y1017198D01*
X11441Y1025284D01*
X15654Y1031597D01*
X16600Y1032799D01*
X22636Y1039643D01*
X24000Y1040999D01*
X31391Y1047222D01*
X36900Y1051099D01*
X41700Y1053799D01*
X50052Y1057632D01*
X54569Y1059273D01*
X62300Y1061299D01*
X70347Y1062641D01*
X78700Y1062999D01*
X2207500D01*
X2216309Y1062186D01*
X2223800Y1060699D01*
X2229100Y1059199D01*
X2237447Y1055911D01*
X2245384Y1051726D01*
X2253200Y1046399D01*
X2257400Y1042799D01*
X2261400Y1038999D01*
X2265000Y1034899D01*
X2270119Y1028223D01*
X2274422Y1020993D01*
X2276213Y1017281D01*
X2279447Y1009158D01*
X2281746Y1000722D01*
X2282700Y995299D01*
X2283470Y985714D01*
X2283500Y984299D01*
Y78158D01*
X2284024Y69431D01*
X2285526Y60819D01*
X2287989Y52432D01*
X2290537Y46158D01*
X2294695Y38272D01*
X2299699Y30894D01*
X2305487Y24113D01*
X2305500Y24099D01*
X2311928Y18125D01*
X2318100Y13499D01*
X2325994Y8884D01*
X2334338Y5146D01*
X2343104Y2366D01*
X2351293Y793D01*
X2353900Y499D01*
X2362200Y-1D01*
X4488200D01*
X4499100Y799D01*
X4507678Y2494D01*
X4516010Y5143D01*
X4521082Y7286D01*
X4529033Y11571D01*
X4534778Y15422D01*
X4541556Y21001D01*
X4546600Y26099D01*
X4550200Y30299D01*
X4555275Y37698D01*
X4559507Y45609D01*
X4562845Y53936D01*
X4564518Y59707D01*
X4566076Y67607D01*
X4566400Y70499D01*
X4567000Y78699D01*
X4567463Y69969D01*
X4568905Y61347D01*
X4571309Y52942D01*
X4574037Y46158D01*
X4578163Y38306D01*
X4583135Y30961D01*
X4588892Y24213D01*
X4589000Y24099D01*
X4595428Y18125D01*
X4601600Y13499D01*
X4609494Y8884D01*
X4617838Y5146D01*
X4626604Y2366D01*
X4634793Y793D01*
X4637400Y499D01*
X4645700Y-1D01*
X6771700D01*
X2283500Y78699D02*
X2282900Y70499D01*
X2281533Y61898D01*
X2279500Y54399D01*
X2276212Y46052D01*
X2272027Y38116D01*
X2266700Y30299D01*
X2263100Y26099D01*
X2256877Y19940D01*
X2255200Y18499D01*
X2248524Y13380D01*
X2241294Y9078D01*
X2237582Y7286D01*
X2229459Y4052D01*
X2221023Y1753D01*
X2215600Y799D01*
X2206004Y28D01*
X2204700Y-1D01*
Y-58976D01*
X2362200D01*
Y-1D01*
X4645700D02*
Y-58976D01*
X4488200D01*
Y-1D01*
X0Y973665D02*
X-59055D01*
Y1141711D01*
X0D01*
Y2036657D02*
X-59055D01*
Y2204724D01*
X0D01*
Y3099649D02*
X-59055D01*
Y3267736D01*
X0D01*
X6850500Y2036657D02*
X6909484D01*
Y2204724D01*
X6850500D01*
Y3099649D02*
X6909484D01*
Y3267736D01*
X6850500D01*
Y4162641D02*
X6909484D01*
Y4330748D01*
X6850500D01*
X2283500D02*
Y5236348D01*
X2282700Y5247348D01*
X2281006Y5255926D01*
X2278356Y5264258D01*
X2276213Y5269330D01*
X2271929Y5277281D01*
X2268077Y5283026D01*
X2262498Y5289804D01*
X2257400Y5294848D01*
X2253200Y5298448D01*
X2245802Y5303523D01*
X2237891Y5307755D01*
X2229563Y5311093D01*
X2221135Y5313349D01*
X2212851Y5314699D01*
X2207500Y5315048D01*
X76119D01*
X2204700D02*
Y5374103D01*
X2362200D01*
Y5315048D01*
X4491000D01*
X4499200Y5314254D01*
X4507075Y5312805D01*
X4507300Y5312748D01*
X4512600Y5311248D01*
X4520948Y5307960D01*
X4528884Y5303775D01*
X4536700Y5298448D01*
X4540900Y5294848D01*
X4544900Y5291048D01*
X4548500Y5286948D01*
X4553619Y5280272D01*
X4557922Y5273042D01*
X4559713Y5269330D01*
X4562947Y5261207D01*
X4565246Y5252771D01*
X4566200Y5247348D01*
X4566963Y5238772D01*
X4567000Y5236348D01*
X4488165Y5315048D02*
Y5374103D01*
X4645700D01*
Y5315048D01*
X4637549Y5314711D01*
X4629300Y5313348D01*
X4621046Y5311152D01*
X4613600Y5308248D01*
X4606201Y5304462D01*
X4604494Y5303424D01*
X4596668Y5297926D01*
X4596086Y5297466D01*
X4589860Y5291884D01*
X4587200Y5289048D01*
X4581848Y5282383D01*
X4578531Y5277296D01*
X4574005Y5268726D01*
X4572047Y5264211D01*
X4569347Y5255622D01*
X4568677Y5252788D01*
X4567335Y5244287D01*
X4567000Y5239148D01*
Y4330748D01*
X2283500Y5239148D02*
X2284294Y5247349D01*
X2285744Y5255223D01*
X2285800Y5255448D01*
X2287300Y5260748D01*
X2290673Y5269247D01*
X2294941Y5277333D01*
X2299154Y5283646D01*
X2300100Y5284848D01*
X2306136Y5291692D01*
X2307500Y5293048D01*
X2314891Y5299272D01*
X2320400Y5303148D01*
X2325200Y5305848D01*
X2333552Y5309681D01*
X2338069Y5311322D01*
X2345800Y5313348D01*
X2353847Y5314690D01*
X2362200Y5315048D01*
X6850500Y78699D02*
Y984299D01*
X6849939Y993189D01*
X6848399Y1001963D01*
X6845899Y1010512D01*
X6843600Y1016293D01*
X6839588Y1024130D01*
X6834725Y1031468D01*
X6829071Y1038217D01*
X6824400Y1042799D01*
X6819813Y1046696D01*
X6812384Y1051726D01*
X6804448Y1055911D01*
X6796100Y1059199D01*
X6787782Y1061440D01*
X6779262Y1062715D01*
X6774500Y1062999D01*
X4645700D01*
X4637227Y1062591D01*
X4629290Y1061298D01*
X4620487Y1058856D01*
X4613600Y1056199D01*
X4606000Y1052333D01*
X4599415Y1048001D01*
X4592208Y1042012D01*
X4587200Y1036999D01*
X4581645Y1030109D01*
X4578441Y1025284D01*
X4574173Y1017198D01*
X4570800Y1008699D01*
X4568560Y1000381D01*
X4567284Y991861D01*
X4567000Y987099D01*
Y78158D01*
X6850500Y973665D02*
X6909484D01*
Y1141711D01*
X6850500D01*
X2283500Y987099D02*
X2284294Y995300D01*
X2285744Y1003174D01*
X2285800Y1003399D01*
X2287300Y1008699D01*
X2290673Y1017198D01*
X2294941Y1025284D01*
X2299154Y1031597D01*
X2300100Y1032799D01*
X2306136Y1039643D01*
X2307500Y1040999D01*
X2314891Y1047222D01*
X2320400Y1051099D01*
X2325200Y1053799D01*
X2333552Y1057632D01*
X2338069Y1059273D01*
X2345800Y1061299D01*
X2353847Y1062641D01*
X2362200Y1062999D01*
X4491000D01*
X4499809Y1062186D01*
X4507300Y1060699D01*
X4512600Y1059199D01*
X4520948Y1055911D01*
X4528884Y1051726D01*
X4536700Y1046399D01*
X4540900Y1042799D01*
X4544900Y1038999D01*
X4548500Y1034899D01*
X4553619Y1028223D01*
X4557922Y1020993D01*
X4559713Y1017281D01*
X4562947Y1009158D01*
X4565246Y1000722D01*
X4566200Y995299D01*
X4566963Y986723D01*
X4567000Y984299D01*
X-39370Y-1D02*
X-196850D01*
X2283500Y-58976D02*
Y-196851D01*
X6850500Y-39371D02*
Y-196851D01*
X0Y5354418D02*
Y5511899D01*
X6889871Y5315048D02*
X7047351D01*
X2283500Y5374103D02*
Y5511899D01*
X4567000Y5374103D02*
Y5511899D01*
X-39370Y5315048D02*
X-196850D01*
X0Y-39371D02*
Y-196851D01*
X2204700Y-1D02*
X78700D01*
X-196850Y1062999D02*
X-59055D01*
X-196850Y2126011D02*
X-59055D01*
X-196850Y3189024D02*
X-59055D01*
X-196850Y4252036D02*
X-59055D01*
X0Y5239148D02*
Y4330748D01*
X6850500Y5511899D02*
Y5354418D01*
X4645700Y5315048D02*
X6774500D01*
X6909484Y4252036D02*
X7047351D01*
X6909484Y3189024D02*
X7047351D01*
X6909484Y2126011D02*
X7047351D01*
X6909484Y1062999D02*
X7047351D01*
Y-1D02*
X6889871D01*
X4567000Y-58976D02*
Y-196851D01*
G54D27*
X78700Y1062999D02*
X70549Y1062662D01*
X62300Y1061299D01*
X54046Y1059103D01*
X46600Y1056199D01*
X38929Y1052294D01*
X32381Y1048000D01*
X25496Y1042343D01*
X20200Y1036999D01*
X14848Y1030334D01*
X11531Y1025247D01*
X7005Y1016677D01*
X5047Y1012162D01*
X2347Y1003573D01*
X1677Y1000739D01*
X335Y992238D01*
X0Y987099D01*
Y78699D01*
X463Y69969D01*
X1905Y61347D01*
X4309Y52942D01*
X7036Y46158D01*
X11162Y38307D01*
X16133Y30963D01*
X21889Y24215D01*
X22000Y24099D01*
X28428Y18125D01*
X34600Y13499D01*
X42493Y8884D01*
X50838Y5146D01*
X59604Y2366D01*
X67793Y793D01*
X70400Y499D01*
X78700Y-1D01*
X2204700D01*
X2215600Y799D01*
X2224178Y2494D01*
X2232510Y5143D01*
X2237582Y7286D01*
X2245657Y11629D01*
X2249046Y13806D01*
X2255980Y19088D01*
X2259300Y22099D01*
X2265271Y28524D01*
X2266700Y30299D01*
X2271775Y37698D01*
X2276007Y45609D01*
X2279345Y53936D01*
X2281000Y59699D01*
X2282624Y68148D01*
X2282900Y70499D01*
X2283500Y78699D01*
Y984299D01*
X2282700Y995299D01*
X2281006Y1003876D01*
X2278356Y1012209D01*
X2276213Y1017281D01*
X2271929Y1025233D01*
X2268077Y1030977D01*
X2262498Y1037755D01*
X2257400Y1042799D01*
X2253200Y1046399D01*
X2245802Y1051474D01*
X2237891Y1055705D01*
X2229563Y1059044D01*
X2221135Y1061300D01*
X2212851Y1062650D01*
X2207500Y1062999D01*
X78700D01*
Y2125999D02*
X70549Y2125662D01*
X62300Y2124299D01*
X54046Y2122103D01*
X46600Y2119199D01*
X38929Y2115293D01*
X32381Y2111000D01*
X25496Y2105342D01*
X20200Y2099999D01*
X14848Y2093333D01*
X11531Y2088246D01*
X7005Y2079676D01*
X5047Y2075162D01*
X2347Y2066572D01*
X1677Y2063738D01*
X335Y2055237D01*
X0Y2050099D01*
Y1141699D01*
X463Y1132969D01*
X1905Y1124347D01*
X4309Y1115942D01*
X7036Y1109158D01*
X11162Y1101307D01*
X16133Y1093962D01*
X21889Y1087215D01*
X22000Y1087099D01*
X28428Y1081125D01*
X34600Y1076499D01*
X42493Y1071884D01*
X50838Y1068146D01*
X59604Y1065366D01*
X67793Y1063792D01*
X70400Y1063499D01*
X78700Y1062999D01*
X2204700D01*
X2215600Y1063799D01*
X2224178Y1065494D01*
X2232510Y1068143D01*
X2237582Y1070286D01*
X2245657Y1074629D01*
X2249046Y1076805D01*
X2255980Y1082088D01*
X2259300Y1085099D01*
X2265271Y1091524D01*
X2266700Y1093299D01*
X2271775Y1100698D01*
X2276007Y1108609D01*
X2279345Y1116936D01*
X2281000Y1122699D01*
X2282624Y1131148D01*
X2282900Y1133499D01*
X2283500Y1141699D01*
Y2047299D01*
X2282700Y2058299D01*
X2281006Y2066876D01*
X2278356Y2075209D01*
X2276213Y2080281D01*
X2271929Y2088232D01*
X2268077Y2093976D01*
X2262498Y2100755D01*
X2257400Y2105799D01*
X2253200Y2109399D01*
X2245802Y2114474D01*
X2237891Y2118705D01*
X2229563Y2122044D01*
X2221135Y2124299D01*
X2212851Y2125649D01*
X2207500Y2125999D01*
X78700D01*
Y3188998D02*
X70549Y3188661D01*
X62300Y3187298D01*
X54046Y3185102D01*
X46600Y3182198D01*
X38929Y3178292D01*
X32381Y3173999D01*
X25496Y3168342D01*
X20200Y3162998D01*
X14848Y3156333D01*
X11531Y3151246D01*
X7005Y3142676D01*
X5047Y3138161D01*
X2347Y3129571D01*
X1677Y3126738D01*
X335Y3118236D01*
X0Y3113098D01*
Y2204698D01*
X463Y2195968D01*
X1905Y2187346D01*
X4309Y2178941D01*
X7036Y2172157D01*
X11162Y2164306D01*
X16133Y2156962D01*
X21889Y2150214D01*
X22000Y2150098D01*
X28428Y2144124D01*
X34600Y2139498D01*
X42493Y2134883D01*
X50838Y2131145D01*
X59604Y2128365D01*
X67793Y2126792D01*
X70400Y2126498D01*
X78700Y2125998D01*
X2204700D01*
X2215600Y2126798D01*
X2224178Y2128493D01*
X2232510Y2131142D01*
X2237582Y2133285D01*
X2245657Y2137628D01*
X2249046Y2139804D01*
X2255980Y2145087D01*
X2259300Y2148098D01*
X2265271Y2154523D01*
X2266700Y2156298D01*
X2271775Y2163697D01*
X2276007Y2171608D01*
X2279345Y2179935D01*
X2281000Y2185698D01*
X2282624Y2194147D01*
X2282900Y2196498D01*
X2283500Y2204698D01*
Y3110298D01*
X2282700Y3121298D01*
X2281006Y3129875D01*
X2278356Y3138208D01*
X2276213Y3143280D01*
X2271929Y3151231D01*
X2268077Y3156976D01*
X2262498Y3163754D01*
X2257400Y3168798D01*
X2253200Y3172398D01*
X2245802Y3177473D01*
X2237891Y3181704D01*
X2229563Y3185043D01*
X2221135Y3187298D01*
X2212851Y3188649D01*
X2207500Y3188998D01*
X78700D01*
Y4251998D02*
X70549Y4251661D01*
X62300Y4250298D01*
X54046Y4248102D01*
X46600Y4245198D01*
X38929Y4241292D01*
X32381Y4236999D01*
X25496Y4231341D01*
X20200Y4225998D01*
X14848Y4219332D01*
X11531Y4214245D01*
X7005Y4205675D01*
X5047Y4201161D01*
X2347Y4192571D01*
X1677Y4189737D01*
X335Y4181236D01*
X0Y4176098D01*
Y3267698D01*
X463Y3258968D01*
X1905Y3250346D01*
X4309Y3241941D01*
X7036Y3235157D01*
X11162Y3227306D01*
X16133Y3219961D01*
X21889Y3213214D01*
X22000Y3213098D01*
X28428Y3207124D01*
X34600Y3202498D01*
X42493Y3197883D01*
X50838Y3194145D01*
X59604Y3191364D01*
X67793Y3189791D01*
X70400Y3189498D01*
X78700Y3188998D01*
X2204700D01*
X2215600Y3189798D01*
X2224178Y3191493D01*
X2232510Y3194142D01*
X2237582Y3196285D01*
X2245657Y3200627D01*
X2249046Y3202804D01*
X2255980Y3208086D01*
X2259300Y3211098D01*
X2265271Y3217522D01*
X2266700Y3219298D01*
X2271775Y3226697D01*
X2276007Y3234608D01*
X2279345Y3242935D01*
X2281000Y3248698D01*
X2282624Y3257146D01*
X2282900Y3259498D01*
X2283500Y3267698D01*
Y4173298D01*
X2282700Y4184298D01*
X2281006Y4192875D01*
X2278356Y4201208D01*
X2276213Y4206280D01*
X2271929Y4214231D01*
X2268077Y4219975D01*
X2262498Y4226753D01*
X2257400Y4231798D01*
X2253200Y4235398D01*
X2245802Y4240473D01*
X2237891Y4244704D01*
X2229563Y4248043D01*
X2221135Y4250298D01*
X2212851Y4251648D01*
X2207500Y4251998D01*
X78700D01*
Y5314997D02*
X70549Y5314660D01*
X62300Y5313297D01*
X54046Y5311101D01*
X46600Y5308197D01*
X38929Y5304291D01*
X32381Y5299998D01*
X25496Y5294340D01*
X20200Y5288997D01*
X14848Y5282332D01*
X11531Y5277245D01*
X7005Y5268675D01*
X5047Y5264160D01*
X2347Y5255570D01*
X1677Y5252736D01*
X335Y5244235D01*
X0Y5239097D01*
Y4330697D01*
X463Y4321967D01*
X1905Y4313345D01*
X4309Y4304940D01*
X7036Y4298156D01*
X11162Y4290305D01*
X16133Y4282960D01*
X21889Y4276213D01*
X22000Y4276097D01*
X28428Y4270123D01*
X34600Y4265497D01*
X42493Y4260882D01*
X50838Y4257144D01*
X59604Y4254364D01*
X67793Y4252790D01*
X70400Y4252497D01*
X78700Y4251997D01*
X2204700D01*
X2215600Y4252797D01*
X2224178Y4254492D01*
X2232510Y4257141D01*
X2237582Y4259284D01*
X2245657Y4263627D01*
X2249046Y4265803D01*
X2255980Y4271086D01*
X2259300Y4274097D01*
X2265271Y4280522D01*
X2266700Y4282297D01*
X2271775Y4289696D01*
X2276007Y4297607D01*
X2279345Y4305934D01*
X2281000Y4311697D01*
X2282624Y4320146D01*
X2282900Y4322497D01*
X2283500Y4330697D01*
Y5236297D01*
X2282700Y5247297D01*
X2281006Y5255874D01*
X2278356Y5264207D01*
X2276213Y5269279D01*
X2271929Y5277230D01*
X2268077Y5282975D01*
X2262498Y5289753D01*
X2257400Y5294797D01*
X2253200Y5298397D01*
X2245802Y5303472D01*
X2237891Y5307703D01*
X2229563Y5311042D01*
X2221135Y5313297D01*
X2212851Y5314647D01*
X2207500Y5314997D01*
X78700D01*
X2362200Y1062999D02*
X2354049Y1062662D01*
X2345800Y1061299D01*
X2337546Y1059103D01*
X2330100Y1056199D01*
X2322429Y1052294D01*
X2315881Y1048000D01*
X2308996Y1042343D01*
X2303700Y1036999D01*
X2298348Y1030334D01*
X2295031Y1025247D01*
X2290505Y1016677D01*
X2288547Y1012162D01*
X2285847Y1003573D01*
X2285177Y1000739D01*
X2283835Y992238D01*
X2283500Y987099D01*
Y78699D01*
X2283963Y69969D01*
X2285405Y61347D01*
X2287809Y52942D01*
X2290536Y46158D01*
X2294662Y38307D01*
X2299633Y30963D01*
X2305389Y24215D01*
X2305500Y24099D01*
X2311928Y18125D01*
X2318100Y13499D01*
X2325993Y8884D01*
X2334338Y5146D01*
X2343104Y2366D01*
X2351293Y793D01*
X2353900Y499D01*
X2362200Y-1D01*
X4488200D01*
X4499100Y799D01*
X4507678Y2494D01*
X4516010Y5143D01*
X4521082Y7286D01*
X4529157Y11629D01*
X4532546Y13806D01*
X4539480Y19088D01*
X4542800Y22099D01*
X4548771Y28524D01*
X4550200Y30299D01*
X4555275Y37698D01*
X4559507Y45609D01*
X4562845Y53936D01*
X4564500Y59699D01*
X4566124Y68148D01*
X4566400Y70499D01*
X4567000Y78699D01*
Y984299D01*
X4566200Y995299D01*
X4564506Y1003876D01*
X4561856Y1012209D01*
X4559713Y1017281D01*
X4555429Y1025233D01*
X4551577Y1030977D01*
X4545998Y1037755D01*
X4540900Y1042799D01*
X4536700Y1046399D01*
X4529302Y1051474D01*
X4521391Y1055705D01*
X4513063Y1059044D01*
X4504635Y1061300D01*
X4496351Y1062650D01*
X4491000Y1062999D01*
X2362200D01*
Y2125999D02*
X2354049Y2125662D01*
X2345800Y2124299D01*
X2337546Y2122103D01*
X2330100Y2119199D01*
X2322429Y2115293D01*
X2315881Y2111000D01*
X2308996Y2105342D01*
X2303700Y2099999D01*
X2298348Y2093333D01*
X2295031Y2088246D01*
X2290505Y2079676D01*
X2288547Y2075162D01*
X2285847Y2066572D01*
X2285177Y2063738D01*
X2283835Y2055237D01*
X2283500Y2050099D01*
Y1141699D01*
X2283963Y1132969D01*
X2285405Y1124347D01*
X2287809Y1115942D01*
X2290536Y1109158D01*
X2294662Y1101307D01*
X2299633Y1093962D01*
X2305389Y1087215D01*
X2305500Y1087099D01*
X2311928Y1081125D01*
X2318100Y1076499D01*
X2325993Y1071884D01*
X2334338Y1068146D01*
X2343104Y1065366D01*
X2351293Y1063792D01*
X2353900Y1063499D01*
X2362200Y1062999D01*
X4488200D01*
X4499100Y1063799D01*
X4507678Y1065494D01*
X4516010Y1068143D01*
X4521082Y1070286D01*
X4529157Y1074629D01*
X4532546Y1076805D01*
X4539480Y1082088D01*
X4542800Y1085099D01*
X4548771Y1091524D01*
X4550200Y1093299D01*
X4555275Y1100698D01*
X4559507Y1108609D01*
X4562845Y1116936D01*
X4564500Y1122699D01*
X4566124Y1131148D01*
X4566400Y1133499D01*
X4567000Y1141699D01*
Y2047299D01*
X4566200Y2058299D01*
X4564506Y2066876D01*
X4561856Y2075209D01*
X4559713Y2080281D01*
X4555429Y2088232D01*
X4551577Y2093976D01*
X4545998Y2100755D01*
X4540900Y2105799D01*
X4536700Y2109399D01*
X4529302Y2114474D01*
X4521391Y2118705D01*
X4513063Y2122044D01*
X4504635Y2124299D01*
X4496351Y2125649D01*
X4491000Y2125999D01*
X2362200D01*
Y3188998D02*
X2354049Y3188661D01*
X2345800Y3187298D01*
X2337546Y3185102D01*
X2330100Y3182198D01*
X2322429Y3178292D01*
X2315881Y3173999D01*
X2308996Y3168342D01*
X2303700Y3162998D01*
X2298348Y3156333D01*
X2295031Y3151246D01*
X2290505Y3142676D01*
X2288547Y3138161D01*
X2285847Y3129571D01*
X2285177Y3126738D01*
X2283835Y3118236D01*
X2283500Y3113098D01*
Y2204698D01*
X2283963Y2195968D01*
X2285405Y2187346D01*
X2287809Y2178941D01*
X2290536Y2172157D01*
X2294662Y2164306D01*
X2299633Y2156962D01*
X2305389Y2150214D01*
X2305500Y2150098D01*
X2311928Y2144124D01*
X2318100Y2139498D01*
X2325993Y2134883D01*
X2334338Y2131145D01*
X2343104Y2128365D01*
X2351293Y2126792D01*
X2353900Y2126498D01*
X2362200Y2125998D01*
X4488200D01*
X4499100Y2126798D01*
X4507678Y2128493D01*
X4516010Y2131142D01*
X4521082Y2133285D01*
X4529157Y2137628D01*
X4532546Y2139804D01*
X4539480Y2145087D01*
X4542800Y2148098D01*
X4548771Y2154523D01*
X4550200Y2156298D01*
X4555275Y2163697D01*
X4559507Y2171608D01*
X4562845Y2179935D01*
X4564500Y2185698D01*
X4566124Y2194147D01*
X4566400Y2196498D01*
X4567000Y2204698D01*
Y3110298D01*
X4566200Y3121298D01*
X4564506Y3129875D01*
X4561856Y3138208D01*
X4559713Y3143280D01*
X4555429Y3151231D01*
X4551577Y3156976D01*
X4545998Y3163754D01*
X4540900Y3168798D01*
X4536700Y3172398D01*
X4529302Y3177473D01*
X4521391Y3181704D01*
X4513063Y3185043D01*
X4504635Y3187298D01*
X4496351Y3188649D01*
X4491000Y3188998D01*
X2362200D01*
Y4251998D02*
X2354049Y4251661D01*
X2345800Y4250298D01*
X2337546Y4248102D01*
X2330100Y4245198D01*
X2322429Y4241292D01*
X2315881Y4236999D01*
X2308996Y4231341D01*
X2303700Y4225998D01*
X2298348Y4219332D01*
X2295031Y4214245D01*
X2290505Y4205675D01*
X2288547Y4201161D01*
X2285847Y4192571D01*
X2285177Y4189737D01*
X2283835Y4181236D01*
X2283500Y4176098D01*
Y3267698D01*
X2283963Y3258968D01*
X2285405Y3250346D01*
X2287809Y3241941D01*
X2290536Y3235157D01*
X2294662Y3227306D01*
X2299633Y3219961D01*
X2305389Y3213214D01*
X2305500Y3213098D01*
X2311928Y3207124D01*
X2318100Y3202498D01*
X2325993Y3197883D01*
X2334338Y3194145D01*
X2343104Y3191364D01*
X2351293Y3189791D01*
X2353900Y3189498D01*
X2362200Y3188998D01*
X4488200D01*
X4499100Y3189798D01*
X4507678Y3191493D01*
X4516010Y3194142D01*
X4521082Y3196285D01*
X4529157Y3200627D01*
X4532546Y3202804D01*
X4539480Y3208086D01*
X4542800Y3211098D01*
X4548771Y3217522D01*
X4550200Y3219298D01*
X4555275Y3226697D01*
X4559507Y3234608D01*
X4562845Y3242935D01*
X4564500Y3248698D01*
X4566124Y3257146D01*
X4566400Y3259498D01*
X4567000Y3267698D01*
Y4173298D01*
X4566200Y4184298D01*
X4564506Y4192875D01*
X4561856Y4201208D01*
X4559713Y4206280D01*
X4555429Y4214231D01*
X4551577Y4219975D01*
X4545998Y4226753D01*
X4540900Y4231798D01*
X4536700Y4235398D01*
X4529302Y4240473D01*
X4521391Y4244704D01*
X4513063Y4248043D01*
X4504635Y4250298D01*
X4496351Y4251648D01*
X4491000Y4251998D01*
X2362200D01*
Y5314997D02*
X2354049Y5314660D01*
X2345800Y5313297D01*
X2337546Y5311101D01*
X2330100Y5308197D01*
X2322429Y5304291D01*
X2315881Y5299998D01*
X2308996Y5294340D01*
X2303700Y5288997D01*
X2298348Y5282332D01*
X2295031Y5277245D01*
X2290505Y5268675D01*
X2288547Y5264160D01*
X2285847Y5255570D01*
X2285177Y5252736D01*
X2283835Y5244235D01*
X2283500Y5239097D01*
Y4330697D01*
X2283963Y4321967D01*
X2285405Y4313345D01*
X2287809Y4304940D01*
X2290536Y4298156D01*
X2294662Y4290305D01*
X2299633Y4282960D01*
X2305389Y4276213D01*
X2305500Y4276097D01*
X2311928Y4270123D01*
X2318100Y4265497D01*
X2325993Y4260882D01*
X2334338Y4257144D01*
X2343104Y4254364D01*
X2351293Y4252790D01*
X2353900Y4252497D01*
X2362200Y4251997D01*
X4488200D01*
X4499100Y4252797D01*
X4507678Y4254492D01*
X4516010Y4257141D01*
X4521082Y4259284D01*
X4529157Y4263627D01*
X4532546Y4265803D01*
X4539480Y4271086D01*
X4542800Y4274097D01*
X4548771Y4280522D01*
X4550200Y4282297D01*
X4555275Y4289696D01*
X4559507Y4297607D01*
X4562845Y4305934D01*
X4564500Y4311697D01*
X4566124Y4320146D01*
X4566400Y4322497D01*
X4567000Y4330697D01*
Y5236297D01*
X4566200Y5247297D01*
X4564506Y5255874D01*
X4561856Y5264207D01*
X4559713Y5269279D01*
X4555429Y5277230D01*
X4551577Y5282975D01*
X4545998Y5289753D01*
X4540900Y5294797D01*
X4536700Y5298397D01*
X4529302Y5303472D01*
X4521391Y5307703D01*
X4513063Y5311042D01*
X4504635Y5313297D01*
X4496351Y5314647D01*
X4491000Y5314997D01*
X2362200D01*
X4645700Y1062999D02*
X4637549Y1062662D01*
X4629300Y1061299D01*
X4621046Y1059103D01*
X4613600Y1056199D01*
X4605929Y1052294D01*
X4599381Y1048000D01*
X4592496Y1042343D01*
X4587200Y1036999D01*
X4581848Y1030334D01*
X4578531Y1025247D01*
X4574005Y1016677D01*
X4572047Y1012162D01*
X4569347Y1003573D01*
X4568677Y1000739D01*
X4567335Y992238D01*
X4567000Y987099D01*
Y78699D01*
X4567463Y69969D01*
X4568905Y61347D01*
X4571309Y52942D01*
X4574036Y46158D01*
X4578162Y38307D01*
X4583133Y30963D01*
X4588889Y24215D01*
X4589000Y24099D01*
X4595428Y18125D01*
X4601600Y13499D01*
X4609493Y8884D01*
X4617838Y5146D01*
X4626604Y2366D01*
X4634793Y793D01*
X4637400Y499D01*
X4645700Y-1D01*
X6771700D01*
X6782600Y799D01*
X6791178Y2494D01*
X6799510Y5143D01*
X6804582Y7286D01*
X6812657Y11629D01*
X6816046Y13806D01*
X6822980Y19088D01*
X6826300Y22099D01*
X6832271Y28524D01*
X6833700Y30299D01*
X6838775Y37698D01*
X6843007Y45609D01*
X6846345Y53936D01*
X6848000Y59699D01*
X6849624Y68148D01*
X6849900Y70499D01*
X6850500Y78699D01*
Y984299D01*
X6849700Y995299D01*
X6848006Y1003876D01*
X6845356Y1012209D01*
X6843213Y1017281D01*
X6838929Y1025233D01*
X6835077Y1030977D01*
X6829498Y1037755D01*
X6824400Y1042799D01*
X6820200Y1046399D01*
X6812802Y1051474D01*
X6804891Y1055705D01*
X6796563Y1059044D01*
X6788135Y1061300D01*
X6779851Y1062650D01*
X6774500Y1062999D01*
X4645700D01*
Y2125999D02*
X4637549Y2125662D01*
X4629300Y2124299D01*
X4621046Y2122103D01*
X4613600Y2119199D01*
X4605929Y2115293D01*
X4599381Y2111000D01*
X4592496Y2105342D01*
X4587200Y2099999D01*
X4581848Y2093333D01*
X4578531Y2088246D01*
X4574005Y2079676D01*
X4572047Y2075162D01*
X4569347Y2066572D01*
X4568677Y2063738D01*
X4567335Y2055237D01*
X4567000Y2050099D01*
Y1141699D01*
X4567463Y1132969D01*
X4568905Y1124347D01*
X4571309Y1115942D01*
X4574036Y1109158D01*
X4578162Y1101307D01*
X4583133Y1093962D01*
X4588889Y1087215D01*
X4589000Y1087099D01*
X4595428Y1081125D01*
X4601600Y1076499D01*
X4609493Y1071884D01*
X4617838Y1068146D01*
X4626604Y1065366D01*
X4634793Y1063792D01*
X4637400Y1063499D01*
X4645700Y1062999D01*
X6771700D01*
X6782600Y1063799D01*
X6791178Y1065494D01*
X6799510Y1068143D01*
X6804582Y1070286D01*
X6812657Y1074629D01*
X6816046Y1076805D01*
X6822980Y1082088D01*
X6826300Y1085099D01*
X6832271Y1091524D01*
X6833700Y1093299D01*
X6838775Y1100698D01*
X6843007Y1108609D01*
X6846345Y1116936D01*
X6848000Y1122699D01*
X6849624Y1131148D01*
X6849900Y1133499D01*
X6850500Y1141699D01*
Y2047299D01*
X6849700Y2058299D01*
X6848006Y2066876D01*
X6845356Y2075209D01*
X6843213Y2080281D01*
X6838929Y2088232D01*
X6835077Y2093976D01*
X6829498Y2100755D01*
X6824400Y2105799D01*
X6820200Y2109399D01*
X6812802Y2114474D01*
X6804891Y2118705D01*
X6796563Y2122044D01*
X6788135Y2124299D01*
X6779851Y2125649D01*
X6774500Y2125999D01*
X4645700D01*
Y3188998D02*
X4637549Y3188661D01*
X4629300Y3187298D01*
X4621046Y3185102D01*
X4613600Y3182198D01*
X4605929Y3178292D01*
X4599381Y3173999D01*
X4592496Y3168342D01*
X4587200Y3162998D01*
X4581848Y3156333D01*
X4578531Y3151246D01*
X4574005Y3142676D01*
X4572047Y3138161D01*
X4569347Y3129571D01*
X4568677Y3126738D01*
X4567335Y3118236D01*
X4567000Y3113098D01*
Y2204698D01*
X4567463Y2195968D01*
X4568905Y2187346D01*
X4571309Y2178941D01*
X4574036Y2172157D01*
X4578162Y2164306D01*
X4583133Y2156962D01*
X4588889Y2150214D01*
X4589000Y2150098D01*
X4595428Y2144124D01*
X4601600Y2139498D01*
X4609493Y2134883D01*
X4617838Y2131145D01*
X4626604Y2128365D01*
X4634793Y2126792D01*
X4637400Y2126498D01*
X4645700Y2125998D01*
X6771700D01*
X6782600Y2126798D01*
X6791178Y2128493D01*
X6799510Y2131142D01*
X6804582Y2133285D01*
X6812657Y2137628D01*
X6816046Y2139804D01*
X6822980Y2145087D01*
X6826300Y2148098D01*
X6832271Y2154523D01*
X6833700Y2156298D01*
X6838775Y2163697D01*
X6843007Y2171608D01*
X6846345Y2179935D01*
X6848000Y2185698D01*
X6849624Y2194147D01*
X6849900Y2196498D01*
X6850500Y2204698D01*
Y3110298D01*
X6849700Y3121298D01*
X6848006Y3129875D01*
X6845356Y3138208D01*
X6843213Y3143280D01*
X6838929Y3151231D01*
X6835077Y3156976D01*
X6829498Y3163754D01*
X6824400Y3168798D01*
X6820200Y3172398D01*
X6812802Y3177473D01*
X6804891Y3181704D01*
X6796563Y3185043D01*
X6788135Y3187298D01*
X6779851Y3188649D01*
X6774500Y3188998D01*
X4645700D01*
Y4251998D02*
X4637549Y4251661D01*
X4629300Y4250298D01*
X4621046Y4248102D01*
X4613600Y4245198D01*
X4605929Y4241292D01*
X4599381Y4236999D01*
X4592496Y4231341D01*
X4587200Y4225998D01*
X4581848Y4219332D01*
X4578531Y4214245D01*
X4574005Y4205675D01*
X4572047Y4201161D01*
X4569347Y4192571D01*
X4568677Y4189737D01*
X4567335Y4181236D01*
X4567000Y4176098D01*
Y3267698D01*
X4567463Y3258968D01*
X4568905Y3250346D01*
X4571309Y3241941D01*
X4574036Y3235157D01*
X4578162Y3227306D01*
X4583133Y3219961D01*
X4588889Y3213214D01*
X4589000Y3213098D01*
X4595428Y3207124D01*
X4601600Y3202498D01*
X4609493Y3197883D01*
X4617838Y3194145D01*
X4626604Y3191364D01*
X4634793Y3189791D01*
X4637400Y3189498D01*
X4645700Y3188998D01*
X6771700D01*
X6782600Y3189798D01*
X6791178Y3191493D01*
X6799510Y3194142D01*
X6804582Y3196285D01*
X6812657Y3200627D01*
X6816046Y3202804D01*
X6822980Y3208086D01*
X6826300Y3211098D01*
X6832271Y3217522D01*
X6833700Y3219298D01*
X6838775Y3226697D01*
X6843007Y3234608D01*
X6846345Y3242935D01*
X6848000Y3248698D01*
X6849624Y3257146D01*
X6849900Y3259498D01*
X6850500Y3267698D01*
Y4173298D01*
X6849700Y4184298D01*
X6848006Y4192875D01*
X6845356Y4201208D01*
X6843213Y4206280D01*
X6838929Y4214231D01*
X6835077Y4219975D01*
X6829498Y4226753D01*
X6824400Y4231798D01*
X6820200Y4235398D01*
X6812802Y4240473D01*
X6804891Y4244704D01*
X6796563Y4248043D01*
X6788135Y4250298D01*
X6779851Y4251648D01*
X6774500Y4251998D01*
X4645700D01*
Y5314997D02*
X4637549Y5314660D01*
X4629300Y5313297D01*
X4621046Y5311101D01*
X4613600Y5308197D01*
X4605929Y5304291D01*
X4599381Y5299998D01*
X4592496Y5294340D01*
X4587200Y5288997D01*
X4581848Y5282332D01*
X4578531Y5277245D01*
X4574005Y5268675D01*
X4572047Y5264160D01*
X4569347Y5255570D01*
X4568677Y5252736D01*
X4567335Y5244235D01*
X4567000Y5239097D01*
Y4330697D01*
X4567463Y4321967D01*
X4568905Y4313345D01*
X4571309Y4304940D01*
X4574036Y4298156D01*
X4578162Y4290305D01*
X4583133Y4282960D01*
X4588889Y4276213D01*
X4589000Y4276097D01*
X4595428Y4270123D01*
X4601600Y4265497D01*
X4609493Y4260882D01*
X4617838Y4257144D01*
X4626604Y4254364D01*
X4634793Y4252790D01*
X4637400Y4252497D01*
X4645700Y4251997D01*
X6771700D01*
X6782600Y4252797D01*
X6791178Y4254492D01*
X6799510Y4257141D01*
X6804582Y4259284D01*
X6812657Y4263627D01*
X6816046Y4265803D01*
X6822980Y4271086D01*
X6826300Y4274097D01*
X6832271Y4280522D01*
X6833700Y4282297D01*
X6838775Y4289696D01*
X6843007Y4297607D01*
X6846345Y4305934D01*
X6848000Y4311697D01*
X6849624Y4320146D01*
X6849900Y4322497D01*
X6850500Y4330697D01*
Y5236297D01*
X6849700Y5247297D01*
X6848006Y5255874D01*
X6845356Y5264207D01*
X6843213Y5269279D01*
X6838929Y5277230D01*
X6835077Y5282975D01*
X6829498Y5289753D01*
X6824400Y5294797D01*
X6820200Y5298397D01*
X6812802Y5303472D01*
X6804891Y5307703D01*
X6796563Y5311042D01*
X6788135Y5313297D01*
X6779851Y5314647D01*
X6774500Y5314997D01*
X4645700D01*
X-98425Y4921296D03*
X6948925D03*
X-98425Y393701D03*
X6948925Y590551D03*
X-98425Y5118147D03*
X6948925D03*
X-98425Y196850D03*
X6948925Y393701D03*
X78700Y1062999D02*
X70549Y1062662D01*
X62300Y1061299D01*
X54046Y1059103D01*
X46600Y1056199D01*
X38929Y1052294D01*
X32381Y1048000D01*
X25496Y1042343D01*
X20200Y1036999D01*
X14848Y1030334D01*
X11531Y1025247D01*
X7005Y1016677D01*
X5047Y1012162D01*
X2347Y1003573D01*
X1677Y1000739D01*
X335Y992238D01*
X0Y987099D01*
Y78699D01*
X463Y69969D01*
X1905Y61347D01*
X4309Y52942D01*
X7036Y46158D01*
X11162Y38307D01*
X16133Y30963D01*
X21889Y24215D01*
X22000Y24099D01*
X28428Y18125D01*
X34600Y13499D01*
X42493Y8884D01*
X50838Y5146D01*
X59604Y2366D01*
X67793Y793D01*
X70400Y499D01*
X78700Y-1D01*
X2204700D01*
X2215600Y799D01*
X2224178Y2494D01*
X2232510Y5143D01*
X2237582Y7286D01*
X2245657Y11629D01*
X2249046Y13806D01*
X2255980Y19088D01*
X2259300Y22099D01*
X2265271Y28524D01*
X2266700Y30299D01*
X2271775Y37698D01*
X2276007Y45609D01*
X2279345Y53936D01*
X2281000Y59699D01*
X2282624Y68148D01*
X2282900Y70499D01*
X2283500Y78699D01*
Y984299D01*
X2282700Y995299D01*
X2281006Y1003876D01*
X2278356Y1012209D01*
X2276213Y1017281D01*
X2271929Y1025232D01*
X2268077Y1030977D01*
X2262498Y1037755D01*
X2257400Y1042799D01*
X2253200Y1046399D01*
X2245802Y1051474D01*
X2237891Y1055705D01*
X2229563Y1059044D01*
X2221135Y1061300D01*
X2212851Y1062650D01*
X2207500Y1062999D01*
X78700D01*
X2362200D02*
X2354049Y1062662D01*
X2345800Y1061299D01*
X2337546Y1059103D01*
X2330100Y1056199D01*
X2322429Y1052294D01*
X2315881Y1048000D01*
X2308996Y1042343D01*
X2303700Y1036999D01*
X2298348Y1030334D01*
X2295031Y1025247D01*
X2290505Y1016677D01*
X2288547Y1012162D01*
X2285847Y1003573D01*
X2285177Y1000739D01*
X2283835Y992238D01*
X2283500Y987099D01*
Y78699D01*
X2283963Y69969D01*
X2285405Y61347D01*
X2287809Y52942D01*
X2290537Y46158D01*
X2294663Y38306D01*
X2299635Y30961D01*
X2305392Y24213D01*
X2305500Y24099D01*
X2311928Y18125D01*
X2318100Y13499D01*
X2325994Y8884D01*
X2334338Y5146D01*
X2343104Y2366D01*
X2351293Y793D01*
X2353900Y499D01*
X2362200Y-1D01*
X4488200D01*
X4499100Y799D01*
X4507678Y2494D01*
X4516010Y5143D01*
X4521082Y7286D01*
X4529157Y11629D01*
X4532546Y13806D01*
X4539480Y19088D01*
X4542800Y22099D01*
X4548771Y28524D01*
X4550200Y30299D01*
X4555275Y37698D01*
X4559507Y45609D01*
X4562845Y53936D01*
X4564500Y59699D01*
X4566124Y68148D01*
X4566400Y70499D01*
X4567000Y78699D01*
Y984299D01*
X4566200Y995299D01*
X4564506Y1003876D01*
X4561856Y1012209D01*
X4559713Y1017281D01*
X4555429Y1025232D01*
X4551577Y1030977D01*
X4545998Y1037755D01*
X4540900Y1042799D01*
X4536700Y1046399D01*
X4529302Y1051474D01*
X4521391Y1055705D01*
X4513063Y1059044D01*
X4504635Y1061300D01*
X4496351Y1062650D01*
X4491000Y1062999D01*
X2362200D01*
X4645700D02*
X4637549Y1062662D01*
X4629300Y1061299D01*
X4621046Y1059103D01*
X4613600Y1056199D01*
X4605929Y1052294D01*
X4599381Y1048000D01*
X4592496Y1042343D01*
X4587200Y1036999D01*
X4581848Y1030334D01*
X4578531Y1025247D01*
X4574005Y1016677D01*
X4572047Y1012162D01*
X4569347Y1003573D01*
X4568677Y1000739D01*
X4567335Y992238D01*
X4567000Y987099D01*
Y78699D01*
X4567463Y69969D01*
X4568905Y61347D01*
X4571309Y52942D01*
X4574037Y46158D01*
X4578163Y38306D01*
X4583135Y30961D01*
X4588892Y24213D01*
X4589000Y24099D01*
X4595428Y18125D01*
X4601600Y13499D01*
X4609494Y8884D01*
X4617838Y5146D01*
X4626604Y2366D01*
X4634793Y793D01*
X4637400Y499D01*
X4645700Y-1D01*
X6771700D01*
X6782600Y799D01*
X6791178Y2494D01*
X6799510Y5143D01*
X6804582Y7286D01*
X6812657Y11629D01*
X6816046Y13806D01*
X6822980Y19088D01*
X6826300Y22099D01*
X6832271Y28524D01*
X6833700Y30299D01*
X6838775Y37698D01*
X6843007Y45609D01*
X6846345Y53936D01*
X6848000Y59699D01*
X6849624Y68148D01*
X6849900Y70499D01*
X6850500Y78699D01*
Y984299D01*
X6849700Y995299D01*
X6848006Y1003876D01*
X6845356Y1012209D01*
X6843213Y1017281D01*
X6838929Y1025232D01*
X6835077Y1030977D01*
X6829498Y1037755D01*
X6824400Y1042799D01*
X6820200Y1046399D01*
X6812802Y1051474D01*
X6804891Y1055705D01*
X6796563Y1059044D01*
X6788135Y1061300D01*
X6779851Y1062650D01*
X6774500Y1062999D01*
X4645700D01*
X78700Y2126011D02*
X70549Y2125674D01*
X62300Y2124311D01*
X54046Y2122115D01*
X46600Y2119211D01*
X38929Y2115306D01*
X32381Y2111012D01*
X25496Y2105355D01*
X20200Y2100011D01*
X14848Y2093346D01*
X11531Y2088259D01*
X7005Y2079689D01*
X5047Y2075174D01*
X2347Y2066585D01*
X1677Y2063751D01*
X335Y2055250D01*
X0Y2050111D01*
Y1141711D01*
X463Y1132981D01*
X1905Y1124359D01*
X4309Y1115954D01*
X7036Y1109170D01*
X11162Y1101319D01*
X16134Y1093974D01*
X21891Y1087226D01*
X22000Y1087111D01*
X28428Y1081137D01*
X34600Y1076511D01*
X42493Y1071896D01*
X50838Y1068158D01*
X59604Y1065378D01*
X67792Y1063805D01*
X70400Y1063511D01*
X78700Y1063011D01*
X2204700D01*
X2215600Y1063811D01*
X2224178Y1065506D01*
X2232510Y1068155D01*
X2237582Y1070299D01*
X2245660Y1074644D01*
X2249046Y1076818D01*
X2255979Y1082099D01*
X2259300Y1085111D01*
X2265271Y1091536D01*
X2266700Y1093311D01*
X2271775Y1100710D01*
X2276007Y1108621D01*
X2279345Y1116948D01*
X2281000Y1122711D01*
X2282624Y1131160D01*
X2282900Y1133511D01*
X2283500Y1141711D01*
Y2047311D01*
X2282700Y2058311D01*
X2281006Y2066889D01*
X2278356Y2075221D01*
X2276213Y2080293D01*
X2271929Y2088244D01*
X2268077Y2093989D01*
X2262498Y2100767D01*
X2257400Y2105811D01*
X2253200Y2109411D01*
X2245802Y2114486D01*
X2237891Y2118718D01*
X2229563Y2122056D01*
X2221135Y2124312D01*
X2212851Y2125662D01*
X2207500Y2126011D01*
X78700D01*
X2362200D02*
X2354049Y2125674D01*
X2345800Y2124311D01*
X2337546Y2122115D01*
X2330100Y2119211D01*
X2322429Y2115306D01*
X2315881Y2111012D01*
X2308996Y2105355D01*
X2303700Y2100011D01*
X2298348Y2093346D01*
X2295031Y2088259D01*
X2290505Y2079689D01*
X2288547Y2075174D01*
X2285847Y2066585D01*
X2285177Y2063751D01*
X2283835Y2055250D01*
X2283500Y2050111D01*
Y1141711D01*
X2283963Y1132981D01*
X2285405Y1124359D01*
X2287809Y1115954D01*
X2290537Y1109170D01*
X2294663Y1101318D01*
X2299636Y1093972D01*
X2305393Y1087223D01*
X2305500Y1087111D01*
X2311928Y1081137D01*
X2318100Y1076511D01*
X2325994Y1071896D01*
X2334338Y1068158D01*
X2343104Y1065378D01*
X2351292Y1063805D01*
X2353900Y1063511D01*
X2362200Y1063011D01*
X4488200D01*
X4499100Y1063811D01*
X4507678Y1065506D01*
X4516010Y1068155D01*
X4521082Y1070299D01*
X4529160Y1074644D01*
X4532546Y1076818D01*
X4539479Y1082099D01*
X4542800Y1085111D01*
X4548771Y1091536D01*
X4550200Y1093311D01*
X4555275Y1100710D01*
X4559507Y1108621D01*
X4562845Y1116948D01*
X4564500Y1122711D01*
X4566124Y1131160D01*
X4566400Y1133511D01*
X4567000Y1141711D01*
Y2047311D01*
X4566200Y2058311D01*
X4564506Y2066889D01*
X4561856Y2075221D01*
X4559713Y2080293D01*
X4555429Y2088244D01*
X4551577Y2093989D01*
X4545998Y2100767D01*
X4540900Y2105811D01*
X4536700Y2109411D01*
X4529302Y2114486D01*
X4521391Y2118718D01*
X4513063Y2122056D01*
X4504635Y2124312D01*
X4496351Y2125662D01*
X4491000Y2126011D01*
X2362200D01*
X4645700D02*
X4637549Y2125674D01*
X4629300Y2124311D01*
X4621046Y2122115D01*
X4613600Y2119211D01*
X4605929Y2115306D01*
X4599381Y2111012D01*
X4592496Y2105355D01*
X4587200Y2100011D01*
X4581848Y2093346D01*
X4578531Y2088259D01*
X4574005Y2079689D01*
X4572047Y2075174D01*
X4569347Y2066585D01*
X4568677Y2063751D01*
X4567335Y2055250D01*
X4567000Y2050111D01*
Y1141711D01*
X4567463Y1132981D01*
X4568905Y1124359D01*
X4571309Y1115954D01*
X4574037Y1109170D01*
X4578163Y1101318D01*
X4583136Y1093972D01*
X4588893Y1087223D01*
X4589000Y1087111D01*
X4595428Y1081137D01*
X4601600Y1076511D01*
X4609494Y1071896D01*
X4617838Y1068158D01*
X4626604Y1065378D01*
X4634792Y1063805D01*
X4637400Y1063511D01*
X4645700Y1063011D01*
X6771700D01*
X6782600Y1063811D01*
X6791178Y1065506D01*
X6799510Y1068155D01*
X6804582Y1070299D01*
X6812660Y1074644D01*
X6816046Y1076818D01*
X6822979Y1082099D01*
X6826300Y1085111D01*
X6832271Y1091536D01*
X6833700Y1093311D01*
X6838775Y1100710D01*
X6843007Y1108621D01*
X6846345Y1116948D01*
X6848000Y1122711D01*
X6849624Y1131160D01*
X6849900Y1133511D01*
X6850500Y1141711D01*
Y2047311D01*
X6849700Y2058311D01*
X6848006Y2066889D01*
X6845356Y2075221D01*
X6843213Y2080293D01*
X6838929Y2088244D01*
X6835077Y2093989D01*
X6829498Y2100767D01*
X6824400Y2105811D01*
X6820200Y2109411D01*
X6812802Y2114486D01*
X6804891Y2118718D01*
X6796563Y2122056D01*
X6788135Y2124312D01*
X6779851Y2125662D01*
X6774500Y2126011D01*
X4645700D01*
X78700Y3189024D02*
X70549Y3188687D01*
X62300Y3187324D01*
X54046Y3185127D01*
X46600Y3182224D01*
X38930Y3178320D01*
X32381Y3174026D01*
X25495Y3168368D01*
X20200Y3163024D01*
X14849Y3156360D01*
X11532Y3151271D01*
X7004Y3142698D01*
X5047Y3138186D01*
X2347Y3129600D01*
X1677Y3126764D01*
X335Y3118262D01*
X0Y3113124D01*
Y2204724D01*
X463Y2195994D01*
X1905Y2187372D01*
X4309Y2178967D01*
X7036Y2172182D01*
X11161Y2164332D01*
X16133Y2156988D01*
X21888Y2150241D01*
X22000Y2150124D01*
X28428Y2144150D01*
X34600Y2139524D01*
X42493Y2134908D01*
X50838Y2131170D01*
X59604Y2128391D01*
X67791Y2126818D01*
X70400Y2126524D01*
X78700Y2126024D01*
X2204700D01*
X2215600Y2126824D01*
X2224178Y2128518D01*
X2232510Y2131168D01*
X2237582Y2133311D01*
X2245657Y2137654D01*
X2249046Y2139831D01*
X2255980Y2145113D01*
X2259300Y2148124D01*
X2265271Y2154549D01*
X2266700Y2156324D01*
X2271775Y2163722D01*
X2276007Y2171633D01*
X2279345Y2179961D01*
X2281000Y2185724D01*
X2282624Y2194173D01*
X2282900Y2196524D01*
X2283500Y2204724D01*
Y3110324D01*
X2282700Y3121324D01*
X2281006Y3129901D01*
X2278356Y3138233D01*
X2276213Y3143305D01*
X2271929Y3151256D01*
X2268077Y3157002D01*
X2262498Y3163780D01*
X2257400Y3168824D01*
X2253200Y3172424D01*
X2245802Y3177498D01*
X2237891Y3181730D01*
X2229563Y3185068D01*
X2221135Y3187327D01*
X2212834Y3188676D01*
X2207500Y3189024D01*
X78700D01*
X2362200D02*
X2354049Y3188687D01*
X2345800Y3187324D01*
X2337546Y3185127D01*
X2330100Y3182224D01*
X2322430Y3178320D01*
X2315881Y3174026D01*
X2308995Y3168368D01*
X2303700Y3163024D01*
X2298349Y3156360D01*
X2295032Y3151271D01*
X2290504Y3142698D01*
X2288547Y3138186D01*
X2285847Y3129600D01*
X2285177Y3126764D01*
X2283835Y3118262D01*
X2283500Y3113124D01*
Y2204724D01*
X2283963Y2195994D01*
X2285405Y2187372D01*
X2287809Y2178967D01*
X2290537Y2172182D01*
X2294663Y2164331D01*
X2299635Y2156986D01*
X2305391Y2150239D01*
X2305500Y2150124D01*
X2311928Y2144150D01*
X2318100Y2139524D01*
X2325994Y2134908D01*
X2334338Y2131170D01*
X2343104Y2128391D01*
X2351291Y2126818D01*
X2353900Y2126524D01*
X2362200Y2126024D01*
X4488200D01*
X4499100Y2126824D01*
X4507678Y2128518D01*
X4516010Y2131168D01*
X4521082Y2133311D01*
X4529157Y2137654D01*
X4532546Y2139831D01*
X4539480Y2145113D01*
X4542800Y2148124D01*
X4548771Y2154549D01*
X4550200Y2156324D01*
X4555275Y2163722D01*
X4559507Y2171633D01*
X4562845Y2179961D01*
X4564500Y2185724D01*
X4566124Y2194173D01*
X4566400Y2196524D01*
X4567000Y2204724D01*
Y3110324D01*
X4566200Y3121324D01*
X4564506Y3129901D01*
X4561856Y3138233D01*
X4559713Y3143305D01*
X4555429Y3151256D01*
X4551577Y3157002D01*
X4545998Y3163780D01*
X4540900Y3168824D01*
X4536700Y3172424D01*
X4529302Y3177498D01*
X4521391Y3181730D01*
X4513063Y3185068D01*
X4504635Y3187327D01*
X4496334Y3188676D01*
X4491000Y3189024D01*
X2362200D01*
X4645700D02*
X4637549Y3188687D01*
X4629300Y3187324D01*
X4621046Y3185127D01*
X4613600Y3182224D01*
X4605930Y3178320D01*
X4599381Y3174026D01*
X4592495Y3168368D01*
X4587200Y3163024D01*
X4581849Y3156360D01*
X4578532Y3151271D01*
X4574004Y3142698D01*
X4572047Y3138186D01*
X4569347Y3129600D01*
X4568677Y3126764D01*
X4567335Y3118262D01*
X4567000Y3113124D01*
Y2204724D01*
X4567463Y2195994D01*
X4568905Y2187372D01*
X4571309Y2178967D01*
X4574037Y2172182D01*
X4578163Y2164331D01*
X4583135Y2156986D01*
X4588891Y2150239D01*
X4589000Y2150124D01*
X4595428Y2144150D01*
X4601600Y2139524D01*
X4609494Y2134908D01*
X4617838Y2131170D01*
X4626604Y2128391D01*
X4634791Y2126818D01*
X4637400Y2126524D01*
X4645700Y2126024D01*
X6771700D01*
X6782600Y2126824D01*
X6791178Y2128518D01*
X6799510Y2131168D01*
X6804582Y2133311D01*
X6812657Y2137654D01*
X6816046Y2139831D01*
X6822980Y2145113D01*
X6826300Y2148124D01*
X6832271Y2154549D01*
X6833700Y2156324D01*
X6838775Y2163722D01*
X6843007Y2171633D01*
X6846345Y2179961D01*
X6848000Y2185724D01*
X6849624Y2194173D01*
X6849900Y2196524D01*
X6850500Y2204724D01*
Y3110324D01*
X6849700Y3121324D01*
X6848006Y3129901D01*
X6845356Y3138233D01*
X6843213Y3143305D01*
X6838929Y3151256D01*
X6835077Y3157002D01*
X6829498Y3163780D01*
X6824400Y3168824D01*
X6820200Y3172424D01*
X6812802Y3177498D01*
X6804891Y3181730D01*
X6796563Y3185068D01*
X6788135Y3187327D01*
X6779834Y3188676D01*
X6774500Y3189024D01*
X4645700D01*
X78700Y4252036D02*
X70549Y4251699D01*
X62300Y4250336D01*
X54046Y4248140D01*
X46600Y4245236D01*
X38929Y4241331D01*
X32381Y4237037D01*
X25496Y4231380D01*
X20200Y4226036D01*
X14848Y4219371D01*
X11531Y4214284D01*
X7005Y4205714D01*
X5047Y4201199D01*
X2347Y4192610D01*
X1677Y4189776D01*
X335Y4181275D01*
X0Y4176136D01*
Y3267736D01*
X463Y3259006D01*
X1905Y3250384D01*
X4309Y3241979D01*
X7036Y3235195D01*
X11162Y3227344D01*
X16133Y3220000D01*
X21889Y3213252D01*
X22000Y3213136D01*
X28428Y3207162D01*
X34600Y3202536D01*
X42493Y3197921D01*
X50838Y3194182D01*
X59604Y3191403D01*
X67791Y3189830D01*
X70400Y3189536D01*
X78700Y3189036D01*
X2204700D01*
X2215600Y3189836D01*
X2224178Y3191530D01*
X2232510Y3194180D01*
X2237582Y3196323D01*
X2245657Y3200666D01*
X2249046Y3202843D01*
X2255980Y3208125D01*
X2259300Y3211136D01*
X2265271Y3217561D01*
X2266700Y3219336D01*
X2271775Y3226735D01*
X2276007Y3234645D01*
X2279345Y3242973D01*
X2281000Y3248736D01*
X2282624Y3257185D01*
X2282900Y3259536D01*
X2283500Y3267736D01*
Y4173336D01*
X2282700Y4184336D01*
X2281006Y4192913D01*
X2278356Y4201245D01*
X2276213Y4206318D01*
X2271930Y4214268D01*
X2268077Y4220014D01*
X2262498Y4226793D01*
X2257400Y4231836D01*
X2253200Y4235436D01*
X2245802Y4240510D01*
X2237891Y4244742D01*
X2229563Y4248081D01*
X2221135Y4250337D01*
X2212851Y4251687D01*
X2207500Y4252036D01*
X78700D01*
X2362200D02*
X2354049Y4251699D01*
X2345800Y4250336D01*
X2337546Y4248140D01*
X2330100Y4245236D01*
X2322429Y4241331D01*
X2315881Y4237037D01*
X2308996Y4231380D01*
X2303700Y4226036D01*
X2298348Y4219371D01*
X2295031Y4214284D01*
X2290505Y4205714D01*
X2288547Y4201199D01*
X2285847Y4192610D01*
X2285177Y4189776D01*
X2283835Y4181275D01*
X2283500Y4176136D01*
Y3267736D01*
X2283963Y3259006D01*
X2285405Y3250384D01*
X2287809Y3241979D01*
X2290537Y3235195D01*
X2294663Y3227344D01*
X2299635Y3219998D01*
X2305392Y3213250D01*
X2305500Y3213136D01*
X2311928Y3207162D01*
X2318100Y3202536D01*
X2325994Y3197921D01*
X2334338Y3194182D01*
X2343104Y3191403D01*
X2351291Y3189830D01*
X2353900Y3189536D01*
X2362200Y3189036D01*
X4488200D01*
X4499100Y3189836D01*
X4507678Y3191530D01*
X4516010Y3194180D01*
X4521082Y3196323D01*
X4529157Y3200666D01*
X4532546Y3202843D01*
X4539480Y3208125D01*
X4542800Y3211136D01*
X4548771Y3217561D01*
X4550200Y3219336D01*
X4555275Y3226735D01*
X4559507Y3234645D01*
X4562845Y3242973D01*
X4564500Y3248736D01*
X4566124Y3257185D01*
X4566400Y3259536D01*
X4567000Y3267736D01*
Y4173336D01*
X4566200Y4184336D01*
X4564506Y4192913D01*
X4561856Y4201245D01*
X4559713Y4206318D01*
X4555430Y4214268D01*
X4551577Y4220014D01*
X4545998Y4226793D01*
X4540900Y4231836D01*
X4536700Y4235436D01*
X4529302Y4240510D01*
X4521391Y4244742D01*
X4513063Y4248081D01*
X4504635Y4250337D01*
X4496351Y4251687D01*
X4491000Y4252036D01*
X2362200D01*
X4645700D02*
X4637549Y4251699D01*
X4629300Y4250336D01*
X4621046Y4248140D01*
X4613600Y4245236D01*
X4605929Y4241331D01*
X4599381Y4237037D01*
X4592496Y4231380D01*
X4587200Y4226036D01*
X4581848Y4219371D01*
X4578531Y4214284D01*
X4574005Y4205714D01*
X4572047Y4201199D01*
X4569347Y4192610D01*
X4568677Y4189776D01*
X4567335Y4181275D01*
X4567000Y4176136D01*
Y3267736D01*
X4567463Y3259006D01*
X4568905Y3250384D01*
X4571309Y3241979D01*
X4574037Y3235195D01*
X4578163Y3227344D01*
X4583135Y3219998D01*
X4588892Y3213250D01*
X4589000Y3213136D01*
X4595428Y3207162D01*
X4601600Y3202536D01*
X4609494Y3197921D01*
X4617838Y3194182D01*
X4626604Y3191403D01*
X4634791Y3189830D01*
X4637400Y3189536D01*
X4645700Y3189036D01*
X6771700D01*
X6782600Y3189836D01*
X6791178Y3191530D01*
X6799510Y3194180D01*
X6804582Y3196323D01*
X6812657Y3200666D01*
X6816046Y3202843D01*
X6822980Y3208125D01*
X6826300Y3211136D01*
X6832271Y3217561D01*
X6833700Y3219336D01*
X6838775Y3226735D01*
X6843007Y3234645D01*
X6846345Y3242973D01*
X6848000Y3248736D01*
X6849624Y3257185D01*
X6849900Y3259536D01*
X6850500Y3267736D01*
Y4173336D01*
X6849700Y4184336D01*
X6848006Y4192913D01*
X6845356Y4201245D01*
X6843213Y4206318D01*
X6838930Y4214268D01*
X6835077Y4220014D01*
X6829498Y4226793D01*
X6824400Y4231836D01*
X6820200Y4235436D01*
X6812802Y4240510D01*
X6804891Y4244742D01*
X6796563Y4248081D01*
X6788135Y4250337D01*
X6779851Y4251687D01*
X6774500Y4252036D01*
X4645700D01*
X78700Y5315048D02*
X70549Y5314711D01*
X62300Y5313348D01*
X54046Y5311152D01*
X46600Y5308248D01*
X38929Y5304343D01*
X32381Y5300049D01*
X25496Y5294392D01*
X20200Y5289048D01*
X14848Y5282383D01*
X11531Y5277296D01*
X7005Y5268726D01*
X5047Y5264211D01*
X2347Y5255622D01*
X1677Y5252788D01*
X335Y5244287D01*
X0Y5239148D01*
Y4330748D01*
X463Y4322018D01*
X1905Y4313396D01*
X4309Y4304991D01*
X7036Y4298207D01*
X11162Y4290356D01*
X16134Y4283011D01*
X21891Y4276263D01*
X22000Y4276148D01*
X28428Y4270174D01*
X34600Y4265548D01*
X42493Y4260933D01*
X50838Y4257195D01*
X59604Y4254415D01*
X67792Y4252842D01*
X70400Y4252548D01*
X78700Y4252048D01*
X2204700D01*
X2215600Y4252848D01*
X2224178Y4254543D01*
X2232510Y4257192D01*
X2237582Y4259336D01*
X2245660Y4263681D01*
X2249046Y4265855D01*
X2255979Y4271136D01*
X2259300Y4274148D01*
X2265271Y4280573D01*
X2266700Y4282348D01*
X2271775Y4289747D01*
X2276007Y4297658D01*
X2279345Y4305985D01*
X2281000Y4311748D01*
X2282624Y4320197D01*
X2282900Y4322548D01*
X2283500Y4330748D01*
Y5236348D01*
X2282700Y5247348D01*
X2281006Y5255926D01*
X2278356Y5264258D01*
X2276213Y5269330D01*
X2271929Y5277281D01*
X2268077Y5283026D01*
X2262498Y5289804D01*
X2257400Y5294848D01*
X2253200Y5298448D01*
X2245802Y5303523D01*
X2237891Y5307755D01*
X2229563Y5311093D01*
X2221135Y5313349D01*
X2212851Y5314699D01*
X2207500Y5315048D01*
X78700D01*
X2362200D02*
X2354049Y5314711D01*
X2345800Y5313348D01*
X2337546Y5311152D01*
X2330100Y5308248D01*
X2322429Y5304343D01*
X2315881Y5300049D01*
X2308996Y5294392D01*
X2303700Y5289048D01*
X2298348Y5282383D01*
X2295031Y5277296D01*
X2290505Y5268726D01*
X2288547Y5264211D01*
X2285847Y5255622D01*
X2285177Y5252788D01*
X2283835Y5244287D01*
X2283500Y5239148D01*
Y4330748D01*
X2283963Y4322018D01*
X2285405Y4313396D01*
X2287809Y4304991D01*
X2290537Y4298207D01*
X2294663Y4290355D01*
X2299636Y4283009D01*
X2305393Y4276260D01*
X2305500Y4276148D01*
X2311928Y4270174D01*
X2318100Y4265548D01*
X2325994Y4260933D01*
X2334338Y4257195D01*
X2343104Y4254415D01*
X2351292Y4252842D01*
X2353900Y4252548D01*
X2362200Y4252048D01*
X4488200D01*
X4499100Y4252848D01*
X4507678Y4254543D01*
X4516010Y4257192D01*
X4521082Y4259336D01*
X4529160Y4263681D01*
X4532546Y4265855D01*
X4539479Y4271136D01*
X4542800Y4274148D01*
X4548771Y4280573D01*
X4550200Y4282348D01*
X4555275Y4289747D01*
X4559507Y4297658D01*
X4562845Y4305985D01*
X4564500Y4311748D01*
X4566124Y4320197D01*
X4566400Y4322548D01*
X4567000Y4330748D01*
Y5236348D01*
X4566200Y5247348D01*
X4564506Y5255926D01*
X4561856Y5264258D01*
X4559713Y5269330D01*
X4555429Y5277281D01*
X4551577Y5283026D01*
X4545998Y5289804D01*
X4540900Y5294848D01*
X4536700Y5298448D01*
X4529302Y5303523D01*
X4521391Y5307755D01*
X4513063Y5311093D01*
X4504635Y5313349D01*
X4496351Y5314699D01*
X4491000Y5315048D01*
X2362200D01*
X4645700D02*
X4637549Y5314711D01*
X4629300Y5313348D01*
X4621046Y5311152D01*
X4613600Y5308248D01*
X4605929Y5304343D01*
X4599381Y5300049D01*
X4592496Y5294392D01*
X4587200Y5289048D01*
X4581848Y5282383D01*
X4578531Y5277296D01*
X4574005Y5268726D01*
X4572047Y5264211D01*
X4569347Y5255622D01*
X4568677Y5252788D01*
X4567335Y5244287D01*
X4567000Y5239148D01*
Y4330748D01*
X4567463Y4322018D01*
X4568905Y4313396D01*
X4571309Y4304991D01*
X4574037Y4298207D01*
X4578163Y4290355D01*
X4583136Y4283009D01*
X4588893Y4276260D01*
X4589000Y4276148D01*
X4595428Y4270174D01*
X4601600Y4265548D01*
X4609494Y4260933D01*
X4617838Y4257195D01*
X4626604Y4254415D01*
X4634792Y4252842D01*
X4637400Y4252548D01*
X4645700Y4252048D01*
X6771700D01*
X6782600Y4252848D01*
X6791178Y4254543D01*
X6799510Y4257192D01*
X6804582Y4259336D01*
X6812660Y4263681D01*
X6816046Y4265855D01*
X6822979Y4271136D01*
X6826300Y4274148D01*
X6832271Y4280573D01*
X6833700Y4282348D01*
X6838775Y4289747D01*
X6843007Y4297658D01*
X6846345Y4305985D01*
X6848000Y4311748D01*
X6849624Y4320197D01*
X6849900Y4322548D01*
X6850500Y4330748D01*
Y5236348D01*
X6849700Y5247348D01*
X6848006Y5255926D01*
X6845356Y5264258D01*
X6843213Y5269330D01*
X6838929Y5277281D01*
X6835077Y5283026D01*
X6829498Y5289804D01*
X6824400Y5294848D01*
X6820200Y5298448D01*
X6812802Y5303523D01*
X6804891Y5307755D01*
X6796563Y5311093D01*
X6788135Y5313349D01*
X6779851Y5314699D01*
X6774500Y5315048D01*
X4645700D01*
X2362200Y2126011D02*
X2354049Y2125674D01*
X2345800Y2124311D01*
X2337546Y2122115D01*
X2330100Y2119211D01*
X2322699Y2115424D01*
X2320994Y2114387D01*
X2313169Y2108890D01*
X2312585Y2108429D01*
X2306361Y2102848D01*
X2303700Y2100011D01*
X2298348Y2093346D01*
X2295031Y2088259D01*
X2290505Y2079689D01*
X2288547Y2075174D01*
X2285847Y2066585D01*
X2285177Y2063751D01*
X2283835Y2055250D01*
X2283500Y2050111D01*
Y1141711D01*
X2283963Y1132981D01*
X2285405Y1124359D01*
X2287809Y1115954D01*
X2290537Y1109170D01*
X2294663Y1101318D01*
X2299636Y1093972D01*
X2305393Y1087223D01*
X2305500Y1087111D01*
X2311928Y1081137D01*
X2318100Y1076511D01*
X2325994Y1071896D01*
X2334338Y1068158D01*
X2343104Y1065378D01*
X2351292Y1063805D01*
X2353900Y1063511D01*
X2362200Y1063011D01*
X4488200D01*
X4499100Y1063811D01*
X4507678Y1065506D01*
X4516010Y1068155D01*
X4521082Y1070299D01*
X4529160Y1074644D01*
X4532546Y1076818D01*
X4539479Y1082099D01*
X4542800Y1085111D01*
X4548771Y1091536D01*
X4550200Y1093311D01*
X4555275Y1100710D01*
X4559507Y1108621D01*
X4562845Y1116948D01*
X4564500Y1122711D01*
X4566124Y1131160D01*
X4566400Y1133511D01*
X4567000Y1141711D01*
Y2047311D01*
X4566200Y2058311D01*
X4564506Y2066889D01*
X4561856Y2075221D01*
X4559713Y2080293D01*
X4555429Y2088244D01*
X4551577Y2093989D01*
X4545998Y2100767D01*
X4540900Y2105811D01*
X4536700Y2109411D01*
X4529302Y2114486D01*
X4521391Y2118718D01*
X4513063Y2122056D01*
X4504635Y2124312D01*
X4496351Y2125662D01*
X4491000Y2126011D01*
X2362200D01*
Y3189024D02*
X2354049Y3188687D01*
X2345800Y3187324D01*
X2337546Y3185127D01*
X2330100Y3182224D01*
X2322701Y3178439D01*
X2320994Y3177400D01*
X2313169Y3171903D01*
X2312585Y3171442D01*
X2306361Y3165861D01*
X2303700Y3163024D01*
X2298349Y3156360D01*
X2295032Y3151271D01*
X2290504Y3142698D01*
X2288547Y3138186D01*
X2285847Y3129600D01*
X2285177Y3126764D01*
X2283835Y3118262D01*
X2283500Y3113124D01*
Y2204724D01*
X2283963Y2195994D01*
X2285405Y2187372D01*
X2287809Y2178967D01*
X2290537Y2172182D01*
X2294663Y2164331D01*
X2299635Y2156986D01*
X2305391Y2150239D01*
X2305500Y2150124D01*
X2311928Y2144150D01*
X2318100Y2139524D01*
X2325994Y2134908D01*
X2334338Y2131170D01*
X2343104Y2128391D01*
X2351291Y2126818D01*
X2353900Y2126524D01*
X2362200Y2126024D01*
X4488200D01*
X4499100Y2126824D01*
X4507678Y2128518D01*
X4516010Y2131168D01*
X4521082Y2133311D01*
X4529157Y2137654D01*
X4532546Y2139831D01*
X4539480Y2145113D01*
X4542800Y2148124D01*
X4548771Y2154549D01*
X4550200Y2156324D01*
X4555275Y2163722D01*
X4559507Y2171633D01*
X4562845Y2179961D01*
X4564500Y2185724D01*
X4566124Y2194173D01*
X4566400Y2196524D01*
X4567000Y2204724D01*
Y3110324D01*
X4566200Y3121324D01*
X4564506Y3129901D01*
X4561856Y3138233D01*
X4559713Y3143305D01*
X4555429Y3151256D01*
X4551577Y3157002D01*
X4545998Y3163780D01*
X4540900Y3168824D01*
X4536700Y3172424D01*
X4529302Y3177498D01*
X4521391Y3181730D01*
X4513063Y3185068D01*
X4504635Y3187327D01*
X4496334Y3188676D01*
X4491000Y3189024D01*
X2362200D01*
Y4252036D02*
X2354049Y4251699D01*
X2345800Y4250336D01*
X2337546Y4248140D01*
X2330100Y4245236D01*
X2322699Y4241449D01*
X2320994Y4240412D01*
X2313169Y4234915D01*
X2312585Y4234454D01*
X2306361Y4228873D01*
X2303700Y4226036D01*
X2298348Y4219371D01*
X2295031Y4214284D01*
X2290505Y4205714D01*
X2288547Y4201199D01*
X2285847Y4192610D01*
X2285177Y4189776D01*
X2283835Y4181275D01*
X2283500Y4176136D01*
Y3267736D01*
X2283963Y3259006D01*
X2285405Y3250384D01*
X2287809Y3241979D01*
X2290537Y3235195D01*
X2294663Y3227344D01*
X2299635Y3219998D01*
X2305392Y3213250D01*
X2305500Y3213136D01*
X2311928Y3207162D01*
X2318100Y3202536D01*
X2325994Y3197921D01*
X2334338Y3194182D01*
X2343104Y3191403D01*
X2351291Y3189830D01*
X2353900Y3189536D01*
X2362200Y3189036D01*
X4488200D01*
X4499100Y3189836D01*
X4507678Y3191530D01*
X4516010Y3194180D01*
X4521082Y3196323D01*
X4529157Y3200666D01*
X4532546Y3202843D01*
X4539480Y3208125D01*
X4542800Y3211136D01*
X4548771Y3217561D01*
X4550200Y3219336D01*
X4555275Y3226735D01*
X4559507Y3234645D01*
X4562845Y3242973D01*
X4564500Y3248736D01*
X4566124Y3257185D01*
X4566400Y3259536D01*
X4567000Y3267736D01*
Y4173336D01*
X4566200Y4184336D01*
X4564506Y4192913D01*
X4561856Y4201245D01*
X4559713Y4206318D01*
X4555430Y4214268D01*
X4551577Y4220014D01*
X4545998Y4226793D01*
X4540900Y4231836D01*
X4536700Y4235436D01*
X4529302Y4240510D01*
X4521391Y4244742D01*
X4513063Y4248081D01*
X4504635Y4250337D01*
X4496351Y4251687D01*
X4491000Y4252036D01*
X2362200D01*
X0Y78699D02*
X463Y69969D01*
X1905Y61347D01*
X4309Y52942D01*
X7036Y46158D01*
X11139Y38357D01*
X15193Y32257D01*
X20815Y25430D01*
X26000Y20299D01*
X32664Y14949D01*
X37753Y11631D01*
X46327Y7103D01*
X50838Y5146D01*
X58002Y2788D01*
X59600Y2399D01*
X65000Y1199D01*
X70400Y499D01*
X78700Y-1D01*
Y-39371D01*
X-39370D01*
Y78699D01*
X0D01*
X6771700Y-1D02*
X6780297Y497D01*
X6782600Y799D01*
X6791178Y2494D01*
X6799510Y5143D01*
X6804582Y7286D01*
X6812533Y11571D01*
X6818278Y15422D01*
X6825056Y21001D01*
X6830100Y26099D01*
X6833700Y30299D01*
X6838775Y37698D01*
X6843007Y45609D01*
X6846345Y53936D01*
X6848018Y59707D01*
X6849576Y67607D01*
X6849900Y70499D01*
X6850500Y78699D01*
X6889871D01*
Y-39371D01*
X6771700D01*
Y-1D01*
X78700Y5315048D02*
X70549Y5314711D01*
X62300Y5313348D01*
X54046Y5311152D01*
X46600Y5308248D01*
X39199Y5304461D01*
X37494Y5303424D01*
X29670Y5297928D01*
X29085Y5297466D01*
X22861Y5291885D01*
X20200Y5289048D01*
X14470Y5281964D01*
X13400Y5280448D01*
X8785Y5272555D01*
X5047Y5264211D01*
X2688Y5257047D01*
X2300Y5255448D01*
X649Y5246892D01*
X0Y5239148D01*
X-39370D01*
Y5354418D01*
X78700D01*
Y5315048D01*
X6850500Y5236348D02*
X6850014Y5244944D01*
X6849700Y5247348D01*
X6848006Y5255926D01*
X6845356Y5264258D01*
X6841524Y5272695D01*
X6839271Y5276758D01*
X6834253Y5284134D01*
X6832000Y5286948D01*
X6825683Y5293650D01*
X6820200Y5298448D01*
X6812802Y5303523D01*
X6804891Y5307755D01*
X6796563Y5311093D01*
X6790800Y5312748D01*
X6782243Y5314400D01*
X6774500Y5315048D01*
Y5354418D01*
X6889871D01*
Y5236348D01*
X6850500D01*
X6774500Y2126011D02*
X6782700Y2125217D01*
X6790575Y2123768D01*
X6790800Y2123711D01*
X6796100Y2122211D01*
X6804448Y2118923D01*
X6812384Y2114738D01*
X6820200Y2109411D01*
X6824400Y2105811D01*
X6828400Y2102011D01*
X6832000Y2097911D01*
X6837119Y2091235D01*
X6841422Y2084005D01*
X6843213Y2080293D01*
X6846447Y2072170D01*
X6848746Y2063734D01*
X6849700Y2058311D01*
X6850470Y2048726D01*
X6850500Y2047311D01*
Y1141711D01*
X6849900Y1133511D01*
X6848533Y1124910D01*
X6846500Y1117411D01*
X6843212Y1109064D01*
X6839027Y1101128D01*
X6833700Y1093311D01*
X6830100Y1089111D01*
X6823877Y1082952D01*
X6822200Y1081511D01*
X6815524Y1076393D01*
X6808295Y1072090D01*
X6804582Y1070299D01*
X6796459Y1067065D01*
X6788023Y1064765D01*
X6782600Y1063811D01*
X6773004Y1063040D01*
X6771700Y1063011D01*
X4645700D01*
X4637400Y1063511D01*
X4629183Y1064786D01*
X4621175Y1067023D01*
X4620464Y1067273D01*
X4611475Y1071002D01*
X4604716Y1074552D01*
X4597416Y1079559D01*
X4595022Y1081480D01*
X4588675Y1087503D01*
X4585400Y1091211D01*
X4580282Y1097888D01*
X4575979Y1105117D01*
X4574037Y1109170D01*
X4570851Y1117311D01*
X4568603Y1125759D01*
X4567320Y1134406D01*
X4567000Y1141711D01*
Y2050111D01*
X4567813Y2058920D01*
X4569300Y2066411D01*
X4570800Y2071711D01*
X4574173Y2080210D01*
X4578441Y2088296D01*
X4582654Y2094609D01*
X4583600Y2095811D01*
X4589636Y2102655D01*
X4591000Y2104011D01*
X4598391Y2110235D01*
X4603900Y2114111D01*
X4608700Y2116811D01*
X4617051Y2120644D01*
X4621570Y2122285D01*
X4629300Y2124311D01*
X4637347Y2125653D01*
X4645700Y2126011D01*
X6774500D01*
Y3189024D02*
X6782700Y3188230D01*
X6790575Y3186781D01*
X6790800Y3186724D01*
X6796100Y3185224D01*
X6804448Y3181935D01*
X6812384Y3177751D01*
X6820200Y3172424D01*
X6824400Y3168824D01*
X6828400Y3165024D01*
X6832000Y3160924D01*
X6837119Y3154247D01*
X6841422Y3147018D01*
X6843213Y3143305D01*
X6846447Y3135182D01*
X6848746Y3126747D01*
X6849700Y3121324D01*
X6850470Y3111739D01*
X6850500Y3110324D01*
Y2204724D01*
X6849900Y2196524D01*
X6848533Y2187923D01*
X6846500Y2180424D01*
X6843212Y2172076D01*
X6839027Y2164140D01*
X6833700Y2156324D01*
X6830100Y2152124D01*
X6823877Y2145965D01*
X6822200Y2144524D01*
X6815524Y2139405D01*
X6808295Y2135102D01*
X6804582Y2133311D01*
X6796459Y2130077D01*
X6788023Y2127778D01*
X6782600Y2126824D01*
X6773004Y2126053D01*
X6771700Y2126024D01*
X4645700D01*
X4637400Y2126524D01*
X4629183Y2127799D01*
X4621175Y2130036D01*
X4620464Y2130286D01*
X4611477Y2134014D01*
X4604716Y2137565D01*
X4597417Y2142571D01*
X4595022Y2144493D01*
X4588675Y2150516D01*
X4585400Y2154224D01*
X4580282Y2160900D01*
X4575979Y2168129D01*
X4574037Y2172182D01*
X4570851Y2180323D01*
X4568603Y2188771D01*
X4567320Y2197418D01*
X4567000Y2204724D01*
Y3113124D01*
X4567813Y3121933D01*
X4569300Y3129424D01*
X4570800Y3134724D01*
X4574173Y3143222D01*
X4578441Y3151308D01*
X4582653Y3157621D01*
X4583600Y3158824D01*
X4589636Y3165668D01*
X4591000Y3167024D01*
X4598391Y3173247D01*
X4603900Y3177124D01*
X4608700Y3179824D01*
X4617047Y3183655D01*
X4621570Y3185297D01*
X4629300Y3187324D01*
X4637347Y3188666D01*
X4645700Y3189024D01*
X6774500D01*
Y4252036D02*
X6782700Y4251242D01*
X6790575Y4249793D01*
X6790800Y4249736D01*
X6796100Y4248236D01*
X6804448Y4244947D01*
X6812384Y4240763D01*
X6820200Y4235436D01*
X6824400Y4231836D01*
X6828400Y4228036D01*
X6832000Y4223936D01*
X6837119Y4217260D01*
X6841422Y4210030D01*
X6843213Y4206318D01*
X6846447Y4198194D01*
X6848746Y4189759D01*
X6849700Y4184336D01*
X6850470Y4174751D01*
X6850500Y4173336D01*
Y3267736D01*
X6849900Y3259536D01*
X6848533Y3250935D01*
X6846500Y3243436D01*
X6843212Y3235089D01*
X6839027Y3227153D01*
X6833700Y3219336D01*
X6830100Y3215136D01*
X6823877Y3208977D01*
X6822200Y3207536D01*
X6815524Y3202417D01*
X6808295Y3198114D01*
X6804582Y3196323D01*
X6796459Y3193089D01*
X6788023Y3190790D01*
X6782600Y3189836D01*
X6773004Y3189065D01*
X6771700Y3189036D01*
X4645700D01*
X4637400Y3189536D01*
X4629183Y3190811D01*
X4621175Y3193048D01*
X4620464Y3193298D01*
X4611475Y3197027D01*
X4604716Y3200577D01*
X4597416Y3205584D01*
X4595022Y3207505D01*
X4588675Y3213528D01*
X4585400Y3217236D01*
X4580282Y3223912D01*
X4575979Y3231142D01*
X4574037Y3235195D01*
X4570851Y3243336D01*
X4568603Y3251783D01*
X4567320Y3260431D01*
X4567000Y3267736D01*
Y4176136D01*
X4567813Y4184945D01*
X4569300Y4192436D01*
X4570800Y4197736D01*
X4574173Y4206234D01*
X4578441Y4214320D01*
X4582653Y4220633D01*
X4583600Y4221836D01*
X4589636Y4228680D01*
X4591000Y4230036D01*
X4598391Y4236259D01*
X4603900Y4240136D01*
X4608700Y4242836D01*
X4617051Y4246669D01*
X4621570Y4248310D01*
X4629300Y4250336D01*
X4637347Y4251678D01*
X4645700Y4252036D01*
X6774500D01*
X78700Y2126017D02*
X70549Y2125677D01*
X62300Y2124311D01*
X54046Y2122115D01*
X46600Y2119211D01*
X39199Y2115424D01*
X37494Y2114387D01*
X29669Y2108890D01*
X29085Y2108429D01*
X22861Y2102848D01*
X20200Y2100011D01*
X14848Y2093346D01*
X11531Y2088259D01*
X7005Y2079689D01*
X5047Y2075174D01*
X2347Y2066585D01*
X1677Y2063751D01*
X335Y2055250D01*
X0Y2050111D01*
Y1141711D01*
X463Y1132981D01*
X1905Y1124359D01*
X4309Y1115954D01*
X7036Y1109170D01*
X11162Y1101319D01*
X16134Y1093974D01*
X21891Y1087226D01*
X22000Y1087111D01*
X28428Y1081137D01*
X34600Y1076511D01*
X42493Y1071896D01*
X50838Y1068158D01*
X59604Y1065378D01*
X67792Y1063805D01*
X70400Y1063511D01*
X78700Y1063011D01*
X2204700D01*
X2215600Y1063811D01*
X2224178Y1065506D01*
X2232510Y1068155D01*
X2237582Y1070299D01*
X2245660Y1074644D01*
X2249046Y1076818D01*
X2255979Y1082099D01*
X2259300Y1085111D01*
X2265271Y1091536D01*
X2266700Y1093311D01*
X2271775Y1100710D01*
X2276007Y1108621D01*
X2279345Y1116948D01*
X2281000Y1122711D01*
X2282624Y1131160D01*
X2282900Y1133511D01*
X2283500Y1141711D01*
Y2047311D01*
X2282700Y2058311D01*
X2281006Y2066889D01*
X2278356Y2075221D01*
X2276213Y2080293D01*
X2271929Y2088244D01*
X2268077Y2093989D01*
X2262498Y2100767D01*
X2257400Y2105811D01*
X2253200Y2109411D01*
X2245802Y2114486D01*
X2237891Y2118718D01*
X2229563Y2122056D01*
X2221135Y2124312D01*
X2212851Y2125662D01*
X2207500Y2126011D01*
X76124Y2126095D01*
X70400Y2126524D01*
X61764Y2127903D01*
X54300Y2129924D01*
X45802Y2133296D01*
X37716Y2137565D01*
X30417Y2142571D01*
X28022Y2144493D01*
X21675Y2150516D01*
X18400Y2154224D01*
X13281Y2160900D01*
X8979Y2168130D01*
X7036Y2172182D01*
X3851Y2180323D01*
X1603Y2188771D01*
X320Y2197418D01*
X0Y2204724D01*
Y3113124D01*
X813Y3121933D01*
X2300Y3129424D01*
X3800Y3134724D01*
X7173Y3143222D01*
X11441Y3151308D01*
X15653Y3157621D01*
X16600Y3158824D01*
X22636Y3165668D01*
X24000Y3167024D01*
X31391Y3173247D01*
X36900Y3177124D01*
X41700Y3179824D01*
X50048Y3183655D01*
X54569Y3185297D01*
X62300Y3187324D01*
X70347Y3188666D01*
X78700Y3189024D01*
X2207500D01*
X2216309Y3188211D01*
X2223800Y3186724D01*
X2229100Y3185224D01*
X2237447Y3181935D01*
X2245384Y3177751D01*
X2253200Y3172424D01*
X2257400Y3168824D01*
X2261400Y3165024D01*
X2265000Y3160924D01*
X2270119Y3154247D01*
X2274422Y3147018D01*
X2276213Y3143305D01*
X2279447Y3135182D01*
X2281746Y3126747D01*
X2282700Y3121324D01*
X2283470Y3111739D01*
X2283500Y3110324D01*
Y2204724D01*
X2282900Y2196524D01*
X2281533Y2187923D01*
X2279500Y2180424D01*
X2276212Y2172076D01*
X2272027Y2164140D01*
X2266700Y2156324D01*
X2263100Y2152124D01*
X2256877Y2145965D01*
X2255200Y2144524D01*
X2248524Y2139405D01*
X2241294Y2135102D01*
X2237582Y2133311D01*
X2229459Y2130077D01*
X2221023Y2127778D01*
X2215600Y2126824D01*
X2206004Y2126053D01*
X2204700Y2126024D01*
X78700Y2126017D01*
X-196850Y5492214D02*
Y-177166D01*
X-196359Y-181537D01*
X-194909Y-185690D01*
X-192573Y-189417D01*
X-189468Y-192533D01*
X-185749Y-194881D01*
X-181601Y-196345D01*
X-177232Y-196851D01*
X7027733D01*
X7032102Y-196345D01*
X7036250Y-194881D01*
X7039969Y-192533D01*
X7043074Y-189417D01*
X7045410Y-185690D01*
X7046859Y-181537D01*
X7047351Y-177166D01*
Y5492280D01*
X7046844Y5496650D01*
X7045381Y5500798D01*
X7043032Y5504517D01*
X7039917Y5507622D01*
X7036190Y5509957D01*
X7032037Y5511407D01*
X7027666Y5511899D01*
X-177165D01*
X-181536Y5511407D01*
X-185689Y5509957D01*
X-189416Y5507622D01*
X-192532Y5504517D01*
X-194880Y5500798D01*
X-196344Y5496650D01*
X-196850Y5492280D01*
Y5492214D01*
X0Y4162641D02*
X-59055D01*
Y4330748D01*
X0D01*
X463Y4322018D01*
X1905Y4313396D01*
X4309Y4304991D01*
X7036Y4298207D01*
X11162Y4290356D01*
X16134Y4283011D01*
X21891Y4276263D01*
X22000Y4276148D01*
X28428Y4270174D01*
X34600Y4265548D01*
X42493Y4260933D01*
X50838Y4257195D01*
X59604Y4254415D01*
X67792Y4252842D01*
X70400Y4252548D01*
X76124Y4252119D01*
X2207500Y4252036D01*
X2216310Y4251223D01*
X2223800Y4249736D01*
X2229100Y4248236D01*
X2237447Y4244947D01*
X2245384Y4240763D01*
X2253200Y4235436D01*
X2257400Y4231836D01*
X2261400Y4228036D01*
X2265000Y4223936D01*
X2270119Y4217260D01*
X2274422Y4210030D01*
X2276213Y4206318D01*
X2279447Y4198194D01*
X2281746Y4189759D01*
X2282700Y4184336D01*
X2283470Y4174751D01*
X2283500Y4173336D01*
Y3267736D01*
X2282900Y3259536D01*
X2281533Y3250935D01*
X2279500Y3243436D01*
X2276212Y3235089D01*
X2272027Y3227153D01*
X2266700Y3219336D01*
X2263100Y3215136D01*
X2256877Y3208977D01*
X2255200Y3207536D01*
X2248524Y3202417D01*
X2241294Y3198114D01*
X2237582Y3196323D01*
X2229459Y3193089D01*
X2221023Y3190790D01*
X2215600Y3189836D01*
X2206004Y3189065D01*
X2204700Y3189036D01*
X78700D01*
X70400Y3189536D01*
X62183Y3190811D01*
X54175Y3193048D01*
X53464Y3193298D01*
X44475Y3197027D01*
X37716Y3200577D01*
X30416Y3205584D01*
X28022Y3207505D01*
X21675Y3213528D01*
X18400Y3217236D01*
X13281Y3223912D01*
X8979Y3231142D01*
X7036Y3235195D01*
X3851Y3243336D01*
X1603Y3251783D01*
X320Y3260431D01*
X0Y3267736D01*
Y4176136D01*
X813Y4184945D01*
X2300Y4192436D01*
X3800Y4197736D01*
X7173Y4206235D01*
X11441Y4214321D01*
X15654Y4220634D01*
X16600Y4221836D01*
X22636Y4228680D01*
X24000Y4230036D01*
X31391Y4236259D01*
X36900Y4240136D01*
X41700Y4242836D01*
X50052Y4246669D01*
X54569Y4248310D01*
X62300Y4250336D01*
X70347Y4251681D01*
X78700Y4252042D01*
X2204700Y4252048D01*
X2215600Y4252848D01*
X2224178Y4254543D01*
X2232510Y4257192D01*
X2237582Y4259336D01*
X2245535Y4263622D01*
X2251277Y4267472D01*
X2258055Y4273050D01*
X2263100Y4278148D01*
X2266700Y4282348D01*
X2271775Y4289747D01*
X2276007Y4297658D01*
X2279345Y4305985D01*
X2281018Y4311756D01*
X2282576Y4319656D01*
X2282900Y4322548D01*
X2283500Y4330748D01*
X2283963Y4322018D01*
X2285405Y4313396D01*
X2287809Y4304991D01*
X2290537Y4298207D01*
X2294663Y4290355D01*
X2299636Y4283009D01*
X2305393Y4276260D01*
X2305500Y4276148D01*
X2311928Y4270174D01*
X2318100Y4265548D01*
X2325994Y4260933D01*
X2334338Y4257195D01*
X2343104Y4254415D01*
X2351292Y4252842D01*
X2353900Y4252548D01*
X2362200Y4252048D01*
X4488200D01*
X4499100Y4252848D01*
X4507678Y4254543D01*
X4516010Y4257192D01*
X4521082Y4259336D01*
X4529035Y4263622D01*
X4534777Y4267472D01*
X4541555Y4273050D01*
X4546600Y4278148D01*
X4550200Y4282348D01*
X4555275Y4289747D01*
X4559507Y4297658D01*
X4562845Y4305985D01*
X4564518Y4311756D01*
X4566076Y4319656D01*
X4566400Y4322548D01*
X4567000Y4330748D01*
X4567463Y4322018D01*
X4568905Y4313396D01*
X4571309Y4304991D01*
X4574037Y4298207D01*
X4578163Y4290355D01*
X4583136Y4283009D01*
X4588893Y4276260D01*
X4589000Y4276148D01*
X4595428Y4270174D01*
X4601600Y4265548D01*
X4609494Y4260933D01*
X4617838Y4257195D01*
X4626604Y4254415D01*
X4634792Y4252842D01*
X4637400Y4252548D01*
X4645700Y4252048D01*
X6771700D01*
X6782600Y4252848D01*
X6791178Y4254543D01*
X6799510Y4257192D01*
X6804582Y4259336D01*
X6812660Y4263681D01*
X6816046Y4265855D01*
X6822979Y4271136D01*
X6826300Y4274148D01*
X6832271Y4280573D01*
X6833700Y4282348D01*
X6838775Y4289747D01*
X6843007Y4297658D01*
X6846345Y4305985D01*
X6848000Y4311748D01*
X6849624Y4320197D01*
X6849900Y4322548D01*
X6850500Y4330748D01*
Y5236469D01*
X0Y78157D02*
Y987099D01*
X813Y995908D01*
X2300Y1003399D01*
X3800Y1008699D01*
X7173Y1017198D01*
X11441Y1025284D01*
X15654Y1031597D01*
X16600Y1032799D01*
X22636Y1039643D01*
X24000Y1040999D01*
X31391Y1047222D01*
X36900Y1051099D01*
X41700Y1053799D01*
X50052Y1057632D01*
X54569Y1059273D01*
X62300Y1061299D01*
X70347Y1062641D01*
X78700Y1062999D01*
X2207500D01*
X2216309Y1062186D01*
X2223800Y1060699D01*
X2229100Y1059199D01*
X2237447Y1055911D01*
X2245384Y1051726D01*
X2253200Y1046399D01*
X2257400Y1042799D01*
X2261400Y1038999D01*
X2265000Y1034899D01*
X2270119Y1028223D01*
X2274422Y1020993D01*
X2276213Y1017281D01*
X2279447Y1009158D01*
X2281746Y1000722D01*
X2282700Y995299D01*
X2283470Y985714D01*
X2283500Y984299D01*
Y78158D01*
X2284024Y69431D01*
X2285526Y60819D01*
X2287989Y52432D01*
X2290537Y46158D01*
X2294695Y38272D01*
X2299699Y30894D01*
X2305487Y24113D01*
X2305500Y24099D01*
X2311928Y18125D01*
X2318100Y13499D01*
X2325994Y8884D01*
X2334338Y5146D01*
X2343104Y2366D01*
X2351293Y793D01*
X2353900Y499D01*
X2362200Y-1D01*
X4488200D01*
X4499100Y799D01*
X4507678Y2494D01*
X4516010Y5143D01*
X4521082Y7286D01*
X4529033Y11571D01*
X4534778Y15422D01*
X4541556Y21001D01*
X4546600Y26099D01*
X4550200Y30299D01*
X4555275Y37698D01*
X4559507Y45609D01*
X4562845Y53936D01*
X4564518Y59707D01*
X4566076Y67607D01*
X4566400Y70499D01*
X4567000Y78699D01*
X4567463Y69969D01*
X4568905Y61347D01*
X4571309Y52942D01*
X4574037Y46158D01*
X4578163Y38306D01*
X4583135Y30961D01*
X4588892Y24213D01*
X4589000Y24099D01*
X4595428Y18125D01*
X4601600Y13499D01*
X4609494Y8884D01*
X4617838Y5146D01*
X4626604Y2366D01*
X4634793Y793D01*
X4637400Y499D01*
X4645700Y-1D01*
X6771700D01*
X2283500Y78699D02*
X2282900Y70499D01*
X2281533Y61898D01*
X2279500Y54399D01*
X2276212Y46052D01*
X2272027Y38116D01*
X2266700Y30299D01*
X2263100Y26099D01*
X2256877Y19940D01*
X2255200Y18499D01*
X2248524Y13380D01*
X2241294Y9078D01*
X2237582Y7286D01*
X2229459Y4052D01*
X2221023Y1753D01*
X2215600Y799D01*
X2206004Y28D01*
X2204700Y-1D01*
Y-58976D01*
X2362200D01*
Y-1D01*
X4645700D02*
Y-58976D01*
X4488200D01*
Y-1D01*
X0Y973665D02*
X-59055D01*
Y1141711D01*
X0D01*
Y2036657D02*
X-59055D01*
Y2204724D01*
X0D01*
Y3099649D02*
X-59055D01*
Y3267736D01*
X0D01*
X6850500Y2036657D02*
X6909484D01*
Y2204724D01*
X6850500D01*
Y3099649D02*
X6909484D01*
Y3267736D01*
X6850500D01*
Y4162641D02*
X6909484D01*
Y4330748D01*
X6850500D01*
X2283500D02*
Y5236348D01*
X2282700Y5247348D01*
X2281006Y5255926D01*
X2278356Y5264258D01*
X2276213Y5269330D01*
X2271929Y5277281D01*
X2268077Y5283026D01*
X2262498Y5289804D01*
X2257400Y5294848D01*
X2253200Y5298448D01*
X2245802Y5303523D01*
X2237891Y5307755D01*
X2229563Y5311093D01*
X2221135Y5313349D01*
X2212851Y5314699D01*
X2207500Y5315048D01*
X76119D01*
X2204700D02*
Y5374103D01*
X2362200D01*
Y5315048D01*
X4491000D01*
X4499200Y5314254D01*
X4507075Y5312805D01*
X4507300Y5312748D01*
X4512600Y5311248D01*
X4520948Y5307960D01*
X4528884Y5303775D01*
X4536700Y5298448D01*
X4540900Y5294848D01*
X4544900Y5291048D01*
X4548500Y5286948D01*
X4553619Y5280272D01*
X4557922Y5273042D01*
X4559713Y5269330D01*
X4562947Y5261207D01*
X4565246Y5252771D01*
X4566200Y5247348D01*
X4566963Y5238772D01*
X4567000Y5236348D01*
X4488165Y5315048D02*
Y5374103D01*
X4645700D01*
Y5315048D01*
X4637549Y5314711D01*
X4629300Y5313348D01*
X4621046Y5311152D01*
X4613600Y5308248D01*
X4606201Y5304462D01*
X4604494Y5303424D01*
X4596668Y5297926D01*
X4596086Y5297466D01*
X4589860Y5291884D01*
X4587200Y5289048D01*
X4581848Y5282383D01*
X4578531Y5277296D01*
X4574005Y5268726D01*
X4572047Y5264211D01*
X4569347Y5255622D01*
X4568677Y5252788D01*
X4567335Y5244287D01*
X4567000Y5239148D01*
Y4330748D01*
X2283500Y5239148D02*
X2284294Y5247349D01*
X2285744Y5255223D01*
X2285800Y5255448D01*
X2287300Y5260748D01*
X2290673Y5269247D01*
X2294941Y5277333D01*
X2299154Y5283646D01*
X2300100Y5284848D01*
X2306136Y5291692D01*
X2307500Y5293048D01*
X2314891Y5299272D01*
X2320400Y5303148D01*
X2325200Y5305848D01*
X2333552Y5309681D01*
X2338069Y5311322D01*
X2345800Y5313348D01*
X2353847Y5314690D01*
X2362200Y5315048D01*
X6850500Y78699D02*
Y984299D01*
X6849939Y993189D01*
X6848399Y1001963D01*
X6845899Y1010512D01*
X6843600Y1016293D01*
X6839588Y1024130D01*
X6834725Y1031468D01*
X6829071Y1038217D01*
X6824400Y1042799D01*
X6819813Y1046696D01*
X6812384Y1051726D01*
X6804448Y1055911D01*
X6796100Y1059199D01*
X6787782Y1061440D01*
X6779262Y1062715D01*
X6774500Y1062999D01*
X4645700D01*
X4637227Y1062591D01*
X4629290Y1061298D01*
X4620487Y1058856D01*
X4613600Y1056199D01*
X4606000Y1052333D01*
X4599415Y1048001D01*
X4592208Y1042012D01*
X4587200Y1036999D01*
X4581645Y1030109D01*
X4578441Y1025284D01*
X4574173Y1017198D01*
X4570800Y1008699D01*
X4568560Y1000381D01*
X4567284Y991861D01*
X4567000Y987099D01*
Y78158D01*
X6850500Y973665D02*
X6909484D01*
Y1141711D01*
X6850500D01*
X2283500Y987099D02*
X2284294Y995300D01*
X2285744Y1003174D01*
X2285800Y1003399D01*
X2287300Y1008699D01*
X2290673Y1017198D01*
X2294941Y1025284D01*
X2299154Y1031597D01*
X2300100Y1032799D01*
X2306136Y1039643D01*
X2307500Y1040999D01*
X2314891Y1047222D01*
X2320400Y1051099D01*
X2325200Y1053799D01*
X2333552Y1057632D01*
X2338069Y1059273D01*
X2345800Y1061299D01*
X2353847Y1062641D01*
X2362200Y1062999D01*
X4491000D01*
X4499809Y1062186D01*
X4507300Y1060699D01*
X4512600Y1059199D01*
X4520948Y1055911D01*
X4528884Y1051726D01*
X4536700Y1046399D01*
X4540900Y1042799D01*
X4544900Y1038999D01*
X4548500Y1034899D01*
X4553619Y1028223D01*
X4557922Y1020993D01*
X4559713Y1017281D01*
X4562947Y1009158D01*
X4565246Y1000722D01*
X4566200Y995299D01*
X4566963Y986723D01*
X4567000Y984299D01*
X-39370Y-1D02*
X-196850D01*
X2283500Y-58976D02*
Y-196851D01*
X6850500Y-39371D02*
Y-196851D01*
X0Y5354418D02*
Y5511899D01*
X6889871Y5315048D02*
X7047351D01*
X2283500Y5374103D02*
Y5511899D01*
X4567000Y5374103D02*
Y5511899D01*
X-39370Y5315048D02*
X-196850D01*
X0Y-39371D02*
Y-196851D01*
X2204700Y-1D02*
X78700D01*
X-196850Y1062999D02*
X-59055D01*
X-196850Y2126011D02*
X-59055D01*
X-196850Y3189024D02*
X-59055D01*
X-196850Y4252036D02*
X-59055D01*
X0Y5239148D02*
Y4330748D01*
X6850500Y5511899D02*
Y5354418D01*
X4645700Y5315048D02*
X6774500D01*
X6909484Y4252036D02*
X7047351D01*
X6909484Y3189024D02*
X7047351D01*
X6909484Y2126011D02*
X7047351D01*
X6909484Y1062999D02*
X7047351D01*
Y-1D02*
X6889871D01*
X4567000Y-58976D02*
Y-196851D01*
M02*
