*
%FSLAX36Y36*%
%MOIN*%
%ADD10C,0.003937*%
%IPPOS*%
%LNrout*%
%LPD*%
G75*
G54D10*
X0Y0D02*
Y1117980D01*
X439000D01*
Y1625980D01*
X2080000D01*
Y1117980D01*
X2519680D01*
Y459170D01*
X2953930D01*
Y0D01*
X0D01*
Y1625980D02*
Y2743960D01*
X439000D01*
Y3251960D01*
X2080000D01*
Y2743960D01*
X2519680D01*
Y2085150D01*
X2953930D01*
Y1625980D01*
X0D01*
Y3251961D02*
Y4369941D01*
X439000D01*
Y4877941D01*
X2080000D01*
Y4369941D01*
X2519680D01*
Y3711131D01*
X2953930D01*
Y3251961D01*
X0D01*
Y4877941D02*
Y5995921D01*
X439000D01*
Y6503921D01*
X2080000D01*
Y5995921D01*
X2519680D01*
Y5337111D01*
X2953930D01*
Y4877941D01*
X0D01*
X2953929Y0D02*
Y1117980D01*
X3392929D01*
Y1625980D01*
X5033929D01*
Y1117980D01*
X5473609D01*
Y459170D01*
X5907859D01*
Y0D01*
X2953929D01*
Y1625980D02*
Y2743960D01*
X3392929D01*
Y3251960D01*
X5033929D01*
Y2743960D01*
X5473609D01*
Y2085150D01*
X5907859D01*
Y1625980D01*
X2953929D01*
Y3251961D02*
Y4369941D01*
X3392929D01*
Y4877941D01*
X5033929D01*
Y4369941D01*
X5473609D01*
Y3711131D01*
X5907859D01*
Y3251961D01*
X2953929D01*
Y4877941D02*
Y5995921D01*
X3392929D01*
Y6503921D01*
X5033929D01*
Y5995921D01*
X5473609D01*
Y5337111D01*
X5907859D01*
Y4877941D01*
X2953929D01*
X5907858Y0D02*
Y1117980D01*
X6346858D01*
Y1625980D01*
X7987858D01*
Y1117980D01*
X8427538D01*
Y459170D01*
X8861788D01*
Y0D01*
X5907858D01*
Y1625980D02*
Y2743960D01*
X6346858D01*
Y3251960D01*
X7987858D01*
Y2743960D01*
X8427538D01*
Y2085150D01*
X8861788D01*
Y1625980D01*
X5907858D01*
Y3251961D02*
Y4369941D01*
X6346858D01*
Y4877941D01*
X7987858D01*
Y4369941D01*
X8427538D01*
Y3711131D01*
X8861788D01*
Y3251961D01*
X5907858D01*
Y4877941D02*
Y5995921D01*
X6346858D01*
Y6503921D01*
X7987858D01*
Y5995921D01*
X8427538D01*
Y5337111D01*
X8861788D01*
Y4877941D01*
X5907858D01*
X0Y0D02*
Y1117980D01*
X439000D01*
Y1625980D01*
X2080000D01*
Y1117980D01*
X2519680D01*
Y459170D01*
X2953930D01*
Y-314961D01*
Y0D02*
X-314961D01*
X0Y1625980D02*
Y2743960D01*
X439000D01*
Y3251960D01*
X2080000D01*
Y2743960D01*
X2519680D01*
Y2085150D01*
X2953930D01*
Y1625980D01*
X-314961D01*
X0Y3251961D02*
Y4369941D01*
X439000D01*
Y4877941D01*
X2080000D02*
Y4369941D01*
X2519680D01*
Y3711131D01*
X2953930D01*
Y3251961D01*
X-314961D01*
X0Y4877941D02*
Y5995921D01*
X439000D01*
Y6503921D01*
X2080000D01*
Y5995921D01*
X2519680D01*
Y5337111D01*
X2953930D01*
Y4877941D01*
X-314961D01*
X2953929Y0D02*
Y1117980D01*
X3392929D01*
Y1625980D01*
X5033929D01*
Y1117980D01*
X5473609D01*
Y459170D01*
X5907859D01*
Y-314961D01*
Y0D02*
X2953929D01*
Y1625980D02*
Y2743960D01*
X3392929D01*
Y3251960D01*
X5033929D01*
Y2743960D01*
X5473609D01*
Y2085150D01*
X5907859D01*
Y1625980D01*
X2953929D01*
Y3251961D02*
Y4369941D01*
X3392929D01*
Y4877941D01*
X5033929D01*
Y4369941D01*
X5473609D01*
Y3711131D01*
X5907859D01*
Y3251961D01*
X2953929D01*
Y4877941D02*
Y5995921D01*
X3392929D01*
Y6503921D01*
X5033929D01*
Y5995921D01*
X5473609D01*
Y5337111D01*
X5907859D01*
Y4877941D01*
X2953929D01*
X5907858Y0D02*
Y1117980D01*
X6346858D01*
Y1625980D01*
X7987858D01*
Y1117980D01*
X8427538D01*
Y459170D01*
X8861788D01*
Y0D01*
X9176749D02*
X5907858D01*
Y1625980D02*
Y2743960D01*
X6346858D01*
Y3251960D01*
X7987858D01*
Y2743960D01*
X8427538D01*
Y2085150D01*
X8861788D01*
Y1625980D01*
X9176749D02*
X5907858D01*
Y3251961D02*
Y4369941D01*
X6346858D01*
Y4877941D01*
X7987858D01*
Y4369941D01*
X8427538D01*
Y3711131D01*
X8861788D01*
Y3251961D01*
X9176749D02*
X5907858D01*
Y4877941D02*
Y5995921D01*
X6346858D01*
Y6503921D01*
X7987858D01*
Y5995921D01*
X8427538D01*
Y5337111D01*
X8861788D01*
Y4877941D01*
X9176749D02*
X5907858D01*
X0Y6543291D02*
Y6818882D01*
X8861788D01*
Y6543291D01*
X9176749Y6503921D02*
X8901158D01*
X0Y-314961D02*
Y0D01*
X8861788D01*
Y-314961D01*
X0D01*
X-314961Y-196850D02*
Y6700771D01*
X-196850Y6818882D02*
X0D01*
Y6543291D01*
Y-314961D02*
X-196850D01*
X8861788D02*
Y459170D01*
Y6818882D02*
X9058639D01*
X9176749Y6700771D02*
Y-196850D01*
X9058639Y-314961D02*
X8861788D01*
X8901158Y6543291D02*
X7987858D01*
X-39370D02*
Y5995921D01*
X439000Y6503921D02*
Y6543291D01*
X2080000Y6503921D02*
Y6543291D01*
X0Y5995921D02*
X-39370D01*
X8861788Y5337111D02*
X8901158D01*
X3392929Y6503921D02*
Y6543291D01*
X5033929Y6503921D02*
Y6543291D01*
X6346858Y6503921D02*
Y6543291D01*
X7987858Y6503921D02*
Y6543291D01*
X0Y4369941D02*
X-39370D01*
X8861788Y3711131D02*
X8901158D01*
X0Y2743960D02*
X-39370D01*
X8861788Y2085150D02*
X8901158D01*
X0Y1117980D02*
X-39370D01*
X8861788Y459170D02*
X8901158D01*
X439000Y6543291D02*
X-39370D01*
Y4877941D02*
Y4369941D01*
Y6503921D02*
X-314961D01*
X0Y6818882D02*
Y6543291D01*
Y6818882D02*
Y6543291D01*
Y6818882D02*
Y6543291D01*
Y6818882D02*
Y6543291D01*
Y6818882D02*
Y6543291D01*
Y5995921D02*
Y4877941D01*
X2953929Y6543291D02*
Y6818882D01*
X2080000Y6503921D02*
X439000D01*
X3392929Y6543291D02*
X2080000D01*
X5033929Y6503921D02*
X3392929D01*
X5907858Y6543291D02*
Y6818882D01*
X6346858Y6543291D02*
X5033929D01*
X7987858Y6503921D02*
X6346858D01*
X8861788Y6543291D02*
Y6818882D01*
X8901158Y5337111D02*
Y6543291D01*
X8861788Y4877941D02*
Y5337111D01*
X8901158Y3711131D02*
Y4877941D01*
X8861788Y3251961D02*
Y3711131D01*
X8901158Y2085150D02*
Y3251961D01*
X8861788Y1625980D02*
Y2085150D01*
X8901158Y459170D02*
Y1625980D01*
X-39370Y3251961D02*
Y2743960D01*
X0Y4369941D02*
Y3251961D01*
Y2743960D02*
Y1625980D01*
X-39370D02*
Y1117980D01*
X0D02*
Y-314961D01*
X-314961Y6700771D02*
X-196850Y6818882D01*
X9058639D02*
X9176749Y6700771D01*
X9058639Y-314961D02*
X9176749Y-196850D01*
X-314961D02*
X-196850Y-314961D01*
M02*
