G04 (created by PCBNEW (2013-07-07 BZR 4022)-stable) date 13/11/2015 09:02:40*
%MOIN*%
G04 Gerber Fmt 3.4, Leading zero omitted, Abs format*
%FSLAX34Y34*%
G01*
G70*
G90*
G04 APERTURE LIST*
%ADD10C,0.00590551*%
%ADD11C,0.00393701*%
%ADD12C,0.01*%
G04 APERTURE END LIST*
G54D10*
G54D11*
X48612Y-15500D02*
G75*
G03X48612Y-15500I-1312J0D01*
G74*
G01*
X45331Y-15500D02*
X49268Y-15500D01*
X47300Y-13531D02*
X47300Y-17468D01*
X49612Y-90500D02*
G75*
G03X49612Y-90500I-1312J0D01*
G74*
G01*
X46331Y-90500D02*
X50268Y-90500D01*
X48300Y-88531D02*
X48300Y-92468D01*
X147512Y-53200D02*
G75*
G03X147512Y-53200I-1312J0D01*
G74*
G01*
X144231Y-53200D02*
X148168Y-53200D01*
X146200Y-51231D02*
X146200Y-55168D01*
X140300Y-9000D02*
X140300Y-99300D01*
X139510Y-8210D02*
X140300Y-9000D01*
X53680Y-8210D02*
X139510Y-8210D01*
X53680Y-100080D02*
X53680Y-8210D01*
X139510Y-100080D02*
X53680Y-100080D01*
X140300Y-99290D02*
X139510Y-100080D01*
G54D10*
G36*
X68950Y-70979D02*
X67950Y-71979D01*
X67950Y-74450D01*
X67550Y-74450D01*
X67550Y-71770D01*
X68550Y-70770D01*
X68550Y-66979D01*
X68020Y-66450D01*
X63550Y-66450D01*
X63550Y-66050D01*
X68229Y-66050D01*
X68950Y-66770D01*
X68950Y-70979D01*
X68950Y-70979D01*
G37*
G54D12*
X68950Y-70979D02*
X67950Y-71979D01*
X67950Y-74450D01*
X67550Y-74450D01*
X67550Y-71770D01*
X68550Y-70770D01*
X68550Y-66979D01*
X68020Y-66450D01*
X63550Y-66450D01*
X63550Y-66050D01*
X68229Y-66050D01*
X68950Y-66770D01*
X68950Y-70979D01*
G54D10*
G36*
X62450Y-74079D02*
X61579Y-74950D01*
X57750Y-74950D01*
X57750Y-74550D01*
X61220Y-74550D01*
X62050Y-73720D01*
X62050Y-71550D01*
X62250Y-71550D01*
X62450Y-71550D01*
X62450Y-74079D01*
X62450Y-74079D01*
G37*
G54D12*
X62450Y-74079D02*
X61579Y-74950D01*
X57750Y-74950D01*
X57750Y-74550D01*
X61220Y-74550D01*
X62050Y-73720D01*
X62050Y-71550D01*
X62250Y-71550D01*
X62450Y-71550D01*
X62450Y-74079D01*
G54D10*
G36*
X69142Y-60361D02*
X67922Y-61581D01*
X63492Y-61581D01*
X63492Y-61181D01*
X67713Y-61181D01*
X68742Y-60152D01*
X68742Y-54111D01*
X67713Y-53081D01*
X63492Y-53081D01*
X63492Y-52681D01*
X67922Y-52681D01*
X69142Y-53902D01*
X69142Y-60361D01*
X69142Y-60361D01*
G37*
G54D12*
X69142Y-60361D02*
X67922Y-61581D01*
X63492Y-61581D01*
X63492Y-61181D01*
X67713Y-61181D01*
X68742Y-60152D01*
X68742Y-54111D01*
X67713Y-53081D01*
X63492Y-53081D01*
X63492Y-52681D01*
X67922Y-52681D01*
X69142Y-53902D01*
X69142Y-60361D01*
G54D10*
G36*
X72400Y-50829D02*
X72392Y-50836D01*
X72392Y-50861D01*
X71550Y-51704D01*
X71550Y-73350D01*
X71150Y-73350D01*
X71150Y-51700D01*
X71150Y-51620D01*
X72000Y-50770D01*
X72000Y-34300D01*
X72400Y-34300D01*
X72400Y-50829D01*
X72400Y-50829D01*
G37*
G54D12*
X72400Y-50829D02*
X72392Y-50836D01*
X72392Y-50861D01*
X71550Y-51704D01*
X71550Y-73350D01*
X71150Y-73350D01*
X71150Y-51700D01*
X71150Y-51620D01*
X72000Y-50770D01*
X72000Y-34300D01*
X72400Y-34300D01*
X72400Y-50829D01*
G54D10*
G36*
X69200Y-47229D02*
X67979Y-48450D01*
X63550Y-48450D01*
X63550Y-48050D01*
X67770Y-48050D01*
X68800Y-47020D01*
X68800Y-45479D01*
X67770Y-44450D01*
X67020Y-44450D01*
X66100Y-43529D01*
X66100Y-41529D01*
X65550Y-40979D01*
X65550Y-34300D01*
X65950Y-34300D01*
X65950Y-40770D01*
X66500Y-41320D01*
X66500Y-43320D01*
X67229Y-44050D01*
X67979Y-44050D01*
X69200Y-45270D01*
X69200Y-47229D01*
X69200Y-47229D01*
G37*
G54D12*
X69200Y-47229D02*
X67979Y-48450D01*
X63550Y-48450D01*
X63550Y-48050D01*
X67770Y-48050D01*
X68800Y-47020D01*
X68800Y-45479D01*
X67770Y-44450D01*
X67020Y-44450D01*
X66100Y-43529D01*
X66100Y-41529D01*
X65550Y-40979D01*
X65550Y-34300D01*
X65950Y-34300D01*
X65950Y-40770D01*
X66500Y-41320D01*
X66500Y-43320D01*
X67229Y-44050D01*
X67979Y-44050D01*
X69200Y-45270D01*
X69200Y-47229D01*
G54D10*
G36*
X122200Y-70979D02*
X121200Y-71979D01*
X121200Y-74450D01*
X120800Y-74450D01*
X120800Y-71770D01*
X121800Y-70770D01*
X121800Y-66979D01*
X121270Y-66450D01*
X116800Y-66450D01*
X116800Y-66050D01*
X121479Y-66050D01*
X122200Y-66770D01*
X122200Y-70979D01*
X122200Y-70979D01*
G37*
G54D12*
X122200Y-70979D02*
X121200Y-71979D01*
X121200Y-74450D01*
X120800Y-74450D01*
X120800Y-71770D01*
X121800Y-70770D01*
X121800Y-66979D01*
X121270Y-66450D01*
X116800Y-66450D01*
X116800Y-66050D01*
X121479Y-66050D01*
X122200Y-66770D01*
X122200Y-70979D01*
G54D10*
G36*
X115650Y-73779D02*
X114479Y-74950D01*
X111050Y-74950D01*
X111050Y-74750D01*
X111050Y-74550D01*
X114420Y-74550D01*
X115250Y-73720D01*
X115250Y-71550D01*
X115500Y-71550D01*
X115650Y-71550D01*
X115650Y-73779D01*
X115650Y-73779D01*
G37*
G54D12*
X115650Y-73779D02*
X114479Y-74950D01*
X111050Y-74950D01*
X111050Y-74750D01*
X111050Y-74550D01*
X114420Y-74550D01*
X115250Y-73720D01*
X115250Y-71550D01*
X115500Y-71550D01*
X115650Y-71550D01*
X115650Y-73779D01*
G54D10*
G36*
X122392Y-60361D02*
X121172Y-61581D01*
X116742Y-61581D01*
X116742Y-61181D01*
X120963Y-61181D01*
X121992Y-60152D01*
X121992Y-54111D01*
X120963Y-53081D01*
X116742Y-53081D01*
X116742Y-52681D01*
X121172Y-52681D01*
X122392Y-53902D01*
X122392Y-60361D01*
X122392Y-60361D01*
G37*
G54D12*
X122392Y-60361D02*
X121172Y-61581D01*
X116742Y-61581D01*
X116742Y-61181D01*
X120963Y-61181D01*
X121992Y-60152D01*
X121992Y-54111D01*
X120963Y-53081D01*
X116742Y-53081D01*
X116742Y-52681D01*
X121172Y-52681D01*
X122392Y-53902D01*
X122392Y-60361D01*
G54D10*
G36*
X122450Y-47229D02*
X121229Y-48450D01*
X116800Y-48450D01*
X116800Y-48050D01*
X121020Y-48050D01*
X122050Y-47020D01*
X122050Y-45479D01*
X121020Y-44450D01*
X120270Y-44450D01*
X119350Y-43529D01*
X119350Y-41529D01*
X118800Y-40979D01*
X118800Y-34300D01*
X119200Y-34300D01*
X119200Y-40770D01*
X119750Y-41320D01*
X119750Y-43320D01*
X120479Y-44050D01*
X121229Y-44050D01*
X122450Y-45270D01*
X122450Y-47229D01*
X122450Y-47229D01*
G37*
G54D12*
X122450Y-47229D02*
X121229Y-48450D01*
X116800Y-48450D01*
X116800Y-48050D01*
X121020Y-48050D01*
X122050Y-47020D01*
X122050Y-45479D01*
X121020Y-44450D01*
X120270Y-44450D01*
X119350Y-43529D01*
X119350Y-41529D01*
X118800Y-40979D01*
X118800Y-34300D01*
X119200Y-34300D01*
X119200Y-40770D01*
X119750Y-41320D01*
X119750Y-43320D01*
X120479Y-44050D01*
X121229Y-44050D01*
X122450Y-45270D01*
X122450Y-47229D01*
G54D10*
G36*
X104450Y-70979D02*
X103450Y-71979D01*
X103450Y-74450D01*
X103050Y-74450D01*
X103050Y-71770D01*
X104050Y-70770D01*
X104050Y-66979D01*
X103520Y-66450D01*
X99050Y-66450D01*
X99050Y-66050D01*
X103729Y-66050D01*
X104450Y-66770D01*
X104450Y-70979D01*
X104450Y-70979D01*
G37*
G54D12*
X104450Y-70979D02*
X103450Y-71979D01*
X103450Y-74450D01*
X103050Y-74450D01*
X103050Y-71770D01*
X104050Y-70770D01*
X104050Y-66979D01*
X103520Y-66450D01*
X99050Y-66450D01*
X99050Y-66050D01*
X103729Y-66050D01*
X104450Y-66770D01*
X104450Y-70979D01*
G54D10*
G36*
X97950Y-73879D02*
X96879Y-74950D01*
X93250Y-74950D01*
X93250Y-74550D01*
X96770Y-74550D01*
X97550Y-73770D01*
X97550Y-71550D01*
X97750Y-71550D01*
X97950Y-71550D01*
X97950Y-73879D01*
X97950Y-73879D01*
G37*
G54D12*
X97950Y-73879D02*
X96879Y-74950D01*
X93250Y-74950D01*
X93250Y-74550D01*
X96770Y-74550D01*
X97550Y-73770D01*
X97550Y-71550D01*
X97750Y-71550D01*
X97950Y-71550D01*
X97950Y-73879D01*
G54D10*
G36*
X104642Y-60361D02*
X103422Y-61581D01*
X98992Y-61581D01*
X98992Y-61181D01*
X103213Y-61181D01*
X104242Y-60152D01*
X104242Y-54111D01*
X103213Y-53081D01*
X98992Y-53081D01*
X98992Y-52681D01*
X103422Y-52681D01*
X104642Y-53902D01*
X104642Y-60361D01*
X104642Y-60361D01*
G37*
G54D12*
X104642Y-60361D02*
X103422Y-61581D01*
X98992Y-61581D01*
X98992Y-61181D01*
X103213Y-61181D01*
X104242Y-60152D01*
X104242Y-54111D01*
X103213Y-53081D01*
X98992Y-53081D01*
X98992Y-52681D01*
X103422Y-52681D01*
X104642Y-53902D01*
X104642Y-60361D01*
G54D10*
G36*
X107900Y-50829D02*
X107892Y-50836D01*
X107892Y-50861D01*
X107050Y-51704D01*
X107050Y-73350D01*
X106650Y-73350D01*
X106650Y-51700D01*
X106650Y-51620D01*
X107500Y-50770D01*
X107500Y-34300D01*
X107900Y-34300D01*
X107900Y-50829D01*
X107900Y-50829D01*
G37*
G54D12*
X107900Y-50829D02*
X107892Y-50836D01*
X107892Y-50861D01*
X107050Y-51704D01*
X107050Y-73350D01*
X106650Y-73350D01*
X106650Y-51700D01*
X106650Y-51620D01*
X107500Y-50770D01*
X107500Y-34300D01*
X107900Y-34300D01*
X107900Y-50829D01*
G54D10*
G36*
X104700Y-47229D02*
X103479Y-48450D01*
X99050Y-48450D01*
X99050Y-48050D01*
X103270Y-48050D01*
X104300Y-47020D01*
X104300Y-45479D01*
X103270Y-44450D01*
X102520Y-44450D01*
X101600Y-43529D01*
X101600Y-41529D01*
X101050Y-40979D01*
X101050Y-34300D01*
X101450Y-34300D01*
X101450Y-40770D01*
X102000Y-41320D01*
X102000Y-43320D01*
X102729Y-44050D01*
X103479Y-44050D01*
X104700Y-45270D01*
X104700Y-47229D01*
X104700Y-47229D01*
G37*
G54D12*
X104700Y-47229D02*
X103479Y-48450D01*
X99050Y-48450D01*
X99050Y-48050D01*
X103270Y-48050D01*
X104300Y-47020D01*
X104300Y-45479D01*
X103270Y-44450D01*
X102520Y-44450D01*
X101600Y-43529D01*
X101600Y-41529D01*
X101050Y-40979D01*
X101050Y-34300D01*
X101450Y-34300D01*
X101450Y-40770D01*
X102000Y-41320D01*
X102000Y-43320D01*
X102729Y-44050D01*
X103479Y-44050D01*
X104700Y-45270D01*
X104700Y-47229D01*
G54D10*
G36*
X86700Y-70979D02*
X85700Y-71979D01*
X85700Y-74450D01*
X85300Y-74450D01*
X85300Y-71770D01*
X86300Y-70770D01*
X86300Y-66979D01*
X85770Y-66450D01*
X81300Y-66450D01*
X81300Y-66050D01*
X85979Y-66050D01*
X86700Y-66770D01*
X86700Y-70979D01*
X86700Y-70979D01*
G37*
G54D12*
X86700Y-70979D02*
X85700Y-71979D01*
X85700Y-74450D01*
X85300Y-74450D01*
X85300Y-71770D01*
X86300Y-70770D01*
X86300Y-66979D01*
X85770Y-66450D01*
X81300Y-66450D01*
X81300Y-66050D01*
X85979Y-66050D01*
X86700Y-66770D01*
X86700Y-70979D01*
G54D10*
G36*
X80150Y-73979D02*
X79179Y-74950D01*
X75550Y-74950D01*
X75550Y-74750D01*
X75550Y-74550D01*
X79020Y-74550D01*
X79750Y-73820D01*
X79750Y-71550D01*
X80000Y-71550D01*
X80150Y-71550D01*
X80150Y-73979D01*
X80150Y-73979D01*
G37*
G54D12*
X80150Y-73979D02*
X79179Y-74950D01*
X75550Y-74950D01*
X75550Y-74750D01*
X75550Y-74550D01*
X79020Y-74550D01*
X79750Y-73820D01*
X79750Y-71550D01*
X80000Y-71550D01*
X80150Y-71550D01*
X80150Y-73979D01*
G54D10*
G36*
X86892Y-60361D02*
X85672Y-61581D01*
X81242Y-61581D01*
X81242Y-61181D01*
X85463Y-61181D01*
X86492Y-60152D01*
X86492Y-54111D01*
X85463Y-53081D01*
X81242Y-53081D01*
X81242Y-52681D01*
X85672Y-52681D01*
X86892Y-53902D01*
X86892Y-60361D01*
X86892Y-60361D01*
G37*
G54D12*
X86892Y-60361D02*
X85672Y-61581D01*
X81242Y-61581D01*
X81242Y-61181D01*
X85463Y-61181D01*
X86492Y-60152D01*
X86492Y-54111D01*
X85463Y-53081D01*
X81242Y-53081D01*
X81242Y-52681D01*
X85672Y-52681D01*
X86892Y-53902D01*
X86892Y-60361D01*
G54D10*
G36*
X90150Y-50829D02*
X90142Y-50836D01*
X90142Y-50861D01*
X89300Y-51704D01*
X89300Y-73350D01*
X88900Y-73350D01*
X88900Y-51700D01*
X88900Y-51620D01*
X89750Y-50770D01*
X89750Y-34300D01*
X90150Y-34300D01*
X90150Y-50829D01*
X90150Y-50829D01*
G37*
G54D12*
X90150Y-50829D02*
X90142Y-50836D01*
X90142Y-50861D01*
X89300Y-51704D01*
X89300Y-73350D01*
X88900Y-73350D01*
X88900Y-51700D01*
X88900Y-51620D01*
X89750Y-50770D01*
X89750Y-34300D01*
X90150Y-34300D01*
X90150Y-50829D01*
G54D10*
G36*
X86950Y-47229D02*
X85729Y-48450D01*
X81300Y-48450D01*
X81300Y-48050D01*
X85520Y-48050D01*
X86550Y-47020D01*
X86550Y-45479D01*
X85520Y-44450D01*
X84770Y-44450D01*
X83850Y-43529D01*
X83850Y-41529D01*
X83300Y-40979D01*
X83300Y-34300D01*
X83700Y-34300D01*
X83700Y-40770D01*
X84250Y-41320D01*
X84250Y-43320D01*
X84979Y-44050D01*
X85729Y-44050D01*
X86950Y-45270D01*
X86950Y-47229D01*
X86950Y-47229D01*
G37*
G54D12*
X86950Y-47229D02*
X85729Y-48450D01*
X81300Y-48450D01*
X81300Y-48050D01*
X85520Y-48050D01*
X86550Y-47020D01*
X86550Y-45479D01*
X85520Y-44450D01*
X84770Y-44450D01*
X83850Y-43529D01*
X83850Y-41529D01*
X83300Y-40979D01*
X83300Y-34300D01*
X83700Y-34300D01*
X83700Y-40770D01*
X84250Y-41320D01*
X84250Y-43320D01*
X84979Y-44050D01*
X85729Y-44050D01*
X86950Y-45270D01*
X86950Y-47229D01*
G54D10*
G36*
X80950Y-29450D02*
X80550Y-29450D01*
X80550Y-27729D01*
X80270Y-27450D01*
X77229Y-27450D01*
X76950Y-27729D01*
X76950Y-29450D01*
X76550Y-29450D01*
X76550Y-27520D01*
X77020Y-27050D01*
X80479Y-27050D01*
X80950Y-27520D01*
X80950Y-29450D01*
X80950Y-29450D01*
G37*
G54D12*
X80950Y-29450D02*
X80550Y-29450D01*
X80550Y-27729D01*
X80270Y-27450D01*
X77229Y-27450D01*
X76950Y-27729D01*
X76950Y-29450D01*
X76550Y-29450D01*
X76550Y-27520D01*
X77020Y-27050D01*
X80479Y-27050D01*
X80950Y-27520D01*
X80950Y-29450D01*
G54D10*
G36*
X98700Y-29450D02*
X98300Y-29450D01*
X98300Y-27729D01*
X98020Y-27450D01*
X94979Y-27450D01*
X94700Y-27729D01*
X94700Y-29450D01*
X94300Y-29450D01*
X94300Y-27520D01*
X94770Y-27050D01*
X98229Y-27050D01*
X98700Y-27520D01*
X98700Y-29450D01*
X98700Y-29450D01*
G37*
G54D12*
X98700Y-29450D02*
X98300Y-29450D01*
X98300Y-27729D01*
X98020Y-27450D01*
X94979Y-27450D01*
X94700Y-27729D01*
X94700Y-29450D01*
X94300Y-29450D01*
X94300Y-27520D01*
X94770Y-27050D01*
X98229Y-27050D01*
X98700Y-27520D01*
X98700Y-29450D01*
G54D10*
G36*
X116450Y-29450D02*
X116050Y-29450D01*
X116050Y-27729D01*
X115770Y-27450D01*
X112729Y-27450D01*
X112450Y-27729D01*
X112450Y-29450D01*
X112050Y-29450D01*
X112050Y-27520D01*
X112520Y-27050D01*
X115979Y-27050D01*
X116450Y-27520D01*
X116450Y-29450D01*
X116450Y-29450D01*
G37*
G54D12*
X116450Y-29450D02*
X116050Y-29450D01*
X116050Y-27729D01*
X115770Y-27450D01*
X112729Y-27450D01*
X112450Y-27729D01*
X112450Y-29450D01*
X112050Y-29450D01*
X112050Y-27520D01*
X112520Y-27050D01*
X115979Y-27050D01*
X116450Y-27520D01*
X116450Y-29450D01*
M02*
