G04 CAM350 V9.0 (Build 156) Date:  Thu May 26 11:42:24 2016 *
G04 Database: (Untitled) *
G04 Layer 3: a300skb5_0_mu-1 *
%FSTAX23Y23*%
%MOIN*%
%SFA1.000B1.000*%

%MIA0B0*%
%IPPOS*%
%AMD762*
4,1,4,-0.01500,0.01750,-0.01500,-0.01750,0.01500,-0.01750,0.01500,0.01750,-0.01500,0.01750,0.00000*
%
%AMD763*
4,1,4,-0.01750,0.01750,-0.01750,-0.01750,0.01750,-0.01750,0.01750,0.01750,-0.01750,0.01750,0.00000*
%
%AMD764*
4,1,4,-0.05500,0.04150,-0.05500,-0.04150,0.05500,-0.04150,0.05500,0.04150,-0.05500,0.04150,0.00000*
%
%AMD765*
4,1,4,-0.03540,0.04900,-0.03540,-0.04900,0.03540,-0.04900,0.03540,0.04900,-0.03540,0.04900,0.00000*
%
%AMD766*
4,1,4,-0.03150,0.03950,-0.03150,-0.03950,0.03150,-0.03950,0.03150,0.03950,-0.03150,0.03950,0.00000*
%
%AMD767*
4,1,4,-0.04550,0.03950,-0.04550,-0.03950,0.04550,-0.03950,0.04550,0.03950,-0.04550,0.03950,0.00000*
%
%AMD768*
4,1,4,-0.01750,0.01500,-0.01750,-0.01500,0.01750,-0.01500,0.01750,0.01500,-0.01750,0.01500,0.00000*
%
%AMD769*
4,1,4,-0.01500,0.02750,-0.01500,-0.02750,0.01500,-0.02750,0.01500,0.02750,-0.01500,0.02750,0.00000*
%
%AMD770*
4,1,4,-0.01750,0.02750,-0.01750,-0.02750,0.01750,-0.02750,0.01750,0.02750,-0.01750,0.02750,0.00000*
%
%AMD771*
4,1,4,-0.04000,0.03000,-0.04000,-0.03000,0.04000,-0.03000,0.04000,0.03000,-0.04000,0.03000,0.00000*
1,1,0.08000,0.00000,-0.03000*
1,1,0.08000,0.00000,0.03000*
%
%AMD772*
4,1,4,-0.10000,0.12500,-0.10000,-0.12500,0.10000,-0.12500,0.10000,0.12500,-0.10000,0.12500,0.00000*
%
%AMD773*
4,1,4,-0.02250,0.02750,-0.02250,-0.02750,0.02250,-0.02750,0.02250,0.02750,-0.02250,0.02750,0.00000*
1,1,0.05500,-0.02250,0.00000*
1,1,0.05500,0.02250,0.00000*
%
%AMD774*
4,1,4,-0.02000,0.03000,-0.02000,-0.03000,0.02000,-0.03000,0.02000,0.03000,-0.02000,0.03000,0.00000*
1,1,0.06000,-0.02000,0.00000*
1,1,0.06000,0.02000,0.00000*
%
%AMD775*
4,1,4,-0.03500,0.03150,-0.03500,-0.03150,0.03500,-0.03150,0.03500,0.03150,-0.03500,0.03150,0.00000*
%
%AMD776*
4,1,4,0.00560,0.04230,-0.01430,0.04020,-0.00560,-0.04230,0.01430,-0.04020,0.00560,0.04230,0.00000*
%
%AMD777*
4,1,4,0.02500,0.04440,-0.03370,0.03820,-0.02500,-0.04440,0.03370,-0.03820,0.02500,0.04440,0.00000*
%
%AMD778*
4,1,4,0.02530,0.04140,-0.03340,0.03520,-0.02530,-0.04140,0.03340,-0.03520,0.02530,0.04140,0.00000*
%
%AMD779*
4,1,4,0.00590,0.02020,-0.01000,0.01860,-0.00590,-0.02020,0.01000,-0.01860,0.00590,0.02020,0.00000*
1,1,0.01600,-0.00200,0.01940*
1,1,0.01600,0.00200,-0.01940*
%
%AMD780*
4,1,4,0.04200,0.03610,-0.04850,0.02660,-0.04200,-0.03610,0.04850,-0.02660,0.04200,0.03610,0.00000*
%
%AMD781*
4,1,4,0.04210,0.03510,-0.04840,0.02560,-0.04210,-0.03510,0.04840,-0.02560,0.04210,0.03510,0.00000*
%
%AMD782*
4,1,4,-0.00400,0.00400,-0.00400,-0.00400,0.00400,-0.00400,0.00400,0.00400,-0.00400,0.00400,0.00000*
%
%AMD783*
4,1,4,-0.00400,0.01200,-0.00400,-0.01200,0.00400,-0.01200,0.00400,0.01200,-0.00400,0.01200,0.00000*
%
%AMD784*
4,1,4,-0.02000,0.01400,-0.02000,-0.01400,0.02000,-0.01400,0.02000,0.01400,-0.02000,0.01400,0.00000*
1,1,0.02800,-0.02000,0.00000*
1,1,0.02800,0.02000,0.00000*
%
%AMD785*
4,1,4,-0.03400,0.01400,-0.03400,-0.01400,0.03400,-0.01400,0.03400,0.01400,-0.03400,0.01400,0.00000*
%
%AMD786*
4,1,4,-0.02200,0.01200,-0.02200,-0.01200,0.02200,-0.01200,0.02200,0.01200,-0.02200,0.01200,0.00000*
1,1,0.02400,-0.02200,0.00000*
1,1,0.02400,0.02200,0.00000*
%
%AMD787*
4,1,4,-0.01200,0.02350,-0.01200,-0.02350,0.01200,-0.02350,0.01200,0.02350,-0.01200,0.02350,0.00000*
%
%ADD29C,0.08000*%
%ADD762D762*%
%ADD763D763*%
%ADD764D764*%
%ADD765D765*%
%ADD766D766*%
%ADD767D767*%
%ADD768D768*%
%ADD769D769*%
%ADD770D770*%
%ADD771D771*%
%ADD772D772*%
%ADD773D773*%
%ADD774D774*%
%ADD775D775*%
%ADD776D776*%
%ADD777D777*%
%ADD778D778*%
%ADD779D779*%
%ADD780D780*%
%ADD781D781*%
%ADD782D782*%
%ADD783D783*%
%ADD784D784*%
%ADD785D785*%
%ADD786D786*%
%ADD787D787*%
%LNa300skb5_0_mu-1*%
%LPD*%
G54D762*
X05371Y06553D03*
X05426D03*
X04896Y04779D03*
X04951D03*
X05638Y06057D03*
X05583D03*
X061Y05581D03*
X06045D03*
X0564Y05786D03*
X05585D03*
X0527Y06612D03*
X05325D03*
X05507Y06601D03*
X05452D03*
X04446Y0557D03*
X04501D03*
X04446Y05617D03*
X04501D03*
X04446Y05663D03*
X04501D03*
X04446Y05709D03*
X04501D03*
X04446Y05755D03*
X04501D03*
X05545Y03909D03*
X056D03*
X05393Y04862D03*
X05338D03*
X05371Y04644D03*
X05316D03*
X05516Y0486D03*
X05461D03*
X05512Y04646D03*
X05457D03*
X04472Y06169D03*
X04527D03*
X0544Y04401D03*
X0536D03*
G54D763*
X04819Y04665D03*
Y04745D03*
X04739Y04705D03*
X07399Y04165D03*
Y0422D03*
X0486Y05331D03*
Y05276D03*
X04433Y04201D03*
Y04146D03*
X04578Y04233D03*
Y04178D03*
X04579Y04073D03*
Y04128D03*
X06951Y0408D03*
Y04025D03*
X0709Y04425D03*
Y0448D03*
X0598Y06155D03*
Y0621D03*
X05784Y06154D03*
Y06209D03*
X06137Y0563D03*
X06181D03*
Y05685D03*
X06091D03*
Y0563D03*
X05746Y05667D03*
Y05612D03*
X05941Y05669D03*
Y05614D03*
X06042Y05685D03*
Y0563D03*
X06178Y062D03*
X05008Y04571D03*
Y04516D03*
X05252Y0433D03*
Y04385D03*
X05081Y04387D03*
Y04332D03*
X05308Y04392D03*
X04656Y06382D03*
X04601D03*
X04705Y06383D03*
X0476D03*
X06122Y061D03*
X06177D03*
X07294Y04219D03*
X07349D03*
X07208Y04263D03*
X07263D03*
X07349Y04163D03*
X07294D03*
X06874Y04408D03*
X06929D03*
X07034Y04067D03*
X07089D03*
X05638Y0601D03*
X05583D03*
X0564Y06171D03*
X05585D03*
X06124Y05732D03*
X06179D03*
X06124Y05778D03*
X06179D03*
X06125Y05943D03*
X0618D03*
X06124Y05825D03*
X06179D03*
X06587Y06456D03*
X06547Y06536D03*
X06627D03*
X05026Y04668D03*
X05106D03*
X05066Y04748D03*
X05096Y04561D03*
X05151D03*
X05112Y04513D03*
X05057D03*
X05152Y04433D03*
X05207D03*
X05208Y04388D03*
X05128D03*
X05168Y04308D03*
X054Y04321D03*
G54D764*
X05687Y04504D03*
Y04244D03*
X05715Y03801D03*
Y04061D03*
X05859Y0455D03*
Y0429D03*
G54D765*
X06228Y04383D03*
X06063D03*
G54D766*
X0623Y0423D03*
X06065D03*
G54D767*
X07368Y04476D03*
Y04287D03*
G54D768*
X04531Y04072D03*
Y04127D03*
X05575Y05686D03*
Y05631D03*
X05625Y05684D03*
Y05629D03*
X06131Y062D03*
Y06145D03*
X06137Y05685D03*
X06178Y06145D03*
X05289Y06729D03*
Y06674D03*
X09343Y00986D03*
Y00931D03*
X05308Y04337D03*
X05027Y04329D03*
Y04384D03*
G54D769*
X06853Y04336D03*
X06928D03*
G54D770*
X07231Y04101D03*
X07351D03*
X07291D03*
G54D771*
Y04009D03*
G54D772*
X07098Y03847D03*
G54D773*
X06823Y03757D03*
G54D774*
Y03937D03*
G54D775*
X0684Y04028D03*
Y04193D03*
G54D776*
X08534Y01062D03*
X08503Y01059D03*
X0844Y01052D03*
X08472Y01056D03*
X08409Y01049D03*
G54D777*
X08297Y01021D03*
X08649Y01058D03*
G54D778*
X0832Y00802D03*
X08673Y00839D03*
G54D779*
X09107Y00994D03*
X09081Y00991D03*
X09056Y00988D03*
X09132Y00996D03*
X09158Y00998D03*
G54D780*
X08971Y00874D03*
G54D781*
X09265Y00905D03*
G54D782*
X09134Y01082D03*
X09059D03*
X09134Y01059D03*
X09059D03*
G54D783*
X09106Y0109D03*
X09126Y01051D03*
Y0109D03*
X09067Y01051D03*
X09087D03*
X09106D03*
X09087Y0109D03*
X09067D03*
G54D784*
X0694Y04228D03*
X07145Y04128D03*
Y04178D03*
Y04228D03*
Y04278D03*
G54D785*
X06939D03*
G54D786*
Y04128D03*
Y04178D03*
G54D787*
X0541Y04699D03*
X05335D03*
Y0481D03*
X0541D03*
X05373Y04699D03*
X05537Y04698D03*
X05462D03*
Y04809D03*
X05537D03*
X055Y04698D03*
G54D762*
X05382Y00646D03*
X05327D03*
X05857Y0242D03*
X05802D03*
X05115Y01142D03*
X0517D03*
X04653Y01618D03*
X04708D03*
X05113Y01413D03*
X05168D03*
X05483Y00587D03*
X05428D03*
X05246Y00598D03*
X05301D03*
X06307Y01629D03*
X06252D03*
X06307Y01582D03*
X06252D03*
X06307Y01536D03*
X06252D03*
X06307Y0149D03*
X06252D03*
X06307Y01444D03*
X06252D03*
X05208Y0329D03*
X05153D03*
X0536Y02337D03*
X05415D03*
X05382Y02555D03*
X05437D03*
X05237Y02339D03*
X05292D03*
X05241Y02553D03*
X05296D03*
X06281Y0103D03*
X06226D03*
X05313Y02798D03*
X05393D03*
G54D763*
X05934Y02534D03*
Y02454D03*
X06014Y02494D03*
X03354Y03034D03*
Y02979D03*
X05893Y01868D03*
Y01923D03*
X0632Y02998D03*
Y03053D03*
X06175Y02966D03*
Y03021D03*
X06174Y03126D03*
Y03071D03*
X03802Y03119D03*
Y03174D03*
X03663Y02774D03*
Y02719D03*
X04773Y01044D03*
Y00989D03*
X04969Y01045D03*
Y0099D03*
X04616Y01569D03*
X04572D03*
Y01514D03*
X04662D03*
Y01569D03*
X05007Y01532D03*
Y01587D03*
X04812Y0153D03*
Y01585D03*
X04711Y01514D03*
Y01569D03*
X04575Y00999D03*
X05745Y02628D03*
Y02683D03*
X05501Y02869D03*
Y02814D03*
X05672Y02812D03*
Y02867D03*
X05445Y02807D03*
X06097Y00817D03*
X06152D03*
X06048Y00816D03*
X05993D03*
X04631Y01099D03*
X04576D03*
X03459Y0298D03*
X03404D03*
X03545Y02936D03*
X0349D03*
X03404Y03036D03*
X03459D03*
X03879Y02791D03*
X03824D03*
X03719Y03132D03*
X03664D03*
X05115Y01189D03*
X0517D03*
X05113Y01028D03*
X05168D03*
X04629Y01467D03*
X04574D03*
X04629Y01421D03*
X04574D03*
X04628Y01256D03*
X04573D03*
X04629Y01374D03*
X04574D03*
X04166Y00743D03*
X04206Y00663D03*
X04126D03*
X05727Y02531D03*
X05647D03*
X05687Y02451D03*
X05657Y02638D03*
X05602D03*
X05641Y02686D03*
X05696D03*
X05601Y02766D03*
X05546D03*
X05545Y02811D03*
X05625D03*
X05585Y02891D03*
X05353Y02878D03*
G54D764*
X05066Y02695D03*
Y02955D03*
X05038Y03398D03*
Y03138D03*
X04894Y02649D03*
Y02909D03*
G54D765*
X04525Y02816D03*
X0469D03*
G54D766*
X04523Y02969D03*
X04688D03*
G54D767*
X03385Y02723D03*
Y02912D03*
G54D768*
X06222Y03127D03*
Y03072D03*
X05178Y01513D03*
Y01568D03*
X05128Y01515D03*
Y0157D03*
X04622Y00999D03*
Y01054D03*
X04616Y01514D03*
X04575Y01054D03*
X05464Y0047D03*
Y00525D03*
X0141Y06213D03*
Y06268D03*
X05445Y02862D03*
X05726Y0287D03*
Y02815D03*
G54D769*
X039Y02863D03*
X03825D03*
G54D770*
X03522Y03098D03*
X03402D03*
X03462D03*
G54D771*
Y0319D03*
G54D772*
X03655Y03352D03*
G54D773*
X0393Y03442D03*
G54D774*
Y03262D03*
G54D775*
X03913Y03171D03*
Y03006D03*
G54D776*
X02219Y06137D03*
X0225Y0614D03*
X02313Y06147D03*
X02281Y06143D03*
X02344Y0615D03*
G54D777*
X02456Y06178D03*
X02104Y06141D03*
G54D778*
X02433Y06397D03*
X0208Y0636D03*
G54D779*
X01646Y06205D03*
X01672Y06208D03*
X01697Y06211D03*
X01621Y06203D03*
X01595Y06201D03*
G54D780*
X01782Y06325D03*
G54D781*
X01488Y06294D03*
G54D782*
X01619Y06117D03*
X01694D03*
X01619Y0614D03*
X01694D03*
G54D783*
X01647Y06109D03*
X01627Y06148D03*
Y06109D03*
X01686Y06148D03*
X01666D03*
X01647D03*
X01666Y06109D03*
X01686D03*
G54D784*
X03813Y02971D03*
X03608Y03071D03*
Y03021D03*
Y02971D03*
Y02921D03*
G54D785*
X03814D03*
G54D786*
Y03071D03*
Y03021D03*
G54D787*
X05343Y025D03*
X05418D03*
Y02389D03*
X05343D03*
X0538Y025D03*
X05216Y02501D03*
X05291D03*
Y0239D03*
X05216D03*
X05253Y02501D03*
G54D29*
X009Y06559D03*
X095Y068D03*
X09305Y006D03*
M02*
