*
%FSLAX36Y36*%
%MOIN*%
%ADD10R,0.035000X0.035000*%
%ADD11R,0.047244X0.047244*%
%ADD12R,0.022000X0.022000*%
%ADD13R,0.040000X0.040000*%
%ADD14R,0.051181X0.051181*%
%ADD15R,0.039370X0.039370*%
%ADD16R,0.096457X0.096457*%
%ADD17R,0.025000X0.025000*%
%ADD18C,0.039370*%
%IPPOS*%
%LN02st084514a0.gtp*%
%LPD*%
G75*
G54D10*
X1216063Y1353236D03*
Y1421236D03*
G54D11*
X1022441Y147102D02*
X1073937D01*
X1022441Y225842D02*
X1073937D01*
X1022441Y304583D02*
X1073937D01*
X1022441Y383323D02*
X1073937D01*
X1022441Y462063D02*
X1073937D01*
X1022441Y540803D02*
X1073937D01*
X1022441Y619543D02*
X1073937D01*
X1022441Y698283D02*
X1073937D01*
X325591D02*
X377087D01*
X325591Y619543D02*
X377087D01*
X325591Y540803D02*
X377087D01*
X325591Y462063D02*
X377087D01*
X325591Y383323D02*
X377087D01*
X325591Y304583D02*
X377087D01*
X325591Y225842D02*
X377087D01*
X325591Y147102D02*
X377087D01*
G54D12*
X546024Y1056831D02*
Y1093831D01*
X577520Y1056831D02*
Y1093831D01*
X609016Y1056831D02*
Y1093831D01*
X640512Y1056831D02*
Y1093831D01*
X672008Y1056831D02*
Y1093831D01*
X703504Y1056831D02*
Y1093831D01*
X735000Y1056831D02*
Y1093831D01*
X766496Y1056831D02*
Y1093831D01*
X797992Y1056831D02*
Y1093831D01*
X829488Y1056831D02*
Y1093831D01*
X860984Y1056831D02*
Y1093831D01*
X909413Y1142260D02*
X946413D01*
X909413Y1173756D02*
X946413D01*
X909413Y1205252D02*
X946413D01*
X909413Y1236748D02*
X946413D01*
X909413Y1268244D02*
X946413D01*
X909413Y1299740D02*
X946413D01*
X909413Y1331236D02*
X946413D01*
X909413Y1362732D02*
X946413D01*
X909413Y1394228D02*
X946413D01*
X909413Y1425724D02*
X946413D01*
X909413Y1457220D02*
X946413D01*
X860984Y1505650D02*
Y1542650D01*
X829488Y1505650D02*
Y1542650D01*
X797992Y1505650D02*
Y1542650D01*
X766496Y1505650D02*
Y1542650D01*
X735000Y1505650D02*
Y1542650D01*
X703504Y1505650D02*
Y1542650D01*
X672008Y1505650D02*
Y1542650D01*
X640512Y1505650D02*
Y1542650D01*
X609016Y1505650D02*
Y1542650D01*
X577520Y1505650D02*
Y1542650D01*
X546024Y1505650D02*
Y1542650D01*
X460595Y1457220D02*
X497595D01*
X460595Y1425724D02*
X497595D01*
X460595Y1394228D02*
X497595D01*
X460595Y1362732D02*
X497595D01*
X460595Y1331236D02*
X497595D01*
X460595Y1299740D02*
X497595D01*
X460595Y1268244D02*
X497595D01*
X460595Y1236748D02*
X497595D01*
X460595Y1205252D02*
X497595D01*
X460595Y1173756D02*
X497595D01*
X460595Y1142260D02*
X497595D01*
G54D13*
X309134Y2201157D02*
X319134D01*
X309134Y2117157D02*
X319134D01*
G54D14*
X239882Y1371512D02*
Y1381355D01*
Y1684504D02*
Y1694347D01*
X62717Y1371512D02*
Y1381355D01*
Y1684504D02*
Y1694347D01*
G54D13*
X1098307Y2202220D02*
X1108307D01*
X1098307Y2118220D02*
X1108307D01*
G54D15*
X164331Y674268D02*
X211575D01*
X164331Y556157D02*
X211575D01*
X247008Y615213D03*
G54D10*
X680158Y1944079D03*
Y1876079D03*
X959882Y1939433D03*
Y1871433D03*
X312882Y836433D03*
Y904433D03*
G54D13*
X1203819Y739228D02*
X1213819D01*
X1203819Y823228D02*
X1213819D01*
G54D10*
X1138347Y756410D03*
Y824410D03*
X1216063Y1301236D03*
Y1233236D03*
X609890Y1993953D03*
X541890D03*
G54D13*
X887284Y1604189D02*
X897284D01*
X887284Y1688189D02*
X897284D01*
G54D10*
X358425Y1499071D03*
Y1431071D03*
X509526Y1594346D03*
X577526D03*
X161882Y786433D03*
X93882D03*
X316134Y2049157D03*
Y1981157D03*
X1100307Y2057220D03*
Y1989220D03*
X184882Y1298433D03*
Y1366433D03*
X1271036Y1256428D03*
Y1188428D03*
X1267874Y996425D03*
Y1064425D03*
X766882Y1896433D03*
Y1964433D03*
X863882Y1894433D03*
Y1962433D03*
G54D16*
X170236Y1834307D02*
Y1883520D01*
G54D10*
X1054882Y1746433D03*
X986882D03*
X124882Y909933D02*
Y914933D01*
X87882Y834933D02*
Y839933D01*
X161882Y834933D02*
Y839933D01*
X331882Y775433D03*
X399882D03*
X218882Y838433D03*
Y906433D03*
X1238882Y191433D03*
X1170882D03*
G54D17*
X267382Y981433D02*
X322382D01*
X267382Y1031433D02*
X322382D01*
X267382Y1081433D02*
X322382D01*
X267382Y1131433D02*
X322382D01*
X62382D02*
X117382D01*
X62382Y1081433D02*
X117382D01*
X62382Y1031433D02*
X117382D01*
X62382Y981433D02*
X117382D01*
G54D10*
X1216063Y3635984D03*
Y3703984D03*
G54D11*
X1022441Y2429850D02*
X1073937D01*
X1022441Y2508590D02*
X1073937D01*
X1022441Y2587331D02*
X1073937D01*
X1022441Y2666071D02*
X1073937D01*
X1022441Y2744811D02*
X1073937D01*
X1022441Y2823551D02*
X1073937D01*
X1022441Y2902291D02*
X1073937D01*
X1022441Y2981031D02*
X1073937D01*
X325591D02*
X377087D01*
X325591Y2902291D02*
X377087D01*
X325591Y2823551D02*
X377087D01*
X325591Y2744811D02*
X377087D01*
X325591Y2666071D02*
X377087D01*
X325591Y2587331D02*
X377087D01*
X325591Y2508590D02*
X377087D01*
X325591Y2429850D02*
X377087D01*
G54D12*
X546024Y3339579D02*
Y3376579D01*
X577520Y3339579D02*
Y3376579D01*
X609016Y3339579D02*
Y3376579D01*
X640512Y3339579D02*
Y3376579D01*
X672008Y3339579D02*
Y3376579D01*
X703504Y3339579D02*
Y3376579D01*
X735000Y3339579D02*
Y3376579D01*
X766496Y3339579D02*
Y3376579D01*
X797992Y3339579D02*
Y3376579D01*
X829488Y3339579D02*
Y3376579D01*
X860984Y3339579D02*
Y3376579D01*
X909413Y3425008D02*
X946413D01*
X909413Y3456504D02*
X946413D01*
X909413Y3488000D02*
X946413D01*
X909413Y3519496D02*
X946413D01*
X909413Y3550992D02*
X946413D01*
X909413Y3582488D02*
X946413D01*
X909413Y3613984D02*
X946413D01*
X909413Y3645480D02*
X946413D01*
X909413Y3676976D02*
X946413D01*
X909413Y3708472D02*
X946413D01*
X909413Y3739968D02*
X946413D01*
X860984Y3788398D02*
Y3825398D01*
X829488Y3788398D02*
Y3825398D01*
X797992Y3788398D02*
Y3825398D01*
X766496Y3788398D02*
Y3825398D01*
X735000Y3788398D02*
Y3825398D01*
X703504Y3788398D02*
Y3825398D01*
X672008Y3788398D02*
Y3825398D01*
X640512Y3788398D02*
Y3825398D01*
X609016Y3788398D02*
Y3825398D01*
X577520Y3788398D02*
Y3825398D01*
X546024Y3788398D02*
Y3825398D01*
X460595Y3739968D02*
X497595D01*
X460595Y3708472D02*
X497595D01*
X460595Y3676976D02*
X497595D01*
X460595Y3645480D02*
X497595D01*
X460595Y3613984D02*
X497595D01*
X460595Y3582488D02*
X497595D01*
X460595Y3550992D02*
X497595D01*
X460595Y3519496D02*
X497595D01*
X460595Y3488000D02*
X497595D01*
X460595Y3456504D02*
X497595D01*
X460595Y3425008D02*
X497595D01*
G54D13*
X309134Y4483905D02*
X319134D01*
X309134Y4399905D02*
X319134D01*
G54D14*
X239882Y3654260D02*
Y3664102D01*
Y3967252D02*
Y3977094D01*
X62717Y3654260D02*
Y3664102D01*
Y3967252D02*
Y3977094D01*
G54D13*
X1098307Y4484968D02*
X1108307D01*
X1098307Y4400968D02*
X1108307D01*
G54D15*
X164331Y2957016D02*
X211575D01*
X164331Y2838905D02*
X211575D01*
X247008Y2897961D03*
G54D10*
X680158Y4226827D03*
Y4158827D03*
X959882Y4222181D03*
Y4154181D03*
X312882Y3119181D03*
Y3187181D03*
G54D13*
X1203819Y3021976D02*
X1213819D01*
X1203819Y3105976D02*
X1213819D01*
G54D10*
X1138347Y3039158D03*
Y3107158D03*
X1216063Y3583984D03*
Y3515984D03*
X609890Y4276701D03*
X541890D03*
G54D13*
X887284Y3886937D02*
X897284D01*
X887284Y3970937D02*
X897284D01*
G54D10*
X358425Y3781819D03*
Y3713819D03*
X509526Y3877094D03*
X577526D03*
X161882Y3069181D03*
X93882D03*
X316134Y4331905D03*
Y4263905D03*
X1100307Y4339968D03*
Y4271968D03*
X184882Y3581181D03*
Y3649181D03*
X1271036Y3539176D03*
Y3471176D03*
X1267874Y3279173D03*
Y3347173D03*
X766882Y4179181D03*
Y4247181D03*
X863882Y4177181D03*
Y4245181D03*
G54D16*
X170236Y4117055D02*
Y4166268D01*
G54D10*
X1054882Y4029181D03*
X986882D03*
X124882Y3192681D02*
Y3197681D01*
X87882Y3117681D02*
Y3122681D01*
X161882Y3117681D02*
Y3122681D01*
X331882Y3058181D03*
X399882D03*
X218882Y3121181D03*
Y3189181D03*
X1238882Y2474181D03*
X1170882D03*
G54D17*
X267382Y3264181D02*
X322382D01*
X267382Y3314181D02*
X322382D01*
X267382Y3364181D02*
X322382D01*
X267382Y3414181D02*
X322382D01*
X62382D02*
X117382D01*
X62382Y3364181D02*
X117382D01*
X62382Y3314181D02*
X117382D01*
X62382Y3264181D02*
X117382D01*
G54D10*
X1216063Y5918732D03*
Y5986732D03*
G54D11*
X1022441Y4712598D02*
X1073937D01*
X1022441Y4791338D02*
X1073937D01*
X1022441Y4870079D02*
X1073937D01*
X1022441Y4948819D02*
X1073937D01*
X1022441Y5027559D02*
X1073937D01*
X1022441Y5106299D02*
X1073937D01*
X1022441Y5185039D02*
X1073937D01*
X1022441Y5263779D02*
X1073937D01*
X325591D02*
X377087D01*
X325591Y5185039D02*
X377087D01*
X325591Y5106299D02*
X377087D01*
X325591Y5027559D02*
X377087D01*
X325591Y4948819D02*
X377087D01*
X325591Y4870079D02*
X377087D01*
X325591Y4791338D02*
X377087D01*
X325591Y4712598D02*
X377087D01*
G54D12*
X546024Y5622327D02*
Y5659327D01*
X577520Y5622327D02*
Y5659327D01*
X609016Y5622327D02*
Y5659327D01*
X640512Y5622327D02*
Y5659327D01*
X672008Y5622327D02*
Y5659327D01*
X703504Y5622327D02*
Y5659327D01*
X735000Y5622327D02*
Y5659327D01*
X766496Y5622327D02*
Y5659327D01*
X797992Y5622327D02*
Y5659327D01*
X829488Y5622327D02*
Y5659327D01*
X860984Y5622327D02*
Y5659327D01*
X909413Y5707756D02*
X946413D01*
X909413Y5739252D02*
X946413D01*
X909413Y5770748D02*
X946413D01*
X909413Y5802244D02*
X946413D01*
X909413Y5833740D02*
X946413D01*
X909413Y5865236D02*
X946413D01*
X909413Y5896732D02*
X946413D01*
X909413Y5928228D02*
X946413D01*
X909413Y5959724D02*
X946413D01*
X909413Y5991220D02*
X946413D01*
X909413Y6022716D02*
X946413D01*
X860984Y6071146D02*
Y6108146D01*
X829488Y6071146D02*
Y6108146D01*
X797992Y6071146D02*
Y6108146D01*
X766496Y6071146D02*
Y6108146D01*
X735000Y6071146D02*
Y6108146D01*
X703504Y6071146D02*
Y6108146D01*
X672008Y6071146D02*
Y6108146D01*
X640512Y6071146D02*
Y6108146D01*
X609016Y6071146D02*
Y6108146D01*
X577520Y6071146D02*
Y6108146D01*
X546024Y6071146D02*
Y6108146D01*
X460595Y6022716D02*
X497595D01*
X460595Y5991220D02*
X497595D01*
X460595Y5959724D02*
X497595D01*
X460595Y5928228D02*
X497595D01*
X460595Y5896732D02*
X497595D01*
X460595Y5865236D02*
X497595D01*
X460595Y5833740D02*
X497595D01*
X460595Y5802244D02*
X497595D01*
X460595Y5770748D02*
X497595D01*
X460595Y5739252D02*
X497595D01*
X460595Y5707756D02*
X497595D01*
G54D13*
X309134Y6766653D02*
X319134D01*
X309134Y6682653D02*
X319134D01*
G54D14*
X239882Y5937008D02*
Y5946850D01*
Y6250000D02*
Y6259842D01*
X62717Y5937008D02*
Y5946850D01*
Y6250000D02*
Y6259842D01*
G54D13*
X1098307Y6767716D02*
X1108307D01*
X1098307Y6683716D02*
X1108307D01*
G54D15*
X164331Y5239764D02*
X211575D01*
X164331Y5121653D02*
X211575D01*
X247008Y5180709D03*
G54D10*
X680158Y6509575D03*
Y6441575D03*
X959882Y6504929D03*
Y6436929D03*
X312882Y5401929D03*
Y5469929D03*
G54D13*
X1203819Y5304724D02*
X1213819D01*
X1203819Y5388724D02*
X1213819D01*
G54D10*
X1138347Y5321906D03*
Y5389906D03*
X1216063Y5866732D03*
Y5798732D03*
X609890Y6559449D03*
X541890D03*
G54D13*
X887284Y6169685D02*
X897284D01*
X887284Y6253685D02*
X897284D01*
G54D10*
X358425Y6064567D03*
Y5996567D03*
X509526Y6159842D03*
X577526D03*
X161882Y5351929D03*
X93882D03*
X316134Y6614653D03*
Y6546653D03*
X1100307Y6622716D03*
Y6554716D03*
X184882Y5863929D03*
Y5931929D03*
X1271036Y5821924D03*
Y5753924D03*
X1267874Y5561921D03*
Y5629921D03*
X766882Y6461929D03*
Y6529929D03*
X863882Y6459929D03*
Y6527929D03*
G54D16*
X170236Y6399803D02*
Y6449015D01*
G54D10*
X1054882Y6311929D03*
X986882D03*
X124882Y5475429D02*
Y5480429D01*
X87882Y5400429D02*
Y5405429D01*
X161882Y5400429D02*
Y5405429D01*
X331882Y5340929D03*
X399882D03*
X218882Y5403929D03*
Y5471929D03*
X1238882Y4756929D03*
X1170882D03*
G54D17*
X267382Y5546929D02*
X322382D01*
X267382Y5596929D02*
X322382D01*
X267382Y5646929D02*
X322382D01*
X267382Y5696929D02*
X322382D01*
X62382D02*
X117382D01*
X62382Y5646929D02*
X117382D01*
X62382Y5596929D02*
X117382D01*
X62382Y5546929D02*
X117382D01*
G54D10*
X1216063Y8201480D03*
Y8269480D03*
G54D11*
X1022441Y6995346D02*
X1073937D01*
X1022441Y7074086D02*
X1073937D01*
X1022441Y7152827D02*
X1073937D01*
X1022441Y7231567D02*
X1073937D01*
X1022441Y7310307D02*
X1073937D01*
X1022441Y7389047D02*
X1073937D01*
X1022441Y7467787D02*
X1073937D01*
X1022441Y7546527D02*
X1073937D01*
X325591D02*
X377087D01*
X325591Y7467787D02*
X377087D01*
X325591Y7389047D02*
X377087D01*
X325591Y7310307D02*
X377087D01*
X325591Y7231567D02*
X377087D01*
X325591Y7152827D02*
X377087D01*
X325591Y7074086D02*
X377087D01*
X325591Y6995346D02*
X377087D01*
G54D12*
X546024Y7905075D02*
Y7942075D01*
X577520Y7905075D02*
Y7942075D01*
X609016Y7905075D02*
Y7942075D01*
X640512Y7905075D02*
Y7942075D01*
X672008Y7905075D02*
Y7942075D01*
X703504Y7905075D02*
Y7942075D01*
X735000Y7905075D02*
Y7942075D01*
X766496Y7905075D02*
Y7942075D01*
X797992Y7905075D02*
Y7942075D01*
X829488Y7905075D02*
Y7942075D01*
X860984Y7905075D02*
Y7942075D01*
X909413Y7990504D02*
X946413D01*
X909413Y8022000D02*
X946413D01*
X909413Y8053496D02*
X946413D01*
X909413Y8084992D02*
X946413D01*
X909413Y8116488D02*
X946413D01*
X909413Y8147984D02*
X946413D01*
X909413Y8179480D02*
X946413D01*
X909413Y8210976D02*
X946413D01*
X909413Y8242472D02*
X946413D01*
X909413Y8273968D02*
X946413D01*
X909413Y8305464D02*
X946413D01*
X860984Y8353894D02*
Y8390894D01*
X829488Y8353894D02*
Y8390894D01*
X797992Y8353894D02*
Y8390894D01*
X766496Y8353894D02*
Y8390894D01*
X735000Y8353894D02*
Y8390894D01*
X703504Y8353894D02*
Y8390894D01*
X672008Y8353894D02*
Y8390894D01*
X640512Y8353894D02*
Y8390894D01*
X609016Y8353894D02*
Y8390894D01*
X577520Y8353894D02*
Y8390894D01*
X546024Y8353894D02*
Y8390894D01*
X460595Y8305464D02*
X497595D01*
X460595Y8273968D02*
X497595D01*
X460595Y8242472D02*
X497595D01*
X460595Y8210976D02*
X497595D01*
X460595Y8179480D02*
X497595D01*
X460595Y8147984D02*
X497595D01*
X460595Y8116488D02*
X497595D01*
X460595Y8084992D02*
X497595D01*
X460595Y8053496D02*
X497595D01*
X460595Y8022000D02*
X497595D01*
X460595Y7990504D02*
X497595D01*
G54D13*
X309134Y9049401D02*
X319134D01*
X309134Y8965401D02*
X319134D01*
G54D14*
X239882Y8219756D02*
Y8229598D01*
Y8532748D02*
Y8542590D01*
X62717Y8219756D02*
Y8229598D01*
Y8532748D02*
Y8542590D01*
G54D13*
X1098307Y9050464D02*
X1108307D01*
X1098307Y8966464D02*
X1108307D01*
G54D15*
X164331Y7522512D02*
X211575D01*
X164331Y7404401D02*
X211575D01*
X247008Y7463457D03*
G54D10*
X680158Y8792323D03*
Y8724323D03*
X959882Y8787677D03*
Y8719677D03*
X312882Y7684677D03*
Y7752677D03*
G54D13*
X1203819Y7587472D02*
X1213819D01*
X1203819Y7671472D02*
X1213819D01*
G54D10*
X1138347Y7604654D03*
Y7672654D03*
X1216063Y8149480D03*
Y8081480D03*
X609890Y8842197D03*
X541890D03*
G54D13*
X887284Y8452433D02*
X897284D01*
X887284Y8536433D02*
X897284D01*
G54D10*
X358425Y8347315D03*
Y8279315D03*
X509526Y8442590D03*
X577526D03*
X161882Y7634677D03*
X93882D03*
X316134Y8897401D03*
Y8829401D03*
X1100307Y8905464D03*
Y8837464D03*
X184882Y8146677D03*
Y8214677D03*
X1271036Y8104672D03*
Y8036672D03*
X1267874Y7844669D03*
Y7912669D03*
X766882Y8744677D03*
Y8812677D03*
X863882Y8742677D03*
Y8810677D03*
G54D16*
X170236Y8682551D02*
Y8731763D01*
G54D10*
X1054882Y8594677D03*
X986882D03*
X124882Y7758177D02*
Y7763177D01*
X87882Y7683177D02*
Y7688177D01*
X161882Y7683177D02*
Y7688177D01*
X331882Y7623677D03*
X399882D03*
X218882Y7686677D03*
Y7754677D03*
X1238882Y7039677D03*
X1170882D03*
G54D17*
X267382Y7829677D02*
X322382D01*
X267382Y7879677D02*
X322382D01*
X267382Y7929677D02*
X322382D01*
X267382Y7979677D02*
X322382D01*
X62382D02*
X117382D01*
X62382Y7929677D02*
X117382D01*
X62382Y7879677D02*
X117382D01*
X62382Y7829677D02*
X117382D01*
G54D10*
X1216063Y10484228D03*
Y10552228D03*
G54D11*
X1022441Y9278094D02*
X1073937D01*
X1022441Y9356834D02*
X1073937D01*
X1022441Y9435575D02*
X1073937D01*
X1022441Y9514315D02*
X1073937D01*
X1022441Y9593055D02*
X1073937D01*
X1022441Y9671795D02*
X1073937D01*
X1022441Y9750535D02*
X1073937D01*
X1022441Y9829275D02*
X1073937D01*
X325591D02*
X377087D01*
X325591Y9750535D02*
X377087D01*
X325591Y9671795D02*
X377087D01*
X325591Y9593055D02*
X377087D01*
X325591Y9514315D02*
X377087D01*
X325591Y9435575D02*
X377087D01*
X325591Y9356834D02*
X377087D01*
X325591Y9278094D02*
X377087D01*
G54D12*
X546024Y10187823D02*
Y10224823D01*
X577520Y10187823D02*
Y10224823D01*
X609016Y10187823D02*
Y10224823D01*
X640512Y10187823D02*
Y10224823D01*
X672008Y10187823D02*
Y10224823D01*
X703504Y10187823D02*
Y10224823D01*
X735000Y10187823D02*
Y10224823D01*
X766496Y10187823D02*
Y10224823D01*
X797992Y10187823D02*
Y10224823D01*
X829488Y10187823D02*
Y10224823D01*
X860984Y10187823D02*
Y10224823D01*
X909413Y10273252D02*
X946413D01*
X909413Y10304748D02*
X946413D01*
X909413Y10336244D02*
X946413D01*
X909413Y10367740D02*
X946413D01*
X909413Y10399236D02*
X946413D01*
X909413Y10430732D02*
X946413D01*
X909413Y10462228D02*
X946413D01*
X909413Y10493724D02*
X946413D01*
X909413Y10525220D02*
X946413D01*
X909413Y10556716D02*
X946413D01*
X909413Y10588212D02*
X946413D01*
X860984Y10636642D02*
Y10673642D01*
X829488Y10636642D02*
Y10673642D01*
X797992Y10636642D02*
Y10673642D01*
X766496Y10636642D02*
Y10673642D01*
X735000Y10636642D02*
Y10673642D01*
X703504Y10636642D02*
Y10673642D01*
X672008Y10636642D02*
Y10673642D01*
X640512Y10636642D02*
Y10673642D01*
X609016Y10636642D02*
Y10673642D01*
X577520Y10636642D02*
Y10673642D01*
X546024Y10636642D02*
Y10673642D01*
X460595Y10588212D02*
X497595D01*
X460595Y10556716D02*
X497595D01*
X460595Y10525220D02*
X497595D01*
X460595Y10493724D02*
X497595D01*
X460595Y10462228D02*
X497595D01*
X460595Y10430732D02*
X497595D01*
X460595Y10399236D02*
X497595D01*
X460595Y10367740D02*
X497595D01*
X460595Y10336244D02*
X497595D01*
X460595Y10304748D02*
X497595D01*
X460595Y10273252D02*
X497595D01*
G54D13*
X309134Y11332149D02*
X319134D01*
X309134Y11248149D02*
X319134D01*
G54D14*
X239882Y10502504D02*
Y10512346D01*
Y10815496D02*
Y10825338D01*
X62717Y10502504D02*
Y10512346D01*
Y10815496D02*
Y10825338D01*
G54D13*
X1098307Y11333212D02*
X1108307D01*
X1098307Y11249212D02*
X1108307D01*
G54D15*
X164331Y9805260D02*
X211575D01*
X164331Y9687149D02*
X211575D01*
X247008Y9746205D03*
G54D10*
X680158Y11075071D03*
Y11007071D03*
X959882Y11070425D03*
Y11002425D03*
X312882Y9967425D03*
Y10035425D03*
G54D13*
X1203819Y9870220D02*
X1213819D01*
X1203819Y9954220D02*
X1213819D01*
G54D10*
X1138347Y9887402D03*
Y9955402D03*
X1216063Y10432228D03*
Y10364228D03*
X609890Y11124945D03*
X541890D03*
G54D13*
X887284Y10735181D02*
X897284D01*
X887284Y10819181D02*
X897284D01*
G54D10*
X358425Y10630063D03*
Y10562063D03*
X509526Y10725338D03*
X577526D03*
X161882Y9917425D03*
X93882D03*
X316134Y11180149D03*
Y11112149D03*
X1100307Y11188212D03*
Y11120212D03*
X184882Y10429425D03*
Y10497425D03*
X1271036Y10387420D03*
Y10319420D03*
X1267874Y10127417D03*
Y10195417D03*
X766882Y11027425D03*
Y11095425D03*
X863882Y11025425D03*
Y11093425D03*
G54D16*
X170236Y10965299D02*
Y11014511D01*
G54D10*
X1054882Y10877425D03*
X986882D03*
X124882Y10040925D02*
Y10045925D01*
X87882Y9965925D02*
Y9970925D01*
X161882Y9965925D02*
Y9970925D01*
X331882Y9906425D03*
X399882D03*
X218882Y9969425D03*
Y10037425D03*
X1238882Y9322425D03*
X1170882D03*
G54D17*
X267382Y10112425D02*
X322382D01*
X267382Y10162425D02*
X322382D01*
X267382Y10212425D02*
X322382D01*
X267382Y10262425D02*
X322382D01*
X62382D02*
X117382D01*
X62382Y10212425D02*
X117382D01*
X62382Y10162425D02*
X117382D01*
X62382Y10112425D02*
X117382D01*
G54D10*
X2670315Y1353236D03*
Y1421236D03*
G54D11*
X2476693Y147102D02*
X2528189D01*
X2476693Y225842D02*
X2528189D01*
X2476693Y304583D02*
X2528189D01*
X2476693Y383323D02*
X2528189D01*
X2476693Y462063D02*
X2528189D01*
X2476693Y540803D02*
X2528189D01*
X2476693Y619543D02*
X2528189D01*
X2476693Y698283D02*
X2528189D01*
X1779843D02*
X1831339D01*
X1779843Y619543D02*
X1831339D01*
X1779843Y540803D02*
X1831339D01*
X1779843Y462063D02*
X1831339D01*
X1779843Y383323D02*
X1831339D01*
X1779843Y304583D02*
X1831339D01*
X1779843Y225842D02*
X1831339D01*
X1779843Y147102D02*
X1831339D01*
G54D12*
X2000276Y1056831D02*
Y1093831D01*
X2031772Y1056831D02*
Y1093831D01*
X2063268Y1056831D02*
Y1093831D01*
X2094764Y1056831D02*
Y1093831D01*
X2126260Y1056831D02*
Y1093831D01*
X2157756Y1056831D02*
Y1093831D01*
X2189252Y1056831D02*
Y1093831D01*
X2220748Y1056831D02*
Y1093831D01*
X2252244Y1056831D02*
Y1093831D01*
X2283740Y1056831D02*
Y1093831D01*
X2315236Y1056831D02*
Y1093831D01*
X2363665Y1142260D02*
X2400665D01*
X2363665Y1173756D02*
X2400665D01*
X2363665Y1205252D02*
X2400665D01*
X2363665Y1236748D02*
X2400665D01*
X2363665Y1268244D02*
X2400665D01*
X2363665Y1299740D02*
X2400665D01*
X2363665Y1331236D02*
X2400665D01*
X2363665Y1362732D02*
X2400665D01*
X2363665Y1394228D02*
X2400665D01*
X2363665Y1425724D02*
X2400665D01*
X2363665Y1457220D02*
X2400665D01*
X2315236Y1505650D02*
Y1542650D01*
X2283740Y1505650D02*
Y1542650D01*
X2252244Y1505650D02*
Y1542650D01*
X2220748Y1505650D02*
Y1542650D01*
X2189252Y1505650D02*
Y1542650D01*
X2157756Y1505650D02*
Y1542650D01*
X2126260Y1505650D02*
Y1542650D01*
X2094764Y1505650D02*
Y1542650D01*
X2063268Y1505650D02*
Y1542650D01*
X2031772Y1505650D02*
Y1542650D01*
X2000276Y1505650D02*
Y1542650D01*
X1914847Y1457220D02*
X1951847D01*
X1914847Y1425724D02*
X1951847D01*
X1914847Y1394228D02*
X1951847D01*
X1914847Y1362732D02*
X1951847D01*
X1914847Y1331236D02*
X1951847D01*
X1914847Y1299740D02*
X1951847D01*
X1914847Y1268244D02*
X1951847D01*
X1914847Y1236748D02*
X1951847D01*
X1914847Y1205252D02*
X1951847D01*
X1914847Y1173756D02*
X1951847D01*
X1914847Y1142260D02*
X1951847D01*
G54D13*
X1763386Y2201157D02*
X1773386D01*
X1763386Y2117157D02*
X1773386D01*
G54D14*
X1694134Y1371512D02*
Y1381355D01*
Y1684504D02*
Y1694347D01*
X1516969Y1371512D02*
Y1381355D01*
Y1684504D02*
Y1694347D01*
G54D13*
X2552559Y2202220D02*
X2562559D01*
X2552559Y2118220D02*
X2562559D01*
G54D15*
X1618583Y674268D02*
X1665827D01*
X1618583Y556157D02*
X1665827D01*
X1701260Y615213D03*
G54D10*
X2134410Y1944079D03*
Y1876079D03*
X2414134Y1939433D03*
Y1871433D03*
X1767134Y836433D03*
Y904433D03*
G54D13*
X2658071Y739228D02*
X2668071D01*
X2658071Y823228D02*
X2668071D01*
G54D10*
X2592599Y756410D03*
Y824410D03*
X2670315Y1301236D03*
Y1233236D03*
X2064142Y1993953D03*
X1996142D03*
G54D13*
X2341536Y1604189D02*
X2351536D01*
X2341536Y1688189D02*
X2351536D01*
G54D10*
X1812677Y1499071D03*
Y1431071D03*
X1963778Y1594346D03*
X2031778D03*
X1616134Y786433D03*
X1548134D03*
X1770386Y2049157D03*
Y1981157D03*
X2554559Y2057220D03*
Y1989220D03*
X1639134Y1298433D03*
Y1366433D03*
X2725288Y1256428D03*
Y1188428D03*
X2722126Y996425D03*
Y1064425D03*
X2221134Y1896433D03*
Y1964433D03*
X2318134Y1894433D03*
Y1962433D03*
G54D16*
X1624488Y1834307D02*
Y1883520D01*
G54D10*
X2509134Y1746433D03*
X2441134D03*
X1579134Y909933D02*
Y914933D01*
X1542134Y834933D02*
Y839933D01*
X1616134Y834933D02*
Y839933D01*
X1786134Y775433D03*
X1854134D03*
X1673134Y838433D03*
Y906433D03*
X2693134Y191433D03*
X2625134D03*
G54D17*
X1721634Y981433D02*
X1776634D01*
X1721634Y1031433D02*
X1776634D01*
X1721634Y1081433D02*
X1776634D01*
X1721634Y1131433D02*
X1776634D01*
X1516634D02*
X1571634D01*
X1516634Y1081433D02*
X1571634D01*
X1516634Y1031433D02*
X1571634D01*
X1516634Y981433D02*
X1571634D01*
G54D10*
X2670315Y3635984D03*
Y3703984D03*
G54D11*
X2476693Y2429850D02*
X2528189D01*
X2476693Y2508590D02*
X2528189D01*
X2476693Y2587331D02*
X2528189D01*
X2476693Y2666071D02*
X2528189D01*
X2476693Y2744811D02*
X2528189D01*
X2476693Y2823551D02*
X2528189D01*
X2476693Y2902291D02*
X2528189D01*
X2476693Y2981031D02*
X2528189D01*
X1779843D02*
X1831339D01*
X1779843Y2902291D02*
X1831339D01*
X1779843Y2823551D02*
X1831339D01*
X1779843Y2744811D02*
X1831339D01*
X1779843Y2666071D02*
X1831339D01*
X1779843Y2587331D02*
X1831339D01*
X1779843Y2508590D02*
X1831339D01*
X1779843Y2429850D02*
X1831339D01*
G54D12*
X2000276Y3339579D02*
Y3376579D01*
X2031772Y3339579D02*
Y3376579D01*
X2063268Y3339579D02*
Y3376579D01*
X2094764Y3339579D02*
Y3376579D01*
X2126260Y3339579D02*
Y3376579D01*
X2157756Y3339579D02*
Y3376579D01*
X2189252Y3339579D02*
Y3376579D01*
X2220748Y3339579D02*
Y3376579D01*
X2252244Y3339579D02*
Y3376579D01*
X2283740Y3339579D02*
Y3376579D01*
X2315236Y3339579D02*
Y3376579D01*
X2363665Y3425008D02*
X2400665D01*
X2363665Y3456504D02*
X2400665D01*
X2363665Y3488000D02*
X2400665D01*
X2363665Y3519496D02*
X2400665D01*
X2363665Y3550992D02*
X2400665D01*
X2363665Y3582488D02*
X2400665D01*
X2363665Y3613984D02*
X2400665D01*
X2363665Y3645480D02*
X2400665D01*
X2363665Y3676976D02*
X2400665D01*
X2363665Y3708472D02*
X2400665D01*
X2363665Y3739968D02*
X2400665D01*
X2315236Y3788398D02*
Y3825398D01*
X2283740Y3788398D02*
Y3825398D01*
X2252244Y3788398D02*
Y3825398D01*
X2220748Y3788398D02*
Y3825398D01*
X2189252Y3788398D02*
Y3825398D01*
X2157756Y3788398D02*
Y3825398D01*
X2126260Y3788398D02*
Y3825398D01*
X2094764Y3788398D02*
Y3825398D01*
X2063268Y3788398D02*
Y3825398D01*
X2031772Y3788398D02*
Y3825398D01*
X2000276Y3788398D02*
Y3825398D01*
X1914847Y3739968D02*
X1951847D01*
X1914847Y3708472D02*
X1951847D01*
X1914847Y3676976D02*
X1951847D01*
X1914847Y3645480D02*
X1951847D01*
X1914847Y3613984D02*
X1951847D01*
X1914847Y3582488D02*
X1951847D01*
X1914847Y3550992D02*
X1951847D01*
X1914847Y3519496D02*
X1951847D01*
X1914847Y3488000D02*
X1951847D01*
X1914847Y3456504D02*
X1951847D01*
X1914847Y3425008D02*
X1951847D01*
G54D13*
X1763386Y4483905D02*
X1773386D01*
X1763386Y4399905D02*
X1773386D01*
G54D14*
X1694134Y3654260D02*
Y3664102D01*
Y3967252D02*
Y3977094D01*
X1516969Y3654260D02*
Y3664102D01*
Y3967252D02*
Y3977094D01*
G54D13*
X2552559Y4484968D02*
X2562559D01*
X2552559Y4400968D02*
X2562559D01*
G54D15*
X1618583Y2957016D02*
X1665827D01*
X1618583Y2838905D02*
X1665827D01*
X1701260Y2897961D03*
G54D10*
X2134410Y4226827D03*
Y4158827D03*
X2414134Y4222181D03*
Y4154181D03*
X1767134Y3119181D03*
Y3187181D03*
G54D13*
X2658071Y3021976D02*
X2668071D01*
X2658071Y3105976D02*
X2668071D01*
G54D10*
X2592599Y3039158D03*
Y3107158D03*
X2670315Y3583984D03*
Y3515984D03*
X2064142Y4276701D03*
X1996142D03*
G54D13*
X2341536Y3886937D02*
X2351536D01*
X2341536Y3970937D02*
X2351536D01*
G54D10*
X1812677Y3781819D03*
Y3713819D03*
X1963778Y3877094D03*
X2031778D03*
X1616134Y3069181D03*
X1548134D03*
X1770386Y4331905D03*
Y4263905D03*
X2554559Y4339968D03*
Y4271968D03*
X1639134Y3581181D03*
Y3649181D03*
X2725288Y3539176D03*
Y3471176D03*
X2722126Y3279173D03*
Y3347173D03*
X2221134Y4179181D03*
Y4247181D03*
X2318134Y4177181D03*
Y4245181D03*
G54D16*
X1624488Y4117055D02*
Y4166268D01*
G54D10*
X2509134Y4029181D03*
X2441134D03*
X1579134Y3192681D02*
Y3197681D01*
X1542134Y3117681D02*
Y3122681D01*
X1616134Y3117681D02*
Y3122681D01*
X1786134Y3058181D03*
X1854134D03*
X1673134Y3121181D03*
Y3189181D03*
X2693134Y2474181D03*
X2625134D03*
G54D17*
X1721634Y3264181D02*
X1776634D01*
X1721634Y3314181D02*
X1776634D01*
X1721634Y3364181D02*
X1776634D01*
X1721634Y3414181D02*
X1776634D01*
X1516634D02*
X1571634D01*
X1516634Y3364181D02*
X1571634D01*
X1516634Y3314181D02*
X1571634D01*
X1516634Y3264181D02*
X1571634D01*
G54D10*
X2670315Y5918732D03*
Y5986732D03*
G54D11*
X2476693Y4712598D02*
X2528189D01*
X2476693Y4791338D02*
X2528189D01*
X2476693Y4870079D02*
X2528189D01*
X2476693Y4948819D02*
X2528189D01*
X2476693Y5027559D02*
X2528189D01*
X2476693Y5106299D02*
X2528189D01*
X2476693Y5185039D02*
X2528189D01*
X2476693Y5263779D02*
X2528189D01*
X1779843D02*
X1831339D01*
X1779843Y5185039D02*
X1831339D01*
X1779843Y5106299D02*
X1831339D01*
X1779843Y5027559D02*
X1831339D01*
X1779843Y4948819D02*
X1831339D01*
X1779843Y4870079D02*
X1831339D01*
X1779843Y4791338D02*
X1831339D01*
X1779843Y4712598D02*
X1831339D01*
G54D12*
X2000276Y5622327D02*
Y5659327D01*
X2031772Y5622327D02*
Y5659327D01*
X2063268Y5622327D02*
Y5659327D01*
X2094764Y5622327D02*
Y5659327D01*
X2126260Y5622327D02*
Y5659327D01*
X2157756Y5622327D02*
Y5659327D01*
X2189252Y5622327D02*
Y5659327D01*
X2220748Y5622327D02*
Y5659327D01*
X2252244Y5622327D02*
Y5659327D01*
X2283740Y5622327D02*
Y5659327D01*
X2315236Y5622327D02*
Y5659327D01*
X2363665Y5707756D02*
X2400665D01*
X2363665Y5739252D02*
X2400665D01*
X2363665Y5770748D02*
X2400665D01*
X2363665Y5802244D02*
X2400665D01*
X2363665Y5833740D02*
X2400665D01*
X2363665Y5865236D02*
X2400665D01*
X2363665Y5896732D02*
X2400665D01*
X2363665Y5928228D02*
X2400665D01*
X2363665Y5959724D02*
X2400665D01*
X2363665Y5991220D02*
X2400665D01*
X2363665Y6022716D02*
X2400665D01*
X2315236Y6071146D02*
Y6108146D01*
X2283740Y6071146D02*
Y6108146D01*
X2252244Y6071146D02*
Y6108146D01*
X2220748Y6071146D02*
Y6108146D01*
X2189252Y6071146D02*
Y6108146D01*
X2157756Y6071146D02*
Y6108146D01*
X2126260Y6071146D02*
Y6108146D01*
X2094764Y6071146D02*
Y6108146D01*
X2063268Y6071146D02*
Y6108146D01*
X2031772Y6071146D02*
Y6108146D01*
X2000276Y6071146D02*
Y6108146D01*
X1914847Y6022716D02*
X1951847D01*
X1914847Y5991220D02*
X1951847D01*
X1914847Y5959724D02*
X1951847D01*
X1914847Y5928228D02*
X1951847D01*
X1914847Y5896732D02*
X1951847D01*
X1914847Y5865236D02*
X1951847D01*
X1914847Y5833740D02*
X1951847D01*
X1914847Y5802244D02*
X1951847D01*
X1914847Y5770748D02*
X1951847D01*
X1914847Y5739252D02*
X1951847D01*
X1914847Y5707756D02*
X1951847D01*
G54D13*
X1763386Y6766653D02*
X1773386D01*
X1763386Y6682653D02*
X1773386D01*
G54D14*
X1694134Y5937008D02*
Y5946850D01*
Y6250000D02*
Y6259842D01*
X1516969Y5937008D02*
Y5946850D01*
Y6250000D02*
Y6259842D01*
G54D13*
X2552559Y6767716D02*
X2562559D01*
X2552559Y6683716D02*
X2562559D01*
G54D15*
X1618583Y5239764D02*
X1665827D01*
X1618583Y5121653D02*
X1665827D01*
X1701260Y5180709D03*
G54D10*
X2134410Y6509575D03*
Y6441575D03*
X2414134Y6504929D03*
Y6436929D03*
X1767134Y5401929D03*
Y5469929D03*
G54D13*
X2658071Y5304724D02*
X2668071D01*
X2658071Y5388724D02*
X2668071D01*
G54D10*
X2592599Y5321906D03*
Y5389906D03*
X2670315Y5866732D03*
Y5798732D03*
X2064142Y6559449D03*
X1996142D03*
G54D13*
X2341536Y6169685D02*
X2351536D01*
X2341536Y6253685D02*
X2351536D01*
G54D10*
X1812677Y6064567D03*
Y5996567D03*
X1963778Y6159842D03*
X2031778D03*
X1616134Y5351929D03*
X1548134D03*
X1770386Y6614653D03*
Y6546653D03*
X2554559Y6622716D03*
Y6554716D03*
X1639134Y5863929D03*
Y5931929D03*
X2725288Y5821924D03*
Y5753924D03*
X2722126Y5561921D03*
Y5629921D03*
X2221134Y6461929D03*
Y6529929D03*
X2318134Y6459929D03*
Y6527929D03*
G54D16*
X1624488Y6399803D02*
Y6449015D01*
G54D10*
X2509134Y6311929D03*
X2441134D03*
X1579134Y5475429D02*
Y5480429D01*
X1542134Y5400429D02*
Y5405429D01*
X1616134Y5400429D02*
Y5405429D01*
X1786134Y5340929D03*
X1854134D03*
X1673134Y5403929D03*
Y5471929D03*
X2693134Y4756929D03*
X2625134D03*
G54D17*
X1721634Y5546929D02*
X1776634D01*
X1721634Y5596929D02*
X1776634D01*
X1721634Y5646929D02*
X1776634D01*
X1721634Y5696929D02*
X1776634D01*
X1516634D02*
X1571634D01*
X1516634Y5646929D02*
X1571634D01*
X1516634Y5596929D02*
X1571634D01*
X1516634Y5546929D02*
X1571634D01*
G54D10*
X2670315Y8201480D03*
Y8269480D03*
G54D11*
X2476693Y6995346D02*
X2528189D01*
X2476693Y7074086D02*
X2528189D01*
X2476693Y7152827D02*
X2528189D01*
X2476693Y7231567D02*
X2528189D01*
X2476693Y7310307D02*
X2528189D01*
X2476693Y7389047D02*
X2528189D01*
X2476693Y7467787D02*
X2528189D01*
X2476693Y7546527D02*
X2528189D01*
X1779843D02*
X1831339D01*
X1779843Y7467787D02*
X1831339D01*
X1779843Y7389047D02*
X1831339D01*
X1779843Y7310307D02*
X1831339D01*
X1779843Y7231567D02*
X1831339D01*
X1779843Y7152827D02*
X1831339D01*
X1779843Y7074086D02*
X1831339D01*
X1779843Y6995346D02*
X1831339D01*
G54D12*
X2000276Y7905075D02*
Y7942075D01*
X2031772Y7905075D02*
Y7942075D01*
X2063268Y7905075D02*
Y7942075D01*
X2094764Y7905075D02*
Y7942075D01*
X2126260Y7905075D02*
Y7942075D01*
X2157756Y7905075D02*
Y7942075D01*
X2189252Y7905075D02*
Y7942075D01*
X2220748Y7905075D02*
Y7942075D01*
X2252244Y7905075D02*
Y7942075D01*
X2283740Y7905075D02*
Y7942075D01*
X2315236Y7905075D02*
Y7942075D01*
X2363665Y7990504D02*
X2400665D01*
X2363665Y8022000D02*
X2400665D01*
X2363665Y8053496D02*
X2400665D01*
X2363665Y8084992D02*
X2400665D01*
X2363665Y8116488D02*
X2400665D01*
X2363665Y8147984D02*
X2400665D01*
X2363665Y8179480D02*
X2400665D01*
X2363665Y8210976D02*
X2400665D01*
X2363665Y8242472D02*
X2400665D01*
X2363665Y8273968D02*
X2400665D01*
X2363665Y8305464D02*
X2400665D01*
X2315236Y8353894D02*
Y8390894D01*
X2283740Y8353894D02*
Y8390894D01*
X2252244Y8353894D02*
Y8390894D01*
X2220748Y8353894D02*
Y8390894D01*
X2189252Y8353894D02*
Y8390894D01*
X2157756Y8353894D02*
Y8390894D01*
X2126260Y8353894D02*
Y8390894D01*
X2094764Y8353894D02*
Y8390894D01*
X2063268Y8353894D02*
Y8390894D01*
X2031772Y8353894D02*
Y8390894D01*
X2000276Y8353894D02*
Y8390894D01*
X1914847Y8305464D02*
X1951847D01*
X1914847Y8273968D02*
X1951847D01*
X1914847Y8242472D02*
X1951847D01*
X1914847Y8210976D02*
X1951847D01*
X1914847Y8179480D02*
X1951847D01*
X1914847Y8147984D02*
X1951847D01*
X1914847Y8116488D02*
X1951847D01*
X1914847Y8084992D02*
X1951847D01*
X1914847Y8053496D02*
X1951847D01*
X1914847Y8022000D02*
X1951847D01*
X1914847Y7990504D02*
X1951847D01*
G54D13*
X1763386Y9049401D02*
X1773386D01*
X1763386Y8965401D02*
X1773386D01*
G54D14*
X1694134Y8219756D02*
Y8229598D01*
Y8532748D02*
Y8542590D01*
X1516969Y8219756D02*
Y8229598D01*
Y8532748D02*
Y8542590D01*
G54D13*
X2552559Y9050464D02*
X2562559D01*
X2552559Y8966464D02*
X2562559D01*
G54D15*
X1618583Y7522512D02*
X1665827D01*
X1618583Y7404401D02*
X1665827D01*
X1701260Y7463457D03*
G54D10*
X2134410Y8792323D03*
Y8724323D03*
X2414134Y8787677D03*
Y8719677D03*
X1767134Y7684677D03*
Y7752677D03*
G54D13*
X2658071Y7587472D02*
X2668071D01*
X2658071Y7671472D02*
X2668071D01*
G54D10*
X2592599Y7604654D03*
Y7672654D03*
X2670315Y8149480D03*
Y8081480D03*
X2064142Y8842197D03*
X1996142D03*
G54D13*
X2341536Y8452433D02*
X2351536D01*
X2341536Y8536433D02*
X2351536D01*
G54D10*
X1812677Y8347315D03*
Y8279315D03*
X1963778Y8442590D03*
X2031778D03*
X1616134Y7634677D03*
X1548134D03*
X1770386Y8897401D03*
Y8829401D03*
X2554559Y8905464D03*
Y8837464D03*
X1639134Y8146677D03*
Y8214677D03*
X2725288Y8104672D03*
Y8036672D03*
X2722126Y7844669D03*
Y7912669D03*
X2221134Y8744677D03*
Y8812677D03*
X2318134Y8742677D03*
Y8810677D03*
G54D16*
X1624488Y8682551D02*
Y8731763D01*
G54D10*
X2509134Y8594677D03*
X2441134D03*
X1579134Y7758177D02*
Y7763177D01*
X1542134Y7683177D02*
Y7688177D01*
X1616134Y7683177D02*
Y7688177D01*
X1786134Y7623677D03*
X1854134D03*
X1673134Y7686677D03*
Y7754677D03*
X2693134Y7039677D03*
X2625134D03*
G54D17*
X1721634Y7829677D02*
X1776634D01*
X1721634Y7879677D02*
X1776634D01*
X1721634Y7929677D02*
X1776634D01*
X1721634Y7979677D02*
X1776634D01*
X1516634D02*
X1571634D01*
X1516634Y7929677D02*
X1571634D01*
X1516634Y7879677D02*
X1571634D01*
X1516634Y7829677D02*
X1571634D01*
G54D10*
X2670315Y10484228D03*
Y10552228D03*
G54D11*
X2476693Y9278094D02*
X2528189D01*
X2476693Y9356834D02*
X2528189D01*
X2476693Y9435575D02*
X2528189D01*
X2476693Y9514315D02*
X2528189D01*
X2476693Y9593055D02*
X2528189D01*
X2476693Y9671795D02*
X2528189D01*
X2476693Y9750535D02*
X2528189D01*
X2476693Y9829275D02*
X2528189D01*
X1779843D02*
X1831339D01*
X1779843Y9750535D02*
X1831339D01*
X1779843Y9671795D02*
X1831339D01*
X1779843Y9593055D02*
X1831339D01*
X1779843Y9514315D02*
X1831339D01*
X1779843Y9435575D02*
X1831339D01*
X1779843Y9356834D02*
X1831339D01*
X1779843Y9278094D02*
X1831339D01*
G54D12*
X2000276Y10187823D02*
Y10224823D01*
X2031772Y10187823D02*
Y10224823D01*
X2063268Y10187823D02*
Y10224823D01*
X2094764Y10187823D02*
Y10224823D01*
X2126260Y10187823D02*
Y10224823D01*
X2157756Y10187823D02*
Y10224823D01*
X2189252Y10187823D02*
Y10224823D01*
X2220748Y10187823D02*
Y10224823D01*
X2252244Y10187823D02*
Y10224823D01*
X2283740Y10187823D02*
Y10224823D01*
X2315236Y10187823D02*
Y10224823D01*
X2363665Y10273252D02*
X2400665D01*
X2363665Y10304748D02*
X2400665D01*
X2363665Y10336244D02*
X2400665D01*
X2363665Y10367740D02*
X2400665D01*
X2363665Y10399236D02*
X2400665D01*
X2363665Y10430732D02*
X2400665D01*
X2363665Y10462228D02*
X2400665D01*
X2363665Y10493724D02*
X2400665D01*
X2363665Y10525220D02*
X2400665D01*
X2363665Y10556716D02*
X2400665D01*
X2363665Y10588212D02*
X2400665D01*
X2315236Y10636642D02*
Y10673642D01*
X2283740Y10636642D02*
Y10673642D01*
X2252244Y10636642D02*
Y10673642D01*
X2220748Y10636642D02*
Y10673642D01*
X2189252Y10636642D02*
Y10673642D01*
X2157756Y10636642D02*
Y10673642D01*
X2126260Y10636642D02*
Y10673642D01*
X2094764Y10636642D02*
Y10673642D01*
X2063268Y10636642D02*
Y10673642D01*
X2031772Y10636642D02*
Y10673642D01*
X2000276Y10636642D02*
Y10673642D01*
X1914847Y10588212D02*
X1951847D01*
X1914847Y10556716D02*
X1951847D01*
X1914847Y10525220D02*
X1951847D01*
X1914847Y10493724D02*
X1951847D01*
X1914847Y10462228D02*
X1951847D01*
X1914847Y10430732D02*
X1951847D01*
X1914847Y10399236D02*
X1951847D01*
X1914847Y10367740D02*
X1951847D01*
X1914847Y10336244D02*
X1951847D01*
X1914847Y10304748D02*
X1951847D01*
X1914847Y10273252D02*
X1951847D01*
G54D13*
X1763386Y11332149D02*
X1773386D01*
X1763386Y11248149D02*
X1773386D01*
G54D14*
X1694134Y10502504D02*
Y10512346D01*
Y10815496D02*
Y10825338D01*
X1516969Y10502504D02*
Y10512346D01*
Y10815496D02*
Y10825338D01*
G54D13*
X2552559Y11333212D02*
X2562559D01*
X2552559Y11249212D02*
X2562559D01*
G54D15*
X1618583Y9805260D02*
X1665827D01*
X1618583Y9687149D02*
X1665827D01*
X1701260Y9746205D03*
G54D10*
X2134410Y11075071D03*
Y11007071D03*
X2414134Y11070425D03*
Y11002425D03*
X1767134Y9967425D03*
Y10035425D03*
G54D13*
X2658071Y9870220D02*
X2668071D01*
X2658071Y9954220D02*
X2668071D01*
G54D10*
X2592599Y9887402D03*
Y9955402D03*
X2670315Y10432228D03*
Y10364228D03*
X2064142Y11124945D03*
X1996142D03*
G54D13*
X2341536Y10735181D02*
X2351536D01*
X2341536Y10819181D02*
X2351536D01*
G54D10*
X1812677Y10630063D03*
Y10562063D03*
X1963778Y10725338D03*
X2031778D03*
X1616134Y9917425D03*
X1548134D03*
X1770386Y11180149D03*
Y11112149D03*
X2554559Y11188212D03*
Y11120212D03*
X1639134Y10429425D03*
Y10497425D03*
X2725288Y10387420D03*
Y10319420D03*
X2722126Y10127417D03*
Y10195417D03*
X2221134Y11027425D03*
Y11095425D03*
X2318134Y11025425D03*
Y11093425D03*
G54D16*
X1624488Y10965299D02*
Y11014511D01*
G54D10*
X2509134Y10877425D03*
X2441134D03*
X1579134Y10040925D02*
Y10045925D01*
X1542134Y9965925D02*
Y9970925D01*
X1616134Y9965925D02*
Y9970925D01*
X1786134Y9906425D03*
X1854134D03*
X1673134Y9969425D03*
Y10037425D03*
X2693134Y9322425D03*
X2625134D03*
G54D17*
X1721634Y10112425D02*
X1776634D01*
X1721634Y10162425D02*
X1776634D01*
X1721634Y10212425D02*
X1776634D01*
X1721634Y10262425D02*
X1776634D01*
X1516634D02*
X1571634D01*
X1516634Y10212425D02*
X1571634D01*
X1516634Y10162425D02*
X1571634D01*
X1516634Y10112425D02*
X1571634D01*
G54D10*
X4124567Y1353236D03*
Y1421236D03*
G54D11*
X3930945Y147102D02*
X3982441D01*
X3930945Y225842D02*
X3982441D01*
X3930945Y304583D02*
X3982441D01*
X3930945Y383323D02*
X3982441D01*
X3930945Y462063D02*
X3982441D01*
X3930945Y540803D02*
X3982441D01*
X3930945Y619543D02*
X3982441D01*
X3930945Y698283D02*
X3982441D01*
X3234095D02*
X3285591D01*
X3234095Y619543D02*
X3285591D01*
X3234095Y540803D02*
X3285591D01*
X3234095Y462063D02*
X3285591D01*
X3234095Y383323D02*
X3285591D01*
X3234095Y304583D02*
X3285591D01*
X3234095Y225842D02*
X3285591D01*
X3234095Y147102D02*
X3285591D01*
G54D12*
X3454528Y1056831D02*
Y1093831D01*
X3486024Y1056831D02*
Y1093831D01*
X3517520Y1056831D02*
Y1093831D01*
X3549016Y1056831D02*
Y1093831D01*
X3580512Y1056831D02*
Y1093831D01*
X3612008Y1056831D02*
Y1093831D01*
X3643504Y1056831D02*
Y1093831D01*
X3675000Y1056831D02*
Y1093831D01*
X3706496Y1056831D02*
Y1093831D01*
X3737992Y1056831D02*
Y1093831D01*
X3769488Y1056831D02*
Y1093831D01*
X3817917Y1142260D02*
X3854917D01*
X3817917Y1173756D02*
X3854917D01*
X3817917Y1205252D02*
X3854917D01*
X3817917Y1236748D02*
X3854917D01*
X3817917Y1268244D02*
X3854917D01*
X3817917Y1299740D02*
X3854917D01*
X3817917Y1331236D02*
X3854917D01*
X3817917Y1362732D02*
X3854917D01*
X3817917Y1394228D02*
X3854917D01*
X3817917Y1425724D02*
X3854917D01*
X3817917Y1457220D02*
X3854917D01*
X3769488Y1505650D02*
Y1542650D01*
X3737992Y1505650D02*
Y1542650D01*
X3706496Y1505650D02*
Y1542650D01*
X3675000Y1505650D02*
Y1542650D01*
X3643504Y1505650D02*
Y1542650D01*
X3612008Y1505650D02*
Y1542650D01*
X3580512Y1505650D02*
Y1542650D01*
X3549016Y1505650D02*
Y1542650D01*
X3517520Y1505650D02*
Y1542650D01*
X3486024Y1505650D02*
Y1542650D01*
X3454528Y1505650D02*
Y1542650D01*
X3369099Y1457220D02*
X3406099D01*
X3369099Y1425724D02*
X3406099D01*
X3369099Y1394228D02*
X3406099D01*
X3369099Y1362732D02*
X3406099D01*
X3369099Y1331236D02*
X3406099D01*
X3369099Y1299740D02*
X3406099D01*
X3369099Y1268244D02*
X3406099D01*
X3369099Y1236748D02*
X3406099D01*
X3369099Y1205252D02*
X3406099D01*
X3369099Y1173756D02*
X3406099D01*
X3369099Y1142260D02*
X3406099D01*
G54D13*
X3217638Y2201157D02*
X3227638D01*
X3217638Y2117157D02*
X3227638D01*
G54D14*
X3148386Y1371512D02*
Y1381355D01*
Y1684504D02*
Y1694347D01*
X2971221Y1371512D02*
Y1381355D01*
Y1684504D02*
Y1694347D01*
G54D13*
X4006811Y2202220D02*
X4016811D01*
X4006811Y2118220D02*
X4016811D01*
G54D15*
X3072835Y674268D02*
X3120079D01*
X3072835Y556157D02*
X3120079D01*
X3155512Y615213D03*
G54D10*
X3588662Y1944079D03*
Y1876079D03*
X3868386Y1939433D03*
Y1871433D03*
X3221386Y836433D03*
Y904433D03*
G54D13*
X4112323Y739228D02*
X4122323D01*
X4112323Y823228D02*
X4122323D01*
G54D10*
X4046851Y756410D03*
Y824410D03*
X4124567Y1301236D03*
Y1233236D03*
X3518394Y1993953D03*
X3450394D03*
G54D13*
X3795788Y1604189D02*
X3805788D01*
X3795788Y1688189D02*
X3805788D01*
G54D10*
X3266929Y1499071D03*
Y1431071D03*
X3418030Y1594346D03*
X3486030D03*
X3070386Y786433D03*
X3002386D03*
X3224638Y2049157D03*
Y1981157D03*
X4008811Y2057220D03*
Y1989220D03*
X3093386Y1298433D03*
Y1366433D03*
X4179540Y1256428D03*
Y1188428D03*
X4176378Y996425D03*
Y1064425D03*
X3675386Y1896433D03*
Y1964433D03*
X3772386Y1894433D03*
Y1962433D03*
G54D16*
X3078740Y1834307D02*
Y1883520D01*
G54D10*
X3963386Y1746433D03*
X3895386D03*
X3033386Y909933D02*
Y914933D01*
X2996386Y834933D02*
Y839933D01*
X3070386Y834933D02*
Y839933D01*
X3240386Y775433D03*
X3308386D03*
X3127386Y838433D03*
Y906433D03*
X4147386Y191433D03*
X4079386D03*
G54D17*
X3175886Y981433D02*
X3230886D01*
X3175886Y1031433D02*
X3230886D01*
X3175886Y1081433D02*
X3230886D01*
X3175886Y1131433D02*
X3230886D01*
X2970886D02*
X3025886D01*
X2970886Y1081433D02*
X3025886D01*
X2970886Y1031433D02*
X3025886D01*
X2970886Y981433D02*
X3025886D01*
G54D10*
X4124567Y3635984D03*
Y3703984D03*
G54D11*
X3930945Y2429850D02*
X3982441D01*
X3930945Y2508590D02*
X3982441D01*
X3930945Y2587331D02*
X3982441D01*
X3930945Y2666071D02*
X3982441D01*
X3930945Y2744811D02*
X3982441D01*
X3930945Y2823551D02*
X3982441D01*
X3930945Y2902291D02*
X3982441D01*
X3930945Y2981031D02*
X3982441D01*
X3234095D02*
X3285591D01*
X3234095Y2902291D02*
X3285591D01*
X3234095Y2823551D02*
X3285591D01*
X3234095Y2744811D02*
X3285591D01*
X3234095Y2666071D02*
X3285591D01*
X3234095Y2587331D02*
X3285591D01*
X3234095Y2508590D02*
X3285591D01*
X3234095Y2429850D02*
X3285591D01*
G54D12*
X3454528Y3339579D02*
Y3376579D01*
X3486024Y3339579D02*
Y3376579D01*
X3517520Y3339579D02*
Y3376579D01*
X3549016Y3339579D02*
Y3376579D01*
X3580512Y3339579D02*
Y3376579D01*
X3612008Y3339579D02*
Y3376579D01*
X3643504Y3339579D02*
Y3376579D01*
X3675000Y3339579D02*
Y3376579D01*
X3706496Y3339579D02*
Y3376579D01*
X3737992Y3339579D02*
Y3376579D01*
X3769488Y3339579D02*
Y3376579D01*
X3817917Y3425008D02*
X3854917D01*
X3817917Y3456504D02*
X3854917D01*
X3817917Y3488000D02*
X3854917D01*
X3817917Y3519496D02*
X3854917D01*
X3817917Y3550992D02*
X3854917D01*
X3817917Y3582488D02*
X3854917D01*
X3817917Y3613984D02*
X3854917D01*
X3817917Y3645480D02*
X3854917D01*
X3817917Y3676976D02*
X3854917D01*
X3817917Y3708472D02*
X3854917D01*
X3817917Y3739968D02*
X3854917D01*
X3769488Y3788398D02*
Y3825398D01*
X3737992Y3788398D02*
Y3825398D01*
X3706496Y3788398D02*
Y3825398D01*
X3675000Y3788398D02*
Y3825398D01*
X3643504Y3788398D02*
Y3825398D01*
X3612008Y3788398D02*
Y3825398D01*
X3580512Y3788398D02*
Y3825398D01*
X3549016Y3788398D02*
Y3825398D01*
X3517520Y3788398D02*
Y3825398D01*
X3486024Y3788398D02*
Y3825398D01*
X3454528Y3788398D02*
Y3825398D01*
X3369099Y3739968D02*
X3406099D01*
X3369099Y3708472D02*
X3406099D01*
X3369099Y3676976D02*
X3406099D01*
X3369099Y3645480D02*
X3406099D01*
X3369099Y3613984D02*
X3406099D01*
X3369099Y3582488D02*
X3406099D01*
X3369099Y3550992D02*
X3406099D01*
X3369099Y3519496D02*
X3406099D01*
X3369099Y3488000D02*
X3406099D01*
X3369099Y3456504D02*
X3406099D01*
X3369099Y3425008D02*
X3406099D01*
G54D13*
X3217638Y4483905D02*
X3227638D01*
X3217638Y4399905D02*
X3227638D01*
G54D14*
X3148386Y3654260D02*
Y3664102D01*
Y3967252D02*
Y3977094D01*
X2971221Y3654260D02*
Y3664102D01*
Y3967252D02*
Y3977094D01*
G54D13*
X4006811Y4484968D02*
X4016811D01*
X4006811Y4400968D02*
X4016811D01*
G54D15*
X3072835Y2957016D02*
X3120079D01*
X3072835Y2838905D02*
X3120079D01*
X3155512Y2897961D03*
G54D10*
X3588662Y4226827D03*
Y4158827D03*
X3868386Y4222181D03*
Y4154181D03*
X3221386Y3119181D03*
Y3187181D03*
G54D13*
X4112323Y3021976D02*
X4122323D01*
X4112323Y3105976D02*
X4122323D01*
G54D10*
X4046851Y3039158D03*
Y3107158D03*
X4124567Y3583984D03*
Y3515984D03*
X3518394Y4276701D03*
X3450394D03*
G54D13*
X3795788Y3886937D02*
X3805788D01*
X3795788Y3970937D02*
X3805788D01*
G54D10*
X3266929Y3781819D03*
Y3713819D03*
X3418030Y3877094D03*
X3486030D03*
X3070386Y3069181D03*
X3002386D03*
X3224638Y4331905D03*
Y4263905D03*
X4008811Y4339968D03*
Y4271968D03*
X3093386Y3581181D03*
Y3649181D03*
X4179540Y3539176D03*
Y3471176D03*
X4176378Y3279173D03*
Y3347173D03*
X3675386Y4179181D03*
Y4247181D03*
X3772386Y4177181D03*
Y4245181D03*
G54D16*
X3078740Y4117055D02*
Y4166268D01*
G54D10*
X3963386Y4029181D03*
X3895386D03*
X3033386Y3192681D02*
Y3197681D01*
X2996386Y3117681D02*
Y3122681D01*
X3070386Y3117681D02*
Y3122681D01*
X3240386Y3058181D03*
X3308386D03*
X3127386Y3121181D03*
Y3189181D03*
X4147386Y2474181D03*
X4079386D03*
G54D17*
X3175886Y3264181D02*
X3230886D01*
X3175886Y3314181D02*
X3230886D01*
X3175886Y3364181D02*
X3230886D01*
X3175886Y3414181D02*
X3230886D01*
X2970886D02*
X3025886D01*
X2970886Y3364181D02*
X3025886D01*
X2970886Y3314181D02*
X3025886D01*
X2970886Y3264181D02*
X3025886D01*
G54D10*
X4124567Y5918732D03*
Y5986732D03*
G54D11*
X3930945Y4712598D02*
X3982441D01*
X3930945Y4791338D02*
X3982441D01*
X3930945Y4870079D02*
X3982441D01*
X3930945Y4948819D02*
X3982441D01*
X3930945Y5027559D02*
X3982441D01*
X3930945Y5106299D02*
X3982441D01*
X3930945Y5185039D02*
X3982441D01*
X3930945Y5263779D02*
X3982441D01*
X3234095D02*
X3285591D01*
X3234095Y5185039D02*
X3285591D01*
X3234095Y5106299D02*
X3285591D01*
X3234095Y5027559D02*
X3285591D01*
X3234095Y4948819D02*
X3285591D01*
X3234095Y4870079D02*
X3285591D01*
X3234095Y4791338D02*
X3285591D01*
X3234095Y4712598D02*
X3285591D01*
G54D12*
X3454528Y5622327D02*
Y5659327D01*
X3486024Y5622327D02*
Y5659327D01*
X3517520Y5622327D02*
Y5659327D01*
X3549016Y5622327D02*
Y5659327D01*
X3580512Y5622327D02*
Y5659327D01*
X3612008Y5622327D02*
Y5659327D01*
X3643504Y5622327D02*
Y5659327D01*
X3675000Y5622327D02*
Y5659327D01*
X3706496Y5622327D02*
Y5659327D01*
X3737992Y5622327D02*
Y5659327D01*
X3769488Y5622327D02*
Y5659327D01*
X3817917Y5707756D02*
X3854917D01*
X3817917Y5739252D02*
X3854917D01*
X3817917Y5770748D02*
X3854917D01*
X3817917Y5802244D02*
X3854917D01*
X3817917Y5833740D02*
X3854917D01*
X3817917Y5865236D02*
X3854917D01*
X3817917Y5896732D02*
X3854917D01*
X3817917Y5928228D02*
X3854917D01*
X3817917Y5959724D02*
X3854917D01*
X3817917Y5991220D02*
X3854917D01*
X3817917Y6022716D02*
X3854917D01*
X3769488Y6071146D02*
Y6108146D01*
X3737992Y6071146D02*
Y6108146D01*
X3706496Y6071146D02*
Y6108146D01*
X3675000Y6071146D02*
Y6108146D01*
X3643504Y6071146D02*
Y6108146D01*
X3612008Y6071146D02*
Y6108146D01*
X3580512Y6071146D02*
Y6108146D01*
X3549016Y6071146D02*
Y6108146D01*
X3517520Y6071146D02*
Y6108146D01*
X3486024Y6071146D02*
Y6108146D01*
X3454528Y6071146D02*
Y6108146D01*
X3369099Y6022716D02*
X3406099D01*
X3369099Y5991220D02*
X3406099D01*
X3369099Y5959724D02*
X3406099D01*
X3369099Y5928228D02*
X3406099D01*
X3369099Y5896732D02*
X3406099D01*
X3369099Y5865236D02*
X3406099D01*
X3369099Y5833740D02*
X3406099D01*
X3369099Y5802244D02*
X3406099D01*
X3369099Y5770748D02*
X3406099D01*
X3369099Y5739252D02*
X3406099D01*
X3369099Y5707756D02*
X3406099D01*
G54D13*
X3217638Y6766653D02*
X3227638D01*
X3217638Y6682653D02*
X3227638D01*
G54D14*
X3148386Y5937008D02*
Y5946850D01*
Y6250000D02*
Y6259842D01*
X2971221Y5937008D02*
Y5946850D01*
Y6250000D02*
Y6259842D01*
G54D13*
X4006811Y6767716D02*
X4016811D01*
X4006811Y6683716D02*
X4016811D01*
G54D15*
X3072835Y5239764D02*
X3120079D01*
X3072835Y5121653D02*
X3120079D01*
X3155512Y5180709D03*
G54D10*
X3588662Y6509575D03*
Y6441575D03*
X3868386Y6504929D03*
Y6436929D03*
X3221386Y5401929D03*
Y5469929D03*
G54D13*
X4112323Y5304724D02*
X4122323D01*
X4112323Y5388724D02*
X4122323D01*
G54D10*
X4046851Y5321906D03*
Y5389906D03*
X4124567Y5866732D03*
Y5798732D03*
X3518394Y6559449D03*
X3450394D03*
G54D13*
X3795788Y6169685D02*
X3805788D01*
X3795788Y6253685D02*
X3805788D01*
G54D10*
X3266929Y6064567D03*
Y5996567D03*
X3418030Y6159842D03*
X3486030D03*
X3070386Y5351929D03*
X3002386D03*
X3224638Y6614653D03*
Y6546653D03*
X4008811Y6622716D03*
Y6554716D03*
X3093386Y5863929D03*
Y5931929D03*
X4179540Y5821924D03*
Y5753924D03*
X4176378Y5561921D03*
Y5629921D03*
X3675386Y6461929D03*
Y6529929D03*
X3772386Y6459929D03*
Y6527929D03*
G54D16*
X3078740Y6399803D02*
Y6449015D01*
G54D10*
X3963386Y6311929D03*
X3895386D03*
X3033386Y5475429D02*
Y5480429D01*
X2996386Y5400429D02*
Y5405429D01*
X3070386Y5400429D02*
Y5405429D01*
X3240386Y5340929D03*
X3308386D03*
X3127386Y5403929D03*
Y5471929D03*
X4147386Y4756929D03*
X4079386D03*
G54D17*
X3175886Y5546929D02*
X3230886D01*
X3175886Y5596929D02*
X3230886D01*
X3175886Y5646929D02*
X3230886D01*
X3175886Y5696929D02*
X3230886D01*
X2970886D02*
X3025886D01*
X2970886Y5646929D02*
X3025886D01*
X2970886Y5596929D02*
X3025886D01*
X2970886Y5546929D02*
X3025886D01*
G54D10*
X4124567Y8201480D03*
Y8269480D03*
G54D11*
X3930945Y6995346D02*
X3982441D01*
X3930945Y7074086D02*
X3982441D01*
X3930945Y7152827D02*
X3982441D01*
X3930945Y7231567D02*
X3982441D01*
X3930945Y7310307D02*
X3982441D01*
X3930945Y7389047D02*
X3982441D01*
X3930945Y7467787D02*
X3982441D01*
X3930945Y7546527D02*
X3982441D01*
X3234095D02*
X3285591D01*
X3234095Y7467787D02*
X3285591D01*
X3234095Y7389047D02*
X3285591D01*
X3234095Y7310307D02*
X3285591D01*
X3234095Y7231567D02*
X3285591D01*
X3234095Y7152827D02*
X3285591D01*
X3234095Y7074086D02*
X3285591D01*
X3234095Y6995346D02*
X3285591D01*
G54D12*
X3454528Y7905075D02*
Y7942075D01*
X3486024Y7905075D02*
Y7942075D01*
X3517520Y7905075D02*
Y7942075D01*
X3549016Y7905075D02*
Y7942075D01*
X3580512Y7905075D02*
Y7942075D01*
X3612008Y7905075D02*
Y7942075D01*
X3643504Y7905075D02*
Y7942075D01*
X3675000Y7905075D02*
Y7942075D01*
X3706496Y7905075D02*
Y7942075D01*
X3737992Y7905075D02*
Y7942075D01*
X3769488Y7905075D02*
Y7942075D01*
X3817917Y7990504D02*
X3854917D01*
X3817917Y8022000D02*
X3854917D01*
X3817917Y8053496D02*
X3854917D01*
X3817917Y8084992D02*
X3854917D01*
X3817917Y8116488D02*
X3854917D01*
X3817917Y8147984D02*
X3854917D01*
X3817917Y8179480D02*
X3854917D01*
X3817917Y8210976D02*
X3854917D01*
X3817917Y8242472D02*
X3854917D01*
X3817917Y8273968D02*
X3854917D01*
X3817917Y8305464D02*
X3854917D01*
X3769488Y8353894D02*
Y8390894D01*
X3737992Y8353894D02*
Y8390894D01*
X3706496Y8353894D02*
Y8390894D01*
X3675000Y8353894D02*
Y8390894D01*
X3643504Y8353894D02*
Y8390894D01*
X3612008Y8353894D02*
Y8390894D01*
X3580512Y8353894D02*
Y8390894D01*
X3549016Y8353894D02*
Y8390894D01*
X3517520Y8353894D02*
Y8390894D01*
X3486024Y8353894D02*
Y8390894D01*
X3454528Y8353894D02*
Y8390894D01*
X3369099Y8305464D02*
X3406099D01*
X3369099Y8273968D02*
X3406099D01*
X3369099Y8242472D02*
X3406099D01*
X3369099Y8210976D02*
X3406099D01*
X3369099Y8179480D02*
X3406099D01*
X3369099Y8147984D02*
X3406099D01*
X3369099Y8116488D02*
X3406099D01*
X3369099Y8084992D02*
X3406099D01*
X3369099Y8053496D02*
X3406099D01*
X3369099Y8022000D02*
X3406099D01*
X3369099Y7990504D02*
X3406099D01*
G54D13*
X3217638Y9049401D02*
X3227638D01*
X3217638Y8965401D02*
X3227638D01*
G54D14*
X3148386Y8219756D02*
Y8229598D01*
Y8532748D02*
Y8542590D01*
X2971221Y8219756D02*
Y8229598D01*
Y8532748D02*
Y8542590D01*
G54D13*
X4006811Y9050464D02*
X4016811D01*
X4006811Y8966464D02*
X4016811D01*
G54D15*
X3072835Y7522512D02*
X3120079D01*
X3072835Y7404401D02*
X3120079D01*
X3155512Y7463457D03*
G54D10*
X3588662Y8792323D03*
Y8724323D03*
X3868386Y8787677D03*
Y8719677D03*
X3221386Y7684677D03*
Y7752677D03*
G54D13*
X4112323Y7587472D02*
X4122323D01*
X4112323Y7671472D02*
X4122323D01*
G54D10*
X4046851Y7604654D03*
Y7672654D03*
X4124567Y8149480D03*
Y8081480D03*
X3518394Y8842197D03*
X3450394D03*
G54D13*
X3795788Y8452433D02*
X3805788D01*
X3795788Y8536433D02*
X3805788D01*
G54D10*
X3266929Y8347315D03*
Y8279315D03*
X3418030Y8442590D03*
X3486030D03*
X3070386Y7634677D03*
X3002386D03*
X3224638Y8897401D03*
Y8829401D03*
X4008811Y8905464D03*
Y8837464D03*
X3093386Y8146677D03*
Y8214677D03*
X4179540Y8104672D03*
Y8036672D03*
X4176378Y7844669D03*
Y7912669D03*
X3675386Y8744677D03*
Y8812677D03*
X3772386Y8742677D03*
Y8810677D03*
G54D16*
X3078740Y8682551D02*
Y8731763D01*
G54D10*
X3963386Y8594677D03*
X3895386D03*
X3033386Y7758177D02*
Y7763177D01*
X2996386Y7683177D02*
Y7688177D01*
X3070386Y7683177D02*
Y7688177D01*
X3240386Y7623677D03*
X3308386D03*
X3127386Y7686677D03*
Y7754677D03*
X4147386Y7039677D03*
X4079386D03*
G54D17*
X3175886Y7829677D02*
X3230886D01*
X3175886Y7879677D02*
X3230886D01*
X3175886Y7929677D02*
X3230886D01*
X3175886Y7979677D02*
X3230886D01*
X2970886D02*
X3025886D01*
X2970886Y7929677D02*
X3025886D01*
X2970886Y7879677D02*
X3025886D01*
X2970886Y7829677D02*
X3025886D01*
G54D10*
X4124567Y10484228D03*
Y10552228D03*
G54D11*
X3930945Y9278094D02*
X3982441D01*
X3930945Y9356834D02*
X3982441D01*
X3930945Y9435575D02*
X3982441D01*
X3930945Y9514315D02*
X3982441D01*
X3930945Y9593055D02*
X3982441D01*
X3930945Y9671795D02*
X3982441D01*
X3930945Y9750535D02*
X3982441D01*
X3930945Y9829275D02*
X3982441D01*
X3234095D02*
X3285591D01*
X3234095Y9750535D02*
X3285591D01*
X3234095Y9671795D02*
X3285591D01*
X3234095Y9593055D02*
X3285591D01*
X3234095Y9514315D02*
X3285591D01*
X3234095Y9435575D02*
X3285591D01*
X3234095Y9356834D02*
X3285591D01*
X3234095Y9278094D02*
X3285591D01*
G54D12*
X3454528Y10187823D02*
Y10224823D01*
X3486024Y10187823D02*
Y10224823D01*
X3517520Y10187823D02*
Y10224823D01*
X3549016Y10187823D02*
Y10224823D01*
X3580512Y10187823D02*
Y10224823D01*
X3612008Y10187823D02*
Y10224823D01*
X3643504Y10187823D02*
Y10224823D01*
X3675000Y10187823D02*
Y10224823D01*
X3706496Y10187823D02*
Y10224823D01*
X3737992Y10187823D02*
Y10224823D01*
X3769488Y10187823D02*
Y10224823D01*
X3817917Y10273252D02*
X3854917D01*
X3817917Y10304748D02*
X3854917D01*
X3817917Y10336244D02*
X3854917D01*
X3817917Y10367740D02*
X3854917D01*
X3817917Y10399236D02*
X3854917D01*
X3817917Y10430732D02*
X3854917D01*
X3817917Y10462228D02*
X3854917D01*
X3817917Y10493724D02*
X3854917D01*
X3817917Y10525220D02*
X3854917D01*
X3817917Y10556716D02*
X3854917D01*
X3817917Y10588212D02*
X3854917D01*
X3769488Y10636642D02*
Y10673642D01*
X3737992Y10636642D02*
Y10673642D01*
X3706496Y10636642D02*
Y10673642D01*
X3675000Y10636642D02*
Y10673642D01*
X3643504Y10636642D02*
Y10673642D01*
X3612008Y10636642D02*
Y10673642D01*
X3580512Y10636642D02*
Y10673642D01*
X3549016Y10636642D02*
Y10673642D01*
X3517520Y10636642D02*
Y10673642D01*
X3486024Y10636642D02*
Y10673642D01*
X3454528Y10636642D02*
Y10673642D01*
X3369099Y10588212D02*
X3406099D01*
X3369099Y10556716D02*
X3406099D01*
X3369099Y10525220D02*
X3406099D01*
X3369099Y10493724D02*
X3406099D01*
X3369099Y10462228D02*
X3406099D01*
X3369099Y10430732D02*
X3406099D01*
X3369099Y10399236D02*
X3406099D01*
X3369099Y10367740D02*
X3406099D01*
X3369099Y10336244D02*
X3406099D01*
X3369099Y10304748D02*
X3406099D01*
X3369099Y10273252D02*
X3406099D01*
G54D13*
X3217638Y11332149D02*
X3227638D01*
X3217638Y11248149D02*
X3227638D01*
G54D14*
X3148386Y10502504D02*
Y10512346D01*
Y10815496D02*
Y10825338D01*
X2971221Y10502504D02*
Y10512346D01*
Y10815496D02*
Y10825338D01*
G54D13*
X4006811Y11333212D02*
X4016811D01*
X4006811Y11249212D02*
X4016811D01*
G54D15*
X3072835Y9805260D02*
X3120079D01*
X3072835Y9687149D02*
X3120079D01*
X3155512Y9746205D03*
G54D10*
X3588662Y11075071D03*
Y11007071D03*
X3868386Y11070425D03*
Y11002425D03*
X3221386Y9967425D03*
Y10035425D03*
G54D13*
X4112323Y9870220D02*
X4122323D01*
X4112323Y9954220D02*
X4122323D01*
G54D10*
X4046851Y9887402D03*
Y9955402D03*
X4124567Y10432228D03*
Y10364228D03*
X3518394Y11124945D03*
X3450394D03*
G54D13*
X3795788Y10735181D02*
X3805788D01*
X3795788Y10819181D02*
X3805788D01*
G54D10*
X3266929Y10630063D03*
Y10562063D03*
X3418030Y10725338D03*
X3486030D03*
X3070386Y9917425D03*
X3002386D03*
X3224638Y11180149D03*
Y11112149D03*
X4008811Y11188212D03*
Y11120212D03*
X3093386Y10429425D03*
Y10497425D03*
X4179540Y10387420D03*
Y10319420D03*
X4176378Y10127417D03*
Y10195417D03*
X3675386Y11027425D03*
Y11095425D03*
X3772386Y11025425D03*
Y11093425D03*
G54D16*
X3078740Y10965299D02*
Y11014511D01*
G54D10*
X3963386Y10877425D03*
X3895386D03*
X3033386Y10040925D02*
Y10045925D01*
X2996386Y9965925D02*
Y9970925D01*
X3070386Y9965925D02*
Y9970925D01*
X3240386Y9906425D03*
X3308386D03*
X3127386Y9969425D03*
Y10037425D03*
X4147386Y9322425D03*
X4079386D03*
G54D17*
X3175886Y10112425D02*
X3230886D01*
X3175886Y10162425D02*
X3230886D01*
X3175886Y10212425D02*
X3230886D01*
X3175886Y10262425D02*
X3230886D01*
X2970886D02*
X3025886D01*
X2970886Y10212425D02*
X3025886D01*
X2970886Y10162425D02*
X3025886D01*
X2970886Y10112425D02*
X3025886D01*
G54D10*
X5578819Y1353236D03*
Y1421236D03*
G54D11*
X5385197Y147102D02*
X5436693D01*
X5385197Y225842D02*
X5436693D01*
X5385197Y304583D02*
X5436693D01*
X5385197Y383323D02*
X5436693D01*
X5385197Y462063D02*
X5436693D01*
X5385197Y540803D02*
X5436693D01*
X5385197Y619543D02*
X5436693D01*
X5385197Y698283D02*
X5436693D01*
X4688347D02*
X4739843D01*
X4688347Y619543D02*
X4739843D01*
X4688347Y540803D02*
X4739843D01*
X4688347Y462063D02*
X4739843D01*
X4688347Y383323D02*
X4739843D01*
X4688347Y304583D02*
X4739843D01*
X4688347Y225842D02*
X4739843D01*
X4688347Y147102D02*
X4739843D01*
G54D12*
X4908780Y1056831D02*
Y1093831D01*
X4940276Y1056831D02*
Y1093831D01*
X4971772Y1056831D02*
Y1093831D01*
X5003268Y1056831D02*
Y1093831D01*
X5034764Y1056831D02*
Y1093831D01*
X5066260Y1056831D02*
Y1093831D01*
X5097756Y1056831D02*
Y1093831D01*
X5129252Y1056831D02*
Y1093831D01*
X5160748Y1056831D02*
Y1093831D01*
X5192244Y1056831D02*
Y1093831D01*
X5223740Y1056831D02*
Y1093831D01*
X5272169Y1142260D02*
X5309169D01*
X5272169Y1173756D02*
X5309169D01*
X5272169Y1205252D02*
X5309169D01*
X5272169Y1236748D02*
X5309169D01*
X5272169Y1268244D02*
X5309169D01*
X5272169Y1299740D02*
X5309169D01*
X5272169Y1331236D02*
X5309169D01*
X5272169Y1362732D02*
X5309169D01*
X5272169Y1394228D02*
X5309169D01*
X5272169Y1425724D02*
X5309169D01*
X5272169Y1457220D02*
X5309169D01*
X5223740Y1505650D02*
Y1542650D01*
X5192244Y1505650D02*
Y1542650D01*
X5160748Y1505650D02*
Y1542650D01*
X5129252Y1505650D02*
Y1542650D01*
X5097756Y1505650D02*
Y1542650D01*
X5066260Y1505650D02*
Y1542650D01*
X5034764Y1505650D02*
Y1542650D01*
X5003268Y1505650D02*
Y1542650D01*
X4971772Y1505650D02*
Y1542650D01*
X4940276Y1505650D02*
Y1542650D01*
X4908780Y1505650D02*
Y1542650D01*
X4823351Y1457220D02*
X4860351D01*
X4823351Y1425724D02*
X4860351D01*
X4823351Y1394228D02*
X4860351D01*
X4823351Y1362732D02*
X4860351D01*
X4823351Y1331236D02*
X4860351D01*
X4823351Y1299740D02*
X4860351D01*
X4823351Y1268244D02*
X4860351D01*
X4823351Y1236748D02*
X4860351D01*
X4823351Y1205252D02*
X4860351D01*
X4823351Y1173756D02*
X4860351D01*
X4823351Y1142260D02*
X4860351D01*
G54D13*
X4671890Y2201157D02*
X4681890D01*
X4671890Y2117157D02*
X4681890D01*
G54D14*
X4602638Y1371512D02*
Y1381355D01*
Y1684504D02*
Y1694347D01*
X4425473Y1371512D02*
Y1381355D01*
Y1684504D02*
Y1694347D01*
G54D13*
X5461063Y2202220D02*
X5471063D01*
X5461063Y2118220D02*
X5471063D01*
G54D15*
X4527087Y674268D02*
X4574331D01*
X4527087Y556157D02*
X4574331D01*
X4609764Y615213D03*
G54D10*
X5042914Y1944079D03*
Y1876079D03*
X5322638Y1939433D03*
Y1871433D03*
X4675638Y836433D03*
Y904433D03*
G54D13*
X5566575Y739228D02*
X5576575D01*
X5566575Y823228D02*
X5576575D01*
G54D10*
X5501103Y756410D03*
Y824410D03*
X5578819Y1301236D03*
Y1233236D03*
X4972646Y1993953D03*
X4904646D03*
G54D13*
X5250040Y1604189D02*
X5260040D01*
X5250040Y1688189D02*
X5260040D01*
G54D10*
X4721181Y1499071D03*
Y1431071D03*
X4872282Y1594346D03*
X4940282D03*
X4524638Y786433D03*
X4456638D03*
X4678890Y2049157D03*
Y1981157D03*
X5463063Y2057220D03*
Y1989220D03*
X4547638Y1298433D03*
Y1366433D03*
X5633792Y1256428D03*
Y1188428D03*
X5630630Y996425D03*
Y1064425D03*
X5129638Y1896433D03*
Y1964433D03*
X5226638Y1894433D03*
Y1962433D03*
G54D16*
X4532992Y1834307D02*
Y1883520D01*
G54D10*
X5417638Y1746433D03*
X5349638D03*
X4487638Y909933D02*
Y914933D01*
X4450638Y834933D02*
Y839933D01*
X4524638Y834933D02*
Y839933D01*
X4694638Y775433D03*
X4762638D03*
X4581638Y838433D03*
Y906433D03*
X5601638Y191433D03*
X5533638D03*
G54D17*
X4630138Y981433D02*
X4685138D01*
X4630138Y1031433D02*
X4685138D01*
X4630138Y1081433D02*
X4685138D01*
X4630138Y1131433D02*
X4685138D01*
X4425138D02*
X4480138D01*
X4425138Y1081433D02*
X4480138D01*
X4425138Y1031433D02*
X4480138D01*
X4425138Y981433D02*
X4480138D01*
G54D10*
X5578819Y3635984D03*
Y3703984D03*
G54D11*
X5385197Y2429850D02*
X5436693D01*
X5385197Y2508590D02*
X5436693D01*
X5385197Y2587331D02*
X5436693D01*
X5385197Y2666071D02*
X5436693D01*
X5385197Y2744811D02*
X5436693D01*
X5385197Y2823551D02*
X5436693D01*
X5385197Y2902291D02*
X5436693D01*
X5385197Y2981031D02*
X5436693D01*
X4688347D02*
X4739843D01*
X4688347Y2902291D02*
X4739843D01*
X4688347Y2823551D02*
X4739843D01*
X4688347Y2744811D02*
X4739843D01*
X4688347Y2666071D02*
X4739843D01*
X4688347Y2587331D02*
X4739843D01*
X4688347Y2508590D02*
X4739843D01*
X4688347Y2429850D02*
X4739843D01*
G54D12*
X4908780Y3339579D02*
Y3376579D01*
X4940276Y3339579D02*
Y3376579D01*
X4971772Y3339579D02*
Y3376579D01*
X5003268Y3339579D02*
Y3376579D01*
X5034764Y3339579D02*
Y3376579D01*
X5066260Y3339579D02*
Y3376579D01*
X5097756Y3339579D02*
Y3376579D01*
X5129252Y3339579D02*
Y3376579D01*
X5160748Y3339579D02*
Y3376579D01*
X5192244Y3339579D02*
Y3376579D01*
X5223740Y3339579D02*
Y3376579D01*
X5272169Y3425008D02*
X5309169D01*
X5272169Y3456504D02*
X5309169D01*
X5272169Y3488000D02*
X5309169D01*
X5272169Y3519496D02*
X5309169D01*
X5272169Y3550992D02*
X5309169D01*
X5272169Y3582488D02*
X5309169D01*
X5272169Y3613984D02*
X5309169D01*
X5272169Y3645480D02*
X5309169D01*
X5272169Y3676976D02*
X5309169D01*
X5272169Y3708472D02*
X5309169D01*
X5272169Y3739968D02*
X5309169D01*
X5223740Y3788398D02*
Y3825398D01*
X5192244Y3788398D02*
Y3825398D01*
X5160748Y3788398D02*
Y3825398D01*
X5129252Y3788398D02*
Y3825398D01*
X5097756Y3788398D02*
Y3825398D01*
X5066260Y3788398D02*
Y3825398D01*
X5034764Y3788398D02*
Y3825398D01*
X5003268Y3788398D02*
Y3825398D01*
X4971772Y3788398D02*
Y3825398D01*
X4940276Y3788398D02*
Y3825398D01*
X4908780Y3788398D02*
Y3825398D01*
X4823351Y3739968D02*
X4860351D01*
X4823351Y3708472D02*
X4860351D01*
X4823351Y3676976D02*
X4860351D01*
X4823351Y3645480D02*
X4860351D01*
X4823351Y3613984D02*
X4860351D01*
X4823351Y3582488D02*
X4860351D01*
X4823351Y3550992D02*
X4860351D01*
X4823351Y3519496D02*
X4860351D01*
X4823351Y3488000D02*
X4860351D01*
X4823351Y3456504D02*
X4860351D01*
X4823351Y3425008D02*
X4860351D01*
G54D13*
X4671890Y4483905D02*
X4681890D01*
X4671890Y4399905D02*
X4681890D01*
G54D14*
X4602638Y3654260D02*
Y3664102D01*
Y3967252D02*
Y3977094D01*
X4425473Y3654260D02*
Y3664102D01*
Y3967252D02*
Y3977094D01*
G54D13*
X5461063Y4484968D02*
X5471063D01*
X5461063Y4400968D02*
X5471063D01*
G54D15*
X4527087Y2957016D02*
X4574331D01*
X4527087Y2838905D02*
X4574331D01*
X4609764Y2897961D03*
G54D10*
X5042914Y4226827D03*
Y4158827D03*
X5322638Y4222181D03*
Y4154181D03*
X4675638Y3119181D03*
Y3187181D03*
G54D13*
X5566575Y3021976D02*
X5576575D01*
X5566575Y3105976D02*
X5576575D01*
G54D10*
X5501103Y3039158D03*
Y3107158D03*
X5578819Y3583984D03*
Y3515984D03*
X4972646Y4276701D03*
X4904646D03*
G54D13*
X5250040Y3886937D02*
X5260040D01*
X5250040Y3970937D02*
X5260040D01*
G54D10*
X4721181Y3781819D03*
Y3713819D03*
X4872282Y3877094D03*
X4940282D03*
X4524638Y3069181D03*
X4456638D03*
X4678890Y4331905D03*
Y4263905D03*
X5463063Y4339968D03*
Y4271968D03*
X4547638Y3581181D03*
Y3649181D03*
X5633792Y3539176D03*
Y3471176D03*
X5630630Y3279173D03*
Y3347173D03*
X5129638Y4179181D03*
Y4247181D03*
X5226638Y4177181D03*
Y4245181D03*
G54D16*
X4532992Y4117055D02*
Y4166268D01*
G54D10*
X5417638Y4029181D03*
X5349638D03*
X4487638Y3192681D02*
Y3197681D01*
X4450638Y3117681D02*
Y3122681D01*
X4524638Y3117681D02*
Y3122681D01*
X4694638Y3058181D03*
X4762638D03*
X4581638Y3121181D03*
Y3189181D03*
X5601638Y2474181D03*
X5533638D03*
G54D17*
X4630138Y3264181D02*
X4685138D01*
X4630138Y3314181D02*
X4685138D01*
X4630138Y3364181D02*
X4685138D01*
X4630138Y3414181D02*
X4685138D01*
X4425138D02*
X4480138D01*
X4425138Y3364181D02*
X4480138D01*
X4425138Y3314181D02*
X4480138D01*
X4425138Y3264181D02*
X4480138D01*
G54D10*
X5578819Y5918732D03*
Y5986732D03*
G54D11*
X5385197Y4712598D02*
X5436693D01*
X5385197Y4791338D02*
X5436693D01*
X5385197Y4870079D02*
X5436693D01*
X5385197Y4948819D02*
X5436693D01*
X5385197Y5027559D02*
X5436693D01*
X5385197Y5106299D02*
X5436693D01*
X5385197Y5185039D02*
X5436693D01*
X5385197Y5263779D02*
X5436693D01*
X4688347D02*
X4739843D01*
X4688347Y5185039D02*
X4739843D01*
X4688347Y5106299D02*
X4739843D01*
X4688347Y5027559D02*
X4739843D01*
X4688347Y4948819D02*
X4739843D01*
X4688347Y4870079D02*
X4739843D01*
X4688347Y4791338D02*
X4739843D01*
X4688347Y4712598D02*
X4739843D01*
G54D12*
X4908780Y5622327D02*
Y5659327D01*
X4940276Y5622327D02*
Y5659327D01*
X4971772Y5622327D02*
Y5659327D01*
X5003268Y5622327D02*
Y5659327D01*
X5034764Y5622327D02*
Y5659327D01*
X5066260Y5622327D02*
Y5659327D01*
X5097756Y5622327D02*
Y5659327D01*
X5129252Y5622327D02*
Y5659327D01*
X5160748Y5622327D02*
Y5659327D01*
X5192244Y5622327D02*
Y5659327D01*
X5223740Y5622327D02*
Y5659327D01*
X5272169Y5707756D02*
X5309169D01*
X5272169Y5739252D02*
X5309169D01*
X5272169Y5770748D02*
X5309169D01*
X5272169Y5802244D02*
X5309169D01*
X5272169Y5833740D02*
X5309169D01*
X5272169Y5865236D02*
X5309169D01*
X5272169Y5896732D02*
X5309169D01*
X5272169Y5928228D02*
X5309169D01*
X5272169Y5959724D02*
X5309169D01*
X5272169Y5991220D02*
X5309169D01*
X5272169Y6022716D02*
X5309169D01*
X5223740Y6071146D02*
Y6108146D01*
X5192244Y6071146D02*
Y6108146D01*
X5160748Y6071146D02*
Y6108146D01*
X5129252Y6071146D02*
Y6108146D01*
X5097756Y6071146D02*
Y6108146D01*
X5066260Y6071146D02*
Y6108146D01*
X5034764Y6071146D02*
Y6108146D01*
X5003268Y6071146D02*
Y6108146D01*
X4971772Y6071146D02*
Y6108146D01*
X4940276Y6071146D02*
Y6108146D01*
X4908780Y6071146D02*
Y6108146D01*
X4823351Y6022716D02*
X4860351D01*
X4823351Y5991220D02*
X4860351D01*
X4823351Y5959724D02*
X4860351D01*
X4823351Y5928228D02*
X4860351D01*
X4823351Y5896732D02*
X4860351D01*
X4823351Y5865236D02*
X4860351D01*
X4823351Y5833740D02*
X4860351D01*
X4823351Y5802244D02*
X4860351D01*
X4823351Y5770748D02*
X4860351D01*
X4823351Y5739252D02*
X4860351D01*
X4823351Y5707756D02*
X4860351D01*
G54D13*
X4671890Y6766653D02*
X4681890D01*
X4671890Y6682653D02*
X4681890D01*
G54D14*
X4602638Y5937008D02*
Y5946850D01*
Y6250000D02*
Y6259842D01*
X4425473Y5937008D02*
Y5946850D01*
Y6250000D02*
Y6259842D01*
G54D13*
X5461063Y6767716D02*
X5471063D01*
X5461063Y6683716D02*
X5471063D01*
G54D15*
X4527087Y5239764D02*
X4574331D01*
X4527087Y5121653D02*
X4574331D01*
X4609764Y5180709D03*
G54D10*
X5042914Y6509575D03*
Y6441575D03*
X5322638Y6504929D03*
Y6436929D03*
X4675638Y5401929D03*
Y5469929D03*
G54D13*
X5566575Y5304724D02*
X5576575D01*
X5566575Y5388724D02*
X5576575D01*
G54D10*
X5501103Y5321906D03*
Y5389906D03*
X5578819Y5866732D03*
Y5798732D03*
X4972646Y6559449D03*
X4904646D03*
G54D13*
X5250040Y6169685D02*
X5260040D01*
X5250040Y6253685D02*
X5260040D01*
G54D10*
X4721181Y6064567D03*
Y5996567D03*
X4872282Y6159842D03*
X4940282D03*
X4524638Y5351929D03*
X4456638D03*
X4678890Y6614653D03*
Y6546653D03*
X5463063Y6622716D03*
Y6554716D03*
X4547638Y5863929D03*
Y5931929D03*
X5633792Y5821924D03*
Y5753924D03*
X5630630Y5561921D03*
Y5629921D03*
X5129638Y6461929D03*
Y6529929D03*
X5226638Y6459929D03*
Y6527929D03*
G54D16*
X4532992Y6399803D02*
Y6449015D01*
G54D10*
X5417638Y6311929D03*
X5349638D03*
X4487638Y5475429D02*
Y5480429D01*
X4450638Y5400429D02*
Y5405429D01*
X4524638Y5400429D02*
Y5405429D01*
X4694638Y5340929D03*
X4762638D03*
X4581638Y5403929D03*
Y5471929D03*
X5601638Y4756929D03*
X5533638D03*
G54D17*
X4630138Y5546929D02*
X4685138D01*
X4630138Y5596929D02*
X4685138D01*
X4630138Y5646929D02*
X4685138D01*
X4630138Y5696929D02*
X4685138D01*
X4425138D02*
X4480138D01*
X4425138Y5646929D02*
X4480138D01*
X4425138Y5596929D02*
X4480138D01*
X4425138Y5546929D02*
X4480138D01*
G54D10*
X5578819Y8201480D03*
Y8269480D03*
G54D11*
X5385197Y6995346D02*
X5436693D01*
X5385197Y7074086D02*
X5436693D01*
X5385197Y7152827D02*
X5436693D01*
X5385197Y7231567D02*
X5436693D01*
X5385197Y7310307D02*
X5436693D01*
X5385197Y7389047D02*
X5436693D01*
X5385197Y7467787D02*
X5436693D01*
X5385197Y7546527D02*
X5436693D01*
X4688347D02*
X4739843D01*
X4688347Y7467787D02*
X4739843D01*
X4688347Y7389047D02*
X4739843D01*
X4688347Y7310307D02*
X4739843D01*
X4688347Y7231567D02*
X4739843D01*
X4688347Y7152827D02*
X4739843D01*
X4688347Y7074086D02*
X4739843D01*
X4688347Y6995346D02*
X4739843D01*
G54D12*
X4908780Y7905075D02*
Y7942075D01*
X4940276Y7905075D02*
Y7942075D01*
X4971772Y7905075D02*
Y7942075D01*
X5003268Y7905075D02*
Y7942075D01*
X5034764Y7905075D02*
Y7942075D01*
X5066260Y7905075D02*
Y7942075D01*
X5097756Y7905075D02*
Y7942075D01*
X5129252Y7905075D02*
Y7942075D01*
X5160748Y7905075D02*
Y7942075D01*
X5192244Y7905075D02*
Y7942075D01*
X5223740Y7905075D02*
Y7942075D01*
X5272169Y7990504D02*
X5309169D01*
X5272169Y8022000D02*
X5309169D01*
X5272169Y8053496D02*
X5309169D01*
X5272169Y8084992D02*
X5309169D01*
X5272169Y8116488D02*
X5309169D01*
X5272169Y8147984D02*
X5309169D01*
X5272169Y8179480D02*
X5309169D01*
X5272169Y8210976D02*
X5309169D01*
X5272169Y8242472D02*
X5309169D01*
X5272169Y8273968D02*
X5309169D01*
X5272169Y8305464D02*
X5309169D01*
X5223740Y8353894D02*
Y8390894D01*
X5192244Y8353894D02*
Y8390894D01*
X5160748Y8353894D02*
Y8390894D01*
X5129252Y8353894D02*
Y8390894D01*
X5097756Y8353894D02*
Y8390894D01*
X5066260Y8353894D02*
Y8390894D01*
X5034764Y8353894D02*
Y8390894D01*
X5003268Y8353894D02*
Y8390894D01*
X4971772Y8353894D02*
Y8390894D01*
X4940276Y8353894D02*
Y8390894D01*
X4908780Y8353894D02*
Y8390894D01*
X4823351Y8305464D02*
X4860351D01*
X4823351Y8273968D02*
X4860351D01*
X4823351Y8242472D02*
X4860351D01*
X4823351Y8210976D02*
X4860351D01*
X4823351Y8179480D02*
X4860351D01*
X4823351Y8147984D02*
X4860351D01*
X4823351Y8116488D02*
X4860351D01*
X4823351Y8084992D02*
X4860351D01*
X4823351Y8053496D02*
X4860351D01*
X4823351Y8022000D02*
X4860351D01*
X4823351Y7990504D02*
X4860351D01*
G54D13*
X4671890Y9049401D02*
X4681890D01*
X4671890Y8965401D02*
X4681890D01*
G54D14*
X4602638Y8219756D02*
Y8229598D01*
Y8532748D02*
Y8542590D01*
X4425473Y8219756D02*
Y8229598D01*
Y8532748D02*
Y8542590D01*
G54D13*
X5461063Y9050464D02*
X5471063D01*
X5461063Y8966464D02*
X5471063D01*
G54D15*
X4527087Y7522512D02*
X4574331D01*
X4527087Y7404401D02*
X4574331D01*
X4609764Y7463457D03*
G54D10*
X5042914Y8792323D03*
Y8724323D03*
X5322638Y8787677D03*
Y8719677D03*
X4675638Y7684677D03*
Y7752677D03*
G54D13*
X5566575Y7587472D02*
X5576575D01*
X5566575Y7671472D02*
X5576575D01*
G54D10*
X5501103Y7604654D03*
Y7672654D03*
X5578819Y8149480D03*
Y8081480D03*
X4972646Y8842197D03*
X4904646D03*
G54D13*
X5250040Y8452433D02*
X5260040D01*
X5250040Y8536433D02*
X5260040D01*
G54D10*
X4721181Y8347315D03*
Y8279315D03*
X4872282Y8442590D03*
X4940282D03*
X4524638Y7634677D03*
X4456638D03*
X4678890Y8897401D03*
Y8829401D03*
X5463063Y8905464D03*
Y8837464D03*
X4547638Y8146677D03*
Y8214677D03*
X5633792Y8104672D03*
Y8036672D03*
X5630630Y7844669D03*
Y7912669D03*
X5129638Y8744677D03*
Y8812677D03*
X5226638Y8742677D03*
Y8810677D03*
G54D16*
X4532992Y8682551D02*
Y8731763D01*
G54D10*
X5417638Y8594677D03*
X5349638D03*
X4487638Y7758177D02*
Y7763177D01*
X4450638Y7683177D02*
Y7688177D01*
X4524638Y7683177D02*
Y7688177D01*
X4694638Y7623677D03*
X4762638D03*
X4581638Y7686677D03*
Y7754677D03*
X5601638Y7039677D03*
X5533638D03*
G54D17*
X4630138Y7829677D02*
X4685138D01*
X4630138Y7879677D02*
X4685138D01*
X4630138Y7929677D02*
X4685138D01*
X4630138Y7979677D02*
X4685138D01*
X4425138D02*
X4480138D01*
X4425138Y7929677D02*
X4480138D01*
X4425138Y7879677D02*
X4480138D01*
X4425138Y7829677D02*
X4480138D01*
G54D10*
X5578819Y10484228D03*
Y10552228D03*
G54D11*
X5385197Y9278094D02*
X5436693D01*
X5385197Y9356834D02*
X5436693D01*
X5385197Y9435575D02*
X5436693D01*
X5385197Y9514315D02*
X5436693D01*
X5385197Y9593055D02*
X5436693D01*
X5385197Y9671795D02*
X5436693D01*
X5385197Y9750535D02*
X5436693D01*
X5385197Y9829275D02*
X5436693D01*
X4688347D02*
X4739843D01*
X4688347Y9750535D02*
X4739843D01*
X4688347Y9671795D02*
X4739843D01*
X4688347Y9593055D02*
X4739843D01*
X4688347Y9514315D02*
X4739843D01*
X4688347Y9435575D02*
X4739843D01*
X4688347Y9356834D02*
X4739843D01*
X4688347Y9278094D02*
X4739843D01*
G54D12*
X4908780Y10187823D02*
Y10224823D01*
X4940276Y10187823D02*
Y10224823D01*
X4971772Y10187823D02*
Y10224823D01*
X5003268Y10187823D02*
Y10224823D01*
X5034764Y10187823D02*
Y10224823D01*
X5066260Y10187823D02*
Y10224823D01*
X5097756Y10187823D02*
Y10224823D01*
X5129252Y10187823D02*
Y10224823D01*
X5160748Y10187823D02*
Y10224823D01*
X5192244Y10187823D02*
Y10224823D01*
X5223740Y10187823D02*
Y10224823D01*
X5272169Y10273252D02*
X5309169D01*
X5272169Y10304748D02*
X5309169D01*
X5272169Y10336244D02*
X5309169D01*
X5272169Y10367740D02*
X5309169D01*
X5272169Y10399236D02*
X5309169D01*
X5272169Y10430732D02*
X5309169D01*
X5272169Y10462228D02*
X5309169D01*
X5272169Y10493724D02*
X5309169D01*
X5272169Y10525220D02*
X5309169D01*
X5272169Y10556716D02*
X5309169D01*
X5272169Y10588212D02*
X5309169D01*
X5223740Y10636642D02*
Y10673642D01*
X5192244Y10636642D02*
Y10673642D01*
X5160748Y10636642D02*
Y10673642D01*
X5129252Y10636642D02*
Y10673642D01*
X5097756Y10636642D02*
Y10673642D01*
X5066260Y10636642D02*
Y10673642D01*
X5034764Y10636642D02*
Y10673642D01*
X5003268Y10636642D02*
Y10673642D01*
X4971772Y10636642D02*
Y10673642D01*
X4940276Y10636642D02*
Y10673642D01*
X4908780Y10636642D02*
Y10673642D01*
X4823351Y10588212D02*
X4860351D01*
X4823351Y10556716D02*
X4860351D01*
X4823351Y10525220D02*
X4860351D01*
X4823351Y10493724D02*
X4860351D01*
X4823351Y10462228D02*
X4860351D01*
X4823351Y10430732D02*
X4860351D01*
X4823351Y10399236D02*
X4860351D01*
X4823351Y10367740D02*
X4860351D01*
X4823351Y10336244D02*
X4860351D01*
X4823351Y10304748D02*
X4860351D01*
X4823351Y10273252D02*
X4860351D01*
G54D13*
X4671890Y11332149D02*
X4681890D01*
X4671890Y11248149D02*
X4681890D01*
G54D14*
X4602638Y10502504D02*
Y10512346D01*
Y10815496D02*
Y10825338D01*
X4425473Y10502504D02*
Y10512346D01*
Y10815496D02*
Y10825338D01*
G54D13*
X5461063Y11333212D02*
X5471063D01*
X5461063Y11249212D02*
X5471063D01*
G54D15*
X4527087Y9805260D02*
X4574331D01*
X4527087Y9687149D02*
X4574331D01*
X4609764Y9746205D03*
G54D10*
X5042914Y11075071D03*
Y11007071D03*
X5322638Y11070425D03*
Y11002425D03*
X4675638Y9967425D03*
Y10035425D03*
G54D13*
X5566575Y9870220D02*
X5576575D01*
X5566575Y9954220D02*
X5576575D01*
G54D10*
X5501103Y9887402D03*
Y9955402D03*
X5578819Y10432228D03*
Y10364228D03*
X4972646Y11124945D03*
X4904646D03*
G54D13*
X5250040Y10735181D02*
X5260040D01*
X5250040Y10819181D02*
X5260040D01*
G54D10*
X4721181Y10630063D03*
Y10562063D03*
X4872282Y10725338D03*
X4940282D03*
X4524638Y9917425D03*
X4456638D03*
X4678890Y11180149D03*
Y11112149D03*
X5463063Y11188212D03*
Y11120212D03*
X4547638Y10429425D03*
Y10497425D03*
X5633792Y10387420D03*
Y10319420D03*
X5630630Y10127417D03*
Y10195417D03*
X5129638Y11027425D03*
Y11095425D03*
X5226638Y11025425D03*
Y11093425D03*
G54D16*
X4532992Y10965299D02*
Y11014511D01*
G54D10*
X5417638Y10877425D03*
X5349638D03*
X4487638Y10040925D02*
Y10045925D01*
X4450638Y9965925D02*
Y9970925D01*
X4524638Y9965925D02*
Y9970925D01*
X4694638Y9906425D03*
X4762638D03*
X4581638Y9969425D03*
Y10037425D03*
X5601638Y9322425D03*
X5533638D03*
G54D17*
X4630138Y10112425D02*
X4685138D01*
X4630138Y10162425D02*
X4685138D01*
X4630138Y10212425D02*
X4685138D01*
X4630138Y10262425D02*
X4685138D01*
X4425138D02*
X4480138D01*
X4425138Y10212425D02*
X4480138D01*
X4425138Y10162425D02*
X4480138D01*
X4425138Y10112425D02*
X4480138D01*
G54D10*
X7033071Y1353236D03*
Y1421236D03*
G54D11*
X6839449Y147102D02*
X6890945D01*
X6839449Y225842D02*
X6890945D01*
X6839449Y304583D02*
X6890945D01*
X6839449Y383323D02*
X6890945D01*
X6839449Y462063D02*
X6890945D01*
X6839449Y540803D02*
X6890945D01*
X6839449Y619543D02*
X6890945D01*
X6839449Y698283D02*
X6890945D01*
X6142599D02*
X6194095D01*
X6142599Y619543D02*
X6194095D01*
X6142599Y540803D02*
X6194095D01*
X6142599Y462063D02*
X6194095D01*
X6142599Y383323D02*
X6194095D01*
X6142599Y304583D02*
X6194095D01*
X6142599Y225842D02*
X6194095D01*
X6142599Y147102D02*
X6194095D01*
G54D12*
X6363032Y1056831D02*
Y1093831D01*
X6394528Y1056831D02*
Y1093831D01*
X6426024Y1056831D02*
Y1093831D01*
X6457520Y1056831D02*
Y1093831D01*
X6489016Y1056831D02*
Y1093831D01*
X6520512Y1056831D02*
Y1093831D01*
X6552008Y1056831D02*
Y1093831D01*
X6583504Y1056831D02*
Y1093831D01*
X6615000Y1056831D02*
Y1093831D01*
X6646496Y1056831D02*
Y1093831D01*
X6677992Y1056831D02*
Y1093831D01*
X6726421Y1142260D02*
X6763421D01*
X6726421Y1173756D02*
X6763421D01*
X6726421Y1205252D02*
X6763421D01*
X6726421Y1236748D02*
X6763421D01*
X6726421Y1268244D02*
X6763421D01*
X6726421Y1299740D02*
X6763421D01*
X6726421Y1331236D02*
X6763421D01*
X6726421Y1362732D02*
X6763421D01*
X6726421Y1394228D02*
X6763421D01*
X6726421Y1425724D02*
X6763421D01*
X6726421Y1457220D02*
X6763421D01*
X6677992Y1505650D02*
Y1542650D01*
X6646496Y1505650D02*
Y1542650D01*
X6615000Y1505650D02*
Y1542650D01*
X6583504Y1505650D02*
Y1542650D01*
X6552008Y1505650D02*
Y1542650D01*
X6520512Y1505650D02*
Y1542650D01*
X6489016Y1505650D02*
Y1542650D01*
X6457520Y1505650D02*
Y1542650D01*
X6426024Y1505650D02*
Y1542650D01*
X6394528Y1505650D02*
Y1542650D01*
X6363032Y1505650D02*
Y1542650D01*
X6277603Y1457220D02*
X6314603D01*
X6277603Y1425724D02*
X6314603D01*
X6277603Y1394228D02*
X6314603D01*
X6277603Y1362732D02*
X6314603D01*
X6277603Y1331236D02*
X6314603D01*
X6277603Y1299740D02*
X6314603D01*
X6277603Y1268244D02*
X6314603D01*
X6277603Y1236748D02*
X6314603D01*
X6277603Y1205252D02*
X6314603D01*
X6277603Y1173756D02*
X6314603D01*
X6277603Y1142260D02*
X6314603D01*
G54D13*
X6126142Y2201157D02*
X6136142D01*
X6126142Y2117157D02*
X6136142D01*
G54D14*
X6056890Y1371512D02*
Y1381355D01*
Y1684504D02*
Y1694347D01*
X5879725Y1371512D02*
Y1381355D01*
Y1684504D02*
Y1694347D01*
G54D13*
X6915315Y2202220D02*
X6925315D01*
X6915315Y2118220D02*
X6925315D01*
G54D15*
X5981339Y674268D02*
X6028583D01*
X5981339Y556157D02*
X6028583D01*
X6064016Y615213D03*
G54D10*
X6497166Y1944079D03*
Y1876079D03*
X6776890Y1939433D03*
Y1871433D03*
X6129890Y836433D03*
Y904433D03*
G54D13*
X7020827Y739228D02*
X7030827D01*
X7020827Y823228D02*
X7030827D01*
G54D10*
X6955355Y756410D03*
Y824410D03*
X7033071Y1301236D03*
Y1233236D03*
X6426898Y1993953D03*
X6358898D03*
G54D13*
X6704292Y1604189D02*
X6714292D01*
X6704292Y1688189D02*
X6714292D01*
G54D10*
X6175433Y1499071D03*
Y1431071D03*
X6326534Y1594346D03*
X6394534D03*
X5978890Y786433D03*
X5910890D03*
X6133142Y2049157D03*
Y1981157D03*
X6917315Y2057220D03*
Y1989220D03*
X6001890Y1298433D03*
Y1366433D03*
X7088044Y1256428D03*
Y1188428D03*
X7084882Y996425D03*
Y1064425D03*
X6583890Y1896433D03*
Y1964433D03*
X6680890Y1894433D03*
Y1962433D03*
G54D16*
X5987244Y1834307D02*
Y1883520D01*
G54D10*
X6871890Y1746433D03*
X6803890D03*
X5941890Y909933D02*
Y914933D01*
X5904890Y834933D02*
Y839933D01*
X5978890Y834933D02*
Y839933D01*
X6148890Y775433D03*
X6216890D03*
X6035890Y838433D03*
Y906433D03*
X7055890Y191433D03*
X6987890D03*
G54D17*
X6084390Y981433D02*
X6139390D01*
X6084390Y1031433D02*
X6139390D01*
X6084390Y1081433D02*
X6139390D01*
X6084390Y1131433D02*
X6139390D01*
X5879390D02*
X5934390D01*
X5879390Y1081433D02*
X5934390D01*
X5879390Y1031433D02*
X5934390D01*
X5879390Y981433D02*
X5934390D01*
G54D10*
X7033071Y3635984D03*
Y3703984D03*
G54D11*
X6839449Y2429850D02*
X6890945D01*
X6839449Y2508590D02*
X6890945D01*
X6839449Y2587331D02*
X6890945D01*
X6839449Y2666071D02*
X6890945D01*
X6839449Y2744811D02*
X6890945D01*
X6839449Y2823551D02*
X6890945D01*
X6839449Y2902291D02*
X6890945D01*
X6839449Y2981031D02*
X6890945D01*
X6142599D02*
X6194095D01*
X6142599Y2902291D02*
X6194095D01*
X6142599Y2823551D02*
X6194095D01*
X6142599Y2744811D02*
X6194095D01*
X6142599Y2666071D02*
X6194095D01*
X6142599Y2587331D02*
X6194095D01*
X6142599Y2508590D02*
X6194095D01*
X6142599Y2429850D02*
X6194095D01*
G54D12*
X6363032Y3339579D02*
Y3376579D01*
X6394528Y3339579D02*
Y3376579D01*
X6426024Y3339579D02*
Y3376579D01*
X6457520Y3339579D02*
Y3376579D01*
X6489016Y3339579D02*
Y3376579D01*
X6520512Y3339579D02*
Y3376579D01*
X6552008Y3339579D02*
Y3376579D01*
X6583504Y3339579D02*
Y3376579D01*
X6615000Y3339579D02*
Y3376579D01*
X6646496Y3339579D02*
Y3376579D01*
X6677992Y3339579D02*
Y3376579D01*
X6726421Y3425008D02*
X6763421D01*
X6726421Y3456504D02*
X6763421D01*
X6726421Y3488000D02*
X6763421D01*
X6726421Y3519496D02*
X6763421D01*
X6726421Y3550992D02*
X6763421D01*
X6726421Y3582488D02*
X6763421D01*
X6726421Y3613984D02*
X6763421D01*
X6726421Y3645480D02*
X6763421D01*
X6726421Y3676976D02*
X6763421D01*
X6726421Y3708472D02*
X6763421D01*
X6726421Y3739968D02*
X6763421D01*
X6677992Y3788398D02*
Y3825398D01*
X6646496Y3788398D02*
Y3825398D01*
X6615000Y3788398D02*
Y3825398D01*
X6583504Y3788398D02*
Y3825398D01*
X6552008Y3788398D02*
Y3825398D01*
X6520512Y3788398D02*
Y3825398D01*
X6489016Y3788398D02*
Y3825398D01*
X6457520Y3788398D02*
Y3825398D01*
X6426024Y3788398D02*
Y3825398D01*
X6394528Y3788398D02*
Y3825398D01*
X6363032Y3788398D02*
Y3825398D01*
X6277603Y3739968D02*
X6314603D01*
X6277603Y3708472D02*
X6314603D01*
X6277603Y3676976D02*
X6314603D01*
X6277603Y3645480D02*
X6314603D01*
X6277603Y3613984D02*
X6314603D01*
X6277603Y3582488D02*
X6314603D01*
X6277603Y3550992D02*
X6314603D01*
X6277603Y3519496D02*
X6314603D01*
X6277603Y3488000D02*
X6314603D01*
X6277603Y3456504D02*
X6314603D01*
X6277603Y3425008D02*
X6314603D01*
G54D13*
X6126142Y4483905D02*
X6136142D01*
X6126142Y4399905D02*
X6136142D01*
G54D14*
X6056890Y3654260D02*
Y3664102D01*
Y3967252D02*
Y3977094D01*
X5879725Y3654260D02*
Y3664102D01*
Y3967252D02*
Y3977094D01*
G54D13*
X6915315Y4484968D02*
X6925315D01*
X6915315Y4400968D02*
X6925315D01*
G54D15*
X5981339Y2957016D02*
X6028583D01*
X5981339Y2838905D02*
X6028583D01*
X6064016Y2897961D03*
G54D10*
X6497166Y4226827D03*
Y4158827D03*
X6776890Y4222181D03*
Y4154181D03*
X6129890Y3119181D03*
Y3187181D03*
G54D13*
X7020827Y3021976D02*
X7030827D01*
X7020827Y3105976D02*
X7030827D01*
G54D10*
X6955355Y3039158D03*
Y3107158D03*
X7033071Y3583984D03*
Y3515984D03*
X6426898Y4276701D03*
X6358898D03*
G54D13*
X6704292Y3886937D02*
X6714292D01*
X6704292Y3970937D02*
X6714292D01*
G54D10*
X6175433Y3781819D03*
Y3713819D03*
X6326534Y3877094D03*
X6394534D03*
X5978890Y3069181D03*
X5910890D03*
X6133142Y4331905D03*
Y4263905D03*
X6917315Y4339968D03*
Y4271968D03*
X6001890Y3581181D03*
Y3649181D03*
X7088044Y3539176D03*
Y3471176D03*
X7084882Y3279173D03*
Y3347173D03*
X6583890Y4179181D03*
Y4247181D03*
X6680890Y4177181D03*
Y4245181D03*
G54D16*
X5987244Y4117055D02*
Y4166268D01*
G54D10*
X6871890Y4029181D03*
X6803890D03*
X5941890Y3192681D02*
Y3197681D01*
X5904890Y3117681D02*
Y3122681D01*
X5978890Y3117681D02*
Y3122681D01*
X6148890Y3058181D03*
X6216890D03*
X6035890Y3121181D03*
Y3189181D03*
X7055890Y2474181D03*
X6987890D03*
G54D17*
X6084390Y3264181D02*
X6139390D01*
X6084390Y3314181D02*
X6139390D01*
X6084390Y3364181D02*
X6139390D01*
X6084390Y3414181D02*
X6139390D01*
X5879390D02*
X5934390D01*
X5879390Y3364181D02*
X5934390D01*
X5879390Y3314181D02*
X5934390D01*
X5879390Y3264181D02*
X5934390D01*
G54D10*
X7033071Y5918732D03*
Y5986732D03*
G54D11*
X6839449Y4712598D02*
X6890945D01*
X6839449Y4791338D02*
X6890945D01*
X6839449Y4870079D02*
X6890945D01*
X6839449Y4948819D02*
X6890945D01*
X6839449Y5027559D02*
X6890945D01*
X6839449Y5106299D02*
X6890945D01*
X6839449Y5185039D02*
X6890945D01*
X6839449Y5263779D02*
X6890945D01*
X6142599D02*
X6194095D01*
X6142599Y5185039D02*
X6194095D01*
X6142599Y5106299D02*
X6194095D01*
X6142599Y5027559D02*
X6194095D01*
X6142599Y4948819D02*
X6194095D01*
X6142599Y4870079D02*
X6194095D01*
X6142599Y4791338D02*
X6194095D01*
X6142599Y4712598D02*
X6194095D01*
G54D12*
X6363032Y5622327D02*
Y5659327D01*
X6394528Y5622327D02*
Y5659327D01*
X6426024Y5622327D02*
Y5659327D01*
X6457520Y5622327D02*
Y5659327D01*
X6489016Y5622327D02*
Y5659327D01*
X6520512Y5622327D02*
Y5659327D01*
X6552008Y5622327D02*
Y5659327D01*
X6583504Y5622327D02*
Y5659327D01*
X6615000Y5622327D02*
Y5659327D01*
X6646496Y5622327D02*
Y5659327D01*
X6677992Y5622327D02*
Y5659327D01*
X6726421Y5707756D02*
X6763421D01*
X6726421Y5739252D02*
X6763421D01*
X6726421Y5770748D02*
X6763421D01*
X6726421Y5802244D02*
X6763421D01*
X6726421Y5833740D02*
X6763421D01*
X6726421Y5865236D02*
X6763421D01*
X6726421Y5896732D02*
X6763421D01*
X6726421Y5928228D02*
X6763421D01*
X6726421Y5959724D02*
X6763421D01*
X6726421Y5991220D02*
X6763421D01*
X6726421Y6022716D02*
X6763421D01*
X6677992Y6071146D02*
Y6108146D01*
X6646496Y6071146D02*
Y6108146D01*
X6615000Y6071146D02*
Y6108146D01*
X6583504Y6071146D02*
Y6108146D01*
X6552008Y6071146D02*
Y6108146D01*
X6520512Y6071146D02*
Y6108146D01*
X6489016Y6071146D02*
Y6108146D01*
X6457520Y6071146D02*
Y6108146D01*
X6426024Y6071146D02*
Y6108146D01*
X6394528Y6071146D02*
Y6108146D01*
X6363032Y6071146D02*
Y6108146D01*
X6277603Y6022716D02*
X6314603D01*
X6277603Y5991220D02*
X6314603D01*
X6277603Y5959724D02*
X6314603D01*
X6277603Y5928228D02*
X6314603D01*
X6277603Y5896732D02*
X6314603D01*
X6277603Y5865236D02*
X6314603D01*
X6277603Y5833740D02*
X6314603D01*
X6277603Y5802244D02*
X6314603D01*
X6277603Y5770748D02*
X6314603D01*
X6277603Y5739252D02*
X6314603D01*
X6277603Y5707756D02*
X6314603D01*
G54D13*
X6126142Y6766653D02*
X6136142D01*
X6126142Y6682653D02*
X6136142D01*
G54D14*
X6056890Y5937008D02*
Y5946850D01*
Y6250000D02*
Y6259842D01*
X5879725Y5937008D02*
Y5946850D01*
Y6250000D02*
Y6259842D01*
G54D13*
X6915315Y6767716D02*
X6925315D01*
X6915315Y6683716D02*
X6925315D01*
G54D15*
X5981339Y5239764D02*
X6028583D01*
X5981339Y5121653D02*
X6028583D01*
X6064016Y5180709D03*
G54D10*
X6497166Y6509575D03*
Y6441575D03*
X6776890Y6504929D03*
Y6436929D03*
X6129890Y5401929D03*
Y5469929D03*
G54D13*
X7020827Y5304724D02*
X7030827D01*
X7020827Y5388724D02*
X7030827D01*
G54D10*
X6955355Y5321906D03*
Y5389906D03*
X7033071Y5866732D03*
Y5798732D03*
X6426898Y6559449D03*
X6358898D03*
G54D13*
X6704292Y6169685D02*
X6714292D01*
X6704292Y6253685D02*
X6714292D01*
G54D10*
X6175433Y6064567D03*
Y5996567D03*
X6326534Y6159842D03*
X6394534D03*
X5978890Y5351929D03*
X5910890D03*
X6133142Y6614653D03*
Y6546653D03*
X6917315Y6622716D03*
Y6554716D03*
X6001890Y5863929D03*
Y5931929D03*
X7088044Y5821924D03*
Y5753924D03*
X7084882Y5561921D03*
Y5629921D03*
X6583890Y6461929D03*
Y6529929D03*
X6680890Y6459929D03*
Y6527929D03*
G54D16*
X5987244Y6399803D02*
Y6449015D01*
G54D10*
X6871890Y6311929D03*
X6803890D03*
X5941890Y5475429D02*
Y5480429D01*
X5904890Y5400429D02*
Y5405429D01*
X5978890Y5400429D02*
Y5405429D01*
X6148890Y5340929D03*
X6216890D03*
X6035890Y5403929D03*
Y5471929D03*
X7055890Y4756929D03*
X6987890D03*
G54D17*
X6084390Y5546929D02*
X6139390D01*
X6084390Y5596929D02*
X6139390D01*
X6084390Y5646929D02*
X6139390D01*
X6084390Y5696929D02*
X6139390D01*
X5879390D02*
X5934390D01*
X5879390Y5646929D02*
X5934390D01*
X5879390Y5596929D02*
X5934390D01*
X5879390Y5546929D02*
X5934390D01*
G54D10*
X7033071Y8201480D03*
Y8269480D03*
G54D11*
X6839449Y6995346D02*
X6890945D01*
X6839449Y7074086D02*
X6890945D01*
X6839449Y7152827D02*
X6890945D01*
X6839449Y7231567D02*
X6890945D01*
X6839449Y7310307D02*
X6890945D01*
X6839449Y7389047D02*
X6890945D01*
X6839449Y7467787D02*
X6890945D01*
X6839449Y7546527D02*
X6890945D01*
X6142599D02*
X6194095D01*
X6142599Y7467787D02*
X6194095D01*
X6142599Y7389047D02*
X6194095D01*
X6142599Y7310307D02*
X6194095D01*
X6142599Y7231567D02*
X6194095D01*
X6142599Y7152827D02*
X6194095D01*
X6142599Y7074086D02*
X6194095D01*
X6142599Y6995346D02*
X6194095D01*
G54D12*
X6363032Y7905075D02*
Y7942075D01*
X6394528Y7905075D02*
Y7942075D01*
X6426024Y7905075D02*
Y7942075D01*
X6457520Y7905075D02*
Y7942075D01*
X6489016Y7905075D02*
Y7942075D01*
X6520512Y7905075D02*
Y7942075D01*
X6552008Y7905075D02*
Y7942075D01*
X6583504Y7905075D02*
Y7942075D01*
X6615000Y7905075D02*
Y7942075D01*
X6646496Y7905075D02*
Y7942075D01*
X6677992Y7905075D02*
Y7942075D01*
X6726421Y7990504D02*
X6763421D01*
X6726421Y8022000D02*
X6763421D01*
X6726421Y8053496D02*
X6763421D01*
X6726421Y8084992D02*
X6763421D01*
X6726421Y8116488D02*
X6763421D01*
X6726421Y8147984D02*
X6763421D01*
X6726421Y8179480D02*
X6763421D01*
X6726421Y8210976D02*
X6763421D01*
X6726421Y8242472D02*
X6763421D01*
X6726421Y8273968D02*
X6763421D01*
X6726421Y8305464D02*
X6763421D01*
X6677992Y8353894D02*
Y8390894D01*
X6646496Y8353894D02*
Y8390894D01*
X6615000Y8353894D02*
Y8390894D01*
X6583504Y8353894D02*
Y8390894D01*
X6552008Y8353894D02*
Y8390894D01*
X6520512Y8353894D02*
Y8390894D01*
X6489016Y8353894D02*
Y8390894D01*
X6457520Y8353894D02*
Y8390894D01*
X6426024Y8353894D02*
Y8390894D01*
X6394528Y8353894D02*
Y8390894D01*
X6363032Y8353894D02*
Y8390894D01*
X6277603Y8305464D02*
X6314603D01*
X6277603Y8273968D02*
X6314603D01*
X6277603Y8242472D02*
X6314603D01*
X6277603Y8210976D02*
X6314603D01*
X6277603Y8179480D02*
X6314603D01*
X6277603Y8147984D02*
X6314603D01*
X6277603Y8116488D02*
X6314603D01*
X6277603Y8084992D02*
X6314603D01*
X6277603Y8053496D02*
X6314603D01*
X6277603Y8022000D02*
X6314603D01*
X6277603Y7990504D02*
X6314603D01*
G54D13*
X6126142Y9049401D02*
X6136142D01*
X6126142Y8965401D02*
X6136142D01*
G54D14*
X6056890Y8219756D02*
Y8229598D01*
Y8532748D02*
Y8542590D01*
X5879725Y8219756D02*
Y8229598D01*
Y8532748D02*
Y8542590D01*
G54D13*
X6915315Y9050464D02*
X6925315D01*
X6915315Y8966464D02*
X6925315D01*
G54D15*
X5981339Y7522512D02*
X6028583D01*
X5981339Y7404401D02*
X6028583D01*
X6064016Y7463457D03*
G54D10*
X6497166Y8792323D03*
Y8724323D03*
X6776890Y8787677D03*
Y8719677D03*
X6129890Y7684677D03*
Y7752677D03*
G54D13*
X7020827Y7587472D02*
X7030827D01*
X7020827Y7671472D02*
X7030827D01*
G54D10*
X6955355Y7604654D03*
Y7672654D03*
X7033071Y8149480D03*
Y8081480D03*
X6426898Y8842197D03*
X6358898D03*
G54D13*
X6704292Y8452433D02*
X6714292D01*
X6704292Y8536433D02*
X6714292D01*
G54D10*
X6175433Y8347315D03*
Y8279315D03*
X6326534Y8442590D03*
X6394534D03*
X5978890Y7634677D03*
X5910890D03*
X6133142Y8897401D03*
Y8829401D03*
X6917315Y8905464D03*
Y8837464D03*
X6001890Y8146677D03*
Y8214677D03*
X7088044Y8104672D03*
Y8036672D03*
X7084882Y7844669D03*
Y7912669D03*
X6583890Y8744677D03*
Y8812677D03*
X6680890Y8742677D03*
Y8810677D03*
G54D16*
X5987244Y8682551D02*
Y8731763D01*
G54D10*
X6871890Y8594677D03*
X6803890D03*
X5941890Y7758177D02*
Y7763177D01*
X5904890Y7683177D02*
Y7688177D01*
X5978890Y7683177D02*
Y7688177D01*
X6148890Y7623677D03*
X6216890D03*
X6035890Y7686677D03*
Y7754677D03*
X7055890Y7039677D03*
X6987890D03*
G54D17*
X6084390Y7829677D02*
X6139390D01*
X6084390Y7879677D02*
X6139390D01*
X6084390Y7929677D02*
X6139390D01*
X6084390Y7979677D02*
X6139390D01*
X5879390D02*
X5934390D01*
X5879390Y7929677D02*
X5934390D01*
X5879390Y7879677D02*
X5934390D01*
X5879390Y7829677D02*
X5934390D01*
G54D10*
X7033071Y10484228D03*
Y10552228D03*
G54D11*
X6839449Y9278094D02*
X6890945D01*
X6839449Y9356834D02*
X6890945D01*
X6839449Y9435575D02*
X6890945D01*
X6839449Y9514315D02*
X6890945D01*
X6839449Y9593055D02*
X6890945D01*
X6839449Y9671795D02*
X6890945D01*
X6839449Y9750535D02*
X6890945D01*
X6839449Y9829275D02*
X6890945D01*
X6142599D02*
X6194095D01*
X6142599Y9750535D02*
X6194095D01*
X6142599Y9671795D02*
X6194095D01*
X6142599Y9593055D02*
X6194095D01*
X6142599Y9514315D02*
X6194095D01*
X6142599Y9435575D02*
X6194095D01*
X6142599Y9356834D02*
X6194095D01*
X6142599Y9278094D02*
X6194095D01*
G54D12*
X6363032Y10187823D02*
Y10224823D01*
X6394528Y10187823D02*
Y10224823D01*
X6426024Y10187823D02*
Y10224823D01*
X6457520Y10187823D02*
Y10224823D01*
X6489016Y10187823D02*
Y10224823D01*
X6520512Y10187823D02*
Y10224823D01*
X6552008Y10187823D02*
Y10224823D01*
X6583504Y10187823D02*
Y10224823D01*
X6615000Y10187823D02*
Y10224823D01*
X6646496Y10187823D02*
Y10224823D01*
X6677992Y10187823D02*
Y10224823D01*
X6726421Y10273252D02*
X6763421D01*
X6726421Y10304748D02*
X6763421D01*
X6726421Y10336244D02*
X6763421D01*
X6726421Y10367740D02*
X6763421D01*
X6726421Y10399236D02*
X6763421D01*
X6726421Y10430732D02*
X6763421D01*
X6726421Y10462228D02*
X6763421D01*
X6726421Y10493724D02*
X6763421D01*
X6726421Y10525220D02*
X6763421D01*
X6726421Y10556716D02*
X6763421D01*
X6726421Y10588212D02*
X6763421D01*
X6677992Y10636642D02*
Y10673642D01*
X6646496Y10636642D02*
Y10673642D01*
X6615000Y10636642D02*
Y10673642D01*
X6583504Y10636642D02*
Y10673642D01*
X6552008Y10636642D02*
Y10673642D01*
X6520512Y10636642D02*
Y10673642D01*
X6489016Y10636642D02*
Y10673642D01*
X6457520Y10636642D02*
Y10673642D01*
X6426024Y10636642D02*
Y10673642D01*
X6394528Y10636642D02*
Y10673642D01*
X6363032Y10636642D02*
Y10673642D01*
X6277603Y10588212D02*
X6314603D01*
X6277603Y10556716D02*
X6314603D01*
X6277603Y10525220D02*
X6314603D01*
X6277603Y10493724D02*
X6314603D01*
X6277603Y10462228D02*
X6314603D01*
X6277603Y10430732D02*
X6314603D01*
X6277603Y10399236D02*
X6314603D01*
X6277603Y10367740D02*
X6314603D01*
X6277603Y10336244D02*
X6314603D01*
X6277603Y10304748D02*
X6314603D01*
X6277603Y10273252D02*
X6314603D01*
G54D13*
X6126142Y11332149D02*
X6136142D01*
X6126142Y11248149D02*
X6136142D01*
G54D14*
X6056890Y10502504D02*
Y10512346D01*
Y10815496D02*
Y10825338D01*
X5879725Y10502504D02*
Y10512346D01*
Y10815496D02*
Y10825338D01*
G54D13*
X6915315Y11333212D02*
X6925315D01*
X6915315Y11249212D02*
X6925315D01*
G54D15*
X5981339Y9805260D02*
X6028583D01*
X5981339Y9687149D02*
X6028583D01*
X6064016Y9746205D03*
G54D10*
X6497166Y11075071D03*
Y11007071D03*
X6776890Y11070425D03*
Y11002425D03*
X6129890Y9967425D03*
Y10035425D03*
G54D13*
X7020827Y9870220D02*
X7030827D01*
X7020827Y9954220D02*
X7030827D01*
G54D10*
X6955355Y9887402D03*
Y9955402D03*
X7033071Y10432228D03*
Y10364228D03*
X6426898Y11124945D03*
X6358898D03*
G54D13*
X6704292Y10735181D02*
X6714292D01*
X6704292Y10819181D02*
X6714292D01*
G54D10*
X6175433Y10630063D03*
Y10562063D03*
X6326534Y10725338D03*
X6394534D03*
X5978890Y9917425D03*
X5910890D03*
X6133142Y11180149D03*
Y11112149D03*
X6917315Y11188212D03*
Y11120212D03*
X6001890Y10429425D03*
Y10497425D03*
X7088044Y10387420D03*
Y10319420D03*
X7084882Y10127417D03*
Y10195417D03*
X6583890Y11027425D03*
Y11095425D03*
X6680890Y11025425D03*
Y11093425D03*
G54D16*
X5987244Y10965299D02*
Y11014511D01*
G54D10*
X6871890Y10877425D03*
X6803890D03*
X5941890Y10040925D02*
Y10045925D01*
X5904890Y9965925D02*
Y9970925D01*
X5978890Y9965925D02*
Y9970925D01*
X6148890Y9906425D03*
X6216890D03*
X6035890Y9969425D03*
Y10037425D03*
X7055890Y9322425D03*
X6987890D03*
G54D17*
X6084390Y10112425D02*
X6139390D01*
X6084390Y10162425D02*
X6139390D01*
X6084390Y10212425D02*
X6139390D01*
X6084390Y10262425D02*
X6139390D01*
X5879390D02*
X5934390D01*
X5879390Y10212425D02*
X5934390D01*
X5879390Y10162425D02*
X5934390D01*
X5879390Y10112425D02*
X5934390D01*
G54D18*
X-191725Y11218071D03*
Y198032D03*
X7473236D03*
M02*
