*
%FSLAX35Y35*%
%MOMM*%
%ADD10C,0.254000*%
%IPPOS*%
%LNcevre.gbr*%
%LPD*%
G75*
G54D10*
X00800000Y01863630D02*
X03655620D01*
Y00800000D01*
X00800000D01*
Y01863630D01*
Y02927230D02*
X03655620D01*
Y01863600D01*
X00800000D01*
Y02927230D01*
Y03990830D02*
X03655620D01*
Y02927200D01*
X00800000D01*
Y03990830D01*
Y05054430D02*
X03655620D01*
Y03990800D01*
X00800000D01*
Y05054430D01*
Y06118030D02*
X03655620D01*
Y05054400D01*
X00800000D01*
Y06118030D01*
Y07181630D02*
X03655620D01*
Y06118000D01*
X00800000D01*
Y07181630D01*
Y08245230D02*
X03655620D01*
Y07181600D01*
X00800000D01*
Y08245230D01*
Y09308830D02*
X03655620D01*
Y08245200D01*
X00800000D01*
Y09308830D01*
Y10372430D02*
X03655620D01*
Y09308800D01*
X00800000D01*
Y10372430D01*
Y11436030D02*
X03655620D01*
Y10372400D01*
X00800000D01*
Y11436030D01*
X03655600Y01863630D02*
X06511220D01*
Y00800000D01*
X03655600D01*
Y01863630D01*
Y02927230D02*
X06511220D01*
Y01863600D01*
X03655600D01*
Y02927230D01*
Y03990830D02*
X06511220D01*
Y02927200D01*
X03655600D01*
Y03990830D01*
Y05054430D02*
X06511220D01*
Y03990800D01*
X03655600D01*
Y05054430D01*
Y06118030D02*
X06511220D01*
Y05054400D01*
X03655600D01*
Y06118030D01*
Y07181630D02*
X06511220D01*
Y06118000D01*
X03655600D01*
Y07181630D01*
Y08245230D02*
X06511220D01*
Y07181600D01*
X03655600D01*
Y08245230D01*
Y09308830D02*
X06511220D01*
Y08245200D01*
X03655600D01*
Y09308830D01*
Y10372430D02*
X06511220D01*
Y09308800D01*
X03655600D01*
Y10372430D01*
Y11436030D02*
X06511220D01*
Y10372400D01*
X03655600D01*
Y11436030D01*
X06511200Y01863630D02*
X09366820D01*
Y00800000D01*
X06511200D01*
Y01863630D01*
Y02927230D02*
X09366820D01*
Y01863600D01*
X06511200D01*
Y02927230D01*
Y03990830D02*
X09366820D01*
Y02927200D01*
X06511200D01*
Y03990830D01*
Y05054430D02*
X09366820D01*
Y03990800D01*
X06511200D01*
Y05054430D01*
Y06118030D02*
X09366820D01*
Y05054400D01*
X06511200D01*
Y06118030D01*
Y07181630D02*
X09366820D01*
Y06118000D01*
X06511200D01*
Y07181630D01*
Y08245230D02*
X09366820D01*
Y07181600D01*
X06511200D01*
Y08245230D01*
Y09308830D02*
X09366820D01*
Y08245200D01*
X06511200D01*
Y09308830D01*
Y10372430D02*
X09366820D01*
Y09308800D01*
X06511200D01*
Y10372430D01*
Y11436030D02*
X09366820D01*
Y10372400D01*
X06511200D01*
Y11436030D01*
X09366800Y01863630D02*
X12222420D01*
Y00800000D01*
X09366800D01*
Y01863630D01*
Y02927230D02*
X12222420D01*
Y01863600D01*
X09366800D01*
Y02927230D01*
Y03990830D02*
X12222420D01*
Y02927200D01*
X09366800D01*
Y03990830D01*
Y05054430D02*
X12222420D01*
Y03990800D01*
X09366800D01*
Y05054430D01*
Y06118030D02*
X12222420D01*
Y05054400D01*
X09366800D01*
Y06118030D01*
Y07181630D02*
X12222420D01*
Y06118000D01*
X09366800D01*
Y07181630D01*
Y08245230D02*
X12222420D01*
Y07181600D01*
X09366800D01*
Y08245230D01*
Y09308830D02*
X12222420D01*
Y08245200D01*
X09366800D01*
Y09308830D01*
Y10372430D02*
X12222420D01*
Y09308800D01*
X09366800D01*
Y10372430D01*
Y11436030D02*
X12222420D01*
Y10372400D01*
X09366800D01*
Y11436030D01*
X12222400Y01863630D02*
X15078020D01*
Y00800000D01*
X12222400D01*
Y01863630D01*
Y02927230D02*
X15078020D01*
Y01863600D01*
X12222400D01*
Y02927230D01*
Y03990830D02*
X15078020D01*
Y02927200D01*
X12222400D01*
Y03990830D01*
Y05054430D02*
X15078020D01*
Y03990800D01*
X12222400D01*
Y05054430D01*
Y06118030D02*
X15078020D01*
Y05054400D01*
X12222400D01*
Y06118030D01*
Y07181630D02*
X15078020D01*
Y06118000D01*
X12222400D01*
Y07181630D01*
Y08245230D02*
X15078020D01*
Y07181600D01*
X12222400D01*
Y08245230D01*
Y09308830D02*
X15078020D01*
Y08245200D01*
X12222400D01*
Y09308830D01*
Y10372430D02*
X15078020D01*
Y09308800D01*
X12222400D01*
Y10372430D01*
Y11436030D02*
X15078020D01*
Y10372400D01*
X12222400D01*
Y11436030D01*
X00000000Y00000000D02*
Y12236000D01*
X15878000D01*
Y00000000D01*
X00000000D01*
M02*
