*
%FSLAX36Y36*%
%MOIN*%
%ADD10C,0.010000*%
%ADD11R,0.053000X0.053000*%
%ADD12R,0.052000X0.052000*%
%ADD13R,0.059000X0.059000*%
%ADD14R,0.019690X0.019690*%
%ADD15R,0.055000X0.055000*%
%ADD16R,0.035430X0.035430*%
%ADD17C,0.003937*%
%ADD18C,0.080709*%
%IPPOS*%
%LNs2c02725.gbp*%
%LPD*%
G75*
G54D10*
X2274551Y1759519D02*
X2227542Y1745500D01*
X2234812Y1721130D01*
X2281821Y1735150D01*
X2274551Y1759519D01*
X2276262Y1753780D02*
X2255321D01*
X2279242Y1743780D02*
X2228051D01*
X2277251Y1733780D02*
X2231042D01*
X2243721Y1723780D02*
X2234021D01*
X2277031Y1751190D02*
Y1733719D01*
X2267031Y1757280D02*
Y1730740D01*
X2257031Y1754300D02*
Y1727760D01*
X2247031Y1751310D02*
Y1724769D01*
X2237031Y1748330D02*
Y1721790D01*
X2228421Y1914210D02*
X2181412Y1900180D01*
X2188681Y1875810D01*
X2235692Y1889830D01*
X2228421Y1914210D01*
X2228542Y1913780D02*
X2227012D01*
X2231521Y1903780D02*
X2193481D01*
X2234512Y1893780D02*
X2183321D01*
X2215412Y1883780D02*
X2186301D01*
X2227031Y1913790D02*
Y1887250D01*
X2217031Y1910810D02*
Y1884269D01*
X2207031Y1907830D02*
Y1881290D01*
X2197031Y1904850D02*
Y1878310D01*
X2187031Y1901860D02*
Y1881319D01*
X2444221Y1978569D02*
X2397212Y1964550D01*
X2404481Y1940180D01*
X2451492Y1954200D01*
X2444221Y1978569D01*
X2445651Y1973780D02*
X2428181D01*
X2448631Y1963780D02*
X2397442D01*
X2450112Y1953780D02*
X2400421D01*
X2416581Y1943780D02*
X2403401D01*
X2447031Y1969130D02*
Y1952869D01*
X2437031Y1976419D02*
Y1949880D01*
X2427031Y1973440D02*
Y1946900D01*
X2417031Y1970460D02*
Y1943919D01*
X2407031Y1967480D02*
Y1940940D01*
X2490351Y1823880D02*
X2443351Y1809860D01*
X2450612Y1785490D01*
X2497621Y1799510D01*
X2490351Y1823880D01*
X2490381Y1823780D02*
X2490021D01*
X2493371Y1813780D02*
X2456492D01*
X2496351Y1803780D02*
X2445162D01*
X2478421Y1793780D02*
X2448142D01*
X2497031Y1801480D02*
Y1799340D01*
X2487031Y1822890D02*
Y1796350D01*
X2477031Y1819910D02*
Y1793369D01*
X2467031Y1816930D02*
Y1790390D01*
X2457031Y1813950D02*
Y1787410D01*
X2447031Y1810960D02*
Y1797490D01*
G54D11*
X2723021Y2024850D02*
X2706021D01*
X2723021Y1874850D02*
X2706021D01*
X2638021Y1999850D02*
X2621021D01*
X2638021Y1849850D02*
X2621021D01*
X2502021Y1415850D02*
X2519021D01*
X2502021Y1565850D02*
X2519021D01*
X2383021Y534850D02*
X2366021D01*
X2383021Y384850D02*
X2366021D01*
X2257531Y546780D02*
X2240531D01*
X2257531Y396780D02*
X2240531D01*
X2301021Y1009850D02*
X2318021D01*
X2301021Y1159850D02*
X2318021D01*
X2365021Y634850D02*
X2382021D01*
X2365021Y784850D02*
X2382021D01*
X3117531Y1691780D02*
X3134531D01*
X3117531Y1841780D02*
X3134531D01*
G54D12*
X2134031Y534280D02*
Y535280D01*
Y630280D02*
Y631280D01*
X2132521Y703350D02*
Y704350D01*
Y799350D02*
Y800350D01*
G54D13*
X2222521Y1006850D02*
X2226521D01*
X2222521Y1162850D02*
X2226521D01*
G54D14*
X1617512Y951660D02*
Y935910D01*
X1676562Y951660D02*
Y935910D01*
X1646562Y1025910D02*
Y1041660D01*
X1587512Y1025910D02*
Y1041660D01*
X1527512Y951660D02*
Y935910D01*
X1586562Y951660D02*
Y935910D01*
X1707512Y1141660D02*
Y1125910D01*
X1766562Y1141660D02*
Y1125910D01*
Y1025910D02*
Y1041660D01*
X1707512Y1025910D02*
Y1041660D01*
Y951660D02*
Y935910D01*
X1766562Y951660D02*
Y935910D01*
G54D15*
X2399521Y1044850D02*
Y1028850D01*
Y910850D02*
Y894850D01*
G54D16*
X2136521Y874450D03*
G54D16*
Y949250D03*
X2385192Y1120380D02*
X2404881D01*
X2385192Y1195190D02*
X2404881D01*
G54D16*
X2460031Y1177190D03*
G54D16*
Y1102380D03*
G54D16*
X2292031Y891190D03*
G54D16*
Y816380D03*
G54D10*
X5196551Y1759519D02*
X5149542Y1745500D01*
X5156812Y1721130D01*
X5203821Y1735150D01*
X5196551Y1759519D01*
X5198262Y1753780D02*
X5177321D01*
X5201242Y1743780D02*
X5150051D01*
X5199251Y1733780D02*
X5153042D01*
X5165721Y1723780D02*
X5156021D01*
X5199031Y1751190D02*
Y1733719D01*
X5189031Y1757280D02*
Y1730740D01*
X5179031Y1754300D02*
Y1727760D01*
X5169031Y1751310D02*
Y1724769D01*
X5159031Y1748330D02*
Y1721790D01*
X5150421Y1914210D02*
X5103412Y1900180D01*
X5110681Y1875810D01*
X5157692Y1889830D01*
X5150421Y1914210D01*
X5150542Y1913780D02*
X5149012D01*
X5153521Y1903780D02*
X5115481D01*
X5156512Y1893780D02*
X5105321D01*
X5137412Y1883780D02*
X5108301D01*
X5149031Y1913790D02*
Y1887250D01*
X5139031Y1910810D02*
Y1884269D01*
X5129031Y1907830D02*
Y1881290D01*
X5119031Y1904850D02*
Y1878310D01*
X5109031Y1901860D02*
Y1881319D01*
X5366221Y1978569D02*
X5319212Y1964550D01*
X5326481Y1940180D01*
X5373492Y1954200D01*
X5366221Y1978569D01*
X5367651Y1973780D02*
X5350181D01*
X5370631Y1963780D02*
X5319442D01*
X5372112Y1953780D02*
X5322421D01*
X5338581Y1943780D02*
X5325401D01*
X5369031Y1969130D02*
Y1952869D01*
X5359031Y1976419D02*
Y1949880D01*
X5349031Y1973440D02*
Y1946900D01*
X5339031Y1970460D02*
Y1943919D01*
X5329031Y1967480D02*
Y1940940D01*
X5412351Y1823880D02*
X5365351Y1809860D01*
X5372612Y1785490D01*
X5419621Y1799510D01*
X5412351Y1823880D01*
X5412381Y1823780D02*
X5412021D01*
X5415371Y1813780D02*
X5378492D01*
X5418351Y1803780D02*
X5367162D01*
X5400421Y1793780D02*
X5370142D01*
X5419031Y1801480D02*
Y1799340D01*
X5409031Y1822890D02*
Y1796350D01*
X5399031Y1819910D02*
Y1793369D01*
X5389031Y1816930D02*
Y1790390D01*
X5379031Y1813950D02*
Y1787410D01*
X5369031Y1810960D02*
Y1797490D01*
G54D11*
X5645021Y2024850D02*
X5628021D01*
X5645021Y1874850D02*
X5628021D01*
X5560021Y1999850D02*
X5543021D01*
X5560021Y1849850D02*
X5543021D01*
X5424021Y1415850D02*
X5441021D01*
X5424021Y1565850D02*
X5441021D01*
X5305021Y534850D02*
X5288021D01*
X5305021Y384850D02*
X5288021D01*
X5179531Y546780D02*
X5162531D01*
X5179531Y396780D02*
X5162531D01*
X5223021Y1009850D02*
X5240021D01*
X5223021Y1159850D02*
X5240021D01*
X5287021Y634850D02*
X5304021D01*
X5287021Y784850D02*
X5304021D01*
X6039531Y1691780D02*
X6056531D01*
X6039531Y1841780D02*
X6056531D01*
G54D12*
X5056031Y534280D02*
Y535280D01*
Y630280D02*
Y631280D01*
X5054521Y703350D02*
Y704350D01*
Y799350D02*
Y800350D01*
G54D13*
X5144521Y1006850D02*
X5148521D01*
X5144521Y1162850D02*
X5148521D01*
G54D14*
X4539512Y951660D02*
Y935910D01*
X4598562Y951660D02*
Y935910D01*
X4568562Y1025910D02*
Y1041660D01*
X4509512Y1025910D02*
Y1041660D01*
X4449512Y951660D02*
Y935910D01*
X4508562Y951660D02*
Y935910D01*
X4629512Y1141660D02*
Y1125910D01*
X4688562Y1141660D02*
Y1125910D01*
Y1025910D02*
Y1041660D01*
X4629512Y1025910D02*
Y1041660D01*
Y951660D02*
Y935910D01*
X4688562Y951660D02*
Y935910D01*
G54D15*
X5321521Y1044850D02*
Y1028850D01*
Y910850D02*
Y894850D01*
G54D16*
X5058521Y874450D03*
G54D16*
Y949250D03*
X5307192Y1120380D02*
X5326881D01*
X5307192Y1195190D02*
X5326881D01*
G54D16*
X5382031Y1177190D03*
G54D16*
Y1102380D03*
G54D16*
X5214031Y891190D03*
G54D16*
Y816380D03*
G54D10*
X8118551Y1759519D02*
X8071542Y1745500D01*
X8078812Y1721130D01*
X8125821Y1735150D01*
X8118551Y1759519D01*
X8120262Y1753780D02*
X8099321D01*
X8123242Y1743780D02*
X8072051D01*
X8121251Y1733780D02*
X8075042D01*
X8087721Y1723780D02*
X8078021D01*
X8121031Y1751190D02*
Y1733719D01*
X8111031Y1757280D02*
Y1730740D01*
X8101031Y1754300D02*
Y1727760D01*
X8091031Y1751310D02*
Y1724769D01*
X8081031Y1748330D02*
Y1721790D01*
X8072421Y1914210D02*
X8025412Y1900180D01*
X8032681Y1875810D01*
X8079692Y1889830D01*
X8072421Y1914210D01*
X8072542Y1913780D02*
X8071012D01*
X8075521Y1903780D02*
X8037481D01*
X8078512Y1893780D02*
X8027321D01*
X8059412Y1883780D02*
X8030301D01*
X8071031Y1913790D02*
Y1887250D01*
X8061031Y1910810D02*
Y1884269D01*
X8051031Y1907830D02*
Y1881290D01*
X8041031Y1904850D02*
Y1878310D01*
X8031031Y1901860D02*
Y1881319D01*
X8288221Y1978569D02*
X8241212Y1964550D01*
X8248481Y1940180D01*
X8295492Y1954200D01*
X8288221Y1978569D01*
X8289651Y1973780D02*
X8272181D01*
X8292631Y1963780D02*
X8241442D01*
X8294112Y1953780D02*
X8244421D01*
X8260581Y1943780D02*
X8247401D01*
X8291031Y1969130D02*
Y1952869D01*
X8281031Y1976419D02*
Y1949880D01*
X8271031Y1973440D02*
Y1946900D01*
X8261031Y1970460D02*
Y1943919D01*
X8251031Y1967480D02*
Y1940940D01*
X8334351Y1823880D02*
X8287351Y1809860D01*
X8294612Y1785490D01*
X8341621Y1799510D01*
X8334351Y1823880D01*
X8334381Y1823780D02*
X8334021D01*
X8337371Y1813780D02*
X8300492D01*
X8340351Y1803780D02*
X8289162D01*
X8322421Y1793780D02*
X8292142D01*
X8341031Y1801480D02*
Y1799340D01*
X8331031Y1822890D02*
Y1796350D01*
X8321031Y1819910D02*
Y1793369D01*
X8311031Y1816930D02*
Y1790390D01*
X8301031Y1813950D02*
Y1787410D01*
X8291031Y1810960D02*
Y1797490D01*
G54D11*
X8567021Y2024850D02*
X8550021D01*
X8567021Y1874850D02*
X8550021D01*
X8482021Y1999850D02*
X8465021D01*
X8482021Y1849850D02*
X8465021D01*
X8346021Y1415850D02*
X8363021D01*
X8346021Y1565850D02*
X8363021D01*
X8227021Y534850D02*
X8210021D01*
X8227021Y384850D02*
X8210021D01*
X8101531Y546780D02*
X8084531D01*
X8101531Y396780D02*
X8084531D01*
X8145021Y1009850D02*
X8162021D01*
X8145021Y1159850D02*
X8162021D01*
X8209021Y634850D02*
X8226021D01*
X8209021Y784850D02*
X8226021D01*
X8961531Y1691780D02*
X8978531D01*
X8961531Y1841780D02*
X8978531D01*
G54D12*
X7978031Y534280D02*
Y535280D01*
Y630280D02*
Y631280D01*
X7976521Y703350D02*
Y704350D01*
Y799350D02*
Y800350D01*
G54D13*
X8066521Y1006850D02*
X8070521D01*
X8066521Y1162850D02*
X8070521D01*
G54D14*
X7461512Y951660D02*
Y935910D01*
X7520562Y951660D02*
Y935910D01*
X7490562Y1025910D02*
Y1041660D01*
X7431512Y1025910D02*
Y1041660D01*
X7371512Y951660D02*
Y935910D01*
X7430562Y951660D02*
Y935910D01*
X7551512Y1141660D02*
Y1125910D01*
X7610562Y1141660D02*
Y1125910D01*
Y1025910D02*
Y1041660D01*
X7551512Y1025910D02*
Y1041660D01*
Y951660D02*
Y935910D01*
X7610562Y951660D02*
Y935910D01*
G54D15*
X8243521Y1044850D02*
Y1028850D01*
Y910850D02*
Y894850D01*
G54D16*
X7980521Y874450D03*
G54D16*
Y949250D03*
X8229192Y1120380D02*
X8248881D01*
X8229192Y1195190D02*
X8248881D01*
G54D16*
X8304031Y1177190D03*
G54D16*
Y1102380D03*
G54D16*
X8136031Y891190D03*
G54D16*
Y816380D03*
G54D10*
X1277512Y2768040D02*
X1324521Y2782060D01*
X1317251Y2806430D01*
X1270242Y2792410D01*
X1277512Y2768040D01*
X1275801Y2773780D02*
X1296742D01*
X1272821Y2783780D02*
X1324012D01*
X1274812Y2793780D02*
X1321021D01*
X1308342Y2803780D02*
X1318042D01*
X1275031Y2776369D02*
Y2793840D01*
X1285031Y2770280D02*
Y2796819D01*
X1295031Y2773260D02*
Y2799800D01*
X1305031Y2776250D02*
Y2802790D01*
X1315031Y2779230D02*
Y2805769D01*
X1323642Y2613350D02*
X1370651Y2627380D01*
X1363381Y2651750D01*
X1316371Y2637730D01*
X1323642Y2613350D01*
X1323521Y2613780D02*
X1325051D01*
X1320542Y2623780D02*
X1358581D01*
X1317551Y2633780D02*
X1368742D01*
X1336651Y2643780D02*
X1365762D01*
X1325031Y2613769D02*
Y2640310D01*
X1335031Y2616750D02*
Y2643290D01*
X1345031Y2619730D02*
Y2646269D01*
X1355031Y2622710D02*
Y2649250D01*
X1365031Y2625700D02*
Y2646240D01*
X1107842Y2548990D02*
X1154851Y2563010D01*
X1147581Y2587380D01*
X1100571Y2573360D01*
X1107842Y2548990D01*
X1106412Y2553780D02*
X1123881D01*
X1103431Y2563780D02*
X1154621D01*
X1101951Y2573780D02*
X1151642D01*
X1135481Y2583780D02*
X1148662D01*
X1105031Y2558430D02*
Y2574690D01*
X1115031Y2551140D02*
Y2577680D01*
X1125031Y2554119D02*
Y2580660D01*
X1135031Y2557100D02*
Y2583640D01*
X1145031Y2560080D02*
Y2586619D01*
X1061712Y2703680D02*
X1108712Y2717700D01*
X1101451Y2742069D01*
X1054442Y2728050D01*
X1061712Y2703680D01*
X1061681Y2703780D02*
X1062042D01*
X1058692Y2713780D02*
X1095571D01*
X1055712Y2723780D02*
X1106901D01*
X1073642Y2733780D02*
X1103921D01*
X1055031Y2726080D02*
Y2728219D01*
X1065031Y2704669D02*
Y2731210D01*
X1075031Y2707650D02*
Y2734190D01*
X1085031Y2710630D02*
Y2737169D01*
X1095031Y2713610D02*
Y2740150D01*
X1105031Y2716600D02*
Y2730069D01*
G54D11*
X829042Y2502710D02*
X846042D01*
X829042Y2652710D02*
X846042D01*
X914042Y2527710D02*
X931042D01*
X914042Y2677710D02*
X931042D01*
X1050042Y3111710D02*
X1033042D01*
X1050042Y2961710D02*
X1033042D01*
X1169042Y3992710D02*
X1186042D01*
X1169042Y4142710D02*
X1186042D01*
X1294531Y3980780D02*
X1311531D01*
X1294531Y4130780D02*
X1311531D01*
X1251042Y3517710D02*
X1234042D01*
X1251042Y3367710D02*
X1234042D01*
X1187042Y3892710D02*
X1170042D01*
X1187042Y3742710D02*
X1170042D01*
X434531Y2835780D02*
X417531D01*
X434531Y2685780D02*
X417531D01*
G54D12*
X1418031Y3993280D02*
Y3992280D01*
Y3897280D02*
Y3896280D01*
X1419542Y3824210D02*
Y3823210D01*
Y3728210D02*
Y3727210D01*
G54D13*
X1329542Y3520710D02*
X1325542D01*
X1329542Y3364710D02*
X1325542D01*
G54D14*
X1934551Y3575900D02*
Y3591650D01*
X1875501Y3575900D02*
Y3591650D01*
X1905501Y3501650D02*
Y3485900D01*
X1964551Y3501650D02*
Y3485900D01*
X2024551Y3575900D02*
Y3591650D01*
X1965501Y3575900D02*
Y3591650D01*
X1844551Y3385900D02*
Y3401650D01*
X1785501Y3385900D02*
Y3401650D01*
Y3501650D02*
Y3485900D01*
X1844551Y3501650D02*
Y3485900D01*
Y3575900D02*
Y3591650D01*
X1785501Y3575900D02*
Y3591650D01*
G54D15*
X1152542Y3482710D02*
Y3498710D01*
Y3616710D02*
Y3632710D01*
G54D16*
X1415542Y3653110D03*
Y3578310D03*
X1166871Y3407180D02*
X1147181D01*
X1166871Y3332369D02*
X1147181D01*
X1092031Y3350369D03*
Y3425180D03*
X1260031Y3636369D03*
Y3711180D03*
G54D10*
X4199512Y2768040D02*
X4246521Y2782060D01*
X4239251Y2806430D01*
X4192242Y2792410D01*
X4199512Y2768040D01*
X4197801Y2773780D02*
X4218742D01*
X4194821Y2783780D02*
X4246012D01*
X4196812Y2793780D02*
X4243021D01*
X4230342Y2803780D02*
X4240042D01*
X4197031Y2776369D02*
Y2793840D01*
X4207031Y2770280D02*
Y2796819D01*
X4217031Y2773260D02*
Y2799800D01*
X4227031Y2776250D02*
Y2802790D01*
X4237031Y2779230D02*
Y2805769D01*
X4245642Y2613350D02*
X4292651Y2627380D01*
X4285381Y2651750D01*
X4238371Y2637730D01*
X4245642Y2613350D01*
X4245521Y2613780D02*
X4247051D01*
X4242542Y2623780D02*
X4280581D01*
X4239551Y2633780D02*
X4290742D01*
X4258651Y2643780D02*
X4287762D01*
X4247031Y2613769D02*
Y2640310D01*
X4257031Y2616750D02*
Y2643290D01*
X4267031Y2619730D02*
Y2646269D01*
X4277031Y2622710D02*
Y2649250D01*
X4287031Y2625700D02*
Y2646240D01*
X4029842Y2548990D02*
X4076851Y2563010D01*
X4069581Y2587380D01*
X4022571Y2573360D01*
X4029842Y2548990D01*
X4028412Y2553780D02*
X4045881D01*
X4025431Y2563780D02*
X4076621D01*
X4023951Y2573780D02*
X4073642D01*
X4057481Y2583780D02*
X4070662D01*
X4027031Y2558430D02*
Y2574690D01*
X4037031Y2551140D02*
Y2577680D01*
X4047031Y2554119D02*
Y2580660D01*
X4057031Y2557100D02*
Y2583640D01*
X4067031Y2560080D02*
Y2586619D01*
X3983712Y2703680D02*
X4030712Y2717700D01*
X4023451Y2742069D01*
X3976442Y2728050D01*
X3983712Y2703680D01*
X3983681Y2703780D02*
X3984042D01*
X3980692Y2713780D02*
X4017571D01*
X3977712Y2723780D02*
X4028901D01*
X3995642Y2733780D02*
X4025921D01*
X3977031Y2726080D02*
Y2728219D01*
X3987031Y2704669D02*
Y2731210D01*
X3997031Y2707650D02*
Y2734190D01*
X4007031Y2710630D02*
Y2737169D01*
X4017031Y2713610D02*
Y2740150D01*
X4027031Y2716600D02*
Y2730069D01*
G54D11*
X3751042Y2502710D02*
X3768042D01*
X3751042Y2652710D02*
X3768042D01*
X3836042Y2527710D02*
X3853042D01*
X3836042Y2677710D02*
X3853042D01*
X3972042Y3111710D02*
X3955042D01*
X3972042Y2961710D02*
X3955042D01*
X4091042Y3992710D02*
X4108042D01*
X4091042Y4142710D02*
X4108042D01*
X4216531Y3980780D02*
X4233531D01*
X4216531Y4130780D02*
X4233531D01*
X4173042Y3517710D02*
X4156042D01*
X4173042Y3367710D02*
X4156042D01*
X4109042Y3892710D02*
X4092042D01*
X4109042Y3742710D02*
X4092042D01*
X3356531Y2835780D02*
X3339531D01*
X3356531Y2685780D02*
X3339531D01*
G54D12*
X4340031Y3993280D02*
Y3992280D01*
Y3897280D02*
Y3896280D01*
X4341542Y3824210D02*
Y3823210D01*
Y3728210D02*
Y3727210D01*
G54D13*
X4251542Y3520710D02*
X4247542D01*
X4251542Y3364710D02*
X4247542D01*
G54D14*
X4856551Y3575900D02*
Y3591650D01*
X4797501Y3575900D02*
Y3591650D01*
X4827501Y3501650D02*
Y3485900D01*
X4886551Y3501650D02*
Y3485900D01*
X4946551Y3575900D02*
Y3591650D01*
X4887501Y3575900D02*
Y3591650D01*
X4766551Y3385900D02*
Y3401650D01*
X4707501Y3385900D02*
Y3401650D01*
Y3501650D02*
Y3485900D01*
X4766551Y3501650D02*
Y3485900D01*
Y3575900D02*
Y3591650D01*
X4707501Y3575900D02*
Y3591650D01*
G54D15*
X4074542Y3482710D02*
Y3498710D01*
Y3616710D02*
Y3632710D01*
G54D16*
X4337542Y3653110D03*
Y3578310D03*
X4088871Y3407180D02*
X4069181D01*
X4088871Y3332369D02*
X4069181D01*
X4014031Y3350369D03*
Y3425180D03*
X4182031Y3636369D03*
Y3711180D03*
G54D10*
X7121512Y2768040D02*
X7168521Y2782060D01*
X7161251Y2806430D01*
X7114242Y2792410D01*
X7121512Y2768040D01*
X7119801Y2773780D02*
X7140742D01*
X7116821Y2783780D02*
X7168012D01*
X7118812Y2793780D02*
X7165021D01*
X7152342Y2803780D02*
X7162042D01*
X7119031Y2776369D02*
Y2793840D01*
X7129031Y2770280D02*
Y2796819D01*
X7139031Y2773260D02*
Y2799800D01*
X7149031Y2776250D02*
Y2802790D01*
X7159031Y2779230D02*
Y2805769D01*
X7167642Y2613350D02*
X7214651Y2627380D01*
X7207381Y2651750D01*
X7160371Y2637730D01*
X7167642Y2613350D01*
X7167521Y2613780D02*
X7169051D01*
X7164542Y2623780D02*
X7202581D01*
X7161551Y2633780D02*
X7212742D01*
X7180651Y2643780D02*
X7209762D01*
X7169031Y2613769D02*
Y2640310D01*
X7179031Y2616750D02*
Y2643290D01*
X7189031Y2619730D02*
Y2646269D01*
X7199031Y2622710D02*
Y2649250D01*
X7209031Y2625700D02*
Y2646240D01*
X6951842Y2548990D02*
X6998851Y2563010D01*
X6991581Y2587380D01*
X6944571Y2573360D01*
X6951842Y2548990D01*
X6950412Y2553780D02*
X6967881D01*
X6947431Y2563780D02*
X6998621D01*
X6945951Y2573780D02*
X6995642D01*
X6979481Y2583780D02*
X6992662D01*
X6949031Y2558430D02*
Y2574690D01*
X6959031Y2551140D02*
Y2577680D01*
X6969031Y2554119D02*
Y2580660D01*
X6979031Y2557100D02*
Y2583640D01*
X6989031Y2560080D02*
Y2586619D01*
X6905712Y2703680D02*
X6952712Y2717700D01*
X6945451Y2742069D01*
X6898442Y2728050D01*
X6905712Y2703680D01*
X6905681Y2703780D02*
X6906042D01*
X6902692Y2713780D02*
X6939571D01*
X6899712Y2723780D02*
X6950901D01*
X6917642Y2733780D02*
X6947921D01*
X6899031Y2726080D02*
Y2728219D01*
X6909031Y2704669D02*
Y2731210D01*
X6919031Y2707650D02*
Y2734190D01*
X6929031Y2710630D02*
Y2737169D01*
X6939031Y2713610D02*
Y2740150D01*
X6949031Y2716600D02*
Y2730069D01*
G54D11*
X6673042Y2502710D02*
X6690042D01*
X6673042Y2652710D02*
X6690042D01*
X6758042Y2527710D02*
X6775042D01*
X6758042Y2677710D02*
X6775042D01*
X6894042Y3111710D02*
X6877042D01*
X6894042Y2961710D02*
X6877042D01*
X7013042Y3992710D02*
X7030042D01*
X7013042Y4142710D02*
X7030042D01*
X7138531Y3980780D02*
X7155531D01*
X7138531Y4130780D02*
X7155531D01*
X7095042Y3517710D02*
X7078042D01*
X7095042Y3367710D02*
X7078042D01*
X7031042Y3892710D02*
X7014042D01*
X7031042Y3742710D02*
X7014042D01*
X6278531Y2835780D02*
X6261531D01*
X6278531Y2685780D02*
X6261531D01*
G54D12*
X7262031Y3993280D02*
Y3992280D01*
Y3897280D02*
Y3896280D01*
X7263542Y3824210D02*
Y3823210D01*
Y3728210D02*
Y3727210D01*
G54D13*
X7173542Y3520710D02*
X7169542D01*
X7173542Y3364710D02*
X7169542D01*
G54D14*
X7778551Y3575900D02*
Y3591650D01*
X7719501Y3575900D02*
Y3591650D01*
X7749501Y3501650D02*
Y3485900D01*
X7808551Y3501650D02*
Y3485900D01*
X7868551Y3575900D02*
Y3591650D01*
X7809501Y3575900D02*
Y3591650D01*
X7688551Y3385900D02*
Y3401650D01*
X7629501Y3385900D02*
Y3401650D01*
Y3501650D02*
Y3485900D01*
X7688551Y3501650D02*
Y3485900D01*
Y3575900D02*
Y3591650D01*
X7629501Y3575900D02*
Y3591650D01*
G54D15*
X6996542Y3482710D02*
Y3498710D01*
Y3616710D02*
Y3632710D01*
G54D16*
X7259542Y3653110D03*
Y3578310D03*
X7010871Y3407180D02*
X6991181D01*
X7010871Y3332369D02*
X6991181D01*
X6936031Y3350369D03*
Y3425180D03*
X7104031Y3636369D03*
Y3711180D03*
G54D17*
X6994421Y314969D02*
X8608592D01*
X3237031Y2263780D02*
Y2743780D01*
X2835031D01*
X2834612Y3311019D01*
X2755871Y3389760D01*
X2401642D01*
Y4212590D01*
X787471D01*
X748101Y4133850D01*
Y3389760D01*
X315031D01*
Y4527559D02*
Y0D01*
X1482542Y4177710D02*
X1612871D01*
X1612542Y3412710D01*
X1480542D01*
Y3532390D01*
X1461042Y3580890D01*
Y4028490D01*
X1482542Y4088490D01*
Y4177710D01*
X1592051Y2918150D02*
X1592721Y2709319D01*
X1686962Y2552319D01*
X1687112Y2376240D01*
X1685596Y2370120D01*
X1685052Y2363838D01*
X1685493Y2357549D01*
X1686908Y2351405D01*
X1689263Y2345556D01*
X1692500Y2340146D01*
X1696540Y2335306D01*
X1701285Y2331154D01*
X1706618Y2327791D01*
X1712410Y2325300D01*
X1718519Y2323742D01*
X1724796Y2323154D01*
X1731089Y2323551D01*
X1737243Y2324924D01*
X1743107Y2327238D01*
X1748540Y2330437D01*
X1753409Y2334443D01*
X1757594Y2339158D01*
X1760993Y2344468D01*
X1763524Y2350243D01*
X1765125Y2356341D01*
X1765421Y2358240D01*
Y2358219D02*
X1764731Y2575580D01*
X1670351Y2741100D01*
X1670212Y2913150D01*
Y2913119D02*
X1670185Y2919330D01*
X1669178Y2925458D01*
X1667214Y2931350D01*
X1664343Y2936858D01*
X1660638Y2941842D01*
X1656192Y2946178D01*
X1651116Y2949757D01*
X1645538Y2952488D01*
X1639598Y2954303D01*
X1633447Y2955157D01*
X1627237Y2955027D01*
X1621127Y2953917D01*
X1615268Y2951855D01*
X1609809Y2948893D01*
X1604887Y2945106D01*
X1600626Y2940588D01*
X1597133Y2935453D01*
X1594495Y2929830D01*
X1592779Y2923861D01*
X1592051Y2918180D01*
X6159031Y2263780D02*
Y2743780D01*
X5757031D01*
X5756612Y3311019D01*
X5677871Y3389760D01*
X5323642D01*
Y4212590D01*
X3709471D01*
X3670101Y4133850D01*
Y3389760D01*
X3237031D01*
Y2263780D01*
X4404542Y4177710D02*
X4534871D01*
X4534542Y3412710D01*
X4402542D01*
Y3532390D01*
X4383042Y3580890D01*
Y4028490D01*
X4404542Y4088490D01*
Y4177710D01*
X4514051Y2918150D02*
X4514721Y2709319D01*
X4608962Y2552319D01*
X4609112Y2376240D01*
X4607596Y2370120D01*
X4607052Y2363838D01*
X4607493Y2357549D01*
X4608908Y2351405D01*
X4611263Y2345556D01*
X4614500Y2340146D01*
X4618540Y2335306D01*
X4623285Y2331154D01*
X4628618Y2327791D01*
X4634410Y2325300D01*
X4640519Y2323742D01*
X4646796Y2323154D01*
X4653089Y2323551D01*
X4659243Y2324924D01*
X4665107Y2327238D01*
X4670540Y2330437D01*
X4675409Y2334443D01*
X4679594Y2339158D01*
X4682993Y2344468D01*
X4685524Y2350243D01*
X4687125Y2356341D01*
X4687421Y2358240D01*
Y2358219D02*
X4686731Y2575580D01*
X4592351Y2741100D01*
X4592212Y2913150D01*
Y2913119D02*
X4592185Y2919330D01*
X4591178Y2925458D01*
X4589214Y2931350D01*
X4586343Y2936858D01*
X4582638Y2941842D01*
X4578192Y2946178D01*
X4573116Y2949757D01*
X4567538Y2952488D01*
X4561598Y2954303D01*
X4555447Y2955157D01*
X4549237Y2955027D01*
X4543127Y2953917D01*
X4537268Y2951855D01*
X4531809Y2948893D01*
X4526887Y2945106D01*
X4522626Y2940588D01*
X4519133Y2935453D01*
X4516495Y2929830D01*
X4514779Y2923861D01*
X4514051Y2918180D01*
X9081031Y314969D02*
Y4527559D01*
Y2743780D02*
X8679031D01*
X8678612Y3311019D01*
X8599871Y3389760D01*
X8245642D01*
Y4212590D01*
X9396063D02*
X9081031D01*
X6631471D02*
X6592101Y4133850D01*
Y3389760D01*
X6159031D01*
Y2263780D01*
X7326542Y4177710D02*
X7456871D01*
X7456542Y3412710D01*
X7324542D01*
Y3532390D01*
X7305042Y3580890D01*
Y4028490D01*
X7326542Y4088490D01*
Y4177710D01*
X7436051Y2918150D02*
X7436721Y2709319D01*
X7530962Y2552319D01*
X7531112Y2376240D01*
X7529596Y2370120D01*
X7529052Y2363838D01*
X7529493Y2357549D01*
X7530908Y2351405D01*
X7533263Y2345556D01*
X7536500Y2340146D01*
X7540540Y2335306D01*
X7545285Y2331154D01*
X7550618Y2327791D01*
X7556410Y2325300D01*
X7562519Y2323742D01*
X7568796Y2323154D01*
X7575089Y2323551D01*
X7581243Y2324924D01*
X7587107Y2327238D01*
X7592540Y2330437D01*
X7597409Y2334443D01*
X7601594Y2339158D01*
X7604993Y2344468D01*
X7607524Y2350243D01*
X7609125Y2356341D01*
X7609421Y2358240D01*
Y2358219D02*
X7608731Y2575580D01*
X7514351Y2741100D01*
X7514212Y2913150D01*
Y2913119D02*
X7514185Y2919330D01*
X7513178Y2925458D01*
X7511214Y2931350D01*
X7508343Y2936858D01*
X7504638Y2941842D01*
X7500192Y2946178D01*
X7495116Y2949757D01*
X7489538Y2952488D01*
X7483598Y2954303D01*
X7477447Y2955157D01*
X7471237Y2955027D01*
X7465127Y2953917D01*
X7459268Y2951855D01*
X7453809Y2948893D01*
X7448887Y2945106D01*
X7444626Y2940588D01*
X7441133Y2935453D01*
X7438495Y2929830D01*
X7436779Y2923861D01*
X7436051Y2918180D01*
X6159031Y2263780D02*
X9396063D01*
X0Y19685D02*
Y4507874D01*
X19685Y4527559D02*
X9376378D01*
X9396063Y4507874D02*
Y19685D01*
X9376378Y0D02*
X19685D01*
X8245642Y4212590D02*
X6631471D01*
X315031D02*
X0D01*
X9081031D02*
Y4251960D01*
X8245642D01*
Y4212590D01*
X6631471D02*
Y4251960D01*
X5323642D01*
Y4212590D01*
X787471D02*
Y4251960D01*
X315031D01*
Y4212590D01*
X3709471D02*
Y4251960D01*
X2401642D01*
Y4212590D01*
X6994421Y2263780D02*
X8608592D01*
X4072421D02*
X5686592D01*
X0D02*
X2764592D01*
X6159031D02*
Y1783780D01*
X6561031D01*
X6561451Y1216540D01*
X6640192Y1137800D01*
X6994421D01*
Y314969D01*
X8608592D01*
X8647962Y393710D01*
Y1137800D01*
X9081031D01*
X7913521Y349850D02*
X7783192D01*
X7783521Y1114850D01*
X7915521D01*
Y995169D01*
X7935021Y946669D01*
Y499069D01*
X7913521Y439069D01*
Y349850D01*
X7804012Y1609410D02*
X7803342Y1818240D01*
X7709101Y1975240D01*
X7708951Y2151319D01*
X7710467Y2157439D01*
X7711011Y2163721D01*
X7710570Y2170010D01*
X7709155Y2176154D01*
X7706800Y2182003D01*
X7703563Y2187413D01*
X7699523Y2192253D01*
X7694778Y2196405D01*
X7689445Y2199768D01*
X7683653Y2202259D01*
X7677544Y2203817D01*
X7671267Y2204405D01*
X7664974Y2204008D01*
X7658820Y2202635D01*
X7652956Y2200321D01*
X7647523Y2197122D01*
X7642654Y2193116D01*
X7638469Y2188401D01*
X7635070Y2183091D01*
X7632539Y2177317D01*
X7630938Y2171218D01*
X7630642Y2169319D01*
Y2169340D02*
X7631331Y1951980D01*
X7725712Y1786460D01*
X7725851Y1614410D01*
Y1614440D02*
X7725878Y1608229D01*
X7726885Y1602101D01*
X7728849Y1596209D01*
X7731720Y1590701D01*
X7735425Y1585717D01*
X7739871Y1581381D01*
X7744947Y1577802D01*
X7750525Y1575071D01*
X7756465Y1573256D01*
X7762616Y1572402D01*
X7768826Y1572532D01*
X7774936Y1573642D01*
X7780795Y1575704D01*
X7786254Y1578666D01*
X7791176Y1582453D01*
X7795437Y1586971D01*
X7798930Y1592106D01*
X7801568Y1597729D01*
X7803284Y1603698D01*
X7804012Y1609380D01*
X9396063Y2263780D02*
X6159031D01*
X3237031D02*
Y1783780D01*
X3639031D01*
X3639451Y1216540D01*
X3718192Y1137800D01*
X4072421D01*
Y314969D01*
X5686592D01*
X5725962Y393710D01*
Y1137800D01*
X6159031D01*
Y2263780D01*
X4991521Y349850D02*
X4861192D01*
X4861521Y1114850D01*
X4993521D01*
Y995169D01*
X5013021Y946669D01*
Y499069D01*
X4991521Y439069D01*
Y349850D01*
X4882012Y1609410D02*
X4881342Y1818240D01*
X4787101Y1975240D01*
X4786951Y2151319D01*
X4788467Y2157439D01*
X4789011Y2163721D01*
X4788570Y2170010D01*
X4787155Y2176154D01*
X4784800Y2182003D01*
X4781563Y2187413D01*
X4777523Y2192253D01*
X4772778Y2196405D01*
X4767445Y2199768D01*
X4761653Y2202259D01*
X4755544Y2203817D01*
X4749267Y2204405D01*
X4742974Y2204008D01*
X4736820Y2202635D01*
X4730956Y2200321D01*
X4725523Y2197122D01*
X4720654Y2193116D01*
X4716469Y2188401D01*
X4713070Y2183091D01*
X4710539Y2177317D01*
X4708938Y2171218D01*
X4708642Y2169319D01*
Y2169340D02*
X4709331Y1951980D01*
X4803712Y1786460D01*
X4803851Y1614410D01*
Y1614440D02*
X4803878Y1608229D01*
X4804885Y1602101D01*
X4806849Y1596209D01*
X4809720Y1590701D01*
X4813425Y1585717D01*
X4817871Y1581381D01*
X4822947Y1577802D01*
X4828525Y1575071D01*
X4834465Y1573256D01*
X4840616Y1572402D01*
X4846826Y1572532D01*
X4852936Y1573642D01*
X4858795Y1575704D01*
X4864254Y1578666D01*
X4869176Y1582453D01*
X4873437Y1586971D01*
X4876930Y1592106D01*
X4879568Y1597729D01*
X4881284Y1603698D01*
X4882012Y1609380D01*
X6159031Y2263780D02*
X3237031D01*
X315031Y1783780D02*
X717031D01*
X717451Y1216540D01*
X796192Y1137800D01*
X1150421D01*
Y314969D01*
X2764592D02*
X2803962Y393710D01*
Y1137800D01*
X3237031D01*
Y2263780D01*
X2069521Y349850D02*
X1939192D01*
X1939521Y1114850D01*
X2071521D01*
Y995169D01*
X2091021Y946669D01*
Y499069D01*
X2069521Y439069D01*
Y349850D01*
X1960012Y1609410D02*
X1959342Y1818240D01*
X1865101Y1975240D01*
X1864951Y2151319D01*
X1866467Y2157439D01*
X1867011Y2163721D01*
X1866570Y2170010D01*
X1865155Y2176154D01*
X1862800Y2182003D01*
X1859563Y2187413D01*
X1855523Y2192253D01*
X1850778Y2196405D01*
X1845445Y2199768D01*
X1839653Y2202259D01*
X1833544Y2203817D01*
X1827267Y2204405D01*
X1820974Y2204008D01*
X1814820Y2202635D01*
X1808956Y2200321D01*
X1803523Y2197122D01*
X1798654Y2193116D01*
X1794469Y2188401D01*
X1791070Y2183091D01*
X1788539Y2177317D01*
X1786938Y2171218D01*
X1786642Y2169319D01*
Y2169340D02*
X1787331Y1951980D01*
X1881712Y1786460D01*
X1881851Y1614410D01*
Y1614440D02*
X1881878Y1608229D01*
X1882885Y1602101D01*
X1884849Y1596209D01*
X1887720Y1590701D01*
X1891425Y1585717D01*
X1895871Y1581381D01*
X1900947Y1577802D01*
X1906525Y1575071D01*
X1912465Y1573256D01*
X1918616Y1572402D01*
X1924826Y1572532D01*
X1930936Y1573642D01*
X1936795Y1575704D01*
X1942254Y1578666D01*
X1947176Y1582453D01*
X1951437Y1586971D01*
X1954930Y1592106D01*
X1957568Y1597729D01*
X1959284Y1603698D01*
X1960012Y1609380D01*
X0Y314969D02*
X315031D01*
X9081031D02*
X9396063D01*
X315031D02*
Y275599D01*
X1150421D01*
Y314969D01*
X2764592D02*
Y275599D01*
X4072421D01*
Y314969D01*
X8608592D02*
Y275599D01*
X9081031D01*
Y314969D01*
Y2263780D02*
X9120402D01*
X5686592Y314969D02*
Y275599D01*
X6994421D01*
Y314969D01*
X275661Y2263780D02*
X315031D01*
X9081031Y314969D02*
X9396063D01*
X1150421D02*
X2764592D01*
X0Y19685D02*
X491Y15314D01*
X1941Y11161D01*
X4277Y7434D01*
X7382Y4319D01*
X11101Y1970D01*
X15249Y506D01*
X19618Y0D01*
X19685Y0D01*
Y4527559D02*
X15314Y4527068D01*
X11161Y4525618D01*
X7434Y4523282D01*
X4319Y4520177D01*
X1970Y4516458D01*
X506Y4512310D01*
X0Y4507941D01*
X0Y4507874D01*
X9376378Y4527559D02*
X9380749Y4527068D01*
X9384902Y4525618D01*
X9388629Y4523282D01*
X9391744Y4520177D01*
X9394093Y4516458D01*
X9395557Y4512310D01*
X9396063Y4507941D01*
X9396063Y4507874D01*
Y19685D02*
X9395572Y15314D01*
X9394122Y11161D01*
X9391786Y7434D01*
X9388681Y4319D01*
X9384962Y1970D01*
X9380814Y506D01*
X9376445Y0D01*
X9376378Y0D01*
G54D18*
X196850Y590551D03*
Y3937008D03*
X9199213D03*
Y590551D03*
M02*
