G04 Panel Editor  V10.9 (Build 658) Date:  Fri Apr 01 11:37:23 2016 *
G04 Database: D:\work\gerber\dbr-s64-r01 1x4 panel\dbr-s64-r01.cam *
G04 Layer 12: paste-bottom *
%FSTAX44Y44*%
%MOMM*%
%SFA1.000B1.000*%

%MIA0B0*%
%IPPOS*%
%AMROUNDEDRECTD19*
20,1,0.35000,-0.50000,0.00000,0.50000,0.00000,0.00000*
20,1,0.70000,-0.32500,0.00000,0.32500,0.00000,0.00000*
1,1,0.35000,0.32500,-0.17500*
1,1,0.35000,-0.32500,-0.17500*
1,1,0.35000,-0.32500,0.17500*
1,1,0.35000,0.32500,0.17500*
%
%AMROTATEDRECTD70*
4,1,4,-0.86620,0.15910,-0.15910,0.86620,0.86620,-0.15910,0.15910,-0.86620,-0.86620,0.15910,0.00000*
%
%AMROTATEDRECTD71*
4,1,4,-0.15910,-0.86620,-0.86620,-0.15910,0.15910,0.86620,0.86620,0.15910,-0.15910,-0.86620,0.00000*
%
%AMROUNDEDRECTD20*
20,1,0.25000,-0.50000,0.00000,0.50000,0.00000,0.00000*
20,1,0.50000,-0.37500,0.00000,0.37500,0.00000,0.00000*
1,1,0.25000,0.37500,-0.12500*
1,1,0.25000,-0.37500,-0.12500*
1,1,0.25000,-0.37500,0.12500*
1,1,0.25000,0.37500,0.12500*
%
%AMROTATEDRECTD68*
4,1,4,-0.22980,-1.04300,-1.04300,-0.22980,0.22980,1.04300,1.04300,0.22980,-0.22980,-1.04300,0.00000*
%
%AMROTATEDRECTD69*
4,1,4,-1.04300,0.22980,-0.22980,1.04300,1.04300,-0.22980,0.22980,-1.04300,-1.04300,0.22980,0.00000*
%
%ADD19ROUNDEDRECTD19*%
%ADD70ROTATEDRECTD70*%
%ADD71ROTATEDRECTD71*%
%ADD20ROUNDEDRECTD20*%
%ADD68ROTATEDRECTD68*%
%ADD69ROTATEDRECTD69*%
%LNpaste-bottom*%
%LPD*%
G54D19*
X01839496Y00404236D03*
Y00854236D03*
Y01304236D03*
Y01754236D03*
Y00378236D03*
Y00828236D03*
Y01278236D03*
Y01728236D03*
X01822496Y00378236D03*
Y00828236D03*
Y01278236D03*
Y01728236D03*
Y00404236D03*
Y00854236D03*
Y01304236D03*
Y01754236D03*
G54D20*
X01839496Y00395236D03*
Y00845236D03*
Y01295236D03*
Y01745236D03*
Y00387236D03*
Y00837236D03*
Y01287236D03*
Y01737236D03*
X01822496Y00387233D03*
Y00837233D03*
Y01287233D03*
Y01737233D03*
Y00395236D03*
Y00845236D03*
Y01295236D03*
Y01745236D03*
G54D68*
X00924393Y00210606D03*
Y00660606D03*
Y01110606D03*
Y01560606D03*
X00945606Y00189393D03*
Y00639393D03*
Y01089393D03*
Y01539393D03*
X00889393Y00175606D03*
Y00625606D03*
Y01075606D03*
Y01525606D03*
X00910606Y00154393D03*
Y00604393D03*
Y01054393D03*
Y01504393D03*
X00715606Y00349393D03*
Y00799393D03*
Y01249393D03*
Y01699393D03*
X00694393Y00370606D03*
Y00820606D03*
Y01270606D03*
Y01720606D03*
X00750606Y00384393D03*
Y00834393D03*
Y01284393D03*
Y01734393D03*
X00729393Y00405606D03*
Y00855606D03*
Y01305606D03*
Y01755606D03*
G54D69*
X00750606Y00175606D03*
Y00625606D03*
Y01075606D03*
Y01525606D03*
X00729393Y00154393D03*
Y00604393D03*
Y01054393D03*
Y01504393D03*
X00715606Y00210606D03*
Y00660606D03*
Y01110606D03*
Y01560606D03*
X00694393Y00189393D03*
Y00639393D03*
Y01089393D03*
Y01539393D03*
X00924393Y00349393D03*
Y00799393D03*
Y01249393D03*
Y01699393D03*
X00945606Y00370606D03*
Y00820606D03*
Y01270606D03*
Y01720606D03*
X00889393Y00384393D03*
Y00834393D03*
Y01284393D03*
Y01734393D03*
X00910606Y00405606D03*
Y00855606D03*
Y01305606D03*
Y01755606D03*
G54D70*
X00976717Y00366717D03*
Y00816717D03*
Y01266717D03*
Y01716717D03*
X00963282Y00353282D03*
Y00803282D03*
Y01253282D03*
Y01703282D03*
X00906717Y00436717D03*
Y00886717D03*
Y01336717D03*
Y01786717D03*
X00893282Y00423282D03*
Y00873282D03*
Y01323282D03*
Y01773282D03*
X00733282Y00123282D03*
Y00573282D03*
Y01023282D03*
Y01473282D03*
X00746717Y00136717D03*
Y00586717D03*
Y01036717D03*
Y01486717D03*
X00663282Y00193282D03*
Y00643282D03*
Y01093282D03*
Y01543282D03*
X00676717Y00206717D03*
Y00656717D03*
Y01106717D03*
Y01556717D03*
G54D71*
X00663282Y00366717D03*
Y00816717D03*
Y01266717D03*
Y01716717D03*
X00676717Y00353282D03*
Y00803282D03*
Y01253282D03*
Y01703282D03*
X00733282Y00436717D03*
Y00886717D03*
Y01336717D03*
Y01786717D03*
X00746717Y00423282D03*
Y00873282D03*
Y01323282D03*
Y01773282D03*
X00976717Y00193282D03*
Y00643282D03*
Y01093282D03*
Y01543282D03*
X00963282Y00206717D03*
Y00656717D03*
Y01106717D03*
Y01556717D03*
X00906717Y00123282D03*
Y00573282D03*
Y01023282D03*
Y01473282D03*
X00893282Y00136717D03*
Y00586717D03*
Y01036717D03*
Y01486717D03*
M02*
