G04 Panel Editor  V10.9 (Build 658) Date:  Fri Apr 01 11:37:23 2016 *
G04 Database: D:\work\gerber\dbr-s64-r01 1x4 panel\dbr-s64-r01.cam *
G04 Layer 11: paste-top *
%FSTAX44Y44*%
%MOMM*%
%SFA1.000B1.000*%

%MIA0B0*%
%IPPOS*%
%AMROUNDEDRECTD13*
20,1,0.70000,0.00000,-0.30000,0.00000,0.30000,0.00000*
20,1,1.00000,0.00000,-0.15000,0.00000,0.15000,0.00000*
1,1,0.30000,0.35000,0.15000*
1,1,0.30000,0.35000,-0.15000*
1,1,0.30000,-0.35000,-0.15000*
1,1,0.30000,-0.35000,0.15000*
%
%AMROUNDEDRECTD15*
20,1,0.60000,0.00000,-0.82500,0.00000,0.82500,0.00000*
20,1,1.20000,0.00000,-0.52500,0.00000,0.52500,0.00000*
1,1,0.60000,0.30000,0.52500*
1,1,0.60000,0.30000,-0.52500*
1,1,0.60000,-0.30000,-0.52500*
1,1,0.60000,-0.30000,0.52500*
%
%AMROUNDEDRECTD19*
20,1,0.35000,-0.50000,0.00000,0.50000,0.00000,0.00000*
20,1,0.70000,-0.32500,0.00000,0.32500,0.00000,0.00000*
1,1,0.35000,0.32500,-0.17500*
1,1,0.35000,-0.32500,-0.17500*
1,1,0.35000,-0.32500,0.17500*
1,1,0.35000,0.32500,0.17500*
%
%AMROUNDEDRECTD20*
20,1,0.25000,-0.50000,0.00000,0.50000,0.00000,0.00000*
20,1,0.50000,-0.37500,0.00000,0.37500,0.00000,0.00000*
1,1,0.25000,0.37500,-0.12500*
1,1,0.25000,-0.37500,-0.12500*
1,1,0.25000,-0.37500,0.12500*
1,1,0.25000,0.37500,0.12500*
%
%AMROUNDEDRECTD31*
20,1,0.70000,0.30000,0.00000,-0.30000,0.00000,0.00000*
20,1,1.00000,0.15000,0.00000,-0.15000,0.00000,0.00000*
1,1,0.30000,-0.15000,0.35000*
1,1,0.30000,0.15000,0.35000*
1,1,0.30000,0.15000,-0.35000*
1,1,0.30000,-0.15000,-0.35000*
%
%ADD10R,1.45000X1.00000*%
%ADD12R,1.00000X1.45000*%
%ADD13ROUNDEDRECTD13*%
%ADD14R,1.42240X1.16840*%
%ADD15ROUNDEDRECTD15*%
%ADD16R,1.20000X1.65000*%
%ADD17R,1.90000X0.60000*%
%ADD18O,1.90000X0.60000*%
%ADD19ROUNDEDRECTD19*%
%ADD20ROUNDEDRECTD20*%
%ADD21R,1.70180X1.39700*%
%ADD22R,1.01600X0.81280*%
%ADD23R,0.81280X1.01600*%
%ADD24R,1.25000X1.80000*%
%ADD25R,1.60000X2.55000*%
%ADD26R,1.70000X1.50000*%
%ADD28R,1.85000X0.60000*%
%ADD29O,1.85000X0.60000*%
%ADD30O,0.60000X1.85000*%
%ADD31ROUNDEDRECTD31*%
%LNpaste-top*%
%LPD*%
G54D10*
X00278162Y003221D03*
Y007721D03*
Y012221D03*
Y016721D03*
Y003411D03*
Y007911D03*
Y012411D03*
Y016911D03*
X01222802Y0036504D03*
Y0081504D03*
Y0126504D03*
Y0171504D03*
Y0034604D03*
Y0079604D03*
Y0124604D03*
Y0169604D03*
X01347262Y0030413D03*
Y0075413D03*
Y0120413D03*
Y0165413D03*
Y0032313D03*
Y0077313D03*
Y0122313D03*
Y0167313D03*
X01321862Y0032313D03*
Y0077313D03*
Y0122313D03*
Y0167313D03*
Y0030413D03*
Y0075413D03*
Y0120413D03*
Y0165413D03*
X01197066Y001255D03*
Y005755D03*
Y010255D03*
Y014755D03*
Y001445D03*
Y005945D03*
Y010445D03*
Y014945D03*
X01230933Y001445D03*
Y005945D03*
Y010445D03*
Y014945D03*
Y001255D03*
Y005755D03*
Y010255D03*
Y014755D03*
X01383667Y0012511D03*
Y0057511D03*
Y0102511D03*
Y0147511D03*
Y0014411D03*
Y0059411D03*
Y0104411D03*
Y0149411D03*
X01412134Y0014411D03*
Y0059411D03*
Y0104411D03*
Y0149411D03*
Y0012511D03*
Y0057511D03*
Y0102511D03*
Y0147511D03*
X01586022Y001255D03*
Y005755D03*
Y010255D03*
Y014755D03*
Y001445D03*
Y005945D03*
Y010445D03*
Y014945D03*
X01614933Y001445D03*
Y005945D03*
Y010445D03*
Y014945D03*
Y001255D03*
Y005755D03*
Y010255D03*
Y014755D03*
X01773066Y001255D03*
Y005755D03*
Y010255D03*
Y014755D03*
Y001445D03*
Y005945D03*
Y010445D03*
Y014945D03*
X01806933Y001445D03*
Y005945D03*
Y010445D03*
Y014945D03*
Y001255D03*
Y005755D03*
Y010255D03*
Y014755D03*
X005065Y003094D03*
Y007594D03*
Y012094D03*
Y016594D03*
Y003284D03*
Y007784D03*
Y012284D03*
Y016784D03*
X003033Y003411D03*
Y007911D03*
Y012411D03*
Y016911D03*
Y003221D03*
Y007721D03*
Y012221D03*
Y016721D03*
X00803066Y004145D03*
Y008645D03*
Y013145D03*
Y017645D03*
Y003955D03*
Y008455D03*
Y012955D03*
Y017455D03*
X00836933Y003955D03*
Y008455D03*
Y012955D03*
Y017455D03*
Y004145D03*
Y008645D03*
Y013145D03*
Y017645D03*
X011632Y001255D03*
Y005755D03*
Y010255D03*
Y014755D03*
Y001445D03*
Y005945D03*
Y010445D03*
Y014945D03*
X013552Y0012477D03*
Y0057477D03*
Y0102477D03*
Y0147477D03*
Y0014377D03*
Y0059377D03*
Y0104377D03*
Y0149377D03*
X01556812Y001255D03*
Y005755D03*
Y010255D03*
Y014755D03*
Y001445D03*
Y005945D03*
Y010445D03*
Y014945D03*
X0142315Y0030074D03*
Y0075074D03*
Y0120074D03*
Y0165074D03*
Y0028174D03*
Y0073174D03*
Y0118174D03*
Y0163174D03*
X017392Y001255D03*
Y005755D03*
Y010255D03*
Y014755D03*
Y001445D03*
Y005945D03*
Y010445D03*
Y014945D03*
X003287Y003221D03*
Y007721D03*
Y012221D03*
Y016721D03*
Y003411D03*
Y007911D03*
Y012411D03*
Y016911D03*
X007692Y004145D03*
Y008645D03*
Y013145D03*
Y017645D03*
Y003955D03*
Y008455D03*
Y012955D03*
Y017455D03*
X01932983Y00353794D03*
Y00803794D03*
Y01253794D03*
Y01703794D03*
Y00372794D03*
Y00822794D03*
Y01272794D03*
Y01722794D03*
X01819702Y0019242D03*
Y0064242D03*
Y0109242D03*
Y0154242D03*
Y0021142D03*
Y0066142D03*
Y0111142D03*
Y0156142D03*
X00803066Y001455D03*
Y005955D03*
Y010455D03*
Y014955D03*
Y001645D03*
Y006145D03*
Y010645D03*
Y015145D03*
X00836933Y001645D03*
Y006145D03*
Y010645D03*
Y015145D03*
Y001455D03*
Y005955D03*
Y010455D03*
Y014955D03*
X007692Y001455D03*
Y005955D03*
Y010455D03*
Y014955D03*
Y001645D03*
Y006145D03*
Y010645D03*
Y015145D03*
X00252762Y003221D03*
Y007721D03*
Y012221D03*
Y016721D03*
Y003411D03*
Y007911D03*
Y012411D03*
Y016911D03*
G54D12*
X01223462Y0038729D03*
Y0083729D03*
Y0128729D03*
Y0173729D03*
X01242462Y0038729D03*
Y0083729D03*
Y0128729D03*
Y0173729D03*
X00390292Y0023997D03*
Y0068997D03*
Y0113997D03*
Y0158997D03*
X00371292Y0023997D03*
Y0068997D03*
Y0113997D03*
Y0158997D03*
X0150554Y003033D03*
Y007533D03*
Y012033D03*
Y016533D03*
X0148654Y003033D03*
Y007533D03*
Y012033D03*
Y016533D03*
X009545Y00296933D03*
Y00746933D03*
Y01196933D03*
Y01646933D03*
X009355Y00296933D03*
Y00746933D03*
Y01196933D03*
Y01646933D03*
X009545Y00263067D03*
Y00713067D03*
Y01163067D03*
Y01613067D03*
X009355Y00263067D03*
Y00713067D03*
Y01163067D03*
Y01613067D03*
X007045Y0029717D03*
Y0074717D03*
Y0119717D03*
Y0164717D03*
X006855Y0029717D03*
Y0074717D03*
Y0119717D03*
Y0164717D03*
X007045Y0026288D03*
Y0071288D03*
Y0116288D03*
Y0161288D03*
X006855Y0026288D03*
Y0071288D03*
Y0116288D03*
Y0161288D03*
X0153226Y003033D03*
Y007533D03*
Y012033D03*
Y016533D03*
X0155126Y003033D03*
Y007533D03*
Y012033D03*
Y016533D03*
X01486352Y0028061D03*
Y0073061D03*
Y0118061D03*
Y0163061D03*
X01505352Y0028061D03*
Y0073061D03*
Y0118061D03*
Y0163061D03*
X01532072Y0025775D03*
Y0070775D03*
Y0115775D03*
Y0160775D03*
X01551072Y0025775D03*
Y0070775D03*
Y0115775D03*
Y0160775D03*
X01532072Y0028061D03*
Y0073061D03*
Y0118061D03*
Y0163061D03*
X01551072Y0028061D03*
Y0073061D03*
Y0118061D03*
Y0163061D03*
X01486352Y0025775D03*
Y0070775D03*
Y0115775D03*
Y0160775D03*
X01505352Y0025775D03*
Y0070775D03*
Y0115775D03*
Y0160775D03*
X009545Y003308D03*
Y007808D03*
Y012308D03*
Y016808D03*
X009355Y003308D03*
Y007808D03*
Y012308D03*
Y016808D03*
X007045Y003308D03*
Y007808D03*
Y012308D03*
Y016808D03*
X006855Y003308D03*
Y007808D03*
Y012308D03*
Y016808D03*
X008295Y0029717D03*
Y0074717D03*
Y0119717D03*
Y0164717D03*
X008105Y0029717D03*
Y0074717D03*
Y0119717D03*
Y0164717D03*
X008295Y0026288D03*
Y0071288D03*
Y0116288D03*
Y0161288D03*
X008105Y0026288D03*
Y0071288D03*
Y0116288D03*
Y0161288D03*
X008295Y003308D03*
Y007808D03*
Y012308D03*
Y016808D03*
X008105Y003308D03*
Y007808D03*
Y012308D03*
Y016808D03*
X00639336Y00428246D03*
Y00878246D03*
Y01328246D03*
Y01778246D03*
X00620336Y00428246D03*
Y00878246D03*
Y01328246D03*
Y01778246D03*
G54D13*
X01376132Y003235D03*
Y007735D03*
Y012235D03*
Y016735D03*
Y003045D03*
Y007545D03*
Y012045D03*
Y016545D03*
X01397132Y00314D03*
Y00764D03*
Y01214D03*
Y01664D03*
X01244052Y003625D03*
Y008125D03*
Y012625D03*
Y017125D03*
Y003435D03*
Y007935D03*
Y012435D03*
Y016935D03*
X01265052Y00353D03*
Y00803D03*
Y01253D03*
Y01703D03*
X0029261Y002768D03*
Y007268D03*
Y011768D03*
Y016268D03*
Y002578D03*
Y007078D03*
Y011578D03*
Y016078D03*
X0031361Y002673D03*
Y007173D03*
Y011673D03*
Y016173D03*
G54D14*
X01347262Y002514D03*
Y007014D03*
Y011514D03*
Y016014D03*
Y0027172D03*
Y0072172D03*
Y0117172D03*
Y0162172D03*
G54D15*
X01630212Y002514D03*
Y007014D03*
Y011514D03*
Y016014D03*
X01579932Y0022981D03*
Y0067981D03*
Y0112981D03*
Y0157981D03*
G54D16*
X01597712Y002514D03*
Y007014D03*
Y011514D03*
Y016014D03*
X01612432Y0022981D03*
Y0067981D03*
Y0112981D03*
Y0157981D03*
G54D17*
X003706Y0043955D03*
Y0088955D03*
Y0133955D03*
Y0178955D03*
G54D18*
Y0042685D03*
Y0087685D03*
Y0132685D03*
Y0177685D03*
Y0041415D03*
Y0086415D03*
Y0131415D03*
Y0176415D03*
Y0040145D03*
Y0085145D03*
Y0130145D03*
Y0175145D03*
Y0038875D03*
Y0083875D03*
Y0128875D03*
Y0173875D03*
Y0037605D03*
Y0082605D03*
Y0127605D03*
Y0172605D03*
Y0036335D03*
Y0081335D03*
Y0126335D03*
Y0171335D03*
Y0035065D03*
Y0080065D03*
Y0125065D03*
Y0170065D03*
Y0033795D03*
Y0078795D03*
Y0123795D03*
Y0168795D03*
Y0032525D03*
Y0077525D03*
Y0122525D03*
Y0167525D03*
Y0031255D03*
Y0076255D03*
Y0121255D03*
Y0166255D03*
Y0029985D03*
Y0074985D03*
Y0119985D03*
Y0164985D03*
Y0028715D03*
Y0073715D03*
Y0118715D03*
Y0163715D03*
Y0027445D03*
Y0072445D03*
Y0117445D03*
Y0162445D03*
X004646Y0043955D03*
Y0088955D03*
Y0133955D03*
Y0178955D03*
Y0042685D03*
Y0087685D03*
Y0132685D03*
Y0177685D03*
Y0041415D03*
Y0086415D03*
Y0131415D03*
Y0176415D03*
Y0040145D03*
Y0085145D03*
Y0130145D03*
Y0175145D03*
Y0038875D03*
Y0083875D03*
Y0128875D03*
Y0173875D03*
Y0037605D03*
Y0082605D03*
Y0127605D03*
Y0172605D03*
Y0036335D03*
Y0081335D03*
Y0126335D03*
Y0171335D03*
Y0035065D03*
Y0080065D03*
Y0125065D03*
Y0170065D03*
Y0033795D03*
Y0078795D03*
Y0123795D03*
Y0168795D03*
Y0032525D03*
Y0077525D03*
Y0122525D03*
Y0167525D03*
Y0031255D03*
Y0076255D03*
Y0121255D03*
Y0166255D03*
Y0029985D03*
Y0074985D03*
Y0119985D03*
Y0164985D03*
Y0028715D03*
Y0073715D03*
Y0118715D03*
Y0163715D03*
Y0027445D03*
Y0072445D03*
Y0117445D03*
Y0162445D03*
G54D19*
X01691622Y00382406D03*
Y00832406D03*
Y01282406D03*
Y01732406D03*
Y00356406D03*
Y00806406D03*
Y01256406D03*
Y01706406D03*
X01708622Y00356406D03*
Y00806406D03*
Y01256406D03*
Y01706406D03*
Y00382406D03*
Y00832406D03*
Y01282406D03*
Y01732406D03*
X01691302Y00335736D03*
Y00785736D03*
Y01235736D03*
Y01685736D03*
Y00309736D03*
Y00759736D03*
Y01209736D03*
Y01659736D03*
X01708302Y00309736D03*
Y00759736D03*
Y01209736D03*
Y01659736D03*
Y00335736D03*
Y00785736D03*
Y01235736D03*
Y01685736D03*
X01691302Y00288736D03*
Y00738736D03*
Y01188736D03*
Y01638736D03*
Y00262736D03*
Y00712736D03*
Y01162736D03*
Y01612736D03*
X01708302Y00262736D03*
Y00712736D03*
Y01162736D03*
Y01612736D03*
Y00288736D03*
Y00738736D03*
Y01188736D03*
Y01638736D03*
G54D20*
X01691622Y00373406D03*
Y00823406D03*
Y01273406D03*
Y01723406D03*
Y00365406D03*
Y00815406D03*
Y01265406D03*
Y01715406D03*
X01708622Y00365403D03*
Y00815403D03*
Y01265403D03*
Y01715403D03*
Y00373406D03*
Y00823406D03*
Y01273406D03*
Y01723406D03*
X01691302Y00326736D03*
Y00776736D03*
Y01226736D03*
Y01676736D03*
Y00318736D03*
Y00768736D03*
Y01218736D03*
Y01668736D03*
X01708302Y00318733D03*
Y00768733D03*
Y01218733D03*
Y01668733D03*
Y00326736D03*
Y00776736D03*
Y01226736D03*
Y01676736D03*
X01691302Y00279736D03*
Y00729736D03*
Y01179736D03*
Y01629736D03*
Y00271736D03*
Y00721736D03*
Y01171736D03*
Y01621736D03*
X01708302Y00271733D03*
Y00721733D03*
Y01171733D03*
Y01621733D03*
Y00279736D03*
Y00729736D03*
Y01179736D03*
Y01629736D03*
G54D21*
X0157809Y00253648D03*
Y00703648D03*
Y01153648D03*
Y01603648D03*
Y00283112D03*
Y00733112D03*
Y01183112D03*
Y01633112D03*
G54D22*
X012648Y00127126D03*
Y00577126D03*
Y01027126D03*
Y01477126D03*
Y00142874D03*
Y00592874D03*
Y01042874D03*
Y01492874D03*
X0144361Y00127666D03*
Y00577666D03*
Y01027666D03*
Y01477666D03*
Y00143414D03*
Y00593414D03*
Y01043414D03*
Y01493414D03*
X016488Y00127126D03*
Y00577126D03*
Y01027126D03*
Y01477126D03*
Y00142874D03*
Y00592874D03*
Y01042874D03*
Y01492874D03*
X018408Y00127126D03*
Y00577126D03*
Y01027126D03*
Y01477126D03*
Y00142874D03*
Y00592874D03*
Y01042874D03*
Y01492874D03*
X008708Y00412874D03*
Y00862874D03*
Y01312874D03*
Y01762874D03*
Y00397126D03*
Y00847126D03*
Y01297126D03*
Y01747126D03*
Y00147126D03*
Y00597126D03*
Y01047126D03*
Y01497126D03*
Y00162874D03*
Y00612874D03*
Y01062874D03*
Y01512874D03*
G54D23*
X00952874Y002292D03*
Y006792D03*
Y011292D03*
Y015792D03*
X00937126Y002292D03*
Y006792D03*
Y011292D03*
Y015792D03*
X00702874Y002292D03*
Y006792D03*
Y011292D03*
Y015792D03*
X00687126Y002292D03*
Y006792D03*
Y011292D03*
Y015792D03*
X00826816Y002292D03*
Y006792D03*
Y011292D03*
Y015792D03*
X00811068Y002292D03*
Y006792D03*
Y011292D03*
Y015792D03*
G54D24*
X014445Y0030523D03*
Y0075523D03*
Y0120523D03*
Y0165523D03*
Y0027923D03*
Y0072923D03*
Y0117923D03*
Y0162923D03*
G54D25*
X01385362Y002466D03*
Y006966D03*
Y011466D03*
Y015966D03*
Y002816D03*
Y007316D03*
Y011816D03*
Y016316D03*
G54D26*
X01591Y003785D03*
Y008285D03*
Y012785D03*
Y017285D03*
X01413Y003785D03*
Y008285D03*
Y012785D03*
Y017285D03*
G54D28*
X01737902Y00382736D03*
Y00832736D03*
Y01282736D03*
Y01732736D03*
G54D29*
Y00372736D03*
Y00822736D03*
Y01272736D03*
Y01722736D03*
Y00362736D03*
Y00812736D03*
Y01262736D03*
Y01712736D03*
Y00352736D03*
Y00802736D03*
Y01252736D03*
Y01702736D03*
Y00342736D03*
Y00792736D03*
Y01242736D03*
Y01692736D03*
Y00332736D03*
Y00782736D03*
Y01232736D03*
Y01682736D03*
Y00322736D03*
Y00772736D03*
Y01222736D03*
Y01672736D03*
Y00312736D03*
Y00762736D03*
Y01212736D03*
Y01662736D03*
Y00302736D03*
Y00752736D03*
Y01202736D03*
Y01652736D03*
Y00292736D03*
Y00742736D03*
Y01192736D03*
Y01642736D03*
Y00282736D03*
Y00732736D03*
Y01182736D03*
Y01632736D03*
Y00272736D03*
Y00722736D03*
Y01172736D03*
Y01622736D03*
Y00262736D03*
Y00712736D03*
Y01162736D03*
Y01612736D03*
X01900902Y00262736D03*
Y00712736D03*
Y01162736D03*
Y01612736D03*
Y00272736D03*
Y00722736D03*
Y01172736D03*
Y01622736D03*
Y00282736D03*
Y00732736D03*
Y01182736D03*
Y01632736D03*
Y00292736D03*
Y00742736D03*
Y01192736D03*
Y01642736D03*
Y00302736D03*
Y00752736D03*
Y01202736D03*
Y01652736D03*
Y00312736D03*
Y00762736D03*
Y01212736D03*
Y01662736D03*
Y00322736D03*
Y00772736D03*
Y01222736D03*
Y01672736D03*
Y00332736D03*
Y00782736D03*
Y01232736D03*
Y01682736D03*
Y00342736D03*
Y00792736D03*
Y01242736D03*
Y01692736D03*
Y00352736D03*
Y00802736D03*
Y01252736D03*
Y01702736D03*
Y00362736D03*
Y00812736D03*
Y01262736D03*
Y01712736D03*
Y00372736D03*
Y00822736D03*
Y01272736D03*
Y01722736D03*
Y00382736D03*
Y00832736D03*
Y01282736D03*
Y01732736D03*
G54D30*
X01759402Y00241236D03*
Y00691236D03*
Y01141236D03*
Y01591236D03*
X01769402Y00241236D03*
Y00691236D03*
Y01141236D03*
Y01591236D03*
X01779402Y00241236D03*
Y00691236D03*
Y01141236D03*
Y01591236D03*
X01789402Y00241236D03*
Y00691236D03*
Y01141236D03*
Y01591236D03*
X01799402Y00241236D03*
Y00691236D03*
Y01141236D03*
Y01591236D03*
X01809402Y00241236D03*
Y00691236D03*
Y01141236D03*
Y01591236D03*
X01819402Y00241236D03*
Y00691236D03*
Y01141236D03*
Y01591236D03*
X01829402Y00241236D03*
Y00691236D03*
Y01141236D03*
Y01591236D03*
X01839402Y00241236D03*
Y00691236D03*
Y01141236D03*
Y01591236D03*
X01849402Y00241236D03*
Y00691236D03*
Y01141236D03*
Y01591236D03*
X01859402Y00241236D03*
Y00691236D03*
Y01141236D03*
Y01591236D03*
X01869402Y00241236D03*
Y00691236D03*
Y01141236D03*
Y01591236D03*
X01879402Y00241236D03*
Y00691236D03*
Y01141236D03*
Y01591236D03*
Y00404236D03*
Y00854236D03*
Y01304236D03*
Y01754236D03*
X01869402Y00404236D03*
Y00854236D03*
Y01304236D03*
Y01754236D03*
X01859402Y00404236D03*
Y00854236D03*
Y01304236D03*
Y01754236D03*
X01849402Y00404236D03*
Y00854236D03*
Y01304236D03*
Y01754236D03*
X01839402Y00404236D03*
Y00854236D03*
Y01304236D03*
Y01754236D03*
X01829402Y00404236D03*
Y00854236D03*
Y01304236D03*
Y01754236D03*
X01819402Y00404236D03*
Y00854236D03*
Y01304236D03*
Y01754236D03*
X01809402Y00404236D03*
Y00854236D03*
Y01304236D03*
Y01754236D03*
X01799402Y00404236D03*
Y00854236D03*
Y01304236D03*
Y01754236D03*
X01789402Y00404236D03*
Y00854236D03*
Y01304236D03*
Y01754236D03*
X01779402Y00404236D03*
Y00854236D03*
Y01304236D03*
Y01754236D03*
X01769402Y00404236D03*
Y00854236D03*
Y01304236D03*
Y01754236D03*
X01759402Y00404236D03*
Y00854236D03*
Y01304236D03*
Y01754236D03*
G54D31*
X00670796Y00428246D03*
Y00878246D03*
Y01328246D03*
Y01778246D03*
X00689796Y00428246D03*
Y00878246D03*
Y01328246D03*
Y01778246D03*
X00680296Y00449246D03*
Y00899246D03*
Y01349246D03*
Y01799246D03*
M02*
