*
%LPD*%
%LNs2b9624c.gtp*%
%FSLAX24Y24*%
%MOIN*%
%AD*%
%ADD18C,0.005906*%
%ADD19C,0.03937*%
%ADD20C,0.01*%
%ADD23R,0.02756X0.02756*%
%ADD30R,0.019685X0.035433*%
%ADD31R,0.035433X0.019685*%
%ADD33R,0.047244X0.031496*%
%ADD38R,0.145669X0.074803*%
%ADD39R,0.066929X0.047244*%
%ADD40R,0.031496X0.047244*%
%ADD41R,0.051181X0.047244*%
%ADD42R,0.047244X0.051181*%
%ADD43R,0.008661X0.037402*%
%ADD44R,0.037402X0.008661*%
%ADD45O,0.074016X0.024016*%
G54D20*
%SRX1Y1I0.0J0.0*%
G1X15625Y10927D2*
G1X15625Y10732D1*
G1X15430Y10732D1*
G1X15430Y10927D1*
G1X15625Y10927D1*
G1X15430Y10911D2*
G1X15625Y10911D1*
G1X15430Y10821D2*
G1X15625Y10821D1*
G54D23*
G1X15528Y10829D3*
G1X15528Y10829D3*
G1X3150Y3150D2*
G54D18*
G1X3150Y13780D1*
G1X39370Y13780D1*
G1X39370Y3150D1*
G1X3150Y3150D1*
G1X32066Y7349D2*
G1X34750Y7350D1*
G1X34749Y6950D2*
G1X34794Y6949D1*
G1X34837Y6958D1*
G1X34878Y6976D1*
G1X34913Y7003D1*
G1X34942Y7037D1*
G1X34963Y7077D1*
G1X34974Y7120D1*
G1X34976Y7164D1*
G1X34967Y7208D1*
G1X34950Y7249D1*
G1X34924Y7285D1*
G1X34890Y7315D1*
G1X34851Y7336D1*
G1X34809Y7348D1*
G1X34764Y7351D1*
G1X34750Y7350D1*
G1X34750Y6950D2*
G1X32066Y6949D1*
G1X32066Y7349D2*
G1X32022Y7350D1*
G1X31978Y7341D1*
G1X31937Y7322D1*
G1X31902Y7295D1*
G1X31873Y7261D1*
G1X31853Y7222D1*
G1X31841Y7179D1*
G1X31840Y7134D1*
G1X31848Y7091D1*
G1X31866Y7050D1*
G1X31892Y7014D1*
G1X31925Y6984D1*
G1X31964Y6963D1*
G1X32007Y6950D1*
G1X32051Y6948D1*
G1X32066Y6949D1*
G1X29049Y13106D2*
G1X30281Y13114D1*
G1X30252Y12719D2*
G1X30296Y12721D1*
G1X30338Y12732D1*
G1X30378Y12753D1*
G1X30411Y12781D1*
G1X30437Y12817D1*
G1X30455Y12857D1*
G1X30464Y12900D1*
G1X30463Y12944D1*
G1X30452Y12987D1*
G1X30431Y13026D1*
G1X30403Y13060D1*
G1X30368Y13087D1*
G1X30328Y13105D1*
G1X30284Y13114D1*
G1X30281Y13114D1*
G1X30252Y12719D2*
G1X29010Y12722D1*
G1X29049Y13106D2*
G1X29006Y13111D1*
G1X28962Y13106D1*
G1X28921Y13092D1*
G1X28884Y13069D1*
G1X28853Y13038D1*
G1X28830Y13001D1*
G1X28815Y12959D1*
G1X28810Y12916D1*
G1X28815Y12872D1*
G1X28830Y12831D1*
G1X28854Y12794D1*
G1X28885Y12763D1*
G1X28922Y12740D1*
G1X28963Y12726D1*
G1X29007Y12722D1*
G1X29010Y12722D1*
G1X29081Y9760D2*
G1X29081Y11565D1*
G1X30299Y11555D1*
G1X30299Y9750D1*
G1X30061Y9750D2*
G1X30065Y9716D1*
G1X30080Y9685D1*
G1X30102Y9659D1*
G1X30131Y9641D1*
G1X30164Y9632D1*
G1X30198Y9632D1*
G1X30231Y9642D1*
G1X30259Y9661D1*
G1X30281Y9687D1*
G1X30295Y9719D1*
G1X30299Y9750D1*
G1X30061Y9750D2*
G1X30061Y11200D1*
G1X29318Y11200D1*
G1X29318Y9750D1*
G1X29081Y9759D2*
G1X29084Y9726D1*
G1X29097Y9694D1*
G1X29119Y9667D1*
G1X29147Y9648D1*
G1X29179Y9637D1*
G1X29214Y9637D1*
G1X29246Y9645D1*
G1X29276Y9663D1*
G1X29298Y9689D1*
G1X29313Y9719D1*
G1X29318Y9750D1*
G1X15625Y21557D2*
G54D20*
G1X15625Y21361D1*
G1X15430Y21361D1*
G1X15430Y21557D1*
G1X15625Y21557D1*
G1X15430Y21541D2*
G1X15625Y21541D1*
G1X15430Y21451D2*
G1X15625Y21451D1*
G54D23*
G1X15528Y21459D3*
G1X15528Y21459D3*
G1X3150Y13780D2*
G54D18*
G1X3150Y24409D1*
G1X39370Y24409D1*
G1X39370Y13780D1*
G1X3150Y13780D1*
G1X32066Y17979D2*
G1X34750Y17979D1*
G1X34749Y17579D2*
G1X34794Y17579D1*
G1X34837Y17588D1*
G1X34878Y17606D1*
G1X34913Y17633D1*
G1X34942Y17667D1*
G1X34963Y17707D1*
G1X34974Y17750D1*
G1X34976Y17794D1*
G1X34967Y17838D1*
G1X34950Y17879D1*
G1X34924Y17915D1*
G1X34890Y17944D1*
G1X34851Y17966D1*
G1X34809Y17978D1*
G1X34764Y17981D1*
G1X34750Y17979D1*
G1X34750Y17579D2*
G1X32066Y17579D1*
G1X32066Y17979D2*
G1X32022Y17980D1*
G1X31978Y17971D1*
G1X31937Y17952D1*
G1X31902Y17925D1*
G1X31873Y17891D1*
G1X31853Y17852D1*
G1X31841Y17809D1*
G1X31840Y17764D1*
G1X31848Y17720D1*
G1X31866Y17680D1*
G1X31892Y17643D1*
G1X31925Y17614D1*
G1X31964Y17593D1*
G1X32007Y17580D1*
G1X32051Y17578D1*
G1X32066Y17579D1*
G1X29049Y23736D2*
G1X30281Y23744D1*
G1X30252Y23349D2*
G1X30296Y23351D1*
G1X30338Y23362D1*
G1X30378Y23383D1*
G1X30411Y23411D1*
G1X30437Y23447D1*
G1X30455Y23487D1*
G1X30464Y23530D1*
G1X30463Y23574D1*
G1X30452Y23617D1*
G1X30431Y23656D1*
G1X30403Y23690D1*
G1X30368Y23717D1*
G1X30328Y23735D1*
G1X30284Y23744D1*
G1X30281Y23744D1*
G1X30252Y23349D2*
G1X29010Y23351D1*
G1X29049Y23736D2*
G1X29006Y23741D1*
G1X28962Y23736D1*
G1X28921Y23722D1*
G1X28884Y23699D1*
G1X28853Y23668D1*
G1X28830Y23631D1*
G1X28815Y23589D1*
G1X28810Y23546D1*
G1X28815Y23502D1*
G1X28830Y23461D1*
G1X28854Y23424D1*
G1X28885Y23393D1*
G1X28922Y23370D1*
G1X28963Y23356D1*
G1X29007Y23351D1*
G1X29010Y23351D1*
G1X29081Y20389D2*
G1X29081Y22195D1*
G1X30299Y22185D1*
G1X30299Y20379D1*
G1X30061Y20379D2*
G1X30065Y20346D1*
G1X30080Y20315D1*
G1X30102Y20289D1*
G1X30131Y20271D1*
G1X30164Y20261D1*
G1X30198Y20262D1*
G1X30231Y20272D1*
G1X30259Y20291D1*
G1X30281Y20317D1*
G1X30295Y20349D1*
G1X30299Y20379D1*
G1X30061Y20379D2*
G1X30061Y21830D1*
G1X29318Y21830D1*
G1X29318Y20379D1*
G1X29081Y20389D2*
G1X29084Y20355D1*
G1X29097Y20324D1*
G1X29119Y20297D1*
G1X29147Y20278D1*
G1X29179Y20267D1*
G1X29214Y20266D1*
G1X29246Y20275D1*
G1X29276Y20293D1*
G1X29298Y20318D1*
G1X29313Y20349D1*
G1X29318Y20379D1*
G1X15625Y32187D2*
G54D20*
G1X15625Y31991D1*
G1X15430Y31991D1*
G1X15430Y32187D1*
G1X15625Y32187D1*
G1X15430Y32171D2*
G1X15625Y32171D1*
G1X15430Y32081D2*
G1X15625Y32081D1*
G54D23*
G1X15528Y32089D3*
G1X15528Y32089D3*
G1X3150Y24409D2*
G54D18*
G1X3150Y35039D1*
G1X39370Y35039D1*
G1X39370Y24409D1*
G1X3150Y24409D1*
G1X32066Y28609D2*
G1X34750Y28609D1*
G1X34749Y28209D2*
G1X34794Y28209D1*
G1X34837Y28218D1*
G1X34878Y28236D1*
G1X34913Y28263D1*
G1X34942Y28297D1*
G1X34963Y28337D1*
G1X34974Y28380D1*
G1X34976Y28424D1*
G1X34967Y28468D1*
G1X34950Y28509D1*
G1X34924Y28545D1*
G1X34890Y28574D1*
G1X34851Y28596D1*
G1X34809Y28608D1*
G1X34764Y28611D1*
G1X34750Y28609D1*
G1X34750Y28209D2*
G1X32066Y28209D1*
G1X32066Y28609D2*
G1X32022Y28610D1*
G1X31978Y28600D1*
G1X31937Y28582D1*
G1X31902Y28555D1*
G1X31873Y28521D1*
G1X31853Y28482D1*
G1X31841Y28439D1*
G1X31840Y28394D1*
G1X31848Y28350D1*
G1X31866Y28309D1*
G1X31892Y28273D1*
G1X31925Y28244D1*
G1X31964Y28223D1*
G1X32007Y28210D1*
G1X32051Y28208D1*
G1X32066Y28209D1*
G1X29049Y34366D2*
G1X30281Y34374D1*
G1X30252Y33979D2*
G1X30296Y33980D1*
G1X30338Y33992D1*
G1X30378Y34012D1*
G1X30411Y34041D1*
G1X30437Y34076D1*
G1X30455Y34117D1*
G1X30464Y34160D1*
G1X30463Y34204D1*
G1X30452Y34247D1*
G1X30431Y34286D1*
G1X30403Y34320D1*
G1X30368Y34346D1*
G1X30328Y34365D1*
G1X30284Y34373D1*
G1X30281Y34374D1*
G1X30252Y33979D2*
G1X29010Y33981D1*
G1X29049Y34366D2*
G1X29006Y34371D1*
G1X28962Y34366D1*
G1X28921Y34352D1*
G1X28884Y34328D1*
G1X28853Y34297D1*
G1X28830Y34260D1*
G1X28815Y34219D1*
G1X28810Y34175D1*
G1X28815Y34132D1*
G1X28830Y34091D1*
G1X28854Y34054D1*
G1X28885Y34023D1*
G1X28922Y34000D1*
G1X28963Y33986D1*
G1X29007Y33981D1*
G1X29010Y33981D1*
G1X29081Y31019D2*
G1X29081Y32825D1*
G1X30299Y32815D1*
G1X30299Y31009D1*
G1X30061Y31009D2*
G1X30065Y30976D1*
G1X30080Y30945D1*
G1X30102Y30919D1*
G1X30131Y30901D1*
G1X30164Y30891D1*
G1X30198Y30892D1*
G1X30231Y30902D1*
G1X30259Y30921D1*
G1X30281Y30947D1*
G1X30295Y30979D1*
G1X30299Y31009D1*
G1X30061Y31009D2*
G1X30061Y32459D1*
G1X29318Y32459D1*
G1X29318Y31009D1*
G1X29081Y31019D2*
G1X29084Y30985D1*
G1X29097Y30954D1*
G1X29119Y30927D1*
G1X29147Y30908D1*
G1X29179Y30897D1*
G1X29214Y30896D1*
G1X29246Y30905D1*
G1X29276Y30923D1*
G1X29298Y30948D1*
G1X29313Y30979D1*
G1X29318Y31009D1*
G1X15625Y42817D2*
G54D20*
G1X15625Y42621D1*
G1X15430Y42621D1*
G1X15430Y42817D1*
G1X15625Y42817D1*
G1X15430Y42801D2*
G1X15625Y42801D1*
G1X15430Y42711D2*
G1X15625Y42711D1*
G54D23*
G1X15528Y42719D3*
G1X15528Y42719D3*
G1X3150Y35039D2*
G54D18*
G1X3150Y45669D1*
G1X39370Y45669D1*
G1X39370Y35039D1*
G1X3150Y35039D1*
G1X32066Y39239D2*
G1X34750Y39239D1*
G1X34749Y38839D2*
G1X34794Y38839D1*
G1X34837Y38848D1*
G1X34878Y38866D1*
G1X34913Y38893D1*
G1X34942Y38927D1*
G1X34963Y38967D1*
G1X34974Y39010D1*
G1X34976Y39054D1*
G1X34967Y39098D1*
G1X34950Y39139D1*
G1X34924Y39175D1*
G1X34890Y39204D1*
G1X34851Y39226D1*
G1X34809Y39238D1*
G1X34764Y39241D1*
G1X34750Y39239D1*
G1X34750Y38839D2*
G1X32066Y38839D1*
G1X32066Y39239D2*
G1X32022Y39240D1*
G1X31978Y39230D1*
G1X31937Y39212D1*
G1X31902Y39185D1*
G1X31873Y39151D1*
G1X31853Y39111D1*
G1X31841Y39068D1*
G1X31840Y39024D1*
G1X31848Y38980D1*
G1X31866Y38939D1*
G1X31892Y38903D1*
G1X31925Y38874D1*
G1X31964Y38852D1*
G1X32007Y38840D1*
G1X32051Y38838D1*
G1X32066Y38839D1*
G1X29049Y44996D2*
G1X30281Y45004D1*
G1X30252Y44609D2*
G1X30296Y44610D1*
G1X30338Y44622D1*
G1X30378Y44642D1*
G1X30411Y44671D1*
G1X30437Y44706D1*
G1X30455Y44747D1*
G1X30464Y44790D1*
G1X30463Y44834D1*
G1X30452Y44877D1*
G1X30431Y44916D1*
G1X30403Y44950D1*
G1X30368Y44976D1*
G1X30328Y44995D1*
G1X30284Y45003D1*
G1X30281Y45004D1*
G1X30252Y44609D2*
G1X29010Y44611D1*
G1X29049Y44996D2*
G1X29006Y45001D1*
G1X28962Y44996D1*
G1X28921Y44982D1*
G1X28884Y44958D1*
G1X28853Y44927D1*
G1X28830Y44890D1*
G1X28815Y44849D1*
G1X28810Y44805D1*
G1X28815Y44762D1*
G1X28830Y44721D1*
G1X28854Y44684D1*
G1X28885Y44653D1*
G1X28922Y44630D1*
G1X28963Y44616D1*
G1X29007Y44611D1*
G1X29010Y44611D1*
G1X29081Y41649D2*
G1X29081Y43455D1*
G1X30299Y43445D1*
G1X30299Y41639D1*
G1X30061Y41639D2*
G1X30065Y41605D1*
G1X30080Y41574D1*
G1X30102Y41549D1*
G1X30131Y41531D1*
G1X30164Y41521D1*
G1X30198Y41522D1*
G1X30231Y41532D1*
G1X30259Y41551D1*
G1X30281Y41577D1*
G1X30295Y41608D1*
G1X30299Y41639D1*
G1X30061Y41639D2*
G1X30061Y43089D1*
G1X29318Y43089D1*
G1X29318Y41639D1*
G1X29081Y41649D2*
G1X29084Y41615D1*
G1X29097Y41584D1*
G1X29119Y41557D1*
G1X29147Y41538D1*
G1X29179Y41527D1*
G1X29214Y41526D1*
G1X29246Y41535D1*
G1X29276Y41553D1*
G1X29298Y41578D1*
G1X29313Y41609D1*
G1X29318Y41639D1*
G1X15625Y53446D2*
G54D20*
G1X15625Y53251D1*
G1X15430Y53251D1*
G1X15430Y53446D1*
G1X15625Y53446D1*
G1X15430Y53431D2*
G1X15625Y53431D1*
G1X15430Y53341D2*
G1X15625Y53341D1*
G54D23*
G1X15528Y53349D3*
G1X15528Y53349D3*
G1X3150Y45669D2*
G54D18*
G1X3150Y56299D1*
G1X39370Y56299D1*
G1X39370Y45669D1*
G1X3150Y45669D1*
G1X32066Y49869D2*
G1X34750Y49869D1*
G1X34749Y49469D2*
G1X34794Y49469D1*
G1X34837Y49478D1*
G1X34878Y49496D1*
G1X34913Y49523D1*
G1X34942Y49557D1*
G1X34963Y49597D1*
G1X34974Y49640D1*
G1X34976Y49684D1*
G1X34967Y49728D1*
G1X34950Y49769D1*
G1X34924Y49805D1*
G1X34890Y49834D1*
G1X34851Y49856D1*
G1X34809Y49868D1*
G1X34764Y49871D1*
G1X34750Y49869D1*
G1X34750Y49469D2*
G1X32066Y49469D1*
G1X32066Y49869D2*
G1X32022Y49870D1*
G1X31978Y49860D1*
G1X31937Y49842D1*
G1X31902Y49815D1*
G1X31873Y49781D1*
G1X31853Y49741D1*
G1X31841Y49698D1*
G1X31840Y49654D1*
G1X31848Y49610D1*
G1X31866Y49569D1*
G1X31892Y49533D1*
G1X31925Y49504D1*
G1X31964Y49482D1*
G1X32007Y49470D1*
G1X32051Y49468D1*
G1X32066Y49469D1*
G1X29049Y55626D2*
G1X30281Y55633D1*
G1X30252Y55239D2*
G1X30296Y55240D1*
G1X30338Y55252D1*
G1X30378Y55272D1*
G1X30411Y55301D1*
G1X30437Y55336D1*
G1X30455Y55376D1*
G1X30464Y55420D1*
G1X30463Y55464D1*
G1X30452Y55507D1*
G1X30431Y55546D1*
G1X30403Y55580D1*
G1X30368Y55606D1*
G1X30328Y55624D1*
G1X30284Y55633D1*
G1X30281Y55633D1*
G1X30252Y55239D2*
G1X29010Y55241D1*
G1X29049Y55626D2*
G1X29006Y55631D1*
G1X28962Y55626D1*
G1X28921Y55612D1*
G1X28884Y55588D1*
G1X28853Y55557D1*
G1X28830Y55520D1*
G1X28815Y55479D1*
G1X28810Y55435D1*
G1X28815Y55392D1*
G1X28830Y55351D1*
G1X28854Y55314D1*
G1X28885Y55283D1*
G1X28922Y55260D1*
G1X28963Y55246D1*
G1X29007Y55241D1*
G1X29010Y55241D1*
G1X29081Y52279D2*
G1X29081Y54085D1*
G1X30299Y54075D1*
G1X30299Y52269D1*
G1X30061Y52269D2*
G1X30065Y52235D1*
G1X30080Y52204D1*
G1X30102Y52179D1*
G1X30131Y52161D1*
G1X30164Y52151D1*
G1X30198Y52152D1*
G1X30231Y52162D1*
G1X30259Y52181D1*
G1X30281Y52207D1*
G1X30295Y52238D1*
G1X30299Y52269D1*
G1X30061Y52269D2*
G1X30061Y53719D1*
G1X29318Y53719D1*
G1X29318Y52269D1*
G1X29081Y52279D2*
G1X29084Y52245D1*
G1X29097Y52214D1*
G1X29119Y52187D1*
G1X29147Y52168D1*
G1X29179Y52157D1*
G1X29214Y52156D1*
G1X29246Y52165D1*
G1X29276Y52183D1*
G1X29298Y52208D1*
G1X29313Y52239D1*
G1X29318Y52269D1*
G54D23*
G1X15528Y63979D3*
G1X15528Y63979D3*
G1X3150Y56299D2*
G54D18*
G1X3150Y66929D1*
G1X39370Y66929D1*
G1X39370Y56299D1*
G1X3150Y56299D1*
G1X32066Y60499D2*
G1X34750Y60499D1*
G1X34749Y60099D2*
G1X34794Y60098D1*
G1X34837Y60107D1*
G1X34878Y60126D1*
G1X34913Y60153D1*
G1X34942Y60187D1*
G1X34963Y60226D1*
G1X34974Y60269D1*
G1X34976Y60314D1*
G1X34967Y60358D1*
G1X34950Y60399D1*
G1X34924Y60435D1*
G1X34890Y60464D1*
G1X34851Y60485D1*
G1X34809Y60498D1*
G1X34764Y60500D1*
G1X34750Y60499D1*
G1X34750Y60099D2*
G1X32066Y60099D1*
G1X32066Y60499D2*
G1X32022Y60499D1*
G1X31978Y60490D1*
G1X31937Y60472D1*
G1X31902Y60445D1*
G1X31873Y60411D1*
G1X31853Y60371D1*
G1X31841Y60328D1*
G1X31840Y60284D1*
G1X31848Y60240D1*
G1X31866Y60199D1*
G1X31892Y60163D1*
G1X31925Y60134D1*
G1X31964Y60112D1*
G1X32007Y60100D1*
G1X32051Y60097D1*
G1X32066Y60099D1*
G1X29049Y66256D2*
G1X30281Y66263D1*
G1X30252Y65869D2*
G1X30296Y65870D1*
G1X30338Y65882D1*
G1X30378Y65902D1*
G1X30411Y65931D1*
G1X30437Y65966D1*
G1X30455Y66006D1*
G1X30464Y66050D1*
G1X30463Y66094D1*
G1X30452Y66136D1*
G1X30431Y66176D1*
G1X30403Y66209D1*
G1X30368Y66236D1*
G1X30328Y66254D1*
G1X30284Y66263D1*
G1X30281Y66263D1*
G1X30252Y65869D2*
G1X29010Y65871D1*
G1X29049Y66256D2*
G1X29006Y66261D1*
G1X28962Y66256D1*
G1X28921Y66241D1*
G1X28884Y66218D1*
G1X28853Y66187D1*
G1X28830Y66150D1*
G1X28815Y66109D1*
G1X28810Y66065D1*
G1X28815Y66022D1*
G1X28830Y65980D1*
G1X28854Y65944D1*
G1X28885Y65913D1*
G1X28922Y65890D1*
G1X28963Y65875D1*
G1X29007Y65871D1*
G1X29010Y65871D1*
G1X29081Y62909D2*
G1X29081Y64715D1*
G1X30299Y64705D1*
G1X30299Y62899D1*
G1X30061Y62899D2*
G1X30065Y62865D1*
G1X30080Y62834D1*
G1X30102Y62809D1*
G1X30131Y62790D1*
G1X30164Y62781D1*
G1X30198Y62782D1*
G1X30231Y62792D1*
G1X30259Y62811D1*
G1X30281Y62837D1*
G1X30295Y62868D1*
G1X30299Y62899D1*
G1X30061Y62899D2*
G1X30061Y64349D1*
G1X29318Y64349D1*
G1X29318Y62899D1*
G1X29081Y62909D2*
G1X29084Y62875D1*
G1X29097Y62843D1*
G1X29119Y62817D1*
G1X29147Y62798D1*
G1X29179Y62787D1*
G1X29214Y62786D1*
G1X29246Y62795D1*
G1X29276Y62813D1*
G1X29298Y62838D1*
G1X29313Y62869D1*
G1X29318Y62899D1*
G1X51846Y10927D2*
G54D20*
G1X51846Y10732D1*
G1X51651Y10732D1*
G1X51651Y10927D1*
G1X51846Y10927D1*
G1X51651Y10911D2*
G1X51846Y10911D1*
G1X51651Y10821D2*
G1X51846Y10821D1*
G54D23*
G1X51748Y10829D3*
G1X51748Y10829D3*
G1X39370Y3150D2*
G54D18*
G1X39370Y13780D1*
G1X75590Y13780D1*
G1X75590Y3150D1*
G1X39370Y3150D1*
G1X68286Y7349D2*
G1X70970Y7350D1*
G1X70970Y6950D2*
G1X71014Y6949D1*
G1X71058Y6958D1*
G1X71098Y6976D1*
G1X71134Y7003D1*
G1X71162Y7037D1*
G1X71183Y7077D1*
G1X71194Y7120D1*
G1X71196Y7164D1*
G1X71188Y7208D1*
G1X71170Y7249D1*
G1X71144Y7285D1*
G1X71111Y7315D1*
G1X71072Y7336D1*
G1X71029Y7348D1*
G1X70985Y7351D1*
G1X70970Y7350D1*
G1X70970Y6950D2*
G1X68286Y6949D1*
G1X68286Y7349D2*
G1X68242Y7350D1*
G1X68198Y7341D1*
G1X68158Y7322D1*
G1X68122Y7295D1*
G1X68094Y7261D1*
G1X68073Y7222D1*
G1X68062Y7179D1*
G1X68060Y7134D1*
G1X68068Y7091D1*
G1X68086Y7050D1*
G1X68112Y7014D1*
G1X68146Y6984D1*
G1X68185Y6963D1*
G1X68227Y6950D1*
G1X68272Y6948D1*
G1X68286Y6949D1*
G1X65270Y13106D2*
G1X66502Y13114D1*
G1X66472Y12719D2*
G1X66516Y12721D1*
G1X66559Y12732D1*
G1X66598Y12753D1*
G1X66631Y12781D1*
G1X66658Y12817D1*
G1X66676Y12857D1*
G1X66684Y12900D1*
G1X66683Y12944D1*
G1X66672Y12987D1*
G1X66652Y13026D1*
G1X66623Y13060D1*
G1X66588Y13087D1*
G1X66548Y13105D1*
G1X66505Y13114D1*
G1X66502Y13114D1*
G1X66472Y12719D2*
G1X65230Y12722D1*
G1X65269Y13106D2*
G1X65226Y13111D1*
G1X65182Y13106D1*
G1X65141Y13092D1*
G1X65104Y13069D1*
G1X65073Y13038D1*
G1X65050Y13001D1*
G1X65036Y12959D1*
G1X65031Y12916D1*
G1X65036Y12872D1*
G1X65051Y12831D1*
G1X65074Y12794D1*
G1X65105Y12763D1*
G1X65142Y12740D1*
G1X65184Y12726D1*
G1X65227Y12722D1*
G1X65230Y12722D1*
G1X65301Y9760D2*
G1X65301Y11565D1*
G1X66519Y11555D1*
G1X66519Y9750D1*
G1X66281Y9750D2*
G1X66286Y9716D1*
G1X66300Y9685D1*
G1X66323Y9659D1*
G1X66352Y9641D1*
G1X66384Y9632D1*
G1X66419Y9632D1*
G1X66451Y9642D1*
G1X66480Y9661D1*
G1X66501Y9687D1*
G1X66515Y9719D1*
G1X66519Y9750D1*
G1X66281Y9750D2*
G1X66281Y11200D1*
G1X65539Y11200D1*
G1X65539Y9750D1*
G1X65301Y9759D2*
G1X65305Y9726D1*
G1X65318Y9694D1*
G1X65339Y9667D1*
G1X65367Y9648D1*
G1X65400Y9637D1*
G1X65434Y9637D1*
G1X65467Y9645D1*
G1X65496Y9663D1*
G1X65519Y9689D1*
G1X65534Y9719D1*
G1X65539Y9750D1*
G1X51846Y21557D2*
G54D20*
G1X51846Y21361D1*
G1X51651Y21361D1*
G1X51651Y21557D1*
G1X51846Y21557D1*
G1X51651Y21541D2*
G1X51846Y21541D1*
G1X51651Y21451D2*
G1X51846Y21451D1*
G54D23*
G1X51748Y21459D3*
G1X51748Y21459D3*
G1X39370Y13780D2*
G54D18*
G1X39370Y24409D1*
G1X75590Y24409D1*
G1X75590Y13780D1*
G1X39370Y13780D1*
G1X68286Y17979D2*
G1X70970Y17979D1*
G1X70970Y17579D2*
G1X71014Y17579D1*
G1X71058Y17588D1*
G1X71098Y17606D1*
G1X71134Y17633D1*
G1X71162Y17667D1*
G1X71183Y17707D1*
G1X71194Y17750D1*
G1X71196Y17794D1*
G1X71188Y17838D1*
G1X71170Y17879D1*
G1X71144Y17915D1*
G1X71111Y17944D1*
G1X71072Y17966D1*
G1X71029Y17978D1*
G1X70985Y17981D1*
G1X70970Y17979D1*
G1X70970Y17579D2*
G1X68286Y17579D1*
G1X68286Y17979D2*
G1X68242Y17980D1*
G1X68198Y17971D1*
G1X68158Y17952D1*
G1X68122Y17925D1*
G1X68094Y17891D1*
G1X68073Y17852D1*
G1X68062Y17809D1*
G1X68060Y17764D1*
G1X68068Y17720D1*
G1X68086Y17680D1*
G1X68112Y17643D1*
G1X68146Y17614D1*
G1X68185Y17593D1*
G1X68227Y17580D1*
G1X68272Y17578D1*
G1X68286Y17579D1*
G1X65270Y23736D2*
G1X66502Y23744D1*
G1X66472Y23349D2*
G1X66516Y23351D1*
G1X66559Y23362D1*
G1X66598Y23383D1*
G1X66631Y23411D1*
G1X66658Y23447D1*
G1X66676Y23487D1*
G1X66684Y23530D1*
G1X66683Y23574D1*
G1X66672Y23617D1*
G1X66652Y23656D1*
G1X66623Y23690D1*
G1X66588Y23717D1*
G1X66548Y23735D1*
G1X66505Y23744D1*
G1X66502Y23744D1*
G1X66472Y23349D2*
G1X65230Y23351D1*
G1X65269Y23736D2*
G1X65226Y23741D1*
G1X65182Y23736D1*
G1X65141Y23722D1*
G1X65104Y23699D1*
G1X65073Y23668D1*
G1X65050Y23631D1*
G1X65036Y23589D1*
G1X65031Y23546D1*
G1X65036Y23502D1*
G1X65051Y23461D1*
G1X65074Y23424D1*
G1X65105Y23393D1*
G1X65142Y23370D1*
G1X65184Y23356D1*
G1X65227Y23351D1*
G1X65230Y23351D1*
G1X65301Y20389D2*
G1X65301Y22195D1*
G1X66519Y22185D1*
G1X66519Y20379D1*
G1X66281Y20379D2*
G1X66286Y20346D1*
G1X66300Y20315D1*
G1X66323Y20289D1*
G1X66352Y20271D1*
G1X66384Y20261D1*
G1X66419Y20262D1*
G1X66451Y20272D1*
G1X66480Y20291D1*
G1X66501Y20317D1*
G1X66515Y20349D1*
G1X66519Y20379D1*
G1X66281Y20379D2*
G1X66281Y21830D1*
G1X65539Y21830D1*
G1X65539Y20379D1*
G1X65301Y20389D2*
G1X65305Y20355D1*
G1X65318Y20324D1*
G1X65339Y20297D1*
G1X65367Y20278D1*
G1X65400Y20267D1*
G1X65434Y20266D1*
G1X65467Y20275D1*
G1X65496Y20293D1*
G1X65519Y20318D1*
G1X65534Y20349D1*
G1X65539Y20379D1*
G1X51846Y32187D2*
G54D20*
G1X51846Y31991D1*
G1X51651Y31991D1*
G1X51651Y32187D1*
G1X51846Y32187D1*
G1X51651Y32171D2*
G1X51846Y32171D1*
G1X51651Y32081D2*
G1X51846Y32081D1*
G54D23*
G1X51748Y32089D3*
G1X51748Y32089D3*
G1X39370Y24409D2*
G54D18*
G1X39370Y35039D1*
G1X75590Y35039D1*
G1X75590Y24409D1*
G1X39370Y24409D1*
G1X68286Y28609D2*
G1X70970Y28609D1*
G1X70970Y28209D2*
G1X71014Y28209D1*
G1X71058Y28218D1*
G1X71098Y28236D1*
G1X71134Y28263D1*
G1X71162Y28297D1*
G1X71183Y28337D1*
G1X71194Y28380D1*
G1X71196Y28424D1*
G1X71188Y28468D1*
G1X71170Y28509D1*
G1X71144Y28545D1*
G1X71111Y28574D1*
G1X71072Y28596D1*
G1X71029Y28608D1*
G1X70985Y28611D1*
G1X70970Y28609D1*
G1X70970Y28209D2*
G1X68286Y28209D1*
G1X68286Y28609D2*
G1X68242Y28610D1*
G1X68198Y28600D1*
G1X68158Y28582D1*
G1X68122Y28555D1*
G1X68094Y28521D1*
G1X68073Y28482D1*
G1X68062Y28439D1*
G1X68060Y28394D1*
G1X68068Y28350D1*
G1X68086Y28309D1*
G1X68112Y28273D1*
G1X68146Y28244D1*
G1X68185Y28223D1*
G1X68227Y28210D1*
G1X68272Y28208D1*
G1X68286Y28209D1*
G1X65270Y34366D2*
G1X66502Y34374D1*
G1X66472Y33979D2*
G1X66516Y33980D1*
G1X66559Y33992D1*
G1X66598Y34012D1*
G1X66631Y34041D1*
G1X66658Y34076D1*
G1X66676Y34117D1*
G1X66684Y34160D1*
G1X66683Y34204D1*
G1X66672Y34247D1*
G1X66652Y34286D1*
G1X66623Y34320D1*
G1X66588Y34346D1*
G1X66548Y34365D1*
G1X66505Y34373D1*
G1X66502Y34374D1*
G1X66472Y33979D2*
G1X65230Y33981D1*
G1X65269Y34366D2*
G1X65226Y34371D1*
G1X65182Y34366D1*
G1X65141Y34352D1*
G1X65104Y34328D1*
G1X65073Y34297D1*
G1X65050Y34260D1*
G1X65036Y34219D1*
G1X65031Y34175D1*
G1X65036Y34132D1*
G1X65051Y34091D1*
G1X65074Y34054D1*
G1X65105Y34023D1*
G1X65142Y34000D1*
G1X65184Y33986D1*
G1X65227Y33981D1*
G1X65230Y33981D1*
G1X65301Y31019D2*
G1X65301Y32825D1*
G1X66519Y32815D1*
G1X66519Y31009D1*
G1X66281Y31009D2*
G1X66286Y30976D1*
G1X66300Y30945D1*
G1X66323Y30919D1*
G1X66352Y30901D1*
G1X66384Y30891D1*
G1X66419Y30892D1*
G1X66451Y30902D1*
G1X66480Y30921D1*
G1X66501Y30947D1*
G1X66515Y30979D1*
G1X66519Y31009D1*
G1X66281Y31009D2*
G1X66281Y32459D1*
G1X65539Y32459D1*
G1X65539Y31009D1*
G1X65301Y31019D2*
G1X65305Y30985D1*
G1X65318Y30954D1*
G1X65339Y30927D1*
G1X65367Y30908D1*
G1X65400Y30897D1*
G1X65434Y30896D1*
G1X65467Y30905D1*
G1X65496Y30923D1*
G1X65519Y30948D1*
G1X65534Y30979D1*
G1X65539Y31009D1*
G1X51846Y42817D2*
G54D20*
G1X51846Y42621D1*
G1X51651Y42621D1*
G1X51651Y42817D1*
G1X51846Y42817D1*
G1X51651Y42801D2*
G1X51846Y42801D1*
G1X51651Y42711D2*
G1X51846Y42711D1*
G54D23*
G1X51748Y42719D3*
G1X51748Y42719D3*
G1X39370Y35039D2*
G54D18*
G1X39370Y45669D1*
G1X75590Y45669D1*
G1X75590Y35039D1*
G1X39370Y35039D1*
G1X68286Y39239D2*
G1X70970Y39239D1*
G1X70970Y38839D2*
G1X71014Y38839D1*
G1X71058Y38848D1*
G1X71098Y38866D1*
G1X71134Y38893D1*
G1X71162Y38927D1*
G1X71183Y38967D1*
G1X71194Y39010D1*
G1X71196Y39054D1*
G1X71188Y39098D1*
G1X71170Y39139D1*
G1X71144Y39175D1*
G1X71111Y39204D1*
G1X71072Y39226D1*
G1X71029Y39238D1*
G1X70985Y39241D1*
G1X70970Y39239D1*
G1X70970Y38839D2*
G1X68286Y38839D1*
G1X68286Y39239D2*
G1X68242Y39240D1*
G1X68198Y39230D1*
G1X68158Y39212D1*
G1X68122Y39185D1*
G1X68094Y39151D1*
G1X68073Y39111D1*
G1X68062Y39068D1*
G1X68060Y39024D1*
G1X68068Y38980D1*
G1X68086Y38939D1*
G1X68112Y38903D1*
G1X68146Y38874D1*
G1X68185Y38852D1*
G1X68227Y38840D1*
G1X68272Y38838D1*
G1X68286Y38839D1*
G1X65270Y44996D2*
G1X66502Y45004D1*
G1X66472Y44609D2*
G1X66516Y44610D1*
G1X66559Y44622D1*
G1X66598Y44642D1*
G1X66631Y44671D1*
G1X66658Y44706D1*
G1X66676Y44747D1*
G1X66684Y44790D1*
G1X66683Y44834D1*
G1X66672Y44877D1*
G1X66652Y44916D1*
G1X66623Y44950D1*
G1X66588Y44976D1*
G1X66548Y44995D1*
G1X66505Y45003D1*
G1X66502Y45004D1*
G1X66472Y44609D2*
G1X65230Y44611D1*
G1X65269Y44996D2*
G1X65226Y45001D1*
G1X65182Y44996D1*
G1X65141Y44982D1*
G1X65104Y44958D1*
G1X65073Y44927D1*
G1X65050Y44890D1*
G1X65036Y44849D1*
G1X65031Y44805D1*
G1X65036Y44762D1*
G1X65051Y44721D1*
G1X65074Y44684D1*
G1X65105Y44653D1*
G1X65142Y44630D1*
G1X65184Y44616D1*
G1X65227Y44611D1*
G1X65230Y44611D1*
G1X65301Y41649D2*
G1X65301Y43455D1*
G1X66519Y43445D1*
G1X66519Y41639D1*
G1X66281Y41639D2*
G1X66286Y41605D1*
G1X66300Y41574D1*
G1X66323Y41549D1*
G1X66352Y41531D1*
G1X66384Y41521D1*
G1X66419Y41522D1*
G1X66451Y41532D1*
G1X66480Y41551D1*
G1X66501Y41577D1*
G1X66515Y41608D1*
G1X66519Y41639D1*
G1X66281Y41639D2*
G1X66281Y43089D1*
G1X65539Y43089D1*
G1X65539Y41639D1*
G1X65301Y41649D2*
G1X65305Y41615D1*
G1X65318Y41584D1*
G1X65339Y41557D1*
G1X65367Y41538D1*
G1X65400Y41527D1*
G1X65434Y41526D1*
G1X65467Y41535D1*
G1X65496Y41553D1*
G1X65519Y41578D1*
G1X65534Y41609D1*
G1X65539Y41639D1*
G1X51846Y53446D2*
G54D20*
G1X51846Y53251D1*
G1X51651Y53251D1*
G1X51651Y53446D1*
G1X51846Y53446D1*
G1X51651Y53431D2*
G1X51846Y53431D1*
G1X51651Y53341D2*
G1X51846Y53341D1*
G54D23*
G1X51748Y53349D3*
G1X51748Y53349D3*
G1X39370Y45669D2*
G54D18*
G1X39370Y56299D1*
G1X75590Y56299D1*
G1X75590Y45669D1*
G1X39370Y45669D1*
G1X68286Y49869D2*
G1X70970Y49869D1*
G1X70970Y49469D2*
G1X71014Y49469D1*
G1X71058Y49478D1*
G1X71098Y49496D1*
G1X71134Y49523D1*
G1X71162Y49557D1*
G1X71183Y49597D1*
G1X71194Y49640D1*
G1X71196Y49684D1*
G1X71188Y49728D1*
G1X71170Y49769D1*
G1X71144Y49805D1*
G1X71111Y49834D1*
G1X71072Y49856D1*
G1X71029Y49868D1*
G1X70985Y49871D1*
G1X70970Y49869D1*
G1X70970Y49469D2*
G1X68286Y49469D1*
G1X68286Y49869D2*
G1X68242Y49870D1*
G1X68198Y49860D1*
G1X68158Y49842D1*
G1X68122Y49815D1*
G1X68094Y49781D1*
G1X68073Y49741D1*
G1X68062Y49698D1*
G1X68060Y49654D1*
G1X68068Y49610D1*
G1X68086Y49569D1*
G1X68112Y49533D1*
G1X68146Y49504D1*
G1X68185Y49482D1*
G1X68227Y49470D1*
G1X68272Y49468D1*
G1X68286Y49469D1*
G1X65270Y55626D2*
G1X66502Y55633D1*
G1X66472Y55239D2*
G1X66516Y55240D1*
G1X66559Y55252D1*
G1X66598Y55272D1*
G1X66631Y55301D1*
G1X66658Y55336D1*
G1X66676Y55376D1*
G1X66684Y55420D1*
G1X66683Y55464D1*
G1X66672Y55507D1*
G1X66652Y55546D1*
G1X66623Y55580D1*
G1X66588Y55606D1*
G1X66548Y55624D1*
G1X66505Y55633D1*
G1X66502Y55633D1*
G1X66472Y55239D2*
G1X65230Y55241D1*
G1X65269Y55626D2*
G1X65226Y55631D1*
G1X65182Y55626D1*
G1X65141Y55612D1*
G1X65104Y55588D1*
G1X65073Y55557D1*
G1X65050Y55520D1*
G1X65036Y55479D1*
G1X65031Y55435D1*
G1X65036Y55392D1*
G1X65051Y55351D1*
G1X65074Y55314D1*
G1X65105Y55283D1*
G1X65142Y55260D1*
G1X65184Y55246D1*
G1X65227Y55241D1*
G1X65230Y55241D1*
G1X65301Y52279D2*
G1X65301Y54085D1*
G1X66519Y54075D1*
G1X66519Y52269D1*
G1X66281Y52269D2*
G1X66286Y52235D1*
G1X66300Y52204D1*
G1X66323Y52179D1*
G1X66352Y52161D1*
G1X66384Y52151D1*
G1X66419Y52152D1*
G1X66451Y52162D1*
G1X66480Y52181D1*
G1X66501Y52207D1*
G1X66515Y52238D1*
G1X66519Y52269D1*
G1X66281Y52269D2*
G1X66281Y53719D1*
G1X65539Y53719D1*
G1X65539Y52269D1*
G1X65301Y52279D2*
G1X65305Y52245D1*
G1X65318Y52214D1*
G1X65339Y52187D1*
G1X65367Y52168D1*
G1X65400Y52157D1*
G1X65434Y52156D1*
G1X65467Y52165D1*
G1X65496Y52183D1*
G1X65519Y52208D1*
G1X65534Y52239D1*
G1X65539Y52269D1*
G1X51846Y64076D2*
G54D20*
G1X51846Y63881D1*
G1X51651Y63881D1*
G1X51651Y64076D1*
G1X51846Y64076D1*
G1X51651Y64061D2*
G1X51846Y64061D1*
G1X51651Y63971D2*
G1X51846Y63971D1*
G54D23*
G1X51748Y63979D3*
G1X51748Y63979D3*
G1X39370Y56299D2*
G54D18*
G1X39370Y66929D1*
G1X75590Y66929D1*
G1X75590Y56299D1*
G1X39370Y56299D1*
G1X68286Y60499D2*
G1X70970Y60499D1*
G1X70970Y60099D2*
G1X71014Y60098D1*
G1X71058Y60107D1*
G1X71098Y60126D1*
G1X71134Y60153D1*
G1X71162Y60187D1*
G1X71183Y60226D1*
G1X71194Y60269D1*
G1X71196Y60314D1*
G1X71188Y60358D1*
G1X71170Y60399D1*
G1X71144Y60435D1*
G1X71111Y60464D1*
G1X71072Y60485D1*
G1X71029Y60498D1*
G1X70985Y60500D1*
G1X70970Y60499D1*
G1X70970Y60099D2*
G1X68286Y60099D1*
G1X68286Y60499D2*
G1X68242Y60499D1*
G1X68198Y60490D1*
G1X68158Y60472D1*
G1X68122Y60445D1*
G1X68094Y60411D1*
G1X68073Y60371D1*
G1X68062Y60328D1*
G1X68060Y60284D1*
G1X68068Y60240D1*
G1X68086Y60199D1*
G1X68112Y60163D1*
G1X68146Y60134D1*
G1X68185Y60112D1*
G1X68227Y60100D1*
G1X68272Y60097D1*
G1X68286Y60099D1*
G1X65270Y66256D2*
G1X66502Y66263D1*
G1X66472Y65869D2*
G1X66516Y65870D1*
G1X66559Y65882D1*
G1X66598Y65902D1*
G1X66631Y65931D1*
G1X66658Y65966D1*
G1X66676Y66006D1*
G1X66684Y66050D1*
G1X66683Y66094D1*
G1X66672Y66136D1*
G1X66652Y66176D1*
G1X66623Y66209D1*
G1X66588Y66236D1*
G1X66548Y66254D1*
G1X66505Y66263D1*
G1X66502Y66263D1*
G1X66472Y65869D2*
G1X65230Y65871D1*
G1X65269Y66256D2*
G1X65226Y66261D1*
G1X65182Y66256D1*
G1X65141Y66241D1*
G1X65104Y66218D1*
G1X65073Y66187D1*
G1X65050Y66150D1*
G1X65036Y66109D1*
G1X65031Y66065D1*
G1X65036Y66022D1*
G1X65051Y65980D1*
G1X65074Y65944D1*
G1X65105Y65913D1*
G1X65142Y65890D1*
G1X65184Y65875D1*
G1X65227Y65871D1*
G1X65230Y65871D1*
G1X65301Y62909D2*
G1X65301Y64715D1*
G1X66519Y64705D1*
G1X66519Y62899D1*
G1X66281Y62899D2*
G1X66286Y62865D1*
G1X66300Y62834D1*
G1X66323Y62809D1*
G1X66352Y62790D1*
G1X66384Y62781D1*
G1X66419Y62782D1*
G1X66451Y62792D1*
G1X66480Y62811D1*
G1X66501Y62837D1*
G1X66515Y62868D1*
G1X66519Y62899D1*
G1X66281Y62899D2*
G1X66281Y64349D1*
G1X65539Y64349D1*
G1X65539Y62899D1*
G1X65301Y62909D2*
G1X65305Y62875D1*
G1X65318Y62843D1*
G1X65339Y62817D1*
G1X65367Y62798D1*
G1X65400Y62787D1*
G1X65434Y62786D1*
G1X65467Y62795D1*
G1X65496Y62813D1*
G1X65519Y62838D1*
G1X65534Y62869D1*
G1X65539Y62899D1*
G1X1181Y0D2*
G1X3150Y0D1*
G1X3150Y70079D1*
G1X1181Y70079D1*
G1X0Y68897D2*
G1X0Y1181D1*
G1X75590Y0D2*
G1X75590Y70079D1*
G1X77559Y70079D1*
G1X78740Y68897D2*
G1X78740Y1181D1*
G1X0Y1181D2*
G1X0Y3150D1*
G1X78740Y3150D1*
G1X78740Y1181D1*
G1X77559Y0D2*
G1X1181Y0D1*
G1X0Y68897D2*
G1X0Y66929D1*
G1X78740Y66929D1*
G1X78740Y68897D1*
G1X77559Y70079D2*
G1X1181Y70079D1*
G1X39370Y66929D2*
G1X39370Y70079D1*
G1X75590Y56299D2*
G1X78740Y56299D1*
G1X75590Y45669D2*
G1X78740Y45669D1*
G1X75590Y35039D2*
G1X78740Y35039D1*
G1X75590Y24409D2*
G1X78740Y24409D1*
G1X75590Y13780D2*
G1X78740Y13780D1*
G1X3150Y13780D2*
G1X0Y13780D1*
G1X3150Y24409D2*
G1X0Y24409D1*
G1X3150Y35039D2*
G1X0Y35039D1*
G1X3150Y45669D2*
G1X0Y45669D1*
G1X3150Y56299D2*
G1X0Y56299D1*
G1X39370Y3150D2*
G1X39370Y0D1*
G1X0Y1181D2*
G1X1181Y0D1*
G1X0Y68897D2*
G1X1185Y70083D1*
G1X77559Y70079D2*
G1X78740Y68897D1*
G1X77559Y0D2*
G1X78740Y1181D1*
G54D19*
G1X5906Y1968D3*
G1X5906Y68110D3*
G1X72834Y68110D3*
G1X72834Y1968D3*
G54D38*
G1X32500Y8776D3*
G1X32500Y12123D3*
G1X32500Y19406D3*
G1X32500Y22753D3*
G1X32500Y30036D3*
G1X32500Y33383D3*
G1X32500Y40666D3*
G1X32500Y44013D3*
G1X32500Y51296D3*
G1X32500Y54642D3*
G1X32500Y61926D3*
G1X32500Y65272D3*
G1X68720Y8776D3*
G1X68720Y12123D3*
G1X68720Y19406D3*
G1X68720Y22753D3*
G1X68720Y30036D3*
G1X68720Y33383D3*
G1X68720Y40666D3*
G1X68720Y44013D3*
G1X68720Y51296D3*
G1X68720Y54642D3*
G1X68720Y61926D3*
G1X68720Y65272D3*
G54D39*
G1X26586Y10730D3*
G1X26586Y12030D3*
G1X26586Y21360D3*
G1X26586Y22660D3*
G1X26586Y31989D3*
G1X26586Y33289D3*
G1X26586Y42619D3*
G1X26586Y43919D3*
G1X26586Y53249D3*
G1X26586Y54549D3*
G1X26586Y63879D3*
G1X26586Y65179D3*
G1X62806Y10730D3*
G1X62806Y12030D3*
G1X62806Y21360D3*
G1X62806Y22660D3*
G1X62806Y31989D3*
G1X62806Y33289D3*
G1X62806Y42619D3*
G1X62806Y43919D3*
G1X62806Y53249D3*
G1X62806Y54549D3*
G1X62806Y63879D3*
G1X62806Y65179D3*
G54D31*
G1X13559Y10140D3*
G1X13559Y10731D3*
G1X13559Y20770D3*
G1X13559Y21361D3*
G1X13559Y31400D3*
G1X13559Y31990D3*
G1X13559Y42030D3*
G1X13559Y42620D3*
G1X13559Y52660D3*
G1X13559Y53250D3*
G1X13559Y63290D3*
G1X13559Y63880D3*
G1X13600Y8454D3*
G1X13600Y9045D3*
G1X13600Y19084D3*
G1X13600Y19675D3*
G1X13600Y29714D3*
G1X13600Y30305D3*
G1X13600Y40344D3*
G1X13600Y40934D3*
G1X13600Y50974D3*
G1X13600Y51564D3*
G1X13600Y61604D3*
G1X13600Y62194D3*
G1X17900Y10554D3*
G1X17900Y11145D3*
G1X17900Y21184D3*
G1X17900Y21775D3*
G1X17900Y31814D3*
G1X17900Y32405D3*
G1X17900Y42444D3*
G1X17900Y43035D3*
G1X17900Y53074D3*
G1X17900Y53664D3*
G1X17900Y63704D3*
G1X17900Y64294D3*
G1X18250Y9594D3*
G1X18250Y10185D3*
G1X18250Y20224D3*
G1X18250Y20815D3*
G1X18250Y30854D3*
G1X18250Y31445D3*
G1X18250Y41484D3*
G1X18250Y42075D3*
G1X18250Y52114D3*
G1X18250Y52704D3*
G1X18250Y62744D3*
G1X18250Y63334D3*
G1X18710Y7944D3*
G1X18710Y8535D3*
G1X18710Y18574D3*
G1X18710Y19165D3*
G1X18710Y29204D3*
G1X18710Y29795D3*
G1X18710Y39834D3*
G1X18710Y40424D3*
G1X18710Y50464D3*
G1X18710Y51054D3*
G1X18710Y61094D3*
G1X18710Y61684D3*
G1X18874Y10731D3*
G1X18874Y11321D3*
G1X18874Y21361D3*
G1X18874Y21951D3*
G1X18874Y31990D3*
G1X18874Y32581D3*
G1X18874Y42620D3*
G1X18874Y43211D3*
G1X18874Y53250D3*
G1X18874Y53841D3*
G1X18874Y63880D3*
G1X18874Y64471D3*
G1X18914Y11794D3*
G1X18914Y12384D3*
G1X18914Y22424D3*
G1X18914Y23014D3*
G1X18914Y33053D3*
G1X18914Y33644D3*
G1X18914Y43683D3*
G1X18914Y44274D3*
G1X18914Y54313D3*
G1X18914Y54904D3*
G1X18914Y64943D3*
G1X18914Y65534D3*
G1X23200Y10654D3*
G1X23200Y11245D3*
G1X23200Y21284D3*
G1X23200Y21875D3*
G1X23200Y31914D3*
G1X23200Y32505D3*
G1X23200Y42544D3*
G1X23200Y43135D3*
G1X23200Y53174D3*
G1X23200Y53764D3*
G1X23200Y63804D3*
G1X23200Y64394D3*
G1X23570Y12834D3*
G1X23570Y13425D3*
G1X23570Y23464D3*
G1X23570Y24055D3*
G1X23570Y34094D3*
G1X23570Y34685D3*
G1X23570Y44724D3*
G1X23570Y45315D3*
G1X23570Y55354D3*
G1X23570Y55944D3*
G1X23570Y65984D3*
G1X23570Y66574D3*
G1X24307Y8250D3*
G1X24307Y8841D3*
G1X24307Y18880D3*
G1X24307Y19471D3*
G1X24307Y29510D3*
G1X24307Y30101D3*
G1X24307Y40140D3*
G1X24307Y40731D3*
G1X24307Y50770D3*
G1X24307Y51361D3*
G1X24307Y61400D3*
G1X24307Y61990D3*
G1X49780Y10140D3*
G1X49780Y10731D3*
G1X49780Y20770D3*
G1X49780Y21361D3*
G1X49780Y31400D3*
G1X49780Y31990D3*
G1X49780Y42030D3*
G1X49780Y42620D3*
G1X49780Y52660D3*
G1X49780Y53250D3*
G1X49780Y63290D3*
G1X49780Y63880D3*
G1X49820Y8454D3*
G1X49820Y9045D3*
G1X49820Y19084D3*
G1X49820Y19675D3*
G1X49820Y29714D3*
G1X49820Y30305D3*
G1X49820Y40344D3*
G1X49820Y40934D3*
G1X49820Y50974D3*
G1X49820Y51564D3*
G1X49820Y61604D3*
G1X49820Y62194D3*
G1X54120Y10554D3*
G1X54120Y11145D3*
G1X54120Y21184D3*
G1X54120Y21775D3*
G1X54120Y31814D3*
G1X54120Y32405D3*
G1X54120Y42444D3*
G1X54120Y43035D3*
G1X54120Y53074D3*
G1X54120Y53664D3*
G1X54120Y63704D3*
G1X54120Y64294D3*
G1X54470Y9594D3*
G1X54470Y10185D3*
G1X54470Y20224D3*
G1X54470Y20815D3*
G1X54470Y30854D3*
G1X54470Y31445D3*
G1X54470Y41484D3*
G1X54470Y42075D3*
G1X54470Y52114D3*
G1X54470Y52704D3*
G1X54470Y62744D3*
G1X54470Y63334D3*
G1X54930Y7944D3*
G1X54930Y8535D3*
G1X54930Y18574D3*
G1X54930Y19165D3*
G1X54930Y29204D3*
G1X54930Y29795D3*
G1X54930Y39834D3*
G1X54930Y40424D3*
G1X54930Y50464D3*
G1X54930Y51054D3*
G1X54930Y61094D3*
G1X54930Y61684D3*
G1X55095Y10731D3*
G1X55095Y11321D3*
G1X55095Y21361D3*
G1X55095Y21951D3*
G1X55095Y31990D3*
G1X55095Y32581D3*
G1X55095Y42620D3*
G1X55095Y43211D3*
G1X55095Y53250D3*
G1X55095Y53841D3*
G1X55095Y63880D3*
G1X55095Y64471D3*
G1X55134Y11794D3*
G1X55134Y12384D3*
G1X55134Y22424D3*
G1X55134Y23014D3*
G1X55134Y33053D3*
G1X55134Y33644D3*
G1X55134Y43683D3*
G1X55134Y44274D3*
G1X55134Y54313D3*
G1X55134Y54904D3*
G1X55134Y64943D3*
G1X55134Y65534D3*
G1X59420Y10654D3*
G1X59420Y11245D3*
G1X59420Y21284D3*
G1X59420Y21875D3*
G1X59420Y31914D3*
G1X59420Y32505D3*
G1X59420Y42544D3*
G1X59420Y43135D3*
G1X59420Y53174D3*
G1X59420Y53764D3*
G1X59420Y63804D3*
G1X59420Y64394D3*
G1X59790Y12834D3*
G1X59790Y13425D3*
G1X59790Y23464D3*
G1X59790Y24055D3*
G1X59790Y34094D3*
G1X59790Y34685D3*
G1X59790Y44724D3*
G1X59790Y45315D3*
G1X59790Y55354D3*
G1X59790Y55944D3*
G1X59790Y65984D3*
G1X59790Y66574D3*
G1X60528Y8250D3*
G1X60528Y8841D3*
G1X60528Y18880D3*
G1X60528Y19471D3*
G1X60528Y29510D3*
G1X60528Y30101D3*
G1X60528Y40140D3*
G1X60528Y40731D3*
G1X60528Y50770D3*
G1X60528Y51361D3*
G1X60528Y61400D3*
G1X60528Y61990D3*
G54D30*
G1X14491Y12740D3*
G1X14491Y23369D3*
G1X14491Y33999D3*
G1X14491Y44629D3*
G1X14491Y55259D3*
G1X14491Y65889D3*
G1X15081Y12740D3*
G1X15081Y23369D3*
G1X15081Y33999D3*
G1X15081Y44629D3*
G1X15081Y55259D3*
G1X15081Y65889D3*
G1X15491Y8710D3*
G1X15491Y19339D3*
G1X15491Y29969D3*
G1X15491Y40599D3*
G1X15491Y51229D3*
G1X15491Y61859D3*
G1X16081Y8710D3*
G1X16081Y19339D3*
G1X16081Y29969D3*
G1X16081Y40599D3*
G1X16081Y51229D3*
G1X16081Y61859D3*
G1X17634Y12719D3*
G1X17634Y13231D3*
G1X17634Y23349D3*
G1X17634Y23861D3*
G1X17634Y33979D3*
G1X17634Y34491D3*
G1X17634Y44609D3*
G1X17634Y45120D3*
G1X17634Y55239D3*
G1X17634Y55750D3*
G1X17634Y65868D3*
G1X17634Y66380D3*
G1X18225Y12719D3*
G1X18225Y13231D3*
G1X18225Y23349D3*
G1X18225Y23861D3*
G1X18225Y33979D3*
G1X18225Y34491D3*
G1X18225Y44609D3*
G1X18225Y45120D3*
G1X18225Y55239D3*
G1X18225Y55750D3*
G1X18225Y65868D3*
G1X18225Y66380D3*
G1X18697Y9924D3*
G1X18697Y20554D3*
G1X18697Y31183D3*
G1X18697Y41813D3*
G1X18697Y52443D3*
G1X18697Y63073D3*
G1X19288Y9924D3*
G1X19288Y20554D3*
G1X19288Y31183D3*
G1X19288Y41813D3*
G1X19288Y52443D3*
G1X19288Y63073D3*
G1X50711Y12740D3*
G1X50711Y23369D3*
G1X50711Y33999D3*
G1X50711Y44629D3*
G1X50711Y55259D3*
G1X50711Y65889D3*
G1X51302Y12740D3*
G1X51302Y23369D3*
G1X51302Y33999D3*
G1X51302Y44629D3*
G1X51302Y55259D3*
G1X51302Y65889D3*
G1X51711Y8710D3*
G1X51711Y19339D3*
G1X51711Y29969D3*
G1X51711Y40599D3*
G1X51711Y51229D3*
G1X51711Y61859D3*
G1X52302Y8710D3*
G1X52302Y19339D3*
G1X52302Y29969D3*
G1X52302Y40599D3*
G1X52302Y51229D3*
G1X52302Y61859D3*
G1X53855Y12719D3*
G1X53855Y13231D3*
G1X53855Y23349D3*
G1X53855Y23861D3*
G1X53855Y33979D3*
G1X53855Y34491D3*
G1X53855Y44609D3*
G1X53855Y45120D3*
G1X53855Y55239D3*
G1X53855Y55750D3*
G1X53855Y65868D3*
G1X53855Y66380D3*
G1X54445Y12719D3*
G1X54445Y13231D3*
G1X54445Y23349D3*
G1X54445Y23861D3*
G1X54445Y33979D3*
G1X54445Y34491D3*
G1X54445Y44609D3*
G1X54445Y45120D3*
G1X54445Y55239D3*
G1X54445Y55750D3*
G1X54445Y65868D3*
G1X54445Y66380D3*
G1X54918Y9924D3*
G1X54918Y20554D3*
G1X54918Y31183D3*
G1X54918Y41813D3*
G1X54918Y52443D3*
G1X54918Y63073D3*
G1X55508Y9924D3*
G1X55508Y20554D3*
G1X55508Y31183D3*
G1X55508Y41813D3*
G1X55508Y52443D3*
G1X55508Y63073D3*
G54D33*
G1X23559Y8270D3*
G1X23559Y8900D3*
G1X23559Y18900D3*
G1X23559Y19530D3*
G1X23559Y29530D3*
G1X23559Y30160D3*
G1X23559Y40160D3*
G1X23559Y40790D3*
G1X23559Y50790D3*
G1X23559Y51420D3*
G1X23559Y61420D3*
G1X23559Y62049D3*
G1X23678Y11617D3*
G1X23678Y12247D3*
G1X23678Y22247D3*
G1X23678Y22876D3*
G1X23678Y32876D3*
G1X23678Y33506D3*
G1X23678Y43506D3*
G1X23678Y44136D3*
G1X23678Y54136D3*
G1X23678Y54766D3*
G1X23678Y64766D3*
G1X23678Y65396D3*
G1X24900Y7835D3*
G1X24900Y8464D3*
G1X24900Y18464D3*
G1X24900Y19094D3*
G1X24900Y29094D3*
G1X24900Y29724D3*
G1X24900Y39724D3*
G1X24900Y40354D3*
G1X24900Y50354D3*
G1X24900Y50984D3*
G1X24900Y60984D3*
G1X24900Y61614D3*
G1X25026Y10225D3*
G1X25026Y10855D3*
G1X25026Y20854D3*
G1X25026Y21484D3*
G1X25026Y31484D3*
G1X25026Y32114D3*
G1X25026Y42114D3*
G1X25026Y42744D3*
G1X25026Y52744D3*
G1X25026Y53374D3*
G1X25026Y63374D3*
G1X25026Y64004D3*
G1X25696Y10225D3*
G1X25696Y10855D3*
G1X25696Y20854D3*
G1X25696Y21484D3*
G1X25696Y31484D3*
G1X25696Y32114D3*
G1X25696Y42114D3*
G1X25696Y42744D3*
G1X25696Y52744D3*
G1X25696Y53374D3*
G1X25696Y63374D3*
G1X25696Y64004D3*
G1X59780Y8270D3*
G1X59780Y8900D3*
G1X59780Y18900D3*
G1X59780Y19530D3*
G1X59780Y29530D3*
G1X59780Y30160D3*
G1X59780Y40160D3*
G1X59780Y40790D3*
G1X59780Y50790D3*
G1X59780Y51420D3*
G1X59780Y61420D3*
G1X59780Y62049D3*
G1X59898Y11617D3*
G1X59898Y12247D3*
G1X59898Y22247D3*
G1X59898Y22876D3*
G1X59898Y32876D3*
G1X59898Y33506D3*
G1X59898Y43506D3*
G1X59898Y44136D3*
G1X59898Y54136D3*
G1X59898Y54766D3*
G1X59898Y64766D3*
G1X59898Y65396D3*
G1X61120Y7835D3*
G1X61120Y8464D3*
G1X61120Y18464D3*
G1X61120Y19094D3*
G1X61120Y29094D3*
G1X61120Y29724D3*
G1X61120Y39724D3*
G1X61120Y40354D3*
G1X61120Y50354D3*
G1X61120Y50984D3*
G1X61120Y60984D3*
G1X61120Y61614D3*
G1X61246Y10225D3*
G1X61246Y10855D3*
G1X61246Y20854D3*
G1X61246Y21484D3*
G1X61246Y31484D3*
G1X61246Y32114D3*
G1X61246Y42114D3*
G1X61246Y42744D3*
G1X61246Y52744D3*
G1X61246Y53374D3*
G1X61246Y63374D3*
G1X61246Y64004D3*
G1X61916Y10225D3*
G1X61916Y10855D3*
G1X61916Y20854D3*
G1X61916Y21484D3*
G1X61916Y31484D3*
G1X61916Y32114D3*
G1X61916Y42114D3*
G1X61916Y42744D3*
G1X61916Y52744D3*
G1X61916Y53374D3*
G1X61916Y63374D3*
G1X61916Y64004D3*
G54D40*
G1X23685Y11050D3*
G1X23685Y21679D3*
G1X23685Y32309D3*
G1X23685Y42939D3*
G1X23685Y53569D3*
G1X23685Y64199D3*
G1X24315Y11050D3*
G1X24315Y21679D3*
G1X24315Y32309D3*
G1X24315Y42939D3*
G1X24315Y53569D3*
G1X24315Y64199D3*
G1X59905Y11050D3*
G1X59905Y21679D3*
G1X59905Y32309D3*
G1X59905Y42939D3*
G1X59905Y53569D3*
G1X59905Y64199D3*
G1X60535Y11050D3*
G1X60535Y21679D3*
G1X60535Y32309D3*
G1X60535Y42939D3*
G1X60535Y53569D3*
G1X60535Y64199D3*
G54D41*
G1X26400Y8520D3*
G1X26400Y9380D3*
G1X26400Y19149D3*
G1X26400Y20009D3*
G1X26400Y29779D3*
G1X26400Y30639D3*
G1X26400Y40409D3*
G1X26400Y41269D3*
G1X26400Y51039D3*
G1X26400Y51899D3*
G1X26400Y62529D3*
G1X62620Y8520D3*
G1X62620Y9380D3*
G1X62620Y19149D3*
G1X62620Y20009D3*
G1X62620Y29779D3*
G1X62620Y30639D3*
G1X62620Y40409D3*
G1X62620Y41269D3*
G1X62620Y51039D3*
G1X62620Y51899D3*
G1X62620Y61669D3*
G1X62620Y62529D3*
G54D42*
G1X25570Y8550D3*
G1X25570Y19179D3*
G1X25570Y29809D3*
G1X25570Y40439D3*
G1X25570Y51069D3*
G1X25570Y61699D3*
G1X26430Y8550D3*
G1X26430Y19179D3*
G1X26430Y29809D3*
G1X26430Y40439D3*
G1X26430Y51069D3*
G1X26430Y61699D3*
G1X61790Y8550D3*
G1X61790Y19179D3*
G1X61790Y29809D3*
G1X61790Y40439D3*
G1X61790Y51069D3*
G1X61790Y61699D3*
G1X62650Y8550D3*
G1X62650Y19179D3*
G1X62650Y29809D3*
G1X62650Y40439D3*
G1X62650Y51069D3*
G1X62650Y61699D3*
G54D43*
G1X14544Y9491D3*
G1X14544Y12168D3*
G1X14544Y20120D3*
G1X14544Y22798D3*
G1X14544Y30750D3*
G1X14544Y33428D3*
G1X14544Y41380D3*
G1X14544Y44057D3*
G1X14544Y52010D3*
G1X14544Y54687D3*
G1X14544Y62640D3*
G1X14544Y65317D3*
G1X14740Y9491D3*
G1X14740Y12168D3*
G1X14740Y20120D3*
G1X14740Y22798D3*
G1X14740Y30750D3*
G1X14740Y33428D3*
G1X14740Y41380D3*
G1X14740Y44057D3*
G1X14740Y52010D3*
G1X14740Y54687D3*
G1X14740Y62640D3*
G1X14740Y65317D3*
G1X14937Y9491D3*
G1X14937Y12168D3*
G1X14937Y20120D3*
G1X14937Y22798D3*
G1X14937Y30750D3*
G1X14937Y33428D3*
G1X14937Y41380D3*
G1X14937Y44057D3*
G1X14937Y52010D3*
G1X14937Y54687D3*
G1X14937Y62640D3*
G1X14937Y65317D3*
G1X15134Y9491D3*
G1X15134Y12168D3*
G1X15134Y20120D3*
G1X15134Y22798D3*
G1X15134Y30750D3*
G1X15134Y33428D3*
G1X15134Y41380D3*
G1X15134Y44057D3*
G1X15134Y52010D3*
G1X15134Y54687D3*
G1X15134Y62640D3*
G1X15134Y65317D3*
G1X15331Y9491D3*
G1X15331Y12168D3*
G1X15331Y20120D3*
G1X15331Y22798D3*
G1X15331Y30750D3*
G1X15331Y33428D3*
G1X15331Y41380D3*
G1X15331Y44057D3*
G1X15331Y52010D3*
G1X15331Y54687D3*
G1X15331Y62640D3*
G1X15331Y65317D3*
G1X15528Y9491D3*
G1X15528Y12168D3*
G1X15528Y20120D3*
G1X15528Y22798D3*
G1X15528Y30750D3*
G1X15528Y33428D3*
G1X15528Y41380D3*
G1X15528Y44057D3*
G1X15528Y52010D3*
G1X15528Y54687D3*
G1X15528Y62640D3*
G1X15528Y65317D3*
G1X15725Y9491D3*
G1X15725Y12168D3*
G1X15725Y20120D3*
G1X15725Y22798D3*
G1X15725Y30750D3*
G1X15725Y33428D3*
G1X15725Y41380D3*
G1X15725Y44057D3*
G1X15725Y52010D3*
G1X15725Y54687D3*
G1X15725Y62640D3*
G1X15725Y65317D3*
G1X15922Y9491D3*
G1X15922Y12168D3*
G1X15922Y20120D3*
G1X15922Y22798D3*
G1X15922Y30750D3*
G1X15922Y33428D3*
G1X15922Y41380D3*
G1X15922Y44057D3*
G1X15922Y52010D3*
G1X15922Y54687D3*
G1X15922Y62640D3*
G1X15922Y65317D3*
G1X16118Y9491D3*
G1X16118Y12168D3*
G1X16118Y20120D3*
G1X16118Y22798D3*
G1X16118Y30750D3*
G1X16118Y33428D3*
G1X16118Y41380D3*
G1X16118Y44057D3*
G1X16118Y52010D3*
G1X16118Y54687D3*
G1X16118Y62640D3*
G1X16118Y65317D3*
G1X16315Y9491D3*
G1X16315Y12168D3*
G1X16315Y20120D3*
G1X16315Y22798D3*
G1X16315Y30750D3*
G1X16315Y33428D3*
G1X16315Y41380D3*
G1X16315Y44057D3*
G1X16315Y52010D3*
G1X16315Y54687D3*
G1X16315Y62640D3*
G1X16315Y65317D3*
G1X16512Y9491D3*
G1X16512Y12168D3*
G1X16512Y20120D3*
G1X16512Y22798D3*
G1X16512Y30750D3*
G1X16512Y33428D3*
G1X16512Y41380D3*
G1X16512Y44057D3*
G1X16512Y52010D3*
G1X16512Y54687D3*
G1X16512Y62640D3*
G1X16512Y65317D3*
G1X50764Y9491D3*
G1X50764Y12168D3*
G1X50764Y20120D3*
G1X50764Y22798D3*
G1X50764Y30750D3*
G1X50764Y33428D3*
G1X50764Y41380D3*
G1X50764Y44057D3*
G1X50764Y52010D3*
G1X50764Y54687D3*
G1X50764Y62640D3*
G1X50764Y65317D3*
G1X50961Y9491D3*
G1X50961Y12168D3*
G1X50961Y20120D3*
G1X50961Y22798D3*
G1X50961Y30750D3*
G1X50961Y33428D3*
G1X50961Y41380D3*
G1X50961Y44057D3*
G1X50961Y52010D3*
G1X50961Y54687D3*
G1X50961Y62640D3*
G1X50961Y65317D3*
G1X51158Y9491D3*
G1X51158Y12168D3*
G1X51158Y20120D3*
G1X51158Y22798D3*
G1X51158Y30750D3*
G1X51158Y33428D3*
G1X51158Y41380D3*
G1X51158Y44057D3*
G1X51158Y52010D3*
G1X51158Y54687D3*
G1X51158Y62640D3*
G1X51158Y65317D3*
G1X51355Y9491D3*
G1X51355Y12168D3*
G1X51355Y20120D3*
G1X51355Y22798D3*
G1X51355Y30750D3*
G1X51355Y33428D3*
G1X51355Y41380D3*
G1X51355Y44057D3*
G1X51355Y52010D3*
G1X51355Y54687D3*
G1X51355Y62640D3*
G1X51355Y65317D3*
G1X51551Y9491D3*
G1X51551Y12168D3*
G1X51551Y20120D3*
G1X51551Y22798D3*
G1X51551Y30750D3*
G1X51551Y33428D3*
G1X51551Y41380D3*
G1X51551Y44057D3*
G1X51551Y52010D3*
G1X51551Y54687D3*
G1X51551Y62640D3*
G1X51551Y65317D3*
G1X51748Y9491D3*
G1X51748Y12168D3*
G1X51748Y20120D3*
G1X51748Y22798D3*
G1X51748Y30750D3*
G1X51748Y33428D3*
G1X51748Y41380D3*
G1X51748Y44057D3*
G1X51748Y52010D3*
G1X51748Y54687D3*
G1X51748Y62640D3*
G1X51748Y65317D3*
G1X51945Y9491D3*
G1X51945Y12168D3*
G1X51945Y20120D3*
G1X51945Y22798D3*
G1X51945Y30750D3*
G1X51945Y33428D3*
G1X51945Y41380D3*
G1X51945Y44057D3*
G1X51945Y52010D3*
G1X51945Y54687D3*
G1X51945Y62640D3*
G1X51945Y65317D3*
G1X52142Y9491D3*
G1X52142Y12168D3*
G1X52142Y20120D3*
G1X52142Y22798D3*
G1X52142Y30750D3*
G1X52142Y33428D3*
G1X52142Y41380D3*
G1X52142Y44057D3*
G1X52142Y52010D3*
G1X52142Y54687D3*
G1X52142Y62640D3*
G1X52142Y65317D3*
G1X52339Y9491D3*
G1X52339Y12168D3*
G1X52339Y20120D3*
G1X52339Y22798D3*
G1X52339Y30750D3*
G1X52339Y33428D3*
G1X52339Y41380D3*
G1X52339Y44057D3*
G1X52339Y52010D3*
G1X52339Y54687D3*
G1X52339Y62640D3*
G1X52339Y65317D3*
G1X52536Y9491D3*
G1X52536Y12168D3*
G1X52536Y20120D3*
G1X52536Y22798D3*
G1X52536Y30750D3*
G1X52536Y33428D3*
G1X52536Y41380D3*
G1X52536Y44057D3*
G1X52536Y52010D3*
G1X52536Y54687D3*
G1X52536Y62640D3*
G1X52536Y65317D3*
G1X52733Y9491D3*
G1X52733Y12168D3*
G1X52733Y20120D3*
G1X52733Y22798D3*
G1X52733Y30750D3*
G1X52733Y33428D3*
G1X52733Y41380D3*
G1X52733Y44057D3*
G1X52733Y52010D3*
G1X52733Y54687D3*
G1X52733Y62640D3*
G1X52733Y65317D3*
G54D44*
G1X14189Y9845D3*
G1X14189Y10054D3*
G1X14189Y10239D3*
G1X14189Y10435D3*
G1X14189Y10632D3*
G1X14189Y10829D3*
G1X14189Y11026D3*
G1X14189Y11223D3*
G1X14189Y11420D3*
G1X14189Y11617D3*
G1X14189Y11813D3*
G1X14189Y20475D3*
G1X14189Y20684D3*
G1X14189Y20868D3*
G1X14189Y21065D3*
G1X14189Y21262D3*
G1X14189Y21459D3*
G1X14189Y21656D3*
G1X14189Y21853D3*
G1X14189Y22050D3*
G1X14189Y22247D3*
G1X14189Y22443D3*
G1X14189Y31105D3*
G1X14189Y31314D3*
G1X14189Y31498D3*
G1X14189Y31695D3*
G1X14189Y31892D3*
G1X14189Y32089D3*
G1X14189Y32286D3*
G1X14189Y32483D3*
G1X14189Y32679D3*
G1X14189Y32876D3*
G1X14189Y33073D3*
G1X14189Y41735D3*
G1X14189Y41944D3*
G1X14189Y42128D3*
G1X14189Y42325D3*
G1X14189Y42522D3*
G1X14189Y42719D3*
G1X14189Y42916D3*
G1X14189Y43113D3*
G1X14189Y43309D3*
G1X14189Y43506D3*
G1X14189Y43703D3*
G1X14189Y52365D3*
G1X14189Y52574D3*
G1X14189Y52758D3*
G1X14189Y52955D3*
G1X14189Y53152D3*
G1X14189Y53349D3*
G1X14189Y53546D3*
G1X14189Y53743D3*
G1X14189Y53939D3*
G1X14189Y54136D3*
G1X14189Y54333D3*
G1X14189Y62994D3*
G1X14189Y63203D3*
G1X14189Y63388D3*
G1X14189Y63585D3*
G1X14189Y63782D3*
G1X14189Y63979D3*
G1X14189Y64175D3*
G1X14189Y64372D3*
G1X14189Y64569D3*
G1X14189Y64766D3*
G1X14189Y64963D3*
G1X16866Y9845D3*
G1X16866Y10042D3*
G1X16866Y10239D3*
G1X16866Y10435D3*
G1X16866Y10632D3*
G1X16866Y10829D3*
G1X16866Y11026D3*
G1X16866Y11223D3*
G1X16866Y11420D3*
G1X16866Y11617D3*
G1X16866Y11813D3*
G1X16866Y20475D3*
G1X16866Y20672D3*
G1X16866Y20868D3*
G1X16866Y21065D3*
G1X16866Y21262D3*
G1X16866Y21459D3*
G1X16866Y21656D3*
G1X16866Y21853D3*
G1X16866Y22050D3*
G1X16866Y22247D3*
G1X16866Y22443D3*
G1X16866Y31105D3*
G1X16866Y31302D3*
G1X16866Y31498D3*
G1X16866Y31695D3*
G1X16866Y31892D3*
G1X16866Y32089D3*
G1X16866Y32286D3*
G1X16866Y32483D3*
G1X16866Y32679D3*
G1X16866Y32876D3*
G1X16866Y33073D3*
G1X16866Y41735D3*
G1X16866Y41931D3*
G1X16866Y42128D3*
G1X16866Y42325D3*
G1X16866Y42522D3*
G1X16866Y42719D3*
G1X16866Y42916D3*
G1X16866Y43113D3*
G1X16866Y43309D3*
G1X16866Y43506D3*
G1X16866Y43703D3*
G1X16866Y52365D3*
G1X16866Y52561D3*
G1X16866Y52758D3*
G1X16866Y52955D3*
G1X16866Y53152D3*
G1X16866Y53349D3*
G1X16866Y53546D3*
G1X16866Y53743D3*
G1X16866Y53939D3*
G1X16866Y54136D3*
G1X16866Y54333D3*
G1X16866Y62994D3*
G1X16866Y63191D3*
G1X16866Y63388D3*
G1X16866Y63585D3*
G1X16866Y63782D3*
G1X16866Y63979D3*
G1X16866Y64175D3*
G1X16866Y64372D3*
G1X16866Y64569D3*
G1X16866Y64766D3*
G1X16866Y64963D3*
G1X50410Y9845D3*
G1X50410Y10054D3*
G1X50410Y10239D3*
G1X50410Y10435D3*
G1X50410Y10632D3*
G1X50410Y10829D3*
G1X50410Y11026D3*
G1X50410Y11223D3*
G1X50410Y11420D3*
G1X50410Y11617D3*
G1X50410Y11813D3*
G1X50410Y20475D3*
G1X50410Y20684D3*
G1X50410Y20868D3*
G1X50410Y21065D3*
G1X50410Y21262D3*
G1X50410Y21459D3*
G1X50410Y21656D3*
G1X50410Y21853D3*
G1X50410Y22050D3*
G1X50410Y22247D3*
G1X50410Y22443D3*
G1X50410Y31105D3*
G1X50410Y31314D3*
G1X50410Y31498D3*
G1X50410Y31695D3*
G1X50410Y31892D3*
G1X50410Y32089D3*
G1X50410Y32286D3*
G1X50410Y32483D3*
G1X50410Y32679D3*
G1X50410Y32876D3*
G1X50410Y33073D3*
G1X50410Y41735D3*
G1X50410Y41944D3*
G1X50410Y42128D3*
G1X50410Y42325D3*
G1X50410Y42522D3*
G1X50410Y42719D3*
G1X50410Y42916D3*
G1X50410Y43113D3*
G1X50410Y43309D3*
G1X50410Y43506D3*
G1X50410Y43703D3*
G1X50410Y52365D3*
G1X50410Y52574D3*
G1X50410Y52758D3*
G1X50410Y52955D3*
G1X50410Y53152D3*
G1X50410Y53349D3*
G1X50410Y53546D3*
G1X50410Y53743D3*
G1X50410Y53939D3*
G1X50410Y54136D3*
G1X50410Y54333D3*
G1X50410Y62994D3*
G1X50410Y63203D3*
G1X50410Y63388D3*
G1X50410Y63585D3*
G1X50410Y63782D3*
G1X50410Y63979D3*
G1X50410Y64175D3*
G1X50410Y64372D3*
G1X50410Y64569D3*
G1X50410Y64766D3*
G1X50410Y64963D3*
G1X53087Y9845D3*
G1X53087Y10042D3*
G1X53087Y10239D3*
G1X53087Y10435D3*
G1X53087Y10632D3*
G1X53087Y10829D3*
G1X53087Y11026D3*
G1X53087Y11223D3*
G1X53087Y11420D3*
G1X53087Y11617D3*
G1X53087Y11813D3*
G1X53087Y20475D3*
G1X53087Y20672D3*
G1X53087Y20868D3*
G1X53087Y21065D3*
G1X53087Y21262D3*
G1X53087Y21459D3*
G1X53087Y21656D3*
G1X53087Y21853D3*
G1X53087Y22050D3*
G1X53087Y22247D3*
G1X53087Y22443D3*
G1X53087Y31105D3*
G1X53087Y31302D3*
G1X53087Y31498D3*
G1X53087Y31695D3*
G1X53087Y31892D3*
G1X53087Y32089D3*
G1X53087Y32286D3*
G1X53087Y32483D3*
G1X53087Y32679D3*
G1X53087Y32876D3*
G1X53087Y33073D3*
G1X53087Y41735D3*
G1X53087Y41931D3*
G1X53087Y42128D3*
G1X53087Y42325D3*
G1X53087Y42522D3*
G1X53087Y42719D3*
G1X53087Y42916D3*
G1X53087Y43113D3*
G1X53087Y43309D3*
G1X53087Y43506D3*
G1X53087Y43703D3*
G1X53087Y52365D3*
G1X53087Y52561D3*
G1X53087Y52758D3*
G1X53087Y52955D3*
G1X53087Y53152D3*
G1X53087Y53349D3*
G1X53087Y53546D3*
G1X53087Y53743D3*
G1X53087Y53939D3*
G1X53087Y54136D3*
G1X53087Y54333D3*
G1X53087Y62994D3*
G1X53087Y63191D3*
G1X53087Y63388D3*
G1X53087Y63585D3*
G1X53087Y63782D3*
G1X53087Y63979D3*
G1X53087Y64175D3*
G1X53087Y64372D3*
G1X53087Y64569D3*
G1X53087Y64766D3*
G1X53087Y64963D3*
G54D45*
G1X19822Y8951D3*
G1X19822Y9951D3*
G1X19822Y10644D3*
G1X19822Y11644D3*
G1X19822Y12416D3*
G1X19822Y13416D3*
G1X19822Y19581D3*
G1X19822Y20581D3*
G1X19822Y21274D3*
G1X19822Y22274D3*
G1X19822Y23046D3*
G1X19822Y24046D3*
G1X19822Y30211D3*
G1X19822Y31211D3*
G1X19822Y31904D3*
G1X19822Y32904D3*
G1X19822Y33676D3*
G1X19822Y34676D3*
G1X19822Y40841D3*
G1X19822Y41841D3*
G1X19822Y42534D3*
G1X19822Y43534D3*
G1X19822Y44306D3*
G1X19822Y45306D3*
G1X19822Y51471D3*
G1X19822Y52471D3*
G1X19822Y53164D3*
G1X19822Y54164D3*
G1X19822Y54935D3*
G1X19822Y55935D3*
G1X19822Y62101D3*
G1X19822Y63101D3*
G1X19822Y63794D3*
G1X19822Y64794D3*
G1X19822Y65565D3*
G1X19822Y66565D3*
G1X19862Y7219D3*
G1X19862Y8219D3*
G1X19862Y17849D3*
G1X19862Y18849D3*
G1X19862Y28479D3*
G1X19862Y29479D3*
G1X19862Y39109D3*
G1X19862Y40109D3*
G1X19862Y49739D3*
G1X19862Y50739D3*
G1X19862Y60368D3*
G1X19862Y61368D3*
G1X22572Y8951D3*
G1X22572Y9951D3*
G1X22572Y10644D3*
G1X22572Y11644D3*
G1X22572Y12416D3*
G1X22572Y13416D3*
G1X22572Y19581D3*
G1X22572Y20581D3*
G1X22572Y21274D3*
G1X22572Y22274D3*
G1X22572Y23046D3*
G1X22572Y24046D3*
G1X22572Y30211D3*
G1X22572Y31211D3*
G1X22572Y31904D3*
G1X22572Y32904D3*
G1X22572Y33676D3*
G1X22572Y34676D3*
G1X22572Y40841D3*
G1X22572Y41841D3*
G1X22572Y42534D3*
G1X22572Y43534D3*
G1X22572Y44306D3*
G1X22572Y45306D3*
G1X22572Y51471D3*
G1X22572Y52471D3*
G1X22572Y53164D3*
G1X22572Y54164D3*
G1X22572Y54935D3*
G1X22572Y55935D3*
G1X22572Y62101D3*
G1X22572Y63101D3*
G1X22572Y63794D3*
G1X22572Y64794D3*
G1X22572Y65565D3*
G1X22572Y66565D3*
G1X22612Y7219D3*
G1X22612Y8219D3*
G1X22612Y17849D3*
G1X22612Y18849D3*
G1X22612Y28479D3*
G1X22612Y29479D3*
G1X22612Y39109D3*
G1X22612Y40109D3*
G1X22612Y49739D3*
G1X22612Y50739D3*
G1X22612Y60368D3*
G1X22612Y61368D3*
G1X56043Y8951D3*
G1X56043Y9951D3*
G1X56043Y10644D3*
G1X56043Y11644D3*
G1X56043Y12416D3*
G1X56043Y13416D3*
G1X56043Y19581D3*
G1X56043Y20581D3*
G1X56043Y21274D3*
G1X56043Y22274D3*
G1X56043Y23046D3*
G1X56043Y24046D3*
G1X56043Y30211D3*
G1X56043Y31211D3*
G1X56043Y31904D3*
G1X56043Y32904D3*
G1X56043Y33676D3*
G1X56043Y34676D3*
G1X56043Y40841D3*
G1X56043Y41841D3*
G1X56043Y42534D3*
G1X56043Y43534D3*
G1X56043Y44306D3*
G1X56043Y45306D3*
G1X56043Y51471D3*
G1X56043Y52471D3*
G1X56043Y53164D3*
G1X56043Y54164D3*
G1X56043Y54935D3*
G1X56043Y55935D3*
G1X56043Y62101D3*
G1X56043Y63101D3*
G1X56043Y63794D3*
G1X56043Y64794D3*
G1X56043Y65565D3*
G1X56043Y66565D3*
G1X56082Y7219D3*
G1X56082Y8219D3*
G1X56082Y17849D3*
G1X56082Y18849D3*
G1X56082Y28479D3*
G1X56082Y29479D3*
G1X56082Y39109D3*
G1X56082Y40109D3*
G1X56082Y49739D3*
G1X56082Y50739D3*
G1X56082Y60368D3*
G1X56082Y61368D3*
G1X58793Y8951D3*
G1X58793Y9951D3*
G1X58793Y10644D3*
G1X58793Y11644D3*
G1X58793Y12416D3*
G1X58793Y13416D3*
G1X58793Y19581D3*
G1X58793Y20581D3*
G1X58793Y21274D3*
G1X58793Y22274D3*
G1X58793Y23046D3*
G1X58793Y24046D3*
G1X58793Y30211D3*
G1X58793Y31211D3*
G1X58793Y31904D3*
G1X58793Y32904D3*
G1X58793Y33676D3*
G1X58793Y34676D3*
G1X58793Y40841D3*
G1X58793Y41841D3*
G1X58793Y42534D3*
G1X58793Y43534D3*
G1X58793Y44306D3*
G1X58793Y45306D3*
G1X58793Y51471D3*
G1X58793Y52471D3*
G1X58793Y53164D3*
G1X58793Y54164D3*
G1X58793Y54935D3*
G1X58793Y55935D3*
G1X58793Y62101D3*
G1X58793Y63101D3*
G1X58793Y63794D3*
G1X58793Y64794D3*
G1X58793Y65565D3*
G1X58793Y66565D3*
G1X58832Y7219D3*
G1X58832Y8219D3*
G1X58832Y17849D3*
G1X58832Y18849D3*
G1X58832Y28479D3*
G1X58832Y29479D3*
G1X58832Y39109D3*
G1X58832Y40109D3*
G1X58832Y49739D3*
G1X58832Y50739D3*
G1X58832Y60368D3*
G1X58832Y61368D3*
M2*
