%FSTAX33Y33*%
%MOMM*%
%SFA1B1*%

%IPPOS*%
%ADD10R,0.599999X0.649999*%
%ADD11R,0.778998X0.749999*%
%ADD12R,1.065998X0.594999*%
%ADD13R,1.065998X0.764998*%
%ADD14R,1.065998X0.698999*%
%ADD15R,1.065998X0.631999*%
%ADD16R,1.065998X0.627999*%
%ADD17R,1.099998X0.399999*%
%ADD18R,1.065998X0.499999*%
%ADD19R,0.399999X1.099998*%
%ADD20R,0.780998X0.749999*%
%ADD21R,1.191998X0.749999*%
%ADD22R,0.799998X0.899998*%
%ADD23R,2.149996X1.699997*%
%ADD24R,1.699997X1.049998*%
%ADD25R,0.899998X0.799998*%
%ADD26R,1.049998X1.699997*%
%ADD27R,0.849998X0.899998*%
%ADD28R,0.899998X0.849998*%
%ADD29R,1.699997X2.149996*%
%ADD30R,0.499999X0.499999*%
%ADD31R,0.499999X0.499999*%
%ADD32R,0.499999X2.049996*%
%ADD33R,3.049994X2.049996*%
%ADD34R,0.849998X2.049996*%
%ADD35R,0.499999X0.999998*%
%ADD36R,0.349999X1.399997*%
%ADD37R,0.599999X0.799998*%
%ADD38R,3.299993X1.149998*%
%ADD39R,0.949998X0.549999*%
%ADD40R,0.549999X0.949998*%
%ADD41R,0.699999X0.499999*%
%ADD42R,0.599999X0.699999*%
%LNsr71_ku_minus_apb3000037_panel-1*%
%LPD*%
G36*
X053437Y037854D02*
X053463Y037846D01*
X053487Y037833*
X053508Y037816*
X053525Y037795*
X053538Y037771*
X053546Y037745*
X053549Y037718*
X053546Y037691*
X053538Y037665*
X053525Y037641*
X053508Y037621*
X053487Y037603*
X053463Y037591*
X053437Y037583*
X05341Y03758*
Y037581*
X053136Y03758*
X053135*
X053119Y037582*
X053104Y037589*
X053091Y037599*
X053081Y037612*
X053075Y037627*
X053072Y037643*
X053073*
X053072Y037793*
X053075Y03781*
X053081Y037825*
X053091Y037838*
X053104Y037848*
X053119Y037854*
X053135Y037856*
X05341*
X053437Y037854*
G37*
G36*
X05986Y038356D02*
X060135D01*
X060152Y038354*
X060167Y038348*
X06018Y038338*
X06019Y038325*
X060196Y03831*
X060198Y038293*
Y038143*
X060196Y038127*
X06019Y038112*
X06018Y038099*
X060167Y038089*
X060152Y038082*
X060135Y03808*
Y038081*
X05986Y03808*
X059833Y038083*
X059808Y038091*
X059784Y038103*
X059763Y03812*
X059746Y038141*
X059733Y038165*
X059725Y038191*
X059722Y038218*
X059725Y038245*
X059733Y038271*
X059746Y038295*
X059763Y038316*
X059784Y038333*
X059808Y038346*
X059833Y038354*
X05986Y038356*
G37*
G36*
X053437Y038354D02*
X053463Y038346D01*
X053487Y038333*
X053508Y038316*
X053525Y038295*
X053538Y038271*
X053546Y038245*
X053549Y038218*
X053546Y038191*
X053538Y038165*
X053525Y038141*
X053508Y038121*
X053487Y038103*
X053463Y038091*
X053437Y038083*
X05341Y03808*
Y038081*
X053136Y03808*
X053135*
X053119Y038082*
X053104Y038089*
X053091Y038099*
X053081Y038112*
X053075Y038127*
X053072Y038143*
X053073*
X053072Y038293*
X053075Y03831*
X053081Y038325*
X053091Y038338*
X053104Y038348*
X053119Y038354*
X053135Y038356*
X05341*
X053437Y038354*
G37*
G36*
X05986Y037356D02*
X060135D01*
X060152Y037354*
X060167Y037348*
X06018Y037338*
X06019Y037325*
X060196Y03731*
X060198Y037293*
Y037143*
X060196Y037127*
X06019Y037112*
X06018Y037099*
X060167Y037089*
X060152Y037082*
X060135Y03708*
Y037081*
X05986Y03708*
X059833Y037083*
X059808Y037091*
X059784Y037103*
X059763Y03712*
X059746Y037141*
X059733Y037165*
X059725Y037191*
X059722Y037218*
X059725Y037245*
X059733Y037271*
X059746Y037295*
X059763Y037316*
X059784Y037333*
X059808Y037346*
X059833Y037354*
X05986Y037356*
G37*
G36*
X053437Y037354D02*
X053463Y037346D01*
X053487Y037333*
X053508Y037316*
X053525Y037295*
X053538Y037271*
X053546Y037245*
X053549Y037218*
X053546Y037191*
X053538Y037165*
X053525Y037141*
X053508Y037121*
X053487Y037103*
X053463Y037091*
X053437Y037083*
X05341Y03708*
Y037081*
X053136Y03708*
X053135*
X053119Y037082*
X053104Y037089*
X053091Y037099*
X053081Y037112*
X053075Y037127*
X053072Y037143*
X053073*
X053072Y037293*
X053075Y03731*
X053081Y037325*
X053091Y037338*
X053104Y037348*
X053119Y037354*
X053135Y037356*
X05341*
X053437Y037354*
G37*
G36*
X05986Y037856D02*
X060135D01*
X060152Y037854*
X060167Y037848*
X06018Y037838*
X06019Y037825*
X060196Y03781*
X060198Y037793*
Y037643*
X060196Y037627*
X06019Y037612*
X06018Y037599*
X060167Y037589*
X060152Y037582*
X060135Y03758*
Y037581*
X05986Y03758*
X059833Y037583*
X059808Y037591*
X059784Y037603*
X059763Y03762*
X059746Y037641*
X059733Y037665*
X059725Y037691*
X059722Y037718*
X059725Y037745*
X059733Y037771*
X059746Y037795*
X059763Y037816*
X059784Y037833*
X059808Y037846*
X059833Y037854*
X05986Y037856*
G37*
G36*
X053437Y039354D02*
X053463Y039346D01*
X053487Y039333*
X053508Y039316*
X053525Y039295*
X053538Y039271*
X053546Y039245*
X053549Y039218*
X053546Y039191*
X053538Y039165*
X053525Y039141*
X053508Y039121*
X053487Y039103*
X053463Y039091*
X053437Y039083*
X05341Y03908*
Y039081*
X053136Y03908*
X053135*
X053119Y039082*
X053104Y039089*
X053091Y039099*
X053081Y039112*
X053075Y039127*
X053072Y039143*
X053073*
X053072Y039293*
X053075Y03931*
X053081Y039325*
X053091Y039338*
X053104Y039348*
X053119Y039354*
X053135Y039356*
X05341*
X053437Y039354*
G37*
G36*
X05986Y039856D02*
X060135D01*
X060152Y039854*
X060167Y039848*
X06018Y039838*
X06019Y039825*
X060196Y03981*
X060198Y039793*
Y039643*
X060196Y039627*
X06019Y039612*
X06018Y039599*
X060167Y039589*
X060152Y039582*
X060135Y03958*
Y039581*
X05986Y03958*
X059833Y039583*
X059808Y039591*
X059784Y039603*
X059763Y03962*
X059746Y039641*
X059733Y039665*
X059725Y039691*
X059722Y039718*
X059725Y039745*
X059733Y039771*
X059746Y039795*
X059763Y039816*
X059784Y039833*
X059808Y039846*
X059833Y039854*
X05986Y039856*
G37*
G36*
X053437Y039854D02*
X053463Y039846D01*
X053487Y039833*
X053508Y039816*
X053525Y039795*
X053538Y039771*
X053546Y039745*
X053549Y039718*
X053546Y039691*
X053538Y039665*
X053525Y039641*
X053508Y039621*
X053487Y039603*
X053463Y039591*
X053437Y039583*
X05341Y03958*
Y039581*
X053136Y03958*
X053135*
X053119Y039582*
X053104Y039589*
X053091Y039599*
X053081Y039612*
X053075Y039627*
X053072Y039643*
X053073*
X053072Y039793*
X053075Y03981*
X053081Y039825*
X053091Y039838*
X053104Y039848*
X053119Y039854*
X053135Y039856*
X05341*
X053437Y039854*
G37*
G36*
X05986Y038856D02*
X060135D01*
X060152Y038854*
X060167Y038848*
X06018Y038838*
X06019Y038825*
X060196Y03881*
X060198Y038793*
Y038643*
X060196Y038627*
X06019Y038612*
X06018Y038599*
X060167Y038589*
X060152Y038582*
X060135Y03858*
Y038581*
X05986Y03858*
X059833Y038583*
X059808Y038591*
X059784Y038603*
X059763Y03862*
X059746Y038641*
X059733Y038665*
X059725Y038691*
X059722Y038718*
X059725Y038745*
X059733Y038771*
X059746Y038795*
X059763Y038816*
X059784Y038833*
X059808Y038846*
X059833Y038854*
X05986Y038856*
G37*
G36*
X053437Y038854D02*
X053463Y038846D01*
X053487Y038833*
X053508Y038816*
X053525Y038795*
X053538Y038771*
X053546Y038745*
X053549Y038718*
X053546Y038691*
X053538Y038665*
X053525Y038641*
X053508Y038621*
X053487Y038603*
X053463Y038591*
X053437Y038583*
X05341Y03858*
Y038581*
X053136Y03858*
X053135*
X053119Y038582*
X053104Y038589*
X053091Y038599*
X053081Y038612*
X053075Y038627*
X053072Y038643*
X053073*
X053072Y038793*
X053075Y03881*
X053081Y038825*
X053091Y038838*
X053104Y038848*
X053119Y038854*
X053135Y038856*
X05341*
X053437Y038854*
G37*
G36*
X05951Y039356D02*
X060035D01*
X060052Y039354*
X060067Y039348*
X06008Y039338*
X06009Y039325*
X060096Y03931*
X060098Y039293*
Y039143*
X060096Y039127*
X06009Y039112*
X06008Y039099*
X060067Y039089*
X060052Y039082*
X060035Y03908*
Y039081*
X05951Y03908*
X059484Y039083*
X059458Y039091*
X059434Y039103*
X059413Y039121*
X059396Y039141*
X059383Y039165*
X059375Y039191*
X059372Y039218*
X059375Y039245*
X059383Y039271*
X059396Y039295*
X059413Y039316*
X059434Y039333*
X059458Y039346*
X059484Y039354*
X05951Y039356*
G37*
G36*
X054912Y036879D02*
X054938Y036871D01*
X054962Y036858*
X054983Y036841*
X055Y03682*
X055013Y036796*
X055021Y03677*
X055024Y036743*
X055023*
Y036468*
X055021Y036452*
X055015Y036437*
X055005Y036424*
X054992Y036414*
X054977Y036407*
X05496Y036405*
Y036406*
X05481Y036405*
X054794Y036407*
X054779Y036414*
X054766Y036424*
X054756Y036437*
X05475Y036452*
X054747Y036468*
X054748*
X054747Y036743*
X05475Y03677*
X054758Y036796*
X054771Y03682*
X054788Y036841*
X054809Y036858*
X054833Y036871*
X054859Y036879*
X054885Y036881*
X054912Y036879*
G37*
G36*
X055412D02*
X055438Y036871D01*
X055462Y036858*
X055483Y036841*
X0555Y03682*
X055513Y036796*
X055521Y03677*
X055524Y036743*
X055523*
Y036468*
X055521Y036452*
X055515Y036437*
X055505Y036424*
X055492Y036414*
X055477Y036407*
X05546Y036405*
Y036406*
X05531Y036405*
X055294Y036407*
X055279Y036414*
X055266Y036424*
X055256Y036437*
X05525Y036452*
X055247Y036468*
X055248*
X055247Y036743*
X05525Y03677*
X055258Y036796*
X055271Y03682*
X055288Y036841*
X055309Y036858*
X055333Y036871*
X055359Y036879*
X055385Y036881*
X055412Y036879*
G37*
G36*
X056412D02*
X056438Y036871D01*
X056462Y036858*
X056483Y036841*
X0565Y03682*
X056513Y036796*
X056521Y03677*
X056524Y036743*
X056523*
Y036468*
X056521Y036452*
X056515Y036437*
X056505Y036424*
X056492Y036414*
X056477Y036407*
X05646Y036405*
Y036406*
X05631Y036405*
X056294Y036407*
X056279Y036414*
X056266Y036424*
X056256Y036437*
X05625Y036452*
X056247Y036468*
X056248*
X056247Y036743*
X05625Y03677*
X056258Y036796*
X056271Y03682*
X056288Y036841*
X056309Y036858*
X056333Y036871*
X056359Y036879*
X056385Y036881*
X056412Y036879*
G37*
G36*
X057412Y037129D02*
X057438Y037121D01*
X057462Y037108*
X057483Y037091*
X0575Y03707*
X057513Y037046*
X057521Y03702*
X057524Y036993*
X057523*
X057524Y036468*
X057521Y036452*
X057515Y036437*
X057505Y036424*
X057492Y036414*
X057477Y036407*
X05746Y036405*
Y036406*
X057311Y036405*
X05731*
X057294Y036407*
X057279Y036414*
X057266Y036424*
X057256Y036437*
X05725Y036452*
X057247Y036468*
X057248*
X057247Y036993*
X05725Y03702*
X057258Y037046*
X057271Y03707*
X057288Y037091*
X057309Y037108*
X057333Y037121*
X057359Y037129*
X057385Y037131*
X057412Y037129*
G37*
G36*
X053912Y036879D02*
X053938Y036871D01*
X053962Y036858*
X053983Y036841*
X054Y03682*
X054013Y036796*
X054021Y03677*
X054024Y036743*
X054023*
Y036468*
X054021Y036452*
X054015Y036437*
X054005Y036424*
X053992Y036414*
X053977Y036407*
X05396Y036405*
Y036406*
X05381Y036405*
X053794Y036407*
X053779Y036414*
X053766Y036424*
X053756Y036437*
X05375Y036452*
X053747Y036468*
X053748*
X053747Y036743*
X05375Y03677*
X053758Y036796*
X053771Y03682*
X053788Y036841*
X053809Y036858*
X053833Y036871*
X053859Y036879*
X053885Y036881*
X053912Y036879*
G37*
G36*
X054412D02*
X054438Y036871D01*
X054462Y036858*
X054483Y036841*
X0545Y03682*
X054513Y036796*
X054521Y03677*
X054524Y036743*
X054523*
Y036468*
X054521Y036452*
X054515Y036437*
X054505Y036424*
X054492Y036414*
X054477Y036407*
X05446Y036405*
Y036406*
X05431Y036405*
X054294Y036407*
X054279Y036414*
X054266Y036424*
X054256Y036437*
X05425Y036452*
X054247Y036468*
X054248*
X054247Y036743*
X05425Y03677*
X054258Y036796*
X054271Y03682*
X054288Y036841*
X054309Y036858*
X054333Y036871*
X054359Y036879*
X054385Y036881*
X054412Y036879*
G37*
G36*
X056912Y037229D02*
X056938Y037221D01*
X056962Y037208*
X056983Y037191*
X057Y03717*
X057013Y037146*
X057021Y03712*
X057024Y037093*
X057023*
X057024Y036568*
X057021Y036552*
X057015Y036537*
X057005Y036524*
X056992Y036514*
X056977Y036507*
X05696Y036505*
Y036506*
X05681Y036505*
X056794Y036507*
X056779Y036514*
X056766Y036524*
X056756Y036537*
X05675Y036552*
X056747Y036568*
X056748*
X056747Y037093*
X05675Y03712*
X056758Y037146*
X056771Y03717*
X056788Y037191*
X056809Y037208*
X056833Y037221*
X056859Y037229*
X056885Y037231*
X056912Y037229*
G37*
G36*
X057912D02*
X057938Y037221D01*
X057962Y037208*
X057983Y037191*
X058Y03717*
X058013Y037146*
X058021Y03712*
X058024Y037093*
X058023*
X058024Y036568*
X058021Y036552*
X058015Y036537*
X058005Y036524*
X057992Y036514*
X057977Y036507*
X05796Y036505*
Y036506*
X05781Y036505*
X057794Y036507*
X057779Y036514*
X057766Y036524*
X057756Y036537*
X05775Y036552*
X057747Y036568*
X057748*
X057747Y037093*
X05775Y03712*
X057758Y037146*
X057771Y03717*
X057788Y037191*
X057809Y037208*
X057833Y037221*
X057859Y037229*
X057885Y037231*
X057912Y037229*
G37*
G36*
X058912D02*
X058938Y037221D01*
X058962Y037208*
X058983Y037191*
X059Y03717*
X059013Y037146*
X059021Y03712*
X059024Y037093*
X059023*
X059024Y036568*
X059021Y036552*
X059015Y036537*
X059005Y036524*
X058992Y036514*
X058977Y036507*
X05896Y036505*
Y036506*
X058811Y036505*
X05881*
X058794Y036507*
X058779Y036514*
X058766Y036524*
X058756Y036537*
X05875Y036552*
X058747Y036568*
X058748*
X058747Y037093*
X05875Y03712*
X058758Y037146*
X058771Y03717*
X058788Y037191*
X058809Y037208*
X058833Y037221*
X058859Y037229*
X058885Y037231*
X058912Y037229*
G37*
G36*
X058412Y036879D02*
X058438Y036871D01*
X058462Y036858*
X058483Y036841*
X0585Y03682*
X058513Y036796*
X058521Y03677*
X058524Y036743*
X058523*
Y036468*
X058521Y036452*
X058515Y036437*
X058505Y036424*
X058492Y036414*
X058477Y036407*
X05846Y036405*
Y036406*
X05831Y036405*
X058294Y036407*
X058279Y036414*
X058266Y036424*
X058256Y036437*
X05825Y036452*
X058247Y036468*
X058248*
X058247Y036743*
X05825Y03677*
X058258Y036796*
X058271Y03682*
X058288Y036841*
X058309Y036858*
X058333Y036871*
X058359Y036879*
X058385Y036881*
X058412Y036879*
G37*
G36*
X059412D02*
X059438Y036871D01*
X059462Y036858*
X059483Y036841*
X0595Y03682*
X059513Y036796*
X059521Y03677*
X059524Y036743*
X059523*
Y036468*
X059521Y036452*
X059515Y036437*
X059505Y036424*
X059492Y036414*
X059477Y036407*
X05946Y036405*
Y036406*
X05931Y036405*
X059294Y036407*
X059279Y036414*
X059266Y036424*
X059256Y036437*
X05925Y036452*
X059247Y036468*
X059248*
X059247Y036743*
X05925Y03677*
X059258Y036796*
X059271Y03682*
X059288Y036841*
X059309Y036858*
X059333Y036871*
X059359Y036879*
X059385Y036881*
X059412Y036879*
G37*
G36*
X055912Y037229D02*
X055938Y037221D01*
X055962Y037208*
X055983Y037191*
X056Y03717*
X056013Y037146*
X056021Y03712*
X056024Y037093*
X056023*
X056024Y036568*
X056021Y036552*
X056015Y036537*
X056005Y036524*
X055992Y036514*
X055977Y036507*
X05596Y036505*
Y036506*
X05581Y036505*
X055794Y036507*
X055779Y036514*
X055766Y036524*
X055756Y036537*
X05575Y036552*
X055747Y036568*
X055748*
X055747Y037093*
X05575Y03712*
X055758Y037146*
X055771Y03717*
X055788Y037191*
X055809Y037208*
X055833Y037221*
X055859Y037229*
X055885Y037231*
X055912Y037229*
G37*
G36*
X057977Y043429D02*
X057992Y043423D01*
X058005Y043413*
X058015Y0434*
X058021Y043385*
X058023Y043368*
X058024Y042843*
X058021Y042816*
X058013Y04279*
X058Y042766*
X057983Y042745*
X057962Y042728*
X057938Y042716*
X057912Y042708*
X057885Y042705*
X057858Y042708*
X057833Y042716*
X057809Y042728*
X057788Y042745*
X057771Y042766*
X057758Y04279*
X05775Y042816*
X057747Y042843*
X057748*
X057747Y043368*
X05775Y043385*
X057756Y0434*
X057766Y043413*
X057779Y043423*
X057794Y043429*
X05781Y043431*
X05796*
X057977Y043429*
G37*
G36*
X053977Y043529D02*
X053992Y043523D01*
X054005Y043513*
X054015Y0435*
X054021Y043484*
X054024Y043468*
X054023*
X054024Y043193*
X054021Y043166*
X054013Y04314*
X054Y043116*
X053983Y043095*
X053962Y043078*
X053938Y043066*
X053912Y043058*
X053885Y043055*
X053859Y043058*
X053833Y043066*
X053809Y043078*
X053788Y043095*
X053771Y043116*
X053758Y04314*
X05375Y043166*
X053747Y043193*
X053748*
X053747Y043468*
X05375Y043484*
X053756Y0435*
X053766Y043513*
X053779Y043523*
X053794Y043529*
X05381Y043531*
X05396*
X053977Y043529*
G37*
G36*
X054477D02*
X054492Y043523D01*
X054505Y043513*
X054515Y0435*
X054521Y043484*
X054524Y043468*
X054523*
X054524Y043193*
X054521Y043166*
X054513Y04314*
X0545Y043116*
X054483Y043095*
X054462Y043078*
X054438Y043066*
X054412Y043058*
X054385Y043055*
X054359Y043058*
X054333Y043066*
X054309Y043078*
X054288Y043095*
X054271Y043116*
X054258Y04314*
X05425Y043166*
X054247Y043193*
X054248*
X054247Y043468*
X05425Y043484*
X054256Y0435*
X054266Y043513*
X054279Y043523*
X054294Y043529*
X05431Y043531*
X05446*
X054477Y043529*
G37*
G36*
X058977Y043429D02*
X058992Y043423D01*
X059005Y043413*
X059015Y043399*
X059021Y043384*
X059023Y043368*
X059024Y042843*
X059021Y042816*
X059013Y04279*
X059Y042766*
X058983Y042745*
X058962Y042728*
X058938Y042715*
X058912Y042707*
X058885Y042705*
X058859Y042707*
X058833Y042715*
X058809Y042728*
X058788Y042745*
X058771Y042766*
X058758Y04279*
X05875Y042816*
X058747Y042843*
X058748*
X058747Y043368*
X05875Y043384*
X058756Y043399*
X058766Y043412*
X058779Y043423*
X058794Y043429*
X05881Y043431*
Y04343*
X05896Y043431*
X058977Y043429*
G37*
G36*
X055977D02*
X055992Y043423D01*
X056005Y043413*
X056015Y0434*
X056021Y043385*
X056023Y043368*
X056024Y042843*
X056021Y042816*
X056013Y04279*
X056Y042766*
X055983Y042745*
X055962Y042728*
X055938Y042716*
X055912Y042708*
X055885Y042705*
X055858Y042708*
X055833Y042716*
X055809Y042728*
X055788Y042745*
X055771Y042766*
X055758Y04279*
X05575Y042816*
X055747Y042843*
X055748*
X055747Y043368*
X05575Y043385*
X055756Y0434*
X055766Y043413*
X055779Y043423*
X055794Y043429*
X05581Y043431*
X05596*
X055977Y043429*
G37*
G36*
X056977D02*
X056992Y043423D01*
X057005Y043413*
X057015Y0434*
X057021Y043385*
X057023Y043368*
X057024Y042843*
X057021Y042816*
X057013Y04279*
X057Y042766*
X056983Y042745*
X056962Y042728*
X056938Y042716*
X056912Y042708*
X056885Y042705*
X056858Y042708*
X056833Y042716*
X056809Y042728*
X056788Y042745*
X056771Y042766*
X056758Y04279*
X05675Y042816*
X056747Y042843*
X056748*
X056747Y043368*
X05675Y043385*
X056756Y0434*
X056766Y043413*
X056779Y043423*
X056794Y043429*
X05681Y043431*
X05696*
X056977Y043429*
G37*
G36*
X058477Y043529D02*
X058492Y043523D01*
X058505Y043513*
X058515Y0435*
X058521Y043484*
X058524Y043468*
X058523*
X058524Y043193*
X058521Y043166*
X058513Y04314*
X0585Y043116*
X058483Y043095*
X058462Y043078*
X058438Y043066*
X058412Y043058*
X058385Y043055*
X058359Y043058*
X058333Y043066*
X058309Y043078*
X058288Y043095*
X058271Y043116*
X058258Y04314*
X05825Y043166*
X058247Y043193*
X058248*
X058247Y043468*
X05825Y043484*
X058256Y0435*
X058266Y043513*
X058279Y043523*
X058294Y043529*
X05831Y043531*
X05846*
X058477Y043529*
G37*
G36*
X059477D02*
X059492Y043523D01*
X059505Y043513*
X059515Y0435*
X059521Y043484*
X059524Y043468*
X059523*
X059524Y043193*
X059521Y043166*
X059513Y04314*
X0595Y043116*
X059483Y043095*
X059462Y043078*
X059438Y043066*
X059412Y043058*
X059385Y043055*
X059359Y043058*
X059333Y043066*
X059309Y043078*
X059288Y043095*
X059271Y043116*
X059258Y04314*
X05925Y043166*
X059247Y043193*
X059248*
X059247Y043468*
X05925Y043484*
X059256Y0435*
X059266Y043513*
X059279Y043523*
X059294Y043529*
X05931Y043531*
X05946*
X059477Y043529*
G37*
G36*
X057477D02*
X057492Y043523D01*
X057505Y043513*
X057515Y0435*
X057521Y043485*
X057523Y043468*
X057524Y042943*
X057521Y042916*
X057513Y04289*
X0575Y042866*
X057483Y042845*
X057462Y042828*
X057438Y042816*
X057412Y042808*
X057385Y042805*
X057358Y042808*
X057333Y042816*
X057309Y042828*
X057288Y042845*
X057271Y042866*
X057258Y04289*
X05725Y042916*
X057247Y042943*
X057248*
X057247Y043468*
X05725Y043485*
X057256Y0435*
X057266Y043513*
X057279Y043523*
X057294Y043529*
X05731Y043531*
X05746*
X057477Y043529*
G37*
G36*
X054977D02*
X054992Y043523D01*
X055005Y043513*
X055015Y0435*
X055021Y043484*
X055024Y043468*
X055023*
X055024Y043193*
X055021Y043166*
X055013Y04314*
X055Y043116*
X054983Y043095*
X054962Y043078*
X054938Y043066*
X054912Y043058*
X054885Y043055*
X054859Y043058*
X054833Y043066*
X054809Y043078*
X054788Y043095*
X054771Y043116*
X054758Y04314*
X05475Y043166*
X054747Y043193*
X054748*
X054747Y043468*
X05475Y043484*
X054756Y0435*
X054766Y043513*
X054779Y043523*
X054794Y043529*
X05481Y043531*
X05496*
X054977Y043529*
G37*
G36*
X055477D02*
X055492Y043523D01*
X055505Y043513*
X055515Y0435*
X055521Y043484*
X055524Y043468*
X055523*
X055524Y043193*
X055521Y043166*
X055513Y04314*
X0555Y043116*
X055483Y043095*
X055462Y043078*
X055438Y043066*
X055412Y043058*
X055385Y043055*
X055359Y043058*
X055333Y043066*
X055309Y043078*
X055288Y043095*
X055271Y043116*
X055258Y04314*
X05525Y043166*
X055247Y043193*
X055248*
X055247Y043468*
X05525Y043484*
X055256Y0435*
X055266Y043513*
X055279Y043523*
X055294Y043529*
X05531Y043531*
X05546*
X055477Y043529*
G37*
G36*
X056477D02*
X056492Y043523D01*
X056505Y043513*
X056515Y0435*
X056521Y043484*
X056524Y043468*
X056523*
X056524Y043193*
X056521Y043166*
X056513Y04314*
X0565Y043116*
X056483Y043095*
X056462Y043078*
X056438Y043066*
X056412Y043058*
X056385Y043055*
X056359Y043058*
X056333Y043066*
X056309Y043078*
X056288Y043095*
X056271Y043116*
X056258Y04314*
X05625Y043166*
X056247Y043193*
X056248*
X056247Y043468*
X05625Y043484*
X056256Y0435*
X056266Y043513*
X056279Y043523*
X056294Y043529*
X05631Y043531*
X05646*
X056477Y043529*
G37*
G36*
X053437Y040854D02*
X053463Y040846D01*
X053487Y040833*
X053508Y040816*
X053525Y040795*
X053538Y040771*
X053546Y040745*
X053549Y040718*
X053546Y040691*
X053538Y040665*
X053525Y040641*
X053508Y040621*
X053487Y040603*
X053463Y040591*
X053437Y040583*
X05341Y04058*
Y040581*
X053136Y04058*
X053135*
X053119Y040582*
X053104Y040589*
X053091Y040599*
X053081Y040612*
X053075Y040627*
X053072Y040643*
X053073*
X053072Y040793*
X053075Y04081*
X053081Y040825*
X053091Y040838*
X053104Y040848*
X053119Y040854*
X053135Y040856*
X05341*
X053437Y040854*
G37*
G36*
X05986Y041356D02*
X060135D01*
X060152Y041354*
X060167Y041348*
X06018Y041338*
X06019Y041325*
X060196Y04131*
X060198Y041293*
Y041143*
X060196Y041127*
X06019Y041112*
X06018Y041099*
X060167Y041089*
X060152Y041082*
X060135Y04108*
Y041081*
X05986Y04108*
X059833Y041083*
X059808Y041091*
X059784Y041103*
X059763Y04112*
X059746Y041141*
X059733Y041165*
X059725Y041191*
X059722Y041218*
X059725Y041245*
X059733Y041271*
X059746Y041295*
X059763Y041316*
X059784Y041333*
X059808Y041346*
X059833Y041354*
X05986Y041356*
G37*
G36*
X053437Y041354D02*
X053463Y041346D01*
X053487Y041333*
X053508Y041316*
X053525Y041295*
X053538Y041271*
X053546Y041245*
X053549Y041218*
X053546Y041191*
X053538Y041165*
X053525Y041141*
X053508Y041121*
X053487Y041103*
X053463Y041091*
X053437Y041083*
X05341Y04108*
Y041081*
X053136Y04108*
X053135*
X053119Y041082*
X053104Y041089*
X053091Y041099*
X053081Y041112*
X053075Y041127*
X053072Y041143*
X053073*
X053072Y041293*
X053075Y04131*
X053081Y041325*
X053091Y041338*
X053104Y041348*
X053119Y041354*
X053135Y041356*
X05341*
X053437Y041354*
G37*
G36*
X05951Y040356D02*
X060035D01*
X060052Y040354*
X060067Y040348*
X06008Y040338*
X06009Y040325*
X060096Y04031*
X060098Y040293*
Y040143*
X060096Y040127*
X06009Y040112*
X06008Y040099*
X060067Y040089*
X060052Y040082*
X060035Y04008*
Y040081*
X05951Y04008*
X059484Y040083*
X059458Y040091*
X059434Y040103*
X059413Y040121*
X059396Y040141*
X059383Y040165*
X059375Y040191*
X059372Y040218*
X059375Y040245*
X059383Y040271*
X059396Y040295*
X059413Y040316*
X059434Y040333*
X059458Y040346*
X059484Y040354*
X05951Y040356*
G37*
G36*
X053437Y040354D02*
X053463Y040346D01*
X053487Y040333*
X053508Y040316*
X053525Y040295*
X053538Y040271*
X053546Y040245*
X053549Y040218*
X053546Y040191*
X053538Y040165*
X053525Y040141*
X053508Y040121*
X053487Y040103*
X053463Y040091*
X053437Y040083*
X05341Y04008*
Y040081*
X053136Y04008*
X053135*
X053119Y040082*
X053104Y040089*
X053091Y040099*
X053081Y040112*
X053075Y040127*
X053072Y040143*
X053073*
X053072Y040293*
X053075Y04031*
X053081Y040325*
X053091Y040338*
X053104Y040348*
X053119Y040354*
X053135Y040356*
X05341*
X053437Y040354*
G37*
G36*
X05986Y040856D02*
X060135D01*
X060152Y040854*
X060167Y040848*
X06018Y040838*
X06019Y040825*
X060196Y04081*
X060198Y040793*
Y040643*
X060196Y040627*
X06019Y040612*
X06018Y040599*
X060167Y040589*
X060152Y040582*
X060135Y04058*
Y040581*
X05986Y04058*
X059833Y040583*
X059808Y040591*
X059784Y040603*
X059763Y04062*
X059746Y040641*
X059733Y040665*
X059725Y040691*
X059722Y040718*
X059725Y040745*
X059733Y040771*
X059746Y040795*
X059763Y040816*
X059784Y040833*
X059808Y040846*
X059833Y040854*
X05986Y040856*
G37*
G36*
X053437Y042354D02*
X053463Y042346D01*
X053487Y042333*
X053508Y042316*
X053525Y042295*
X053538Y042271*
X053546Y042245*
X053549Y042218*
X053546Y042191*
X053538Y042165*
X053525Y042141*
X053508Y042121*
X053487Y042103*
X053463Y042091*
X053437Y042083*
X05341Y04208*
Y042081*
X053136Y04208*
X053135*
X053119Y042082*
X053104Y042089*
X053091Y042099*
X053081Y042112*
X053075Y042127*
X053072Y042143*
X053073*
X053072Y042293*
X053075Y04231*
X053081Y042325*
X053091Y042338*
X053104Y042348*
X053119Y042354*
X053135Y042356*
X05341*
X053437Y042354*
G37*
G36*
X05986Y042856D02*
X060135D01*
X060152Y042854*
X060167Y042848*
X06018Y042838*
X06019Y042825*
X060196Y04281*
X060198Y042793*
Y042643*
X060196Y042627*
X06019Y042612*
X06018Y042599*
X060167Y042589*
X060152Y042582*
X060135Y04258*
Y042581*
X05986Y04258*
X059833Y042583*
X059808Y042591*
X059784Y042603*
X059763Y04262*
X059746Y042641*
X059733Y042665*
X059725Y042691*
X059722Y042718*
X059725Y042745*
X059733Y042771*
X059746Y042795*
X059763Y042816*
X059784Y042833*
X059808Y042846*
X059833Y042854*
X05986Y042856*
G37*
G36*
X053135D02*
D01*
X053485*
X053502Y042854*
X053517Y042848*
X05353Y042838*
X05354Y042825*
X053546Y04281*
X053548Y042793*
Y042643*
X053546Y042627*
X05354Y042612*
X05353Y042599*
X053517Y042589*
X053502Y042582*
X053485Y04258*
Y042581*
X053135Y04258*
X053119Y042582*
X053104Y042589*
X053091Y042599*
X053081Y042612*
X053075Y042627*
X053072Y042643*
X053073*
X053072Y042793*
X053075Y04281*
X053081Y042825*
X053091Y042838*
X053104Y042848*
X053119Y042854*
X053135Y042856*
G37*
G36*
X05986Y041856D02*
X060135D01*
X060152Y041854*
X060167Y041848*
X06018Y041838*
X06019Y041825*
X060196Y04181*
X060198Y041793*
Y041643*
X060196Y041627*
X06019Y041612*
X06018Y041599*
X060167Y041589*
X060152Y041582*
X060135Y04158*
Y041581*
X05986Y04158*
X059833Y041583*
X059808Y041591*
X059784Y041603*
X059763Y04162*
X059746Y041641*
X059733Y041665*
X059725Y041691*
X059722Y041718*
X059725Y041745*
X059733Y041771*
X059746Y041795*
X059763Y041816*
X059784Y041833*
X059808Y041846*
X059833Y041854*
X05986Y041856*
G37*
G36*
X053437Y041854D02*
X053463Y041846D01*
X053487Y041833*
X053508Y041816*
X053525Y041795*
X053538Y041771*
X053546Y041745*
X053549Y041718*
X053546Y041691*
X053538Y041665*
X053525Y041641*
X053508Y041621*
X053487Y041603*
X053463Y041591*
X053437Y041583*
X05341Y04158*
Y041581*
X053136Y04158*
X053135*
X053119Y041582*
X053104Y041589*
X053091Y041599*
X053081Y041612*
X053075Y041627*
X053072Y041643*
X053073*
X053072Y041793*
X053075Y04181*
X053081Y041825*
X053091Y041838*
X053104Y041848*
X053119Y041854*
X053135Y041856*
X05341*
X053437Y041854*
G37*
G36*
X05986Y042356D02*
X060135D01*
X060152Y042354*
X060167Y042348*
X06018Y042338*
X06019Y042325*
X060196Y04231*
X060198Y042293*
Y042143*
X060196Y042127*
X06019Y042112*
X06018Y042099*
X060167Y042089*
X060152Y042082*
X060135Y04208*
Y042081*
X05986Y04208*
X059833Y042083*
X059808Y042091*
X059784Y042103*
X059763Y04212*
X059746Y042141*
X059733Y042165*
X059725Y042191*
X059722Y042218*
X059725Y042245*
X059733Y042271*
X059746Y042295*
X059763Y042316*
X059784Y042333*
X059808Y042346*
X059833Y042354*
X05986Y042356*
G37*
G36*
X053437Y095254D02*
X053463Y095246D01*
X053487Y095233*
X053508Y095216*
X053525Y095195*
X053538Y095171*
X053546Y095145*
X053549Y095118*
X053546Y095091*
X053538Y095065*
X053525Y095041*
X053508Y095021*
X053487Y095003*
X053463Y094991*
X053437Y094983*
X05341Y09498*
Y094981*
X053136Y09498*
X053135*
X053119Y094982*
X053104Y094989*
X053091Y094999*
X053081Y095012*
X053075Y095027*
X053072Y095043*
X053073*
X053072Y095193*
X053075Y09521*
X053081Y095225*
X053091Y095238*
X053104Y095248*
X053119Y095254*
X053135Y095256*
X05341*
X053437Y095254*
G37*
G36*
X05986Y095756D02*
X060135D01*
X060152Y095754*
X060167Y095748*
X06018Y095738*
X06019Y095725*
X060196Y09571*
X060198Y095693*
Y095543*
X060196Y095527*
X06019Y095512*
X06018Y095499*
X060167Y095489*
X060152Y095482*
X060135Y09548*
Y095481*
X05986Y09548*
X059833Y095483*
X059808Y095491*
X059784Y095503*
X059763Y09552*
X059746Y095541*
X059733Y095565*
X059725Y095591*
X059722Y095618*
X059725Y095645*
X059733Y095671*
X059746Y095695*
X059763Y095716*
X059784Y095733*
X059808Y095746*
X059833Y095754*
X05986Y095756*
G37*
G36*
X053437Y095754D02*
X053463Y095746D01*
X053487Y095733*
X053508Y095716*
X053525Y095695*
X053538Y095671*
X053546Y095645*
X053549Y095618*
X053546Y095591*
X053538Y095565*
X053525Y095541*
X053508Y095521*
X053487Y095503*
X053463Y095491*
X053437Y095483*
X05341Y09548*
Y095481*
X053136Y09548*
X053135*
X053119Y095482*
X053104Y095489*
X053091Y095499*
X053081Y095512*
X053075Y095527*
X053072Y095543*
X053073*
X053072Y095693*
X053075Y09571*
X053081Y095725*
X053091Y095738*
X053104Y095748*
X053119Y095754*
X053135Y095756*
X05341*
X053437Y095754*
G37*
G36*
X05986Y094756D02*
X060135D01*
X060152Y094754*
X060167Y094748*
X06018Y094738*
X06019Y094725*
X060196Y09471*
X060198Y094693*
Y094543*
X060196Y094527*
X06019Y094512*
X06018Y094499*
X060167Y094489*
X060152Y094482*
X060135Y09448*
Y094481*
X05986Y09448*
X059833Y094483*
X059808Y094491*
X059784Y094503*
X059763Y09452*
X059746Y094541*
X059733Y094565*
X059725Y094591*
X059722Y094618*
X059725Y094645*
X059733Y094671*
X059746Y094695*
X059763Y094716*
X059784Y094733*
X059808Y094746*
X059833Y094754*
X05986Y094756*
G37*
G36*
X053437Y094754D02*
X053463Y094746D01*
X053487Y094733*
X053508Y094716*
X053525Y094695*
X053538Y094671*
X053546Y094645*
X053549Y094618*
X053546Y094591*
X053538Y094565*
X053525Y094541*
X053508Y094521*
X053487Y094503*
X053463Y094491*
X053437Y094483*
X05341Y09448*
Y094481*
X053136Y09448*
X053135*
X053119Y094482*
X053104Y094489*
X053091Y094499*
X053081Y094512*
X053075Y094527*
X053072Y094543*
X053073*
X053072Y094693*
X053075Y09471*
X053081Y094725*
X053091Y094738*
X053104Y094748*
X053119Y094754*
X053135Y094756*
X05341*
X053437Y094754*
G37*
G36*
X05986Y095256D02*
X060135D01*
X060152Y095254*
X060167Y095248*
X06018Y095238*
X06019Y095225*
X060196Y09521*
X060198Y095193*
Y095043*
X060196Y095027*
X06019Y095012*
X06018Y094999*
X060167Y094989*
X060152Y094982*
X060135Y09498*
Y094981*
X05986Y09498*
X059833Y094983*
X059808Y094991*
X059784Y095003*
X059763Y09502*
X059746Y095041*
X059733Y095065*
X059725Y095091*
X059722Y095118*
X059725Y095145*
X059733Y095171*
X059746Y095195*
X059763Y095216*
X059784Y095233*
X059808Y095246*
X059833Y095254*
X05986Y095256*
G37*
G36*
X053437Y096754D02*
X053463Y096746D01*
X053487Y096733*
X053508Y096716*
X053525Y096695*
X053538Y096671*
X053546Y096645*
X053549Y096618*
X053546Y096591*
X053538Y096565*
X053525Y096541*
X053508Y096521*
X053487Y096503*
X053463Y096491*
X053437Y096483*
X05341Y09648*
Y096481*
X053136Y09648*
X053135*
X053119Y096482*
X053104Y096489*
X053091Y096499*
X053081Y096512*
X053075Y096527*
X053072Y096543*
X053073*
X053072Y096693*
X053075Y09671*
X053081Y096725*
X053091Y096738*
X053104Y096748*
X053119Y096754*
X053135Y096756*
X05341*
X053437Y096754*
G37*
G36*
X05986Y097256D02*
X060135D01*
X060152Y097254*
X060167Y097248*
X06018Y097238*
X06019Y097225*
X060196Y09721*
X060198Y097193*
Y097043*
X060196Y097027*
X06019Y097012*
X06018Y096999*
X060167Y096989*
X060152Y096982*
X060135Y09698*
Y096981*
X05986Y09698*
X059833Y096983*
X059808Y096991*
X059784Y097003*
X059763Y09702*
X059746Y097041*
X059733Y097065*
X059725Y097091*
X059722Y097118*
X059725Y097145*
X059733Y097171*
X059746Y097195*
X059763Y097216*
X059784Y097233*
X059808Y097246*
X059833Y097254*
X05986Y097256*
G37*
G36*
X053437Y097254D02*
X053463Y097246D01*
X053487Y097233*
X053508Y097216*
X053525Y097195*
X053538Y097171*
X053546Y097145*
X053549Y097118*
X053546Y097091*
X053538Y097065*
X053525Y097041*
X053508Y097021*
X053487Y097003*
X053463Y096991*
X053437Y096983*
X05341Y09698*
Y096981*
X053136Y09698*
X053135*
X053119Y096982*
X053104Y096989*
X053091Y096999*
X053081Y097012*
X053075Y097027*
X053072Y097043*
X053073*
X053072Y097193*
X053075Y09721*
X053081Y097225*
X053091Y097238*
X053104Y097248*
X053119Y097254*
X053135Y097256*
X05341*
X053437Y097254*
G37*
G36*
X05986Y096256D02*
X060135D01*
X060152Y096254*
X060167Y096248*
X06018Y096238*
X06019Y096225*
X060196Y09621*
X060198Y096193*
Y096043*
X060196Y096027*
X06019Y096012*
X06018Y095999*
X060167Y095989*
X060152Y095982*
X060135Y09598*
Y095981*
X05986Y09598*
X059833Y095983*
X059808Y095991*
X059784Y096003*
X059763Y09602*
X059746Y096041*
X059733Y096065*
X059725Y096091*
X059722Y096118*
X059725Y096145*
X059733Y096171*
X059746Y096195*
X059763Y096216*
X059784Y096233*
X059808Y096246*
X059833Y096254*
X05986Y096256*
G37*
G36*
X053437Y096254D02*
X053463Y096246D01*
X053487Y096233*
X053508Y096216*
X053525Y096195*
X053538Y096171*
X053546Y096145*
X053549Y096118*
X053546Y096091*
X053538Y096065*
X053525Y096041*
X053508Y096021*
X053487Y096003*
X053463Y095991*
X053437Y095983*
X05341Y09598*
Y095981*
X053136Y09598*
X053135*
X053119Y095982*
X053104Y095989*
X053091Y095999*
X053081Y096012*
X053075Y096027*
X053072Y096043*
X053073*
X053072Y096193*
X053075Y09621*
X053081Y096225*
X053091Y096238*
X053104Y096248*
X053119Y096254*
X053135Y096256*
X05341*
X053437Y096254*
G37*
G36*
X05951Y096756D02*
X060035D01*
X060052Y096754*
X060067Y096748*
X06008Y096738*
X06009Y096725*
X060096Y09671*
X060098Y096693*
Y096543*
X060096Y096527*
X06009Y096512*
X06008Y096499*
X060067Y096489*
X060052Y096482*
X060035Y09648*
Y096481*
X05951Y09648*
X059484Y096483*
X059458Y096491*
X059434Y096503*
X059413Y096521*
X059396Y096541*
X059383Y096565*
X059375Y096591*
X059372Y096618*
X059375Y096645*
X059383Y096671*
X059396Y096695*
X059413Y096716*
X059434Y096733*
X059458Y096746*
X059484Y096754*
X05951Y096756*
G37*
G36*
X054912Y094279D02*
X054938Y094271D01*
X054962Y094258*
X054983Y094241*
X055Y09422*
X055013Y094196*
X055021Y09417*
X055024Y094143*
X055023*
Y093868*
X055021Y093852*
X055015Y093837*
X055005Y093824*
X054992Y093814*
X054977Y093807*
X05496Y093805*
Y093806*
X05481Y093805*
X054794Y093807*
X054779Y093814*
X054766Y093824*
X054756Y093837*
X05475Y093852*
X054747Y093868*
X054748*
X054747Y094143*
X05475Y09417*
X054758Y094196*
X054771Y09422*
X054788Y094241*
X054809Y094258*
X054833Y094271*
X054859Y094279*
X054885Y094281*
X054912Y094279*
G37*
G36*
X055412D02*
X055438Y094271D01*
X055462Y094258*
X055483Y094241*
X0555Y09422*
X055513Y094196*
X055521Y09417*
X055524Y094143*
X055523*
Y093868*
X055521Y093852*
X055515Y093837*
X055505Y093824*
X055492Y093814*
X055477Y093807*
X05546Y093805*
Y093806*
X05531Y093805*
X055294Y093807*
X055279Y093814*
X055266Y093824*
X055256Y093837*
X05525Y093852*
X055247Y093868*
X055248*
X055247Y094143*
X05525Y09417*
X055258Y094196*
X055271Y09422*
X055288Y094241*
X055309Y094258*
X055333Y094271*
X055359Y094279*
X055385Y094281*
X055412Y094279*
G37*
G36*
X056412D02*
X056438Y094271D01*
X056462Y094258*
X056483Y094241*
X0565Y09422*
X056513Y094196*
X056521Y09417*
X056524Y094143*
X056523*
Y093868*
X056521Y093852*
X056515Y093837*
X056505Y093824*
X056492Y093814*
X056477Y093807*
X05646Y093805*
Y093806*
X05631Y093805*
X056294Y093807*
X056279Y093814*
X056266Y093824*
X056256Y093837*
X05625Y093852*
X056247Y093868*
X056248*
X056247Y094143*
X05625Y09417*
X056258Y094196*
X056271Y09422*
X056288Y094241*
X056309Y094258*
X056333Y094271*
X056359Y094279*
X056385Y094281*
X056412Y094279*
G37*
G36*
X057412Y094529D02*
X057438Y094521D01*
X057462Y094508*
X057483Y094491*
X0575Y09447*
X057513Y094446*
X057521Y09442*
X057524Y094393*
X057523*
X057524Y093868*
X057521Y093852*
X057515Y093837*
X057505Y093824*
X057492Y093814*
X057477Y093807*
X05746Y093805*
Y093806*
X057311Y093805*
X05731*
X057294Y093807*
X057279Y093814*
X057266Y093824*
X057256Y093837*
X05725Y093852*
X057247Y093868*
X057248*
X057247Y094393*
X05725Y09442*
X057258Y094446*
X057271Y09447*
X057288Y094491*
X057309Y094508*
X057333Y094521*
X057359Y094529*
X057385Y094531*
X057412Y094529*
G37*
G36*
X053912Y094279D02*
X053938Y094271D01*
X053962Y094258*
X053983Y094241*
X054Y09422*
X054013Y094196*
X054021Y09417*
X054024Y094143*
X054023*
Y093868*
X054021Y093852*
X054015Y093837*
X054005Y093824*
X053992Y093814*
X053977Y093807*
X05396Y093805*
Y093806*
X05381Y093805*
X053794Y093807*
X053779Y093814*
X053766Y093824*
X053756Y093837*
X05375Y093852*
X053747Y093868*
X053748*
X053747Y094143*
X05375Y09417*
X053758Y094196*
X053771Y09422*
X053788Y094241*
X053809Y094258*
X053833Y094271*
X053859Y094279*
X053885Y094281*
X053912Y094279*
G37*
G36*
X054412D02*
X054438Y094271D01*
X054462Y094258*
X054483Y094241*
X0545Y09422*
X054513Y094196*
X054521Y09417*
X054524Y094143*
X054523*
Y093868*
X054521Y093852*
X054515Y093837*
X054505Y093824*
X054492Y093814*
X054477Y093807*
X05446Y093805*
Y093806*
X05431Y093805*
X054294Y093807*
X054279Y093814*
X054266Y093824*
X054256Y093837*
X05425Y093852*
X054247Y093868*
X054248*
X054247Y094143*
X05425Y09417*
X054258Y094196*
X054271Y09422*
X054288Y094241*
X054309Y094258*
X054333Y094271*
X054359Y094279*
X054385Y094281*
X054412Y094279*
G37*
G36*
X056912Y094629D02*
X056938Y094621D01*
X056962Y094608*
X056983Y094591*
X057Y09457*
X057013Y094546*
X057021Y09452*
X057024Y094493*
X057023*
X057024Y093968*
X057021Y093952*
X057015Y093937*
X057005Y093924*
X056992Y093914*
X056977Y093907*
X05696Y093905*
Y093906*
X05681Y093905*
X056794Y093907*
X056779Y093914*
X056766Y093924*
X056756Y093937*
X05675Y093952*
X056747Y093968*
X056748*
X056747Y094493*
X05675Y09452*
X056758Y094546*
X056771Y09457*
X056788Y094591*
X056809Y094608*
X056833Y094621*
X056859Y094629*
X056885Y094631*
X056912Y094629*
G37*
G36*
X057912D02*
X057938Y094621D01*
X057962Y094608*
X057983Y094591*
X058Y09457*
X058013Y094546*
X058021Y09452*
X058024Y094493*
X058023*
X058024Y093968*
X058021Y093952*
X058015Y093937*
X058005Y093924*
X057992Y093914*
X057977Y093907*
X05796Y093905*
Y093906*
X05781Y093905*
X057794Y093907*
X057779Y093914*
X057766Y093924*
X057756Y093937*
X05775Y093952*
X057747Y093968*
X057748*
X057747Y094493*
X05775Y09452*
X057758Y094546*
X057771Y09457*
X057788Y094591*
X057809Y094608*
X057833Y094621*
X057859Y094629*
X057885Y094631*
X057912Y094629*
G37*
G36*
X058912D02*
X058938Y094621D01*
X058962Y094608*
X058983Y094591*
X059Y09457*
X059013Y094546*
X059021Y09452*
X059024Y094493*
X059023*
X059024Y093968*
X059021Y093952*
X059015Y093937*
X059005Y093924*
X058992Y093914*
X058977Y093907*
X05896Y093905*
Y093906*
X058811Y093905*
X05881*
X058794Y093907*
X058779Y093914*
X058766Y093924*
X058756Y093937*
X05875Y093952*
X058747Y093968*
X058748*
X058747Y094493*
X05875Y09452*
X058758Y094546*
X058771Y09457*
X058788Y094591*
X058809Y094608*
X058833Y094621*
X058859Y094629*
X058885Y094631*
X058912Y094629*
G37*
G36*
X058412Y094279D02*
X058438Y094271D01*
X058462Y094258*
X058483Y094241*
X0585Y09422*
X058513Y094196*
X058521Y09417*
X058524Y094143*
X058523*
Y093868*
X058521Y093852*
X058515Y093837*
X058505Y093824*
X058492Y093814*
X058477Y093807*
X05846Y093805*
Y093806*
X05831Y093805*
X058294Y093807*
X058279Y093814*
X058266Y093824*
X058256Y093837*
X05825Y093852*
X058247Y093868*
X058248*
X058247Y094143*
X05825Y09417*
X058258Y094196*
X058271Y09422*
X058288Y094241*
X058309Y094258*
X058333Y094271*
X058359Y094279*
X058385Y094281*
X058412Y094279*
G37*
G36*
X059412D02*
X059438Y094271D01*
X059462Y094258*
X059483Y094241*
X0595Y09422*
X059513Y094196*
X059521Y09417*
X059524Y094143*
X059523*
Y093868*
X059521Y093852*
X059515Y093837*
X059505Y093824*
X059492Y093814*
X059477Y093807*
X05946Y093805*
Y093806*
X05931Y093805*
X059294Y093807*
X059279Y093814*
X059266Y093824*
X059256Y093837*
X05925Y093852*
X059247Y093868*
X059248*
X059247Y094143*
X05925Y09417*
X059258Y094196*
X059271Y09422*
X059288Y094241*
X059309Y094258*
X059333Y094271*
X059359Y094279*
X059385Y094281*
X059412Y094279*
G37*
G36*
X055912Y094629D02*
X055938Y094621D01*
X055962Y094608*
X055983Y094591*
X056Y09457*
X056013Y094546*
X056021Y09452*
X056024Y094493*
X056023*
X056024Y093968*
X056021Y093952*
X056015Y093937*
X056005Y093924*
X055992Y093914*
X055977Y093907*
X05596Y093905*
Y093906*
X05581Y093905*
X055794Y093907*
X055779Y093914*
X055766Y093924*
X055756Y093937*
X05575Y093952*
X055747Y093968*
X055748*
X055747Y094493*
X05575Y09452*
X055758Y094546*
X055771Y09457*
X055788Y094591*
X055809Y094608*
X055833Y094621*
X055859Y094629*
X055885Y094631*
X055912Y094629*
G37*
G36*
X057977Y100829D02*
X057992Y100823D01*
X058005Y100813*
X058015Y1008*
X058021Y100785*
X058023Y100768*
X058024Y100243*
X058021Y100216*
X058013Y10019*
X058Y100166*
X057983Y100145*
X057962Y100128*
X057938Y100116*
X057912Y100108*
X057885Y100105*
X057858Y100108*
X057833Y100116*
X057809Y100128*
X057788Y100145*
X057771Y100166*
X057758Y10019*
X05775Y100216*
X057747Y100243*
X057748*
X057747Y100768*
X05775Y100784*
X057756Y1008*
X057766Y100813*
X057779Y100823*
X057794Y100829*
X05781Y100831*
X05796*
X057977Y100829*
G37*
G36*
X053977Y100929D02*
X053992Y100923D01*
X054005Y100913*
X054015Y1009*
X054021Y100884*
X054024Y100868*
X054023*
X054024Y100593*
X054021Y100566*
X054013Y10054*
X054Y100516*
X053983Y100495*
X053962Y100478*
X053938Y100466*
X053912Y100458*
X053885Y100455*
X053859Y100458*
X053833Y100466*
X053809Y100478*
X053788Y100495*
X053771Y100516*
X053758Y10054*
X05375Y100566*
X053747Y100593*
X053748*
X053747Y100868*
X05375Y100884*
X053756Y1009*
X053766Y100913*
X053779Y100923*
X053794Y100929*
X05381Y100931*
X05396*
X053977Y100929*
G37*
G36*
X054477D02*
X054492Y100923D01*
X054505Y100913*
X054515Y1009*
X054521Y100884*
X054524Y100868*
X054523*
X054524Y100593*
X054521Y100566*
X054513Y10054*
X0545Y100516*
X054483Y100495*
X054462Y100478*
X054438Y100466*
X054412Y100458*
X054385Y100455*
X054359Y100458*
X054333Y100466*
X054309Y100478*
X054288Y100495*
X054271Y100516*
X054258Y10054*
X05425Y100566*
X054247Y100593*
X054248*
X054247Y100868*
X05425Y100884*
X054256Y1009*
X054266Y100913*
X054279Y100923*
X054294Y100929*
X05431Y100931*
X05446*
X054477Y100929*
G37*
G36*
X058977Y100829D02*
X058992Y100823D01*
X059005Y100812*
X059015Y100799*
X059021Y100784*
X059023Y100768*
X059024Y100243*
X059021Y100216*
X059013Y10019*
X059Y100166*
X058983Y100145*
X058962Y100128*
X058938Y100115*
X058912Y100107*
X058885Y100105*
X058859Y100107*
X058833Y100115*
X058809Y100128*
X058788Y100145*
X058771Y100166*
X058758Y10019*
X05875Y100216*
X058747Y100243*
X058748*
X058747Y100768*
X05875Y100784*
X058756Y100799*
X058766Y100812*
X058779Y100823*
X058794Y100829*
X05881Y100831*
Y10083*
X05896Y100831*
X058977Y100829*
G37*
G36*
X055977D02*
X055992Y100823D01*
X056005Y100813*
X056015Y1008*
X056021Y100785*
X056023Y100768*
X056024Y100243*
X056021Y100216*
X056013Y10019*
X056Y100166*
X055983Y100145*
X055962Y100128*
X055938Y100116*
X055912Y100108*
X055885Y100105*
X055858Y100108*
X055833Y100116*
X055809Y100128*
X055788Y100145*
X055771Y100166*
X055758Y10019*
X05575Y100216*
X055747Y100243*
X055748*
X055747Y100768*
X05575Y100784*
X055756Y1008*
X055766Y100813*
X055779Y100823*
X055794Y100829*
X05581Y100831*
X05596*
X055977Y100829*
G37*
G36*
X056977D02*
X056992Y100823D01*
X057005Y100813*
X057015Y1008*
X057021Y100785*
X057023Y100768*
X057024Y100243*
X057021Y100216*
X057013Y10019*
X057Y100166*
X056983Y100145*
X056962Y100128*
X056938Y100116*
X056912Y100108*
X056885Y100105*
X056858Y100108*
X056833Y100116*
X056809Y100128*
X056788Y100145*
X056771Y100166*
X056758Y10019*
X05675Y100216*
X056747Y100243*
X056748*
X056747Y100768*
X05675Y100784*
X056756Y1008*
X056766Y100813*
X056779Y100823*
X056794Y100829*
X05681Y100831*
X05696*
X056977Y100829*
G37*
G36*
X058477Y100929D02*
X058492Y100923D01*
X058505Y100913*
X058515Y1009*
X058521Y100884*
X058524Y100868*
X058523*
X058524Y100593*
X058521Y100566*
X058513Y10054*
X0585Y100516*
X058483Y100495*
X058462Y100478*
X058438Y100466*
X058412Y100458*
X058385Y100455*
X058359Y100458*
X058333Y100466*
X058309Y100478*
X058288Y100495*
X058271Y100516*
X058258Y10054*
X05825Y100566*
X058247Y100593*
X058248*
X058247Y100868*
X05825Y100884*
X058256Y1009*
X058266Y100913*
X058279Y100923*
X058294Y100929*
X05831Y100931*
X05846*
X058477Y100929*
G37*
G36*
X059477D02*
X059492Y100923D01*
X059505Y100913*
X059515Y1009*
X059521Y100884*
X059524Y100868*
X059523*
X059524Y100593*
X059521Y100566*
X059513Y10054*
X0595Y100516*
X059483Y100495*
X059462Y100478*
X059438Y100466*
X059412Y100458*
X059385Y100455*
X059359Y100458*
X059333Y100466*
X059309Y100478*
X059288Y100495*
X059271Y100516*
X059258Y10054*
X05925Y100566*
X059247Y100593*
X059248*
X059247Y100868*
X05925Y100884*
X059256Y1009*
X059266Y100913*
X059279Y100923*
X059294Y100929*
X05931Y100931*
X05946*
X059477Y100929*
G37*
G36*
X057477D02*
X057492Y100923D01*
X057505Y100913*
X057515Y1009*
X057521Y100885*
X057523Y100868*
X057524Y100343*
X057521Y100316*
X057513Y10029*
X0575Y100266*
X057483Y100245*
X057462Y100228*
X057438Y100216*
X057412Y100208*
X057385Y100205*
X057358Y100208*
X057333Y100216*
X057309Y100228*
X057288Y100245*
X057271Y100266*
X057258Y10029*
X05725Y100316*
X057247Y100343*
X057248*
X057247Y100868*
X05725Y100884*
X057256Y1009*
X057266Y100913*
X057279Y100923*
X057294Y100929*
X05731Y100931*
X05746*
X057477Y100929*
G37*
G36*
X054977D02*
X054992Y100923D01*
X055005Y100913*
X055015Y1009*
X055021Y100884*
X055024Y100868*
X055023*
X055024Y100593*
X055021Y100566*
X055013Y10054*
X055Y100516*
X054983Y100495*
X054962Y100478*
X054938Y100466*
X054912Y100458*
X054885Y100455*
X054859Y100458*
X054833Y100466*
X054809Y100478*
X054788Y100495*
X054771Y100516*
X054758Y10054*
X05475Y100566*
X054747Y100593*
X054748*
X054747Y100868*
X05475Y100884*
X054756Y1009*
X054766Y100913*
X054779Y100923*
X054794Y100929*
X05481Y100931*
X05496*
X054977Y100929*
G37*
G36*
X055477D02*
X055492Y100923D01*
X055505Y100913*
X055515Y1009*
X055521Y100884*
X055524Y100868*
X055523*
X055524Y100593*
X055521Y100566*
X055513Y10054*
X0555Y100516*
X055483Y100495*
X055462Y100478*
X055438Y100466*
X055412Y100458*
X055385Y100455*
X055359Y100458*
X055333Y100466*
X055309Y100478*
X055288Y100495*
X055271Y100516*
X055258Y10054*
X05525Y100566*
X055247Y100593*
X055248*
X055247Y100868*
X05525Y100884*
X055256Y1009*
X055266Y100913*
X055279Y100923*
X055294Y100929*
X05531Y100931*
X05546*
X055477Y100929*
G37*
G36*
X056477D02*
X056492Y100923D01*
X056505Y100913*
X056515Y1009*
X056521Y100884*
X056524Y100868*
X056523*
X056524Y100593*
X056521Y100566*
X056513Y10054*
X0565Y100516*
X056483Y100495*
X056462Y100478*
X056438Y100466*
X056412Y100458*
X056385Y100455*
X056359Y100458*
X056333Y100466*
X056309Y100478*
X056288Y100495*
X056271Y100516*
X056258Y10054*
X05625Y100566*
X056247Y100593*
X056248*
X056247Y100868*
X05625Y100884*
X056256Y1009*
X056266Y100913*
X056279Y100923*
X056294Y100929*
X05631Y100931*
X05646*
X056477Y100929*
G37*
G36*
X053437Y098254D02*
X053463Y098246D01*
X053487Y098233*
X053508Y098216*
X053525Y098195*
X053538Y098171*
X053546Y098145*
X053549Y098118*
X053546Y098091*
X053538Y098065*
X053525Y098041*
X053508Y098021*
X053487Y098003*
X053463Y097991*
X053437Y097983*
X05341Y09798*
Y097981*
X053136Y09798*
X053135*
X053119Y097982*
X053104Y097989*
X053091Y097999*
X053081Y098012*
X053075Y098027*
X053072Y098043*
X053073*
X053072Y098193*
X053075Y09821*
X053081Y098225*
X053091Y098238*
X053104Y098248*
X053119Y098254*
X053135Y098256*
X05341*
X053437Y098254*
G37*
G36*
X05986Y098756D02*
X060135D01*
X060152Y098754*
X060167Y098748*
X06018Y098738*
X06019Y098725*
X060196Y09871*
X060198Y098693*
Y098543*
X060196Y098527*
X06019Y098512*
X06018Y098499*
X060167Y098489*
X060152Y098482*
X060135Y09848*
Y098481*
X05986Y09848*
X059833Y098483*
X059808Y098491*
X059784Y098503*
X059763Y09852*
X059746Y098541*
X059733Y098565*
X059725Y098591*
X059722Y098618*
X059725Y098645*
X059733Y098671*
X059746Y098695*
X059763Y098716*
X059784Y098733*
X059808Y098746*
X059833Y098754*
X05986Y098756*
G37*
G36*
X053437Y098754D02*
X053463Y098746D01*
X053487Y098733*
X053508Y098716*
X053525Y098695*
X053538Y098671*
X053546Y098645*
X053549Y098618*
X053546Y098591*
X053538Y098565*
X053525Y098541*
X053508Y098521*
X053487Y098503*
X053463Y098491*
X053437Y098483*
X05341Y09848*
Y098481*
X053136Y09848*
X053135*
X053119Y098482*
X053104Y098489*
X053091Y098499*
X053081Y098512*
X053075Y098527*
X053072Y098543*
X053073*
X053072Y098693*
X053075Y09871*
X053081Y098725*
X053091Y098738*
X053104Y098748*
X053119Y098754*
X053135Y098756*
X05341*
X053437Y098754*
G37*
G36*
X05951Y097756D02*
X060035D01*
X060052Y097754*
X060067Y097748*
X06008Y097738*
X06009Y097725*
X060096Y09771*
X060098Y097693*
Y097543*
X060096Y097527*
X06009Y097512*
X06008Y097499*
X060067Y097489*
X060052Y097482*
X060035Y09748*
Y097481*
X05951Y09748*
X059484Y097483*
X059458Y097491*
X059434Y097503*
X059413Y097521*
X059396Y097541*
X059383Y097565*
X059375Y097591*
X059372Y097618*
X059375Y097645*
X059383Y097671*
X059396Y097695*
X059413Y097716*
X059434Y097733*
X059458Y097746*
X059484Y097754*
X05951Y097756*
G37*
G36*
X053437Y097754D02*
X053463Y097746D01*
X053487Y097733*
X053508Y097716*
X053525Y097695*
X053538Y097671*
X053546Y097645*
X053549Y097618*
X053546Y097591*
X053538Y097565*
X053525Y097541*
X053508Y097521*
X053487Y097503*
X053463Y097491*
X053437Y097483*
X05341Y09748*
Y097481*
X053136Y09748*
X053135*
X053119Y097482*
X053104Y097489*
X053091Y097499*
X053081Y097512*
X053075Y097527*
X053072Y097543*
X053073*
X053072Y097693*
X053075Y09771*
X053081Y097725*
X053091Y097738*
X053104Y097748*
X053119Y097754*
X053135Y097756*
X05341*
X053437Y097754*
G37*
G36*
X05986Y098256D02*
X060135D01*
X060152Y098254*
X060167Y098248*
X06018Y098238*
X06019Y098225*
X060196Y09821*
X060198Y098193*
Y098043*
X060196Y098027*
X06019Y098012*
X06018Y097999*
X060167Y097989*
X060152Y097982*
X060135Y09798*
Y097981*
X05986Y09798*
X059833Y097983*
X059808Y097991*
X059784Y098003*
X059763Y09802*
X059746Y098041*
X059733Y098065*
X059725Y098091*
X059722Y098118*
X059725Y098145*
X059733Y098171*
X059746Y098195*
X059763Y098216*
X059784Y098233*
X059808Y098246*
X059833Y098254*
X05986Y098256*
G37*
G36*
X053437Y099754D02*
X053463Y099746D01*
X053487Y099733*
X053508Y099716*
X053525Y099695*
X053538Y099671*
X053546Y099645*
X053549Y099618*
X053546Y099591*
X053538Y099565*
X053525Y099541*
X053508Y099521*
X053487Y099503*
X053463Y099491*
X053437Y099483*
X05341Y09948*
Y099481*
X053136Y09948*
X053135*
X053119Y099482*
X053104Y099489*
X053091Y099499*
X053081Y099512*
X053075Y099527*
X053072Y099543*
X053073*
X053072Y099693*
X053075Y09971*
X053081Y099725*
X053091Y099738*
X053104Y099748*
X053119Y099754*
X053135Y099756*
X05341*
X053437Y099754*
G37*
G36*
X05986Y100256D02*
X060135D01*
X060152Y100254*
X060167Y100248*
X06018Y100238*
X06019Y100225*
X060196Y10021*
X060198Y100193*
Y100043*
X060196Y100027*
X06019Y100012*
X06018Y099999*
X060167Y099989*
X060152Y099982*
X060135Y09998*
Y099981*
X05986Y09998*
X059833Y099983*
X059808Y099991*
X059784Y100003*
X059763Y10002*
X059746Y100041*
X059733Y100065*
X059725Y100091*
X059722Y100118*
X059725Y100145*
X059733Y100171*
X059746Y100195*
X059763Y100216*
X059784Y100233*
X059808Y100246*
X059833Y100254*
X05986Y100256*
G37*
G36*
X053135D02*
D01*
X053485*
X053502Y100254*
X053517Y100248*
X05353Y100238*
X05354Y100225*
X053546Y10021*
X053548Y100193*
Y100043*
X053546Y100027*
X05354Y100012*
X05353Y099999*
X053517Y099989*
X053502Y099982*
X053485Y09998*
Y099981*
X053135Y09998*
X053119Y099982*
X053104Y099989*
X053091Y099999*
X053081Y100012*
X053075Y100027*
X053072Y100043*
X053073*
X053072Y100193*
X053075Y10021*
X053081Y100225*
X053091Y100238*
X053104Y100248*
X053119Y100254*
X053135Y100256*
G37*
G36*
X05986Y099256D02*
X060135D01*
X060152Y099254*
X060167Y099248*
X06018Y099238*
X06019Y099225*
X060196Y09921*
X060198Y099193*
Y099043*
X060196Y099027*
X06019Y099012*
X06018Y098999*
X060167Y098989*
X060152Y098982*
X060135Y09898*
Y098981*
X05986Y09898*
X059833Y098983*
X059808Y098991*
X059784Y099003*
X059763Y09902*
X059746Y099041*
X059733Y099065*
X059725Y099091*
X059722Y099118*
X059725Y099145*
X059733Y099171*
X059746Y099195*
X059763Y099216*
X059784Y099233*
X059808Y099246*
X059833Y099254*
X05986Y099256*
G37*
G36*
X053437Y099254D02*
X053463Y099246D01*
X053487Y099233*
X053508Y099216*
X053525Y099195*
X053538Y099171*
X053546Y099145*
X053549Y099118*
X053546Y099091*
X053538Y099065*
X053525Y099041*
X053508Y099021*
X053487Y099003*
X053463Y098991*
X053437Y098983*
X05341Y09898*
Y098981*
X053136Y09898*
X053135*
X053119Y098982*
X053104Y098989*
X053091Y098999*
X053081Y099012*
X053075Y099027*
X053072Y099043*
X053073*
X053072Y099193*
X053075Y09921*
X053081Y099225*
X053091Y099238*
X053104Y099248*
X053119Y099254*
X053135Y099256*
X05341*
X053437Y099254*
G37*
G36*
X05986Y099756D02*
X060135D01*
X060152Y099754*
X060167Y099748*
X06018Y099738*
X06019Y099725*
X060196Y09971*
X060198Y099693*
Y099543*
X060196Y099527*
X06019Y099512*
X06018Y099499*
X060167Y099489*
X060152Y099482*
X060135Y09948*
Y099481*
X05986Y09948*
X059833Y099483*
X059808Y099491*
X059784Y099503*
X059763Y09952*
X059746Y099541*
X059733Y099565*
X059725Y099591*
X059722Y099618*
X059725Y099645*
X059733Y099671*
X059746Y099695*
X059763Y099716*
X059784Y099733*
X059808Y099746*
X059833Y099754*
X05986Y099756*
G37*
G36*
X053437Y152654D02*
X053463Y152646D01*
X053487Y152633*
X053508Y152616*
X053525Y152595*
X053538Y152571*
X053546Y152545*
X053549Y152518*
X053546Y152491*
X053538Y152465*
X053525Y152441*
X053508Y152421*
X053487Y152403*
X053463Y152391*
X053437Y152383*
X05341Y15238*
Y152381*
X053136Y15238*
X053135*
X053119Y152382*
X053104Y152389*
X053091Y152399*
X053081Y152412*
X053075Y152427*
X053072Y152443*
X053073*
X053072Y152593*
X053075Y15261*
X053081Y152625*
X053091Y152638*
X053104Y152648*
X053119Y152654*
X053135Y152656*
X05341*
X053437Y152654*
G37*
G36*
X05986Y153156D02*
X060135D01*
X060152Y153154*
X060167Y153148*
X06018Y153138*
X06019Y153125*
X060196Y15311*
X060198Y153093*
Y152943*
X060196Y152927*
X06019Y152912*
X06018Y152899*
X060167Y152889*
X060152Y152882*
X060135Y15288*
Y152881*
X05986Y15288*
X059833Y152883*
X059808Y152891*
X059784Y152903*
X059763Y15292*
X059746Y152941*
X059733Y152965*
X059725Y152991*
X059722Y153018*
X059725Y153045*
X059733Y153071*
X059746Y153095*
X059763Y153116*
X059784Y153133*
X059808Y153146*
X059833Y153154*
X05986Y153156*
G37*
G36*
X053437Y153154D02*
X053463Y153146D01*
X053487Y153133*
X053508Y153116*
X053525Y153095*
X053538Y153071*
X053546Y153045*
X053549Y153018*
X053546Y152991*
X053538Y152965*
X053525Y152941*
X053508Y152921*
X053487Y152903*
X053463Y152891*
X053437Y152883*
X05341Y15288*
Y152881*
X053136Y15288*
X053135*
X053119Y152882*
X053104Y152889*
X053091Y152899*
X053081Y152912*
X053075Y152927*
X053072Y152943*
X053073*
X053072Y153093*
X053075Y15311*
X053081Y153125*
X053091Y153138*
X053104Y153148*
X053119Y153154*
X053135Y153156*
X05341*
X053437Y153154*
G37*
G36*
X05986Y152156D02*
X060135D01*
X060152Y152154*
X060167Y152148*
X06018Y152138*
X06019Y152125*
X060196Y15211*
X060198Y152093*
Y151943*
X060196Y151927*
X06019Y151912*
X06018Y151899*
X060167Y151889*
X060152Y151882*
X060135Y15188*
Y151881*
X05986Y15188*
X059833Y151883*
X059808Y151891*
X059784Y151903*
X059763Y15192*
X059746Y151941*
X059733Y151965*
X059725Y151991*
X059722Y152018*
X059725Y152045*
X059733Y152071*
X059746Y152095*
X059763Y152116*
X059784Y152133*
X059808Y152146*
X059833Y152154*
X05986Y152156*
G37*
G36*
X053437Y152154D02*
X053463Y152146D01*
X053487Y152133*
X053508Y152116*
X053525Y152095*
X053538Y152071*
X053546Y152045*
X053549Y152018*
X053546Y151991*
X053538Y151965*
X053525Y151941*
X053508Y151921*
X053487Y151903*
X053463Y151891*
X053437Y151883*
X05341Y15188*
Y151881*
X053136Y15188*
X053135*
X053119Y151882*
X053104Y151889*
X053091Y151899*
X053081Y151912*
X053075Y151927*
X053072Y151943*
X053073*
X053072Y152093*
X053075Y15211*
X053081Y152125*
X053091Y152138*
X053104Y152148*
X053119Y152154*
X053135Y152156*
X05341*
X053437Y152154*
G37*
G36*
X05986Y152656D02*
X060135D01*
X060152Y152654*
X060167Y152648*
X06018Y152638*
X06019Y152625*
X060196Y15261*
X060198Y152593*
Y152443*
X060196Y152427*
X06019Y152412*
X06018Y152399*
X060167Y152389*
X060152Y152382*
X060135Y15238*
Y152381*
X05986Y15238*
X059833Y152383*
X059808Y152391*
X059784Y152403*
X059763Y15242*
X059746Y152441*
X059733Y152465*
X059725Y152491*
X059722Y152518*
X059725Y152545*
X059733Y152571*
X059746Y152595*
X059763Y152616*
X059784Y152633*
X059808Y152646*
X059833Y152654*
X05986Y152656*
G37*
G36*
X053437Y154154D02*
X053463Y154146D01*
X053487Y154133*
X053508Y154116*
X053525Y154095*
X053538Y154071*
X053546Y154045*
X053549Y154018*
X053546Y153991*
X053538Y153965*
X053525Y153941*
X053508Y153921*
X053487Y153903*
X053463Y153891*
X053437Y153883*
X05341Y15388*
Y153881*
X053136Y15388*
X053135*
X053119Y153882*
X053104Y153889*
X053091Y153899*
X053081Y153912*
X053075Y153927*
X053072Y153943*
X053073*
X053072Y154093*
X053075Y15411*
X053081Y154125*
X053091Y154138*
X053104Y154148*
X053119Y154154*
X053135Y154156*
X05341*
X053437Y154154*
G37*
G36*
X05986Y154656D02*
X060135D01*
X060152Y154654*
X060167Y154648*
X06018Y154638*
X06019Y154625*
X060196Y15461*
X060198Y154593*
Y154443*
X060196Y154427*
X06019Y154412*
X06018Y154399*
X060167Y154389*
X060152Y154382*
X060135Y15438*
Y154381*
X05986Y15438*
X059833Y154383*
X059808Y154391*
X059784Y154403*
X059763Y15442*
X059746Y154441*
X059733Y154465*
X059725Y154491*
X059722Y154518*
X059725Y154545*
X059733Y154571*
X059746Y154595*
X059763Y154616*
X059784Y154633*
X059808Y154646*
X059833Y154654*
X05986Y154656*
G37*
G36*
X053437Y154654D02*
X053463Y154646D01*
X053487Y154633*
X053508Y154616*
X053525Y154595*
X053538Y154571*
X053546Y154545*
X053549Y154518*
X053546Y154491*
X053538Y154465*
X053525Y154441*
X053508Y154421*
X053487Y154403*
X053463Y154391*
X053437Y154383*
X05341Y15438*
Y154381*
X053136Y15438*
X053135*
X053119Y154382*
X053104Y154389*
X053091Y154399*
X053081Y154412*
X053075Y154427*
X053072Y154443*
X053073*
X053072Y154593*
X053075Y15461*
X053081Y154625*
X053091Y154638*
X053104Y154648*
X053119Y154654*
X053135Y154656*
X05341*
X053437Y154654*
G37*
G36*
X05986Y153656D02*
X060135D01*
X060152Y153654*
X060167Y153648*
X06018Y153638*
X06019Y153625*
X060196Y15361*
X060198Y153593*
Y153443*
X060196Y153427*
X06019Y153412*
X06018Y153399*
X060167Y153389*
X060152Y153382*
X060135Y15338*
Y153381*
X05986Y15338*
X059833Y153383*
X059808Y153391*
X059784Y153403*
X059763Y15342*
X059746Y153441*
X059733Y153465*
X059725Y153491*
X059722Y153518*
X059725Y153545*
X059733Y153571*
X059746Y153595*
X059763Y153616*
X059784Y153633*
X059808Y153646*
X059833Y153654*
X05986Y153656*
G37*
G36*
X053437Y153654D02*
X053463Y153646D01*
X053487Y153633*
X053508Y153616*
X053525Y153595*
X053538Y153571*
X053546Y153545*
X053549Y153518*
X053546Y153491*
X053538Y153465*
X053525Y153441*
X053508Y153421*
X053487Y153403*
X053463Y153391*
X053437Y153383*
X05341Y15338*
Y153381*
X053136Y15338*
X053135*
X053119Y153382*
X053104Y153389*
X053091Y153399*
X053081Y153412*
X053075Y153427*
X053072Y153443*
X053073*
X053072Y153593*
X053075Y15361*
X053081Y153625*
X053091Y153638*
X053104Y153648*
X053119Y153654*
X053135Y153656*
X05341*
X053437Y153654*
G37*
G36*
X05951Y154156D02*
X060035D01*
X060052Y154154*
X060067Y154148*
X06008Y154138*
X06009Y154125*
X060096Y15411*
X060098Y154093*
Y153943*
X060096Y153927*
X06009Y153912*
X06008Y153899*
X060067Y153889*
X060052Y153882*
X060035Y15388*
Y153881*
X05951Y15388*
X059484Y153883*
X059458Y153891*
X059434Y153903*
X059413Y153921*
X059396Y153941*
X059383Y153965*
X059375Y153991*
X059372Y154018*
X059375Y154045*
X059383Y154071*
X059396Y154095*
X059413Y154116*
X059434Y154133*
X059458Y154146*
X059484Y154154*
X05951Y154156*
G37*
G36*
X054912Y151679D02*
X054938Y151671D01*
X054962Y151658*
X054983Y151641*
X055Y15162*
X055013Y151596*
X055021Y15157*
X055024Y151543*
X055023*
Y151268*
X055021Y151252*
X055015Y151237*
X055005Y151224*
X054992Y151214*
X054977Y151207*
X05496Y151205*
Y151206*
X05481Y151205*
X054794Y151207*
X054779Y151214*
X054766Y151224*
X054756Y151237*
X05475Y151252*
X054747Y151268*
X054748*
X054747Y151543*
X05475Y15157*
X054758Y151596*
X054771Y15162*
X054788Y151641*
X054809Y151658*
X054833Y151671*
X054859Y151679*
X054885Y151681*
X054912Y151679*
G37*
G36*
X055412D02*
X055438Y151671D01*
X055462Y151658*
X055483Y151641*
X0555Y15162*
X055513Y151596*
X055521Y15157*
X055524Y151543*
X055523*
Y151268*
X055521Y151252*
X055515Y151237*
X055505Y151224*
X055492Y151214*
X055477Y151207*
X05546Y151205*
Y151206*
X05531Y151205*
X055294Y151207*
X055279Y151214*
X055266Y151224*
X055256Y151237*
X05525Y151252*
X055247Y151268*
X055248*
X055247Y151543*
X05525Y15157*
X055258Y151596*
X055271Y15162*
X055288Y151641*
X055309Y151658*
X055333Y151671*
X055359Y151679*
X055385Y151681*
X055412Y151679*
G37*
G36*
X056412D02*
X056438Y151671D01*
X056462Y151658*
X056483Y151641*
X0565Y15162*
X056513Y151596*
X056521Y15157*
X056524Y151543*
X056523*
Y151268*
X056521Y151252*
X056515Y151237*
X056505Y151224*
X056492Y151214*
X056477Y151207*
X05646Y151205*
Y151206*
X05631Y151205*
X056294Y151207*
X056279Y151214*
X056266Y151224*
X056256Y151237*
X05625Y151252*
X056247Y151268*
X056248*
X056247Y151543*
X05625Y15157*
X056258Y151596*
X056271Y15162*
X056288Y151641*
X056309Y151658*
X056333Y151671*
X056359Y151679*
X056385Y151681*
X056412Y151679*
G37*
G36*
X057412Y151929D02*
X057438Y151921D01*
X057462Y151908*
X057483Y151891*
X0575Y15187*
X057513Y151846*
X057521Y15182*
X057524Y151793*
X057523*
X057524Y151268*
X057521Y151252*
X057515Y151237*
X057505Y151224*
X057492Y151214*
X057477Y151207*
X05746Y151205*
Y151206*
X057311Y151205*
X05731*
X057294Y151207*
X057279Y151214*
X057266Y151224*
X057256Y151237*
X05725Y151252*
X057247Y151268*
X057248*
X057247Y151793*
X05725Y15182*
X057258Y151846*
X057271Y15187*
X057288Y151891*
X057309Y151908*
X057333Y151921*
X057359Y151929*
X057385Y151931*
X057412Y151929*
G37*
G36*
X053912Y151679D02*
X053938Y151671D01*
X053962Y151658*
X053983Y151641*
X054Y15162*
X054013Y151596*
X054021Y15157*
X054024Y151543*
X054023*
Y151268*
X054021Y151252*
X054015Y151237*
X054005Y151224*
X053992Y151214*
X053977Y151207*
X05396Y151205*
Y151206*
X05381Y151205*
X053794Y151207*
X053779Y151214*
X053766Y151224*
X053756Y151237*
X05375Y151252*
X053747Y151268*
X053748*
X053747Y151543*
X05375Y15157*
X053758Y151596*
X053771Y15162*
X053788Y151641*
X053809Y151658*
X053833Y151671*
X053859Y151679*
X053885Y151681*
X053912Y151679*
G37*
G36*
X054412D02*
X054438Y151671D01*
X054462Y151658*
X054483Y151641*
X0545Y15162*
X054513Y151596*
X054521Y15157*
X054524Y151543*
X054523*
Y151268*
X054521Y151252*
X054515Y151237*
X054505Y151224*
X054492Y151214*
X054477Y151207*
X05446Y151205*
Y151206*
X05431Y151205*
X054294Y151207*
X054279Y151214*
X054266Y151224*
X054256Y151237*
X05425Y151252*
X054247Y151268*
X054248*
X054247Y151543*
X05425Y15157*
X054258Y151596*
X054271Y15162*
X054288Y151641*
X054309Y151658*
X054333Y151671*
X054359Y151679*
X054385Y151681*
X054412Y151679*
G37*
G36*
X056912Y152029D02*
X056938Y152021D01*
X056962Y152008*
X056983Y151991*
X057Y15197*
X057013Y151946*
X057021Y15192*
X057024Y151893*
X057023*
X057024Y151368*
X057021Y151352*
X057015Y151337*
X057005Y151324*
X056992Y151314*
X056977Y151307*
X05696Y151305*
Y151306*
X05681Y151305*
X056794Y151307*
X056779Y151314*
X056766Y151324*
X056756Y151337*
X05675Y151352*
X056747Y151368*
X056748*
X056747Y151893*
X05675Y15192*
X056758Y151946*
X056771Y15197*
X056788Y151991*
X056809Y152008*
X056833Y152021*
X056859Y152029*
X056885Y152031*
X056912Y152029*
G37*
G36*
X057912D02*
X057938Y152021D01*
X057962Y152008*
X057983Y151991*
X058Y15197*
X058013Y151946*
X058021Y15192*
X058024Y151893*
X058023*
X058024Y151368*
X058021Y151352*
X058015Y151337*
X058005Y151324*
X057992Y151314*
X057977Y151307*
X05796Y151305*
Y151306*
X05781Y151305*
X057794Y151307*
X057779Y151314*
X057766Y151324*
X057756Y151337*
X05775Y151352*
X057747Y151368*
X057748*
X057747Y151893*
X05775Y15192*
X057758Y151946*
X057771Y15197*
X057788Y151991*
X057809Y152008*
X057833Y152021*
X057859Y152029*
X057885Y152031*
X057912Y152029*
G37*
G36*
X058912D02*
X058938Y152021D01*
X058962Y152008*
X058983Y151991*
X059Y15197*
X059013Y151946*
X059021Y15192*
X059024Y151893*
X059023*
X059024Y151368*
X059021Y151352*
X059015Y151337*
X059005Y151324*
X058992Y151314*
X058977Y151307*
X05896Y151305*
Y151306*
X058811Y151305*
X05881*
X058794Y151307*
X058779Y151314*
X058766Y151324*
X058756Y151337*
X05875Y151352*
X058747Y151368*
X058748*
X058747Y151893*
X05875Y15192*
X058758Y151946*
X058771Y15197*
X058788Y151991*
X058809Y152008*
X058833Y152021*
X058859Y152029*
X058885Y152031*
X058912Y152029*
G37*
G36*
X058412Y151679D02*
X058438Y151671D01*
X058462Y151658*
X058483Y151641*
X0585Y15162*
X058513Y151596*
X058521Y15157*
X058524Y151543*
X058523*
Y151268*
X058521Y151252*
X058515Y151237*
X058505Y151224*
X058492Y151214*
X058477Y151207*
X05846Y151205*
Y151206*
X05831Y151205*
X058294Y151207*
X058279Y151214*
X058266Y151224*
X058256Y151237*
X05825Y151252*
X058247Y151268*
X058248*
X058247Y151543*
X05825Y15157*
X058258Y151596*
X058271Y15162*
X058288Y151641*
X058309Y151658*
X058333Y151671*
X058359Y151679*
X058385Y151681*
X058412Y151679*
G37*
G36*
X059412D02*
X059438Y151671D01*
X059462Y151658*
X059483Y151641*
X0595Y15162*
X059513Y151596*
X059521Y15157*
X059524Y151543*
X059523*
Y151268*
X059521Y151252*
X059515Y151237*
X059505Y151224*
X059492Y151214*
X059477Y151207*
X05946Y151205*
Y151206*
X05931Y151205*
X059294Y151207*
X059279Y151214*
X059266Y151224*
X059256Y151237*
X05925Y151252*
X059247Y151268*
X059248*
X059247Y151543*
X05925Y15157*
X059258Y151596*
X059271Y15162*
X059288Y151641*
X059309Y151658*
X059333Y151671*
X059359Y151679*
X059385Y151681*
X059412Y151679*
G37*
G36*
X055912Y152029D02*
X055938Y152021D01*
X055962Y152008*
X055983Y151991*
X056Y15197*
X056013Y151946*
X056021Y15192*
X056024Y151893*
X056023*
X056024Y151368*
X056021Y151352*
X056015Y151337*
X056005Y151324*
X055992Y151314*
X055977Y151307*
X05596Y151305*
Y151306*
X05581Y151305*
X055794Y151307*
X055779Y151314*
X055766Y151324*
X055756Y151337*
X05575Y151352*
X055747Y151368*
X055748*
X055747Y151893*
X05575Y15192*
X055758Y151946*
X055771Y15197*
X055788Y151991*
X055809Y152008*
X055833Y152021*
X055859Y152029*
X055885Y152031*
X055912Y152029*
G37*
G36*
X057977Y158229D02*
X057992Y158223D01*
X058005Y158213*
X058015Y1582*
X058021Y158185*
X058023Y158168*
X058024Y157643*
X058021Y157616*
X058013Y15759*
X058Y157566*
X057983Y157545*
X057962Y157528*
X057938Y157516*
X057912Y157508*
X057885Y157505*
X057858Y157508*
X057833Y157516*
X057809Y157528*
X057788Y157545*
X057771Y157566*
X057758Y15759*
X05775Y157616*
X057747Y157643*
X057748*
X057747Y158168*
X05775Y158185*
X057756Y1582*
X057766Y158213*
X057779Y158223*
X057794Y158229*
X05781Y158231*
X05796*
X057977Y158229*
G37*
G36*
X053977Y158329D02*
X053992Y158323D01*
X054005Y158313*
X054015Y1583*
X054021Y158284*
X054024Y158268*
X054023*
X054024Y157993*
X054021Y157966*
X054013Y15794*
X054Y157916*
X053983Y157895*
X053962Y157878*
X053938Y157866*
X053912Y157858*
X053885Y157855*
X053859Y157858*
X053833Y157866*
X053809Y157878*
X053788Y157895*
X053771Y157916*
X053758Y15794*
X05375Y157966*
X053747Y157993*
X053748*
X053747Y158268*
X05375Y158284*
X053756Y1583*
X053766Y158313*
X053779Y158323*
X053794Y158329*
X05381Y158331*
X05396*
X053977Y158329*
G37*
G36*
X054477D02*
X054492Y158323D01*
X054505Y158313*
X054515Y1583*
X054521Y158284*
X054524Y158268*
X054523*
X054524Y157993*
X054521Y157966*
X054513Y15794*
X0545Y157916*
X054483Y157895*
X054462Y157878*
X054438Y157866*
X054412Y157858*
X054385Y157855*
X054359Y157858*
X054333Y157866*
X054309Y157878*
X054288Y157895*
X054271Y157916*
X054258Y15794*
X05425Y157966*
X054247Y157993*
X054248*
X054247Y158268*
X05425Y158284*
X054256Y1583*
X054266Y158313*
X054279Y158323*
X054294Y158329*
X05431Y158331*
X05446*
X054477Y158329*
G37*
G36*
X058977Y158229D02*
X058992Y158223D01*
X059005Y158213*
X059015Y158199*
X059021Y158184*
X059023Y158168*
X059024Y157643*
X059021Y157616*
X059013Y15759*
X059Y157566*
X058983Y157545*
X058962Y157528*
X058938Y157515*
X058912Y157507*
X058885Y157505*
X058859Y157507*
X058833Y157515*
X058809Y157528*
X058788Y157545*
X058771Y157566*
X058758Y15759*
X05875Y157616*
X058747Y157643*
X058748*
X058747Y158168*
X05875Y158184*
X058756Y158199*
X058766Y158212*
X058779Y158223*
X058794Y158229*
X05881Y158231*
Y15823*
X05896Y158231*
X058977Y158229*
G37*
G36*
X055977D02*
X055992Y158223D01*
X056005Y158213*
X056015Y1582*
X056021Y158185*
X056023Y158168*
X056024Y157643*
X056021Y157616*
X056013Y15759*
X056Y157566*
X055983Y157545*
X055962Y157528*
X055938Y157516*
X055912Y157508*
X055885Y157505*
X055858Y157508*
X055833Y157516*
X055809Y157528*
X055788Y157545*
X055771Y157566*
X055758Y15759*
X05575Y157616*
X055747Y157643*
X055748*
X055747Y158168*
X05575Y158185*
X055756Y1582*
X055766Y158213*
X055779Y158223*
X055794Y158229*
X05581Y158231*
X05596*
X055977Y158229*
G37*
G36*
X056977D02*
X056992Y158223D01*
X057005Y158213*
X057015Y1582*
X057021Y158185*
X057023Y158168*
X057024Y157643*
X057021Y157616*
X057013Y15759*
X057Y157566*
X056983Y157545*
X056962Y157528*
X056938Y157516*
X056912Y157508*
X056885Y157505*
X056858Y157508*
X056833Y157516*
X056809Y157528*
X056788Y157545*
X056771Y157566*
X056758Y15759*
X05675Y157616*
X056747Y157643*
X056748*
X056747Y158168*
X05675Y158185*
X056756Y1582*
X056766Y158213*
X056779Y158223*
X056794Y158229*
X05681Y158231*
X05696*
X056977Y158229*
G37*
G36*
X058477Y158329D02*
X058492Y158323D01*
X058505Y158313*
X058515Y1583*
X058521Y158284*
X058524Y158268*
X058523*
X058524Y157993*
X058521Y157966*
X058513Y15794*
X0585Y157916*
X058483Y157895*
X058462Y157878*
X058438Y157866*
X058412Y157858*
X058385Y157855*
X058359Y157858*
X058333Y157866*
X058309Y157878*
X058288Y157895*
X058271Y157916*
X058258Y15794*
X05825Y157966*
X058247Y157993*
X058248*
X058247Y158268*
X05825Y158284*
X058256Y1583*
X058266Y158313*
X058279Y158323*
X058294Y158329*
X05831Y158331*
X05846*
X058477Y158329*
G37*
G36*
X059477D02*
X059492Y158323D01*
X059505Y158313*
X059515Y1583*
X059521Y158284*
X059524Y158268*
X059523*
X059524Y157993*
X059521Y157966*
X059513Y15794*
X0595Y157916*
X059483Y157895*
X059462Y157878*
X059438Y157866*
X059412Y157858*
X059385Y157855*
X059359Y157858*
X059333Y157866*
X059309Y157878*
X059288Y157895*
X059271Y157916*
X059258Y15794*
X05925Y157966*
X059247Y157993*
X059248*
X059247Y158268*
X05925Y158284*
X059256Y1583*
X059266Y158313*
X059279Y158323*
X059294Y158329*
X05931Y158331*
X05946*
X059477Y158329*
G37*
G36*
X057477D02*
X057492Y158323D01*
X057505Y158313*
X057515Y1583*
X057521Y158285*
X057523Y158268*
X057524Y157743*
X057521Y157716*
X057513Y15769*
X0575Y157666*
X057483Y157645*
X057462Y157628*
X057438Y157616*
X057412Y157608*
X057385Y157605*
X057358Y157608*
X057333Y157616*
X057309Y157628*
X057288Y157645*
X057271Y157666*
X057258Y15769*
X05725Y157716*
X057247Y157743*
X057248*
X057247Y158268*
X05725Y158285*
X057256Y1583*
X057266Y158313*
X057279Y158323*
X057294Y158329*
X05731Y158331*
X05746*
X057477Y158329*
G37*
G36*
X054977D02*
X054992Y158323D01*
X055005Y158313*
X055015Y1583*
X055021Y158284*
X055024Y158268*
X055023*
X055024Y157993*
X055021Y157966*
X055013Y15794*
X055Y157916*
X054983Y157895*
X054962Y157878*
X054938Y157866*
X054912Y157858*
X054885Y157855*
X054859Y157858*
X054833Y157866*
X054809Y157878*
X054788Y157895*
X054771Y157916*
X054758Y15794*
X05475Y157966*
X054747Y157993*
X054748*
X054747Y158268*
X05475Y158284*
X054756Y1583*
X054766Y158313*
X054779Y158323*
X054794Y158329*
X05481Y158331*
X05496*
X054977Y158329*
G37*
G36*
X055477D02*
X055492Y158323D01*
X055505Y158313*
X055515Y1583*
X055521Y158284*
X055524Y158268*
X055523*
X055524Y157993*
X055521Y157966*
X055513Y15794*
X0555Y157916*
X055483Y157895*
X055462Y157878*
X055438Y157866*
X055412Y157858*
X055385Y157855*
X055359Y157858*
X055333Y157866*
X055309Y157878*
X055288Y157895*
X055271Y157916*
X055258Y15794*
X05525Y157966*
X055247Y157993*
X055248*
X055247Y158268*
X05525Y158284*
X055256Y1583*
X055266Y158313*
X055279Y158323*
X055294Y158329*
X05531Y158331*
X05546*
X055477Y158329*
G37*
G36*
X056477D02*
X056492Y158323D01*
X056505Y158313*
X056515Y1583*
X056521Y158284*
X056524Y158268*
X056523*
X056524Y157993*
X056521Y157966*
X056513Y15794*
X0565Y157916*
X056483Y157895*
X056462Y157878*
X056438Y157866*
X056412Y157858*
X056385Y157855*
X056359Y157858*
X056333Y157866*
X056309Y157878*
X056288Y157895*
X056271Y157916*
X056258Y15794*
X05625Y157966*
X056247Y157993*
X056248*
X056247Y158268*
X05625Y158284*
X056256Y1583*
X056266Y158313*
X056279Y158323*
X056294Y158329*
X05631Y158331*
X05646*
X056477Y158329*
G37*
G36*
X053437Y155654D02*
X053463Y155646D01*
X053487Y155633*
X053508Y155616*
X053525Y155595*
X053538Y155571*
X053546Y155545*
X053549Y155518*
X053546Y155491*
X053538Y155465*
X053525Y155441*
X053508Y155421*
X053487Y155403*
X053463Y155391*
X053437Y155383*
X05341Y15538*
Y155381*
X053136Y15538*
X053135*
X053119Y155382*
X053104Y155389*
X053091Y155399*
X053081Y155412*
X053075Y155427*
X053072Y155443*
X053073*
X053072Y155593*
X053075Y15561*
X053081Y155625*
X053091Y155638*
X053104Y155648*
X053119Y155654*
X053135Y155656*
X05341*
X053437Y155654*
G37*
G36*
X05986Y156156D02*
X060135D01*
X060152Y156154*
X060167Y156148*
X06018Y156138*
X06019Y156125*
X060196Y15611*
X060198Y156093*
Y155943*
X060196Y155927*
X06019Y155912*
X06018Y155899*
X060167Y155889*
X060152Y155882*
X060135Y15588*
Y155881*
X05986Y15588*
X059833Y155883*
X059808Y155891*
X059784Y155903*
X059763Y15592*
X059746Y155941*
X059733Y155965*
X059725Y155991*
X059722Y156018*
X059725Y156045*
X059733Y156071*
X059746Y156095*
X059763Y156116*
X059784Y156133*
X059808Y156146*
X059833Y156154*
X05986Y156156*
G37*
G36*
X053437Y156154D02*
X053463Y156146D01*
X053487Y156133*
X053508Y156116*
X053525Y156095*
X053538Y156071*
X053546Y156045*
X053549Y156018*
X053546Y155991*
X053538Y155965*
X053525Y155941*
X053508Y155921*
X053487Y155903*
X053463Y155891*
X053437Y155883*
X05341Y15588*
Y155881*
X053136Y15588*
X053135*
X053119Y155882*
X053104Y155889*
X053091Y155899*
X053081Y155912*
X053075Y155927*
X053072Y155943*
X053073*
X053072Y156093*
X053075Y15611*
X053081Y156125*
X053091Y156138*
X053104Y156148*
X053119Y156154*
X053135Y156156*
X05341*
X053437Y156154*
G37*
G36*
X05951Y155156D02*
X060035D01*
X060052Y155154*
X060067Y155148*
X06008Y155138*
X06009Y155125*
X060096Y15511*
X060098Y155093*
Y154943*
X060096Y154927*
X06009Y154912*
X06008Y154899*
X060067Y154889*
X060052Y154882*
X060035Y15488*
Y154881*
X05951Y15488*
X059484Y154883*
X059458Y154891*
X059434Y154903*
X059413Y154921*
X059396Y154941*
X059383Y154965*
X059375Y154991*
X059372Y155018*
X059375Y155045*
X059383Y155071*
X059396Y155095*
X059413Y155116*
X059434Y155133*
X059458Y155146*
X059484Y155154*
X05951Y155156*
G37*
G36*
X053437Y155154D02*
X053463Y155146D01*
X053487Y155133*
X053508Y155116*
X053525Y155095*
X053538Y155071*
X053546Y155045*
X053549Y155018*
X053546Y154991*
X053538Y154965*
X053525Y154941*
X053508Y154921*
X053487Y154903*
X053463Y154891*
X053437Y154883*
X05341Y15488*
Y154881*
X053136Y15488*
X053135*
X053119Y154882*
X053104Y154889*
X053091Y154899*
X053081Y154912*
X053075Y154927*
X053072Y154943*
X053073*
X053072Y155093*
X053075Y15511*
X053081Y155125*
X053091Y155138*
X053104Y155148*
X053119Y155154*
X053135Y155156*
X05341*
X053437Y155154*
G37*
G36*
X05986Y155656D02*
X060135D01*
X060152Y155654*
X060167Y155648*
X06018Y155638*
X06019Y155625*
X060196Y15561*
X060198Y155593*
Y155443*
X060196Y155427*
X06019Y155412*
X06018Y155399*
X060167Y155389*
X060152Y155382*
X060135Y15538*
Y155381*
X05986Y15538*
X059833Y155383*
X059808Y155391*
X059784Y155403*
X059763Y15542*
X059746Y155441*
X059733Y155465*
X059725Y155491*
X059722Y155518*
X059725Y155545*
X059733Y155571*
X059746Y155595*
X059763Y155616*
X059784Y155633*
X059808Y155646*
X059833Y155654*
X05986Y155656*
G37*
G36*
X053437Y157154D02*
X053463Y157146D01*
X053487Y157133*
X053508Y157116*
X053525Y157095*
X053538Y157071*
X053546Y157045*
X053549Y157018*
X053546Y156991*
X053538Y156965*
X053525Y156941*
X053508Y156921*
X053487Y156903*
X053463Y156891*
X053437Y156883*
X05341Y15688*
Y156881*
X053136Y15688*
X053135*
X053119Y156882*
X053104Y156889*
X053091Y156899*
X053081Y156912*
X053075Y156927*
X053072Y156943*
X053073*
X053072Y157093*
X053075Y15711*
X053081Y157125*
X053091Y157138*
X053104Y157148*
X053119Y157154*
X053135Y157156*
X05341*
X053437Y157154*
G37*
G36*
X05986Y157656D02*
X060135D01*
X060152Y157654*
X060167Y157648*
X06018Y157638*
X06019Y157625*
X060196Y15761*
X060198Y157593*
Y157443*
X060196Y157427*
X06019Y157412*
X06018Y157399*
X060167Y157389*
X060152Y157382*
X060135Y15738*
Y157381*
X05986Y15738*
X059833Y157383*
X059808Y157391*
X059784Y157403*
X059763Y15742*
X059746Y157441*
X059733Y157465*
X059725Y157491*
X059722Y157518*
X059725Y157545*
X059733Y157571*
X059746Y157595*
X059763Y157616*
X059784Y157633*
X059808Y157646*
X059833Y157654*
X05986Y157656*
G37*
G36*
X053135D02*
D01*
X053485*
X053502Y157654*
X053517Y157648*
X05353Y157638*
X05354Y157625*
X053546Y15761*
X053548Y157593*
Y157443*
X053546Y157427*
X05354Y157412*
X05353Y157399*
X053517Y157389*
X053502Y157382*
X053485Y15738*
Y157381*
X053135Y15738*
X053119Y157382*
X053104Y157389*
X053091Y157399*
X053081Y157412*
X053075Y157427*
X053072Y157443*
X053073*
X053072Y157593*
X053075Y15761*
X053081Y157625*
X053091Y157638*
X053104Y157648*
X053119Y157654*
X053135Y157656*
G37*
G36*
X05986Y156656D02*
X060135D01*
X060152Y156654*
X060167Y156648*
X06018Y156638*
X06019Y156625*
X060196Y15661*
X060198Y156593*
Y156443*
X060196Y156427*
X06019Y156412*
X06018Y156399*
X060167Y156389*
X060152Y156382*
X060135Y15638*
Y156381*
X05986Y15638*
X059833Y156383*
X059808Y156391*
X059784Y156403*
X059763Y15642*
X059746Y156441*
X059733Y156465*
X059725Y156491*
X059722Y156518*
X059725Y156545*
X059733Y156571*
X059746Y156595*
X059763Y156616*
X059784Y156633*
X059808Y156646*
X059833Y156654*
X05986Y156656*
G37*
G36*
X053437Y156654D02*
X053463Y156646D01*
X053487Y156633*
X053508Y156616*
X053525Y156595*
X053538Y156571*
X053546Y156545*
X053549Y156518*
X053546Y156491*
X053538Y156465*
X053525Y156441*
X053508Y156421*
X053487Y156403*
X053463Y156391*
X053437Y156383*
X05341Y15638*
Y156381*
X053136Y15638*
X053135*
X053119Y156382*
X053104Y156389*
X053091Y156399*
X053081Y156412*
X053075Y156427*
X053072Y156443*
X053073*
X053072Y156593*
X053075Y15661*
X053081Y156625*
X053091Y156638*
X053104Y156648*
X053119Y156654*
X053135Y156656*
X05341*
X053437Y156654*
G37*
G36*
X05986Y157156D02*
X060135D01*
X060152Y157154*
X060167Y157148*
X06018Y157138*
X06019Y157125*
X060196Y15711*
X060198Y157093*
Y156943*
X060196Y156927*
X06019Y156912*
X06018Y156899*
X060167Y156889*
X060152Y156882*
X060135Y15688*
Y156881*
X05986Y15688*
X059833Y156883*
X059808Y156891*
X059784Y156903*
X059763Y15692*
X059746Y156941*
X059733Y156965*
X059725Y156991*
X059722Y157018*
X059725Y157045*
X059733Y157071*
X059746Y157095*
X059763Y157116*
X059784Y157133*
X059808Y157146*
X059833Y157154*
X05986Y157156*
G37*
G54D10*
X02824Y04726D03*
Y046011D03*
X028241Y042184D03*
Y040934D03*
Y037779D03*
Y036529D03*
X02824Y050964D03*
Y049714D03*
Y10466D03*
Y103411D03*
X028241Y099584D03*
Y098334D03*
Y095179D03*
Y093929D03*
X02824Y108364D03*
Y107114D03*
Y16206D03*
Y160811D03*
X028241Y156984D03*
Y155734D03*
Y152579D03*
Y151329D03*
X02824Y165764D03*
Y164514D03*
G54D11*
X056484Y040832D03*
Y098232D03*
Y155632D03*
G54D12*
X05565Y041782D03*
X055697Y038204D03*
X058592Y039009D03*
X05565Y099182D03*
X055697Y095604D03*
X058592Y096409D03*
X05565Y156582D03*
X055697Y153004D03*
X058592Y153809D03*
G54D13*
X058623Y040745D03*
Y098145D03*
Y155545D03*
G54D14*
X054683Y04088D03*
Y09828D03*
Y15568D03*
G54D15*
X054736Y039128D03*
Y096528D03*
Y153928D03*
G54D16*
X057756Y03815D03*
Y09555D03*
Y15295D03*
G54D17*
X054647Y037468D03*
X054629Y042468D03*
X054647Y094868D03*
X054629Y099868D03*
X054647Y152268D03*
X054629Y157268D03*
G54D18*
X055587Y039989D03*
Y097389D03*
Y154789D03*
G54D19*
X057356Y040011D03*
Y097411D03*
Y154811D03*
G54D20*
X056497Y039169D03*
Y096569D03*
Y153969D03*
G54D21*
X057767Y041765D03*
Y099165D03*
Y156565D03*
G54D22*
X060852Y060114D03*
X059252D03*
X038807Y028861D03*
X040407D03*
X046141Y027791D03*
X044541D03*
X049621Y052903D03*
X051221D03*
X057391Y014581D03*
X058991D03*
X085101Y057801D03*
X086701D03*
X100671Y063382D03*
X099071D03*
X067008Y065142D03*
X068608D03*
X077338Y065296D03*
X078938D03*
X059252Y064592D03*
X060852D03*
X06229Y064158D03*
X06389D03*
X071537Y06113D03*
X069937D03*
Y062621D03*
X071537D03*
X085063Y022147D03*
X086663D03*
X099006Y016555D03*
X100606D03*
X058407Y019622D03*
X060007D03*
X076825Y015535D03*
X078425D03*
X064475Y015799D03*
X066075D03*
X072633Y020285D03*
X074233D03*
X06242Y015241D03*
X06082D03*
X06081Y016745D03*
X06241D03*
X071722Y015653D03*
X070122D03*
X071927Y017205D03*
X070327D03*
X068608Y062688D03*
X067008D03*
X067374Y018188D03*
X068974D03*
X060852Y117514D03*
X059252D03*
X038807Y086261D03*
X040407D03*
X046141Y085191D03*
X044541D03*
X049621Y110303D03*
X051221D03*
X057391Y071981D03*
X058991D03*
X085101Y115201D03*
X086701D03*
X100671Y120782D03*
X099071D03*
X067008Y122542D03*
X068608D03*
X077338Y122696D03*
X078938D03*
X059252Y121992D03*
X060852D03*
X06229Y121558D03*
X06389D03*
X071537Y11853D03*
X069937D03*
Y120021D03*
X071537D03*
X085063Y079547D03*
X086663D03*
X099006Y073955D03*
X100606D03*
X058407Y077022D03*
X060007D03*
X076825Y072935D03*
X078425D03*
X064475Y073199D03*
X066075D03*
X072633Y077685D03*
X074233D03*
X06242Y072641D03*
X06082D03*
X06081Y074145D03*
X06241D03*
X071722Y073053D03*
X070122D03*
X071927Y074605D03*
X070327D03*
X068608Y120088D03*
X067008D03*
X067374Y075588D03*
X068974D03*
X060852Y174914D03*
X059252D03*
X038807Y143661D03*
X040407D03*
X046141Y142591D03*
X044541D03*
X049621Y167703D03*
X051221D03*
X057391Y129381D03*
X058991D03*
X085101Y172601D03*
X086701D03*
X100671Y178182D03*
X099071D03*
X067008Y179942D03*
X068608D03*
X077338Y180096D03*
X078938D03*
X059252Y179392D03*
X060852D03*
X06229Y178958D03*
X06389D03*
X071537Y17593D03*
X069937D03*
Y177421D03*
X071537D03*
X085063Y136947D03*
X086663D03*
X099006Y131355D03*
X100606D03*
X058407Y134422D03*
X060007D03*
X076825Y130335D03*
X078425D03*
X064475Y130599D03*
X066075D03*
X072633Y135085D03*
X074233D03*
X06242Y130041D03*
X06082D03*
X06081Y131545D03*
X06241D03*
X071722Y130453D03*
X070122D03*
X071927Y132005D03*
X070327D03*
X068608Y177488D03*
X067008D03*
X067374Y132988D03*
X068974D03*
G54D23*
X02864Y024719D03*
Y027619D03*
X038521Y015648D03*
Y018548D03*
X03798Y037943D03*
Y040843D03*
X02864Y082119D03*
Y085019D03*
X038521Y073048D03*
Y075948D03*
X03798Y095343D03*
Y098243D03*
X02864Y139519D03*
Y142419D03*
X038521Y130448D03*
Y133348D03*
X03798Y152743D03*
Y155643D03*
G54D24*
X034675Y044844D03*
Y047744D03*
X035283Y020125D03*
Y017125D03*
X034675Y102244D03*
Y105144D03*
X035283Y077525D03*
Y074525D03*
X034675Y159644D03*
Y162544D03*
X035283Y134925D03*
Y131925D03*
G54D25*
X078874Y019342D03*
Y017742D03*
X052232Y017209D03*
Y018809D03*
X054137Y060171D03*
Y061771D03*
X041553Y017308D03*
Y018908D03*
X042886Y018885D03*
Y017285D03*
X043035Y045673D03*
Y047273D03*
X045006Y039388D03*
Y040988D03*
X041995Y041163D03*
Y039563D03*
X054137Y062991D03*
Y064591D03*
X04351Y063173D03*
Y064773D03*
X041144Y064819D03*
Y063219D03*
X097699Y057574D03*
Y055974D03*
X091805Y057475D03*
Y055875D03*
X076595Y063777D03*
Y062177D03*
X065773Y061536D03*
Y059936D03*
X060841Y063132D03*
Y061532D03*
X101854Y041411D03*
Y039811D03*
X105734Y041411D03*
Y039811D03*
X081223Y038077D03*
Y039677D03*
X077338Y038077D03*
Y039677D03*
X097712Y022321D03*
Y023921D03*
X091794Y02408D03*
Y02248D03*
X076831Y018952D03*
Y017352D03*
X030325Y041617D03*
Y040017D03*
X030386Y046686D03*
Y045086D03*
X030336Y037104D03*
Y038704D03*
X026128Y041525D03*
Y043125D03*
Y046589D03*
Y048189D03*
Y037116D03*
Y038716D03*
X078874Y076742D03*
Y075142D03*
X052232Y074609D03*
Y076209D03*
X054137Y117571D03*
Y119171D03*
X041553Y074708D03*
Y076308D03*
X042886Y076285D03*
Y074685D03*
X043035Y103073D03*
Y104673D03*
X045006Y096788D03*
Y098388D03*
X041995Y098563D03*
Y096963D03*
X054137Y120391D03*
Y121991D03*
X04351Y120573D03*
Y122173D03*
X041144Y122219D03*
Y120619D03*
X097699Y114974D03*
Y113374D03*
X091805Y114875D03*
Y113275D03*
X076595Y121177D03*
Y119577D03*
X065773Y118936D03*
Y117336D03*
X060841Y120532D03*
Y118932D03*
X101854Y098811D03*
Y097211D03*
X105734Y098811D03*
Y097211D03*
X081223Y095477D03*
Y097077D03*
X077338Y095477D03*
Y097077D03*
X097712Y079721D03*
Y081321D03*
X091794Y08148D03*
Y07988D03*
X076831Y076352D03*
Y074752D03*
X030325Y099017D03*
Y097417D03*
X030386Y104086D03*
Y102486D03*
X030336Y094504D03*
Y096104D03*
X026128Y098925D03*
Y100525D03*
Y103989D03*
Y105589D03*
Y094516D03*
Y096116D03*
X078874Y134142D03*
Y132542D03*
X052232Y132009D03*
Y133609D03*
X054137Y174971D03*
Y176571D03*
X041553Y132108D03*
Y133708D03*
X042886Y133685D03*
Y132085D03*
X043035Y160473D03*
Y162073D03*
X045006Y154188D03*
Y155788D03*
X041995Y155963D03*
Y154363D03*
X054137Y177791D03*
Y179391D03*
X04351Y177973D03*
Y179573D03*
X041144Y179619D03*
Y178019D03*
X097699Y172374D03*
Y170774D03*
X091805Y172275D03*
Y170675D03*
X076595Y178577D03*
Y176977D03*
X065773Y176336D03*
Y174736D03*
X060841Y177932D03*
Y176332D03*
X101854Y156211D03*
Y154611D03*
X105734Y156211D03*
Y154611D03*
X081223Y152877D03*
Y154477D03*
X077338Y152877D03*
Y154477D03*
X097712Y137121D03*
Y138721D03*
X091794Y13888D03*
Y13728D03*
X076831Y133752D03*
Y132152D03*
X030325Y156417D03*
Y154817D03*
X030386Y161486D03*
Y159886D03*
X030336Y151904D03*
Y153504D03*
X026128Y156325D03*
Y157925D03*
Y161389D03*
Y162989D03*
Y151916D03*
Y153516D03*
G54D26*
X039147Y053694D03*
X042047D03*
X039147Y111094D03*
X042047D03*
X039147Y168494D03*
X042047D03*
G54D27*
X050085Y04697D03*
X048485D03*
X033742Y050594D03*
X035342D03*
X042886Y015822D03*
X041286D03*
X046553Y053389D03*
X044953D03*
X046648Y063255D03*
X045048D03*
X085101Y059166D03*
X086701D03*
X097699Y058891D03*
X099299D03*
X100668Y064793D03*
X099068D03*
X090205Y058777D03*
X091805D03*
X071537Y064149D03*
X069937D03*
X062666Y044414D03*
X061066D03*
X062666Y043074D03*
X061066D03*
X062612Y035677D03*
X061012D03*
X062612Y036996D03*
X061012D03*
X09771Y02102D03*
X09931D03*
X099096Y015222D03*
X100696D03*
X091792Y021147D03*
X090192D03*
X085063Y020717D03*
X086663D03*
X062449Y018276D03*
X060849D03*
X070362Y018628D03*
X071962D03*
X050085Y10437D03*
X048485D03*
X033742Y107994D03*
X035342D03*
X042886Y073222D03*
X041286D03*
X046553Y110789D03*
X044953D03*
X046648Y120655D03*
X045048D03*
X085101Y116565D03*
X086701D03*
X097699Y116291D03*
X099299D03*
X100668Y122193D03*
X099068D03*
X090205Y116177D03*
X091805D03*
X071537Y121549D03*
X069937D03*
X062666Y101814D03*
X061066D03*
X062666Y100474D03*
X061066D03*
X062612Y093077D03*
X061012D03*
X062612Y094396D03*
X061012D03*
X09771Y07842D03*
X09931D03*
X099096Y072622D03*
X100696D03*
X091792Y078547D03*
X090192D03*
X085063Y078117D03*
X086663D03*
X062449Y075676D03*
X060849D03*
X070362Y076028D03*
X071962D03*
X050085Y16177D03*
X048485D03*
X033742Y165394D03*
X035342D03*
X042886Y130622D03*
X041286D03*
X046553Y168189D03*
X044953D03*
X046648Y178055D03*
X045048D03*
X085101Y173965D03*
X086701D03*
X097699Y173691D03*
X099299D03*
X100668Y179593D03*
X099068D03*
X090205Y173577D03*
X091805D03*
X071537Y178949D03*
X069937D03*
X062666Y159214D03*
X061066D03*
X062666Y157874D03*
X061066D03*
X062612Y150477D03*
X061012D03*
X062612Y151796D03*
X061012D03*
X09771Y13582D03*
X09931D03*
X099096Y130022D03*
X100696D03*
X091792Y135947D03*
X090192D03*
X085063Y135517D03*
X086663D03*
X062449Y133076D03*
X060849D03*
X070362Y133428D03*
X071962D03*
G54D28*
X043518Y040988D03*
Y039388D03*
X040642Y041163D03*
Y039563D03*
X097699Y060267D03*
Y061867D03*
X053834Y056523D03*
Y054923D03*
X097852Y064982D03*
Y063382D03*
X090483Y05746D03*
Y05586D03*
X083893Y057801D03*
Y059401D03*
X055167Y05652D03*
Y05492D03*
X059302Y061532D03*
Y063132D03*
X052232Y035757D03*
Y037357D03*
X083778Y022185D03*
Y020585D03*
X050901Y038965D03*
Y037365D03*
X055158Y023474D03*
Y025074D03*
X097697Y019714D03*
Y018114D03*
X053833Y023474D03*
Y025074D03*
X09766Y016544D03*
Y014944D03*
X090371Y024029D03*
Y022429D03*
X03171Y041617D03*
Y040017D03*
X031704Y046686D03*
Y045086D03*
X031733Y037104D03*
Y038704D03*
X043518Y098388D03*
Y096788D03*
X040642Y098563D03*
Y096963D03*
X097699Y117667D03*
Y119267D03*
X053834Y113923D03*
Y112323D03*
X097852Y122382D03*
Y120782D03*
X090483Y11486D03*
Y11326D03*
X083893Y115201D03*
Y116801D03*
X055167Y11392D03*
Y11232D03*
X059302Y118932D03*
Y120532D03*
X052232Y093157D03*
Y094757D03*
X083778Y079585D03*
Y077985D03*
X050901Y096365D03*
Y094765D03*
X055158Y080874D03*
Y082474D03*
X097697Y077114D03*
Y075514D03*
X053833Y080874D03*
Y082474D03*
X09766Y073944D03*
Y072344D03*
X090371Y081429D03*
Y079829D03*
X03171Y099017D03*
Y097417D03*
X031704Y104086D03*
Y102486D03*
X031733Y094504D03*
Y096104D03*
X043518Y155788D03*
Y154188D03*
X040642Y155963D03*
Y154363D03*
X097699Y175067D03*
Y176667D03*
X053834Y171323D03*
Y169723D03*
X097852Y179782D03*
Y178182D03*
X090483Y17226D03*
Y17066D03*
X083893Y172601D03*
Y174201D03*
X055167Y17132D03*
Y16972D03*
X059302Y176332D03*
Y177932D03*
X052232Y150557D03*
Y152157D03*
X083778Y136985D03*
Y135385D03*
X050901Y153765D03*
Y152165D03*
X055158Y138274D03*
Y139874D03*
X097697Y134514D03*
Y132914D03*
X053833Y138274D03*
Y139874D03*
X09766Y131344D03*
Y129744D03*
X090371Y138829D03*
Y137229D03*
X03171Y156417D03*
Y154817D03*
X031704Y161486D03*
Y159886D03*
X031733Y151904D03*
Y153504D03*
G54D29*
X027855Y032745D03*
X030755D03*
X027855Y090145D03*
X030755D03*
X027855Y147545D03*
X030755D03*
G54D30*
X093787Y051315D03*
X094855Y051326D03*
X082763Y05132D03*
X083743D03*
X093773Y028622D03*
X094871D03*
X0827Y028618D03*
X083806Y028624D03*
X057934Y049676D03*
X056838Y049672D03*
X057936Y030266D03*
X056834Y030255D03*
X093787Y108715D03*
X094855Y108726D03*
X082763Y10872D03*
X083743D03*
X093773Y086022D03*
X094871D03*
X0827Y086018D03*
X083806Y086024D03*
X057934Y107076D03*
X056838Y107072D03*
X057936Y087666D03*
X056834Y087655D03*
X093787Y166115D03*
X094855Y166126D03*
X082763Y16612D03*
X083743D03*
X093773Y143422D03*
X094871D03*
X0827Y143418D03*
X083806Y143424D03*
X057934Y164476D03*
X056838Y164472D03*
X057936Y145066D03*
X056834Y145055D03*
G54D31*
X056293Y047472D03*
X056291Y046371D03*
X058485Y047471D03*
Y046374D03*
X058487Y03357D03*
X058492Y032468D03*
X056288Y033568D03*
X056284Y032468D03*
X056293Y104872D03*
X056291Y103771D03*
X058485Y104871D03*
Y103774D03*
X058487Y09097D03*
X058492Y089868D03*
X056288Y090968D03*
X056284Y089868D03*
X056293Y162272D03*
X056291Y161171D03*
X058485Y162271D03*
Y161174D03*
X058487Y14837D03*
X058492Y147268D03*
X056288Y148368D03*
X056284Y147268D03*
G54D32*
X041164Y020964D03*
X039894D03*
X038624D03*
X042434D03*
X037354D03*
X041164Y078364D03*
X039894D03*
X038624D03*
X042434D03*
X037354D03*
X041164Y135764D03*
X039894D03*
X038624D03*
X042434D03*
X037354D03*
G54D33*
X039894Y026764D03*
X043516Y031787D03*
X039894Y084164D03*
X043516Y089187D03*
X039894Y141564D03*
X043516Y146587D03*
G54D34*
X045816Y037587D03*
X043516D03*
X041216D03*
X045816Y094987D03*
X043516D03*
X041216D03*
X045816Y152387D03*
X043516D03*
X041216D03*
G54D35*
X050293Y051224D03*
X049343D03*
X048393D03*
Y048624D03*
X050293D03*
Y108624D03*
X049343D03*
X048393D03*
Y106024D03*
X050293D03*
Y166024D03*
X049343D03*
X048393D03*
Y163424D03*
X050293D03*
G54D36*
X036551Y044849D03*
X037201D03*
X037851D03*
X038501D03*
X039151D03*
X039801D03*
X040451D03*
Y050649D03*
X039801D03*
X039151D03*
X038501D03*
X037851D03*
X037201D03*
X036551D03*
X04446Y045523D03*
X04511D03*
X04576D03*
X04641D03*
Y051323D03*
X04576D03*
X04511D03*
X04446D03*
X041048Y061507D03*
X041698D03*
X042348D03*
X042998D03*
X043648D03*
X044298D03*
X044948D03*
X045598D03*
Y055707D03*
X044948D03*
X044298D03*
X043648D03*
X042998D03*
X042348D03*
X041698D03*
X041048D03*
X036551Y102249D03*
X037201D03*
X037851D03*
X038501D03*
X039151D03*
X039801D03*
X040451D03*
Y108049D03*
X039801D03*
X039151D03*
X038501D03*
X037851D03*
X037201D03*
X036551D03*
X04446Y102923D03*
X04511D03*
X04576D03*
X04641D03*
Y108723D03*
X04576D03*
X04511D03*
X04446D03*
X041048Y118907D03*
X041698D03*
X042348D03*
X042998D03*
X043648D03*
X044298D03*
X044948D03*
X045598D03*
Y113107D03*
X044948D03*
X044298D03*
X043648D03*
X042998D03*
X042348D03*
X041698D03*
X041048D03*
X036551Y159649D03*
X037201D03*
X037851D03*
X038501D03*
X039151D03*
X039801D03*
X040451D03*
Y165449D03*
X039801D03*
X039151D03*
X038501D03*
X037851D03*
X037201D03*
X036551D03*
X04446Y160323D03*
X04511D03*
X04576D03*
X04641D03*
Y166123D03*
X04576D03*
X04511D03*
X04446D03*
X041048Y176307D03*
X041698D03*
X042348D03*
X042998D03*
X043648D03*
X044298D03*
X044948D03*
X045598D03*
Y170507D03*
X044948D03*
X044298D03*
X043648D03*
X042998D03*
X042348D03*
X041698D03*
X041048D03*
G54D37*
X02724Y046635D03*
X02924D03*
X02724Y04156D03*
X02924D03*
X02724Y037155D03*
X02924D03*
X02724Y050337D03*
X02924D03*
X02724Y104035D03*
X02924D03*
X02724Y09896D03*
X02924D03*
X02724Y094555D03*
X02924D03*
X02724Y107737D03*
X02924D03*
X02724Y161435D03*
X02924D03*
X02724Y15636D03*
X02924D03*
X02724Y151955D03*
X02924D03*
X02724Y165137D03*
X02924D03*
G54D38*
X033984Y021766D03*
Y027866D03*
Y079166D03*
Y085266D03*
Y136566D03*
Y142666D03*
G54D39*
X044629Y025273D03*
X046929Y026223D03*
Y024323D03*
X0469Y021726D03*
X0446Y020776D03*
Y022676D03*
X057937Y063948D03*
X055637Y062998D03*
Y064898D03*
X059514Y017079D03*
X057214Y016129D03*
Y018029D03*
X05587Y018026D03*
X05357Y017076D03*
Y018976D03*
X044629Y082673D03*
X046929Y083623D03*
Y081723D03*
X0469Y079126D03*
X0446Y078176D03*
Y080076D03*
X057937Y121348D03*
X055637Y120398D03*
Y122298D03*
X059514Y074479D03*
X057214Y073529D03*
Y075429D03*
X05587Y075426D03*
X05357Y074476D03*
Y076376D03*
X044629Y140073D03*
X046929Y141023D03*
Y139123D03*
X0469Y136526D03*
X0446Y135576D03*
Y137476D03*
X057937Y178748D03*
X055637Y177798D03*
Y179698D03*
X059514Y131879D03*
X057214Y130929D03*
Y132829D03*
X05587Y132826D03*
X05357Y131876D03*
Y133776D03*
G54D40*
X056979Y061883D03*
X057929Y059583D03*
X056029D03*
X074052Y064592D03*
X075002Y062292D03*
X073102D03*
X063336Y062367D03*
X064286Y060067D03*
X062386D03*
X065002Y01949D03*
X065952Y01719D03*
X064052D03*
X074401Y0187D03*
X075351Y0164D03*
X073451D03*
X056979Y119283D03*
X057929Y116983D03*
X056029D03*
X074052Y121992D03*
X075002Y119692D03*
X073102D03*
X063336Y119767D03*
X064286Y117467D03*
X062386D03*
X065002Y07689D03*
X065952Y07459D03*
X064052D03*
X074401Y0761D03*
X075351Y0738D03*
X073451D03*
X056979Y176683D03*
X057929Y174383D03*
X056029D03*
X074052Y179392D03*
X075002Y177092D03*
X073102D03*
X063336Y177167D03*
X064286Y174867D03*
X062386D03*
X065002Y13429D03*
X065952Y13199D03*
X064052D03*
X074401Y1335D03*
X075351Y1312D03*
X073451D03*
G54D41*
X096708Y051335D03*
X099958D03*
X089205Y051325D03*
X092455D03*
X096706Y028614D03*
X099956D03*
X089203Y028618D03*
X092453D03*
X096708Y108735D03*
X099958D03*
X089205Y108725D03*
X092455D03*
X096706Y086014D03*
X099956D03*
X089203Y086018D03*
X092453D03*
X096708Y166135D03*
X099958D03*
X089205Y166125D03*
X092455D03*
X096706Y143414D03*
X099956D03*
X089203Y143418D03*
X092453D03*
G54D42*
X098333Y04971D03*
Y05296D03*
X09083Y0497D03*
Y05295D03*
X098331Y026989D03*
Y030239D03*
X090828Y026993D03*
Y030243D03*
X098333Y10711D03*
Y11036D03*
X09083Y1071D03*
Y11035D03*
X098331Y084389D03*
Y087639D03*
X090828Y084393D03*
Y087643D03*
X098333Y16451D03*
Y16776D03*
X09083Y1645D03*
Y16775D03*
X098331Y141789D03*
Y145039D03*
X090828Y141793D03*
Y145043D03*
M02*