*
%LPD*%
%FSLAX24Y24*%
%MOIN*%
%AD*%
%ADD148C,0.009843*%
%ADD249R,0.01969X0.02362*%
%ADD250R,0.02362X0.03543*%
%ADD251R,0.03543X0.02362*%
%ADD252R,0.02362X0.01969*%
%ADD256R,0.088583X0.088583*%
%ADD261C,0.024*%
%ADD281R,0.059055X0.031496*%
%ADD282R,0.02559X0.03347*%
%AMD24Horz-R90*
4,1,4,0.030069,0.002502,0.002502,0.030069,-0.030069,-0.002502,-0.002502,-0.030069,0.030069,0.002502,90*
%
%ADD283D24Horz-R90*%
%ADD284R,0.055118X0.009843*%
%ADD285R,0.01181X0.09449*%
%ADD286O,0.0374X0.01378*%
%ADD287R,0.02362X0.01181*%
%ADD288R,0.066929X0.043307*%
G54D252*
%SRX1Y1I0.0J0.0*%
G1X10379Y1470D3*
G1X10379Y1844D3*
G1X4779Y1920D3*
G1X4779Y2294D3*
G1X7279Y3844D3*
G1X7279Y3470D3*
G1X11279Y9044D3*
G1X11279Y8670D3*
G1X10879Y8670D3*
G1X10879Y9044D3*
G1X9879Y1470D3*
G1X9879Y1844D3*
G1X4779Y2920D3*
G1X4779Y3294D3*
G1X5179Y3294D3*
G1X5179Y2920D3*
G1X4379Y2920D3*
G1X4379Y3294D3*
G1X3179Y3294D3*
G1X3179Y2920D3*
G1X2779Y2920D3*
G1X2779Y3294D3*
G1X7679Y2920D3*
G1X7679Y3294D3*
G1X4379Y1920D3*
G1X4379Y2294D3*
G1X3979Y2294D3*
G1X3979Y1920D3*
G1X2779Y1120D3*
G1X2779Y1494D3*
G1X2779Y2020D3*
G1X2779Y2394D3*
G1X11279Y10044D3*
G1X11279Y9670D3*
G1X10879Y10044D3*
G1X10879Y9670D3*
G1X7240Y9137D3*
G1X7240Y8763D3*
G1X7640Y8763D3*
G1X7640Y9137D3*
G54D251*
G1X3479Y1503D3*
G1X3479Y2503D3*
G1X9629Y9653D3*
G1X3479Y912D3*
G1X3479Y1912D3*
G1X9629Y9062D3*
G54D250*
G1X6334Y4407D3*
G1X4784Y1107D3*
G1X6924Y4407D3*
G1X5374Y1107D3*
G54D249*
G1X6716Y3907D3*
G1X6342Y3907D3*
G1X6716Y5307D3*
G1X6342Y5307D3*
G1X1216Y9457D3*
G1X842Y9457D3*
G1X4966Y3907D3*
G1X4592Y3907D3*
G1X3866Y10657D3*
G1X3492Y10657D3*
G1X3866Y11057D3*
G1X3492Y11057D3*
G1X3992Y1107D3*
G1X4366Y1107D3*
G1X5192Y1907D3*
G1X5566Y1907D3*
G1X3442Y9607D3*
G1X3816Y9607D3*
G1X6342Y4907D3*
G1X6716Y4907D3*
G1X7542Y4757D3*
G1X7916Y4757D3*
G1X1166Y3507D3*
G1X792Y3507D3*
G1X1692Y3507D3*
G1X2066Y3507D3*
G1X10466Y9057D3*
G1X10092Y9057D3*
G1X4192Y9207D3*
G1X4566Y9207D3*
G1X3592Y3307D3*
G1X3966Y3307D3*
G1X3592Y2907D3*
G1X3966Y2907D3*
G1X5392Y3907D3*
G1X5766Y3907D3*
G1X6716Y7507D3*
G1X6342Y7507D3*
G1X5966Y2307D3*
G1X5592Y2307D3*
G1X5592Y2707D3*
G1X5966Y2707D3*
G1X5942Y1907D3*
G1X6316Y1907D3*
G1X1216Y9057D3*
G1X842Y9057D3*
G1X4566Y9607D3*
G1X4192Y9607D3*
G1X3816Y9207D3*
G1X3442Y9207D3*
G1X7916Y6457D3*
G1X7542Y6457D3*
G1X6342Y7907D3*
G1X6716Y7907D3*
G1X10466Y9657D3*
G1X10092Y9657D3*
G54D148*
G1X1811Y7445D3*
G1X1811Y5279D3*
G1X1811Y6264D3*
G1X1811Y5082D3*
G1X1811Y4886D3*
G1X1811Y6854D3*
G1X1811Y4689D3*
G1X1811Y8626D3*
G1X2007Y8626D3*
G1X2204Y8626D3*
G1X2795Y8626D3*
G1X2598Y8626D3*
G1X3188Y8626D3*
G1X3385Y8626D3*
G1X3582Y8626D3*
G1X3779Y8626D3*
G1X4173Y8626D3*
G1X4370Y8626D3*
G1X4566Y8626D3*
G1X4763Y8626D3*
G1X4960Y8626D3*
G1X5157Y8626D3*
G1X5354Y8626D3*
G1X5551Y8626D3*
G1X5747Y8626D3*
G1X1811Y8429D3*
G1X2007Y8429D3*
G1X2204Y8429D3*
G1X2401Y8429D3*
G1X2598Y8429D3*
G1X2795Y8429D3*
G1X2992Y8429D3*
G1X3188Y8429D3*
G1X3385Y8429D3*
G1X3582Y8429D3*
G1X3779Y8429D3*
G1X3976Y8429D3*
G1X4370Y8429D3*
G1X4763Y8429D3*
G1X4960Y8429D3*
G1X5157Y8429D3*
G1X5354Y8429D3*
G1X5551Y8429D3*
G1X5747Y8429D3*
G1X1811Y8232D3*
G1X2007Y8232D3*
G1X5551Y8232D3*
G1X5747Y8232D3*
G1X1811Y8035D3*
G1X2007Y8035D3*
G1X2401Y8035D3*
G1X2795Y8035D3*
G1X2992Y8035D3*
G1X3188Y8035D3*
G1X3385Y8035D3*
G1X3582Y8035D3*
G1X3779Y8035D3*
G1X3976Y8035D3*
G1X4173Y8035D3*
G1X4370Y8035D3*
G1X4566Y8035D3*
G1X4763Y8035D3*
G1X4960Y8035D3*
G1X5157Y8035D3*
G1X5551Y8035D3*
G1X5747Y8035D3*
G1X1811Y7838D3*
G1X2007Y7838D3*
G1X2401Y7838D3*
G1X2598Y7838D3*
G1X2795Y7838D3*
G1X2992Y7838D3*
G1X3188Y7838D3*
G1X3385Y7838D3*
G1X3582Y7838D3*
G1X3779Y7838D3*
G1X3976Y7838D3*
G1X4370Y7838D3*
G1X4566Y7838D3*
G1X4763Y7838D3*
G1X4960Y7838D3*
G1X5157Y7838D3*
G1X5551Y7838D3*
G1X5747Y7838D3*
G1X1811Y7641D3*
G1X2007Y7641D3*
G1X2401Y7641D3*
G1X2598Y7641D3*
G1X4960Y7641D3*
G1X5157Y7641D3*
G1X5551Y7641D3*
G1X5747Y7641D3*
G1X2007Y7445D3*
G1X2401Y7445D3*
G1X2598Y7445D3*
G1X4960Y7445D3*
G1X5157Y7445D3*
G1X5551Y7445D3*
G1X5747Y7445D3*
G1X2007Y7248D3*
G1X2401Y7248D3*
G1X2598Y7248D3*
G1X4960Y7248D3*
G1X5157Y7248D3*
G1X5551Y7248D3*
G1X5747Y7248D3*
G1X2401Y7051D3*
G1X2598Y7051D3*
G1X4960Y7051D3*
G1X5157Y7051D3*
G1X5551Y7051D3*
G1X5747Y7051D3*
G1X2007Y6854D3*
G1X2401Y6854D3*
G1X2598Y6854D3*
G1X4960Y6854D3*
G1X5157Y6854D3*
G1X5551Y6854D3*
G1X5747Y6854D3*
G1X1811Y6657D3*
G1X2007Y6657D3*
G1X2401Y6657D3*
G1X2598Y6657D3*
G1X4960Y6657D3*
G1X5157Y6657D3*
G1X5551Y6657D3*
G1X5747Y6657D3*
G1X1811Y6460D3*
G1X2007Y6460D3*
G1X2401Y6460D3*
G1X2598Y6460D3*
G1X4960Y6460D3*
G1X5157Y6460D3*
G1X5551Y6460D3*
G1X5747Y6460D3*
G1X2007Y6264D3*
G1X2401Y6264D3*
G1X2598Y6264D3*
G1X4960Y6264D3*
G1X5157Y6264D3*
G1X1811Y6067D3*
G1X2007Y6067D3*
G1X2401Y6067D3*
G1X2598Y6067D3*
G1X4960Y6067D3*
G1X5157Y6067D3*
G1X5551Y6067D3*
G1X1811Y5870D3*
G1X2007Y5870D3*
G1X2401Y5870D3*
G1X2598Y5870D3*
G1X4960Y5870D3*
G1X5157Y5870D3*
G1X5551Y5870D3*
G1X5747Y5870D3*
G1X1811Y5673D3*
G1X2007Y5673D3*
G1X2401Y5673D3*
G1X2598Y5673D3*
G1X4960Y5673D3*
G1X5157Y5673D3*
G1X5551Y5673D3*
G1X5747Y5673D3*
G1X1811Y5476D3*
G1X2007Y5476D3*
G1X2401Y5476D3*
G1X2598Y5476D3*
G1X2795Y5476D3*
G1X2992Y5476D3*
G1X3188Y5476D3*
G1X3385Y5476D3*
G1X3582Y5476D3*
G1X3779Y5476D3*
G1X3976Y5476D3*
G1X4173Y5476D3*
G1X4370Y5476D3*
G1X4566Y5476D3*
G1X4763Y5476D3*
G1X4960Y5476D3*
G1X5157Y5476D3*
G1X5551Y5476D3*
G1X5747Y5476D3*
G1X2007Y5279D3*
G1X2401Y5279D3*
G1X2598Y5279D3*
G1X2795Y5279D3*
G1X2992Y5279D3*
G1X3188Y5279D3*
G1X3385Y5279D3*
G1X3582Y5279D3*
G1X3779Y5279D3*
G1X3976Y5279D3*
G1X4173Y5279D3*
G1X4370Y5279D3*
G1X4566Y5279D3*
G1X4763Y5279D3*
G1X4960Y5279D3*
G1X5157Y5279D3*
G1X5551Y5279D3*
G1X5747Y5279D3*
G1X2007Y5082D3*
G1X5551Y5082D3*
G1X5747Y5082D3*
G1X2007Y4886D3*
G1X2204Y4886D3*
G1X2401Y4886D3*
G1X2598Y4886D3*
G1X2795Y4886D3*
G1X2992Y4886D3*
G1X3188Y4886D3*
G1X3385Y4886D3*
G1X3582Y4886D3*
G1X3779Y4886D3*
G1X3976Y4886D3*
G1X4173Y4886D3*
G1X4370Y4886D3*
G1X4566Y4886D3*
G1X4763Y4886D3*
G1X4960Y4886D3*
G1X5157Y4886D3*
G1X5354Y4886D3*
G1X5551Y4886D3*
G1X5747Y4886D3*
G1X2007Y4689D3*
G1X2204Y4689D3*
G1X2401Y4689D3*
G1X2598Y4689D3*
G1X2795Y4689D3*
G1X2992Y4689D3*
G1X3188Y4689D3*
G1X3385Y4689D3*
G1X3582Y4689D3*
G1X3779Y4689D3*
G1X3976Y4689D3*
G1X4173Y4689D3*
G1X4370Y4689D3*
G1X4566Y4689D3*
G1X4763Y4689D3*
G1X4960Y4689D3*
G1X5157Y4689D3*
G1X5354Y4689D3*
G1X5551Y4689D3*
G1X5747Y4689D3*
G1X2598Y8035D3*
G54D261*
G1X7639Y10937D3*
G1X6969Y10937D3*
G54D281*
G1X6540Y8455D3*
G1X6540Y9144D3*
G54D282*
G1X7879Y5297D3*
G1X7879Y5907D3*
G1X7229Y5297D3*
G1X7229Y5907D3*
G54D283*
G1X1409Y2778D3*
G1X908Y2277D3*
G1X2050Y2138D3*
G1X1549Y1637D3*
G54D284*
G1X8733Y4229D3*
G1X8733Y4425D3*
G1X8733Y6394D3*
G1X8733Y6197D3*
G1X8733Y6000D3*
G1X8733Y5803D3*
G1X8733Y5607D3*
G1X8733Y5410D3*
G1X8733Y5213D3*
G1X8733Y5016D3*
G1X8733Y4819D3*
G1X8733Y4622D3*
G54D256*
G1X9225Y7093D3*
G1X9225Y3530D3*
G54D285*
G1X2379Y9907D3*
G54D286*
G1X2891Y9435D3*
G1X2891Y9750D3*
G1X2891Y10065D3*
G1X2891Y10380D3*
G1X1867Y10380D3*
G1X1867Y10065D3*
G1X1867Y9750D3*
G1X1867Y9435D3*
G54D287*
G1X7656Y2407D3*
G1X7656Y2151D3*
G1X7656Y1895D3*
G1X6829Y1895D3*
G1X6829Y2151D3*
G1X6829Y2407D3*
G54D288*
G1X8179Y8010D3*
G1X8179Y7104D3*
G54D252*
G1X10379Y13439D3*
G1X10379Y13813D3*
G1X4779Y13889D3*
G1X4779Y14263D3*
G1X7279Y15813D3*
G1X7279Y15439D3*
G1X11279Y21013D3*
G1X11279Y20639D3*
G1X10879Y20639D3*
G1X10879Y21013D3*
G1X9879Y13439D3*
G1X9879Y13813D3*
G1X4779Y14889D3*
G1X4779Y15263D3*
G1X5179Y15263D3*
G1X5179Y14889D3*
G1X4379Y14889D3*
G1X4379Y15263D3*
G1X3179Y15263D3*
G1X3179Y14889D3*
G1X2779Y14889D3*
G1X2779Y15263D3*
G1X7679Y14889D3*
G1X7679Y15263D3*
G1X4379Y13889D3*
G1X4379Y14263D3*
G1X3979Y14263D3*
G1X3979Y13889D3*
G1X2779Y13089D3*
G1X2779Y13463D3*
G1X2779Y13989D3*
G1X2779Y14363D3*
G1X11279Y22013D3*
G1X11279Y21639D3*
G1X10879Y22013D3*
G1X10879Y21639D3*
G1X7240Y21106D3*
G1X7240Y20732D3*
G1X7640Y20732D3*
G1X7640Y21106D3*
G54D251*
G1X3479Y13472D3*
G1X3479Y14472D3*
G1X9629Y21622D3*
G1X3479Y12881D3*
G1X3479Y13881D3*
G1X9629Y21031D3*
G54D250*
G1X6334Y16376D3*
G1X4784Y13076D3*
G1X6924Y16376D3*
G1X5374Y13076D3*
G54D249*
G1X6716Y15876D3*
G1X6342Y15876D3*
G1X6716Y17276D3*
G1X6342Y17276D3*
G1X1216Y21426D3*
G1X842Y21426D3*
G1X4966Y15876D3*
G1X4592Y15876D3*
G1X3866Y22626D3*
G1X3492Y22626D3*
G1X3866Y23026D3*
G1X3492Y23026D3*
G1X3992Y13076D3*
G1X4366Y13076D3*
G1X5192Y13876D3*
G1X5566Y13876D3*
G1X3442Y21576D3*
G1X3816Y21576D3*
G1X6342Y16876D3*
G1X6716Y16876D3*
G1X7542Y16726D3*
G1X7916Y16726D3*
G1X1166Y15476D3*
G1X792Y15476D3*
G1X1692Y15476D3*
G1X2066Y15476D3*
G1X10466Y21026D3*
G1X10092Y21026D3*
G1X4192Y21176D3*
G1X4566Y21176D3*
G1X3592Y15276D3*
G1X3966Y15276D3*
G1X3592Y14876D3*
G1X3966Y14876D3*
G1X5392Y15876D3*
G1X5766Y15876D3*
G1X6716Y19476D3*
G1X6342Y19476D3*
G1X5966Y14276D3*
G1X5592Y14276D3*
G1X5592Y14676D3*
G1X5966Y14676D3*
G1X5942Y13876D3*
G1X6316Y13876D3*
G1X1216Y21026D3*
G1X842Y21026D3*
G1X4566Y21576D3*
G1X4192Y21576D3*
G1X3816Y21176D3*
G1X3442Y21176D3*
G1X7916Y18426D3*
G1X7542Y18426D3*
G1X6342Y19876D3*
G1X6716Y19876D3*
G1X10466Y21626D3*
G1X10092Y21626D3*
G54D148*
G1X1811Y19414D3*
G1X1811Y17248D3*
G1X1811Y18233D3*
G1X1811Y17051D3*
G1X1811Y16855D3*
G1X1811Y18823D3*
G1X1811Y16658D3*
G1X1811Y20595D3*
G1X2007Y20595D3*
G1X2204Y20595D3*
G1X2795Y20595D3*
G1X2598Y20595D3*
G1X3188Y20595D3*
G1X3385Y20595D3*
G1X3582Y20595D3*
G1X3779Y20595D3*
G1X4173Y20595D3*
G1X4370Y20595D3*
G1X4566Y20595D3*
G1X4763Y20595D3*
G1X4960Y20595D3*
G1X5157Y20595D3*
G1X5354Y20595D3*
G1X5551Y20595D3*
G1X5747Y20595D3*
G1X1811Y20398D3*
G1X2007Y20398D3*
G1X2204Y20398D3*
G1X2401Y20398D3*
G1X2598Y20398D3*
G1X2795Y20398D3*
G1X2992Y20398D3*
G1X3188Y20398D3*
G1X3385Y20398D3*
G1X3582Y20398D3*
G1X3779Y20398D3*
G1X3976Y20398D3*
G1X4370Y20398D3*
G1X4763Y20398D3*
G1X4960Y20398D3*
G1X5157Y20398D3*
G1X5354Y20398D3*
G1X5551Y20398D3*
G1X5747Y20398D3*
G1X1811Y20201D3*
G1X2007Y20201D3*
G1X5551Y20201D3*
G1X5747Y20201D3*
G1X1811Y20004D3*
G1X2007Y20004D3*
G1X2401Y20004D3*
G1X2795Y20004D3*
G1X2992Y20004D3*
G1X3188Y20004D3*
G1X3385Y20004D3*
G1X3582Y20004D3*
G1X3779Y20004D3*
G1X3976Y20004D3*
G1X4173Y20004D3*
G1X4370Y20004D3*
G1X4566Y20004D3*
G1X4763Y20004D3*
G1X4960Y20004D3*
G1X5157Y20004D3*
G1X5551Y20004D3*
G1X5747Y20004D3*
G1X1811Y19807D3*
G1X2007Y19807D3*
G1X2401Y19807D3*
G1X2598Y19807D3*
G1X2795Y19807D3*
G1X2992Y19807D3*
G1X3188Y19807D3*
G1X3385Y19807D3*
G1X3582Y19807D3*
G1X3779Y19807D3*
G1X3976Y19807D3*
G1X4370Y19807D3*
G1X4566Y19807D3*
G1X4763Y19807D3*
G1X4960Y19807D3*
G1X5157Y19807D3*
G1X5551Y19807D3*
G1X5747Y19807D3*
G1X1811Y19610D3*
G1X2007Y19610D3*
G1X2401Y19610D3*
G1X2598Y19610D3*
G1X4960Y19610D3*
G1X5157Y19610D3*
G1X5551Y19610D3*
G1X5747Y19610D3*
G1X2007Y19414D3*
G1X2401Y19414D3*
G1X2598Y19414D3*
G1X4960Y19414D3*
G1X5157Y19414D3*
G1X5551Y19414D3*
G1X5747Y19414D3*
G1X2007Y19217D3*
G1X2401Y19217D3*
G1X2598Y19217D3*
G1X4960Y19217D3*
G1X5157Y19217D3*
G1X5551Y19217D3*
G1X5747Y19217D3*
G1X2401Y19020D3*
G1X2598Y19020D3*
G1X4960Y19020D3*
G1X5157Y19020D3*
G1X5551Y19020D3*
G1X5747Y19020D3*
G1X2007Y18823D3*
G1X2401Y18823D3*
G1X2598Y18823D3*
G1X4960Y18823D3*
G1X5157Y18823D3*
G1X5551Y18823D3*
G1X5747Y18823D3*
G1X1811Y18626D3*
G1X2007Y18626D3*
G1X2401Y18626D3*
G1X2598Y18626D3*
G1X4960Y18626D3*
G1X5157Y18626D3*
G1X5551Y18626D3*
G1X5747Y18626D3*
G1X1811Y18429D3*
G1X2007Y18429D3*
G1X2401Y18429D3*
G1X2598Y18429D3*
G1X4960Y18429D3*
G1X5157Y18429D3*
G1X5551Y18429D3*
G1X5747Y18429D3*
G1X2007Y18233D3*
G1X2401Y18233D3*
G1X2598Y18233D3*
G1X4960Y18233D3*
G1X5157Y18233D3*
G1X1811Y18036D3*
G1X2007Y18036D3*
G1X2401Y18036D3*
G1X2598Y18036D3*
G1X4960Y18036D3*
G1X5157Y18036D3*
G1X5551Y18036D3*
G1X1811Y17839D3*
G1X2007Y17839D3*
G1X2401Y17839D3*
G1X2598Y17839D3*
G1X4960Y17839D3*
G1X5157Y17839D3*
G1X5551Y17839D3*
G1X5747Y17839D3*
G1X1811Y17642D3*
G1X2007Y17642D3*
G1X2401Y17642D3*
G1X2598Y17642D3*
G1X4960Y17642D3*
G1X5157Y17642D3*
G1X5551Y17642D3*
G1X5747Y17642D3*
G1X1811Y17445D3*
G1X2007Y17445D3*
G1X2401Y17445D3*
G1X2598Y17445D3*
G1X2795Y17445D3*
G1X2992Y17445D3*
G1X3188Y17445D3*
G1X3385Y17445D3*
G1X3582Y17445D3*
G1X3779Y17445D3*
G1X3976Y17445D3*
G1X4173Y17445D3*
G1X4370Y17445D3*
G1X4566Y17445D3*
G1X4763Y17445D3*
G1X4960Y17445D3*
G1X5157Y17445D3*
G1X5551Y17445D3*
G1X5747Y17445D3*
G1X2007Y17248D3*
G1X2401Y17248D3*
G1X2598Y17248D3*
G1X2795Y17248D3*
G1X2992Y17248D3*
G1X3188Y17248D3*
G1X3385Y17248D3*
G1X3582Y17248D3*
G1X3779Y17248D3*
G1X3976Y17248D3*
G1X4173Y17248D3*
G1X4370Y17248D3*
G1X4566Y17248D3*
G1X4763Y17248D3*
G1X4960Y17248D3*
G1X5157Y17248D3*
G1X5551Y17248D3*
G1X5747Y17248D3*
G1X2007Y17051D3*
G1X5551Y17051D3*
G1X5747Y17051D3*
G1X2007Y16855D3*
G1X2204Y16855D3*
G1X2401Y16855D3*
G1X2598Y16855D3*
G1X2795Y16855D3*
G1X2992Y16855D3*
G1X3188Y16855D3*
G1X3385Y16855D3*
G1X3582Y16855D3*
G1X3779Y16855D3*
G1X3976Y16855D3*
G1X4173Y16855D3*
G1X4370Y16855D3*
G1X4566Y16855D3*
G1X4763Y16855D3*
G1X4960Y16855D3*
G1X5157Y16855D3*
G1X5354Y16855D3*
G1X5551Y16855D3*
G1X5747Y16855D3*
G1X2007Y16658D3*
G1X2204Y16658D3*
G1X2401Y16658D3*
G1X2598Y16658D3*
G1X2795Y16658D3*
G1X2992Y16658D3*
G1X3188Y16658D3*
G1X3385Y16658D3*
G1X3582Y16658D3*
G1X3779Y16658D3*
G1X3976Y16658D3*
G1X4173Y16658D3*
G1X4370Y16658D3*
G1X4566Y16658D3*
G1X4763Y16658D3*
G1X4960Y16658D3*
G1X5157Y16658D3*
G1X5354Y16658D3*
G1X5551Y16658D3*
G1X5747Y16658D3*
G1X2598Y20004D3*
G54D261*
G1X7639Y22906D3*
G1X6969Y22906D3*
G54D281*
G1X6540Y20424D3*
G1X6540Y21113D3*
G54D282*
G1X7879Y17266D3*
G1X7879Y17876D3*
G1X7229Y17266D3*
G1X7229Y17876D3*
G54D283*
G1X1409Y14747D3*
G1X908Y14246D3*
G1X2050Y14107D3*
G1X1549Y13606D3*
G54D284*
G1X8733Y16198D3*
G1X8733Y16394D3*
G1X8733Y18363D3*
G1X8733Y18166D3*
G1X8733Y17969D3*
G1X8733Y17772D3*
G1X8733Y17576D3*
G1X8733Y17379D3*
G1X8733Y17182D3*
G1X8733Y16985D3*
G1X8733Y16788D3*
G1X8733Y16591D3*
G54D256*
G1X9225Y19062D3*
G1X9225Y15499D3*
G54D285*
G1X2379Y21876D3*
G54D286*
G1X2891Y21404D3*
G1X2891Y21719D3*
G1X2891Y22034D3*
G1X2891Y22349D3*
G1X1867Y22349D3*
G1X1867Y22034D3*
G1X1867Y21719D3*
G1X1867Y21404D3*
G54D287*
G1X7656Y14376D3*
G1X7656Y14120D3*
G1X7656Y13864D3*
G1X6829Y13864D3*
G1X6829Y14120D3*
G1X6829Y14376D3*
G54D288*
G1X8179Y19979D3*
G1X8179Y19073D3*
G54D252*
G1X10379Y25407D3*
G1X10379Y25781D3*
G1X4779Y25857D3*
G1X4779Y26231D3*
G1X7279Y27781D3*
G1X7279Y27407D3*
G1X11279Y32981D3*
G1X11279Y32607D3*
G1X10879Y32607D3*
G1X10879Y32981D3*
G1X9879Y25407D3*
G1X9879Y25781D3*
G1X4779Y26857D3*
G1X4779Y27231D3*
G1X5179Y27231D3*
G1X5179Y26857D3*
G1X4379Y26857D3*
G1X4379Y27231D3*
G1X3179Y27231D3*
G1X3179Y26857D3*
G1X2779Y26857D3*
G1X2779Y27231D3*
G1X7679Y26857D3*
G1X7679Y27231D3*
G1X4379Y25857D3*
G1X4379Y26231D3*
G1X3979Y26231D3*
G1X3979Y25857D3*
G1X2779Y25057D3*
G1X2779Y25431D3*
G1X2779Y25957D3*
G1X2779Y26331D3*
G1X11279Y33981D3*
G1X11279Y33607D3*
G1X10879Y33981D3*
G1X10879Y33607D3*
G1X7240Y33074D3*
G1X7240Y32700D3*
G1X7640Y32700D3*
G1X7640Y33074D3*
G54D251*
G1X3479Y25440D3*
G1X3479Y26440D3*
G1X9629Y33590D3*
G1X3479Y24849D3*
G1X3479Y25849D3*
G1X9629Y32999D3*
G54D250*
G1X6334Y28344D3*
G1X4784Y25044D3*
G1X6924Y28344D3*
G1X5374Y25044D3*
G54D249*
G1X6716Y27844D3*
G1X6342Y27844D3*
G1X6716Y29244D3*
G1X6342Y29244D3*
G1X1216Y33394D3*
G1X842Y33394D3*
G1X4966Y27844D3*
G1X4592Y27844D3*
G1X3866Y34594D3*
G1X3492Y34594D3*
G1X3866Y34994D3*
G1X3492Y34994D3*
G1X3992Y25044D3*
G1X4366Y25044D3*
G1X5192Y25844D3*
G1X5566Y25844D3*
G1X3442Y33544D3*
G1X3816Y33544D3*
G1X6342Y28844D3*
G1X6716Y28844D3*
G1X7542Y28694D3*
G1X7916Y28694D3*
G1X1166Y27444D3*
G1X792Y27444D3*
G1X1692Y27444D3*
G1X2066Y27444D3*
G1X10466Y32994D3*
G1X10092Y32994D3*
G1X4192Y33144D3*
G1X4566Y33144D3*
G1X3592Y27244D3*
G1X3966Y27244D3*
G1X3592Y26844D3*
G1X3966Y26844D3*
G1X5392Y27844D3*
G1X5766Y27844D3*
G1X6716Y31444D3*
G1X6342Y31444D3*
G1X5966Y26244D3*
G1X5592Y26244D3*
G1X5592Y26644D3*
G1X5966Y26644D3*
G1X5942Y25844D3*
G1X6316Y25844D3*
G1X1216Y32994D3*
G1X842Y32994D3*
G1X4566Y33544D3*
G1X4192Y33544D3*
G1X3816Y33144D3*
G1X3442Y33144D3*
G1X7916Y30394D3*
G1X7542Y30394D3*
G1X6342Y31844D3*
G1X6716Y31844D3*
G1X10466Y33594D3*
G1X10092Y33594D3*
G54D148*
G1X1811Y31382D3*
G1X1811Y29216D3*
G1X1811Y30201D3*
G1X1811Y29019D3*
G1X1811Y28823D3*
G1X1811Y30791D3*
G1X1811Y28626D3*
G1X1811Y32563D3*
G1X2007Y32563D3*
G1X2204Y32563D3*
G1X2795Y32563D3*
G1X2598Y32563D3*
G1X3188Y32563D3*
G1X3385Y32563D3*
G1X3582Y32563D3*
G1X3779Y32563D3*
G1X4173Y32563D3*
G1X4370Y32563D3*
G1X4566Y32563D3*
G1X4763Y32563D3*
G1X4960Y32563D3*
G1X5157Y32563D3*
G1X5354Y32563D3*
G1X5551Y32563D3*
G1X5747Y32563D3*
G1X1811Y32366D3*
G1X2007Y32366D3*
G1X2204Y32366D3*
G1X2401Y32366D3*
G1X2598Y32366D3*
G1X2795Y32366D3*
G1X2992Y32366D3*
G1X3188Y32366D3*
G1X3385Y32366D3*
G1X3582Y32366D3*
G1X3779Y32366D3*
G1X3976Y32366D3*
G1X4370Y32366D3*
G1X4763Y32366D3*
G1X4960Y32366D3*
G1X5157Y32366D3*
G1X5354Y32366D3*
G1X5551Y32366D3*
G1X5747Y32366D3*
G1X1811Y32169D3*
G1X2007Y32169D3*
G1X5551Y32169D3*
G1X5747Y32169D3*
G1X1811Y31972D3*
G1X2007Y31972D3*
G1X2401Y31972D3*
G1X2795Y31972D3*
G1X2992Y31972D3*
G1X3188Y31972D3*
G1X3385Y31972D3*
G1X3582Y31972D3*
G1X3779Y31972D3*
G1X3976Y31972D3*
G1X4173Y31972D3*
G1X4370Y31972D3*
G1X4566Y31972D3*
G1X4763Y31972D3*
G1X4960Y31972D3*
G1X5157Y31972D3*
G1X5551Y31972D3*
G1X5747Y31972D3*
G1X1811Y31775D3*
G1X2007Y31775D3*
G1X2401Y31775D3*
G1X2598Y31775D3*
G1X2795Y31775D3*
G1X2992Y31775D3*
G1X3188Y31775D3*
G1X3385Y31775D3*
G1X3582Y31775D3*
G1X3779Y31775D3*
G1X3976Y31775D3*
G1X4370Y31775D3*
G1X4566Y31775D3*
G1X4763Y31775D3*
G1X4960Y31775D3*
G1X5157Y31775D3*
G1X5551Y31775D3*
G1X5747Y31775D3*
G1X1811Y31578D3*
G1X2007Y31578D3*
G1X2401Y31578D3*
G1X2598Y31578D3*
G1X4960Y31578D3*
G1X5157Y31578D3*
G1X5551Y31578D3*
G1X5747Y31578D3*
G1X2007Y31382D3*
G1X2401Y31382D3*
G1X2598Y31382D3*
G1X4960Y31382D3*
G1X5157Y31382D3*
G1X5551Y31382D3*
G1X5747Y31382D3*
G1X2007Y31185D3*
G1X2401Y31185D3*
G1X2598Y31185D3*
G1X4960Y31185D3*
G1X5157Y31185D3*
G1X5551Y31185D3*
G1X5747Y31185D3*
G1X2401Y30988D3*
G1X2598Y30988D3*
G1X4960Y30988D3*
G1X5157Y30988D3*
G1X5551Y30988D3*
G1X5747Y30988D3*
G1X2007Y30791D3*
G1X2401Y30791D3*
G1X2598Y30791D3*
G1X4960Y30791D3*
G1X5157Y30791D3*
G1X5551Y30791D3*
G1X5747Y30791D3*
G1X1811Y30594D3*
G1X2007Y30594D3*
G1X2401Y30594D3*
G1X2598Y30594D3*
G1X4960Y30594D3*
G1X5157Y30594D3*
G1X5551Y30594D3*
G1X5747Y30594D3*
G1X1811Y30397D3*
G1X2007Y30397D3*
G1X2401Y30397D3*
G1X2598Y30397D3*
G1X4960Y30397D3*
G1X5157Y30397D3*
G1X5551Y30397D3*
G1X5747Y30397D3*
G1X2007Y30201D3*
G1X2401Y30201D3*
G1X2598Y30201D3*
G1X4960Y30201D3*
G1X5157Y30201D3*
G1X1811Y30004D3*
G1X2007Y30004D3*
G1X2401Y30004D3*
G1X2598Y30004D3*
G1X4960Y30004D3*
G1X5157Y30004D3*
G1X5551Y30004D3*
G1X1811Y29807D3*
G1X2007Y29807D3*
G1X2401Y29807D3*
G1X2598Y29807D3*
G1X4960Y29807D3*
G1X5157Y29807D3*
G1X5551Y29807D3*
G1X5747Y29807D3*
G1X1811Y29610D3*
G1X2007Y29610D3*
G1X2401Y29610D3*
G1X2598Y29610D3*
G1X4960Y29610D3*
G1X5157Y29610D3*
G1X5551Y29610D3*
G1X5747Y29610D3*
G1X1811Y29413D3*
G1X2007Y29413D3*
G1X2401Y29413D3*
G1X2598Y29413D3*
G1X2795Y29413D3*
G1X2992Y29413D3*
G1X3188Y29413D3*
G1X3385Y29413D3*
G1X3582Y29413D3*
G1X3779Y29413D3*
G1X3976Y29413D3*
G1X4173Y29413D3*
G1X4370Y29413D3*
G1X4566Y29413D3*
G1X4763Y29413D3*
G1X4960Y29413D3*
G1X5157Y29413D3*
G1X5551Y29413D3*
G1X5747Y29413D3*
G1X2007Y29216D3*
G1X2401Y29216D3*
G1X2598Y29216D3*
G1X2795Y29216D3*
G1X2992Y29216D3*
G1X3188Y29216D3*
G1X3385Y29216D3*
G1X3582Y29216D3*
G1X3779Y29216D3*
G1X3976Y29216D3*
G1X4173Y29216D3*
G1X4370Y29216D3*
G1X4566Y29216D3*
G1X4763Y29216D3*
G1X4960Y29216D3*
G1X5157Y29216D3*
G1X5551Y29216D3*
G1X5747Y29216D3*
G1X2007Y29019D3*
G1X5551Y29019D3*
G1X5747Y29019D3*
G1X2007Y28823D3*
G1X2204Y28823D3*
G1X2401Y28823D3*
G1X2598Y28823D3*
G1X2795Y28823D3*
G1X2992Y28823D3*
G1X3188Y28823D3*
G1X3385Y28823D3*
G1X3582Y28823D3*
G1X3779Y28823D3*
G1X3976Y28823D3*
G1X4173Y28823D3*
G1X4370Y28823D3*
G1X4566Y28823D3*
G1X4763Y28823D3*
G1X4960Y28823D3*
G1X5157Y28823D3*
G1X5354Y28823D3*
G1X5551Y28823D3*
G1X5747Y28823D3*
G1X2007Y28626D3*
G1X2204Y28626D3*
G1X2401Y28626D3*
G1X2598Y28626D3*
G1X2795Y28626D3*
G1X2992Y28626D3*
G1X3188Y28626D3*
G1X3385Y28626D3*
G1X3582Y28626D3*
G1X3779Y28626D3*
G1X3976Y28626D3*
G1X4173Y28626D3*
G1X4370Y28626D3*
G1X4566Y28626D3*
G1X4763Y28626D3*
G1X4960Y28626D3*
G1X5157Y28626D3*
G1X5354Y28626D3*
G1X5551Y28626D3*
G1X5747Y28626D3*
G1X2598Y31972D3*
G54D261*
G1X7639Y34874D3*
G1X6969Y34874D3*
G54D281*
G1X6540Y32392D3*
G1X6540Y33081D3*
G54D282*
G1X7879Y29234D3*
G1X7879Y29844D3*
G1X7229Y29234D3*
G1X7229Y29844D3*
G54D283*
G1X1409Y26715D3*
G1X908Y26214D3*
G1X2050Y26075D3*
G1X1549Y25574D3*
G54D284*
G1X8733Y28166D3*
G1X8733Y28362D3*
G1X8733Y30331D3*
G1X8733Y30134D3*
G1X8733Y29937D3*
G1X8733Y29740D3*
G1X8733Y29544D3*
G1X8733Y29347D3*
G1X8733Y29150D3*
G1X8733Y28953D3*
G1X8733Y28756D3*
G1X8733Y28559D3*
G54D256*
G1X9225Y31030D3*
G1X9225Y27467D3*
G54D285*
G1X2379Y33844D3*
G54D286*
G1X2891Y33372D3*
G1X2891Y33687D3*
G1X2891Y34002D3*
G1X2891Y34317D3*
G1X1867Y34317D3*
G1X1867Y34002D3*
G1X1867Y33687D3*
G1X1867Y33372D3*
G54D287*
G1X7656Y26344D3*
G1X7656Y26088D3*
G1X7656Y25832D3*
G1X6829Y25832D3*
G1X6829Y26088D3*
G1X6829Y26344D3*
G54D288*
G1X8179Y31947D3*
G1X8179Y31041D3*
G54D252*
G1X22348Y1470D3*
G1X22348Y1844D3*
G1X16748Y1920D3*
G1X16748Y2294D3*
G1X19248Y3844D3*
G1X19248Y3470D3*
G1X23248Y9044D3*
G1X23248Y8670D3*
G1X22848Y8670D3*
G1X22848Y9044D3*
G1X21848Y1470D3*
G1X21848Y1844D3*
G1X16748Y2920D3*
G1X16748Y3294D3*
G1X17148Y3294D3*
G1X17148Y2920D3*
G1X16348Y2920D3*
G1X16348Y3294D3*
G1X15148Y3294D3*
G1X15148Y2920D3*
G1X14748Y2920D3*
G1X14748Y3294D3*
G1X19648Y2920D3*
G1X19648Y3294D3*
G1X16348Y1920D3*
G1X16348Y2294D3*
G1X15948Y2294D3*
G1X15948Y1920D3*
G1X14748Y1120D3*
G1X14748Y1494D3*
G1X14748Y2020D3*
G1X14748Y2394D3*
G1X23248Y10044D3*
G1X23248Y9670D3*
G1X22848Y10044D3*
G1X22848Y9670D3*
G1X19209Y9137D3*
G1X19209Y8763D3*
G1X19609Y8763D3*
G1X19609Y9137D3*
G54D251*
G1X15448Y1503D3*
G1X15448Y2503D3*
G1X21598Y9653D3*
G1X15448Y912D3*
G1X15448Y1912D3*
G1X21598Y9062D3*
G54D250*
G1X18303Y4407D3*
G1X16753Y1107D3*
G1X18893Y4407D3*
G1X17343Y1107D3*
G54D249*
G1X18685Y3907D3*
G1X18311Y3907D3*
G1X18685Y5307D3*
G1X18311Y5307D3*
G1X13185Y9457D3*
G1X12811Y9457D3*
G1X16935Y3907D3*
G1X16561Y3907D3*
G1X15835Y10657D3*
G1X15461Y10657D3*
G1X15835Y11057D3*
G1X15461Y11057D3*
G1X15961Y1107D3*
G1X16335Y1107D3*
G1X17161Y1907D3*
G1X17535Y1907D3*
G1X15411Y9607D3*
G1X15785Y9607D3*
G1X18311Y4907D3*
G1X18685Y4907D3*
G1X19511Y4757D3*
G1X19885Y4757D3*
G1X13135Y3507D3*
G1X12761Y3507D3*
G1X13661Y3507D3*
G1X14035Y3507D3*
G1X22435Y9057D3*
G1X22061Y9057D3*
G1X16161Y9207D3*
G1X16535Y9207D3*
G1X15561Y3307D3*
G1X15935Y3307D3*
G1X15561Y2907D3*
G1X15935Y2907D3*
G1X17361Y3907D3*
G1X17735Y3907D3*
G1X18685Y7507D3*
G1X18311Y7507D3*
G1X17935Y2307D3*
G1X17561Y2307D3*
G1X17561Y2707D3*
G1X17935Y2707D3*
G1X17911Y1907D3*
G1X18285Y1907D3*
G1X13185Y9057D3*
G1X12811Y9057D3*
G1X16535Y9607D3*
G1X16161Y9607D3*
G1X15785Y9207D3*
G1X15411Y9207D3*
G1X19885Y6457D3*
G1X19511Y6457D3*
G1X18311Y7907D3*
G1X18685Y7907D3*
G1X22435Y9657D3*
G1X22061Y9657D3*
G54D148*
G1X13780Y7445D3*
G1X13780Y5279D3*
G1X13780Y6264D3*
G1X13780Y5082D3*
G1X13780Y4886D3*
G1X13780Y6854D3*
G1X13780Y4689D3*
G1X13780Y8626D3*
G1X13976Y8626D3*
G1X14173Y8626D3*
G1X14764Y8626D3*
G1X14567Y8626D3*
G1X15157Y8626D3*
G1X15354Y8626D3*
G1X15551Y8626D3*
G1X15748Y8626D3*
G1X16142Y8626D3*
G1X16339Y8626D3*
G1X16535Y8626D3*
G1X16732Y8626D3*
G1X16929Y8626D3*
G1X17126Y8626D3*
G1X17323Y8626D3*
G1X17520Y8626D3*
G1X17716Y8626D3*
G1X13780Y8429D3*
G1X13976Y8429D3*
G1X14173Y8429D3*
G1X14370Y8429D3*
G1X14567Y8429D3*
G1X14764Y8429D3*
G1X14961Y8429D3*
G1X15157Y8429D3*
G1X15354Y8429D3*
G1X15551Y8429D3*
G1X15748Y8429D3*
G1X15945Y8429D3*
G1X16339Y8429D3*
G1X16732Y8429D3*
G1X16929Y8429D3*
G1X17126Y8429D3*
G1X17323Y8429D3*
G1X17520Y8429D3*
G1X17716Y8429D3*
G1X13780Y8232D3*
G1X13976Y8232D3*
G1X17520Y8232D3*
G1X17716Y8232D3*
G1X13780Y8035D3*
G1X13976Y8035D3*
G1X14370Y8035D3*
G1X14764Y8035D3*
G1X14961Y8035D3*
G1X15157Y8035D3*
G1X15354Y8035D3*
G1X15551Y8035D3*
G1X15748Y8035D3*
G1X15945Y8035D3*
G1X16142Y8035D3*
G1X16339Y8035D3*
G1X16535Y8035D3*
G1X16732Y8035D3*
G1X16929Y8035D3*
G1X17126Y8035D3*
G1X17520Y8035D3*
G1X17716Y8035D3*
G1X13780Y7838D3*
G1X13976Y7838D3*
G1X14370Y7838D3*
G1X14567Y7838D3*
G1X14764Y7838D3*
G1X14961Y7838D3*
G1X15157Y7838D3*
G1X15354Y7838D3*
G1X15551Y7838D3*
G1X15748Y7838D3*
G1X15945Y7838D3*
G1X16339Y7838D3*
G1X16535Y7838D3*
G1X16732Y7838D3*
G1X16929Y7838D3*
G1X17126Y7838D3*
G1X17520Y7838D3*
G1X17716Y7838D3*
G1X13780Y7641D3*
G1X13976Y7641D3*
G1X14370Y7641D3*
G1X14567Y7641D3*
G1X16929Y7641D3*
G1X17126Y7641D3*
G1X17520Y7641D3*
G1X17716Y7641D3*
G1X13976Y7445D3*
G1X14370Y7445D3*
G1X14567Y7445D3*
G1X16929Y7445D3*
G1X17126Y7445D3*
G1X17520Y7445D3*
G1X17716Y7445D3*
G1X13976Y7248D3*
G1X14370Y7248D3*
G1X14567Y7248D3*
G1X16929Y7248D3*
G1X17126Y7248D3*
G1X17520Y7248D3*
G1X17716Y7248D3*
G1X14370Y7051D3*
G1X14567Y7051D3*
G1X16929Y7051D3*
G1X17126Y7051D3*
G1X17520Y7051D3*
G1X17716Y7051D3*
G1X13976Y6854D3*
G1X14370Y6854D3*
G1X14567Y6854D3*
G1X16929Y6854D3*
G1X17126Y6854D3*
G1X17520Y6854D3*
G1X17716Y6854D3*
G1X13780Y6657D3*
G1X13976Y6657D3*
G1X14370Y6657D3*
G1X14567Y6657D3*
G1X16929Y6657D3*
G1X17126Y6657D3*
G1X17520Y6657D3*
G1X17716Y6657D3*
G1X13780Y6460D3*
G1X13976Y6460D3*
G1X14370Y6460D3*
G1X14567Y6460D3*
G1X16929Y6460D3*
G1X17126Y6460D3*
G1X17520Y6460D3*
G1X17716Y6460D3*
G1X13976Y6264D3*
G1X14370Y6264D3*
G1X14567Y6264D3*
G1X16929Y6264D3*
G1X17126Y6264D3*
G1X13780Y6067D3*
G1X13976Y6067D3*
G1X14370Y6067D3*
G1X14567Y6067D3*
G1X16929Y6067D3*
G1X17126Y6067D3*
G1X17520Y6067D3*
G1X13780Y5870D3*
G1X13976Y5870D3*
G1X14370Y5870D3*
G1X14567Y5870D3*
G1X16929Y5870D3*
G1X17126Y5870D3*
G1X17520Y5870D3*
G1X17716Y5870D3*
G1X13780Y5673D3*
G1X13976Y5673D3*
G1X14370Y5673D3*
G1X14567Y5673D3*
G1X16929Y5673D3*
G1X17126Y5673D3*
G1X17520Y5673D3*
G1X17716Y5673D3*
G1X13780Y5476D3*
G1X13976Y5476D3*
G1X14370Y5476D3*
G1X14567Y5476D3*
G1X14764Y5476D3*
G1X14961Y5476D3*
G1X15157Y5476D3*
G1X15354Y5476D3*
G1X15551Y5476D3*
G1X15748Y5476D3*
G1X15945Y5476D3*
G1X16142Y5476D3*
G1X16339Y5476D3*
G1X16535Y5476D3*
G1X16732Y5476D3*
G1X16929Y5476D3*
G1X17126Y5476D3*
G1X17520Y5476D3*
G1X17716Y5476D3*
G1X13976Y5279D3*
G1X14370Y5279D3*
G1X14567Y5279D3*
G1X14764Y5279D3*
G1X14961Y5279D3*
G1X15157Y5279D3*
G1X15354Y5279D3*
G1X15551Y5279D3*
G1X15748Y5279D3*
G1X15945Y5279D3*
G1X16142Y5279D3*
G1X16339Y5279D3*
G1X16535Y5279D3*
G1X16732Y5279D3*
G1X16929Y5279D3*
G1X17126Y5279D3*
G1X17520Y5279D3*
G1X17716Y5279D3*
G1X13976Y5082D3*
G1X17520Y5082D3*
G1X17716Y5082D3*
G1X13976Y4886D3*
G1X14173Y4886D3*
G1X14370Y4886D3*
G1X14567Y4886D3*
G1X14764Y4886D3*
G1X14961Y4886D3*
G1X15157Y4886D3*
G1X15354Y4886D3*
G1X15551Y4886D3*
G1X15748Y4886D3*
G1X15945Y4886D3*
G1X16142Y4886D3*
G1X16339Y4886D3*
G1X16535Y4886D3*
G1X16732Y4886D3*
G1X16929Y4886D3*
G1X17126Y4886D3*
G1X17323Y4886D3*
G1X17520Y4886D3*
G1X17716Y4886D3*
G1X13976Y4689D3*
G1X14173Y4689D3*
G1X14370Y4689D3*
G1X14567Y4689D3*
G1X14764Y4689D3*
G1X14961Y4689D3*
G1X15157Y4689D3*
G1X15354Y4689D3*
G1X15551Y4689D3*
G1X15748Y4689D3*
G1X15945Y4689D3*
G1X16142Y4689D3*
G1X16339Y4689D3*
G1X16535Y4689D3*
G1X16732Y4689D3*
G1X16929Y4689D3*
G1X17126Y4689D3*
G1X17323Y4689D3*
G1X17520Y4689D3*
G1X17716Y4689D3*
G1X14567Y8035D3*
G54D261*
G1X19608Y10937D3*
G1X18938Y10937D3*
G54D281*
G1X18509Y8455D3*
G1X18509Y9144D3*
G54D282*
G1X19848Y5297D3*
G1X19848Y5907D3*
G1X19198Y5297D3*
G1X19198Y5907D3*
G54D283*
G1X13378Y2778D3*
G1X12877Y2277D3*
G1X14019Y2138D3*
G1X13518Y1637D3*
G54D284*
G1X20702Y4229D3*
G1X20702Y4425D3*
G1X20702Y6394D3*
G1X20702Y6197D3*
G1X20702Y6000D3*
G1X20702Y5803D3*
G1X20702Y5607D3*
G1X20702Y5410D3*
G1X20702Y5213D3*
G1X20702Y5016D3*
G1X20702Y4819D3*
G1X20702Y4622D3*
G54D256*
G1X21194Y7093D3*
G1X21194Y3530D3*
G54D285*
G1X14348Y9907D3*
G54D286*
G1X14860Y9435D3*
G1X14860Y9750D3*
G1X14860Y10065D3*
G1X14860Y10380D3*
G1X13836Y10380D3*
G1X13836Y10065D3*
G1X13836Y9750D3*
G1X13836Y9435D3*
G54D287*
G1X19625Y2407D3*
G1X19625Y2151D3*
G1X19625Y1895D3*
G1X18798Y1895D3*
G1X18798Y2151D3*
G1X18798Y2407D3*
G54D288*
G1X20148Y8010D3*
G1X20148Y7104D3*
G54D252*
G1X22348Y13439D3*
G1X22348Y13813D3*
G1X16748Y13889D3*
G1X16748Y14263D3*
G1X19248Y15813D3*
G1X19248Y15439D3*
G1X23248Y21013D3*
G1X23248Y20639D3*
G1X22848Y20639D3*
G1X22848Y21013D3*
G1X21848Y13439D3*
G1X21848Y13813D3*
G1X16748Y14889D3*
G1X16748Y15263D3*
G1X17148Y15263D3*
G1X17148Y14889D3*
G1X16348Y14889D3*
G1X16348Y15263D3*
G1X15148Y15263D3*
G1X15148Y14889D3*
G1X14748Y14889D3*
G1X14748Y15263D3*
G1X19648Y14889D3*
G1X19648Y15263D3*
G1X16348Y13889D3*
G1X16348Y14263D3*
G1X15948Y14263D3*
G1X15948Y13889D3*
G1X14748Y13089D3*
G1X14748Y13463D3*
G1X14748Y13989D3*
G1X14748Y14363D3*
G1X23248Y22013D3*
G1X23248Y21639D3*
G1X22848Y22013D3*
G1X22848Y21639D3*
G1X19209Y21106D3*
G1X19209Y20732D3*
G1X19609Y20732D3*
G1X19609Y21106D3*
G54D251*
G1X15448Y13472D3*
G1X15448Y14472D3*
G1X21598Y21622D3*
G1X15448Y12881D3*
G1X15448Y13881D3*
G1X21598Y21031D3*
G54D250*
G1X18303Y16376D3*
G1X16753Y13076D3*
G1X18893Y16376D3*
G1X17343Y13076D3*
G54D249*
G1X18685Y15876D3*
G1X18311Y15876D3*
G1X18685Y17276D3*
G1X18311Y17276D3*
G1X13185Y21426D3*
G1X12811Y21426D3*
G1X16935Y15876D3*
G1X16561Y15876D3*
G1X15835Y22626D3*
G1X15461Y22626D3*
G1X15835Y23026D3*
G1X15461Y23026D3*
G1X15961Y13076D3*
G1X16335Y13076D3*
G1X17161Y13876D3*
G1X17535Y13876D3*
G1X15411Y21576D3*
G1X15785Y21576D3*
G1X18311Y16876D3*
G1X18685Y16876D3*
G1X19511Y16726D3*
G1X19885Y16726D3*
G1X13135Y15476D3*
G1X12761Y15476D3*
G1X13661Y15476D3*
G1X14035Y15476D3*
G1X22435Y21026D3*
G1X22061Y21026D3*
G1X16161Y21176D3*
G1X16535Y21176D3*
G1X15561Y15276D3*
G1X15935Y15276D3*
G1X15561Y14876D3*
G1X15935Y14876D3*
G1X17361Y15876D3*
G1X17735Y15876D3*
G1X18685Y19476D3*
G1X18311Y19476D3*
G1X17935Y14276D3*
G1X17561Y14276D3*
G1X17561Y14676D3*
G1X17935Y14676D3*
G1X17911Y13876D3*
G1X18285Y13876D3*
G1X13185Y21026D3*
G1X12811Y21026D3*
G1X16535Y21576D3*
G1X16161Y21576D3*
G1X15785Y21176D3*
G1X15411Y21176D3*
G1X19885Y18426D3*
G1X19511Y18426D3*
G1X18311Y19876D3*
G1X18685Y19876D3*
G1X22435Y21626D3*
G1X22061Y21626D3*
G54D148*
G1X13780Y19414D3*
G1X13780Y17248D3*
G1X13780Y18233D3*
G1X13780Y17051D3*
G1X13780Y16855D3*
G1X13780Y18823D3*
G1X13780Y16658D3*
G1X13780Y20595D3*
G1X13976Y20595D3*
G1X14173Y20595D3*
G1X14764Y20595D3*
G1X14567Y20595D3*
G1X15157Y20595D3*
G1X15354Y20595D3*
G1X15551Y20595D3*
G1X15748Y20595D3*
G1X16142Y20595D3*
G1X16339Y20595D3*
G1X16535Y20595D3*
G1X16732Y20595D3*
G1X16929Y20595D3*
G1X17126Y20595D3*
G1X17323Y20595D3*
G1X17520Y20595D3*
G1X17716Y20595D3*
G1X13780Y20398D3*
G1X13976Y20398D3*
G1X14173Y20398D3*
G1X14370Y20398D3*
G1X14567Y20398D3*
G1X14764Y20398D3*
G1X14961Y20398D3*
G1X15157Y20398D3*
G1X15354Y20398D3*
G1X15551Y20398D3*
G1X15748Y20398D3*
G1X15945Y20398D3*
G1X16339Y20398D3*
G1X16732Y20398D3*
G1X16929Y20398D3*
G1X17126Y20398D3*
G1X17323Y20398D3*
G1X17520Y20398D3*
G1X17716Y20398D3*
G1X13780Y20201D3*
G1X13976Y20201D3*
G1X17520Y20201D3*
G1X17716Y20201D3*
G1X13780Y20004D3*
G1X13976Y20004D3*
G1X14370Y20004D3*
G1X14764Y20004D3*
G1X14961Y20004D3*
G1X15157Y20004D3*
G1X15354Y20004D3*
G1X15551Y20004D3*
G1X15748Y20004D3*
G1X15945Y20004D3*
G1X16142Y20004D3*
G1X16339Y20004D3*
G1X16535Y20004D3*
G1X16732Y20004D3*
G1X16929Y20004D3*
G1X17126Y20004D3*
G1X17520Y20004D3*
G1X17716Y20004D3*
G1X13780Y19807D3*
G1X13976Y19807D3*
G1X14370Y19807D3*
G1X14567Y19807D3*
G1X14764Y19807D3*
G1X14961Y19807D3*
G1X15157Y19807D3*
G1X15354Y19807D3*
G1X15551Y19807D3*
G1X15748Y19807D3*
G1X15945Y19807D3*
G1X16339Y19807D3*
G1X16535Y19807D3*
G1X16732Y19807D3*
G1X16929Y19807D3*
G1X17126Y19807D3*
G1X17520Y19807D3*
G1X17716Y19807D3*
G1X13780Y19610D3*
G1X13976Y19610D3*
G1X14370Y19610D3*
G1X14567Y19610D3*
G1X16929Y19610D3*
G1X17126Y19610D3*
G1X17520Y19610D3*
G1X17716Y19610D3*
G1X13976Y19414D3*
G1X14370Y19414D3*
G1X14567Y19414D3*
G1X16929Y19414D3*
G1X17126Y19414D3*
G1X17520Y19414D3*
G1X17716Y19414D3*
G1X13976Y19217D3*
G1X14370Y19217D3*
G1X14567Y19217D3*
G1X16929Y19217D3*
G1X17126Y19217D3*
G1X17520Y19217D3*
G1X17716Y19217D3*
G1X14370Y19020D3*
G1X14567Y19020D3*
G1X16929Y19020D3*
G1X17126Y19020D3*
G1X17520Y19020D3*
G1X17716Y19020D3*
G1X13976Y18823D3*
G1X14370Y18823D3*
G1X14567Y18823D3*
G1X16929Y18823D3*
G1X17126Y18823D3*
G1X17520Y18823D3*
G1X17716Y18823D3*
G1X13780Y18626D3*
G1X13976Y18626D3*
G1X14370Y18626D3*
G1X14567Y18626D3*
G1X16929Y18626D3*
G1X17126Y18626D3*
G1X17520Y18626D3*
G1X17716Y18626D3*
G1X13780Y18429D3*
G1X13976Y18429D3*
G1X14370Y18429D3*
G1X14567Y18429D3*
G1X16929Y18429D3*
G1X17126Y18429D3*
G1X17520Y18429D3*
G1X17716Y18429D3*
G1X13976Y18233D3*
G1X14370Y18233D3*
G1X14567Y18233D3*
G1X16929Y18233D3*
G1X17126Y18233D3*
G1X13780Y18036D3*
G1X13976Y18036D3*
G1X14370Y18036D3*
G1X14567Y18036D3*
G1X16929Y18036D3*
G1X17126Y18036D3*
G1X17520Y18036D3*
G1X13780Y17839D3*
G1X13976Y17839D3*
G1X14370Y17839D3*
G1X14567Y17839D3*
G1X16929Y17839D3*
G1X17126Y17839D3*
G1X17520Y17839D3*
G1X17716Y17839D3*
G1X13780Y17642D3*
G1X13976Y17642D3*
G1X14370Y17642D3*
G1X14567Y17642D3*
G1X16929Y17642D3*
G1X17126Y17642D3*
G1X17520Y17642D3*
G1X17716Y17642D3*
G1X13780Y17445D3*
G1X13976Y17445D3*
G1X14370Y17445D3*
G1X14567Y17445D3*
G1X14764Y17445D3*
G1X14961Y17445D3*
G1X15157Y17445D3*
G1X15354Y17445D3*
G1X15551Y17445D3*
G1X15748Y17445D3*
G1X15945Y17445D3*
G1X16142Y17445D3*
G1X16339Y17445D3*
G1X16535Y17445D3*
G1X16732Y17445D3*
G1X16929Y17445D3*
G1X17126Y17445D3*
G1X17520Y17445D3*
G1X17716Y17445D3*
G1X13976Y17248D3*
G1X14370Y17248D3*
G1X14567Y17248D3*
G1X14764Y17248D3*
G1X14961Y17248D3*
G1X15157Y17248D3*
G1X15354Y17248D3*
G1X15551Y17248D3*
G1X15748Y17248D3*
G1X15945Y17248D3*
G1X16142Y17248D3*
G1X16339Y17248D3*
G1X16535Y17248D3*
G1X16732Y17248D3*
G1X16929Y17248D3*
G1X17126Y17248D3*
G1X17520Y17248D3*
G1X17716Y17248D3*
G1X13976Y17051D3*
G1X17520Y17051D3*
G1X17716Y17051D3*
G1X13976Y16855D3*
G1X14173Y16855D3*
G1X14370Y16855D3*
G1X14567Y16855D3*
G1X14764Y16855D3*
G1X14961Y16855D3*
G1X15157Y16855D3*
G1X15354Y16855D3*
G1X15551Y16855D3*
G1X15748Y16855D3*
G1X15945Y16855D3*
G1X16142Y16855D3*
G1X16339Y16855D3*
G1X16535Y16855D3*
G1X16732Y16855D3*
G1X16929Y16855D3*
G1X17126Y16855D3*
G1X17323Y16855D3*
G1X17520Y16855D3*
G1X17716Y16855D3*
G1X13976Y16658D3*
G1X14173Y16658D3*
G1X14370Y16658D3*
G1X14567Y16658D3*
G1X14764Y16658D3*
G1X14961Y16658D3*
G1X15157Y16658D3*
G1X15354Y16658D3*
G1X15551Y16658D3*
G1X15748Y16658D3*
G1X15945Y16658D3*
G1X16142Y16658D3*
G1X16339Y16658D3*
G1X16535Y16658D3*
G1X16732Y16658D3*
G1X16929Y16658D3*
G1X17126Y16658D3*
G1X17323Y16658D3*
G1X17520Y16658D3*
G1X17716Y16658D3*
G1X14567Y20004D3*
G54D261*
G1X19608Y22906D3*
G1X18938Y22906D3*
G54D281*
G1X18509Y20424D3*
G1X18509Y21113D3*
G54D282*
G1X19848Y17266D3*
G1X19848Y17876D3*
G1X19198Y17266D3*
G1X19198Y17876D3*
G54D283*
G1X13378Y14747D3*
G1X12877Y14246D3*
G1X14019Y14107D3*
G1X13518Y13606D3*
G54D284*
G1X20702Y16198D3*
G1X20702Y16394D3*
G1X20702Y18363D3*
G1X20702Y18166D3*
G1X20702Y17969D3*
G1X20702Y17772D3*
G1X20702Y17576D3*
G1X20702Y17379D3*
G1X20702Y17182D3*
G1X20702Y16985D3*
G1X20702Y16788D3*
G1X20702Y16591D3*
G54D256*
G1X21194Y19062D3*
G1X21194Y15499D3*
G54D285*
G1X14348Y21876D3*
G54D286*
G1X14860Y21404D3*
G1X14860Y21719D3*
G1X14860Y22034D3*
G1X14860Y22349D3*
G1X13836Y22349D3*
G1X13836Y22034D3*
G1X13836Y21719D3*
G1X13836Y21404D3*
G54D287*
G1X19625Y14376D3*
G1X19625Y14120D3*
G1X19625Y13864D3*
G1X18798Y13864D3*
G1X18798Y14120D3*
G1X18798Y14376D3*
G54D288*
G1X20148Y19979D3*
G1X20148Y19073D3*
G54D252*
G1X34316Y1470D3*
G1X34316Y1844D3*
G1X28716Y1920D3*
G1X28716Y2294D3*
G1X31216Y3844D3*
G1X31216Y3470D3*
G1X35216Y9044D3*
G1X35216Y8670D3*
G1X34816Y8670D3*
G1X34816Y9044D3*
G1X33816Y1470D3*
G1X33816Y1844D3*
G1X28716Y2920D3*
G1X28716Y3294D3*
G1X29116Y3294D3*
G1X29116Y2920D3*
G1X28316Y2920D3*
G1X28316Y3294D3*
G1X27116Y3294D3*
G1X27116Y2920D3*
G1X26716Y2920D3*
G1X26716Y3294D3*
G1X31616Y2920D3*
G1X31616Y3294D3*
G1X28316Y1920D3*
G1X28316Y2294D3*
G1X27916Y2294D3*
G1X27916Y1920D3*
G1X26716Y1120D3*
G1X26716Y1494D3*
G1X26716Y2020D3*
G1X26716Y2394D3*
G1X35216Y10044D3*
G1X35216Y9670D3*
G1X34816Y10044D3*
G1X34816Y9670D3*
G1X31177Y9137D3*
G1X31177Y8763D3*
G1X31577Y8763D3*
G1X31577Y9137D3*
G54D251*
G1X27416Y1503D3*
G1X27416Y2503D3*
G1X33566Y9653D3*
G1X27416Y912D3*
G1X27416Y1912D3*
G1X33566Y9062D3*
G54D250*
G1X30271Y4407D3*
G1X28721Y1107D3*
G1X30861Y4407D3*
G1X29311Y1107D3*
G54D249*
G1X30653Y3907D3*
G1X30279Y3907D3*
G1X30653Y5307D3*
G1X30279Y5307D3*
G1X25153Y9457D3*
G1X24779Y9457D3*
G1X28903Y3907D3*
G1X28529Y3907D3*
G1X27803Y10657D3*
G1X27429Y10657D3*
G1X27803Y11057D3*
G1X27429Y11057D3*
G1X27929Y1107D3*
G1X28303Y1107D3*
G1X29129Y1907D3*
G1X29503Y1907D3*
G1X27379Y9607D3*
G1X27753Y9607D3*
G1X30279Y4907D3*
G1X30653Y4907D3*
G1X31479Y4757D3*
G1X31853Y4757D3*
G1X25103Y3507D3*
G1X24729Y3507D3*
G1X25629Y3507D3*
G1X26003Y3507D3*
G1X34403Y9057D3*
G1X34029Y9057D3*
G1X28129Y9207D3*
G1X28503Y9207D3*
G1X27529Y3307D3*
G1X27903Y3307D3*
G1X27529Y2907D3*
G1X27903Y2907D3*
G1X29329Y3907D3*
G1X29703Y3907D3*
G1X30653Y7507D3*
G1X30279Y7507D3*
G1X29903Y2307D3*
G1X29529Y2307D3*
G1X29529Y2707D3*
G1X29903Y2707D3*
G1X29879Y1907D3*
G1X30253Y1907D3*
G1X25153Y9057D3*
G1X24779Y9057D3*
G1X28503Y9607D3*
G1X28129Y9607D3*
G1X27753Y9207D3*
G1X27379Y9207D3*
G1X31853Y6457D3*
G1X31479Y6457D3*
G1X30279Y7907D3*
G1X30653Y7907D3*
G1X34403Y9657D3*
G1X34029Y9657D3*
G54D148*
G1X25748Y7445D3*
G1X25748Y5279D3*
G1X25748Y6264D3*
G1X25748Y5082D3*
G1X25748Y4886D3*
G1X25748Y6854D3*
G1X25748Y4689D3*
G1X25748Y8626D3*
G1X25944Y8626D3*
G1X26141Y8626D3*
G1X26732Y8626D3*
G1X26535Y8626D3*
G1X27125Y8626D3*
G1X27322Y8626D3*
G1X27519Y8626D3*
G1X27716Y8626D3*
G1X28110Y8626D3*
G1X28307Y8626D3*
G1X28503Y8626D3*
G1X28700Y8626D3*
G1X28897Y8626D3*
G1X29094Y8626D3*
G1X29291Y8626D3*
G1X29488Y8626D3*
G1X29684Y8626D3*
G1X25748Y8429D3*
G1X25944Y8429D3*
G1X26141Y8429D3*
G1X26338Y8429D3*
G1X26535Y8429D3*
G1X26732Y8429D3*
G1X26929Y8429D3*
G1X27125Y8429D3*
G1X27322Y8429D3*
G1X27519Y8429D3*
G1X27716Y8429D3*
G1X27913Y8429D3*
G1X28307Y8429D3*
G1X28700Y8429D3*
G1X28897Y8429D3*
G1X29094Y8429D3*
G1X29291Y8429D3*
G1X29488Y8429D3*
G1X29684Y8429D3*
G1X25748Y8232D3*
G1X25944Y8232D3*
G1X29488Y8232D3*
G1X29684Y8232D3*
G1X25748Y8035D3*
G1X25944Y8035D3*
G1X26338Y8035D3*
G1X26732Y8035D3*
G1X26929Y8035D3*
G1X27125Y8035D3*
G1X27322Y8035D3*
G1X27519Y8035D3*
G1X27716Y8035D3*
G1X27913Y8035D3*
G1X28110Y8035D3*
G1X28307Y8035D3*
G1X28503Y8035D3*
G1X28700Y8035D3*
G1X28897Y8035D3*
G1X29094Y8035D3*
G1X29488Y8035D3*
G1X29684Y8035D3*
G1X25748Y7838D3*
G1X25944Y7838D3*
G1X26338Y7838D3*
G1X26535Y7838D3*
G1X26732Y7838D3*
G1X26929Y7838D3*
G1X27125Y7838D3*
G1X27322Y7838D3*
G1X27519Y7838D3*
G1X27716Y7838D3*
G1X27913Y7838D3*
G1X28307Y7838D3*
G1X28503Y7838D3*
G1X28700Y7838D3*
G1X28897Y7838D3*
G1X29094Y7838D3*
G1X29488Y7838D3*
G1X29684Y7838D3*
G1X25748Y7641D3*
G1X25944Y7641D3*
G1X26338Y7641D3*
G1X26535Y7641D3*
G1X28897Y7641D3*
G1X29094Y7641D3*
G1X29488Y7641D3*
G1X29684Y7641D3*
G1X25944Y7445D3*
G1X26338Y7445D3*
G1X26535Y7445D3*
G1X28897Y7445D3*
G1X29094Y7445D3*
G1X29488Y7445D3*
G1X29684Y7445D3*
G1X25944Y7248D3*
G1X26338Y7248D3*
G1X26535Y7248D3*
G1X28897Y7248D3*
G1X29094Y7248D3*
G1X29488Y7248D3*
G1X29684Y7248D3*
G1X26338Y7051D3*
G1X26535Y7051D3*
G1X28897Y7051D3*
G1X29094Y7051D3*
G1X29488Y7051D3*
G1X29684Y7051D3*
G1X25944Y6854D3*
G1X26338Y6854D3*
G1X26535Y6854D3*
G1X28897Y6854D3*
G1X29094Y6854D3*
G1X29488Y6854D3*
G1X29684Y6854D3*
G1X25748Y6657D3*
G1X25944Y6657D3*
G1X26338Y6657D3*
G1X26535Y6657D3*
G1X28897Y6657D3*
G1X29094Y6657D3*
G1X29488Y6657D3*
G1X29684Y6657D3*
G1X25748Y6460D3*
G1X25944Y6460D3*
G1X26338Y6460D3*
G1X26535Y6460D3*
G1X28897Y6460D3*
G1X29094Y6460D3*
G1X29488Y6460D3*
G1X29684Y6460D3*
G1X25944Y6264D3*
G1X26338Y6264D3*
G1X26535Y6264D3*
G1X28897Y6264D3*
G1X29094Y6264D3*
G1X25748Y6067D3*
G1X25944Y6067D3*
G1X26338Y6067D3*
G1X26535Y6067D3*
G1X28897Y6067D3*
G1X29094Y6067D3*
G1X29488Y6067D3*
G1X25748Y5870D3*
G1X25944Y5870D3*
G1X26338Y5870D3*
G1X26535Y5870D3*
G1X28897Y5870D3*
G1X29094Y5870D3*
G1X29488Y5870D3*
G1X29684Y5870D3*
G1X25748Y5673D3*
G1X25944Y5673D3*
G1X26338Y5673D3*
G1X26535Y5673D3*
G1X28897Y5673D3*
G1X29094Y5673D3*
G1X29488Y5673D3*
G1X29684Y5673D3*
G1X25748Y5476D3*
G1X25944Y5476D3*
G1X26338Y5476D3*
G1X26535Y5476D3*
G1X26732Y5476D3*
G1X26929Y5476D3*
G1X27125Y5476D3*
G1X27322Y5476D3*
G1X27519Y5476D3*
G1X27716Y5476D3*
G1X27913Y5476D3*
G1X28110Y5476D3*
G1X28307Y5476D3*
G1X28503Y5476D3*
G1X28700Y5476D3*
G1X28897Y5476D3*
G1X29094Y5476D3*
G1X29488Y5476D3*
G1X29684Y5476D3*
G1X25944Y5279D3*
G1X26338Y5279D3*
G1X26535Y5279D3*
G1X26732Y5279D3*
G1X26929Y5279D3*
G1X27125Y5279D3*
G1X27322Y5279D3*
G1X27519Y5279D3*
G1X27716Y5279D3*
G1X27913Y5279D3*
G1X28110Y5279D3*
G1X28307Y5279D3*
G1X28503Y5279D3*
G1X28700Y5279D3*
G1X28897Y5279D3*
G1X29094Y5279D3*
G1X29488Y5279D3*
G1X29684Y5279D3*
G1X25944Y5082D3*
G1X29488Y5082D3*
G1X29684Y5082D3*
G1X25944Y4886D3*
G1X26141Y4886D3*
G1X26338Y4886D3*
G1X26535Y4886D3*
G1X26732Y4886D3*
G1X26929Y4886D3*
G1X27125Y4886D3*
G1X27322Y4886D3*
G1X27519Y4886D3*
G1X27716Y4886D3*
G1X27913Y4886D3*
G1X28110Y4886D3*
G1X28307Y4886D3*
G1X28503Y4886D3*
G1X28700Y4886D3*
G1X28897Y4886D3*
G1X29094Y4886D3*
G1X29291Y4886D3*
G1X29488Y4886D3*
G1X29684Y4886D3*
G1X25944Y4689D3*
G1X26141Y4689D3*
G1X26338Y4689D3*
G1X26535Y4689D3*
G1X26732Y4689D3*
G1X26929Y4689D3*
G1X27125Y4689D3*
G1X27322Y4689D3*
G1X27519Y4689D3*
G1X27716Y4689D3*
G1X27913Y4689D3*
G1X28110Y4689D3*
G1X28307Y4689D3*
G1X28503Y4689D3*
G1X28700Y4689D3*
G1X28897Y4689D3*
G1X29094Y4689D3*
G1X29291Y4689D3*
G1X29488Y4689D3*
G1X29684Y4689D3*
G1X26535Y8035D3*
G54D261*
G1X31576Y10937D3*
G1X30906Y10937D3*
G54D281*
G1X30477Y8455D3*
G1X30477Y9144D3*
G54D282*
G1X31816Y5297D3*
G1X31816Y5907D3*
G1X31166Y5297D3*
G1X31166Y5907D3*
G54D283*
G1X25346Y2778D3*
G1X24845Y2277D3*
G1X25987Y2138D3*
G1X25486Y1637D3*
G54D284*
G1X32670Y4229D3*
G1X32670Y4425D3*
G1X32670Y6394D3*
G1X32670Y6197D3*
G1X32670Y6000D3*
G1X32670Y5803D3*
G1X32670Y5607D3*
G1X32670Y5410D3*
G1X32670Y5213D3*
G1X32670Y5016D3*
G1X32670Y4819D3*
G1X32670Y4622D3*
G54D256*
G1X33162Y7093D3*
G1X33162Y3530D3*
G54D285*
G1X26316Y9907D3*
G54D286*
G1X26828Y9435D3*
G1X26828Y9750D3*
G1X26828Y10065D3*
G1X26828Y10380D3*
G1X25804Y10380D3*
G1X25804Y10065D3*
G1X25804Y9750D3*
G1X25804Y9435D3*
G54D287*
G1X31593Y2407D3*
G1X31593Y2151D3*
G1X31593Y1895D3*
G1X30766Y1895D3*
G1X30766Y2151D3*
G1X30766Y2407D3*
G54D288*
G1X32116Y8010D3*
G1X32116Y7104D3*
G54D252*
G1X34316Y13439D3*
G1X34316Y13813D3*
G1X28716Y13889D3*
G1X28716Y14263D3*
G1X31216Y15813D3*
G1X31216Y15439D3*
G1X35216Y21013D3*
G1X35216Y20639D3*
G1X34816Y20639D3*
G1X34816Y21013D3*
G1X33816Y13439D3*
G1X33816Y13813D3*
G1X28716Y14889D3*
G1X28716Y15263D3*
G1X29116Y15263D3*
G1X29116Y14889D3*
G1X28316Y14889D3*
G1X28316Y15263D3*
G1X27116Y15263D3*
G1X27116Y14889D3*
G1X26716Y14889D3*
G1X26716Y15263D3*
G1X31616Y14889D3*
G1X31616Y15263D3*
G1X28316Y13889D3*
G1X28316Y14263D3*
G1X27916Y14263D3*
G1X27916Y13889D3*
G1X26716Y13089D3*
G1X26716Y13463D3*
G1X26716Y13989D3*
G1X26716Y14363D3*
G1X35216Y22013D3*
G1X35216Y21639D3*
G1X34816Y22013D3*
G1X34816Y21639D3*
G1X31177Y21106D3*
G1X31177Y20732D3*
G1X31577Y20732D3*
G1X31577Y21106D3*
G54D251*
G1X27416Y13472D3*
G1X27416Y14472D3*
G1X33566Y21622D3*
G1X27416Y12881D3*
G1X27416Y13881D3*
G1X33566Y21031D3*
G54D250*
G1X30271Y16376D3*
G1X28721Y13076D3*
G1X30861Y16376D3*
G1X29311Y13076D3*
G54D249*
G1X30653Y15876D3*
G1X30279Y15876D3*
G1X30653Y17276D3*
G1X30279Y17276D3*
G1X25153Y21426D3*
G1X24779Y21426D3*
G1X28903Y15876D3*
G1X28529Y15876D3*
G1X27803Y22626D3*
G1X27429Y22626D3*
G1X27803Y23026D3*
G1X27429Y23026D3*
G1X27929Y13076D3*
G1X28303Y13076D3*
G1X29129Y13876D3*
G1X29503Y13876D3*
G1X27379Y21576D3*
G1X27753Y21576D3*
G1X30279Y16876D3*
G1X30653Y16876D3*
G1X31479Y16726D3*
G1X31853Y16726D3*
G1X25103Y15476D3*
G1X24729Y15476D3*
G1X25629Y15476D3*
G1X26003Y15476D3*
G1X34403Y21026D3*
G1X34029Y21026D3*
G1X28129Y21176D3*
G1X28503Y21176D3*
G1X27529Y15276D3*
G1X27903Y15276D3*
G1X27529Y14876D3*
G1X27903Y14876D3*
G1X29329Y15876D3*
G1X29703Y15876D3*
G1X30653Y19476D3*
G1X30279Y19476D3*
G1X29903Y14276D3*
G1X29529Y14276D3*
G1X29529Y14676D3*
G1X29903Y14676D3*
G1X29879Y13876D3*
G1X30253Y13876D3*
G1X25153Y21026D3*
G1X24779Y21026D3*
G1X28503Y21576D3*
G1X28129Y21576D3*
G1X27753Y21176D3*
G1X27379Y21176D3*
G1X31853Y18426D3*
G1X31479Y18426D3*
G1X30279Y19876D3*
G1X30653Y19876D3*
G1X34403Y21626D3*
G1X34029Y21626D3*
G54D148*
G1X25748Y19414D3*
G1X25748Y17248D3*
G1X25748Y18233D3*
G1X25748Y17051D3*
G1X25748Y16855D3*
G1X25748Y18823D3*
G1X25748Y16658D3*
G1X25748Y20595D3*
G1X25944Y20595D3*
G1X26141Y20595D3*
G1X26732Y20595D3*
G1X26535Y20595D3*
G1X27125Y20595D3*
G1X27322Y20595D3*
G1X27519Y20595D3*
G1X27716Y20595D3*
G1X28110Y20595D3*
G1X28307Y20595D3*
G1X28503Y20595D3*
G1X28700Y20595D3*
G1X28897Y20595D3*
G1X29094Y20595D3*
G1X29291Y20595D3*
G1X29488Y20595D3*
G1X29684Y20595D3*
G1X25748Y20398D3*
G1X25944Y20398D3*
G1X26141Y20398D3*
G1X26338Y20398D3*
G1X26535Y20398D3*
G1X26732Y20398D3*
G1X26929Y20398D3*
G1X27125Y20398D3*
G1X27322Y20398D3*
G1X27519Y20398D3*
G1X27716Y20398D3*
G1X27913Y20398D3*
G1X28307Y20398D3*
G1X28700Y20398D3*
G1X28897Y20398D3*
G1X29094Y20398D3*
G1X29291Y20398D3*
G1X29488Y20398D3*
G1X29684Y20398D3*
G1X25748Y20201D3*
G1X25944Y20201D3*
G1X29488Y20201D3*
G1X29684Y20201D3*
G1X25748Y20004D3*
G1X25944Y20004D3*
G1X26338Y20004D3*
G1X26732Y20004D3*
G1X26929Y20004D3*
G1X27125Y20004D3*
G1X27322Y20004D3*
G1X27519Y20004D3*
G1X27716Y20004D3*
G1X27913Y20004D3*
G1X28110Y20004D3*
G1X28307Y20004D3*
G1X28503Y20004D3*
G1X28700Y20004D3*
G1X28897Y20004D3*
G1X29094Y20004D3*
G1X29488Y20004D3*
G1X29684Y20004D3*
G1X25748Y19807D3*
G1X25944Y19807D3*
G1X26338Y19807D3*
G1X26535Y19807D3*
G1X26732Y19807D3*
G1X26929Y19807D3*
G1X27125Y19807D3*
G1X27322Y19807D3*
G1X27519Y19807D3*
G1X27716Y19807D3*
G1X27913Y19807D3*
G1X28307Y19807D3*
G1X28503Y19807D3*
G1X28700Y19807D3*
G1X28897Y19807D3*
G1X29094Y19807D3*
G1X29488Y19807D3*
G1X29684Y19807D3*
G1X25748Y19610D3*
G1X25944Y19610D3*
G1X26338Y19610D3*
G1X26535Y19610D3*
G1X28897Y19610D3*
G1X29094Y19610D3*
G1X29488Y19610D3*
G1X29684Y19610D3*
G1X25944Y19414D3*
G1X26338Y19414D3*
G1X26535Y19414D3*
G1X28897Y19414D3*
G1X29094Y19414D3*
G1X29488Y19414D3*
G1X29684Y19414D3*
G1X25944Y19217D3*
G1X26338Y19217D3*
G1X26535Y19217D3*
G1X28897Y19217D3*
G1X29094Y19217D3*
G1X29488Y19217D3*
G1X29684Y19217D3*
G1X26338Y19020D3*
G1X26535Y19020D3*
G1X28897Y19020D3*
G1X29094Y19020D3*
G1X29488Y19020D3*
G1X29684Y19020D3*
G1X25944Y18823D3*
G1X26338Y18823D3*
G1X26535Y18823D3*
G1X28897Y18823D3*
G1X29094Y18823D3*
G1X29488Y18823D3*
G1X29684Y18823D3*
G1X25748Y18626D3*
G1X25944Y18626D3*
G1X26338Y18626D3*
G1X26535Y18626D3*
G1X28897Y18626D3*
G1X29094Y18626D3*
G1X29488Y18626D3*
G1X29684Y18626D3*
G1X25748Y18429D3*
G1X25944Y18429D3*
G1X26338Y18429D3*
G1X26535Y18429D3*
G1X28897Y18429D3*
G1X29094Y18429D3*
G1X29488Y18429D3*
G1X29684Y18429D3*
G1X25944Y18233D3*
G1X26338Y18233D3*
G1X26535Y18233D3*
G1X28897Y18233D3*
G1X29094Y18233D3*
G1X25748Y18036D3*
G1X25944Y18036D3*
G1X26338Y18036D3*
G1X26535Y18036D3*
G1X28897Y18036D3*
G1X29094Y18036D3*
G1X29488Y18036D3*
G1X25748Y17839D3*
G1X25944Y17839D3*
G1X26338Y17839D3*
G1X26535Y17839D3*
G1X28897Y17839D3*
G1X29094Y17839D3*
G1X29488Y17839D3*
G1X29684Y17839D3*
G1X25748Y17642D3*
G1X25944Y17642D3*
G1X26338Y17642D3*
G1X26535Y17642D3*
G1X28897Y17642D3*
G1X29094Y17642D3*
G1X29488Y17642D3*
G1X29684Y17642D3*
G1X25748Y17445D3*
G1X25944Y17445D3*
G1X26338Y17445D3*
G1X26535Y17445D3*
G1X26732Y17445D3*
G1X26929Y17445D3*
G1X27125Y17445D3*
G1X27322Y17445D3*
G1X27519Y17445D3*
G1X27716Y17445D3*
G1X27913Y17445D3*
G1X28110Y17445D3*
G1X28307Y17445D3*
G1X28503Y17445D3*
G1X28700Y17445D3*
G1X28897Y17445D3*
G1X29094Y17445D3*
G1X29488Y17445D3*
G1X29684Y17445D3*
G1X25944Y17248D3*
G1X26338Y17248D3*
G1X26535Y17248D3*
G1X26732Y17248D3*
G1X26929Y17248D3*
G1X27125Y17248D3*
G1X27322Y17248D3*
G1X27519Y17248D3*
G1X27716Y17248D3*
G1X27913Y17248D3*
G1X28110Y17248D3*
G1X28307Y17248D3*
G1X28503Y17248D3*
G1X28700Y17248D3*
G1X28897Y17248D3*
G1X29094Y17248D3*
G1X29488Y17248D3*
G1X29684Y17248D3*
G1X25944Y17051D3*
G1X29488Y17051D3*
G1X29684Y17051D3*
G1X25944Y16855D3*
G1X26141Y16855D3*
G1X26338Y16855D3*
G1X26535Y16855D3*
G1X26732Y16855D3*
G1X26929Y16855D3*
G1X27125Y16855D3*
G1X27322Y16855D3*
G1X27519Y16855D3*
G1X27716Y16855D3*
G1X27913Y16855D3*
G1X28110Y16855D3*
G1X28307Y16855D3*
G1X28503Y16855D3*
G1X28700Y16855D3*
G1X28897Y16855D3*
G1X29094Y16855D3*
G1X29291Y16855D3*
G1X29488Y16855D3*
G1X29684Y16855D3*
G1X25944Y16658D3*
G1X26141Y16658D3*
G1X26338Y16658D3*
G1X26535Y16658D3*
G1X26732Y16658D3*
G1X26929Y16658D3*
G1X27125Y16658D3*
G1X27322Y16658D3*
G1X27519Y16658D3*
G1X27716Y16658D3*
G1X27913Y16658D3*
G1X28110Y16658D3*
G1X28307Y16658D3*
G1X28503Y16658D3*
G1X28700Y16658D3*
G1X28897Y16658D3*
G1X29094Y16658D3*
G1X29291Y16658D3*
G1X29488Y16658D3*
G1X29684Y16658D3*
G1X26535Y20004D3*
G54D261*
G1X31576Y22906D3*
G1X30906Y22906D3*
G54D281*
G1X30477Y20424D3*
G1X30477Y21113D3*
G54D282*
G1X31816Y17266D3*
G1X31816Y17876D3*
G1X31166Y17266D3*
G1X31166Y17876D3*
G54D283*
G1X25346Y14747D3*
G1X24845Y14246D3*
G1X25987Y14107D3*
G1X25486Y13606D3*
G54D284*
G1X32670Y16198D3*
G1X32670Y16394D3*
G1X32670Y18363D3*
G1X32670Y18166D3*
G1X32670Y17969D3*
G1X32670Y17772D3*
G1X32670Y17576D3*
G1X32670Y17379D3*
G1X32670Y17182D3*
G1X32670Y16985D3*
G1X32670Y16788D3*
G1X32670Y16591D3*
G54D256*
G1X33162Y19062D3*
G1X33162Y15499D3*
G54D285*
G1X26316Y21876D3*
G54D286*
G1X26828Y21404D3*
G1X26828Y21719D3*
G1X26828Y22034D3*
G1X26828Y22349D3*
G1X25804Y22349D3*
G1X25804Y22034D3*
G1X25804Y21719D3*
G1X25804Y21404D3*
G54D287*
G1X31593Y14376D3*
G1X31593Y14120D3*
G1X31593Y13864D3*
G1X30766Y13864D3*
G1X30766Y14120D3*
G1X30766Y14376D3*
G54D288*
G1X32116Y19979D3*
G1X32116Y19073D3*
G54D252*
G1X22348Y25407D3*
G1X22348Y25781D3*
G1X16748Y25857D3*
G1X16748Y26231D3*
G1X19248Y27781D3*
G1X19248Y27407D3*
G1X23248Y32981D3*
G1X23248Y32607D3*
G1X22848Y32607D3*
G1X22848Y32981D3*
G1X21848Y25407D3*
G1X21848Y25781D3*
G1X16748Y26857D3*
G1X16748Y27231D3*
G1X17148Y27231D3*
G1X17148Y26857D3*
G1X16348Y26857D3*
G1X16348Y27231D3*
G1X15148Y27231D3*
G1X15148Y26857D3*
G1X14748Y26857D3*
G1X14748Y27231D3*
G1X19648Y26857D3*
G1X19648Y27231D3*
G1X16348Y25857D3*
G1X16348Y26231D3*
G1X15948Y26231D3*
G1X15948Y25857D3*
G1X14748Y25057D3*
G1X14748Y25431D3*
G1X14748Y25957D3*
G1X14748Y26331D3*
G1X23248Y33981D3*
G1X23248Y33607D3*
G1X22848Y33981D3*
G1X22848Y33607D3*
G1X19209Y33074D3*
G1X19209Y32700D3*
G1X19609Y32700D3*
G1X19609Y33074D3*
G54D251*
G1X15448Y25440D3*
G1X15448Y26440D3*
G1X21598Y33590D3*
G1X15448Y24849D3*
G1X15448Y25849D3*
G1X21598Y32999D3*
G54D250*
G1X18303Y28344D3*
G1X16753Y25044D3*
G1X18893Y28344D3*
G1X17343Y25044D3*
G54D249*
G1X18685Y27844D3*
G1X18311Y27844D3*
G1X18685Y29244D3*
G1X18311Y29244D3*
G1X13185Y33394D3*
G1X12811Y33394D3*
G1X16935Y27844D3*
G1X16561Y27844D3*
G1X15835Y34594D3*
G1X15461Y34594D3*
G1X15835Y34994D3*
G1X15461Y34994D3*
G1X15961Y25044D3*
G1X16335Y25044D3*
G1X17161Y25844D3*
G1X17535Y25844D3*
G1X15411Y33544D3*
G1X15785Y33544D3*
G1X18311Y28844D3*
G1X18685Y28844D3*
G1X19511Y28694D3*
G1X19885Y28694D3*
G1X13135Y27444D3*
G1X12761Y27444D3*
G1X13661Y27444D3*
G1X14035Y27444D3*
G1X22435Y32994D3*
G1X22061Y32994D3*
G1X16161Y33144D3*
G1X16535Y33144D3*
G1X15561Y27244D3*
G1X15935Y27244D3*
G1X15561Y26844D3*
G1X15935Y26844D3*
G1X17361Y27844D3*
G1X17735Y27844D3*
G1X18685Y31444D3*
G1X18311Y31444D3*
G1X17935Y26244D3*
G1X17561Y26244D3*
G1X17561Y26644D3*
G1X17935Y26644D3*
G1X17911Y25844D3*
G1X18285Y25844D3*
G1X13185Y32994D3*
G1X12811Y32994D3*
G1X16535Y33544D3*
G1X16161Y33544D3*
G1X15785Y33144D3*
G1X15411Y33144D3*
G1X19885Y30394D3*
G1X19511Y30394D3*
G1X18311Y31844D3*
G1X18685Y31844D3*
G1X22435Y33594D3*
G1X22061Y33594D3*
G54D148*
G1X13780Y31382D3*
G1X13780Y29216D3*
G1X13780Y30201D3*
G1X13780Y29019D3*
G1X13780Y28823D3*
G1X13780Y30791D3*
G1X13780Y28626D3*
G1X13780Y32563D3*
G1X13976Y32563D3*
G1X14173Y32563D3*
G1X14764Y32563D3*
G1X14567Y32563D3*
G1X15157Y32563D3*
G1X15354Y32563D3*
G1X15551Y32563D3*
G1X15748Y32563D3*
G1X16142Y32563D3*
G1X16339Y32563D3*
G1X16535Y32563D3*
G1X16732Y32563D3*
G1X16929Y32563D3*
G1X17126Y32563D3*
G1X17323Y32563D3*
G1X17520Y32563D3*
G1X17716Y32563D3*
G1X13780Y32366D3*
G1X13976Y32366D3*
G1X14173Y32366D3*
G1X14370Y32366D3*
G1X14567Y32366D3*
G1X14764Y32366D3*
G1X14961Y32366D3*
G1X15157Y32366D3*
G1X15354Y32366D3*
G1X15551Y32366D3*
G1X15748Y32366D3*
G1X15945Y32366D3*
G1X16339Y32366D3*
G1X16732Y32366D3*
G1X16929Y32366D3*
G1X17126Y32366D3*
G1X17323Y32366D3*
G1X17520Y32366D3*
G1X17716Y32366D3*
G1X13780Y32169D3*
G1X13976Y32169D3*
G1X17520Y32169D3*
G1X17716Y32169D3*
G1X13780Y31972D3*
G1X13976Y31972D3*
G1X14370Y31972D3*
G1X14764Y31972D3*
G1X14961Y31972D3*
G1X15157Y31972D3*
G1X15354Y31972D3*
G1X15551Y31972D3*
G1X15748Y31972D3*
G1X15945Y31972D3*
G1X16142Y31972D3*
G1X16339Y31972D3*
G1X16535Y31972D3*
G1X16732Y31972D3*
G1X16929Y31972D3*
G1X17126Y31972D3*
G1X17520Y31972D3*
G1X17716Y31972D3*
G1X13780Y31775D3*
G1X13976Y31775D3*
G1X14370Y31775D3*
G1X14567Y31775D3*
G1X14764Y31775D3*
G1X14961Y31775D3*
G1X15157Y31775D3*
G1X15354Y31775D3*
G1X15551Y31775D3*
G1X15748Y31775D3*
G1X15945Y31775D3*
G1X16339Y31775D3*
G1X16535Y31775D3*
G1X16732Y31775D3*
G1X16929Y31775D3*
G1X17126Y31775D3*
G1X17520Y31775D3*
G1X17716Y31775D3*
G1X13780Y31578D3*
G1X13976Y31578D3*
G1X14370Y31578D3*
G1X14567Y31578D3*
G1X16929Y31578D3*
G1X17126Y31578D3*
G1X17520Y31578D3*
G1X17716Y31578D3*
G1X13976Y31382D3*
G1X14370Y31382D3*
G1X14567Y31382D3*
G1X16929Y31382D3*
G1X17126Y31382D3*
G1X17520Y31382D3*
G1X17716Y31382D3*
G1X13976Y31185D3*
G1X14370Y31185D3*
G1X14567Y31185D3*
G1X16929Y31185D3*
G1X17126Y31185D3*
G1X17520Y31185D3*
G1X17716Y31185D3*
G1X14370Y30988D3*
G1X14567Y30988D3*
G1X16929Y30988D3*
G1X17126Y30988D3*
G1X17520Y30988D3*
G1X17716Y30988D3*
G1X13976Y30791D3*
G1X14370Y30791D3*
G1X14567Y30791D3*
G1X16929Y30791D3*
G1X17126Y30791D3*
G1X17520Y30791D3*
G1X17716Y30791D3*
G1X13780Y30594D3*
G1X13976Y30594D3*
G1X14370Y30594D3*
G1X14567Y30594D3*
G1X16929Y30594D3*
G1X17126Y30594D3*
G1X17520Y30594D3*
G1X17716Y30594D3*
G1X13780Y30397D3*
G1X13976Y30397D3*
G1X14370Y30397D3*
G1X14567Y30397D3*
G1X16929Y30397D3*
G1X17126Y30397D3*
G1X17520Y30397D3*
G1X17716Y30397D3*
G1X13976Y30201D3*
G1X14370Y30201D3*
G1X14567Y30201D3*
G1X16929Y30201D3*
G1X17126Y30201D3*
G1X13780Y30004D3*
G1X13976Y30004D3*
G1X14370Y30004D3*
G1X14567Y30004D3*
G1X16929Y30004D3*
G1X17126Y30004D3*
G1X17520Y30004D3*
G1X13780Y29807D3*
G1X13976Y29807D3*
G1X14370Y29807D3*
G1X14567Y29807D3*
G1X16929Y29807D3*
G1X17126Y29807D3*
G1X17520Y29807D3*
G1X17716Y29807D3*
G1X13780Y29610D3*
G1X13976Y29610D3*
G1X14370Y29610D3*
G1X14567Y29610D3*
G1X16929Y29610D3*
G1X17126Y29610D3*
G1X17520Y29610D3*
G1X17716Y29610D3*
G1X13780Y29413D3*
G1X13976Y29413D3*
G1X14370Y29413D3*
G1X14567Y29413D3*
G1X14764Y29413D3*
G1X14961Y29413D3*
G1X15157Y29413D3*
G1X15354Y29413D3*
G1X15551Y29413D3*
G1X15748Y29413D3*
G1X15945Y29413D3*
G1X16142Y29413D3*
G1X16339Y29413D3*
G1X16535Y29413D3*
G1X16732Y29413D3*
G1X16929Y29413D3*
G1X17126Y29413D3*
G1X17520Y29413D3*
G1X17716Y29413D3*
G1X13976Y29216D3*
G1X14370Y29216D3*
G1X14567Y29216D3*
G1X14764Y29216D3*
G1X14961Y29216D3*
G1X15157Y29216D3*
G1X15354Y29216D3*
G1X15551Y29216D3*
G1X15748Y29216D3*
G1X15945Y29216D3*
G1X16142Y29216D3*
G1X16339Y29216D3*
G1X16535Y29216D3*
G1X16732Y29216D3*
G1X16929Y29216D3*
G1X17126Y29216D3*
G1X17520Y29216D3*
G1X17716Y29216D3*
G1X13976Y29019D3*
G1X17520Y29019D3*
G1X17716Y29019D3*
G1X13976Y28823D3*
G1X14173Y28823D3*
G1X14370Y28823D3*
G1X14567Y28823D3*
G1X14764Y28823D3*
G1X14961Y28823D3*
G1X15157Y28823D3*
G1X15354Y28823D3*
G1X15551Y28823D3*
G1X15748Y28823D3*
G1X15945Y28823D3*
G1X16142Y28823D3*
G1X16339Y28823D3*
G1X16535Y28823D3*
G1X16732Y28823D3*
G1X16929Y28823D3*
G1X17126Y28823D3*
G1X17323Y28823D3*
G1X17520Y28823D3*
G1X17716Y28823D3*
G1X13976Y28626D3*
G1X14173Y28626D3*
G1X14370Y28626D3*
G1X14567Y28626D3*
G1X14764Y28626D3*
G1X14961Y28626D3*
G1X15157Y28626D3*
G1X15354Y28626D3*
G1X15551Y28626D3*
G1X15748Y28626D3*
G1X15945Y28626D3*
G1X16142Y28626D3*
G1X16339Y28626D3*
G1X16535Y28626D3*
G1X16732Y28626D3*
G1X16929Y28626D3*
G1X17126Y28626D3*
G1X17323Y28626D3*
G1X17520Y28626D3*
G1X17716Y28626D3*
G1X14567Y31972D3*
G54D261*
G1X19608Y34874D3*
G1X18938Y34874D3*
G54D281*
G1X18509Y32392D3*
G1X18509Y33081D3*
G54D282*
G1X19848Y29234D3*
G1X19848Y29844D3*
G1X19198Y29234D3*
G1X19198Y29844D3*
G54D283*
G1X13378Y26715D3*
G1X12877Y26214D3*
G1X14019Y26075D3*
G1X13518Y25574D3*
G54D284*
G1X20702Y28166D3*
G1X20702Y28362D3*
G1X20702Y30331D3*
G1X20702Y30134D3*
G1X20702Y29937D3*
G1X20702Y29740D3*
G1X20702Y29544D3*
G1X20702Y29347D3*
G1X20702Y29150D3*
G1X20702Y28953D3*
G1X20702Y28756D3*
G1X20702Y28559D3*
G54D256*
G1X21194Y31030D3*
G1X21194Y27467D3*
G54D285*
G1X14348Y33844D3*
G54D286*
G1X14860Y33372D3*
G1X14860Y33687D3*
G1X14860Y34002D3*
G1X14860Y34317D3*
G1X13836Y34317D3*
G1X13836Y34002D3*
G1X13836Y33687D3*
G1X13836Y33372D3*
G54D287*
G1X19625Y26344D3*
G1X19625Y26088D3*
G1X19625Y25832D3*
G1X18798Y25832D3*
G1X18798Y26088D3*
G1X18798Y26344D3*
G54D288*
G1X20148Y31947D3*
G1X20148Y31041D3*
G54D252*
G1X34316Y25407D3*
G1X34316Y25781D3*
G1X28716Y25857D3*
G1X28716Y26231D3*
G1X31216Y27781D3*
G1X31216Y27407D3*
G1X35216Y32981D3*
G1X35216Y32607D3*
G1X34816Y32607D3*
G1X34816Y32981D3*
G1X33816Y25407D3*
G1X33816Y25781D3*
G1X28716Y26857D3*
G1X28716Y27231D3*
G1X29116Y27231D3*
G1X29116Y26857D3*
G1X28316Y26857D3*
G1X28316Y27231D3*
G1X27116Y27231D3*
G1X27116Y26857D3*
G1X26716Y26857D3*
G1X26716Y27231D3*
G1X31616Y26857D3*
G1X31616Y27231D3*
G1X28316Y25857D3*
G1X28316Y26231D3*
G1X27916Y26231D3*
G1X27916Y25857D3*
G1X26716Y25057D3*
G1X26716Y25431D3*
G1X26716Y25957D3*
G1X26716Y26331D3*
G1X35216Y33981D3*
G1X35216Y33607D3*
G1X34816Y33981D3*
G1X34816Y33607D3*
G1X31177Y33074D3*
G1X31177Y32700D3*
G1X31577Y32700D3*
G1X31577Y33074D3*
G54D251*
G1X27416Y25440D3*
G1X27416Y26440D3*
G1X33566Y33590D3*
G1X27416Y24849D3*
G1X27416Y25849D3*
G1X33566Y32999D3*
G54D250*
G1X30271Y28344D3*
G1X28721Y25044D3*
G1X30861Y28344D3*
G1X29311Y25044D3*
G54D249*
G1X30653Y27844D3*
G1X30279Y27844D3*
G1X30653Y29244D3*
G1X30279Y29244D3*
G1X25153Y33394D3*
G1X24779Y33394D3*
G1X28903Y27844D3*
G1X28529Y27844D3*
G1X27803Y34594D3*
G1X27429Y34594D3*
G1X27803Y34994D3*
G1X27429Y34994D3*
G1X27929Y25044D3*
G1X28303Y25044D3*
G1X29129Y25844D3*
G1X29503Y25844D3*
G1X27379Y33544D3*
G1X27753Y33544D3*
G1X30279Y28844D3*
G1X30653Y28844D3*
G1X31479Y28694D3*
G1X31853Y28694D3*
G1X25103Y27444D3*
G1X24729Y27444D3*
G1X25629Y27444D3*
G1X26003Y27444D3*
G1X34403Y32994D3*
G1X34029Y32994D3*
G1X28129Y33144D3*
G1X28503Y33144D3*
G1X27529Y27244D3*
G1X27903Y27244D3*
G1X27529Y26844D3*
G1X27903Y26844D3*
G1X29329Y27844D3*
G1X29703Y27844D3*
G1X30653Y31444D3*
G1X30279Y31444D3*
G1X29903Y26244D3*
G1X29529Y26244D3*
G1X29529Y26644D3*
G1X29903Y26644D3*
G1X29879Y25844D3*
G1X30253Y25844D3*
G1X25153Y32994D3*
G1X24779Y32994D3*
G1X28503Y33544D3*
G1X28129Y33544D3*
G1X27753Y33144D3*
G1X27379Y33144D3*
G1X31853Y30394D3*
G1X31479Y30394D3*
G1X30279Y31844D3*
G1X30653Y31844D3*
G1X34403Y33594D3*
G1X34029Y33594D3*
G54D148*
G1X25748Y31382D3*
G1X25748Y29216D3*
G1X25748Y30201D3*
G1X25748Y29019D3*
G1X25748Y28823D3*
G1X25748Y30791D3*
G1X25748Y28626D3*
G1X25748Y32563D3*
G1X25944Y32563D3*
G1X26141Y32563D3*
G1X26732Y32563D3*
G1X26535Y32563D3*
G1X27125Y32563D3*
G1X27322Y32563D3*
G1X27519Y32563D3*
G1X27716Y32563D3*
G1X28110Y32563D3*
G1X28307Y32563D3*
G1X28503Y32563D3*
G1X28700Y32563D3*
G1X28897Y32563D3*
G1X29094Y32563D3*
G1X29291Y32563D3*
G1X29488Y32563D3*
G1X29684Y32563D3*
G1X25748Y32366D3*
G1X25944Y32366D3*
G1X26141Y32366D3*
G1X26338Y32366D3*
G1X26535Y32366D3*
G1X26732Y32366D3*
G1X26929Y32366D3*
G1X27125Y32366D3*
G1X27322Y32366D3*
G1X27519Y32366D3*
G1X27716Y32366D3*
G1X27913Y32366D3*
G1X28307Y32366D3*
G1X28700Y32366D3*
G1X28897Y32366D3*
G1X29094Y32366D3*
G1X29291Y32366D3*
G1X29488Y32366D3*
G1X29684Y32366D3*
G1X25748Y32169D3*
G1X25944Y32169D3*
G1X29488Y32169D3*
G1X29684Y32169D3*
G1X25748Y31972D3*
G1X25944Y31972D3*
G1X26338Y31972D3*
G1X26732Y31972D3*
G1X26929Y31972D3*
G1X27125Y31972D3*
G1X27322Y31972D3*
G1X27519Y31972D3*
G1X27716Y31972D3*
G1X27913Y31972D3*
G1X28110Y31972D3*
G1X28307Y31972D3*
G1X28503Y31972D3*
G1X28700Y31972D3*
G1X28897Y31972D3*
G1X29094Y31972D3*
G1X29488Y31972D3*
G1X29684Y31972D3*
G1X25748Y31775D3*
G1X25944Y31775D3*
G1X26338Y31775D3*
G1X26535Y31775D3*
G1X26732Y31775D3*
G1X26929Y31775D3*
G1X27125Y31775D3*
G1X27322Y31775D3*
G1X27519Y31775D3*
G1X27716Y31775D3*
G1X27913Y31775D3*
G1X28307Y31775D3*
G1X28503Y31775D3*
G1X28700Y31775D3*
G1X28897Y31775D3*
G1X29094Y31775D3*
G1X29488Y31775D3*
G1X29684Y31775D3*
G1X25748Y31578D3*
G1X25944Y31578D3*
G1X26338Y31578D3*
G1X26535Y31578D3*
G1X28897Y31578D3*
G1X29094Y31578D3*
G1X29488Y31578D3*
G1X29684Y31578D3*
G1X25944Y31382D3*
G1X26338Y31382D3*
G1X26535Y31382D3*
G1X28897Y31382D3*
G1X29094Y31382D3*
G1X29488Y31382D3*
G1X29684Y31382D3*
G1X25944Y31185D3*
G1X26338Y31185D3*
G1X26535Y31185D3*
G1X28897Y31185D3*
G1X29094Y31185D3*
G1X29488Y31185D3*
G1X29684Y31185D3*
G1X26338Y30988D3*
G1X26535Y30988D3*
G1X28897Y30988D3*
G1X29094Y30988D3*
G1X29488Y30988D3*
G1X29684Y30988D3*
G1X25944Y30791D3*
G1X26338Y30791D3*
G1X26535Y30791D3*
G1X28897Y30791D3*
G1X29094Y30791D3*
G1X29488Y30791D3*
G1X29684Y30791D3*
G1X25748Y30594D3*
G1X25944Y30594D3*
G1X26338Y30594D3*
G1X26535Y30594D3*
G1X28897Y30594D3*
G1X29094Y30594D3*
G1X29488Y30594D3*
G1X29684Y30594D3*
G1X25748Y30397D3*
G1X25944Y30397D3*
G1X26338Y30397D3*
G1X26535Y30397D3*
G1X28897Y30397D3*
G1X29094Y30397D3*
G1X29488Y30397D3*
G1X29684Y30397D3*
G1X25944Y30201D3*
G1X26338Y30201D3*
G1X26535Y30201D3*
G1X28897Y30201D3*
G1X29094Y30201D3*
G1X25748Y30004D3*
G1X25944Y30004D3*
G1X26338Y30004D3*
G1X26535Y30004D3*
G1X28897Y30004D3*
G1X29094Y30004D3*
G1X29488Y30004D3*
G1X25748Y29807D3*
G1X25944Y29807D3*
G1X26338Y29807D3*
G1X26535Y29807D3*
G1X28897Y29807D3*
G1X29094Y29807D3*
G1X29488Y29807D3*
G1X29684Y29807D3*
G1X25748Y29610D3*
G1X25944Y29610D3*
G1X26338Y29610D3*
G1X26535Y29610D3*
G1X28897Y29610D3*
G1X29094Y29610D3*
G1X29488Y29610D3*
G1X29684Y29610D3*
G1X25748Y29413D3*
G1X25944Y29413D3*
G1X26338Y29413D3*
G1X26535Y29413D3*
G1X26732Y29413D3*
G1X26929Y29413D3*
G1X27125Y29413D3*
G1X27322Y29413D3*
G1X27519Y29413D3*
G1X27716Y29413D3*
G1X27913Y29413D3*
G1X28110Y29413D3*
G1X28307Y29413D3*
G1X28503Y29413D3*
G1X28700Y29413D3*
G1X28897Y29413D3*
G1X29094Y29413D3*
G1X29488Y29413D3*
G1X29684Y29413D3*
G1X25944Y29216D3*
G1X26338Y29216D3*
G1X26535Y29216D3*
G1X26732Y29216D3*
G1X26929Y29216D3*
G1X27125Y29216D3*
G1X27322Y29216D3*
G1X27519Y29216D3*
G1X27716Y29216D3*
G1X27913Y29216D3*
G1X28110Y29216D3*
G1X28307Y29216D3*
G1X28503Y29216D3*
G1X28700Y29216D3*
G1X28897Y29216D3*
G1X29094Y29216D3*
G1X29488Y29216D3*
G1X29684Y29216D3*
G1X25944Y29019D3*
G1X29488Y29019D3*
G1X29684Y29019D3*
G1X25944Y28823D3*
G1X26141Y28823D3*
G1X26338Y28823D3*
G1X26535Y28823D3*
G1X26732Y28823D3*
G1X26929Y28823D3*
G1X27125Y28823D3*
G1X27322Y28823D3*
G1X27519Y28823D3*
G1X27716Y28823D3*
G1X27913Y28823D3*
G1X28110Y28823D3*
G1X28307Y28823D3*
G1X28503Y28823D3*
G1X28700Y28823D3*
G1X28897Y28823D3*
G1X29094Y28823D3*
G1X29291Y28823D3*
G1X29488Y28823D3*
G1X29684Y28823D3*
G1X25944Y28626D3*
G1X26141Y28626D3*
G1X26338Y28626D3*
G1X26535Y28626D3*
G1X26732Y28626D3*
G1X26929Y28626D3*
G1X27125Y28626D3*
G1X27322Y28626D3*
G1X27519Y28626D3*
G1X27716Y28626D3*
G1X27913Y28626D3*
G1X28110Y28626D3*
G1X28307Y28626D3*
G1X28503Y28626D3*
G1X28700Y28626D3*
G1X28897Y28626D3*
G1X29094Y28626D3*
G1X29291Y28626D3*
G1X29488Y28626D3*
G1X29684Y28626D3*
G1X26535Y31972D3*
G54D261*
G1X31576Y34874D3*
G1X30906Y34874D3*
G54D281*
G1X30477Y32392D3*
G1X30477Y33081D3*
G54D282*
G1X31816Y29234D3*
G1X31816Y29844D3*
G1X31166Y29234D3*
G1X31166Y29844D3*
G54D283*
G1X25346Y26715D3*
G1X24845Y26214D3*
G1X25987Y26075D3*
G1X25486Y25574D3*
G54D284*
G1X32670Y28166D3*
G1X32670Y28362D3*
G1X32670Y30331D3*
G1X32670Y30134D3*
G1X32670Y29937D3*
G1X32670Y29740D3*
G1X32670Y29544D3*
G1X32670Y29347D3*
G1X32670Y29150D3*
G1X32670Y28953D3*
G1X32670Y28756D3*
G1X32670Y28559D3*
G54D256*
G1X33162Y31030D3*
G1X33162Y27467D3*
G54D285*
G1X26316Y33844D3*
G54D286*
G1X26828Y33372D3*
G1X26828Y33687D3*
G1X26828Y34002D3*
G1X26828Y34317D3*
G1X25804Y34317D3*
G1X25804Y34002D3*
G1X25804Y33687D3*
G1X25804Y33372D3*
G54D287*
G1X31593Y26344D3*
G1X31593Y26088D3*
G1X31593Y25832D3*
G1X30766Y25832D3*
G1X30766Y26088D3*
G1X30766Y26344D3*
G54D288*
G1X32116Y31947D3*
G1X32116Y31041D3*

%LPD*%
%LNbl*%
%FSLAX24Y24*%
%MOIN*%
%AD*%
%ADD87C,0.041339*%
G54D87*
%SRX1Y1I0.0J0.0*%
G1X-824Y31808D3*
G1X-824Y3776D3*
G1X37050Y29839D3*

M2*
