*
%LPD*%
%FSLAX24Y24*%
%MOIN*%
%AD*%
%ADD249R,0.01969X0.02362*%
%ADD250R,0.02362X0.03543*%
%ADD251R,0.03543X0.02362*%
%ADD252R,0.02362X0.01969*%
%ADD263R,0.01181X0.01299*%
%ADD264R,0.01299X0.01181*%
%ADD265R,0.023622X0.023622*%
%ADD266R,0.02756X0.00787*%
%ADD267R,0.00787X0.02756*%
%ADD273R,0.00984X0.02756*%
%ADD274R,0.02756X0.00984*%
%ADD276R,0.015748X0.009843*%
%ADD277R,0.009843X0.015748*%
%ADD289R,0.07874X0.0315*%
%ADD290R,0.1063X0.03937*%
%ADD291R,0.00787X0.0563*%
%AMROTATEDRECTD24-R90*
4,1,4,-0.008766,-0.003762,0.003762,0.008766,0.008766,0.003762,-0.003762,-0.008766,-0.008766,-0.003762,90*
%
%ADD292ROTATEDRECTD24-R90*%
%AMROTATEDRECTD25-D152-R90*
4,1,4,-0.010026,0.01503,0.01503,-0.010026,0.010026,-0.01503,-0.01503,0.010026,-0.010026,0.01503,90*
%
%ADD293ROTATEDRECTD25-D152-R90*%
%AMROTATEDRECTD28-R90*
4,1,4,0.01503,0.010026,-0.010026,-0.01503,-0.01503,-0.010026,0.010026,0.01503,0.01503,0.010026,90*
%
%ADD294ROTATEDRECTD28-R90*%
%ADD295R,0.0315X0.03543*%
%ADD296R,0.033465X0.059055*%
G54D252*
%SRX1Y1I0.0J0.0*%
G1X5603Y6149D3*
G1X5603Y6523D3*
G1X4343Y5513D3*
G1X4343Y5139D3*
G1X9743Y10313D3*
G1X9743Y9939D3*
G1X6743Y10639D3*
G1X6743Y11013D3*
G1X9793Y6689D3*
G1X9793Y7063D3*
G1X2993Y6119D3*
G1X2993Y6493D3*
G1X3443Y6109D3*
G1X3443Y6483D3*
G1X9293Y10313D3*
G1X9293Y9939D3*
G1X11293Y3739D3*
G1X11293Y4113D3*
G1X10693Y10313D3*
G1X10693Y9939D3*
G1X9393Y7063D3*
G1X9393Y6689D3*
G1X7143Y11013D3*
G1X7143Y10639D3*
G1X9393Y5939D3*
G1X9393Y6313D3*
G1X8243Y9939D3*
G1X8243Y10313D3*
G1X8743Y9939D3*
G1X8743Y10313D3*
G1X10243Y9939D3*
G1X10243Y10313D3*
G1X3943Y5513D3*
G1X3943Y5139D3*
G54D264*
G1X5013Y6300D3*
G1X5013Y6512D3*
G1X2263Y4152D3*
G1X2263Y3940D3*
G1X4623Y6300D3*
G1X4623Y6512D3*
G1X3843Y6512D3*
G1X3843Y6300D3*
G1X5013Y7102D3*
G1X5013Y6890D3*
G1X4753Y4710D3*
G1X4753Y4922D3*
G1X2463Y6290D3*
G1X2463Y6502D3*
G1X5603Y7102D3*
G1X5603Y6890D3*
G1X3843Y7102D3*
G1X3843Y6890D3*
G1X4623Y6890D3*
G1X4623Y7102D3*
G1X4233Y6300D3*
G1X4233Y6512D3*
G54D263*
G1X1667Y3156D3*
G1X1879Y3156D3*
G1X5029Y5516D3*
G1X4817Y5516D3*
G1X1879Y5916D3*
G1X1667Y5916D3*
G1X5029Y5916D3*
G1X4817Y5916D3*
G1X1879Y6696D3*
G1X1667Y6696D3*
G1X1667Y7086D3*
G1X1879Y7086D3*
G1X4227Y3846D3*
G1X4439Y3846D3*
G1X3527Y4366D3*
G1X3739Y4366D3*
G1X2947Y3326D3*
G1X3159Y3326D3*
G1X3517Y3846D3*
G1X3729Y3846D3*
G1X3517Y3326D3*
G1X3729Y3326D3*
G1X1879Y6306D3*
G1X1667Y6306D3*
G1X1879Y3946D3*
G1X1667Y3946D3*
G1X4827Y3846D3*
G1X5039Y3846D3*
G1X5217Y3326D3*
G1X5429Y3326D3*
G1X1879Y3546D3*
G1X1667Y3546D3*
G1X2947Y4366D3*
G1X3159Y4366D3*
G1X2947Y3846D3*
G1X3159Y3846D3*
G54D251*
G1X7893Y4021D3*
G1X9593Y4431D3*
G1X7893Y3431D3*
G1X9593Y5021D3*
G54D250*
G1X9588Y7876D3*
G1X9898Y1226D3*
G1X10298Y7076D3*
G1X10088Y9276D3*
G1X8998Y7876D3*
G1X10488Y1226D3*
G1X10888Y7076D3*
G1X9498Y9276D3*
G54D265*
G1X10193Y3276D3*
G54D267*
G1X10350Y2725D3*
G1X9878Y3827D3*
G1X10036Y3827D3*
G1X10193Y3827D3*
G1X10350Y3827D3*
G1X10508Y3827D3*
G1X10508Y2725D3*
G1X10193Y2725D3*
G1X10036Y2725D3*
G1X9878Y2725D3*
G54D266*
G1X9642Y2961D3*
G1X9642Y3119D3*
G1X9642Y3276D3*
G1X9642Y3433D3*
G1X9642Y3591D3*
G1X10744Y3591D3*
G1X10744Y3433D3*
G1X10744Y3276D3*
G1X10744Y3119D3*
G1X10744Y2961D3*
G54D249*
G1X3530Y5126D3*
G1X3156Y5126D3*
G1X9006Y8376D3*
G1X9380Y8376D3*
G1X10880Y9276D3*
G1X10506Y9276D3*
G1X3156Y5536D3*
G1X3530Y5536D3*
G1X6180Y976D3*
G1X5806Y976D3*
G1X7656Y976D3*
G1X8030Y976D3*
G1X5080Y976D3*
G1X4706Y976D3*
G1X10880Y6576D3*
G1X10506Y6576D3*
G1X10506Y6176D3*
G1X10880Y6176D3*
G1X10156Y2126D3*
G1X10530Y2126D3*
G1X7530Y9876D3*
G1X7156Y9876D3*
G54D289*
G1X8743Y3263D3*
G1X8743Y4189D3*
G54D290*
G1X8993Y2327D3*
G1X8993Y1225D3*
G54D291*
G1X3843Y2761D3*
G1X4001Y2761D3*
G1X4158Y2761D3*
G1X4316Y2761D3*
G1X4473Y2761D3*
G1X4631Y2761D3*
G1X4788Y2761D3*
G1X4946Y2761D3*
G1X5103Y2761D3*
G1X5261Y2761D3*
G1X5418Y2761D3*
G1X5576Y2761D3*
G1X5733Y2761D3*
G1X5891Y2761D3*
G1X6048Y2761D3*
G1X6206Y2761D3*
G1X6363Y2761D3*
G1X6521Y2761D3*
G1X6678Y2761D3*
G1X6836Y2761D3*
G1X6993Y2761D3*
G1X7151Y2761D3*
G1X7308Y2761D3*
G1X7465Y2761D3*
G1X7623Y2761D3*
G1X7623Y1836D3*
G1X7465Y1836D3*
G1X7308Y1836D3*
G1X7151Y1836D3*
G1X6993Y1836D3*
G1X6836Y1836D3*
G1X6678Y1836D3*
G1X6521Y1836D3*
G1X6363Y1836D3*
G1X6206Y1836D3*
G1X6048Y1836D3*
G1X5891Y1836D3*
G1X5733Y1836D3*
G1X5576Y1836D3*
G1X5418Y1836D3*
G1X5261Y1836D3*
G1X5103Y1836D3*
G1X4946Y1836D3*
G1X4788Y1836D3*
G1X4631Y1836D3*
G1X4473Y1836D3*
G1X4316Y1836D3*
G1X4158Y1836D3*
G1X4001Y1836D3*
G1X3843Y1836D3*
G54D292*
G1X5521Y7898D3*
G54D293*
G1X5521Y10654D3*
G1X2765Y7898D3*
G54D274*
G1X5560Y8193D3*
G1X5560Y8390D3*
G1X5560Y8587D3*
G1X5560Y8784D3*
G1X5560Y8981D3*
G1X5560Y9178D3*
G1X5560Y9374D3*
G1X5560Y9571D3*
G1X5560Y9768D3*
G1X5560Y9965D3*
G1X5560Y10162D3*
G1X5560Y10359D3*
G1X2726Y10359D3*
G1X2726Y10162D3*
G1X2726Y9965D3*
G1X2726Y9768D3*
G1X2726Y9571D3*
G1X2726Y9374D3*
G1X2726Y9178D3*
G1X2726Y8981D3*
G1X2726Y8784D3*
G1X2726Y8587D3*
G1X2726Y8390D3*
G1X2726Y8193D3*
G54D273*
G1X5226Y10693D3*
G1X5029Y10693D3*
G1X4832Y10693D3*
G1X4635Y10693D3*
G1X4438Y10693D3*
G1X4241Y10693D3*
G1X4045Y10693D3*
G1X3848Y10693D3*
G1X3651Y10693D3*
G1X3454Y10693D3*
G1X3257Y10693D3*
G1X3060Y10693D3*
G1X3060Y7859D3*
G1X3257Y7859D3*
G1X3454Y7859D3*
G1X3651Y7859D3*
G1X3848Y7859D3*
G1X4045Y7859D3*
G1X4241Y7859D3*
G1X4438Y7859D3*
G1X4635Y7859D3*
G1X4832Y7859D3*
G1X5029Y7859D3*
G1X5226Y7859D3*
G54D294*
G1X2765Y10654D3*
G54D265*
G1X10593Y8176D3*
G54D277*
G1X10298Y8688D3*
G1X10495Y8688D3*
G1X10691Y8688D3*
G1X10888Y8688D3*
G1X10298Y7664D3*
G1X10495Y7664D3*
G1X10691Y7664D3*
G1X10888Y7664D3*
G54D276*
G1X11105Y7881D3*
G1X11105Y8078D3*
G1X11105Y8274D3*
G1X11105Y8471D3*
G1X10081Y7881D3*
G1X10081Y8078D3*
G1X10081Y8274D3*
G1X10081Y8471D3*
G54D295*
G1X11067Y5570D3*
G1X10319Y5570D3*
G1X10693Y4782D3*
G54D296*
G1X1879Y5296D3*
G1X2568Y5296D3*
G54D252*
G1X5603Y18117D3*
G1X5603Y18491D3*
G1X4343Y17481D3*
G1X4343Y17107D3*
G1X9743Y22281D3*
G1X9743Y21907D3*
G1X6743Y22607D3*
G1X6743Y22981D3*
G1X9793Y18657D3*
G1X9793Y19031D3*
G1X2993Y18087D3*
G1X2993Y18461D3*
G1X3443Y18077D3*
G1X3443Y18451D3*
G1X9293Y22281D3*
G1X9293Y21907D3*
G1X11293Y15707D3*
G1X11293Y16081D3*
G1X10693Y22281D3*
G1X10693Y21907D3*
G1X9393Y19031D3*
G1X9393Y18657D3*
G1X7143Y22981D3*
G1X7143Y22607D3*
G1X9393Y17907D3*
G1X9393Y18281D3*
G1X8243Y21907D3*
G1X8243Y22281D3*
G1X8743Y21907D3*
G1X8743Y22281D3*
G1X10243Y21907D3*
G1X10243Y22281D3*
G1X3943Y17481D3*
G1X3943Y17107D3*
G54D264*
G1X5013Y18268D3*
G1X5013Y18480D3*
G1X2263Y16120D3*
G1X2263Y15908D3*
G1X4623Y18268D3*
G1X4623Y18480D3*
G1X3843Y18480D3*
G1X3843Y18268D3*
G1X5013Y19070D3*
G1X5013Y18858D3*
G1X4753Y16678D3*
G1X4753Y16890D3*
G1X2463Y18258D3*
G1X2463Y18470D3*
G1X5603Y19070D3*
G1X5603Y18858D3*
G1X3843Y19070D3*
G1X3843Y18858D3*
G1X4623Y18858D3*
G1X4623Y19070D3*
G1X4233Y18268D3*
G1X4233Y18480D3*
G54D263*
G1X1667Y15124D3*
G1X1879Y15124D3*
G1X5029Y17484D3*
G1X4817Y17484D3*
G1X1879Y17884D3*
G1X1667Y17884D3*
G1X5029Y17884D3*
G1X4817Y17884D3*
G1X1879Y18664D3*
G1X1667Y18664D3*
G1X1667Y19054D3*
G1X1879Y19054D3*
G1X4227Y15814D3*
G1X4439Y15814D3*
G1X3527Y16334D3*
G1X3739Y16334D3*
G1X2947Y15294D3*
G1X3159Y15294D3*
G1X3517Y15814D3*
G1X3729Y15814D3*
G1X3517Y15294D3*
G1X3729Y15294D3*
G1X1879Y18274D3*
G1X1667Y18274D3*
G1X1879Y15914D3*
G1X1667Y15914D3*
G1X4827Y15814D3*
G1X5039Y15814D3*
G1X5217Y15294D3*
G1X5429Y15294D3*
G1X1879Y15514D3*
G1X1667Y15514D3*
G1X2947Y16334D3*
G1X3159Y16334D3*
G1X2947Y15814D3*
G1X3159Y15814D3*
G54D251*
G1X7893Y15989D3*
G1X9593Y16399D3*
G1X7893Y15399D3*
G1X9593Y16989D3*
G54D250*
G1X9588Y19844D3*
G1X9898Y13194D3*
G1X10298Y19044D3*
G1X10088Y21244D3*
G1X8998Y19844D3*
G1X10488Y13194D3*
G1X10888Y19044D3*
G1X9498Y21244D3*
G54D265*
G1X10193Y15244D3*
G54D267*
G1X10350Y14693D3*
G1X9878Y15795D3*
G1X10036Y15795D3*
G1X10193Y15795D3*
G1X10350Y15795D3*
G1X10508Y15795D3*
G1X10508Y14693D3*
G1X10193Y14693D3*
G1X10036Y14693D3*
G1X9878Y14693D3*
G54D266*
G1X9642Y14929D3*
G1X9642Y15087D3*
G1X9642Y15244D3*
G1X9642Y15401D3*
G1X9642Y15559D3*
G1X10744Y15559D3*
G1X10744Y15401D3*
G1X10744Y15244D3*
G1X10744Y15087D3*
G1X10744Y14929D3*
G54D249*
G1X3530Y17094D3*
G1X3156Y17094D3*
G1X9006Y20344D3*
G1X9380Y20344D3*
G1X10880Y21244D3*
G1X10506Y21244D3*
G1X3156Y17504D3*
G1X3530Y17504D3*
G1X6180Y12944D3*
G1X5806Y12944D3*
G1X7656Y12944D3*
G1X8030Y12944D3*
G1X5080Y12944D3*
G1X4706Y12944D3*
G1X10880Y18544D3*
G1X10506Y18544D3*
G1X10506Y18144D3*
G1X10880Y18144D3*
G1X10156Y14094D3*
G1X10530Y14094D3*
G1X7530Y21844D3*
G1X7156Y21844D3*
G54D289*
G1X8743Y15231D3*
G1X8743Y16157D3*
G54D290*
G1X8993Y14295D3*
G1X8993Y13193D3*
G54D291*
G1X3843Y14729D3*
G1X4001Y14729D3*
G1X4158Y14729D3*
G1X4316Y14729D3*
G1X4473Y14729D3*
G1X4631Y14729D3*
G1X4788Y14729D3*
G1X4946Y14729D3*
G1X5103Y14729D3*
G1X5261Y14729D3*
G1X5418Y14729D3*
G1X5576Y14729D3*
G1X5733Y14729D3*
G1X5891Y14729D3*
G1X6048Y14729D3*
G1X6206Y14729D3*
G1X6363Y14729D3*
G1X6521Y14729D3*
G1X6678Y14729D3*
G1X6836Y14729D3*
G1X6993Y14729D3*
G1X7151Y14729D3*
G1X7308Y14729D3*
G1X7465Y14729D3*
G1X7623Y14729D3*
G1X7623Y13804D3*
G1X7465Y13804D3*
G1X7308Y13804D3*
G1X7151Y13804D3*
G1X6993Y13804D3*
G1X6836Y13804D3*
G1X6678Y13804D3*
G1X6521Y13804D3*
G1X6363Y13804D3*
G1X6206Y13804D3*
G1X6048Y13804D3*
G1X5891Y13804D3*
G1X5733Y13804D3*
G1X5576Y13804D3*
G1X5418Y13804D3*
G1X5261Y13804D3*
G1X5103Y13804D3*
G1X4946Y13804D3*
G1X4788Y13804D3*
G1X4631Y13804D3*
G1X4473Y13804D3*
G1X4316Y13804D3*
G1X4158Y13804D3*
G1X4001Y13804D3*
G1X3843Y13804D3*
G54D292*
G1X5521Y19866D3*
G54D293*
G1X5521Y22622D3*
G1X2765Y19866D3*
G54D274*
G1X5560Y20161D3*
G1X5560Y20358D3*
G1X5560Y20555D3*
G1X5560Y20752D3*
G1X5560Y20949D3*
G1X5560Y21146D3*
G1X5560Y21342D3*
G1X5560Y21539D3*
G1X5560Y21736D3*
G1X5560Y21933D3*
G1X5560Y22130D3*
G1X5560Y22327D3*
G1X2726Y22327D3*
G1X2726Y22130D3*
G1X2726Y21933D3*
G1X2726Y21736D3*
G1X2726Y21539D3*
G1X2726Y21342D3*
G1X2726Y21146D3*
G1X2726Y20949D3*
G1X2726Y20752D3*
G1X2726Y20555D3*
G1X2726Y20358D3*
G1X2726Y20161D3*
G54D273*
G1X5226Y22661D3*
G1X5029Y22661D3*
G1X4832Y22661D3*
G1X4635Y22661D3*
G1X4438Y22661D3*
G1X4241Y22661D3*
G1X4045Y22661D3*
G1X3848Y22661D3*
G1X3651Y22661D3*
G1X3454Y22661D3*
G1X3257Y22661D3*
G1X3060Y22661D3*
G1X3060Y19827D3*
G1X3257Y19827D3*
G1X3454Y19827D3*
G1X3651Y19827D3*
G1X3848Y19827D3*
G1X4045Y19827D3*
G1X4241Y19827D3*
G1X4438Y19827D3*
G1X4635Y19827D3*
G1X4832Y19827D3*
G1X5029Y19827D3*
G1X5226Y19827D3*
G54D294*
G1X2765Y22622D3*
G54D265*
G1X10593Y20144D3*
G54D277*
G1X10298Y20656D3*
G1X10495Y20656D3*
G1X10691Y20656D3*
G1X10888Y20656D3*
G1X10298Y19632D3*
G1X10495Y19632D3*
G1X10691Y19632D3*
G1X10888Y19632D3*
G54D276*
G1X11105Y19849D3*
G1X11105Y20046D3*
G1X11105Y20242D3*
G1X11105Y20439D3*
G1X10081Y19849D3*
G1X10081Y20046D3*
G1X10081Y20242D3*
G1X10081Y20439D3*
G54D295*
G1X11067Y17538D3*
G1X10319Y17538D3*
G1X10693Y16750D3*
G54D296*
G1X1879Y17264D3*
G1X2568Y17264D3*
G54D252*
G1X17571Y6149D3*
G1X17571Y6523D3*
G1X16311Y5513D3*
G1X16311Y5139D3*
G1X21711Y10313D3*
G1X21711Y9939D3*
G1X18711Y10639D3*
G1X18711Y11013D3*
G1X21761Y6689D3*
G1X21761Y7063D3*
G1X14961Y6119D3*
G1X14961Y6493D3*
G1X15411Y6109D3*
G1X15411Y6483D3*
G1X21261Y10313D3*
G1X21261Y9939D3*
G1X23261Y3739D3*
G1X23261Y4113D3*
G1X22661Y10313D3*
G1X22661Y9939D3*
G1X21361Y7063D3*
G1X21361Y6689D3*
G1X19111Y11013D3*
G1X19111Y10639D3*
G1X21361Y5939D3*
G1X21361Y6313D3*
G1X20211Y9939D3*
G1X20211Y10313D3*
G1X20711Y9939D3*
G1X20711Y10313D3*
G1X22211Y9939D3*
G1X22211Y10313D3*
G1X15911Y5513D3*
G1X15911Y5139D3*
G54D264*
G1X16981Y6300D3*
G1X16981Y6512D3*
G1X14231Y4152D3*
G1X14231Y3940D3*
G1X16591Y6300D3*
G1X16591Y6512D3*
G1X15811Y6512D3*
G1X15811Y6300D3*
G1X16981Y7102D3*
G1X16981Y6890D3*
G1X16721Y4710D3*
G1X16721Y4922D3*
G1X14431Y6290D3*
G1X14431Y6502D3*
G1X17571Y7102D3*
G1X17571Y6890D3*
G1X15811Y7102D3*
G1X15811Y6890D3*
G1X16591Y6890D3*
G1X16591Y7102D3*
G1X16201Y6300D3*
G1X16201Y6512D3*
G54D263*
G1X13635Y3156D3*
G1X13847Y3156D3*
G1X16997Y5516D3*
G1X16785Y5516D3*
G1X13847Y5916D3*
G1X13635Y5916D3*
G1X16997Y5916D3*
G1X16785Y5916D3*
G1X13847Y6696D3*
G1X13635Y6696D3*
G1X13635Y7086D3*
G1X13847Y7086D3*
G1X16195Y3846D3*
G1X16407Y3846D3*
G1X15495Y4366D3*
G1X15707Y4366D3*
G1X14915Y3326D3*
G1X15127Y3326D3*
G1X15485Y3846D3*
G1X15697Y3846D3*
G1X15485Y3326D3*
G1X15697Y3326D3*
G1X13847Y6306D3*
G1X13635Y6306D3*
G1X13847Y3946D3*
G1X13635Y3946D3*
G1X16795Y3846D3*
G1X17007Y3846D3*
G1X17185Y3326D3*
G1X17397Y3326D3*
G1X13847Y3546D3*
G1X13635Y3546D3*
G1X14915Y4366D3*
G1X15127Y4366D3*
G1X14915Y3846D3*
G1X15127Y3846D3*
G54D251*
G1X19861Y4021D3*
G1X21561Y4431D3*
G1X19861Y3431D3*
G1X21561Y5021D3*
G54D250*
G1X21556Y7876D3*
G1X21866Y1226D3*
G1X22266Y7076D3*
G1X22056Y9276D3*
G1X20966Y7876D3*
G1X22456Y1226D3*
G1X22856Y7076D3*
G1X21466Y9276D3*
G54D265*
G1X22161Y3276D3*
G54D267*
G1X22318Y2725D3*
G1X21846Y3827D3*
G1X22004Y3827D3*
G1X22161Y3827D3*
G1X22318Y3827D3*
G1X22476Y3827D3*
G1X22476Y2725D3*
G1X22161Y2725D3*
G1X22004Y2725D3*
G1X21846Y2725D3*
G54D266*
G1X21610Y2961D3*
G1X21610Y3119D3*
G1X21610Y3276D3*
G1X21610Y3433D3*
G1X21610Y3591D3*
G1X22712Y3591D3*
G1X22712Y3433D3*
G1X22712Y3276D3*
G1X22712Y3119D3*
G1X22712Y2961D3*
G54D249*
G1X15498Y5126D3*
G1X15124Y5126D3*
G1X20974Y8376D3*
G1X21348Y8376D3*
G1X22848Y9276D3*
G1X22474Y9276D3*
G1X15124Y5536D3*
G1X15498Y5536D3*
G1X18148Y976D3*
G1X17774Y976D3*
G1X19624Y976D3*
G1X19998Y976D3*
G1X17048Y976D3*
G1X16674Y976D3*
G1X22848Y6576D3*
G1X22474Y6576D3*
G1X22474Y6176D3*
G1X22848Y6176D3*
G1X22124Y2126D3*
G1X22498Y2126D3*
G1X19498Y9876D3*
G1X19124Y9876D3*
G54D289*
G1X20711Y3263D3*
G1X20711Y4189D3*
G54D290*
G1X20961Y2327D3*
G1X20961Y1225D3*
G54D291*
G1X15811Y2761D3*
G1X15969Y2761D3*
G1X16126Y2761D3*
G1X16284Y2761D3*
G1X16441Y2761D3*
G1X16599Y2761D3*
G1X16756Y2761D3*
G1X16914Y2761D3*
G1X17071Y2761D3*
G1X17229Y2761D3*
G1X17386Y2761D3*
G1X17544Y2761D3*
G1X17701Y2761D3*
G1X17859Y2761D3*
G1X18016Y2761D3*
G1X18174Y2761D3*
G1X18331Y2761D3*
G1X18489Y2761D3*
G1X18646Y2761D3*
G1X18804Y2761D3*
G1X18961Y2761D3*
G1X19119Y2761D3*
G1X19276Y2761D3*
G1X19433Y2761D3*
G1X19591Y2761D3*
G1X19591Y1836D3*
G1X19433Y1836D3*
G1X19276Y1836D3*
G1X19119Y1836D3*
G1X18961Y1836D3*
G1X18804Y1836D3*
G1X18646Y1836D3*
G1X18489Y1836D3*
G1X18331Y1836D3*
G1X18174Y1836D3*
G1X18016Y1836D3*
G1X17859Y1836D3*
G1X17701Y1836D3*
G1X17544Y1836D3*
G1X17386Y1836D3*
G1X17229Y1836D3*
G1X17071Y1836D3*
G1X16914Y1836D3*
G1X16756Y1836D3*
G1X16599Y1836D3*
G1X16441Y1836D3*
G1X16284Y1836D3*
G1X16126Y1836D3*
G1X15969Y1836D3*
G1X15811Y1836D3*
G54D292*
G1X17489Y7898D3*
G54D293*
G1X17489Y10654D3*
G1X14733Y7898D3*
G54D274*
G1X17528Y8193D3*
G1X17528Y8390D3*
G1X17528Y8587D3*
G1X17528Y8784D3*
G1X17528Y8981D3*
G1X17528Y9178D3*
G1X17528Y9374D3*
G1X17528Y9571D3*
G1X17528Y9768D3*
G1X17528Y9965D3*
G1X17528Y10162D3*
G1X17528Y10359D3*
G1X14694Y10359D3*
G1X14694Y10162D3*
G1X14694Y9965D3*
G1X14694Y9768D3*
G1X14694Y9571D3*
G1X14694Y9374D3*
G1X14694Y9178D3*
G1X14694Y8981D3*
G1X14694Y8784D3*
G1X14694Y8587D3*
G1X14694Y8390D3*
G1X14694Y8193D3*
G54D273*
G1X17194Y10693D3*
G1X16997Y10693D3*
G1X16800Y10693D3*
G1X16603Y10693D3*
G1X16406Y10693D3*
G1X16209Y10693D3*
G1X16013Y10693D3*
G1X15816Y10693D3*
G1X15619Y10693D3*
G1X15422Y10693D3*
G1X15225Y10693D3*
G1X15028Y10693D3*
G1X15028Y7859D3*
G1X15225Y7859D3*
G1X15422Y7859D3*
G1X15619Y7859D3*
G1X15816Y7859D3*
G1X16013Y7859D3*
G1X16209Y7859D3*
G1X16406Y7859D3*
G1X16603Y7859D3*
G1X16800Y7859D3*
G1X16997Y7859D3*
G1X17194Y7859D3*
G54D294*
G1X14733Y10654D3*
G54D265*
G1X22561Y8176D3*
G54D277*
G1X22266Y8688D3*
G1X22463Y8688D3*
G1X22659Y8688D3*
G1X22856Y8688D3*
G1X22266Y7664D3*
G1X22463Y7664D3*
G1X22659Y7664D3*
G1X22856Y7664D3*
G54D276*
G1X23073Y7881D3*
G1X23073Y8078D3*
G1X23073Y8274D3*
G1X23073Y8471D3*
G1X22049Y7881D3*
G1X22049Y8078D3*
G1X22049Y8274D3*
G1X22049Y8471D3*
G54D295*
G1X23035Y5570D3*
G1X22287Y5570D3*
G1X22661Y4782D3*
G54D296*
G1X13847Y5296D3*
G1X14536Y5296D3*
G54D252*
G1X17571Y18117D3*
G1X17571Y18491D3*
G1X16311Y17481D3*
G1X16311Y17107D3*
G1X21711Y22281D3*
G1X21711Y21907D3*
G1X18711Y22607D3*
G1X18711Y22981D3*
G1X21761Y18657D3*
G1X21761Y19031D3*
G1X14961Y18087D3*
G1X14961Y18461D3*
G1X15411Y18077D3*
G1X15411Y18451D3*
G1X21261Y22281D3*
G1X21261Y21907D3*
G1X23261Y15707D3*
G1X23261Y16081D3*
G1X22661Y22281D3*
G1X22661Y21907D3*
G1X21361Y19031D3*
G1X21361Y18657D3*
G1X19111Y22981D3*
G1X19111Y22607D3*
G1X21361Y17907D3*
G1X21361Y18281D3*
G1X20211Y21907D3*
G1X20211Y22281D3*
G1X20711Y21907D3*
G1X20711Y22281D3*
G1X22211Y21907D3*
G1X22211Y22281D3*
G1X15911Y17481D3*
G1X15911Y17107D3*
G54D264*
G1X16981Y18268D3*
G1X16981Y18480D3*
G1X14231Y16120D3*
G1X14231Y15908D3*
G1X16591Y18268D3*
G1X16591Y18480D3*
G1X15811Y18480D3*
G1X15811Y18268D3*
G1X16981Y19070D3*
G1X16981Y18858D3*
G1X16721Y16678D3*
G1X16721Y16890D3*
G1X14431Y18258D3*
G1X14431Y18470D3*
G1X17571Y19070D3*
G1X17571Y18858D3*
G1X15811Y19070D3*
G1X15811Y18858D3*
G1X16591Y18858D3*
G1X16591Y19070D3*
G1X16201Y18268D3*
G1X16201Y18480D3*
G54D263*
G1X13635Y15124D3*
G1X13847Y15124D3*
G1X16997Y17484D3*
G1X16785Y17484D3*
G1X13847Y17884D3*
G1X13635Y17884D3*
G1X16997Y17884D3*
G1X16785Y17884D3*
G1X13847Y18664D3*
G1X13635Y18664D3*
G1X13635Y19054D3*
G1X13847Y19054D3*
G1X16195Y15814D3*
G1X16407Y15814D3*
G1X15495Y16334D3*
G1X15707Y16334D3*
G1X14915Y15294D3*
G1X15127Y15294D3*
G1X15485Y15814D3*
G1X15697Y15814D3*
G1X15485Y15294D3*
G1X15697Y15294D3*
G1X13847Y18274D3*
G1X13635Y18274D3*
G1X13847Y15914D3*
G1X13635Y15914D3*
G1X16795Y15814D3*
G1X17007Y15814D3*
G1X17185Y15294D3*
G1X17397Y15294D3*
G1X13847Y15514D3*
G1X13635Y15514D3*
G1X14915Y16334D3*
G1X15127Y16334D3*
G1X14915Y15814D3*
G1X15127Y15814D3*
G54D251*
G1X19861Y15989D3*
G1X21561Y16399D3*
G1X19861Y15399D3*
G1X21561Y16989D3*
G54D250*
G1X21556Y19844D3*
G1X21866Y13194D3*
G1X22266Y19044D3*
G1X22056Y21244D3*
G1X20966Y19844D3*
G1X22456Y13194D3*
G1X22856Y19044D3*
G1X21466Y21244D3*
G54D265*
G1X22161Y15244D3*
G54D267*
G1X22318Y14693D3*
G1X21846Y15795D3*
G1X22004Y15795D3*
G1X22161Y15795D3*
G1X22318Y15795D3*
G1X22476Y15795D3*
G1X22476Y14693D3*
G1X22161Y14693D3*
G1X22004Y14693D3*
G1X21846Y14693D3*
G54D266*
G1X21610Y14929D3*
G1X21610Y15087D3*
G1X21610Y15244D3*
G1X21610Y15401D3*
G1X21610Y15559D3*
G1X22712Y15559D3*
G1X22712Y15401D3*
G1X22712Y15244D3*
G1X22712Y15087D3*
G1X22712Y14929D3*
G54D249*
G1X15498Y17094D3*
G1X15124Y17094D3*
G1X20974Y20344D3*
G1X21348Y20344D3*
G1X22848Y21244D3*
G1X22474Y21244D3*
G1X15124Y17504D3*
G1X15498Y17504D3*
G1X18148Y12944D3*
G1X17774Y12944D3*
G1X19624Y12944D3*
G1X19998Y12944D3*
G1X17048Y12944D3*
G1X16674Y12944D3*
G1X22848Y18544D3*
G1X22474Y18544D3*
G1X22474Y18144D3*
G1X22848Y18144D3*
G1X22124Y14094D3*
G1X22498Y14094D3*
G1X19498Y21844D3*
G1X19124Y21844D3*
G54D289*
G1X20711Y15231D3*
G1X20711Y16157D3*
G54D290*
G1X20961Y14295D3*
G1X20961Y13193D3*
G54D291*
G1X15811Y14729D3*
G1X15969Y14729D3*
G1X16126Y14729D3*
G1X16284Y14729D3*
G1X16441Y14729D3*
G1X16599Y14729D3*
G1X16756Y14729D3*
G1X16914Y14729D3*
G1X17071Y14729D3*
G1X17229Y14729D3*
G1X17386Y14729D3*
G1X17544Y14729D3*
G1X17701Y14729D3*
G1X17859Y14729D3*
G1X18016Y14729D3*
G1X18174Y14729D3*
G1X18331Y14729D3*
G1X18489Y14729D3*
G1X18646Y14729D3*
G1X18804Y14729D3*
G1X18961Y14729D3*
G1X19119Y14729D3*
G1X19276Y14729D3*
G1X19433Y14729D3*
G1X19591Y14729D3*
G1X19591Y13804D3*
G1X19433Y13804D3*
G1X19276Y13804D3*
G1X19119Y13804D3*
G1X18961Y13804D3*
G1X18804Y13804D3*
G1X18646Y13804D3*
G1X18489Y13804D3*
G1X18331Y13804D3*
G1X18174Y13804D3*
G1X18016Y13804D3*
G1X17859Y13804D3*
G1X17701Y13804D3*
G1X17544Y13804D3*
G1X17386Y13804D3*
G1X17229Y13804D3*
G1X17071Y13804D3*
G1X16914Y13804D3*
G1X16756Y13804D3*
G1X16599Y13804D3*
G1X16441Y13804D3*
G1X16284Y13804D3*
G1X16126Y13804D3*
G1X15969Y13804D3*
G1X15811Y13804D3*
G54D292*
G1X17489Y19866D3*
G54D293*
G1X17489Y22622D3*
G1X14733Y19866D3*
G54D274*
G1X17528Y20161D3*
G1X17528Y20358D3*
G1X17528Y20555D3*
G1X17528Y20752D3*
G1X17528Y20949D3*
G1X17528Y21146D3*
G1X17528Y21342D3*
G1X17528Y21539D3*
G1X17528Y21736D3*
G1X17528Y21933D3*
G1X17528Y22130D3*
G1X17528Y22327D3*
G1X14694Y22327D3*
G1X14694Y22130D3*
G1X14694Y21933D3*
G1X14694Y21736D3*
G1X14694Y21539D3*
G1X14694Y21342D3*
G1X14694Y21146D3*
G1X14694Y20949D3*
G1X14694Y20752D3*
G1X14694Y20555D3*
G1X14694Y20358D3*
G1X14694Y20161D3*
G54D273*
G1X17194Y22661D3*
G1X16997Y22661D3*
G1X16800Y22661D3*
G1X16603Y22661D3*
G1X16406Y22661D3*
G1X16209Y22661D3*
G1X16013Y22661D3*
G1X15816Y22661D3*
G1X15619Y22661D3*
G1X15422Y22661D3*
G1X15225Y22661D3*
G1X15028Y22661D3*
G1X15028Y19827D3*
G1X15225Y19827D3*
G1X15422Y19827D3*
G1X15619Y19827D3*
G1X15816Y19827D3*
G1X16013Y19827D3*
G1X16209Y19827D3*
G1X16406Y19827D3*
G1X16603Y19827D3*
G1X16800Y19827D3*
G1X16997Y19827D3*
G1X17194Y19827D3*
G54D294*
G1X14733Y22622D3*
G54D265*
G1X22561Y20144D3*
G54D277*
G1X22266Y20656D3*
G1X22463Y20656D3*
G1X22659Y20656D3*
G1X22856Y20656D3*
G1X22266Y19632D3*
G1X22463Y19632D3*
G1X22659Y19632D3*
G1X22856Y19632D3*
G54D276*
G1X23073Y19849D3*
G1X23073Y20046D3*
G1X23073Y20242D3*
G1X23073Y20439D3*
G1X22049Y19849D3*
G1X22049Y20046D3*
G1X22049Y20242D3*
G1X22049Y20439D3*
G54D295*
G1X23035Y17538D3*
G1X22287Y17538D3*
G1X22661Y16750D3*
G54D296*
G1X13847Y17264D3*
G1X14536Y17264D3*
G54D252*
G1X17571Y30086D3*
G1X17571Y30460D3*
G1X16311Y29450D3*
G1X16311Y29076D3*
G1X21711Y34250D3*
G1X21711Y33876D3*
G1X18711Y34576D3*
G1X18711Y34950D3*
G1X21761Y30626D3*
G1X21761Y31000D3*
G1X14961Y30056D3*
G1X14961Y30430D3*
G1X15411Y30046D3*
G1X15411Y30420D3*
G1X21261Y34250D3*
G1X21261Y33876D3*
G1X23261Y27676D3*
G1X23261Y28050D3*
G1X22661Y34250D3*
G1X22661Y33876D3*
G1X21361Y31000D3*
G1X21361Y30626D3*
G1X19111Y34950D3*
G1X19111Y34576D3*
G1X21361Y29876D3*
G1X21361Y30250D3*
G1X20211Y33876D3*
G1X20211Y34250D3*
G1X20711Y33876D3*
G1X20711Y34250D3*
G1X22211Y33876D3*
G1X22211Y34250D3*
G1X15911Y29450D3*
G1X15911Y29076D3*
G54D264*
G1X16981Y30237D3*
G1X16981Y30449D3*
G1X14231Y28089D3*
G1X14231Y27877D3*
G1X16591Y30237D3*
G1X16591Y30449D3*
G1X15811Y30449D3*
G1X15811Y30237D3*
G1X16981Y31039D3*
G1X16981Y30827D3*
G1X16721Y28647D3*
G1X16721Y28859D3*
G1X14431Y30227D3*
G1X14431Y30439D3*
G1X17571Y31039D3*
G1X17571Y30827D3*
G1X15811Y31039D3*
G1X15811Y30827D3*
G1X16591Y30827D3*
G1X16591Y31039D3*
G1X16201Y30237D3*
G1X16201Y30449D3*
G54D263*
G1X13635Y27093D3*
G1X13847Y27093D3*
G1X16997Y29453D3*
G1X16785Y29453D3*
G1X13847Y29853D3*
G1X13635Y29853D3*
G1X16997Y29853D3*
G1X16785Y29853D3*
G1X13847Y30633D3*
G1X13635Y30633D3*
G1X13635Y31023D3*
G1X13847Y31023D3*
G1X16195Y27783D3*
G1X16407Y27783D3*
G1X15495Y28303D3*
G1X15707Y28303D3*
G1X14915Y27263D3*
G1X15127Y27263D3*
G1X15485Y27783D3*
G1X15697Y27783D3*
G1X15485Y27263D3*
G1X15697Y27263D3*
G1X13847Y30243D3*
G1X13635Y30243D3*
G1X13847Y27883D3*
G1X13635Y27883D3*
G1X16795Y27783D3*
G1X17007Y27783D3*
G1X17185Y27263D3*
G1X17397Y27263D3*
G1X13847Y27483D3*
G1X13635Y27483D3*
G1X14915Y28303D3*
G1X15127Y28303D3*
G1X14915Y27783D3*
G1X15127Y27783D3*
G54D251*
G1X19861Y27958D3*
G1X21561Y28368D3*
G1X19861Y27368D3*
G1X21561Y28958D3*
G54D250*
G1X21556Y31813D3*
G1X21866Y25163D3*
G1X22266Y31013D3*
G1X22056Y33213D3*
G1X20966Y31813D3*
G1X22456Y25163D3*
G1X22856Y31013D3*
G1X21466Y33213D3*
G54D265*
G1X22161Y27213D3*
G54D267*
G1X22318Y26662D3*
G1X21846Y27764D3*
G1X22004Y27764D3*
G1X22161Y27764D3*
G1X22318Y27764D3*
G1X22476Y27764D3*
G1X22476Y26662D3*
G1X22161Y26662D3*
G1X22004Y26662D3*
G1X21846Y26662D3*
G54D266*
G1X21610Y26898D3*
G1X21610Y27056D3*
G1X21610Y27213D3*
G1X21610Y27370D3*
G1X21610Y27528D3*
G1X22712Y27528D3*
G1X22712Y27370D3*
G1X22712Y27213D3*
G1X22712Y27056D3*
G1X22712Y26898D3*
G54D249*
G1X15498Y29063D3*
G1X15124Y29063D3*
G1X20974Y32313D3*
G1X21348Y32313D3*
G1X22848Y33213D3*
G1X22474Y33213D3*
G1X15124Y29473D3*
G1X15498Y29473D3*
G1X18148Y24913D3*
G1X17774Y24913D3*
G1X19624Y24913D3*
G1X19998Y24913D3*
G1X17048Y24913D3*
G1X16674Y24913D3*
G1X22848Y30513D3*
G1X22474Y30513D3*
G1X22474Y30113D3*
G1X22848Y30113D3*
G1X22124Y26063D3*
G1X22498Y26063D3*
G1X19498Y33813D3*
G1X19124Y33813D3*
G54D289*
G1X20711Y27200D3*
G1X20711Y28126D3*
G54D290*
G1X20961Y26264D3*
G1X20961Y25162D3*
G54D291*
G1X15811Y26698D3*
G1X15969Y26698D3*
G1X16126Y26698D3*
G1X16284Y26698D3*
G1X16441Y26698D3*
G1X16599Y26698D3*
G1X16756Y26698D3*
G1X16914Y26698D3*
G1X17071Y26698D3*
G1X17229Y26698D3*
G1X17386Y26698D3*
G1X17544Y26698D3*
G1X17701Y26698D3*
G1X17859Y26698D3*
G1X18016Y26698D3*
G1X18174Y26698D3*
G1X18331Y26698D3*
G1X18489Y26698D3*
G1X18646Y26698D3*
G1X18804Y26698D3*
G1X18961Y26698D3*
G1X19119Y26698D3*
G1X19276Y26698D3*
G1X19433Y26698D3*
G1X19591Y26698D3*
G1X19591Y25773D3*
G1X19433Y25773D3*
G1X19276Y25773D3*
G1X19119Y25773D3*
G1X18961Y25773D3*
G1X18804Y25773D3*
G1X18646Y25773D3*
G1X18489Y25773D3*
G1X18331Y25773D3*
G1X18174Y25773D3*
G1X18016Y25773D3*
G1X17859Y25773D3*
G1X17701Y25773D3*
G1X17544Y25773D3*
G1X17386Y25773D3*
G1X17229Y25773D3*
G1X17071Y25773D3*
G1X16914Y25773D3*
G1X16756Y25773D3*
G1X16599Y25773D3*
G1X16441Y25773D3*
G1X16284Y25773D3*
G1X16126Y25773D3*
G1X15969Y25773D3*
G1X15811Y25773D3*
G54D292*
G1X17489Y31835D3*
G54D293*
G1X17489Y34591D3*
G1X14733Y31835D3*
G54D274*
G1X17528Y32130D3*
G1X17528Y32327D3*
G1X17528Y32524D3*
G1X17528Y32721D3*
G1X17528Y32918D3*
G1X17528Y33115D3*
G1X17528Y33311D3*
G1X17528Y33508D3*
G1X17528Y33705D3*
G1X17528Y33902D3*
G1X17528Y34099D3*
G1X17528Y34296D3*
G1X14694Y34296D3*
G1X14694Y34099D3*
G1X14694Y33902D3*
G1X14694Y33705D3*
G1X14694Y33508D3*
G1X14694Y33311D3*
G1X14694Y33115D3*
G1X14694Y32918D3*
G1X14694Y32721D3*
G1X14694Y32524D3*
G1X14694Y32327D3*
G1X14694Y32130D3*
G54D273*
G1X17194Y34630D3*
G1X16997Y34630D3*
G1X16800Y34630D3*
G1X16603Y34630D3*
G1X16406Y34630D3*
G1X16209Y34630D3*
G1X16013Y34630D3*
G1X15816Y34630D3*
G1X15619Y34630D3*
G1X15422Y34630D3*
G1X15225Y34630D3*
G1X15028Y34630D3*
G1X15028Y31796D3*
G1X15225Y31796D3*
G1X15422Y31796D3*
G1X15619Y31796D3*
G1X15816Y31796D3*
G1X16013Y31796D3*
G1X16209Y31796D3*
G1X16406Y31796D3*
G1X16603Y31796D3*
G1X16800Y31796D3*
G1X16997Y31796D3*
G1X17194Y31796D3*
G54D294*
G1X14733Y34591D3*
G54D265*
G1X22561Y32113D3*
G54D277*
G1X22266Y32625D3*
G1X22463Y32625D3*
G1X22659Y32625D3*
G1X22856Y32625D3*
G1X22266Y31601D3*
G1X22463Y31601D3*
G1X22659Y31601D3*
G1X22856Y31601D3*
G54D276*
G1X23073Y31818D3*
G1X23073Y32015D3*
G1X23073Y32211D3*
G1X23073Y32408D3*
G1X22049Y31818D3*
G1X22049Y32015D3*
G1X22049Y32211D3*
G1X22049Y32408D3*
G54D295*
G1X23035Y29507D3*
G1X22287Y29507D3*
G1X22661Y28719D3*
G54D296*
G1X13847Y29233D3*
G1X14536Y29233D3*
G54D252*
G1X5603Y30086D3*
G1X5603Y30460D3*
G1X4343Y29450D3*
G1X4343Y29076D3*
G1X9743Y34250D3*
G1X9743Y33876D3*
G1X6743Y34576D3*
G1X6743Y34950D3*
G1X9793Y30626D3*
G1X9793Y31000D3*
G1X2993Y30056D3*
G1X2993Y30430D3*
G1X3443Y30046D3*
G1X3443Y30420D3*
G1X9293Y34250D3*
G1X9293Y33876D3*
G1X11293Y27676D3*
G1X11293Y28050D3*
G1X10693Y34250D3*
G1X10693Y33876D3*
G1X9393Y31000D3*
G1X9393Y30626D3*
G1X7143Y34950D3*
G1X7143Y34576D3*
G1X9393Y29876D3*
G1X9393Y30250D3*
G1X8243Y33876D3*
G1X8243Y34250D3*
G1X8743Y33876D3*
G1X8743Y34250D3*
G1X10243Y33876D3*
G1X10243Y34250D3*
G1X3943Y29450D3*
G1X3943Y29076D3*
G54D264*
G1X5013Y30237D3*
G1X5013Y30449D3*
G1X2263Y28089D3*
G1X2263Y27877D3*
G1X4623Y30237D3*
G1X4623Y30449D3*
G1X3843Y30449D3*
G1X3843Y30237D3*
G1X5013Y31039D3*
G1X5013Y30827D3*
G1X4753Y28647D3*
G1X4753Y28859D3*
G1X2463Y30227D3*
G1X2463Y30439D3*
G1X5603Y31039D3*
G1X5603Y30827D3*
G1X3843Y31039D3*
G1X3843Y30827D3*
G1X4623Y30827D3*
G1X4623Y31039D3*
G1X4233Y30237D3*
G1X4233Y30449D3*
G54D263*
G1X1667Y27093D3*
G1X1879Y27093D3*
G1X5029Y29453D3*
G1X4817Y29453D3*
G1X1879Y29853D3*
G1X1667Y29853D3*
G1X5029Y29853D3*
G1X4817Y29853D3*
G1X1879Y30633D3*
G1X1667Y30633D3*
G1X1667Y31023D3*
G1X1879Y31023D3*
G1X4227Y27783D3*
G1X4439Y27783D3*
G1X3527Y28303D3*
G1X3739Y28303D3*
G1X2947Y27263D3*
G1X3159Y27263D3*
G1X3517Y27783D3*
G1X3729Y27783D3*
G1X3517Y27263D3*
G1X3729Y27263D3*
G1X1879Y30243D3*
G1X1667Y30243D3*
G1X1879Y27883D3*
G1X1667Y27883D3*
G1X4827Y27783D3*
G1X5039Y27783D3*
G1X5217Y27263D3*
G1X5429Y27263D3*
G1X1879Y27483D3*
G1X1667Y27483D3*
G1X2947Y28303D3*
G1X3159Y28303D3*
G1X2947Y27783D3*
G1X3159Y27783D3*
G54D251*
G1X7893Y27958D3*
G1X9593Y28368D3*
G1X7893Y27368D3*
G1X9593Y28958D3*
G54D250*
G1X9588Y31813D3*
G1X9898Y25163D3*
G1X10298Y31013D3*
G1X10088Y33213D3*
G1X8998Y31813D3*
G1X10488Y25163D3*
G1X10888Y31013D3*
G1X9498Y33213D3*
G54D265*
G1X10193Y27213D3*
G54D267*
G1X10350Y26662D3*
G1X9878Y27764D3*
G1X10036Y27764D3*
G1X10193Y27764D3*
G1X10350Y27764D3*
G1X10508Y27764D3*
G1X10508Y26662D3*
G1X10193Y26662D3*
G1X10036Y26662D3*
G1X9878Y26662D3*
G54D266*
G1X9642Y26898D3*
G1X9642Y27056D3*
G1X9642Y27213D3*
G1X9642Y27370D3*
G1X9642Y27528D3*
G1X10744Y27528D3*
G1X10744Y27370D3*
G1X10744Y27213D3*
G1X10744Y27056D3*
G1X10744Y26898D3*
G54D249*
G1X3530Y29063D3*
G1X3156Y29063D3*
G1X9006Y32313D3*
G1X9380Y32313D3*
G1X10880Y33213D3*
G1X10506Y33213D3*
G1X3156Y29473D3*
G1X3530Y29473D3*
G1X6180Y24913D3*
G1X5806Y24913D3*
G1X7656Y24913D3*
G1X8030Y24913D3*
G1X5080Y24913D3*
G1X4706Y24913D3*
G1X10880Y30513D3*
G1X10506Y30513D3*
G1X10506Y30113D3*
G1X10880Y30113D3*
G1X10156Y26063D3*
G1X10530Y26063D3*
G1X7530Y33813D3*
G1X7156Y33813D3*
G54D289*
G1X8743Y27200D3*
G1X8743Y28126D3*
G54D290*
G1X8993Y26264D3*
G1X8993Y25162D3*
G54D291*
G1X3843Y26698D3*
G1X4001Y26698D3*
G1X4158Y26698D3*
G1X4316Y26698D3*
G1X4473Y26698D3*
G1X4631Y26698D3*
G1X4788Y26698D3*
G1X4946Y26698D3*
G1X5103Y26698D3*
G1X5261Y26698D3*
G1X5418Y26698D3*
G1X5576Y26698D3*
G1X5733Y26698D3*
G1X5891Y26698D3*
G1X6048Y26698D3*
G1X6206Y26698D3*
G1X6363Y26698D3*
G1X6521Y26698D3*
G1X6678Y26698D3*
G1X6836Y26698D3*
G1X6993Y26698D3*
G1X7151Y26698D3*
G1X7308Y26698D3*
G1X7465Y26698D3*
G1X7623Y26698D3*
G1X7623Y25773D3*
G1X7465Y25773D3*
G1X7308Y25773D3*
G1X7151Y25773D3*
G1X6993Y25773D3*
G1X6836Y25773D3*
G1X6678Y25773D3*
G1X6521Y25773D3*
G1X6363Y25773D3*
G1X6206Y25773D3*
G1X6048Y25773D3*
G1X5891Y25773D3*
G1X5733Y25773D3*
G1X5576Y25773D3*
G1X5418Y25773D3*
G1X5261Y25773D3*
G1X5103Y25773D3*
G1X4946Y25773D3*
G1X4788Y25773D3*
G1X4631Y25773D3*
G1X4473Y25773D3*
G1X4316Y25773D3*
G1X4158Y25773D3*
G1X4001Y25773D3*
G1X3843Y25773D3*
G54D292*
G1X5521Y31835D3*
G54D293*
G1X5521Y34591D3*
G1X2765Y31835D3*
G54D274*
G1X5560Y32130D3*
G1X5560Y32327D3*
G1X5560Y32524D3*
G1X5560Y32721D3*
G1X5560Y32918D3*
G1X5560Y33115D3*
G1X5560Y33311D3*
G1X5560Y33508D3*
G1X5560Y33705D3*
G1X5560Y33902D3*
G1X5560Y34099D3*
G1X5560Y34296D3*
G1X2726Y34296D3*
G1X2726Y34099D3*
G1X2726Y33902D3*
G1X2726Y33705D3*
G1X2726Y33508D3*
G1X2726Y33311D3*
G1X2726Y33115D3*
G1X2726Y32918D3*
G1X2726Y32721D3*
G1X2726Y32524D3*
G1X2726Y32327D3*
G1X2726Y32130D3*
G54D273*
G1X5226Y34630D3*
G1X5029Y34630D3*
G1X4832Y34630D3*
G1X4635Y34630D3*
G1X4438Y34630D3*
G1X4241Y34630D3*
G1X4045Y34630D3*
G1X3848Y34630D3*
G1X3651Y34630D3*
G1X3454Y34630D3*
G1X3257Y34630D3*
G1X3060Y34630D3*
G1X3060Y31796D3*
G1X3257Y31796D3*
G1X3454Y31796D3*
G1X3651Y31796D3*
G1X3848Y31796D3*
G1X4045Y31796D3*
G1X4241Y31796D3*
G1X4438Y31796D3*
G1X4635Y31796D3*
G1X4832Y31796D3*
G1X5029Y31796D3*
G1X5226Y31796D3*
G54D294*
G1X2765Y34591D3*
G54D265*
G1X10593Y32113D3*
G54D277*
G1X10298Y32625D3*
G1X10495Y32625D3*
G1X10691Y32625D3*
G1X10888Y32625D3*
G1X10298Y31601D3*
G1X10495Y31601D3*
G1X10691Y31601D3*
G1X10888Y31601D3*
G54D276*
G1X11105Y31818D3*
G1X11105Y32015D3*
G1X11105Y32211D3*
G1X11105Y32408D3*
G1X10081Y31818D3*
G1X10081Y32015D3*
G1X10081Y32211D3*
G1X10081Y32408D3*
G54D295*
G1X11067Y29507D3*
G1X10319Y29507D3*
G1X10693Y28719D3*
G54D296*
G1X1879Y29233D3*
G1X2568Y29233D3*
G54D252*
G1X29540Y6149D3*
G1X29540Y6523D3*
G1X28280Y5513D3*
G1X28280Y5139D3*
G1X33680Y10313D3*
G1X33680Y9939D3*
G1X30680Y10639D3*
G1X30680Y11013D3*
G1X33730Y6689D3*
G1X33730Y7063D3*
G1X26930Y6119D3*
G1X26930Y6493D3*
G1X27380Y6109D3*
G1X27380Y6483D3*
G1X33230Y10313D3*
G1X33230Y9939D3*
G1X35230Y3739D3*
G1X35230Y4113D3*
G1X34630Y10313D3*
G1X34630Y9939D3*
G1X33330Y7063D3*
G1X33330Y6689D3*
G1X31080Y11013D3*
G1X31080Y10639D3*
G1X33330Y5939D3*
G1X33330Y6313D3*
G1X32180Y9939D3*
G1X32180Y10313D3*
G1X32680Y9939D3*
G1X32680Y10313D3*
G1X34180Y9939D3*
G1X34180Y10313D3*
G1X27880Y5513D3*
G1X27880Y5139D3*
G54D264*
G1X28950Y6300D3*
G1X28950Y6512D3*
G1X26200Y4152D3*
G1X26200Y3940D3*
G1X28560Y6300D3*
G1X28560Y6512D3*
G1X27780Y6512D3*
G1X27780Y6300D3*
G1X28950Y7102D3*
G1X28950Y6890D3*
G1X28690Y4710D3*
G1X28690Y4922D3*
G1X26400Y6290D3*
G1X26400Y6502D3*
G1X29540Y7102D3*
G1X29540Y6890D3*
G1X27780Y7102D3*
G1X27780Y6890D3*
G1X28560Y6890D3*
G1X28560Y7102D3*
G1X28170Y6300D3*
G1X28170Y6512D3*
G54D263*
G1X25604Y3156D3*
G1X25816Y3156D3*
G1X28966Y5516D3*
G1X28754Y5516D3*
G1X25816Y5916D3*
G1X25604Y5916D3*
G1X28966Y5916D3*
G1X28754Y5916D3*
G1X25816Y6696D3*
G1X25604Y6696D3*
G1X25604Y7086D3*
G1X25816Y7086D3*
G1X28164Y3846D3*
G1X28376Y3846D3*
G1X27464Y4366D3*
G1X27676Y4366D3*
G1X26884Y3326D3*
G1X27096Y3326D3*
G1X27454Y3846D3*
G1X27666Y3846D3*
G1X27454Y3326D3*
G1X27666Y3326D3*
G1X25816Y6306D3*
G1X25604Y6306D3*
G1X25816Y3946D3*
G1X25604Y3946D3*
G1X28764Y3846D3*
G1X28976Y3846D3*
G1X29154Y3326D3*
G1X29366Y3326D3*
G1X25816Y3546D3*
G1X25604Y3546D3*
G1X26884Y4366D3*
G1X27096Y4366D3*
G1X26884Y3846D3*
G1X27096Y3846D3*
G54D251*
G1X31830Y4021D3*
G1X33530Y4431D3*
G1X31830Y3431D3*
G1X33530Y5021D3*
G54D250*
G1X33525Y7876D3*
G1X33835Y1226D3*
G1X34235Y7076D3*
G1X34025Y9276D3*
G1X32935Y7876D3*
G1X34425Y1226D3*
G1X34825Y7076D3*
G1X33435Y9276D3*
G54D265*
G1X34130Y3276D3*
G54D267*
G1X34287Y2725D3*
G1X33815Y3827D3*
G1X33973Y3827D3*
G1X34130Y3827D3*
G1X34287Y3827D3*
G1X34445Y3827D3*
G1X34445Y2725D3*
G1X34130Y2725D3*
G1X33973Y2725D3*
G1X33815Y2725D3*
G54D266*
G1X33579Y2961D3*
G1X33579Y3119D3*
G1X33579Y3276D3*
G1X33579Y3433D3*
G1X33579Y3591D3*
G1X34681Y3591D3*
G1X34681Y3433D3*
G1X34681Y3276D3*
G1X34681Y3119D3*
G1X34681Y2961D3*
G54D249*
G1X27467Y5126D3*
G1X27093Y5126D3*
G1X32943Y8376D3*
G1X33317Y8376D3*
G1X34817Y9276D3*
G1X34443Y9276D3*
G1X27093Y5536D3*
G1X27467Y5536D3*
G1X30117Y976D3*
G1X29743Y976D3*
G1X31593Y976D3*
G1X31967Y976D3*
G1X29017Y976D3*
G1X28643Y976D3*
G1X34817Y6576D3*
G1X34443Y6576D3*
G1X34443Y6176D3*
G1X34817Y6176D3*
G1X34093Y2126D3*
G1X34467Y2126D3*
G1X31467Y9876D3*
G1X31093Y9876D3*
G54D289*
G1X32680Y3263D3*
G1X32680Y4189D3*
G54D290*
G1X32930Y2327D3*
G1X32930Y1225D3*
G54D291*
G1X27780Y2761D3*
G1X27938Y2761D3*
G1X28095Y2761D3*
G1X28253Y2761D3*
G1X28410Y2761D3*
G1X28568Y2761D3*
G1X28725Y2761D3*
G1X28883Y2761D3*
G1X29040Y2761D3*
G1X29198Y2761D3*
G1X29355Y2761D3*
G1X29513Y2761D3*
G1X29670Y2761D3*
G1X29828Y2761D3*
G1X29985Y2761D3*
G1X30143Y2761D3*
G1X30300Y2761D3*
G1X30458Y2761D3*
G1X30615Y2761D3*
G1X30773Y2761D3*
G1X30930Y2761D3*
G1X31088Y2761D3*
G1X31245Y2761D3*
G1X31402Y2761D3*
G1X31560Y2761D3*
G1X31560Y1836D3*
G1X31402Y1836D3*
G1X31245Y1836D3*
G1X31088Y1836D3*
G1X30930Y1836D3*
G1X30773Y1836D3*
G1X30615Y1836D3*
G1X30458Y1836D3*
G1X30300Y1836D3*
G1X30143Y1836D3*
G1X29985Y1836D3*
G1X29828Y1836D3*
G1X29670Y1836D3*
G1X29513Y1836D3*
G1X29355Y1836D3*
G1X29198Y1836D3*
G1X29040Y1836D3*
G1X28883Y1836D3*
G1X28725Y1836D3*
G1X28568Y1836D3*
G1X28410Y1836D3*
G1X28253Y1836D3*
G1X28095Y1836D3*
G1X27938Y1836D3*
G1X27780Y1836D3*
G54D292*
G1X29458Y7898D3*
G54D293*
G1X29458Y10654D3*
G1X26702Y7898D3*
G54D274*
G1X29497Y8193D3*
G1X29497Y8390D3*
G1X29497Y8587D3*
G1X29497Y8784D3*
G1X29497Y8981D3*
G1X29497Y9178D3*
G1X29497Y9374D3*
G1X29497Y9571D3*
G1X29497Y9768D3*
G1X29497Y9965D3*
G1X29497Y10162D3*
G1X29497Y10359D3*
G1X26663Y10359D3*
G1X26663Y10162D3*
G1X26663Y9965D3*
G1X26663Y9768D3*
G1X26663Y9571D3*
G1X26663Y9374D3*
G1X26663Y9178D3*
G1X26663Y8981D3*
G1X26663Y8784D3*
G1X26663Y8587D3*
G1X26663Y8390D3*
G1X26663Y8193D3*
G54D273*
G1X29163Y10693D3*
G1X28966Y10693D3*
G1X28769Y10693D3*
G1X28572Y10693D3*
G1X28375Y10693D3*
G1X28178Y10693D3*
G1X27982Y10693D3*
G1X27785Y10693D3*
G1X27588Y10693D3*
G1X27391Y10693D3*
G1X27194Y10693D3*
G1X26997Y10693D3*
G1X26997Y7859D3*
G1X27194Y7859D3*
G1X27391Y7859D3*
G1X27588Y7859D3*
G1X27785Y7859D3*
G1X27982Y7859D3*
G1X28178Y7859D3*
G1X28375Y7859D3*
G1X28572Y7859D3*
G1X28769Y7859D3*
G1X28966Y7859D3*
G1X29163Y7859D3*
G54D294*
G1X26702Y10654D3*
G54D265*
G1X34530Y8176D3*
G54D277*
G1X34235Y8688D3*
G1X34432Y8688D3*
G1X34628Y8688D3*
G1X34825Y8688D3*
G1X34235Y7664D3*
G1X34432Y7664D3*
G1X34628Y7664D3*
G1X34825Y7664D3*
G54D276*
G1X35042Y7881D3*
G1X35042Y8078D3*
G1X35042Y8274D3*
G1X35042Y8471D3*
G1X34018Y7881D3*
G1X34018Y8078D3*
G1X34018Y8274D3*
G1X34018Y8471D3*
G54D295*
G1X35004Y5570D3*
G1X34256Y5570D3*
G1X34630Y4782D3*
G54D296*
G1X25816Y5296D3*
G1X26505Y5296D3*
G54D252*
G1X29540Y18117D3*
G1X29540Y18491D3*
G1X28280Y17481D3*
G1X28280Y17107D3*
G1X33680Y22281D3*
G1X33680Y21907D3*
G1X30680Y22607D3*
G1X30680Y22981D3*
G1X33730Y18657D3*
G1X33730Y19031D3*
G1X26930Y18087D3*
G1X26930Y18461D3*
G1X27380Y18077D3*
G1X27380Y18451D3*
G1X33230Y22281D3*
G1X33230Y21907D3*
G1X35230Y15707D3*
G1X35230Y16081D3*
G1X34630Y22281D3*
G1X34630Y21907D3*
G1X33330Y19031D3*
G1X33330Y18657D3*
G1X31080Y22981D3*
G1X31080Y22607D3*
G1X33330Y17907D3*
G1X33330Y18281D3*
G1X32180Y21907D3*
G1X32180Y22281D3*
G1X32680Y21907D3*
G1X32680Y22281D3*
G1X34180Y21907D3*
G1X34180Y22281D3*
G1X27880Y17481D3*
G1X27880Y17107D3*
G54D264*
G1X28950Y18268D3*
G1X28950Y18480D3*
G1X26200Y16120D3*
G1X26200Y15908D3*
G1X28560Y18268D3*
G1X28560Y18480D3*
G1X27780Y18480D3*
G1X27780Y18268D3*
G1X28950Y19070D3*
G1X28950Y18858D3*
G1X28690Y16678D3*
G1X28690Y16890D3*
G1X26400Y18258D3*
G1X26400Y18470D3*
G1X29540Y19070D3*
G1X29540Y18858D3*
G1X27780Y19070D3*
G1X27780Y18858D3*
G1X28560Y18858D3*
G1X28560Y19070D3*
G1X28170Y18268D3*
G1X28170Y18480D3*
G54D263*
G1X25604Y15124D3*
G1X25816Y15124D3*
G1X28966Y17484D3*
G1X28754Y17484D3*
G1X25816Y17884D3*
G1X25604Y17884D3*
G1X28966Y17884D3*
G1X28754Y17884D3*
G1X25816Y18664D3*
G1X25604Y18664D3*
G1X25604Y19054D3*
G1X25816Y19054D3*
G1X28164Y15814D3*
G1X28376Y15814D3*
G1X27464Y16334D3*
G1X27676Y16334D3*
G1X26884Y15294D3*
G1X27096Y15294D3*
G1X27454Y15814D3*
G1X27666Y15814D3*
G1X27454Y15294D3*
G1X27666Y15294D3*
G1X25816Y18274D3*
G1X25604Y18274D3*
G1X25816Y15914D3*
G1X25604Y15914D3*
G1X28764Y15814D3*
G1X28976Y15814D3*
G1X29154Y15294D3*
G1X29366Y15294D3*
G1X25816Y15514D3*
G1X25604Y15514D3*
G1X26884Y16334D3*
G1X27096Y16334D3*
G1X26884Y15814D3*
G1X27096Y15814D3*
G54D251*
G1X31830Y15989D3*
G1X33530Y16399D3*
G1X31830Y15399D3*
G1X33530Y16989D3*
G54D250*
G1X33525Y19844D3*
G1X33835Y13194D3*
G1X34235Y19044D3*
G1X34025Y21244D3*
G1X32935Y19844D3*
G1X34425Y13194D3*
G1X34825Y19044D3*
G1X33435Y21244D3*
G54D265*
G1X34130Y15244D3*
G54D267*
G1X34287Y14693D3*
G1X33815Y15795D3*
G1X33973Y15795D3*
G1X34130Y15795D3*
G1X34287Y15795D3*
G1X34445Y15795D3*
G1X34445Y14693D3*
G1X34130Y14693D3*
G1X33973Y14693D3*
G1X33815Y14693D3*
G54D266*
G1X33579Y14929D3*
G1X33579Y15087D3*
G1X33579Y15244D3*
G1X33579Y15401D3*
G1X33579Y15559D3*
G1X34681Y15559D3*
G1X34681Y15401D3*
G1X34681Y15244D3*
G1X34681Y15087D3*
G1X34681Y14929D3*
G54D249*
G1X27467Y17094D3*
G1X27093Y17094D3*
G1X32943Y20344D3*
G1X33317Y20344D3*
G1X34817Y21244D3*
G1X34443Y21244D3*
G1X27093Y17504D3*
G1X27467Y17504D3*
G1X30117Y12944D3*
G1X29743Y12944D3*
G1X31593Y12944D3*
G1X31967Y12944D3*
G1X29017Y12944D3*
G1X28643Y12944D3*
G1X34817Y18544D3*
G1X34443Y18544D3*
G1X34443Y18144D3*
G1X34817Y18144D3*
G1X34093Y14094D3*
G1X34467Y14094D3*
G1X31467Y21844D3*
G1X31093Y21844D3*
G54D289*
G1X32680Y15231D3*
G1X32680Y16157D3*
G54D290*
G1X32930Y14295D3*
G1X32930Y13193D3*
G54D291*
G1X27780Y14729D3*
G1X27938Y14729D3*
G1X28095Y14729D3*
G1X28253Y14729D3*
G1X28410Y14729D3*
G1X28568Y14729D3*
G1X28725Y14729D3*
G1X28883Y14729D3*
G1X29040Y14729D3*
G1X29198Y14729D3*
G1X29355Y14729D3*
G1X29513Y14729D3*
G1X29670Y14729D3*
G1X29828Y14729D3*
G1X29985Y14729D3*
G1X30143Y14729D3*
G1X30300Y14729D3*
G1X30458Y14729D3*
G1X30615Y14729D3*
G1X30773Y14729D3*
G1X30930Y14729D3*
G1X31088Y14729D3*
G1X31245Y14729D3*
G1X31402Y14729D3*
G1X31560Y14729D3*
G1X31560Y13804D3*
G1X31402Y13804D3*
G1X31245Y13804D3*
G1X31088Y13804D3*
G1X30930Y13804D3*
G1X30773Y13804D3*
G1X30615Y13804D3*
G1X30458Y13804D3*
G1X30300Y13804D3*
G1X30143Y13804D3*
G1X29985Y13804D3*
G1X29828Y13804D3*
G1X29670Y13804D3*
G1X29513Y13804D3*
G1X29355Y13804D3*
G1X29198Y13804D3*
G1X29040Y13804D3*
G1X28883Y13804D3*
G1X28725Y13804D3*
G1X28568Y13804D3*
G1X28410Y13804D3*
G1X28253Y13804D3*
G1X28095Y13804D3*
G1X27938Y13804D3*
G1X27780Y13804D3*
G54D292*
G1X29458Y19866D3*
G54D293*
G1X29458Y22622D3*
G1X26702Y19866D3*
G54D274*
G1X29497Y20161D3*
G1X29497Y20358D3*
G1X29497Y20555D3*
G1X29497Y20752D3*
G1X29497Y20949D3*
G1X29497Y21146D3*
G1X29497Y21342D3*
G1X29497Y21539D3*
G1X29497Y21736D3*
G1X29497Y21933D3*
G1X29497Y22130D3*
G1X29497Y22327D3*
G1X26663Y22327D3*
G1X26663Y22130D3*
G1X26663Y21933D3*
G1X26663Y21736D3*
G1X26663Y21539D3*
G1X26663Y21342D3*
G1X26663Y21146D3*
G1X26663Y20949D3*
G1X26663Y20752D3*
G1X26663Y20555D3*
G1X26663Y20358D3*
G1X26663Y20161D3*
G54D273*
G1X29163Y22661D3*
G1X28966Y22661D3*
G1X28769Y22661D3*
G1X28572Y22661D3*
G1X28375Y22661D3*
G1X28178Y22661D3*
G1X27982Y22661D3*
G1X27785Y22661D3*
G1X27588Y22661D3*
G1X27391Y22661D3*
G1X27194Y22661D3*
G1X26997Y22661D3*
G1X26997Y19827D3*
G1X27194Y19827D3*
G1X27391Y19827D3*
G1X27588Y19827D3*
G1X27785Y19827D3*
G1X27982Y19827D3*
G1X28178Y19827D3*
G1X28375Y19827D3*
G1X28572Y19827D3*
G1X28769Y19827D3*
G1X28966Y19827D3*
G1X29163Y19827D3*
G54D294*
G1X26702Y22622D3*
G54D265*
G1X34530Y20144D3*
G54D277*
G1X34235Y20656D3*
G1X34432Y20656D3*
G1X34628Y20656D3*
G1X34825Y20656D3*
G1X34235Y19632D3*
G1X34432Y19632D3*
G1X34628Y19632D3*
G1X34825Y19632D3*
G54D276*
G1X35042Y19849D3*
G1X35042Y20046D3*
G1X35042Y20242D3*
G1X35042Y20439D3*
G1X34018Y19849D3*
G1X34018Y20046D3*
G1X34018Y20242D3*
G1X34018Y20439D3*
G54D295*
G1X35004Y17538D3*
G1X34256Y17538D3*
G1X34630Y16750D3*
G54D296*
G1X25816Y17264D3*
G1X26505Y17264D3*
G54D252*
G1X29540Y30086D3*
G1X29540Y30460D3*
G1X28280Y29450D3*
G1X28280Y29076D3*
G1X33680Y34250D3*
G1X33680Y33876D3*
G1X30680Y34576D3*
G1X30680Y34950D3*
G1X33730Y30626D3*
G1X33730Y31000D3*
G1X26930Y30056D3*
G1X26930Y30430D3*
G1X27380Y30046D3*
G1X27380Y30420D3*
G1X33230Y34250D3*
G1X33230Y33876D3*
G1X35230Y27676D3*
G1X35230Y28050D3*
G1X34630Y34250D3*
G1X34630Y33876D3*
G1X33330Y31000D3*
G1X33330Y30626D3*
G1X31080Y34950D3*
G1X31080Y34576D3*
G1X33330Y29876D3*
G1X33330Y30250D3*
G1X32180Y33876D3*
G1X32180Y34250D3*
G1X32680Y33876D3*
G1X32680Y34250D3*
G1X34180Y33876D3*
G1X34180Y34250D3*
G1X27880Y29450D3*
G1X27880Y29076D3*
G54D264*
G1X28950Y30237D3*
G1X28950Y30449D3*
G1X26200Y28089D3*
G1X26200Y27877D3*
G1X28560Y30237D3*
G1X28560Y30449D3*
G1X27780Y30449D3*
G1X27780Y30237D3*
G1X28950Y31039D3*
G1X28950Y30827D3*
G1X28690Y28647D3*
G1X28690Y28859D3*
G1X26400Y30227D3*
G1X26400Y30439D3*
G1X29540Y31039D3*
G1X29540Y30827D3*
G1X27780Y31039D3*
G1X27780Y30827D3*
G1X28560Y30827D3*
G1X28560Y31039D3*
G1X28170Y30237D3*
G1X28170Y30449D3*
G54D263*
G1X25604Y27093D3*
G1X25816Y27093D3*
G1X28966Y29453D3*
G1X28754Y29453D3*
G1X25816Y29853D3*
G1X25604Y29853D3*
G1X28966Y29853D3*
G1X28754Y29853D3*
G1X25816Y30633D3*
G1X25604Y30633D3*
G1X25604Y31023D3*
G1X25816Y31023D3*
G1X28164Y27783D3*
G1X28376Y27783D3*
G1X27464Y28303D3*
G1X27676Y28303D3*
G1X26884Y27263D3*
G1X27096Y27263D3*
G1X27454Y27783D3*
G1X27666Y27783D3*
G1X27454Y27263D3*
G1X27666Y27263D3*
G1X25816Y30243D3*
G1X25604Y30243D3*
G1X25816Y27883D3*
G1X25604Y27883D3*
G1X28764Y27783D3*
G1X28976Y27783D3*
G1X29154Y27263D3*
G1X29366Y27263D3*
G1X25816Y27483D3*
G1X25604Y27483D3*
G1X26884Y28303D3*
G1X27096Y28303D3*
G1X26884Y27783D3*
G1X27096Y27783D3*
G54D251*
G1X31830Y27958D3*
G1X33530Y28368D3*
G1X31830Y27368D3*
G1X33530Y28958D3*
G54D250*
G1X33525Y31813D3*
G1X33835Y25163D3*
G1X34235Y31013D3*
G1X34025Y33213D3*
G1X32935Y31813D3*
G1X34425Y25163D3*
G1X34825Y31013D3*
G1X33435Y33213D3*
G54D265*
G1X34130Y27213D3*
G54D267*
G1X34287Y26662D3*
G1X33815Y27764D3*
G1X33973Y27764D3*
G1X34130Y27764D3*
G1X34287Y27764D3*
G1X34445Y27764D3*
G1X34445Y26662D3*
G1X34130Y26662D3*
G1X33973Y26662D3*
G1X33815Y26662D3*
G54D266*
G1X33579Y26898D3*
G1X33579Y27056D3*
G1X33579Y27213D3*
G1X33579Y27370D3*
G1X33579Y27528D3*
G1X34681Y27528D3*
G1X34681Y27370D3*
G1X34681Y27213D3*
G1X34681Y27056D3*
G1X34681Y26898D3*
G54D249*
G1X27467Y29063D3*
G1X27093Y29063D3*
G1X32943Y32313D3*
G1X33317Y32313D3*
G1X34817Y33213D3*
G1X34443Y33213D3*
G1X27093Y29473D3*
G1X27467Y29473D3*
G1X30117Y24913D3*
G1X29743Y24913D3*
G1X31593Y24913D3*
G1X31967Y24913D3*
G1X29017Y24913D3*
G1X28643Y24913D3*
G1X34817Y30513D3*
G1X34443Y30513D3*
G1X34443Y30113D3*
G1X34817Y30113D3*
G1X34093Y26063D3*
G1X34467Y26063D3*
G1X31467Y33813D3*
G1X31093Y33813D3*
G54D289*
G1X32680Y27200D3*
G1X32680Y28126D3*
G54D290*
G1X32930Y26264D3*
G1X32930Y25162D3*
G54D291*
G1X27780Y26698D3*
G1X27938Y26698D3*
G1X28095Y26698D3*
G1X28253Y26698D3*
G1X28410Y26698D3*
G1X28568Y26698D3*
G1X28725Y26698D3*
G1X28883Y26698D3*
G1X29040Y26698D3*
G1X29198Y26698D3*
G1X29355Y26698D3*
G1X29513Y26698D3*
G1X29670Y26698D3*
G1X29828Y26698D3*
G1X29985Y26698D3*
G1X30143Y26698D3*
G1X30300Y26698D3*
G1X30458Y26698D3*
G1X30615Y26698D3*
G1X30773Y26698D3*
G1X30930Y26698D3*
G1X31088Y26698D3*
G1X31245Y26698D3*
G1X31402Y26698D3*
G1X31560Y26698D3*
G1X31560Y25773D3*
G1X31402Y25773D3*
G1X31245Y25773D3*
G1X31088Y25773D3*
G1X30930Y25773D3*
G1X30773Y25773D3*
G1X30615Y25773D3*
G1X30458Y25773D3*
G1X30300Y25773D3*
G1X30143Y25773D3*
G1X29985Y25773D3*
G1X29828Y25773D3*
G1X29670Y25773D3*
G1X29513Y25773D3*
G1X29355Y25773D3*
G1X29198Y25773D3*
G1X29040Y25773D3*
G1X28883Y25773D3*
G1X28725Y25773D3*
G1X28568Y25773D3*
G1X28410Y25773D3*
G1X28253Y25773D3*
G1X28095Y25773D3*
G1X27938Y25773D3*
G1X27780Y25773D3*
G54D292*
G1X29458Y31835D3*
G54D293*
G1X29458Y34591D3*
G1X26702Y31835D3*
G54D274*
G1X29497Y32130D3*
G1X29497Y32327D3*
G1X29497Y32524D3*
G1X29497Y32721D3*
G1X29497Y32918D3*
G1X29497Y33115D3*
G1X29497Y33311D3*
G1X29497Y33508D3*
G1X29497Y33705D3*
G1X29497Y33902D3*
G1X29497Y34099D3*
G1X29497Y34296D3*
G1X26663Y34296D3*
G1X26663Y34099D3*
G1X26663Y33902D3*
G1X26663Y33705D3*
G1X26663Y33508D3*
G1X26663Y33311D3*
G1X26663Y33115D3*
G1X26663Y32918D3*
G1X26663Y32721D3*
G1X26663Y32524D3*
G1X26663Y32327D3*
G1X26663Y32130D3*
G54D273*
G1X29163Y34630D3*
G1X28966Y34630D3*
G1X28769Y34630D3*
G1X28572Y34630D3*
G1X28375Y34630D3*
G1X28178Y34630D3*
G1X27982Y34630D3*
G1X27785Y34630D3*
G1X27588Y34630D3*
G1X27391Y34630D3*
G1X27194Y34630D3*
G1X26997Y34630D3*
G1X26997Y31796D3*
G1X27194Y31796D3*
G1X27391Y31796D3*
G1X27588Y31796D3*
G1X27785Y31796D3*
G1X27982Y31796D3*
G1X28178Y31796D3*
G1X28375Y31796D3*
G1X28572Y31796D3*
G1X28769Y31796D3*
G1X28966Y31796D3*
G1X29163Y31796D3*
G54D294*
G1X26702Y34591D3*
G54D265*
G1X34530Y32113D3*
G54D277*
G1X34235Y32625D3*
G1X34432Y32625D3*
G1X34628Y32625D3*
G1X34825Y32625D3*
G1X34235Y31601D3*
G1X34432Y31601D3*
G1X34628Y31601D3*
G1X34825Y31601D3*
G54D276*
G1X35042Y31818D3*
G1X35042Y32015D3*
G1X35042Y32211D3*
G1X35042Y32408D3*
G1X34018Y31818D3*
G1X34018Y32015D3*
G1X34018Y32211D3*
G1X34018Y32408D3*
G54D295*
G1X35004Y29507D3*
G1X34256Y29507D3*
G1X34630Y28719D3*
G54D296*
G1X25816Y29233D3*
G1X26505Y29233D3*

%LPD*%
%LNtl*%
%FSLAX24Y24*%
%MOIN*%
%AD*%
%ADD87C,0.041339*%
G54D87*
%SRX1Y1I0.0J0.0*%
G1X-960Y3913D3*
G1X-960Y31945D3*
G1X36914Y5882D3*

M2*
